<svg xmlns="http://www.w3.org/2000/svg" width="400" height="338" viewBox="0 0 400 338">
  <g id="Grupo_70300" data-name="Grupo 70300" transform="translate(-180.5 -2295)">
    <g id="Grupo_70180" data-name="Grupo 70180" transform="translate(-734.5 1897.917)">
      <rect id="Rectángulo_31121" data-name="Rectángulo 31121" width="400" height="338" transform="translate(915 397.083)" fill="none"/>
    </g>
    <g id="Grupo_70295" data-name="Grupo 70295" transform="matrix(0.974, 0.225, -0.225, 0.974, 374.909, 2389.556)">
      <g id="Grupo_67664" data-name="Grupo 67664" transform="translate(38.193 42.712)">
        <rect id="Rectángulo_31688" data-name="Rectángulo 31688" width="168.622" height="112.447" fill="#fafafa"/>
      </g>
      <g id="Grupo_67665" data-name="Grupo 67665" transform="translate(69.486 82.944)">
        <rect id="Rectángulo_31689" data-name="Rectángulo 31689" width="27.742" height="11.128" transform="translate(0 0)" fill="#d9a171"/>
      </g>
      <g id="Grupo_67666" data-name="Grupo 67666" transform="translate(152.711 82.944)">
        <rect id="Rectángulo_31690" data-name="Rectángulo 31690" width="27.742" height="11.128" transform="translate(0 0)" fill="#d9a171"/>
      </g>
      <g id="Grupo_67667" data-name="Grupo 67667" transform="translate(152.711 105.047)">
        <rect id="Rectángulo_31691" data-name="Rectángulo 31691" width="27.742" height="11.128" transform="translate(0 0)" fill="#d9a171"/>
      </g>
      <g id="Grupo_67668" data-name="Grupo 67668" transform="translate(152.711 116.098)">
        <rect id="Rectángulo_31692" data-name="Rectángulo 31692" width="27.742" height="11.128" fill="#d9a171"/>
      </g>
      <g id="Grupo_67669" data-name="Grupo 67669" transform="translate(97.228 105.246)">
        <rect id="Rectángulo_31693" data-name="Rectángulo 31693" width="27.742" height="11.128" transform="translate(0 0)" fill="#455a64"/>
      </g>
      <g id="Grupo_67670" data-name="Grupo 67670" transform="translate(124.923 116.51)">
        <rect id="Rectángulo_31694" data-name="Rectángulo 31694" width="27.742" height="11.128" transform="translate(0 0)" fill="#455a64"/>
      </g>
      <g id="Grupo_67671" data-name="Grupo 67671" transform="translate(97.228 138.586)">
        <rect id="Rectángulo_31695" data-name="Rectángulo 31695" width="27.742" height="11.579" transform="translate(0)" fill="#ebebeb"/>
      </g>
      <g id="Grupo_67672" data-name="Grupo 67672" transform="translate(152.711 138.741)">
        <rect id="Rectángulo_31696" data-name="Rectángulo 31696" width="27.742" height="11.128" fill="#d9a171"/>
      </g>
      <g id="Grupo_67673" data-name="Grupo 67673" transform="translate(51.907 72.068)">
        <rect id="Rectángulo_31697" data-name="Rectángulo 31697" width="149.785" height="10.876" transform="translate(0 0)" fill="#e0e0e0"/>
      </g>
      <g id="Grupo_67674" data-name="Grupo 67674" transform="translate(42.847 71.69)">
        <path id="Trazado_133953" data-name="Trazado 133953" d="M71.428,160.182H44.411V81.1H71.428Zm-26.26-.756h25.5V81.851h-25.5Z" transform="translate(-44.411 -81.095)" fill="#e0e0e0"/>
        <rect id="Rectángulo_31698" data-name="Rectángulo 31698" width="26.26" height="78.33" transform="translate(0.378 0.378)" fill="#e0e0e0"/>
      </g>
      <g id="Grupo_67675" data-name="Grupo 67675" transform="translate(38.193 42.712)">
        <rect id="Rectángulo_31699" data-name="Rectángulo 31699" width="168.622" height="12.757" fill="#d9a171"/>
      </g>
      <g id="Grupo_67676" data-name="Grupo 67676" transform="translate(43.524 60.118)">
        <rect id="Rectángulo_31700" data-name="Rectángulo 31700" width="25.962" height="7.301" fill="#ebebeb"/>
      </g>
      <g id="Grupo_67677" data-name="Grupo 67677" transform="translate(72.526 60.118)">
        <rect id="Rectángulo_31701" data-name="Rectángulo 31701" width="25.037" height="7.301" fill="#ebebeb"/>
      </g>
      <g id="Grupo_67678" data-name="Grupo 67678" transform="translate(99.985 60.118)">
        <rect id="Rectángulo_31702" data-name="Rectángulo 31702" width="25.037" height="7.301" transform="translate(0)" fill="#ebebeb"/>
      </g>
      <g id="Grupo_67679" data-name="Grupo 67679" transform="translate(127.444 60.118)">
        <rect id="Rectángulo_31703" data-name="Rectángulo 31703" width="25.037" height="7.301" fill="#ebebeb"/>
      </g>
      <g id="Grupo_67680" data-name="Grupo 67680" transform="translate(154.903 60.118)">
        <rect id="Rectángulo_31704" data-name="Rectángulo 31704" width="25.037" height="7.301" fill="#ebebeb"/>
      </g>
      <g id="Grupo_67681" data-name="Grupo 67681" transform="translate(182.362 60.118)">
        <rect id="Rectángulo_31705" data-name="Rectángulo 31705" width="20.58" height="7.301" fill="#ebebeb"/>
      </g>
      <g id="Grupo_67683" data-name="Grupo 67683" transform="translate(43.079 71.871)">
        <g id="Grupo_67682" data-name="Grupo 67682" transform="translate(0 0)">
          <path id="Trazado_133954" data-name="Trazado 133954" d="M44.864,159.629s.265-.008.775-.011l2.263-.011,8.76-.023,32.823-.051,113.846-.089-.186.186c0-24.153-.007-50.571-.011-78.086v-.011l.2.2L44.864,81.678l.146-.146c-.033,24.07-.06,43.577-.078,57.073-.016,6.754-.028,12-.036,15.569-.008,1.78-.013,3.139-.017,4.06s-.015,1.394-.015,1.394-.01-.458-.015-1.364-.009-2.266-.016-4.034c-.008-3.559-.02-8.8-.036-15.536-.019-13.517-.045-33.054-.079-57.163v-.145h.146l158.467-.051h.2v.208c0,27.514-.008,53.933-.011,78.086v.186h-.186l-113.97-.089-32.78-.051-8.722-.023-2.242-.011C45.114,159.636,44.864,159.629,44.864,159.629Z" transform="translate(-44.718 -81.335)" fill="#263238"/>
        </g>
      </g>
      <g id="Grupo_67685" data-name="Grupo 67685" transform="translate(43.524 82.747)">
        <g id="Grupo_67684" data-name="Grupo 67684">
          <path id="Trazado_133955" data-name="Trazado 133955" d="M203.772,95.913c0,.109-35.476.2-79.229.2-43.768,0-79.237-.088-79.237-.2s35.469-.2,79.237-.2C168.3,95.716,203.772,95.8,203.772,95.913Z" transform="translate(-45.306 -95.716)" fill="#263238"/>
        </g>
      </g>
      <g id="Grupo_67687" data-name="Grupo 67687" transform="translate(43.524 93.875)">
        <g id="Grupo_67686" data-name="Grupo 67686" transform="translate(0 0)">
          <path id="Trazado_133956" data-name="Trazado 133956" d="M203.772,110.629c0,.109-35.476.2-79.229.2-43.768,0-79.237-.088-79.237-.2s35.469-.2,79.237-.2C168.3,110.432,203.772,110.52,203.772,110.629Z" transform="translate(-45.306 -110.432)" fill="#263238"/>
        </g>
      </g>
      <g id="Grupo_67689" data-name="Grupo 67689" transform="translate(43.524 105.004)">
        <g id="Grupo_67688" data-name="Grupo 67688" transform="translate(0 0)">
          <path id="Trazado_133957" data-name="Trazado 133957" d="M203.772,125.345c0,.108-35.476.2-79.229.2-43.768,0-79.237-.088-79.237-.2s35.469-.2,79.237-.2C168.3,125.148,203.772,125.236,203.772,125.345Z" transform="translate(-45.306 -125.148)" fill="#263238"/>
        </g>
      </g>
      <g id="Grupo_67691" data-name="Grupo 67691" transform="translate(43.524 116.132)">
        <g id="Grupo_67690" data-name="Grupo 67690" transform="translate(0 0)">
          <path id="Trazado_133958" data-name="Trazado 133958" d="M203.772,140.061c0,.109-35.476.2-79.229.2-43.768,0-79.237-.088-79.237-.2s35.469-.2,79.237-.2C168.3,139.864,203.772,139.952,203.772,140.061Z" transform="translate(-45.306 -139.864)" fill="#263238"/>
        </g>
      </g>
      <g id="Grupo_67693" data-name="Grupo 67693" transform="translate(43.524 127.261)">
        <g id="Grupo_67692" data-name="Grupo 67692" transform="translate(0 0)">
          <path id="Trazado_133959" data-name="Trazado 133959" d="M203.772,154.777c0,.109-35.476.2-79.229.2-43.768,0-79.237-.088-79.237-.2s35.469-.2,79.237-.2C168.3,154.58,203.772,154.668,203.772,154.777Z" transform="translate(-45.306 -154.58)" fill="#263238"/>
        </g>
      </g>
      <g id="Grupo_67695" data-name="Grupo 67695" transform="translate(43.524 138.389)">
        <g id="Grupo_67694" data-name="Grupo 67694">
          <path id="Trazado_133960" data-name="Trazado 133960" d="M203.772,169.493c0,.109-35.476.2-79.229.2-43.768,0-79.237-.089-79.237-.2s35.469-.2,79.237-.2C168.3,169.3,203.772,169.384,203.772,169.493Z" transform="translate(-45.306 -169.296)" fill="#263238"/>
        </g>
      </g>
      <g id="Grupo_67697" data-name="Grupo 67697" transform="translate(66.204 72.328)">
        <g id="Grupo_67696" data-name="Grupo 67696">
          <path id="Trazado_133961" data-name="Trazado 133961" d="M75.3,81.939" transform="translate(-75.297 -81.939)" fill="none" stroke="#fff" stroke-miterlimit="10" stroke-width="1"/>
        </g>
      </g>
      <g id="Grupo_67699" data-name="Grupo 67699" transform="translate(69.289 72.506)">
        <g id="Grupo_67698" data-name="Grupo 67698" transform="translate(0)">
          <path id="Trazado_133962" data-name="Trazado 133962" d="M79.574,160.067c-.109,0-.2-17.438-.2-38.945s.088-38.948.2-38.948.2,17.435.2,38.948S79.683,160.067,79.574,160.067Z" transform="translate(-79.377 -82.174)" fill="#263238"/>
        </g>
      </g>
      <g id="Grupo_67701" data-name="Grupo 67701" transform="translate(97.031 72.506)">
        <g id="Grupo_67700" data-name="Grupo 67700" transform="translate(0)">
          <path id="Trazado_133963" data-name="Trazado 133963" d="M116.259,159.833c-.109,0-.2-17.386-.2-38.827s.088-38.832.2-38.832.2,17.382.2,38.832S116.368,159.833,116.259,159.833Z" transform="translate(-116.062 -82.174)" fill="#263238"/>
        </g>
      </g>
      <g id="Grupo_67703" data-name="Grupo 67703" transform="translate(124.772 72.506)">
        <g id="Grupo_67702" data-name="Grupo 67702">
          <path id="Trazado_133964" data-name="Trazado 133964" d="M152.943,160.067c-.109,0-.2-17.438-.2-38.945s.088-38.948.2-38.948.2,17.435.2,38.948S153.052,160.067,152.943,160.067Z" transform="translate(-152.746 -82.174)" fill="#263238"/>
        </g>
      </g>
      <g id="Grupo_67705" data-name="Grupo 67705" transform="translate(152.514 72.506)">
        <g id="Grupo_67704" data-name="Grupo 67704">
          <path id="Trazado_133965" data-name="Trazado 133965" d="M189.628,160.067c-.109,0-.2-17.438-.2-38.945s.088-38.948.2-38.948.2,17.435.2,38.948S189.737,160.067,189.628,160.067Z" transform="translate(-189.431 -82.174)" fill="#263238"/>
        </g>
      </g>
      <g id="Grupo_67707" data-name="Grupo 67707" transform="translate(180.255 72.506)">
        <g id="Grupo_67706" data-name="Grupo 67706">
          <path id="Trazado_133966" data-name="Trazado 133966" d="M226.312,160.067c-.109,0-.2-17.438-.2-38.945s.088-38.948.2-38.948.2,17.435.2,38.948S226.421,160.067,226.312,160.067Z" transform="translate(-226.115 -82.174)" fill="#263238"/>
        </g>
      </g>
      <g id="Grupo_67708" data-name="Grupo 67708" transform="translate(44.834 47.435)">
        <path id="Trazado_133967" data-name="Trazado 133967" d="M50.255,50.676a1.609,1.609,0,1,1-1.608-1.655A1.633,1.633,0,0,1,50.255,50.676Z" transform="translate(-47.038 -49.021)" fill="#fff"/>
      </g>
      <g id="Grupo_67709" data-name="Grupo 67709" transform="translate(50.299 47.435)">
        <path id="Trazado_133968" data-name="Trazado 133968" d="M57.482,50.676a1.609,1.609,0,1,1-1.608-1.655A1.633,1.633,0,0,1,57.482,50.676Z" transform="translate(-54.265 -49.021)" fill="#fff"/>
      </g>
      <g id="Grupo_67710" data-name="Grupo 67710" transform="translate(55.764 47.435)">
        <path id="Trazado_133969" data-name="Trazado 133969" d="M64.709,50.676A1.609,1.609,0,1,1,63.1,49.021,1.633,1.633,0,0,1,64.709,50.676Z" transform="translate(-61.492 -49.021)" fill="#fff"/>
      </g>
      <g id="Grupo_67712" data-name="Grupo 67712" transform="translate(37.996 42.515)">
        <g id="Grupo_67711" data-name="Grupo 67711">
          <path id="Trazado_133970" data-name="Trazado 133970" d="M206.814,155.159c0-1.284-.061-43.943-.157-112.447l.157.157-168.608.04h-.013l.2-.2c-.006,40.046-.011,78.132-.017,112.447l-.18-.181,121.5.089,34.7.048,9.224.022,2.378.011c.535,0,.813.011.813.011s-.263.007-.792.011l-2.358.011-9.189.022-34.66.048-121.623.088h-.181v-.181C38.007,120.845,38,82.758,38,42.712v-.2h.21l168.608.04h.158v.157C206.876,111.216,206.816,153.876,206.814,155.159Z" transform="translate(-37.996 -42.515)" fill="#263238"/>
        </g>
      </g>
    </g>
    <g id="Grupo_70296" data-name="Grupo 70296" transform="translate(472 2332.001)">
      <g id="Grupo_62584" data-name="Grupo 62584">
        <g id="Grupo_62578" data-name="Grupo 62578">
          <g id="Grupo_62577" data-name="Grupo 62577">
            <path id="Trazado_132423" data-name="Trazado 132423" d="M476.474,342.662a41.573,41.573,0,1,1-24.91-53.18A41.528,41.528,0,0,1,476.474,342.662Z" transform="translate(-395.827 -286.967)" fill="#f5f5f5"/>
          </g>
        </g>
        <g id="Grupo_62580" data-name="Grupo 62580" transform="translate(9.892 9.874)">
          <g id="Grupo_62579" data-name="Grupo 62579">
            <path id="Trazado_132424" data-name="Trazado 132424" d="M466.018,338.128A31.681,31.681,0,1,1,447.036,297.6,31.646,31.646,0,0,1,466.018,338.128Z" transform="translate(-404.561 -295.684)" fill="#ebebeb"/>
          </g>
        </g>
        <g id="Grupo_62583" data-name="Grupo 62583" transform="translate(11.443 8.698)">
          <g id="Grupo_62582" data-name="Grupo 62582">
            <g id="Grupo_62581" data-name="Grupo 62581">
              <path id="Trazado_132425" data-name="Trazado 132425" d="M466.168,337.331c-.182-.06.165-1.412.514-3.868a33.636,33.636,0,0,0-.119-10.374,32.443,32.443,0,0,0-1.977-6.843,31.694,31.694,0,0,0-4.074-7.045,31.089,31.089,0,0,0-6.414-6.259,30.745,30.745,0,0,0-4.043-2.485,33.662,33.662,0,0,0-4.511-1.888,34.144,34.144,0,0,0-4.751-1.154,30.922,30.922,0,0,0-4.731-.394,31.087,31.087,0,0,0-8.878,1.24,31.713,31.713,0,0,0-7.455,3.263,32.472,32.472,0,0,0-5.647,4.341,33.629,33.629,0,0,0-6.239,8.286c-1.172,2.184-1.693,3.481-1.876,3.418-.136-.042.079-1.443,1.021-3.82a29.278,29.278,0,0,1,5.87-9.088,31.744,31.744,0,0,1,13.674-8.537,30.555,30.555,0,0,1,4.6-1.081,30.978,30.978,0,0,1,4.925-.4,32.242,32.242,0,0,1,5.109.389,32.454,32.454,0,0,1,9.991,3.279,32.3,32.3,0,0,1,4.345,2.716,32.242,32.242,0,0,1,6.8,6.835,31.734,31.734,0,0,1,5.959,14.98,29.351,29.351,0,0,1-.654,10.8C466.96,336.12,466.3,337.376,466.168,337.331Z" transform="translate(-405.93 -294.646)" fill="#e0e0e0"/>
            </g>
          </g>
        </g>
      </g>
      <g id="Grupo_62588" data-name="Grupo 62588" transform="translate(23.489 20.326)">
        <g id="Grupo_62587" data-name="Grupo 62587">
          <g id="Grupo_62586" data-name="Grupo 62586">
            <g id="Grupo_62585" data-name="Grupo 62585">
              <path id="Trazado_132426" data-name="Trazado 132426" d="M431.565,345.07l-1.809,5.213-4.654-1.616,1.76-5.073c-4.51-1.879-8.432-4.856-10.3-7.746l4.529-4.791a19.924,19.924,0,0,0,7.884,6.439l2.7-7.774c-4.731-3.048-9.9-6.774-7.594-13.431,1.713-4.935,6.766-7.926,14.412-6.211l1.793-5.167,4.655,1.615-1.761,5.075a22.274,22.274,0,0,1,8.463,6.117l-4.314,4.919a20.19,20.19,0,0,0-6.282-4.894L438.3,325.66c4.746,3,9.827,6.7,7.549,13.259C444.172,343.76,439.179,346.721,431.565,345.07Zm2.487-22.191,2.292-6.609c-2.659-.3-4.106.714-4.639,2.249C431.14,320.147,432.229,321.519,434.052,322.879Zm4.113,14c.565-1.631-.478-2.982-2.237-4.377l-2.229,6.424C436.2,339.221,437.647,338.367,438.164,336.877Z" transform="translate(-416.565 -304.912)" fill="#e0e0e0"/>
            </g>
          </g>
        </g>
      </g>
    </g>
    <g id="Grupo_70298" data-name="Grupo 70298" transform="translate(490.521 2399.443) rotate(2)">
      <g id="Grupo_62584-2" data-name="Grupo 62584">
        <g id="Grupo_62578-2" data-name="Grupo 62578">
          <g id="Grupo_62577-2" data-name="Grupo 62577">
            <path id="Trazado_132423-2" data-name="Trazado 132423" d="M455.115,327.911A30.562,30.562,0,1,1,436.8,288.816,30.529,30.529,0,0,1,455.115,327.911Z" transform="translate(-395.827 -286.967)" fill="#f5f5f5"/>
          </g>
        </g>
        <g id="Grupo_62580-2" data-name="Grupo 62580" transform="translate(7.272 7.259)">
          <g id="Grupo_62579-2" data-name="Grupo 62579">
            <path id="Trazado_132424-2" data-name="Trazado 132424" d="M449.741,326.887a23.29,23.29,0,1,1-13.954-29.793A23.264,23.264,0,0,1,449.741,326.887Z" transform="translate(-404.561 -295.684)" fill="#ebebeb"/>
          </g>
        </g>
        <g id="Grupo_62583-2" data-name="Grupo 62583" transform="translate(8.412 6.394)">
          <g id="Grupo_62582-2" data-name="Grupo 62582">
            <g id="Grupo_62581-2" data-name="Grupo 62581">
              <path id="Trazado_132425-2" data-name="Trazado 132425" d="M450.214,326.025a13.834,13.834,0,0,1,.378-2.844,24.728,24.728,0,0,0-.087-7.626,23.852,23.852,0,0,0-1.453-5.031,23.3,23.3,0,0,0-3-5.179,22.858,22.858,0,0,0-4.715-4.6,22.6,22.6,0,0,0-2.973-1.827,24.752,24.752,0,0,0-3.316-1.388,25.1,25.1,0,0,0-3.493-.848,22.734,22.734,0,0,0-3.478-.29,22.855,22.855,0,0,0-6.526.912,23.314,23.314,0,0,0-5.481,2.4,23.872,23.872,0,0,0-4.152,3.192,24.722,24.722,0,0,0-4.586,6.092,13.686,13.686,0,0,1-1.379,2.513,6.825,6.825,0,0,1,.75-2.809,21.524,21.524,0,0,1,4.316-6.681,23.336,23.336,0,0,1,10.053-6.276,22.465,22.465,0,0,1,3.384-.794,22.774,22.774,0,0,1,3.62-.292,23.7,23.7,0,0,1,3.756.286,23.859,23.859,0,0,1,7.345,2.41,23.751,23.751,0,0,1,3.194,2,23.7,23.7,0,0,1,5,5.025,23.329,23.329,0,0,1,4.381,11.013,21.577,21.577,0,0,1-.48,7.94A6.834,6.834,0,0,1,450.214,326.025Z" transform="translate(-405.93 -294.646)" fill="#e0e0e0"/>
            </g>
          </g>
        </g>
      </g>
      <g id="Grupo_62588-2" data-name="Grupo 62588" transform="translate(17.268 14.942)">
        <g id="Grupo_62587-2" data-name="Grupo 62587">
          <g id="Grupo_62586-2" data-name="Grupo 62586">
            <g id="Grupo_62585-2" data-name="Grupo 62585">
              <path id="Trazado_132426-2" data-name="Trazado 132426" d="M427.592,334.434l-1.33,3.833-3.421-1.188,1.294-3.729a17.166,17.166,0,0,1-7.57-5.695l3.33-3.522a14.647,14.647,0,0,0,5.8,4.734l1.983-5.715c-3.478-2.241-7.282-4.98-5.583-9.874,1.259-3.628,4.974-5.827,10.595-4.566l1.318-3.8,3.422,1.187-1.295,3.731a16.375,16.375,0,0,1,6.222,4.5l-3.172,3.616a14.842,14.842,0,0,0-4.618-3.6l-2.018,5.819c3.489,2.207,7.224,4.924,5.55,9.747C436.86,333.471,433.19,335.648,427.592,334.434Zm1.829-16.313,1.685-4.859c-1.955-.219-3.018.525-3.411,1.654C427.28,316.112,428.081,317.12,429.42,318.12Zm3.023,10.291c.415-1.2-.351-2.192-1.644-3.217l-1.639,4.723C431,330.134,432.063,329.506,432.444,328.411Z" transform="translate(-416.565 -304.912)" fill="#e0e0e0"/>
            </g>
          </g>
        </g>
      </g>
    </g>
    <g id="Background_Complete" data-name="Background Complete" transform="translate(205.3 2307.225)">
      <g id="Grupo_66533" data-name="Grupo 66533" transform="translate(0)">
        <g id="Grupo_66531" data-name="Grupo 66531">
          <g id="Grupo_66418" data-name="Grupo 66418" transform="translate(7.358 39.42)">
            <path id="Trazado_133617" data-name="Trazado 133617" d="M661.289,526.7l.161,28.368,44.9,254.2L935.2,768.842l-2.856-16.161Z" transform="translate(-661.289 -526.701)" fill="#5e6178"/>
          </g>
          <g id="Grupo_66419" data-name="Grupo 66419" transform="translate(6.919)">
            <path id="Rectángulo_31654" data-name="Rectángulo 31654" d="M661.29,551.159l183.435-32.4a46.65,46.65,0,0,1,54.057,37.827h0L930.037,733.5a46.658,46.658,0,0,1-37.831,54.06l-183.431,32.4h0l-47.485-268.8Z" transform="translate(-660.847 -511.74)" fill="#6595bf"/>
            <path id="Trazado_133618" data-name="Trazado 133618" d="M929.374,786.068,708.788,825.035,661.174,555.5l220.589-38.967a9.686,9.686,0,0,1,11.191,7.849L937.2,774.862A9.685,9.685,0,0,1,929.374,786.068ZM709.408,824.156l219.836-38.836a8.921,8.921,0,0,0,7.226-10.327L892.224,524.509a8.92,8.92,0,0,0-10.327-7.222L662.061,556.12Z" transform="translate(-661.174 -516.39)" fill="#6595bf"/>
          </g>
          <g id="Grupo_66420" data-name="Grupo 66420" transform="translate(59.583 10.964)">
            <path id="Trazado_133619" data-name="Trazado 133619" d="M828.681,519.258,845.132,538.2,886.1,770.139l-198.33,33-12.823-9.294Z" transform="translate(-674.949 -519.258)" fill="#e0e0e0"/>
          </g>
          <g id="Grupo_66424" data-name="Grupo 66424" transform="translate(16.786 9.74)">
            <g id="Grupo_66421" data-name="Grupo 66421" transform="translate(0.231 0.204)">
              <rect id="Rectángulo_31655" data-name="Rectángulo 31655" width="199.156" height="244.691" transform="translate(0 34.644) rotate(-10.018)" fill="#fff"/>
            </g>
            <g id="Grupo_66423" data-name="Grupo 66423">
              <g id="Grupo_66422" data-name="Grupo 66422">
                <path id="Trazado_133620" data-name="Trazado 133620" d="M902.673,760.1c-.267-1.507-17.323-97.634-42.74-240.929l.206.149-196.1,34.642-.019,0,.149-.214,42.564,240.963-.191-.134L902.692,760.1,706.579,794.91l-.161.031-.027-.165c-12.188-68.917-26.854-151.813-42.6-240.955l-.034-.195.214-.038,196.105-34.62.176-.031.031.172C885.495,662.439,902.4,758.582,902.673,760.1Z" transform="translate(-663.755 -518.938)" fill="#263238"/>
              </g>
            </g>
          </g>
          <g id="Grupo_66425" data-name="Grupo 66425" transform="translate(46.409 117.324)">
            <path id="Trazado_133621" data-name="Trazado 133621" d="M680.515,551.224a4.538,4.538,0,1,1-5.31-4.11A4.76,4.76,0,0,1,680.515,551.224Z" transform="translate(-671.503 -547.077)" fill="#263238"/>
          </g>
          <g id="Grupo_66426" data-name="Grupo 66426" transform="translate(27.69 153.023)" opacity="0.3">
            <path id="Trazado_133622" data-name="Trazado 133622" d="M667.9,565.216l8.476-1.5-1.307-7.3-8.461,1.495Z" transform="translate(-666.607 -556.415)"/>
          </g>
          <g id="Grupo_66430" data-name="Grupo 66430" transform="translate(0 101.754)">
            <g id="Grupo_66427" data-name="Grupo 66427" transform="translate(0.161 0.002)">
              <path id="Trazado_133623" data-name="Trazado 133623" d="M681.889,543.481a26.452,26.452,0,1,0,9.359,52.045l4.259-.753-1.151-6.163-4.171.914A20.379,20.379,0,1,1,707.8,565.751a2.78,2.78,0,1,0,5.544-.428,2.555,2.555,0,0,0-.092-.535A26.84,26.84,0,0,0,681.889,543.481Z" transform="translate(-659.406 -543.005)" fill="#e0e0e0"/>
            </g>
            <g id="Grupo_66429" data-name="Grupo 66429">
              <g id="Grupo_66428" data-name="Grupo 66428">
                <path id="Trazado_133624" data-name="Trazado 133624" d="M682.019,543.483l.623-.111,1.9-.249c.826-.073,1.858-.088,3.085-.118a29.987,29.987,0,0,1,4.175.428,27.867,27.867,0,0,1,10.594,4.293l1.373,1.028c.229.176.474.344.7.531l.661.6c.44.409.917.795,1.342,1.246l1.262,1.4a27.063,27.063,0,0,1,4.213,6.863,26.709,26.709,0,0,1,1.293,4.148,6.34,6.34,0,0,1,.306,2.252,3.114,3.114,0,0,1-1.112,2.061,2.706,2.706,0,0,1-2.328.528,3.049,3.049,0,0,1-1.927-1.487,3.727,3.727,0,0,1-.424-1.178l-.275-1.177a17.651,17.651,0,0,0-.726-2.328,19.831,19.831,0,0,0-5.964-8.12,21.422,21.422,0,0,0-4.53-2.78,23.728,23.728,0,0,0-2.527-.971c-.436-.138-.883-.233-1.326-.352a10.2,10.2,0,0,0-1.35-.29l-1.372-.214c-.467-.054-.929-.065-1.4-.1a24.811,24.811,0,0,0-2.818.012,23.922,23.922,0,0,0-8.315,2.248c-.44.21-.857.47-1.289.7l-.646.36-.608.413a21.1,21.1,0,0,0-4.466,3.942,20.092,20.092,0,0,0-3.238,5.088,18.642,18.642,0,0,0-1.56,5.941,17.327,17.327,0,0,0,.428,6.22,17.881,17.881,0,0,0,2.462,5.811,21.059,21.059,0,0,0,11.925,8.694,21.617,21.617,0,0,0,7.237.818,12.857,12.857,0,0,0,1.793-.164,13.256,13.256,0,0,0,1.766-.283l3.483-.761.2-.034.035.2q.585,3.131,1.151,6.159l.03.188-.206.038c-1.583.279-3.147.574-4.707.807l-2.351.3-2.348.061a28.672,28.672,0,0,1-8.973-1.583c-.692-.264-1.407-.493-2.084-.8l-1.98-.963-1.835-1.155a7.538,7.538,0,0,1-.887-.62l-.856-.627a26.605,26.605,0,0,1-5.716-5.979c-.421-.539-.715-1.147-1.07-1.705l-.509-.856-.417-.891c-.264-.6-.57-1.17-.8-1.774l-.623-1.809a25.711,25.711,0,0,1-1.12-7.226,24.3,24.3,0,0,1,.168-3.456,14.342,14.342,0,0,1,.268-1.659c.115-.543.2-1.1.337-1.614a26.073,26.073,0,0,1,.987-3.024l.581-1.422c.206-.462.463-.895.68-1.338A27.057,27.057,0,0,1,669,549.481c.31-.26.577-.508.872-.745l.9-.631a17.8,17.8,0,0,1,1.724-1.12l1.644-.922c.535-.264,1.078-.482,1.552-.7a20.166,20.166,0,0,1,2.668-.994c.394-.122.731-.256,1.086-.34l.914-.2,1.243-.275.42-.073a3.146,3.146,0,0,0-.413.111l-1.235.3-.91.218c-.336.084-.688.226-1.078.352a21.072,21.072,0,0,0-2.646,1.017c-.485.226-1.005.455-1.529.707l-1.637.937a16.569,16.569,0,0,0-1.705,1.14l-.887.631c-.294.226-.57.486-.864.73a26.857,26.857,0,0,0-6.518,8.139c-.218.428-.466.86-.669,1.327l-.566,1.414a25.606,25.606,0,0,0-.964,3c-.157.516-.2,1.055-.325,1.61a13.958,13.958,0,0,0-.26,1.64,24.491,24.491,0,0,0-.172,3.426,25.386,25.386,0,0,0,1.143,7.115l.619,1.786c.218.6.528,1.162.791,1.751l.424.876.493.841c.352.55.642,1.154,1.051,1.678a26.247,26.247,0,0,0,5.662,5.9l.849.627a7.535,7.535,0,0,0,.879.6l1.839,1.109,1.958.944c.658.318,1.365.539,2.049.807a28.3,28.3,0,0,0,8.859,1.541l2.321-.065,2.321-.295c1.552-.229,3.116-.55,4.7-.81l-.157.222q-.562-3.028-1.155-6.159l.229.153-3.491.765a15.01,15.01,0,0,1-1.793.294,13.281,13.281,0,0,1-1.823.164,21.876,21.876,0,0,1-7.364-.83,21.433,21.433,0,0,1-12.158-8.855,18.353,18.353,0,0,1-2.516-5.934,17.569,17.569,0,0,1-.428-6.346,18.778,18.778,0,0,1,1.594-6.063,20.333,20.333,0,0,1,3.292-5.215,21.33,21.33,0,0,1,4.546-4.007l.623-.424.654-.359c.44-.237.868-.5,1.315-.711A24.226,24.226,0,0,1,685.43,549,23.906,23.906,0,0,1,688.3,549c.47.034.948.05,1.415.1l1.4.222a10.593,10.593,0,0,1,1.372.3c.447.123.906.229,1.35.359a23.247,23.247,0,0,1,2.573,1.01,21.835,21.835,0,0,1,4.6,2.833,20.154,20.154,0,0,1,6.048,8.269,17.179,17.179,0,0,1,.734,2.374c.1.4.183.8.279,1.193a3.287,3.287,0,0,0,.382,1.1,2.765,2.765,0,0,0,1.725,1.342,2.4,2.4,0,0,0,2.064-.463,2.842,2.842,0,0,0,1.009-1.858,6.138,6.138,0,0,0-.3-2.153,26.63,26.63,0,0,0-1.266-4.106,26.913,26.913,0,0,0-4.141-6.809l-1.25-1.392c-.42-.443-.887-.833-1.323-1.243l-.673-.6c-.222-.191-.451-.359-.692-.532l-1.346-1.028a27.847,27.847,0,0,0-10.51-4.316,30.885,30.885,0,0,0-4.152-.466c-1.208.015-2.237.011-3.047.073l-1.9.221C682.241,543.471,682.019,543.483,682.019,543.483Z" transform="translate(-659.365 -543.005)" fill="#263238"/>
              </g>
            </g>
          </g>
          <g id="Grupo_66431" data-name="Grupo 66431" transform="translate(58.914 188.122)">
            <path id="Trazado_133625" data-name="Trazado 133625" d="M683.789,569.742a4.54,4.54,0,1,1-5.314-4.11A4.766,4.766,0,0,1,683.789,569.742Z" transform="translate(-674.774 -565.595)" fill="#263238"/>
          </g>
          <g id="Grupo_66432" data-name="Grupo 66432" transform="translate(58.536 73.241)">
            <rect id="Rectángulo_31656" data-name="Rectángulo 31656" width="153.415" height="6.421" transform="translate(0 26.688) rotate(-10.018)" fill="#6595bf"/>
          </g>
          <g id="Grupo_66433" data-name="Grupo 66433" transform="translate(57.167 76.623)">
            <rect id="Rectángulo_31657" data-name="Rectángulo 31657" width="89.417" height="6.421" transform="translate(0 15.555) rotate(-10.018)" fill="#6595bf"/>
          </g>
          <g id="Grupo_66434" data-name="Grupo 66434" transform="translate(82.553 220.329)">
            <rect id="Rectángulo_31658" data-name="Rectángulo 31658" width="89.417" height="6.421" transform="translate(0 15.555) rotate(-10.018)" fill="#6595bf"/>
          </g>
          <g id="Grupo_66518" data-name="Grupo 66518" transform="translate(55.414 51.728)">
            <g id="Grupo_66517" data-name="Grupo 66517" transform="translate(0 0)">
              <g id="Grupo_66516" data-name="Grupo 66516" transform="translate(0)">
                <g id="Grupo_66436" data-name="Grupo 66436" transform="translate(0)">
                  <g id="Grupo_66435" data-name="Grupo 66435" transform="translate(0)">
                    <rect id="Rectángulo_31659" data-name="Rectángulo 31659" width="153.606" height="9.365" transform="translate(0 26.721) rotate(-10.018)" fill="#e0e0e0"/>
                  </g>
                </g>
                <g id="Grupo_66438" data-name="Grupo 66438" transform="translate(13.308 84.831)">
                  <g id="Grupo_66437" data-name="Grupo 66437" transform="translate(0 0)">
                    <rect id="Rectángulo_31660" data-name="Rectángulo 31660" width="153.606" height="9.365" transform="translate(0 26.721) rotate(-10.018)" fill="#e0e0e0"/>
                  </g>
                </g>
                <g id="Grupo_66440" data-name="Grupo 66440" transform="translate(6.91 55.18)">
                  <g id="Grupo_66439" data-name="Grupo 66439" transform="translate(0 0)">
                    <rect id="Rectángulo_31661" data-name="Rectángulo 31661" width="61.263" height="9.365" transform="translate(0 10.657) rotate(-10.018)" fill="#e0e0e0"/>
                  </g>
                </g>
                <g id="Grupo_66442" data-name="Grupo 66442" transform="translate(81.124 39.404)">
                  <g id="Grupo_66441" data-name="Grupo 66441" transform="translate(0 0)">
                    <rect id="Rectángulo_31662" data-name="Rectángulo 31662" width="76.591" height="9.365" transform="translate(0 13.323) rotate(-10.018)" fill="#e0e0e0"/>
                  </g>
                </g>
                <g id="Grupo_66445" data-name="Grupo 66445" transform="translate(3.761 28.655)">
                  <g id="Grupo_66444" data-name="Grupo 66444">
                    <g id="Grupo_66443" data-name="Grupo 66443">
                      <path id="Trazado_133626" data-name="Trazado 133626" d="M761.553,537.418c.019.1-19.38,3.609-43.321,7.838s-43.37,7.585-43.39,7.478,19.376-3.625,43.325-7.853S761.534,537.307,761.553,537.418Z" transform="translate(-674.842 -537.415)" fill="#263238"/>
                    </g>
                  </g>
                </g>
                <g id="Grupo_66448" data-name="Grupo 66448" transform="translate(4.881 24.783)">
                  <g id="Grupo_66447" data-name="Grupo 66447">
                    <g id="Grupo_66446" data-name="Grupo 66446">
                      <path id="Trazado_133627" data-name="Trazado 133627" d="M825.017,536.4c.019.1-33.515,6.106-74.909,13.416s-74.954,13.163-74.974,13.06,33.518-6.125,74.909-13.435S825,536.293,825.017,536.4Z" transform="translate(-675.135 -536.403)" fill="#263238"/>
                    </g>
                  </g>
                </g>
                <g id="Grupo_66451" data-name="Grupo 66451" transform="translate(6.097 31.654)">
                  <g id="Grupo_66450" data-name="Grupo 66450">
                    <g id="Grupo_66449" data-name="Grupo 66449">
                      <path id="Trazado_133628" data-name="Trazado 133628" d="M825.335,538.2c.019.111-33.514,6.106-74.909,13.42s-74.955,13.167-74.974,13.056,33.515-6.121,74.9-13.431S825.316,538.094,825.335,538.2Z" transform="translate(-675.453 -538.2)" fill="#263238"/>
                    </g>
                  </g>
                </g>
                <g id="Grupo_66454" data-name="Grupo 66454" transform="translate(9.06 70.117)">
                  <g id="Grupo_66453" data-name="Grupo 66453" transform="translate(0)">
                    <g id="Grupo_66452" data-name="Grupo 66452">
                      <path id="Trazado_133629" data-name="Trazado 133629" d="M736.509,548.264c.019.111-13.465,2.581-30.093,5.517s-30.169,5.242-30.188,5.131,13.458-2.577,30.093-5.517S736.486,548.156,736.509,548.264Z" transform="translate(-676.228 -548.26)" fill="#263238"/>
                    </g>
                  </g>
                </g>
                <g id="Grupo_66457" data-name="Grupo 66457" transform="translate(11.312 77.205)">
                  <g id="Grupo_66456" data-name="Grupo 66456">
                    <g id="Grupo_66455" data-name="Grupo 66455">
                      <path id="Trazado_133630" data-name="Trazado 133630" d="M736.1,550.118c.019.111-13.236,2.539-29.6,5.433s-29.657,5.146-29.676,5.039,13.232-2.539,29.607-5.433S736.077,550.007,736.1,550.118Z" transform="translate(-676.817 -550.114)" fill="#263238"/>
                    </g>
                  </g>
                </g>
                <g id="Grupo_66460" data-name="Grupo 66460" transform="translate(11.828 84.45)">
                  <g id="Grupo_66459" data-name="Grupo 66459">
                    <g id="Grupo_66458" data-name="Grupo 66458">
                      <path id="Trazado_133631" data-name="Trazado 133631" d="M736.74,552.013c.019.1-13.354,2.542-29.863,5.459s-29.906,5.207-29.924,5.1,13.343-2.558,29.859-5.475S736.721,551.9,736.74,552.013Z" transform="translate(-676.952 -552.009)" fill="#263238"/>
                    </g>
                  </g>
                </g>
                <g id="Grupo_66463" data-name="Grupo 66463" transform="translate(13.063 91.439)">
                  <g id="Grupo_66462" data-name="Grupo 66462">
                    <g id="Grupo_66461" data-name="Grupo 66461">
                      <path id="Trazado_133632" data-name="Trazado 133632" d="M737.063,553.841c.015.1-13.355,2.546-29.864,5.459s-29.905,5.207-29.924,5.1,13.343-2.557,29.859-5.475S737.043,553.73,737.063,553.841Z" transform="translate(-677.275 -553.837)" fill="#263238"/>
                    </g>
                  </g>
                </g>
                <g id="Grupo_66470" data-name="Grupo 66470" transform="translate(86.22 56.12)">
                  <g id="Grupo_66466" data-name="Grupo 66466" transform="translate(9.65)">
                    <g id="Grupo_66465" data-name="Grupo 66465">
                      <g id="Grupo_66464" data-name="Grupo 66464">
                        <path id="Trazado_133633" data-name="Trazado 133633" d="M761.367,544.6c.019.1-13.947,2.65-31.182,5.693s-31.232,5.44-31.251,5.333,13.94-2.665,31.186-5.708S761.348,544.492,761.367,544.6Z" transform="translate(-698.934 -544.599)" fill="#263238"/>
                      </g>
                    </g>
                  </g>
                  <g id="Grupo_66469" data-name="Grupo 66469" transform="translate(0 9.42)">
                    <g id="Grupo_66468" data-name="Grupo 66468" transform="translate(0)">
                      <g id="Grupo_66467" data-name="Grupo 66467">
                        <path id="Trazado_133634" data-name="Trazado 133634" d="M701.656,551.777a12.2,12.2,0,0,1-.3-1.281c-.169-.78-.405-1.9-.654-3.207l.187.149-4.294.761.157-.21h0l.107.612.107.6.206,1.166.378,2.134-.218-.134c1.254-.222,2.317-.356,3.082-.455a10.447,10.447,0,0,1,1.246-.134,6.512,6.512,0,0,1-1.112.283c-.757.164-1.835.394-3.154.654l-.161.027-.031-.18-.374-2.134-.206-1.166-.214-1.208h0l.123-.237,4.3-.727.16-.03.031.172c.244,1.392.4,2.554.5,3.342A7.467,7.467,0,0,1,701.656,551.777Z" transform="translate(-696.41 -547.063)" fill="#263238"/>
                      </g>
                    </g>
                  </g>
                </g>
                <g id="Grupo_66477" data-name="Grupo 66477" transform="translate(87.753 64.795)">
                  <g id="Grupo_66473" data-name="Grupo 66473" transform="translate(9.65)">
                    <g id="Grupo_66472" data-name="Grupo 66472">
                      <g id="Grupo_66471" data-name="Grupo 66471">
                        <path id="Trazado_133635" data-name="Trazado 133635" d="M761.768,546.872c.019.107-13.947,2.649-31.182,5.7s-31.232,5.437-31.251,5.333,13.94-2.665,31.182-5.712S761.749,546.761,761.768,546.872Z" transform="translate(-699.335 -546.868)" fill="#263238"/>
                      </g>
                    </g>
                  </g>
                  <g id="Grupo_66476" data-name="Grupo 66476" transform="translate(0 9.424)">
                    <g id="Grupo_66475" data-name="Grupo 66475" transform="translate(0)">
                      <g id="Grupo_66474" data-name="Grupo 66474">
                        <path id="Trazado_133636" data-name="Trazado 133636" d="M702.057,554.047a12.543,12.543,0,0,1-.3-1.284c-.168-.776-.409-1.9-.654-3.2l.187.149-4.293.757.157-.21h0l.107.616.107.6.207,1.17.378,2.129-.222-.134c1.254-.222,2.32-.352,3.081-.455a9.8,9.8,0,0,1,1.25-.138,6.534,6.534,0,0,1-1.116.283c-.753.164-1.831.4-3.15.657l-.161.031-.03-.183-.379-2.13-.206-1.17-.211-1.208h0l.119-.233,4.3-.73.161-.027.031.168c.245,1.4.4,2.55.5,3.345A7.388,7.388,0,0,1,702.057,554.047Z" transform="translate(-696.811 -549.333)" fill="#263238"/>
                      </g>
                    </g>
                  </g>
                </g>
                <g id="Grupo_66484" data-name="Grupo 66484" transform="translate(89.286 73.47)">
                  <g id="Grupo_66480" data-name="Grupo 66480" transform="translate(9.65)">
                    <g id="Grupo_66479" data-name="Grupo 66479">
                      <g id="Grupo_66478" data-name="Grupo 66478">
                        <path id="Trazado_133637" data-name="Trazado 133637" d="M762.169,549.141c.019.111-13.947,2.653-31.182,5.7s-31.232,5.444-31.251,5.334,13.94-2.665,31.182-5.712S762.15,549.033,762.169,549.141Z" transform="translate(-699.736 -549.137)" fill="#263238"/>
                      </g>
                    </g>
                  </g>
                  <g id="Grupo_66483" data-name="Grupo 66483" transform="translate(0 9.424)">
                    <g id="Grupo_66482" data-name="Grupo 66482" transform="translate(0)">
                      <g id="Grupo_66481" data-name="Grupo 66481">
                        <path id="Trazado_133638" data-name="Trazado 133638" d="M702.458,556.316a11.224,11.224,0,0,1-.3-1.285c-.172-.776-.409-1.9-.653-3.2l.187.149-4.293.761.157-.21h0l.107.612.107.6.206,1.166.375,2.134-.214-.134c1.254-.222,2.317-.356,3.078-.455a9.775,9.775,0,0,1,1.25-.134,6.625,6.625,0,0,1-1.113.283c-.757.164-1.835.394-3.154.654l-.161.027-.031-.18-.378-2.133-.206-1.166-.21-1.208h0l.118-.237,4.3-.727.161-.031.031.172c.245,1.392.394,2.55.5,3.341A7.5,7.5,0,0,1,702.458,556.316Z" transform="translate(-697.212 -551.602)" fill="#263238"/>
                      </g>
                    </g>
                  </g>
                </g>
                <g id="Grupo_66506" data-name="Grupo 66506" transform="translate(17.333 102.354)">
                  <g id="Grupo_66487" data-name="Grupo 66487">
                    <g id="Grupo_66486" data-name="Grupo 66486">
                      <g id="Grupo_66485" data-name="Grupo 66485">
                        <path id="Trazado_133639" data-name="Trazado 133639" d="M835.1,599.57l-.13-.753-.382-2.16c-.337-1.9-.834-4.714-1.51-8.365-1.288-7.3-3.208-17.965-5.62-31.446l.134.1L678.652,583.321h0l.149-.21,7.551,42.729-.218-.161,106.4-18.707L823.8,601.5l8.4-1.457,2.183-.386.753-.134-.723.126-2.16.383-8.357,1.5-31.2,5.566L686.218,626l-.218.038-.027-.13-7.547-42.736-.034-.2.195-.034,148.945-26.235.115-.019.019.122c2.363,13.522,4.228,24.216,5.505,31.538.646,3.64,1.116,6.446,1.449,8.346l.378,2.137C835.06,599.325,835.1,599.57,835.1,599.57Z" transform="translate(-678.392 -556.692)" fill="#263238"/>
                      </g>
                    </g>
                  </g>
                  <g id="Grupo_66490" data-name="Grupo 66490" transform="translate(2.535 10.894)">
                    <g id="Grupo_66489" data-name="Grupo 66489">
                      <g id="Grupo_66488" data-name="Grupo 66488">
                        <path id="Trazado_133640" data-name="Trazado 133640" d="M827.588,559.543c.019.107-33.22,6.068-74.224,13.313s-74.289,13.03-74.308,12.927,33.213-6.071,74.236-13.317S827.569,559.432,827.588,559.543Z" transform="translate(-679.055 -559.542)" fill="#263238"/>
                      </g>
                    </g>
                  </g>
                  <g id="Grupo_66493" data-name="Grupo 66493" transform="translate(4.412 21.504)">
                    <g id="Grupo_66492" data-name="Grupo 66492">
                      <g id="Grupo_66491" data-name="Grupo 66491">
                        <path id="Trazado_133641" data-name="Trazado 133641" d="M828.075,562.318c.019.107-33.22,6.068-74.224,13.313s-74.289,13.029-74.3,12.923,33.209-6.068,74.232-13.313S828.056,562.207,828.075,562.318Z" transform="translate(-679.546 -562.317)" fill="#263238"/>
                      </g>
                    </g>
                  </g>
                  <g id="Grupo_66496" data-name="Grupo 66496" transform="translate(6.304 32.228)">
                    <g id="Grupo_66495" data-name="Grupo 66495">
                      <g id="Grupo_66494" data-name="Grupo 66494">
                        <path id="Trazado_133642" data-name="Trazado 133642" d="M828.573,565.123c.016.1-33.22,6.068-74.228,13.313s-74.285,13.029-74.3,12.926,33.213-6.071,74.232-13.316S828.551,565.012,828.573,565.123Z" transform="translate(-680.041 -565.122)" fill="#263238"/>
                      </g>
                    </g>
                  </g>
                  <g id="Grupo_66499" data-name="Grupo 66499" transform="translate(17.513 23.322)">
                    <g id="Grupo_66498" data-name="Grupo 66498" transform="translate(0)">
                      <g id="Grupo_66497" data-name="Grupo 66497">
                        <path id="Trazado_133643" data-name="Trazado 133643" d="M690.6,605.964c-.1.019-1.893-9.623-4-21.551s-3.731-21.6-3.628-21.621,1.9,9.631,4,21.552S690.708,605.945,690.6,605.964Z" transform="translate(-682.973 -562.792)" fill="#263238"/>
                      </g>
                    </g>
                  </g>
                  <g id="Grupo_66502" data-name="Grupo 66502" transform="translate(67.995 15.075)">
                    <g id="Grupo_66501" data-name="Grupo 66501" transform="translate(0)">
                      <g id="Grupo_66500" data-name="Grupo 66500">
                        <path id="Trazado_133644" data-name="Trazado 133644" d="M703.464,601.861c-.1.019-1.812-9.184-3.823-20.577s-3.56-20.63-3.46-20.65,1.824,9.195,3.835,20.58S703.572,601.842,703.464,601.861Z" transform="translate(-696.177 -560.635)" fill="#263238"/>
                      </g>
                    </g>
                  </g>
                  <g id="Grupo_66505" data-name="Grupo 66505" transform="translate(121.18 6.35)">
                    <g id="Grupo_66504" data-name="Grupo 66504" transform="translate(0)">
                      <g id="Grupo_66503" data-name="Grupo 66503">
                        <path id="Trazado_133645" data-name="Trazado 133645" d="M717.605,600.871c-.1.019-1.87-9.486-3.942-21.223s-3.674-21.28-3.571-21.3,1.873,9.482,3.949,21.227S717.709,600.852,717.605,600.871Z" transform="translate(-710.088 -558.353)" fill="#263238"/>
                      </g>
                    </g>
                  </g>
                </g>
                <g id="Grupo_66509" data-name="Grupo 66509" transform="translate(27.499 155.32)">
                  <g id="Grupo_66508" data-name="Grupo 66508">
                    <g id="Grupo_66507" data-name="Grupo 66507">
                      <path id="Trazado_133646" data-name="Trazado 133646" d="M826.322,570.547c.019.107-32.49,5.926-72.6,13.014s-72.653,12.754-72.672,12.651,32.479-5.941,72.607-13.03S826.3,570.44,826.322,570.547Z" transform="translate(-681.051 -570.546)" fill="#263238"/>
                    </g>
                  </g>
                </g>
                <g id="Grupo_66512" data-name="Grupo 66512" transform="translate(28.589 161.498)">
                  <g id="Grupo_66511" data-name="Grupo 66511">
                    <g id="Grupo_66510" data-name="Grupo 66510">
                      <path id="Trazado_133647" data-name="Trazado 133647" d="M826.611,572.163c.019.1-32.49,5.926-72.6,13.01s-72.653,12.758-72.672,12.651,32.482-5.938,72.607-13.026S826.592,572.052,826.611,572.163Z" transform="translate(-681.336 -572.162)" fill="#263238"/>
                    </g>
                  </g>
                </g>
                <g id="Grupo_66515" data-name="Grupo 66515" transform="translate(29.682 183.995)">
                  <g id="Grupo_66514" data-name="Grupo 66514">
                    <g id="Grupo_66513" data-name="Grupo 66513">
                      <path id="Trazado_133648" data-name="Trazado 133648" d="M734.486,578.05c.019.1-11.8,2.271-26.4,4.848s-26.445,4.6-26.465,4.488,11.8-2.282,26.4-4.864S734.467,577.939,734.486,578.05Z" transform="translate(-681.622 -578.046)" fill="#263238"/>
                    </g>
                  </g>
                </g>
              </g>
            </g>
          </g>
          <g id="Grupo_66519" data-name="Grupo 66519" transform="translate(39.81 221.62)" opacity="0.3">
            <path id="Trazado_133649" data-name="Trazado 133649" d="M671.066,583.154l8.476-1.495-1.307-7.3-8.457,1.495Z" transform="translate(-669.777 -574.357)"/>
          </g>
          <g id="Grupo_66523" data-name="Grupo 66523" transform="translate(12.41 172.014)">
            <g id="Grupo_66520" data-name="Grupo 66520" transform="translate(0.161 0.001)">
              <path id="Trazado_133650" data-name="Trazado 133650" d="M685.139,561.859a26.45,26.45,0,1,0,9.355,52.042l4.259-.753-1.151-6.163-4.168.914a20.378,20.378,0,1,1,17.618-23.773,2.78,2.78,0,0,0,5.544-.425,2.836,2.836,0,0,0-.1-.539A26.835,26.835,0,0,0,685.139,561.859Z" transform="translate(-662.653 -561.382)" fill="#e0e0e0"/>
            </g>
            <g id="Grupo_66522" data-name="Grupo 66522" transform="translate(0)">
              <g id="Grupo_66521" data-name="Grupo 66521">
                <path id="Trazado_133651" data-name="Trazado 133651" d="M685.27,561.856l.619-.111,1.9-.245c.826-.073,1.855-.088,3.085-.118a30.551,30.551,0,0,1,4.171.428A27.779,27.779,0,0,1,705.64,566.1l1.376,1.025c.229.176.471.344.7.535l.661.6c.436.413.918.8,1.338,1.246l1.266,1.4a27.135,27.135,0,0,1,4.209,6.866,26.711,26.711,0,0,1,1.292,4.148,6.438,6.438,0,0,1,.31,2.256,3.153,3.153,0,0,1-1.117,2.061,2.726,2.726,0,0,1-2.328.527,3.075,3.075,0,0,1-1.927-1.491A3.7,3.7,0,0,1,711,584.1l-.279-1.174a17.183,17.183,0,0,0-.726-2.332,19.829,19.829,0,0,0-5.961-8.121,21.768,21.768,0,0,0-4.53-2.779,24.219,24.219,0,0,0-2.531-.991c-.436-.133-.887-.229-1.331-.351a9.943,9.943,0,0,0-1.35-.287l-1.372-.218c-.463-.05-.929-.065-1.4-.1a22.238,22.238,0,0,0-11.133,2.259c-.443.21-.86.467-1.292.7l-.642.359-.612.417a20.864,20.864,0,0,0-4.461,3.941,19.841,19.841,0,0,0-3.234,5.1,18.382,18.382,0,0,0-1.56,5.941,20.6,20.6,0,0,0-.072,3.116,21.077,21.077,0,0,0,.5,3.1,17.88,17.88,0,0,0,2.462,5.811,21.044,21.044,0,0,0,11.925,8.694,21.621,21.621,0,0,0,7.237.822,13.444,13.444,0,0,0,1.793-.16,14.518,14.518,0,0,0,1.766-.291l3.483-.761.2-.035.034.2q.585,3.131,1.151,6.159l.034.195-.21.034c-1.579.279-3.143.574-4.707.811l-2.351.29-2.348.062a28.7,28.7,0,0,1-8.973-1.579c-.692-.268-1.407-.493-2.083-.8l-1.981-.964-1.835-1.155a7.022,7.022,0,0,1-.883-.62l-.856-.627a26.551,26.551,0,0,1-5.72-5.98c-.42-.539-.715-1.147-1.07-1.705l-.5-.856-.421-.891c-.264-.6-.57-1.17-.8-1.774l-.619-1.808a25.587,25.587,0,0,1-1.124-7.226,24.266,24.266,0,0,1,.168-3.456,14.318,14.318,0,0,1,.268-1.659c.115-.543.2-1.094.337-1.614a26.1,26.1,0,0,1,.986-3.024l.581-1.423c.206-.462.462-.894.68-1.338a27.013,27.013,0,0,1,6.61-8.167c.306-.256.574-.508.868-.745l.9-.627a16.364,16.364,0,0,1,1.728-1.116l1.64-.933c.535-.264,1.078-.482,1.552-.7a20.275,20.275,0,0,1,2.669-.99c.394-.122.73-.256,1.086-.337l.917-.2,1.239-.271.424-.077a3.82,3.82,0,0,0-.417.111l-1.231.3-.914.214c-.337.088-.688.226-1.078.352a21.1,21.1,0,0,0-2.646,1.017c-.486.226-1,.455-1.529.707l-1.636.94a15.961,15.961,0,0,0-1.705,1.136l-.887.631c-.295.226-.57.489-.86.73a26.816,26.816,0,0,0-6.523,8.14c-.218.428-.466.86-.669,1.327l-.566,1.414a26.564,26.564,0,0,0-.967,3c-.153.516-.2,1.055-.321,1.609a13.988,13.988,0,0,0-.26,1.64,24.489,24.489,0,0,0-.172,3.426,25.272,25.272,0,0,0,1.147,7.119l.616,1.786c.218.6.528,1.162.792,1.751l.424.879.493.837c.356.554.642,1.155,1.055,1.678a26.169,26.169,0,0,0,5.658,5.9l.849.627a6.9,6.9,0,0,0,.883.6l1.839,1.109,1.958.948c.657.314,1.361.535,2.045.8a28.305,28.305,0,0,0,8.859,1.541l2.321-.065,2.321-.295c1.556-.229,3.12-.55,4.7-.81l-.153.222q-.568-3.028-1.155-6.159l.229.153-3.494.764a14.8,14.8,0,0,1-1.793.294,13.168,13.168,0,0,1-1.824.165,21.888,21.888,0,0,1-7.364-.83,21.418,21.418,0,0,1-12.154-8.858,18.167,18.167,0,0,1-2.523-5.949,21.147,21.147,0,0,1-.5-3.166,21.615,21.615,0,0,1,.072-3.185,18.976,18.976,0,0,1,1.595-6.063,20.364,20.364,0,0,1,3.3-5.2,21.417,21.417,0,0,1,4.546-4.007l.623-.425.658-.359c.44-.237.864-.5,1.311-.715a24.393,24.393,0,0,1,8.457-2.271,23.948,23.948,0,0,1,2.871-.008c.47.034.948.05,1.414.1l1.4.221a10.626,10.626,0,0,1,1.372.3c.447.122.906.229,1.35.359a23.158,23.158,0,0,1,2.573,1.006,21.713,21.713,0,0,1,4.6,2.833,20.121,20.121,0,0,1,6.052,8.273,17,17,0,0,1,.734,2.37q.138.6.275,1.193a3.383,3.383,0,0,0,.386,1.1,2.764,2.764,0,0,0,1.724,1.342,2.381,2.381,0,0,0,2.061-.462,2.821,2.821,0,0,0,1.013-1.858,6.207,6.207,0,0,0-.3-2.149,26.435,26.435,0,0,0-1.266-4.106,26.879,26.879,0,0,0-4.145-6.813l-1.246-1.392c-.42-.443-.891-.83-1.323-1.239l-.673-.6c-.222-.191-.451-.359-.692-.531l-1.346-1.029A27.841,27.841,0,0,0,695,561.971a30.926,30.926,0,0,0-4.152-.467c-1.208.016-2.236.019-3.047.073l-1.9.222C685.487,561.845,685.27,561.856,685.27,561.856Z" transform="translate(-662.611 -561.382)" fill="#263238"/>
              </g>
            </g>
          </g>
          <g id="Grupo_66526" data-name="Grupo 66526" transform="translate(66.236 20.854)">
            <g id="Grupo_66525" data-name="Grupo 66525" transform="translate(0)">
              <path id="Trazado_133653" data-name="Trazado 133653" d="M676.689,791.368l1-.176,2.944-.52,11.332-1.965,41.941-7.192,140.435-23.937-.161.229-3.391-19.2c-10.552-59.857-20.1-114.032-27.015-153.254L835.636,538.9c-.968-5.482-1.694-9.738-2.191-12.636-.256-1.438-.451-2.539-.562-3.288s-.18-1.132-.18-1.132.065.375.218,1.128.325,1.843.6,3.281c.512,2.891,1.284,7.149,2.271,12.621,1.935,10.969,4.772,26.827,8.262,46.425,6.928,39.222,16.532,93.386,27.126,153.235l3.4,19.2.031.18-.195.035L733.95,781.76l-41.96,7.084-11.347,1.892-2.948.482C677.033,791.322,676.689,791.368,676.689,791.368Z" transform="translate(-676.689 -521.845)" fill="#263238"/>
            </g>
          </g>
          <g id="Grupo_66528" data-name="Grupo 66528" transform="translate(62.428 15.976)">
            <g id="Grupo_66527" data-name="Grupo 66527" transform="translate(0)">
              <path id="Trazado_133654" data-name="Trazado 133654" d="M675.693,792.363l1-.18,2.933-.516,11.3-2,41.819-7.291,140.171-24.285-.164.226c-1.14-6.454-2.351-13.32-3.56-20.263C858.666,678,849.142,623.64,842.245,584.283c-3.429-19.674-6.2-35.594-8.121-46.605L831.937,525c-.241-1.46-.432-2.55-.566-3.3s-.176-1.132-.176-1.132l.2,1.128.581,3.3c.516,2.9,1.265,7.153,2.263,12.658l8.228,46.59c6.924,39.348,16.489,93.7,27.057,153.751,1.224,6.943,2.439,13.806,3.556,20.267l.034.195-.2.034L732.724,782.652l-41.842,7.169-11.309,1.923-2.94.486Z" transform="translate(-675.693 -520.569)" fill="#263238"/>
            </g>
          </g>
          <g id="Grupo_66530" data-name="Grupo 66530" transform="translate(69.692 26.639)">
            <g id="Grupo_66529" data-name="Grupo 66529" transform="translate(0)">
              <path id="Trazado_133655" data-name="Trazado 133655" d="M677.593,789.639l1-.176,2.936-.52,11.324-1.961,41.88-7.18,140.1-23.884-.164.229c-.975-5.654-2.015-11.684-3.07-17.774C861.368,679,852.108,625.255,845.4,586.35c-3.33-19.449-6.029-35.189-7.891-46.078-.922-5.437-1.64-9.658-2.126-12.533-.252-1.426-.417-2.52-.543-3.258s-.172-1.124-.172-1.124l.2,1.1.574,3.254,2.214,12.521c1.893,10.877,4.63,26.613,8.017,46.051C852.4,625.194,861.7,678.925,871.978,738.3c1.051,6.083,2.1,12.115,3.07,17.77l.034.2-.195.034L734.769,780.054l-41.895,7.062-11.336,1.893-2.944.481C677.933,789.593,677.593,789.639,677.593,789.639Z" transform="translate(-677.593 -523.358)" fill="#263238"/>
            </g>
          </g>
        </g>
        <g id="Grupo_66532" data-name="Grupo 66532" transform="translate(221.654 33.972)">
          <path id="Trazado_133656" data-name="Trazado 133656" d="M717.34,528.522l18.375-3.246,7.864,6.2-4.148,9.769-19.246,3.4Z" transform="translate(-717.34 -525.276)" fill="#455a64"/>
        </g>
      </g>
    </g>
    <g id="Grupo_70299" data-name="Grupo 70299" transform="translate(-157.897 2340.705)">
      <g id="freepik--Documents--inject-68" transform="translate(359.685 120.55)">
        <path id="Trazado_106074" data-name="Trazado 106074" d="M5454.653,2971.566h0a5.916,5.916,0,0,1,5.766-4.587h43.021a5.915,5.915,0,0,1,5.916,5.916h0v95.627a5.915,5.915,0,0,1-5.916,5.916h-136.6a5.915,5.915,0,0,1-5.916-5.916v-80.328a5.915,5.915,0,0,1,5.916-5.916h74.348A13.809,13.809,0,0,0,5454.653,2971.566Z" transform="translate(-5343.411 -2908.948)" fill="#d9a171"/>
        <path id="Trazado_106075" data-name="Trazado 106075" d="M5454.653,2971.566h0a5.916,5.916,0,0,1,5.766-4.587h43.021a5.915,5.915,0,0,1,5.916,5.916h0v95.627a5.915,5.915,0,0,1-5.916,5.916h-136.6a5.915,5.915,0,0,1-5.916-5.916v-80.328a5.915,5.915,0,0,1,5.916-5.916h74.348A13.809,13.809,0,0,0,5454.653,2971.566Z" transform="translate(-5343.411 -2908.948)" fill="#344154" opacity="0.6" style="isolation: isolate"/>
        <path id="Trazado_106076" data-name="Trazado 106076" d="M5458.459,2920.128l-3.834,12.417a6.245,6.245,0,0,1-7.8,4.119l-12.413-3.834Z" transform="translate(-5332.03 -2887.292)" fill="#d9a171" opacity="0.22" style="isolation: isolate"/>
        <path id="Trazado_106077" data-name="Trazado 106077" d="M5389.546,2920.128l44.367,13.708a6.233,6.233,0,0,1,4.127,7.789l0,.01-25.329,82a6.239,6.239,0,0,1-7.8,4.12h0l-56.784-17.542a6.233,6.233,0,0,1-4.121-7.792v-.006l21.511-69.583Z" transform="translate(-5263.116 -2887.292)" fill="#d9a171"/>
        <path id="Trazado_106078" data-name="Trazado 106078" d="M5389.546,2920.128l44.367,13.708a6.233,6.233,0,0,1,4.127,7.789l0,.01-25.329,82a6.239,6.239,0,0,1-7.8,4.12h0l-56.784-17.542a6.233,6.233,0,0,1-4.121-7.792v-.006l21.511-69.583Z" transform="translate(-5263.116 -2887.292)" fill="#fff" stroke="#5e6178" stroke-miterlimit="10" stroke-width="0" opacity="0.8" style="isolation: isolate"/>
        <g id="Grupo_57126" data-name="Grupo 57126" transform="translate(100.638 114.011)" opacity="0.28">
          <path id="Trazado_106079" data-name="Trazado 106079" d="M5405.52,3076.4l36.912,11.4a2.732,2.732,0,0,0,3.41-1.8h0a2.732,2.732,0,0,0-1.8-3.4l-36.913-11.406a2.731,2.731,0,0,0-3.409,1.8h0A2.732,2.732,0,0,0,5405.52,3076.4Z" transform="translate(-5403.599 -3071.074)" fill="#d9a171"/>
        </g>
        <g id="Grupo_57127" data-name="Grupo 57127" transform="translate(140.362 47.099)" opacity="0.28">
          <path id="Trazado_106080" data-name="Trazado 106080" d="M5363.99,2951.979l19.521,6.029a2.738,2.738,0,0,0,3.409-1.8h0a2.737,2.737,0,0,0-1.8-3.41l-19.521-6.028a2.726,2.726,0,0,0-3.409,1.8h0A2.737,2.737,0,0,0,5363.99,2951.979Z" transform="translate(-5362.068 -2946.651)" fill="#d9a171"/>
        </g>
        <g id="Grupo_57128" data-name="Grupo 57128" transform="translate(124.425 53.494)" opacity="0.28">
          <path id="Trazado_106081" data-name="Trazado 106081" d="M5369.945,2963.87l32.267,9.965a2.733,2.733,0,0,0,3.394-1.8h0a2.727,2.727,0,0,0-1.8-3.4l-32.267-9.965a2.73,2.73,0,0,0-3.409,1.8h0A2.742,2.742,0,0,0,5369.945,2963.87Z" transform="translate(-5368.016 -2958.543)" fill="#d9a171"/>
        </g>
        <g id="Grupo_57129" data-name="Grupo 57129" transform="translate(106.421 59.245)" opacity="0.28">
          <path id="Trazado_106082" data-name="Trazado 106082" d="M5375.854,2974.561l47.087,14.52a2.726,2.726,0,0,0,3.4-1.8h0a2.737,2.737,0,0,0-1.8-3.409l-47.087-14.52a2.731,2.731,0,0,0-3.4,1.8h0A2.732,2.732,0,0,0,5375.854,2974.561Z" transform="translate(-5373.937 -2969.236)" fill="#d9a171"/>
        </g>
        <g id="Grupo_57130" data-name="Grupo 57130" transform="translate(103.229 69.572)" opacity="0.28">
          <path id="Trazado_106083" data-name="Trazado 106083" d="M5418.449,2993.762l27.372,8.459a2.733,2.733,0,0,0,3.4-1.8h0a2.732,2.732,0,0,0-1.8-3.4l-27.374-8.459a2.743,2.743,0,0,0-3.409,1.8h0A2.733,2.733,0,0,0,5418.449,2993.762Z" transform="translate(-5416.528 -2988.439)" fill="#d9a171"/>
        </g>
        <g id="Grupo_57131" data-name="Grupo 57131" transform="translate(143.154 81.906)" opacity="0.28">
          <path id="Trazado_106084" data-name="Trazado 106084" d="M5381.786,3016.7l7.157,2.21a2.733,2.733,0,0,0,3.41-1.8h0a2.732,2.732,0,0,0-1.8-3.41l-7.158-2.21a2.737,2.737,0,0,0-3.409,1.8h0A2.742,2.742,0,0,0,5381.786,3016.7Z" transform="translate(-5379.866 -3011.375)" fill="#d9a171"/>
        </g>
        <g id="Grupo_57132" data-name="Grupo 57132" transform="translate(100.039 79.901)" opacity="0.28">
          <path id="Trazado_106085" data-name="Trazado 106085" d="M5387.723,3012.971l47.087,14.547a2.731,2.731,0,0,0,3.4-1.8h0a2.726,2.726,0,0,0-1.8-3.4l-47.088-14.547a2.731,2.731,0,0,0-3.4,1.8h0A2.732,2.732,0,0,0,5387.723,3012.971Z" transform="translate(-5385.805 -3007.646)" fill="#d9a171"/>
        </g>
        <g id="Grupo_57133" data-name="Grupo 57133" transform="translate(115.016 95.841)" opacity="0.28">
          <path id="Trazado_106086" data-name="Trazado 106086" d="M5393.659,3042.611l28.916,8.933a2.732,2.732,0,0,0,3.4-1.8h0a2.738,2.738,0,0,0-1.8-3.409l-28.916-8.933a2.736,2.736,0,0,0-3.409,1.8h0A2.725,2.725,0,0,0,5393.659,3042.611Z" transform="translate(-5391.737 -3037.286)" fill="#d9a171"/>
        </g>
        <g id="Grupo_57134" data-name="Grupo 57134" transform="translate(96.849 90.23)" opacity="0.28">
          <path id="Trazado_106087" data-name="Trazado 106087" d="M5466.856,3032.18l7.717,2.382a2.738,2.738,0,0,0,3.409-1.8h0a2.731,2.731,0,0,0-1.8-3.4l-7.716-2.382a2.727,2.727,0,0,0-3.405,1.8h0A2.731,2.731,0,0,0,5466.856,3032.18Z" transform="translate(-5464.938 -3026.853)" fill="#d9a171"/>
        </g>
        <g id="Grupo_57135" data-name="Grupo 57135" transform="translate(93.644 100.542)" opacity="0.28">
          <path id="Trazado_106088" data-name="Trazado 106088" d="M5399.608,3051.379l47.077,14.521a2.732,2.732,0,0,0,3.409-1.8h0a2.727,2.727,0,0,0-1.8-3.4l-47.082-14.547a2.742,2.742,0,0,0-3.41,1.8h0a2.733,2.733,0,0,0,1.788,3.426Z" transform="translate(-5397.675 -3046.028)" fill="#d9a171"/>
        </g>
        <path id="Trazado_106089" data-name="Trazado 106089" d="M5384.928,2861.07l-14.08,31.374a3.394,3.394,0,0,0,1.7,4.474l59.726,26.808a3.39,3.39,0,0,0,4.475-1.7l14.084-31.373a3.389,3.389,0,0,0-1.7-4.48l-59.725-26.808A3.4,3.4,0,0,0,5384.928,2861.07Z" transform="translate(-5290.362 -2859.07)" fill="#d9a171"/>
        <path id="Trazado_106090" data-name="Trazado 106090" d="M5384.928,2861.07l-14.08,31.374a3.394,3.394,0,0,0,1.7,4.474l59.726,26.808a3.39,3.39,0,0,0,4.475-1.7l14.084-31.373a3.389,3.389,0,0,0-1.7-4.48l-59.725-26.808A3.4,3.4,0,0,0,5384.928,2861.07Z" transform="translate(-5290.362 -2859.07)" fill="#344154" opacity="0.3" style="isolation: isolate"/>
        <rect id="Rectángulo_8125" data-name="Rectángulo 8125" width="2.092" height="0.538" transform="matrix(-0.912, -0.409, 0.409, -0.912, 105.667, 1.796)" fill="#d9a171"/>
        <rect id="Rectángulo_8126" data-name="Rectángulo 8126" width="6.523" height="0.538" transform="matrix(-0.912, -0.409, 0.409, -0.912, 114.293, 5.663)" fill="#d9a171"/>
        <rect id="Rectángulo_8127" data-name="Rectángulo 8127" width="0.538" height="3.98" transform="translate(159.384 38.595) rotate(-155.82)" fill="#d9a171"/>
        <path id="Trazado_106091" data-name="Trazado 106091" d="M5371.05,2859.251l15.4,30.17a13.8,13.8,0,0,0,15.757,7.072l32.777-8.545a3.441,3.441,0,0,0-1.731-1.775l-59.726-26.808A3.387,3.387,0,0,0,5371.05,2859.251Z" transform="translate(-5274.483 -2859.069)" fill="#d9a171" opacity="0.6" style="isolation: isolate"/>
        <path id="Trazado_106092" data-name="Trazado 106092" d="M5457.09,2931.209l46.346,2.861a6.238,6.238,0,0,1,5.857,6.6v.012l-5.287,85.657a6.238,6.238,0,0,1-6.6,5.852h-.018l-59.318-3.662a6.227,6.227,0,0,1-5.84-6.591v-.019l4.463-72.691Z" transform="translate(-5381.696 -2892.414)" fill="#d9a171"/>
        <path id="Trazado_106093" data-name="Trazado 106093" d="M5457.09,2931.209l46.346,2.861a6.238,6.238,0,0,1,5.857,6.6v.012l-5.287,85.657a6.238,6.238,0,0,1-6.6,5.852h-.018l-59.318-3.662a6.227,6.227,0,0,1-5.84-6.591v-.019l4.463-72.691Z" transform="translate(-5381.696 -2892.414)" fill="#fff" stroke="#5e6178" stroke-miterlimit="10" stroke-width="0" opacity="0.8" style="isolation: isolate"/>
        <g id="Grupo_57136" data-name="Grupo 57136" transform="translate(70.034 123.038)" opacity="0.22">
          <path id="Trazado_106094" data-name="Trazado 106094" d="M5460,3093.3l38.564,2.383a2.733,2.733,0,0,0,2.882-2.555h0a2.737,2.737,0,0,0-2.549-2.888l-38.563-2.377a2.731,2.731,0,0,0-2.888,2.55h0A2.73,2.73,0,0,0,5460,3093.3Z" transform="translate(-5457.441 -3087.859)" fill="#d9a171"/>
        </g>
        <g id="Grupo_57137" data-name="Grupo 57137" transform="translate(92.861 48.642)" opacity="0.22">
          <path id="Trazado_106095" data-name="Trazado 106095" d="M5451.325,2954.972l20.4,1.248a2.737,2.737,0,0,0,2.888-2.549h0a2.738,2.738,0,0,0-2.555-2.888l-20.4-1.258a2.727,2.727,0,0,0-2.882,2.549h0A2.732,2.732,0,0,0,5451.325,2954.972Z" transform="translate(-5448.771 -2949.519)" fill="#d9a171"/>
        </g>
        <g id="Grupo_57138" data-name="Grupo 57138" transform="translate(78.89 58.622)" opacity="0.22">
          <path id="Trazado_106096" data-name="Trazado 106096" d="M5452.565,2973.521l33.7,2.076a2.728,2.728,0,0,0,2.888-2.549h0a2.733,2.733,0,0,0-2.555-2.888l-33.7-2.076a2.727,2.727,0,0,0-2.889,2.549h0A2.732,2.732,0,0,0,5452.565,2973.521Z" transform="translate(-5450.01 -2968.078)" fill="#d9a171"/>
        </g>
        <g id="Grupo_57139" data-name="Grupo 57139" transform="translate(62.751 68.454)" opacity="0.22">
          <path id="Trazado_106097" data-name="Trazado 106097" d="M5453.774,2991.807l49.185,3.033a2.738,2.738,0,0,0,2.9-2.555h0a2.727,2.727,0,0,0-2.549-2.882l-49.191-3.039a2.732,2.732,0,0,0-2.883,2.554h0A2.732,2.732,0,0,0,5453.774,2991.807Z" transform="translate(-5451.23 -2986.36)" fill="#d9a171"/>
        </g>
        <g id="Grupo_57140" data-name="Grupo 57140" transform="translate(62.074 79.246)" opacity="0.22">
          <path id="Trazado_106098" data-name="Trazado 106098" d="M5493.334,3011.871l28.593,1.764a2.734,2.734,0,0,0,2.889-2.549h0a2.727,2.727,0,0,0-2.55-2.888l-28.593-1.764a2.726,2.726,0,0,0-2.888,2.549h0A2.731,2.731,0,0,0,5493.334,3011.871Z" transform="translate(-5490.78 -3006.428)" fill="#d9a171"/>
        </g>
        <g id="Grupo_57141" data-name="Grupo 57141" transform="translate(103.779 81.817)" opacity="0.22">
          <path id="Trazado_106099" data-name="Trazado 106099" d="M5455.049,3016.651l7.48.463a2.727,2.727,0,0,0,2.883-2.549h0a2.733,2.733,0,0,0-2.549-2.888l-7.48-.462a2.737,2.737,0,0,0-2.888,2.554h0A2.732,2.732,0,0,0,5455.049,3016.651Z" transform="translate(-5452.49 -3011.21)" fill="#d9a171"/>
        </g>
        <g id="Grupo_57142" data-name="Grupo 57142" transform="translate(61.407 90.034)" opacity="0.22">
          <path id="Trazado_106100" data-name="Trazado 106100" d="M5456.275,3031.931l49.19,3.033a2.733,2.733,0,0,0,2.888-2.55h0a2.737,2.737,0,0,0-2.555-2.887l-49.185-3.033a2.732,2.732,0,0,0-2.888,2.554h0A2.726,2.726,0,0,0,5456.275,3031.931Z" transform="translate(-5453.721 -3026.49)" fill="#d9a171"/>
        </g>
        <g id="Grupo_57143" data-name="Grupo 57143" transform="translate(79.724 101.995)" opacity="0.22">
          <path id="Trazado_106101" data-name="Trazado 106101" d="M5457.515,3054.171l30.207,1.866a2.738,2.738,0,0,0,2.888-2.554h0a2.731,2.731,0,0,0-2.554-2.883l-30.207-1.866a2.731,2.731,0,0,0-2.883,2.554h0A2.722,2.722,0,0,0,5457.515,3054.171Z" transform="translate(-5454.96 -3048.729)" fill="#d9a171"/>
        </g>
        <g id="Grupo_57144" data-name="Grupo 57144" transform="translate(60.741 100.827)" opacity="0.22">
          <path id="Trazado_106102" data-name="Trazado 106102" d="M5533.989,3052l8.067.495a2.726,2.726,0,0,0,2.882-2.549h0a2.726,2.726,0,0,0-2.548-2.888l-8.067-.494a2.726,2.726,0,0,0-2.888,2.549h0A2.738,2.738,0,0,0,5533.989,3052Z" transform="translate(-5531.431 -3046.559)" fill="#d9a171"/>
        </g>
        <g id="Grupo_57145" data-name="Grupo 57145" transform="translate(60.079 111.615)" opacity="0.22">
          <path id="Trazado_106103" data-name="Trazado 106103" d="M5458.755,3072.061l49.185,3.033a2.732,2.732,0,0,0,2.888-2.548h0a2.733,2.733,0,0,0-2.549-2.889l-49.19-3.033a2.726,2.726,0,0,0-2.883,2.549h0A2.727,2.727,0,0,0,5458.755,3072.061Z" transform="translate(-5456.2 -3066.619)" fill="#d9a171"/>
        </g>
        <path id="Trazado_106104" data-name="Trazado 106104" d="M5549.707,2931.209l-.8,12.971a6.239,6.239,0,0,1-6.608,5.846h0l-12.987-.8Z" transform="translate(-5474.313 -2892.414)" fill="#d9a171" opacity="0.22" style="isolation: isolate"/>
        <path id="Trazado_106105" data-name="Trazado 106105" d="M5457.6,2987.432h0a4.652,4.652,0,0,1,4.711-4.591l.129,0h43.076a7.52,7.52,0,0,1,7.065,5.916l17,87.093a4.733,4.733,0,0,1-4.76,5.916h-136.6a7.539,7.539,0,0,1-7.067-5.916l-14.019-71.793a4.729,4.729,0,0,1,4.758-5.915h74.326C5452.681,2998.145,5457.381,2993.7,5457.6,2987.432Z" transform="translate(-5367.031 -2916.28)" fill="#d9a171" opacity="0.5" style="isolation: isolate"/>
      </g>
    </g>
    <g id="Grupo_70297" data-name="Grupo 70297" transform="matrix(0.839, -0.545, 0.545, 0.839, 429.752, 2392.838)">
      <g id="Grupo_62584-3" data-name="Grupo 62584">
        <g id="Grupo_62578-3" data-name="Grupo 62578">
          <g id="Grupo_62577-3" data-name="Grupo 62577">
            <path id="Trazado_132423-3" data-name="Trazado 132423" d="M455.115,327.911A30.562,30.562,0,1,1,436.8,288.816,30.529,30.529,0,0,1,455.115,327.911Z" transform="translate(-395.827 -286.967)" fill="#f5f5f5"/>
          </g>
        </g>
        <g id="Grupo_62580-3" data-name="Grupo 62580" transform="translate(7.272 7.259)">
          <g id="Grupo_62579-3" data-name="Grupo 62579">
            <path id="Trazado_132424-3" data-name="Trazado 132424" d="M449.741,326.887a23.29,23.29,0,1,1-13.954-29.793A23.264,23.264,0,0,1,449.741,326.887Z" transform="translate(-404.561 -295.684)" fill="#ebebeb"/>
          </g>
        </g>
        <g id="Grupo_62583-3" data-name="Grupo 62583" transform="translate(8.412 6.394)">
          <g id="Grupo_62582-3" data-name="Grupo 62582">
            <g id="Grupo_62581-3" data-name="Grupo 62581">
              <path id="Trazado_132425-3" data-name="Trazado 132425" d="M450.214,326.025a13.834,13.834,0,0,1,.378-2.844,24.728,24.728,0,0,0-.087-7.626,23.852,23.852,0,0,0-1.453-5.031,23.3,23.3,0,0,0-3-5.179,22.858,22.858,0,0,0-4.715-4.6,22.6,22.6,0,0,0-2.973-1.827,24.752,24.752,0,0,0-3.316-1.388,25.1,25.1,0,0,0-3.493-.848,22.734,22.734,0,0,0-3.478-.29,22.855,22.855,0,0,0-6.526.912,23.314,23.314,0,0,0-5.481,2.4,23.872,23.872,0,0,0-4.152,3.192,24.722,24.722,0,0,0-4.586,6.092,13.686,13.686,0,0,1-1.379,2.513,6.825,6.825,0,0,1,.75-2.809,21.524,21.524,0,0,1,4.316-6.681,23.336,23.336,0,0,1,10.053-6.276,22.465,22.465,0,0,1,3.384-.794,22.774,22.774,0,0,1,3.62-.292,23.7,23.7,0,0,1,3.756.286,23.859,23.859,0,0,1,7.345,2.41,23.751,23.751,0,0,1,3.194,2,23.7,23.7,0,0,1,5,5.025,23.329,23.329,0,0,1,4.381,11.013,21.577,21.577,0,0,1-.48,7.94A6.834,6.834,0,0,1,450.214,326.025Z" transform="translate(-405.93 -294.646)" fill="#e0e0e0"/>
            </g>
          </g>
        </g>
      </g>
      <g id="Grupo_62588-3" data-name="Grupo 62588" transform="translate(17.268 14.942)">
        <g id="Grupo_62587-3" data-name="Grupo 62587">
          <g id="Grupo_62586-3" data-name="Grupo 62586">
            <g id="Grupo_62585-3" data-name="Grupo 62585">
              <path id="Trazado_132426-3" data-name="Trazado 132426" d="M427.592,334.434l-1.33,3.833-3.421-1.188,1.294-3.729a17.166,17.166,0,0,1-7.57-5.695l3.33-3.522a14.647,14.647,0,0,0,5.8,4.734l1.983-5.715c-3.478-2.241-7.282-4.98-5.583-9.874,1.259-3.628,4.974-5.827,10.595-4.566l1.318-3.8,3.422,1.187-1.295,3.731a16.375,16.375,0,0,1,6.222,4.5l-3.172,3.616a14.842,14.842,0,0,0-4.618-3.6l-2.018,5.819c3.489,2.207,7.224,4.924,5.55,9.747C436.86,333.471,433.19,335.648,427.592,334.434Zm1.829-16.313,1.685-4.859c-1.955-.219-3.018.525-3.411,1.654C427.28,316.112,428.081,317.12,429.42,318.12Zm3.023,10.291c.415-1.2-.351-2.192-1.644-3.217l-1.639,4.723C431,330.134,432.063,329.506,432.444,328.411Z" transform="translate(-416.565 -304.912)" fill="#e0e0e0"/>
            </g>
          </g>
        </g>
      </g>
    </g>
  </g>
</svg>
