<svg xmlns="http://www.w3.org/2000/svg" width="400" height="390" viewBox="0 0 400 390">
  <g id="Grupo_70294" data-name="Grupo 70294" transform="translate(-1020 -449)">
    <g id="Grupo_70164" data-name="Grupo 70164" transform="translate(105 51.917)">
      <rect id="Rectángulo_31121" data-name="Rectángulo 31121" width="400" height="390" transform="translate(915 397.083)" fill="none"/>
    </g>
    <path id="Trazado_139713" data-name="Trazado 139713" d="M1022.256,875.082v-2.942a1.229,1.229,0,0,0-2.459,0v2.942h-2.942a1.213,1.213,0,0,0,0,2.418h2.942v2.942a1.213,1.213,0,1,0,2.426,0V877.5h2.934a1.2,1.2,0,0,0,.82-.352,1.188,1.188,0,0,0-.86-2.033Z" transform="translate(322.568 -384.165)" fill="#5e6178"/>
    <path id="Trazado_139714" data-name="Trazado 139714" d="M666.291,829.26v-2.951a1.229,1.229,0,0,0-2.459,0v2.951h-2.942a1.229,1.229,0,0,0,0,2.459h2.942v2.934a1.213,1.213,0,0,0,1.213,1.213,1.237,1.237,0,0,0,.82-.352,1.2,1.2,0,0,0,.353-.82V831.76h2.942a1.238,1.238,0,0,0,.82-.352,1.213,1.213,0,0,0-.82-2.065Z" transform="translate(420.803 -256.897)" fill="#5e6178"/>
    <g id="Grupo_63434" data-name="Grupo 63434" transform="translate(1383.813 539.462)">
      <path id="Trazado_139715" data-name="Trazado 139715" d="M1071.26,936.476h0a1.246,1.246,0,0,1,1.238-1.246h8.712a1.238,1.238,0,0,1,1.238,1.246h0a1.238,1.238,0,0,1-1.238,1.238H1072.5A1.246,1.246,0,0,1,1071.26,936.476Z" transform="translate(-1071.26 -935.23)" fill="#5e6178"/>
      <path id="Trazado_139716" data-name="Trazado 139716" d="M1071.26,942.426h0a1.246,1.246,0,0,1,1.238-1.246h8.712a1.238,1.238,0,0,1,1.238,1.246h0a1.238,1.238,0,0,1-1.238,1.238H1072.5A1.246,1.246,0,0,1,1071.26,942.426Z" transform="translate(-1071.26 -936.303)" fill="#5e6178"/>
    </g>
    <g id="Grupo_63435" data-name="Grupo 63435" transform="translate(1066.677 541.864)">
      <path id="Trazado_139717" data-name="Trazado 139717" d="M642.84,794.216h0a1.246,1.246,0,0,1,1.246-1.246h8.721a1.246,1.246,0,0,1,1.246,1.246h0a1.246,1.246,0,0,1-1.246,1.238h-8.721a1.246,1.246,0,0,1-1.246-1.238Z" transform="translate(-642.84 -792.97)" fill="#5e6178"/>
      <path id="Trazado_139718" data-name="Trazado 139718" d="M642.84,800.168h0a1.246,1.246,0,0,1,1.246-1.238h8.721a1.246,1.246,0,0,1,1.246,1.238h0a1.246,1.246,0,0,1-1.246,1.279h-8.721a1.246,1.246,0,0,1-1.246-1.279Z" transform="translate(-642.84 -794.045)" fill="#5e6178"/>
    </g>
    <path id="Trazado_139719" data-name="Trazado 139719" d="M615.78,878.916a4.17,4.17,0,0,1,.426-1.852,2.991,2.991,0,0,1,1.3-1.352,4.328,4.328,0,0,1,2.074-.467,3.754,3.754,0,0,1,2.77,1,4.1,4.1,0,0,1,0,5.36,3.754,3.754,0,0,1-2.77,1,4.328,4.328,0,0,1-2.074-.467,2.991,2.991,0,0,1-1.3-1.36,4.212,4.212,0,0,1-.426-1.86Zm2.68,0a3.032,3.032,0,0,0,.385,1.721.914.914,0,0,0,1.443,0,4.041,4.041,0,0,0,0-3.442.928.928,0,0,0-1.443,0,3,3,0,0,0-.385,1.746Zm9.212-3.7h2.016L621.6,890.178h-2Zm-1.795,11.294a4.261,4.261,0,0,1,.418-1.861,2.967,2.967,0,0,1,1.3-1.352,4.228,4.228,0,0,1,2.065-.475,3.779,3.779,0,0,1,2.778,1.008,4.1,4.1,0,0,1,0,5.36,3.778,3.778,0,0,1-2.778,1.008,4.23,4.23,0,0,1-2.065-.484,2.893,2.893,0,0,1-1.3-1.352,4.23,4.23,0,0,1-.418-1.852Zm2.68,0a3.032,3.032,0,0,0,.385,1.721.928.928,0,0,0,1.443,0,3.033,3.033,0,0,0,.385-1.721,3.065,3.065,0,0,0-.385-1.729.918.918,0,0,0-1.443,0,3.032,3.032,0,0,0-.385,1.729Z" transform="translate(428.719 -265.943)" fill="#5e6178"/>
    <path id="Trazado_139720" data-name="Trazado 139720" d="M1055.88,1032.489a2.964,2.964,0,0,1,.3-1.32,2.155,2.155,0,0,1,.926-.967,3.116,3.116,0,0,1,1.475-.336,2.689,2.689,0,0,1,1.975.713,2.9,2.9,0,0,1,0,3.828,2.689,2.689,0,0,1-1.975.713,3.114,3.114,0,0,1-1.475-.336,2.115,2.115,0,0,1-.926-.967A2.972,2.972,0,0,1,1055.88,1032.489Zm1.91,0a2.181,2.181,0,0,0,.279,1.229.59.59,0,0,0,.516.246.574.574,0,0,0,.508-.246,2.925,2.925,0,0,0,0-2.459.574.574,0,0,0-.508-.246.59.59,0,0,0-.516.246,2.156,2.156,0,0,0-.279,1.246Zm6.557-2.639h1.467l-5.737,10.655h-1.426Zm-1.279,8.024a3.024,3.024,0,0,1,.3-1.319,2.115,2.115,0,0,1,.926-.968,3.016,3.016,0,0,1,1.475-.336,2.713,2.713,0,0,1,1.983.713,2.9,2.9,0,0,1,0,3.828,2.712,2.712,0,0,1-1.983.713,3.113,3.113,0,0,1-1.475-.336,2.114,2.114,0,0,1-.926-.967,3.088,3.088,0,0,1-.295-1.311Zm1.918,0a2.163,2.163,0,0,0,.27,1.229.59.59,0,0,0,.516.246.607.607,0,0,0,.516-.246,2.926,2.926,0,0,0,0-2.459.607.607,0,0,0-.516-.246.59.59,0,0,0-.516.246,2.165,2.165,0,0,0-.262,1.262Z" transform="translate(315.327 -412.837)" fill="#5e6178"/>
    <path id="Trazado_139766" data-name="Trazado 139766" d="M1044.081,902.771a3.041,3.041,0,1,1,3.041-3.041A3.041,3.041,0,0,1,1044.081,902.771Zm0-5.008a1.967,1.967,0,1,0,1.967,1.967A1.967,1.967,0,0,0,1044.081,897.764Z" transform="translate(318.004 -388.816)" fill="#5e6178"/>
    <path id="Trazado_139767" data-name="Trazado 139767" d="M996.541,1017.551a3.041,3.041,0,1,1,3.041-3.041A3.041,3.041,0,0,1,996.541,1017.551Zm0-5.008a1.967,1.967,0,1,0,1.967,1.967,1.967,1.967,0,0,0-1.967-1.967Z" transform="translate(326.58 -409.521)" fill="#5e6178"/>
    <path id="Trazado_139768" data-name="Trazado 139768" d="M1052.331,977.591a3.041,3.041,0,1,1,3.041-3.033A3.041,3.041,0,0,1,1052.331,977.591Zm0-5a1.959,1.959,0,1,0,1.393.574,1.967,1.967,0,0,0-1.393-.574Z" transform="translate(316.516 -402.313)" fill="#5e6178"/>
    <path id="Trazado_139769" data-name="Trazado 139769" d="M619.771,840.561a3.041,3.041,0,1,1,3.041-3.041A3.041,3.041,0,0,1,619.771,840.561Zm0-5.008a1.967,1.967,0,1,0,1.967,1.967A1.967,1.967,0,0,0,619.771,835.554Z" transform="translate(428.547 -258.594)" fill="#5e6178"/>
    <path id="Trazado_139770" data-name="Trazado 139770" d="M685.771,767.771a3.041,3.041,0,1,1,3.041-3.041A3.041,3.041,0,0,1,685.771,767.771Zm0-5.008a1.959,1.959,0,1,0,1.393.574,1.967,1.967,0,0,0-1.393-.574Z" transform="translate(416.641 -245.463)" fill="#5e6178"/>
    <g id="Grupo_70291" data-name="Grupo 70291" transform="translate(1034 656.881)">
      <rect id="Rectángulo_14921" data-name="Rectángulo 14921" width="114.212" height="164.79" rx="13.93" fill="#a37955"/>
      <rect id="Rectángulo_14922" data-name="Rectángulo 14922" width="87.288" height="31.817" rx="4.98" transform="translate(13.466 13.868)" fill="#6595bf"/>
      <path id="Trazado_139672" data-name="Trazado 139672" d="M711.087,989.24v99.525a11.475,11.475,0,0,1-.893,4.442h0a11.3,11.3,0,0,1-.746,1.475h0a11.468,11.468,0,0,1-1.311,1.746h0c-.115.131-.246.27-.377.393a11.311,11.311,0,0,1-8.065,3.344H607.67a3.685,3.685,0,0,1-.434,0,1.674,1.674,0,0,1-.221,0,4.361,4.361,0,0,1-.459-.057l-.492-.082h-.18l-.426-.1h0c-.18-.049-.352-.09-.525-.156-.361-.107-.7-.238-1.049-.377a9.5,9.5,0,0,1-1.008-.483l-.475-.271-.475-.311-.418-.3-.451-.353-.41-.36-.525-.5a3.641,3.641,0,0,1-.287-.32,11.4,11.4,0,0,1-1.713-2.459c-.057-.115-.115-.229-.164-.344s-.123-.27-.172-.4a4.093,4.093,0,0,1-.164-.4,11.341,11.341,0,0,1-.721-3.991V989.24Z" transform="translate(-596.875 -935.392)" fill="#d9a171"/>
      <path id="Trazado_139673" data-name="Trazado 139673" d="M734.578,935.117v141.947a11.475,11.475,0,0,1-.893,4.442,11.474,11.474,0,0,0,.893-4.442V977.54h-6.737V928.363a11.292,11.292,0,0,0-.721-3.983,11.417,11.417,0,0,1,7.458,10.737Z" transform="translate(-620.366 -923.692)" fill="#69492c"/>
      <path id="Trazado_139674" data-name="Trazado 139674" d="M711.246,989.24v99.525a11.475,11.475,0,0,1-.893,4.442h0a10.361,10.361,0,0,1-.746,1.475h0a10.92,10.92,0,0,1-1.311,1.746h0c-.115.131-.246.27-.377.393a11.311,11.311,0,0,1-8.065,3.344H607.828a3.685,3.685,0,0,1-.434,0,1.674,1.674,0,0,1-.221,0,4.361,4.361,0,0,1-.459-.057l-.492-.082h-.18l-.426-.1h0c-.18-.049-.352-.09-.525-.156a8,8,0,0,1-1.049-.377,9.5,9.5,0,0,1-1.008-.483l-.475-.271-.475-.311-.418-.3-.451-.353-.41-.36-.525-.5a3.641,3.641,0,0,1-.287-.32,11.4,11.4,0,0,1-1.713-2.459c-.057-.115-.115-.229-.164-.344s-.123-.27-.172-.4a4.093,4.093,0,0,1-.164-.4,11.341,11.341,0,0,0,3.991.721h91.345a11.425,11.425,0,0,0,11.393-11.565V989.24Z" transform="translate(-597.034 -935.392)" fill="#69492c"/>
      <g id="Grupo_63411" data-name="Grupo 63411" transform="translate(12.647 62.003)">
        <path id="Trazado_139675" data-name="Trazado 139675" d="M625.848,1010.968h-7.655a5.893,5.893,0,0,1-5.893-5.885h0a5.893,5.893,0,0,1,5.893-5.893h7.655a5.893,5.893,0,0,1,5.885,5.893h0a5.893,5.893,0,0,1-5.885,5.885Z" transform="translate(-612.3 -999.19)" fill="#6595bf"/>
        <path id="Trazado_139676" data-name="Trazado 139676" d="M654.86,1010.968H647.2a5.885,5.885,0,0,1-5.885-5.885h0a5.885,5.885,0,0,1,5.885-5.893h7.655a5.893,5.893,0,0,1,5.893,5.893h0a5.893,5.893,0,0,1-5.893,5.885Z" transform="translate(-617.535 -999.19)" fill="#6595bf"/>
        <path id="Trazado_139677" data-name="Trazado 139677" d="M683.878,1010.968h-7.655a5.893,5.893,0,0,1-5.893-5.885h0a5.893,5.893,0,0,1,5.893-5.893h7.655a5.885,5.885,0,0,1,5.885,5.893h0A5.885,5.885,0,0,1,683.878,1010.968Z" transform="translate(-622.768 -999.19)" fill="#6595bf"/>
        <rect id="Rectángulo_14923" data-name="Rectángulo 14923" width="15.9" height="30.03" rx="3.86" transform="translate(72.429)" fill="#6595bf"/>
        <rect id="Rectángulo_14924" data-name="Rectángulo 14924" width="15.9" height="16.49" rx="5.49" transform="translate(72.429 32.891)" fill="#6595bf"/>
        <rect id="Rectángulo_14925" data-name="Rectángulo 14925" width="15.9" height="16.49" rx="5.49" transform="translate(72.429 51.184)" fill="#6595bf"/>
        <rect id="Rectángulo_14926" data-name="Rectángulo 14926" width="15.9" height="16.49" rx="5.49" transform="translate(72.429 70.699)" fill="#6595bf"/>
      </g>
      <rect id="Rectángulo_14927" data-name="Rectángulo 14927" width="19.433" height="19.433" rx="9.716" transform="translate(13.458 80.297)" fill="#6595bf"/>
      <rect id="Rectángulo_14928" data-name="Rectángulo 14928" width="19.433" height="19.433" rx="9.716" transform="translate(36.628 80.297)" fill="#6595bf"/>
      <rect id="Rectángulo_14929" data-name="Rectángulo 14929" width="19.433" height="19.433" rx="9.716" transform="translate(59.807 80.297)" fill="#6595bf"/>
      <rect id="Rectángulo_14930" data-name="Rectángulo 14930" width="19.433" height="19.433" rx="9.716" transform="translate(13.458 106.524)" fill="#6595bf"/>
      <rect id="Rectángulo_14931" data-name="Rectángulo 14931" width="19.433" height="19.433" rx="9.716" transform="translate(36.628 106.524)" fill="#6595bf"/>
      <rect id="Rectángulo_14932" data-name="Rectángulo 14932" width="19.433" height="19.433" rx="9.716" transform="translate(59.807 106.524)" fill="#6595bf"/>
      <rect id="Rectángulo_14933" data-name="Rectángulo 14933" width="19.433" height="19.433" rx="9.716" transform="translate(13.458 132.743)" fill="#6595bf"/>
      <rect id="Rectángulo_14934" data-name="Rectángulo 14934" width="19.433" height="19.433" rx="9.716" transform="translate(36.628 132.743)" fill="#6595bf"/>
      <rect id="Rectángulo_14935" data-name="Rectángulo 14935" width="19.433" height="19.433" rx="9.716" transform="translate(59.807 132.743)" fill="#6595bf"/>
      <path id="Trazado_139678" data-name="Trazado 139678" d="M709.751,933.418H689.359a2.459,2.459,0,0,1-2.459-2.459h0a2.459,2.459,0,0,1,2.459-2.459h20.392a2.459,2.459,0,0,1,2.459,2.459h0A2.459,2.459,0,0,1,709.751,933.418Z" transform="translate(-613.111 -924.435)" fill="#6595bf"/>
      <rect id="Rectángulo_14936" data-name="Rectángulo 14936" width="107.237" height="4.09" transform="translate(0.27 53.848)" fill="#e1b48d"/>
      <g id="Grupo_63412" data-name="Grupo 63412" transform="translate(25.932 22.252)">
        <path id="Trazado_139679" data-name="Trazado 139679" d="M637.337,950.706v15.679H633.01v-10.27a13.926,13.926,0,0,1-2.041,1.3,16.172,16.172,0,0,1-2.459.943v-3.508a10.587,10.587,0,0,0,3.4-1.7,6.966,6.966,0,0,0,1.893-2.459Z" transform="translate(-628.51 -950.69)" fill="#839eb6"/>
        <path id="Trazado_139680" data-name="Trazado 139680" d="M657.431,966.387H644.58a8.057,8.057,0,0,1,1.344-3.574,18.072,18.072,0,0,1,4.2-3.967,12.164,12.164,0,0,0,2.41-2.123,2.36,2.36,0,0,0,.525-1.377,1.639,1.639,0,0,0-.516-1.2,1.836,1.836,0,0,0-1.311-.5,1.8,1.8,0,0,0-1.336.516,3.148,3.148,0,0,0-.7,1.82l-4.286-.344a6.778,6.778,0,0,1,.926-2.828,4.3,4.3,0,0,1,1.893-1.557,8.623,8.623,0,0,1,3.393-.541,9.531,9.531,0,0,1,3.516.516,4.253,4.253,0,0,1,1.975,1.582,4.155,4.155,0,0,1,.721,2.393,4.918,4.918,0,0,1-.82,2.7,11.541,11.541,0,0,1-3.008,2.819c-.861.59-1.434,1.008-1.729,1.246s-.631.549-1.024.934h6.688Z" transform="translate(-631.409 -950.692)" fill="#839eb6"/>
        <path id="Trazado_139681" data-name="Trazado 139681" d="M666.624,955.433l-4.049-.721a5.065,5.065,0,0,1,1.951-2.942,6.884,6.884,0,0,1,4.1-1.033,6.775,6.775,0,0,1,4.368,1.131,3.533,3.533,0,0,1,1.344,2.828,3.1,3.1,0,0,1-.549,1.8,4.689,4.689,0,0,1-1.639,1.426,4.825,4.825,0,0,1,1.36.516,3.278,3.278,0,0,1,1.2,1.246,3.72,3.72,0,0,1,.426,1.844,5.189,5.189,0,0,1-.771,2.532,4.7,4.7,0,0,1-2.033,1.9,7.753,7.753,0,0,1-3.475.672,9.064,9.064,0,0,1-3.278-.5,4.975,4.975,0,0,1-2-1.443,6.638,6.638,0,0,1-1.2-2.393l4.278-.566a3.335,3.335,0,0,0,.82,1.787,1.877,1.877,0,0,0,1.352.5,1.844,1.844,0,0,0,1.434-.631,2.771,2.771,0,0,0,0-3.344,1.959,1.959,0,0,0-1.5-.59,5.676,5.676,0,0,0-1.393.254l.221-3.057a4.372,4.372,0,0,0,.557.049,1.983,1.983,0,0,0,1.41-.533,1.73,1.73,0,0,0,.557-1.271,1.524,1.524,0,0,0-.418-1.131,1.565,1.565,0,0,0-1.156-.418,1.688,1.688,0,0,0-1.229.459A2.746,2.746,0,0,0,666.624,955.433Z" transform="translate(-634.618 -950.696)" fill="#839eb6"/>
        <path id="Trazado_139682" data-name="Trazado 139682" d="M687.281,963.512H679.47v-3.549l7.811-9.253h3.729v9.475h1.934v3.328H691.01v2.877h-3.729Zm0-3.328v-4.852l-4.1,4.852Z" transform="translate(-637.703 -950.694)" fill="#839eb6"/>
        <path id="Trazado_139683" data-name="Trazado 139683" d="M699.241,951h10.171v3.418h-6.893l-.369,2.319a7.21,7.21,0,0,1,1.418-.508,5.743,5.743,0,0,1,1.385-.164,5.164,5.164,0,0,1,3.754,1.393,4.7,4.7,0,0,1,1.434,3.524,5.982,5.982,0,0,1-.738,2.869,5.024,5.024,0,0,1-2.106,2.106,7.378,7.378,0,0,1-3.483.729,10.12,10.12,0,0,1-2.615-.295,5.171,5.171,0,0,1-3.09-2.156,7.029,7.029,0,0,1-.82-1.811l4.336-.475a2.63,2.63,0,0,0,.738,1.582,1.943,1.943,0,0,0,1.377.541,1.852,1.852,0,0,0,1.475-.672,3.033,3.033,0,0,0,.582-2.024,2.918,2.918,0,0,0-.59-2.024,2.008,2.008,0,0,0-1.565-.639,2.515,2.515,0,0,0-1.2.3,3.409,3.409,0,0,0-.943.82l-3.656-.525Z" transform="translate(-640.917 -950.746)" fill="#839eb6"/>
      </g>
    </g>
    <g id="Grupo_70292" data-name="Grupo 70292" transform="translate(1136.58 474.698)">
      <g id="Grupo_63416" data-name="Grupo 63416">
        <path id="Trazado_139688" data-name="Trazado 139688" d="M876.689,750.078H856.2a20.818,20.818,0,0,0-41.636,0h-20.49A6.04,6.04,0,0,0,788,756.094v17.122a2.737,2.737,0,0,0,2.737,2.737h89.255a2.737,2.737,0,0,0,2.737-2.737V756.094A6.041,6.041,0,0,0,876.689,750.078Zm-41.308-4.016a4.918,4.918,0,1,1,4.918-4.918,4.918,4.918,0,0,1-4.918,4.918Z" transform="translate(-731.873 -729.26)" fill="#344154"/>
        <rect id="Rectángulo_14941" data-name="Rectángulo 14941" width="207.024" height="295.877" rx="8.45" transform="translate(0 27.924)" fill="#aed3f2"/>
        <rect id="Rectángulo_14942" data-name="Rectángulo 14942" width="186.149" height="273.051" rx="6.09" transform="translate(9.171 41.48)" fill="#6595bf"/>
        <path id="Trazado_139689" data-name="Trazado 139689" d="M879.468,762v14.991a5.065,5.065,0,0,1-5.057,5.065H796.745a5.065,5.065,0,0,1-5.057-5.065V762h-2.6v15.474a7.172,7.172,0,0,0,7.172,7.172h78.633a7.172,7.172,0,0,0,7.172-7.172V762Z" transform="translate(-732.07 -735.166)" fill="#344154"/>
        <rect id="Rectángulo_14943" data-name="Rectángulo 14943" width="130.383" height="9.77" rx="4.24" transform="translate(38.317 24.728)" fill="#344154"/>
      </g>
      <g id="Grupo_63418" data-name="Grupo 63418" transform="translate(24.449 96.197)">
        <g id="Grupo_63417" data-name="Grupo 63417" transform="translate(8.442 35.8)">
          <rect id="Rectángulo_14944" data-name="Rectángulo 14944" width="8.049" height="8.876" transform="translate(0 25.326)" fill="#e8c7aa"/>
          <rect id="Rectángulo_14945" data-name="Rectángulo 14945" width="8.049" height="26.719" transform="translate(14.359 7.483)" fill="#e8c7aa"/>
          <rect id="Rectángulo_14946" data-name="Rectángulo 14946" width="8.049" height="16.695" transform="translate(28.719 17.499)" fill="#e8c7aa"/>
          <rect id="Rectángulo_14947" data-name="Rectángulo 14947" width="8.049" height="34.202" transform="translate(43.078)" fill="#e8c7aa"/>
        </g>
        <path id="Trazado_139690" data-name="Trazado 139690" d="M1122.333,1132.415V1059.29h-1.983v75.1h70.3v-1.975Z" transform="translate(-1120.35 -1059.29)" fill="#aed3f2"/>
        <path id="Trazado_139691" data-name="Trazado 139691" d="M809.136,871.958l-4.295-.664-4.295-.664c-.254,0-.377.246-.229.516l1.77,3.229-8.729,4.7-2.7-2.549-.82-.762-1,.492-12.466,6.221-3.1-1.713-.648-.352-.574.221-14.04,5.377a.352.352,0,0,0-.221.41.361.361,0,0,0,.426.287l2.869-.59,11.155-2.295,3.336,1.828.738.393.746-.369,12.22-6.09,2.729,2.574.82.82,1.016-.541,9.761-5.254.606,1.1,1.18,2.147c.131.229.385.3.516.164a.123.123,0,0,0,.049-.074l1.754-3.967,1.639-3.754.09-.213a.475.475,0,0,0-.3-.631Z" transform="translate(-750.87 -850.96)" fill="#aed3f2"/>
      </g>
      <g id="Grupo_63420" data-name="Grupo 63420" transform="translate(115.245 106.508)">
        <rect id="Rectángulo_14948" data-name="Rectángulo 14948" width="9.95" height="9.95" rx="2.73" fill="#aed3f2"/>
        <g id="Grupo_63419" data-name="Grupo 63419" transform="translate(14.089 1.754)">
          <path id="Trazado_139692" data-name="Trazado 139692" d="M925.816,862.629H877.959a.639.639,0,0,1-.639-.639h0a.639.639,0,0,1,.639-.639h47.857a.639.639,0,0,1,.639.639h0a.639.639,0,0,1-.64.639Z" transform="translate(-877.32 -861.35)" fill="#aed3f2"/>
          <path id="Trazado_139693" data-name="Trazado 139693" d="M890.565,868.938H877.959a.639.639,0,0,1-.639-.639h0a.639.639,0,0,1,.639-.639h12.606a.639.639,0,0,1,.639.639h0a.639.639,0,0,1-.639.639Z" transform="translate(-877.32 -862.488)" fill="#aed3f2"/>
          <path id="Trazado_139694" data-name="Trazado 139694" d="M922.993,868.938H899.749a.639.639,0,0,1-.639-.639h0a.639.639,0,0,1,.639-.639h23.244a.639.639,0,0,1,.647.639h0a.639.639,0,0,1-.648.639Z" transform="translate(-881.251 -862.488)" fill="#aed3f2"/>
        </g>
      </g>
      <g id="Grupo_63422" data-name="Grupo 63422" transform="translate(115.245 128.768)">
        <rect id="Rectángulo_14949" data-name="Rectángulo 14949" width="9.95" height="9.95" rx="2.73" fill="#aed3f2"/>
        <g id="Grupo_63421" data-name="Grupo 63421" transform="translate(14.089 1.754)">
          <path id="Trazado_139695" data-name="Trazado 139695" d="M925.816,889.789H877.959a.639.639,0,0,1-.639-.639h0a.639.639,0,0,1,.639-.639h47.857a.639.639,0,0,1,.639.639h0a.639.639,0,0,1-.64.639Z" transform="translate(-877.32 -888.51)" fill="#aed3f2"/>
          <path id="Trazado_139696" data-name="Trazado 139696" d="M890.565,896.1H877.959a.639.639,0,0,1-.639-.639h0a.639.639,0,0,1,.639-.639h12.606a.639.639,0,0,1,.639.639h0A.639.639,0,0,1,890.565,896.1Z" transform="translate(-877.32 -889.648)" fill="#aed3f2"/>
          <path id="Trazado_139697" data-name="Trazado 139697" d="M922.993,896.1H899.749a.639.639,0,0,1-.639-.639h0a.639.639,0,0,1,.639-.639h23.244a.639.639,0,0,1,.647.639h0a.639.639,0,0,1-.648.639Z" transform="translate(-881.251 -889.648)" fill="#aed3f2"/>
        </g>
      </g>
      <g id="Grupo_63424" data-name="Grupo 63424" transform="translate(115.245 151.029)">
        <rect id="Rectángulo_14950" data-name="Rectángulo 14950" width="9.95" height="9.95" rx="2.73" fill="#aed3f2"/>
        <g id="Grupo_63423" data-name="Grupo 63423" transform="translate(14.089 1.754)">
          <path id="Trazado_139698" data-name="Trazado 139698" d="M925.816,916.957H877.959a.639.639,0,0,1-.639-.648h0a.639.639,0,0,1,.639-.639h47.857a.639.639,0,0,1,.639.639h0a.639.639,0,0,1-.639.647Z" transform="translate(-877.32 -915.67)" fill="#aed3f2"/>
          <path id="Trazado_139699" data-name="Trazado 139699" d="M890.565,923.259H877.959a.639.639,0,0,1-.639-.639h0a.639.639,0,0,1,.639-.639h12.606a.639.639,0,0,1,.639.639h0A.639.639,0,0,1,890.565,923.259Z" transform="translate(-877.32 -916.808)" fill="#aed3f2"/>
          <path id="Trazado_139700" data-name="Trazado 139700" d="M922.993,923.259H899.749a.639.639,0,0,1-.639-.639h0a.639.639,0,0,1,.639-.639h23.244a.639.639,0,0,1,.647.639h0a.639.639,0,0,1-.648.639Z" transform="translate(-881.251 -916.808)" fill="#aed3f2"/>
        </g>
      </g>
      <g id="Grupo_63425" data-name="Grupo 63425" transform="translate(28.744 184.764)">
        <rect id="Rectángulo_14951" data-name="Rectángulo 14951" width="38.841" height="6.319" rx="2.66" fill="#aed3f2"/>
        <rect id="Rectángulo_14952" data-name="Rectángulo 14952" width="27.219" height="6.319" rx="2.66" transform="translate(80.707)" fill="#aed3f2"/>
        <rect id="Rectángulo_14953" data-name="Rectángulo 14953" width="27.219" height="6.319" rx="2.66" transform="translate(117.663)" fill="#aed3f2"/>
        <rect id="Rectángulo_14954" data-name="Rectángulo 14954" width="20.007" height="6.319" rx="2.66" transform="translate(47.562)" fill="#aed3f2"/>
      </g>
      <g id="Grupo_63426" data-name="Grupo 63426" transform="translate(28.744 197.402)">
        <rect id="Rectángulo_14955" data-name="Rectángulo 14955" width="38.841" height="6.319" rx="2.66" fill="#bedcf5"/>
        <rect id="Rectángulo_14956" data-name="Rectángulo 14956" width="27.219" height="6.319" rx="2.66" transform="translate(80.707)" fill="#bedcf5"/>
        <rect id="Rectángulo_14957" data-name="Rectángulo 14957" width="27.219" height="6.319" rx="2.66" transform="translate(117.663)" fill="#e8c7aa"/>
        <rect id="Rectángulo_14958" data-name="Rectángulo 14958" width="20.007" height="6.319" rx="2.66" transform="translate(47.562)" fill="#aed3f2"/>
      </g>
      <g id="Grupo_63427" data-name="Grupo 63427" transform="translate(28.744 210.04)">
        <rect id="Rectángulo_14959" data-name="Rectángulo 14959" width="38.841" height="6.319" rx="2.66" fill="#bedcf5"/>
        <rect id="Rectángulo_14960" data-name="Rectángulo 14960" width="27.219" height="6.319" rx="2.66" transform="translate(80.707)" fill="#aed3f2"/>
        <rect id="Rectángulo_14961" data-name="Rectángulo 14961" width="27.219" height="6.319" rx="2.66" transform="translate(117.663)" fill="#e8c7aa"/>
        <rect id="Rectángulo_14962" data-name="Rectángulo 14962" width="20.007" height="6.319" rx="2.66" transform="translate(47.562)" fill="#e8c7aa"/>
      </g>
      <g id="Grupo_63428" data-name="Grupo 63428" transform="translate(28.744 222.679)">
        <rect id="Rectángulo_14963" data-name="Rectángulo 14963" width="38.841" height="6.319" rx="2.66" fill="#aed3f2"/>
        <rect id="Rectángulo_14964" data-name="Rectángulo 14964" width="27.219" height="6.319" rx="2.66" transform="translate(80.707)" fill="#aed3f2"/>
        <rect id="Rectángulo_14965" data-name="Rectángulo 14965" width="27.219" height="6.319" rx="2.66" transform="translate(117.663)" fill="#aed3f2"/>
        <rect id="Rectángulo_14966" data-name="Rectángulo 14966" width="20.007" height="6.319" rx="2.66" transform="translate(47.562)" fill="#bedcf5"/>
      </g>
      <g id="Grupo_63429" data-name="Grupo 63429" transform="translate(28.744 235.309)">
        <rect id="Rectángulo_14967" data-name="Rectángulo 14967" width="38.841" height="6.319" rx="2.66" fill="#e8c7aa"/>
        <rect id="Rectángulo_14968" data-name="Rectángulo 14968" width="27.219" height="6.319" rx="2.66" transform="translate(80.707)" fill="#bedcf5"/>
        <rect id="Rectángulo_14969" data-name="Rectángulo 14969" width="27.219" height="6.319" rx="2.66" transform="translate(117.663)" fill="#aed3f2"/>
        <rect id="Rectángulo_14970" data-name="Rectángulo 14970" width="20.007" height="6.319" rx="2.66" transform="translate(47.562)" fill="#e8c7aa"/>
      </g>
      <g id="Grupo_63432" data-name="Grupo 63432" transform="translate(28.744 256.053)">
        <rect id="Rectángulo_14971" data-name="Rectángulo 14971" width="19.49" height="17.646" rx="3.36" fill="#aed3f2"/>
        <rect id="Rectángulo_14972" data-name="Rectángulo 14972" width="19.49" height="17.646" rx="3.36" transform="translate(0 25.277)" fill="#aed3f2"/>
        <g id="Grupo_63430" data-name="Grupo 63430" transform="translate(27.217 5.549)">
          <path id="Trazado_139701" data-name="Trazado 139701" d="M857.351,1050.407H788.619a.926.926,0,0,1-.82-.983h0a.926.926,0,0,1,.82-.984h68.732a.926.926,0,0,1,.82.984h0a.926.926,0,0,1-.82.983Z" transform="translate(-787.797 -1048.44)" fill="#aed3f2"/>
          <path id="Trazado_139702" data-name="Trazado 139702" d="M828.81,1059.427H788.649a.926.926,0,0,1-.82-.983h0a.918.918,0,0,1,.82-.984H828.81a.918.918,0,0,1,.82.984h0A.926.926,0,0,1,828.81,1059.427Z" transform="translate(-787.803 -1050.067)" fill="#aed3f2"/>
          <path id="Trazado_139703" data-name="Trazado 139703" d="M896.023,1059.427H846.109a.926.926,0,0,1-.82-.983h0a.918.918,0,0,1,.82-.984h49.914a.918.918,0,0,1,.82.984h0A.926.926,0,0,1,896.023,1059.427Z" transform="translate(-798.168 -1050.067)" fill="#aed3f2"/>
          <path id="Trazado_139704" data-name="Trazado 139704" d="M927.351,1059.427H914.639a.926.926,0,0,1-.82-.983h0a.918.918,0,0,1,.82-.984h12.712a.918.918,0,0,1,.82.984h0A.926.926,0,0,1,927.351,1059.427Z" transform="translate(-810.531 -1050.067)" fill="#aed3f2"/>
          <path id="Trazado_139705" data-name="Trazado 139705" d="M921.207,1050.407H880.579a.926.926,0,0,1-.82-.983h0a.926.926,0,0,1,.82-.984h40.628a.926.926,0,0,1,.82.984h0A.926.926,0,0,1,921.207,1050.407Z" transform="translate(-804.386 -1048.44)" fill="#aed3f2"/>
        </g>
        <g id="Grupo_63431" data-name="Grupo 63431" transform="translate(27.216 29.449)">
          <path id="Trazado_139706" data-name="Trazado 139706" d="M857.351,1079.567H788.619a.918.918,0,0,1-.82-.983h0a.926.926,0,0,1,.82-.984h68.732a.926.926,0,0,1,.82.984h0A.918.918,0,0,1,857.351,1079.567Z" transform="translate(-787.797 -1077.6)" fill="#aed3f2"/>
          <path id="Trazado_139707" data-name="Trazado 139707" d="M828.81,1088.567H788.649a.926.926,0,0,1-.82-.984h0a.926.926,0,0,1,.82-.983H828.81a.926.926,0,0,1,.82.983h0A.926.926,0,0,1,828.81,1088.567Z" transform="translate(-787.802 -1079.224)" fill="#aed3f2"/>
          <path id="Trazado_139708" data-name="Trazado 139708" d="M896.023,1088.567H846.109a.926.926,0,0,1-.82-.984h0a.926.926,0,0,1,.82-.983h49.914a.926.926,0,0,1,.82.983h0A.926.926,0,0,1,896.023,1088.567Z" transform="translate(-798.168 -1079.224)" fill="#aed3f2"/>
          <path id="Trazado_139709" data-name="Trazado 139709" d="M927.351,1088.567H914.639a.926.926,0,0,1-.82-.984h0a.926.926,0,0,1,.82-.983h12.712a.926.926,0,0,1,.82.983h0A.926.926,0,0,1,927.351,1088.567Z" transform="translate(-810.53 -1079.224)" fill="#aed3f2"/>
          <path id="Trazado_139710" data-name="Trazado 139710" d="M921.207,1079.567H880.579a.918.918,0,0,1-.82-.983h0a.926.926,0,0,1,.82-.984h40.628a.926.926,0,0,1,.82.984h0A.918.918,0,0,1,921.207,1079.567Z" transform="translate(-804.386 -1077.6)" fill="#aed3f2"/>
        </g>
      </g>
      <path id="Trazado_139711" data-name="Trazado 139711" d="M768.343,1047.7l-3.91,5.426-2.7-2.557-1.639,2.073,4.59,3.057q2.942-3.147,5.885-6.286Z" transform="translate(-726.839 -786.705)" fill="#6595bf"/>
      <path id="Trazado_139712" data-name="Trazado 139712" d="M768.853,1078.39l-3.909,5.418-2.7-2.549-1.639,2.074,4.59,3.049,5.885-6.286C770.329,1079.537,769.591,1078.964,768.853,1078.39Z" transform="translate(-726.931 -792.241)" fill="#6595bf"/>
    </g>
    <g id="Grupo_70293" data-name="Grupo 70293" transform="translate(1340.629 575.231)">
      <rect id="Rectángulo_14937" data-name="Rectángulo 14937" width="19.236" height="223.654" transform="translate(72.327 236.451) rotate(166.12)" fill="#ffda99"/>
      <path id="Trazado_139684" data-name="Trazado 139684" d="M1342.06,1060.447l1.877-11.2.811-4.819,1.311-7.844,4.819,6.327,2.688,3.524,7.155,9.4Z" transform="translate(-1342 -1036.58)" fill="#ffcbc7"/>
      <path id="Trazado_139685" data-name="Trazado 139685" d="M1.279,0H17.966a1.271,1.271,0,0,1,1.271,1.271V17.613H0V1.27A1.27,1.27,0,0,1,1.27,0Z" transform="translate(73.605 241.668) rotate(166.12)" fill="#aed3f2"/>
      <g id="Grupo_63414" data-name="Grupo 63414" transform="translate(3.079 19.918)">
        <rect id="Rectángulo_14938" data-name="Rectángulo 14938" width="1.541" height="199.139" transform="translate(11.206 0.37) rotate(-13.88)" fill="#f7c777"/>
        <rect id="Rectángulo_14939" data-name="Rectángulo 14939" width="1.541" height="199.139" transform="matrix(0.97, -0.24, 0.24, 0.97, 5.016, 1.102)" fill="#f7c777"/>
        <rect id="Rectángulo_14940" data-name="Rectángulo 14940" width="1.541" height="199.139" transform="translate(0 3.132) rotate(-13.88)" fill="#f7c777"/>
      </g>
      <path id="Trazado_139686" data-name="Trazado 139686" d="M1028.7,1092.625a1.918,1.918,0,0,0,1.943,1.451l.385,1.565a1.91,1.91,0,0,0,.9,3.639h0l.377-.09h0l17.925-4.426h0l.369-.1h0a1.918,1.918,0,0,0-.9-3.647l-.385-1.557a1.918,1.918,0,0,0-.9-3.647l-.385-1.557a1.918,1.918,0,0,0-.893-3.647h0l-18.671,4.606h0a1.91,1.91,0,0,0,.9,3.639l.385,1.566a1.926,1.926,0,0,0-1.049,2.2Z" transform="translate(-981.157 -870.225)" fill="#344154"/>
      <path id="Trazado_139687" data-name="Trazado 139687" d="M973.35,836.591l.82-4.828,1.311-7.844,4.819,6.327,2.688,3.524a19.342,19.342,0,0,1-9.63,2.819Z" transform="translate(-971.414 -823.92)" fill="#344154"/>
    </g>
  </g>
</svg>
