<svg xmlns="http://www.w3.org/2000/svg" width="610" height="367" viewBox="0 0 610 367">
  <g id="Grupo_71151" data-name="Grupo 71151" transform="translate(-180 -7209)">
    <path id="Trazado_143395" data-name="Trazado 143395" d="M0,0H610V367H0Z" transform="translate(180 7209)" fill="none"/>
    <path id="Trazado_141470" data-name="Trazado 141470" d="M0,0H610V183.5H0Z" transform="translate(180 7209)" fill="#e8e8e8"/>
    <g id="Grupo_70449" data-name="Grupo 70449" transform="translate(-683 4947)">
      <g id="Grupo_70229" data-name="Grupo 70229" transform="translate(916 2287)">
        <rect id="Rectángulo_31121" data-name="Rectángulo 31121" width="505" height="317.657" transform="translate(0 0)" fill="none"/>
      </g>
      <g id="Grupo_70448" data-name="Grupo 70448" transform="translate(1017.513 2299.776)">
        <g id="background" transform="translate(8.182 4.356)">
          <circle id="Elipse_4345" data-name="Elipse 4345" cx="128.836" cy="128.836" r="128.836" transform="translate(0 0)" fill="#d9a171" opacity="0.255"/>
        </g>
        <g id="Grupo_68378" data-name="Grupo 68378" transform="translate(105.212 -1)">
          <g id="Grupo_68365" data-name="Grupo 68365">
            <path id="Trazado_134161" data-name="Trazado 134161" d="M722.414,502.146H592.121V314.671H736.73V489.935C736.73,496.679,730.32,502.146,722.414,502.146Z" transform="translate(-592.087 -314.671)" fill="#f7f7f7"/>
            <path id="Trazado_134197" data-name="Trazado 134197" d="M0,0H144.367V8.7H0Z" transform="translate(0 0)" fill="#d9a171"/>
          </g>
          <g id="Grupo_68367" data-name="Grupo 68367" transform="translate(34.252 100.902)">
            <g id="Grupo_68366" data-name="Grupo 68366">
              <path id="Trazado_134162" data-name="Trazado 134162" d="M797.165,703.516c1.947,0,1.947-2.2,0-2.2H724.7c-1.947,0-1.947,2.2,0,2.2h72.464Z" transform="translate(-723.24 -701.315)" fill="#5e6178"/>
            </g>
          </g>
          <g id="Grupo_68368" data-name="Grupo 68368" transform="translate(30.972 14.741)">
            <path id="Trazado_134163" data-name="Trazado 134163" d="M774.272,371.155a38.331,38.331,0,0,0-29.048,13.267l29.048,25.17,29.048-25.17A38.332,38.332,0,0,0,774.272,371.155Z" transform="translate(-736.206 -371.155)" fill="#aed3f2"/>
            <path id="Trazado_134164" data-name="Trazado 134164" d="M905.187,496.858l-38.044,5.47v38.438a38.415,38.415,0,0,0,38.437-38.438A38.843,38.843,0,0,0,905.187,496.858Z" transform="translate(-826.308 -464.053)" fill="#5e6178"/>
            <path id="Trazado_134165" data-name="Trazado 134165" d="M719.728,422.481a38.424,38.424,0,0,0,9.051,57.387l20.338-32.614Z" transform="translate(-710.67 -409.086)" fill="#6595bf"/>
            <path id="Trazado_134166" data-name="Trazado 134166" d="M798.95,556.049a38.257,38.257,0,0,1-20.779-6.1l20.783-32.332Z" transform="translate(-760.555 -479.392)" fill="#5e6178"/>
            <path id="Trazado_134167" data-name="Trazado 134167" d="M912.677,432.956a38.263,38.263,0,0,0-9-19.7l-29.048,25.17Z" transform="translate(-831.843 -402.269)" fill="#5e6178"/>
          </g>
          <g id="Grupo_68373" data-name="Grupo 68373" transform="translate(17.035 112.692)">
            <g id="Grupo_68369" data-name="Grupo 68369" transform="translate(0 19.179)">
              <rect id="Rectángulo_31715" data-name="Rectángulo 31715" width="14.12" height="34.011" transform="translate(0 13.17)" fill="#a66d58"/>
              <rect id="Rectángulo_31716" data-name="Rectángulo 31716" width="14.12" height="15.983" fill="#d9a171"/>
            </g>
            <g id="Grupo_68371" data-name="Grupo 68371" transform="translate(61.973 28.002)">
              <rect id="Rectángulo_31719" data-name="Rectángulo 31719" width="14.12" height="35.929" transform="translate(0 3.197)" fill="#a66d58"/>
              <rect id="Rectángulo_31720" data-name="Rectángulo 31720" width="14.12" height="23.846" fill="#d9a171"/>
            </g>
            <g id="Grupo_68372" data-name="Grupo 68372" transform="translate(30.986)">
              <rect id="Rectángulo_31721" data-name="Rectángulo 31721" width="14.12" height="48.252" transform="translate(0 18.684)" fill="#a66d58"/>
              <rect id="Rectángulo_31722" data-name="Rectángulo 31722" width="14.12" height="38.594" fill="#d9a171"/>
            </g>
          </g>
          <g id="Grupo_68377" data-name="Grupo 68377" transform="translate(3.659 3.1)">
            <g id="Grupo_68374" data-name="Grupo 68374">
              <path id="Trazado_134168" data-name="Trazado 134168" d="M607.868,330.262a1.857,1.857,0,1,1,1.857-1.857A1.859,1.859,0,0,1,607.868,330.262Zm0-3.4a1.547,1.547,0,1,0,1.548,1.547A1.549,1.549,0,0,0,607.868,326.858Z" transform="translate(-606.011 -326.548)" fill="#fff"/>
            </g>
            <g id="Grupo_68375" data-name="Grupo 68375" transform="translate(5.725)">
              <path id="Trazado_134169" data-name="Trazado 134169" d="M629.807,330.262a1.857,1.857,0,1,1,1.857-1.857A1.859,1.859,0,0,1,629.807,330.262Zm0-3.4a1.547,1.547,0,1,0,1.547,1.547A1.549,1.549,0,0,0,629.807,326.858Z" transform="translate(-627.95 -326.548)" fill="#fff"/>
            </g>
            <g id="Grupo_68376" data-name="Grupo 68376" transform="translate(11.451)">
              <path id="Trazado_134170" data-name="Trazado 134170" d="M651.746,330.262A1.857,1.857,0,1,1,653.6,328.4,1.859,1.859,0,0,1,651.746,330.262Zm0-3.4a1.547,1.547,0,1,0,1.547,1.547A1.549,1.549,0,0,0,651.746,326.858Z" transform="translate(-649.889 -326.548)" fill="#fff"/>
            </g>
          </g>
        </g>
        <g id="Grupo_70451" data-name="Grupo 70451" transform="translate(267.814 33.207)">
          <g id="Grupo_68365-2" data-name="Grupo 68365">
            <path id="Trazado_134161-2" data-name="Trazado 134161" d="M702.364,473.3H592.121V314.671H714.476V462.964C714.476,468.67,709.053,473.3,702.364,473.3Z" transform="translate(-592.092 -314.671)" fill="#f7f7f7"/>
            <path id="Trazado_134197-2" data-name="Trazado 134197" d="M0,0H122.151V7.364H0Z" transform="translate(0 0)" fill="#d9a171"/>
          </g>
          <g id="Grupo_68367-2" data-name="Grupo 68367" transform="translate(28.981 85.375)">
            <g id="Grupo_68366-2" data-name="Grupo 68366">
              <path id="Trazado_134162-2" data-name="Trazado 134162" d="M785.789,703.177c1.648,0,1.648-1.862,0-1.862H724.476c-1.648,0-1.648,1.862,0,1.862h61.313Z" transform="translate(-723.24 -701.315)" fill="#5e6178"/>
            </g>
          </g>
          <g id="Grupo_68373-2" data-name="Grupo 68373" transform="translate(30.673 18.35)">
            <g id="Grupo_68369-2" data-name="Grupo 68369" transform="translate(0 16.228)">
              <rect id="Rectángulo_31715-2" data-name="Rectángulo 31715" width="11.947" height="28.777" transform="translate(0 11.143)" fill="#5e6178"/>
              <rect id="Rectángulo_31716-2" data-name="Rectángulo 31716" width="11.947" height="13.523" fill="#5e6178"/>
            </g>
            <g id="Grupo_68371-2" data-name="Grupo 68371" transform="translate(52.436 23.693)">
              <rect id="Rectángulo_31719-2" data-name="Rectángulo 31719" width="11.947" height="30.4" transform="translate(0 2.705)" fill="#5e6178"/>
              <rect id="Rectángulo_31720-2" data-name="Rectángulo 31720" width="11.947" height="20.177" fill="#5e6178"/>
            </g>
            <g id="Grupo_68372-2" data-name="Grupo 68372" transform="translate(26.218)">
              <rect id="Rectángulo_31721-2" data-name="Rectángulo 31721" width="11.947" height="40.826" transform="translate(0 15.809)" fill="#5e6178"/>
              <rect id="Rectángulo_31722-2" data-name="Rectángulo 31722" width="11.947" height="32.654" fill="#5e6178"/>
            </g>
          </g>
          <g id="Grupo_70452" data-name="Grupo 70452" transform="translate(30.673 97.463)">
            <g id="Grupo_68369-3" data-name="Grupo 68369" transform="translate(0 16.228)">
              <rect id="Rectángulo_31715-3" data-name="Rectángulo 31715" width="11.947" height="28.777" transform="translate(0 11.143)" fill="#6595bf"/>
              <rect id="Rectángulo_31716-3" data-name="Rectángulo 31716" width="11.947" height="13.523" fill="#6595bf"/>
            </g>
            <g id="Grupo_68371-3" data-name="Grupo 68371" transform="translate(52.436 23.693)">
              <rect id="Rectángulo_31719-3" data-name="Rectángulo 31719" width="11.947" height="30.4" transform="translate(0 2.705)" fill="#6595bf"/>
              <rect id="Rectángulo_31720-3" data-name="Rectángulo 31720" width="11.947" height="20.177" fill="#6595bf"/>
            </g>
            <g id="Grupo_68372-3" data-name="Grupo 68372" transform="translate(26.218)">
              <rect id="Rectángulo_31721-3" data-name="Rectángulo 31721" width="11.947" height="40.826" transform="translate(0 15.809)" fill="#6595bf"/>
              <rect id="Rectángulo_31722-3" data-name="Rectángulo 31722" width="11.947" height="32.654" fill="#6595bf"/>
            </g>
          </g>
          <g id="Grupo_68377-2" data-name="Grupo 68377" transform="translate(3.096 2.623)">
            <g id="Grupo_68374-2" data-name="Grupo 68374">
              <path id="Trazado_134168-2" data-name="Trazado 134168" d="M607.582,329.69a1.571,1.571,0,1,1,1.571-1.571A1.573,1.573,0,0,1,607.582,329.69Zm0-2.88a1.309,1.309,0,1,0,1.309,1.309A1.311,1.311,0,0,0,607.582,326.81Z" transform="translate(-606.011 -326.548)" fill="#fff"/>
            </g>
            <g id="Grupo_68375-2" data-name="Grupo 68375" transform="translate(4.844)">
              <path id="Trazado_134169-2" data-name="Trazado 134169" d="M629.521,329.69a1.571,1.571,0,1,1,1.571-1.571A1.573,1.573,0,0,1,629.521,329.69Zm0-2.88a1.309,1.309,0,1,0,1.309,1.309A1.311,1.311,0,0,0,629.521,326.81Z" transform="translate(-627.95 -326.548)" fill="#fff"/>
            </g>
            <g id="Grupo_68376-2" data-name="Grupo 68376" transform="translate(9.689)">
              <path id="Trazado_134170-2" data-name="Trazado 134170" d="M651.46,329.69a1.571,1.571,0,1,1,1.571-1.571A1.573,1.573,0,0,1,651.46,329.69Zm0-2.88a1.309,1.309,0,1,0,1.309,1.309A1.311,1.311,0,0,0,651.46,326.81Z" transform="translate(-649.889 -326.548)" fill="#fff"/>
            </g>
          </g>
        </g>
        <g id="Grupo_70455" data-name="Grupo 70455" transform="translate(-10.018 -2.152)">
          <path id="Trazado_134171" data-name="Trazado 134171" d="M353.465,662.344H253.83V508.468H362.717V653.092A9.252,9.252,0,0,1,353.465,662.344Z" transform="translate(-264.212 -375.274)" fill="#2e4661" opacity="0.07"/>
          <g id="Grupo_68380" data-name="Grupo 68380" transform="translate(-22.753 121.552)">
            <g id="Grupo_68379" data-name="Grupo 68379">
              <path id="Trazado_134172" data-name="Trazado 134172" d="M313.818,628.413H209.972V467.2H327.3V614.932A13.481,13.481,0,0,1,313.818,628.413Z" transform="translate(-209.972 -467.198)" fill="#f2e9e4"/>
            </g>
            <rect id="Rectángulo_31723" data-name="Rectángulo 31723" width="94.979" height="60.06" transform="translate(12.453 12.873)" fill="#fff"/>
            <path id="Trazado_134173" data-name="Trazado 134173" d="M334.375,547.017a3.969,3.969,0,0,0,2.367,1.956c2.405.9,5.638.25,7.025-1.764,2.318-3.366,1.666-8.184,4.16-11.681a8.184,8.184,0,0,1,4.375-3.09,7.483,7.483,0,0,1,5.526.525c2.637,1.453,3.55,4.454,3.575,7.178a84.856,84.856,0,0,1-1.625,15.8,13.669,13.669,0,0,1-2.969,7.039c-2.456,2.677-6.5,3.792-10.367,4.388-9.784,1.508-19.82.586-29.7-.34L292.906,564.8c-2.24-.21-8.835.129-10.176-1.423-1.309-1.515-.28-6.651.485-8.236,1.705-3.53,6.37-5.523,10.748-5.3,9.875.505,5.972-9.807,9.133-14.7,1.679-2.6,5.377-4.471,8.562-3.387,3.038,1.034,4.306,4.083,5.8,6.613A5.488,5.488,0,0,0,321,541.321c2.824.483,5.18-2.388,8.056-2.278a4.81,4.81,0,0,1,3.886,2.558C333.945,543.428,333.6,545.447,334.375,547.017Z" transform="translate(-261.756 -513.315)" fill="#f7f7f7"/>
            <path id="Trazado_134174" data-name="Trazado 134174" d="M356.457,596.732s.016-4.323.016-4.56c.023-6.451.022-12.9.03-19.353.008-6.164.516-12.325.416-18.474-.045-2.844-1.273-4.331-4.269-3.568a13.845,13.845,0,0,0-7.5,4.916c-1.257,1.636-2.3,3.684-4.258,4.343-3.494,1.178-6.354-2.758-9.492-4.695a9.757,9.757,0,0,0-11.114.83c-3.664,3.1-4.5,8.455-7.6,12.117a12.517,12.517,0,0,1-14.4,3.169c-1.968-.914-3.659-2.338-5.6-3.31-7.692-3.856-18.386,1.692-19.662,10.2v17.607S356.612,596.887,356.457,596.732Z" transform="translate(-255.233 -527.058)" fill="#d9a171"/>
            <rect id="Rectángulo_31724" data-name="Rectángulo 31724" width="7.139" height="7.139" transform="translate(14.005 82.089)" fill="#5e6178"/>
            <rect id="Rectángulo_31725" data-name="Rectángulo 31725" width="7.139" height="7.139" transform="translate(14.005 92.642)" fill="#5e6178"/>
            <rect id="Rectángulo_31726" data-name="Rectángulo 31726" width="20.796" height="2.173" transform="translate(27.041 84.262)" fill="#f7f7f7"/>
            <rect id="Rectángulo_31727" data-name="Rectángulo 31727" width="20.796" height="2.173" transform="translate(26.73 95.746)" fill="#f7f7f7"/>
            <rect id="Rectángulo_31728" data-name="Rectángulo 31728" width="90.633" height="2.347" transform="translate(14.936 111.954)" fill="#f7f7f7"/>
            <rect id="Rectángulo_31729" data-name="Rectángulo 31729" width="40.351" height="32.164" transform="translate(14.936 118.773)" fill="#6595bf"/>
            <rect id="Rectángulo_31730" data-name="Rectángulo 31730" width="44.075" height="14.006" transform="translate(61.494 119.084)" fill="#f7f7f7"/>
            <rect id="Rectángulo_31731" data-name="Rectángulo 31731" width="44.075" height="14.006" transform="translate(61.028 136.776)" fill="#f7f7f7"/>
          </g>
        </g>
        <g id="Grupo_68382" data-name="Grupo 68382" transform="translate(-53.689 44.926)">
          <path id="Trazado_134175" data-name="Trazado 134175" d="M242.516,231.015H181.5a.446.446,0,0,0-.426.464V263.8c0,7.97,5.929,14.43,13.244,14.43h25.3l10.345,14.514a.493.493,0,0,0,.9-.279l.212-14.235h11.449a.446.446,0,0,0,.426-.464V231.479A.446.446,0,0,0,242.516,231.015Z" transform="translate(-181.07 -231.015)" fill="#5e6178"/>
          <g id="Grupo_68381" data-name="Grupo 68381" transform="translate(7.991 7.725)">
            <rect id="Rectángulo_31732" data-name="Rectángulo 31732" width="38.01" height="1.584" fill="#dddae8"/>
            <rect id="Rectángulo_31733" data-name="Rectángulo 31733" width="45.334" height="1.584" transform="translate(0 12.076)" fill="#dddae8"/>
            <rect id="Rectángulo_31734" data-name="Rectángulo 31734" width="45.334" height="1.584" transform="translate(0 24.152)" fill="#dddae8"/>
          </g>
        </g>
        <g id="Grupo_70454" data-name="Grupo 70454" transform="translate(-94.802 86.351)">
          <path id="Trazado_134175-2" data-name="Trazado 134175" d="M242.516,231.015H181.5a.446.446,0,0,0-.426.464V263.8c0,7.97,5.929,14.43,13.244,14.43h25.3l10.345,14.514a.493.493,0,0,0,.9-.279l.212-14.235h11.449a.446.446,0,0,0,.426-.464V231.479A.446.446,0,0,0,242.516,231.015Z" transform="translate(-181.07 -231.015)" fill="#6595bf"/>
          <g id="Grupo_68381-2" data-name="Grupo 68381" transform="translate(7.991 7.725)">
            <rect id="Rectángulo_31732-2" data-name="Rectángulo 31732" width="38.01" height="1.584" fill="#dddae8"/>
            <rect id="Rectángulo_31733-2" data-name="Rectángulo 31733" width="45.334" height="1.584" transform="translate(0 12.076)" fill="#dddae8"/>
            <rect id="Rectángulo_31734-2" data-name="Rectángulo 31734" width="45.334" height="1.584" transform="translate(0 24.152)" fill="#dddae8"/>
          </g>
        </g>
        <g id="Grupo_68385" data-name="Grupo 68385" transform="translate(-94.802 7)">
          <g id="Grupo_68383" data-name="Grupo 68383">
            <path id="Trazado_134176" data-name="Trazado 134176" d="M467.094,190.178h-45.26V158.1h42.381l9.077,9.587v15.871A6.422,6.422,0,0,1,467.094,190.178Z" transform="translate(-421.834 -158.096)" fill="#d9a171"/>
            <path id="Trazado_134177" data-name="Trazado 134177" d="M613.514,167.759l-9.112.229V158.1Z" transform="translate(-562.023 -158.096)" fill="#a66d58"/>
          </g>
          <g id="Grupo_68384" data-name="Grupo 68384" transform="translate(7.838 8.326)">
            <rect id="Rectángulo_31735" data-name="Rectángulo 31735" width="28.874" height="1.375" transform="translate(4.574)" fill="#f7f7f7"/>
            <rect id="Rectángulo_31736" data-name="Rectángulo 31736" width="33.448" height="1.375" transform="translate(0 6.646)" fill="#f7f7f7"/>
            <rect id="Rectángulo_31737" data-name="Rectángulo 31737" width="33.448" height="1.375" transform="translate(0 13.291)" fill="#f7f7f7"/>
          </g>
        </g>
        <g id="Grupo_70453" data-name="Grupo 70453" transform="translate(3.487 28.884)">
          <g id="Grupo_68383-2" data-name="Grupo 68383">
            <path id="Trazado_134176-2" data-name="Trazado 134176" d="M467.094,190.178h-45.26V158.1h42.381l9.077,9.587v15.871A6.422,6.422,0,0,1,467.094,190.178Z" transform="translate(-421.834 -158.096)" fill="#d9a171"/>
            <path id="Trazado_134177-2" data-name="Trazado 134177" d="M613.514,167.759l-9.112.229V158.1Z" transform="translate(-562.023 -158.096)" fill="#a66d58"/>
          </g>
          <g id="Grupo_68384-2" data-name="Grupo 68384" transform="translate(7.838 8.326)">
            <rect id="Rectángulo_31735-2" data-name="Rectángulo 31735" width="28.874" height="1.375" transform="translate(4.574)" fill="#f7f7f7"/>
            <rect id="Rectángulo_31736-2" data-name="Rectángulo 31736" width="33.448" height="1.375" transform="translate(0 6.646)" fill="#f7f7f7"/>
            <rect id="Rectángulo_31737-2" data-name="Rectángulo 31737" width="33.448" height="1.375" transform="translate(0 13.291)" fill="#f7f7f7"/>
          </g>
        </g>
        <g id="Grupo_70450" data-name="Grupo 70450" transform="translate(66)">
          <g id="Grupo_68389" data-name="Grupo 68389" transform="translate(179.768 140.894)">
            <g id="Grupo_68386" data-name="Grupo 68386" transform="translate(0 35.919)">
              <path id="Trazado_134178" data-name="Trazado 134178" d="M1007.929,565.811a.307.307,0,0,1-.3-.265c-.057-.415-.094-.836-.111-1.253a.307.307,0,1,1,.613-.024c.016.4.052.8.106,1.193a.307.307,0,0,1-.262.346Z" transform="translate(-1007.514 -563.974)" fill="#5d66d3"/>
            </g>
            <g id="Grupo_68387" data-name="Grupo 68387" transform="translate(0.138 3.347)">
              <path id="Trazado_134179" data-name="Trazado 134179" d="M1008.493,435.617a.325.325,0,0,1-.047,0,.307.307,0,0,1-.258-.35,14.444,14.444,0,0,1,.592-2.426.307.307,0,0,1,.582.2,13.788,13.788,0,0,0-.567,2.322A.307.307,0,0,1,1008.493,435.617Zm1.536-4.624a.307.307,0,0,1-.273-.448,19.309,19.309,0,0,1,1.283-2.129.307.307,0,1,1,.505.349,18.646,18.646,0,0,0-1.242,2.061A.308.308,0,0,1,1010.029,430.993Zm2.768-4.024a.307.307,0,0,1-.231-.509c.531-.609,1.109-1.209,1.72-1.784a.307.307,0,0,1,.421.447c-.6.561-1.16,1.146-1.678,1.74A.307.307,0,0,1,1012.8,426.969Zm3.555-3.357a.307.307,0,0,1-.19-.549c.644-.505,1.32-.991,2.01-1.443a.307.307,0,1,1,.336.514c-.675.443-1.337.918-1.967,1.413A.305.305,0,0,1,1016.352,423.612Zm4.091-2.685a.307.307,0,0,1-.148-.576c.714-.392,1.453-.77,2.2-1.122a.307.307,0,0,1,.263.555c-.733.347-1.461.719-2.164,1.106A.3.3,0,0,1,1020.443,420.928Zm4.421-2.1a.307.307,0,0,1-.116-.592c.751-.3,1.527-.6,2.308-.864a.307.307,0,0,1,.2.581c-.77.265-1.536.552-2.277.852A.305.305,0,0,1,1024.864,418.829Zm4.626-1.594a.307.307,0,0,1-.085-.6c.776-.223,1.577-.433,2.382-.623a.307.307,0,0,1,.141.6c-.795.188-1.587.395-2.353.615A.308.308,0,0,1,1029.49,417.235Zm39.154-.87h-.249a.307.307,0,0,1-.3-.309.3.3,0,0,1,.309-.305h.245c.759,0,1.491-.027,2.176-.08a.307.307,0,0,1,.047.612C1070.167,416.338,1069.419,416.365,1068.644,416.365Zm-2.693-.094h-.02c-.731-.048-1.532-.115-2.449-.206a.307.307,0,1,1,.06-.611c.911.09,1.705.157,2.429.2a.307.307,0,0,1-.02.614Zm-31.7-.163a.307.307,0,0,1-.057-.609c.791-.15,1.607-.287,2.426-.407a.307.307,0,0,1,.089.608c-.81.119-1.618.254-2.4.4A.327.327,0,0,1,1034.251,416.108Zm39.016-.145a.307.307,0,0,1-.058-.609,17.03,17.03,0,0,0,2.322-.617.307.307,0,1,1,.2.58,17.64,17.64,0,0,1-2.406.64A.318.318,0,0,1,1073.268,415.963Zm-12.191-.155-.034,0-.729-.079q-.849-.092-1.7-.175a.307.307,0,0,1,.059-.611q.857.084,1.709.176l.729.08a.307.307,0,0,1-.033.612Zm-21.984-.414a.307.307,0,0,1-.033-.612c.8-.086,1.622-.161,2.448-.221a.307.307,0,1,1,.045.613c-.819.06-1.635.133-2.427.219Zm17.111-.058h-.025c-.822-.066-1.642-.123-2.436-.172a.307.307,0,1,1,.037-.613c.8.048,1.622.106,2.448.172a.307.307,0,0,1-.024.613Zm-4.887-.294h-.012c-.824-.032-1.645-.054-2.44-.066a.307.307,0,0,1-.3-.312.3.3,0,0,1,.312-.3c.8.012,1.626.034,2.454.066a.307.307,0,0,1-.012.614Zm-7.343-.007a.307.307,0,0,1-.012-.614c.8-.033,1.628-.054,2.456-.064a.312.312,0,0,1,.311.3.307.307,0,0,1-.3.311c-.822.01-1.642.031-2.438.063Zm33.9-.682a.307.307,0,0,1-.146-.578,15.622,15.622,0,0,0,2.016-1.3.307.307,0,1,1,.371.489,16.218,16.218,0,0,1-2.1,1.35A.307.307,0,0,1,1077.872,414.355Zm3.9-2.933a.307.307,0,0,1-.217-.524,20.816,20.816,0,0,0,1.6-1.8.307.307,0,0,1,.481.381,21.423,21.423,0,0,1-1.649,1.855A.306.306,0,0,1,1081.77,411.421Zm3.045-3.821a.307.307,0,0,1-.258-.473c.423-.658.835-1.362,1.222-2.091a.307.307,0,1,1,.542.288c-.4.744-.815,1.463-1.248,2.135A.307.307,0,0,1,1084.815,407.6Z" transform="translate(-1008.186 -404.873)" fill="#5d66d3"/>
            </g>
            <g id="Grupo_68388" data-name="Grupo 68388" transform="translate(78.768)">
              <path id="Trazado_134180" data-name="Trazado 134180" d="M1392.578,390.268a.307.307,0,0,1-.281-.431c.161-.365.32-.743.474-1.123a.307.307,0,0,1,.57.23c-.156.386-.318.77-.481,1.141A.307.307,0,0,1,1392.578,390.268Z" transform="translate(-1392.271 -388.522)" fill="#5d66d3"/>
            </g>
          </g>
          <g id="Grupo_68390" data-name="Grupo 68390" transform="translate(248.517 117.321)">
            <path id="Trazado_134181" data-name="Trazado 134181" d="M1368.831,274.218l-1.283,29.125-9.617-10.1s10.941-19.846,11.017-19.518l-.42-.35c.324-.093-11.7,19.115-11.7,19.115l-13.5-3.5,24.829-15.278Z" transform="translate(-1343.329 -273.379)" fill="#8cabef"/>
          </g>
        </g>
        <g id="Grupo_68394" data-name="Grupo 68394" transform="translate(133.03 202.158)">
          <rect id="Rectángulo_31738" data-name="Rectángulo 31738" width="108.302" height="78.295" transform="translate(0 4.543)" fill="#2e4661" opacity="0.07"/>
          <g id="Grupo_68393" data-name="Grupo 68393" transform="translate(3.7)">
            <g id="Grupo_68392" data-name="Grupo 68392">
              <g id="Grupo_68391" data-name="Grupo 68391">
                <path id="Trazado_134196" data-name="Trazado 134196" d="M0,0H109.038V78.528H0Z" fill="#6595bf"/>
                <rect id="Rectángulo_31740" data-name="Rectángulo 31740" width="108.89" height="6.251" fill="#5e6178"/>
              </g>
              <path id="Trazado_134182" data-name="Trazado 134182" d="M1226.467,756.253v-.243h-13.384V742.876h-.243V756.01H1196.8V742.876h-.242V756.01h-16.045V742.876h-.242V756.01h-16.046V742.876h-.242V756.01h-16.046V742.876h-.243V756.01h-16.045V742.876h-.242V756.01h-13.364v.243H1131.4v14.839h-13.364v.242H1131.4v14.84h-13.364v.242H1131.4v14.84h-13.364v.242H1131.4v13.808h.242V801.5h16.045v13.808h.243V801.5h16.046v13.808h.242V801.5h16.046v13.808h.242V801.5h16.045v13.808h.242V801.5h16.046v13.808h.243V801.5h13.384v-.242h-13.384v-14.84h13.384v-.242h-13.384v-14.84h13.384v-.242h-13.384V756.253Zm-29.914,0v14.839h-16.045V756.253Zm-32.333,15.082h16.046v14.84h-16.046Zm-.242,14.84h-16.046v-14.84h16.046Zm16.53-14.84h16.045v14.84h-16.045Zm-.242-15.082v14.839h-16.046V756.253Zm-16.287,0v14.839h-16.046V756.253Zm-32.333,0h16.045v14.839h-16.045Zm0,15.082h16.045v14.84h-16.045Zm0,29.922v-14.84h16.045v14.84Zm16.288,0v-14.84h16.046v14.84Zm16.288,0v-14.84h16.046v14.84Zm16.288,0v-14.84h16.045v14.84Zm32.333,0H1196.8v-14.84h16.046Zm0-15.082H1196.8v-14.84h16.046Zm0-15.082H1196.8V756.253h16.046Z" transform="translate(-1117.658 -736.505)" opacity="0.603"/>
            </g>
            <path id="Trazado_134183" data-name="Trazado 134183" d="M1221.216,768.338a3.326,3.326,0,0,0-2.335,5.7L1207.307,784l-.88.758a3.325,3.325,0,1,0-3.894,5.381l-2.535,6.1-1.081,2.6a3.31,3.31,0,0,0-3.627,1.568l-11.181-7.067-8.285-5.237a3.326,3.326,0,1,0-6.344-.556l-15.68,6.4-1.537.627a3.326,3.326,0,1,0-5.332,3.742l-2.329,2.643-11.115,12.618a3.348,3.348,0,1,0,.862.851l9.491-10.773,4.119-4.675a3.325,3.325,0,0,0,4.579-3.081c0-.045-.005-.088-.007-.133l.226-.093,17.18-7.012a3.319,3.319,0,0,0,5.238.465l7.514,4.75,12.189,7.7a3.325,3.325,0,1,0,5.143-2.264l3.622-8.721a3.324,3.324,0,0,0,4.027-3.252,3.312,3.312,0,0,0-.455-1.675l2.047-1.763,8.769-7.551,1.891-1.629a3.327,3.327,0,1,0,1.293-6.393Z" transform="translate(-1123.911 -752.02)" fill="#dddae8"/>
          </g>
        </g>
        <g id="Grupo_68405" data-name="Grupo 68405" transform="translate(172.87 108.224)">
          <g id="Grupo_68403" data-name="Grupo 68403">
            <g id="Grupo_68401" data-name="Grupo 68401">
              <g id="Grupo_68398" data-name="Grupo 68398">
                <g id="Grupo_68396" data-name="Grupo 68396" transform="translate(73.047 60.636)">
                  <g id="Grupo_68395" data-name="Grupo 68395">
                    <path id="Trazado_134184" data-name="Trazado 134184" d="M1242.48,542.952l-6.838,10.952-38.8-24.442,6.838-10.952Z" transform="translate(-1196.844 -518.51)" fill="#f7f7f7"/>
                    <path id="Trazado_134185" data-name="Trazado 134185" d="M1335.651,606.675l-.079.126c-2.157,3.455-6.006,4.944-8.6,3.327l-29.781-18.28,7.826-13.162,29.845,18.805C1337.456,599.108,1337.808,603.22,1335.651,606.675Z" transform="translate(-1276.651 -566.366)" fill="#353a85"/>
                  </g>
                  <path id="Trazado_134186" data-name="Trazado 134186" d="M1210.1,533.043l1.878,1.368,17-4.413-14.165-9.038Z" transform="translate(-1207.389 -520.458)" fill="#bbbcbf" opacity="0.2" style="mix-blend-mode: multiply;isolation: isolate"/>
                </g>
                <g id="Grupo_68397" data-name="Grupo 68397">
                  <path id="Trazado_134187" data-name="Trazado 134187" d="M940.575,269.315a38.864,38.864,0,1,0,12.385,53.548A38.864,38.864,0,0,0,940.575,269.315Zm7.779,50.672A33.433,33.433,0,1,1,937.7,273.922,33.433,33.433,0,0,1,948.354,319.987Z" transform="translate(-872.713 -255.001)" fill="#5e6178"/>
                  <circle id="Elipse_4346" data-name="Elipse 4346" cx="33.433" cy="33.433" r="33.433" transform="translate(0 47.281) rotate(-45)" fill="#d1e7f5" opacity="0.5"/>
                </g>
              </g>
              <g id="Grupo_68400" data-name="Grupo 68400" transform="translate(18.514 17.127)">
                <g id="Grupo_68399" data-name="Grupo 68399" opacity="0.22">
                  <path id="Trazado_134188" data-name="Trazado 134188" d="M935.144,334.788a23.546,23.546,0,0,1,43.883-12.483c1.521,2.6,5.659.427,4.135-2.172A28.568,28.568,0,0,0,952.621,306.6c-11.836,2.519-20.569,12.692-21.992,24.583a25.778,25.778,0,0,0-.154,3.467c.046,3,4.716,3.157,4.669.136Z" transform="translate(-930.47 -305.98)" fill="#fff"/>
                </g>
                <circle id="Elipse_4347" data-name="Elipse 4347" cx="3.076" cy="3.076" r="3.076" transform="translate(50.454 20.856) rotate(-7.528)" fill="#fff" opacity="0.31"/>
              </g>
            </g>
            <path id="Trazado_134189" data-name="Trazado 134189" d="M1292.013,586.1l7.446-12.523a.975.975,0,0,0-.258-1.282l-.131-.1a.975.975,0,0,0-1.423.293l-7.333,12.61a.975.975,0,0,0,.37,1.343l.017.009A.975.975,0,0,0,1292.013,586.1Z" transform="translate(-1198.027 -500.42)" fill="#d67086"/>
            <g id="Grupo_68402" data-name="Grupo 68402" transform="translate(11.963 12.661)">
              <path id="Trazado_134190" data-name="Trazado 134190" d="M966.4,319.027a33.086,33.086,0,1,1-4.438-16.563,33.336,33.336,0,0,1,4.438,16.563.89.89,0,0,0,1.779,0,34.862,34.862,0,1,0-11.048,25.461,35.254,35.254,0,0,0,11.048-25.461A.89.89,0,0,0,966.4,319.027Z" transform="translate(-898.471 -284.168)" fill="#f7f7f7"/>
            </g>
          </g>
          <path id="Trazado_134191" data-name="Trazado 134191" d="M1331.319,573.856c1.256-3.3,3.077-9.818,4.123-12.983-2.292-7.71-7.01-20.59-7.5-20.731-2.859-.828-5.408-1.585-8.259-2.408-.132-.038-.968,4.226-1.1,4.188a6.076,6.076,0,0,1-.183-1.857h0l-.549-5.543a1.046,1.046,0,0,0-.783-.977c-1.67-.434-5.277-1.281-5.434-1.019-.058.1-.37,4.908-.628,6.282l-.6-.314-.785-8.978s-6.238-1.572-6.361-1.283c-.144.34-1.531,7.957-1.531,7.957s-2.413,18.178-2.688,19.47c-.4,1.893-1.666,3.589-1.484,5.476a18.342,18.342,0,0,0,2.038,5.983l6.6,13.9c.48,3.144.984,10.346,1.707,13.441,8.14-1.643,16.316-2.886,25.375-5.769C1333.535,588.6,1330.777,575.277,1331.319,573.856Z" transform="translate(-1203.877 -465.577)" fill="#eac5b0"/>
          <g id="Grupo_68404" data-name="Grupo 68404" transform="translate(97.057 112.139)">
            <path id="Trazado_134192" data-name="Trazado 134192" d="M1329.943,798.661l-1.879-16.523,32.543-12.05,5.658,20.144-36.21,10.811Z" transform="translate(-1325.21 -770.088)" fill="#f7f7f7"/>
            <path id="Trazado_134193" data-name="Trazado 134193" d="M1356.43,817.74s-33.472,19.128-40.394,20.94l-1.911,45.034h56.913Z" transform="translate(-1314.125 -807.985)" fill="#aed3f2"/>
            <path id="Trazado_134194" data-name="Trazado 134194" d="M1347.67,852.745a1.855,1.855,0,1,1-1.318-2.269A1.855,1.855,0,0,1,1347.67,852.745Z" transform="translate(-1337.901 -833.969)" fill="#292949"/>
          </g>
          <path id="Trazado_134195" data-name="Trazado 134195" d="M1246.534,628.62l-4.341-6.846-6.284-5.852s-1.221-3.528,2.716-3.625,6.588,3.195,8.331,5.807a42.954,42.954,0,0,0,7.347,6.54c3.762,2.677-.168,14.462-.168,14.462S1246.97,629.273,1246.534,628.62Z" transform="translate(-1154.723 -532.459)" fill="#eac5b0"/>
        </g>
      </g>
    </g>
  </g>
</svg>
