<svg xmlns="http://www.w3.org/2000/svg" width="87" height="87" viewBox="0 0 87 87">
  <g id="Grupo_71158" data-name="Grupo 71158" transform="translate(-414 -6212)">
    <circle id="Elipse_497" data-name="Elipse 497" cx="43.5" cy="43.5" r="43.5" transform="translate(414 6212)" fill="#d9a171"/>
    <path id="Trazado_1178" data-name="Trazado 1178" d="M39.037,0A39.037,39.037,0,1,1,0,39.037,39.037,39.037,0,0,1,39.037,0Z" transform="translate(419.061 6216.577)" fill="#fff"/>
    <g id="Grupo_71157" data-name="Grupo 71157" transform="translate(47.555 6106.642)">
      <path id="Trazado_143396" data-name="Trazado 143396" d="M431.383,339.228h1.509v1.5h-24.5c0,.73,0,1.411,0,2.091a2.316,2.316,0,0,1-2.534,2.524q-8.189,0-16.377,0a2.323,2.323,0,0,1-2.545-2.561q0-8.62-.007-17.239a2.715,2.715,0,0,1,.843-2.053q2.471-2.439,4.911-4.909a2.665,2.665,0,0,1,2.01-.83c3.623.014,7.248.064,10.87-.018a2.518,2.518,0,0,1,2.805,3.053h-1.486c-.007-.147-.02-.3-.022-.454-.008-.808-.243-1.041-1.067-1.042H394.6c0,1.187,0,2.331,0,3.476a2.349,2.349,0,0,1-2.644,2.655q-1.676,0-3.352.008a.581.581,0,0,0-.134.053v.492q0,8.356,0,16.713c0,.912.214,1.125,1.126,1.125h16.138c.912,0,1.126-.214,1.127-1.126,0-.621,0-1.243,0-1.894-.466-.067-.846-.163-1.145.4a2.183,2.183,0,0,1-2.565.988,2.292,2.292,0,0,1,.07-4.422,2.234,2.234,0,0,1,2.542,1.059.665.665,0,0,0,.7.4c1.642-.02,3.285-.009,5-.009v-.527c0-1.293,0-2.586,0-3.879,0-.689.268-.955.956-.957,1.194,0,2.388,0,3.641,0v-3.033c0-1.515.049-1.564,1.548-1.565q1.46,0,2.921-.009c.028,0,.055-.023.13-.055,0-1.125,0-2.27,0-3.415,0-.908.213-1.118,1.132-1.118h3.465v-.479c0-1.085-.006-2.171,0-3.256a.767.767,0,0,1,.858-.86q2.2-.012,4.406,0c.612,0,.863.306.863,1q0,8.38,0,16.761Zm-4.563-17.614V339.2h3V321.614Zm-4.6,4.588v12.984h3V326.2Zm-1.582,4.622h-3.007v8.37h3.007Zm-4.6,8.375v-3.783h-3.009V339.2Zm-22.968-18.674-3.357,3.36c.874,0,1.777.025,2.677-.011a.689.689,0,0,0,.675-.738C393.076,322.262,393.064,321.388,393.064,320.525Zm10.74,18.7a.764.764,0,1,0,.754.761A.772.772,0,0,0,403.8,339.221Z" transform="translate(0 -173.753)" fill="#344154"/>
      <path id="Trazado_143397" data-name="Trazado 143397" d="M548.54,144.4l-3.033,3.04c-.507.508-1.01,1.022-1.525,1.523-1.48,1.439-.784,1.141-2.854,1.171-.8.012-1.6,0-2.445,0V163.9h-1.539V150.142c-.536,0-1.041-.023-1.541.017-.114.009-.231.223-.313.362a2.3,2.3,0,1,1-2.838-3.282,2.258,2.258,0,0,1,2.84,1.016.565.565,0,0,0,.578.359c1.979-.016,3.959,0,5.938-.016a.851.851,0,0,0,.547-.19c1.592-1.568,3.168-3.153,4.747-4.734a1.163,1.163,0,0,0,.1-.141,9.933,9.933,0,0,1-3.934-7.941A9.706,9.706,0,0,1,545.8,128.9a9.992,9.992,0,1,1,2.738,15.5Zm3.914-17.16c-3.04-.087-6.411,2.707-7.353,6.059a8.465,8.465,0,0,0,3.958,9.606,8.254,8.254,0,0,0,9.12-.6c-1.759-1.979-3.51-3.965-5.282-5.932a1.648,1.648,0,0,1-.452-1.2c.018-2.473.008-4.945.008-7.418Zm1.551,7.54h7.575A8.272,8.272,0,0,0,554,127.245Zm5.353,6.545c1.314-1.375,2.313-3.677,2.18-4.941h-6.573Zm-25.3,8.042a.763.763,0,1,0-.751.765A.771.771,0,0,0,534.058,149.371Z" transform="translate(-130.266)" fill="#344154"/>
      <path id="Trazado_143398" data-name="Trazado 143398" d="M404.289,172.328c1.167-1,2.311-1.967,3.432-2.961a.655.655,0,0,0,.087-.529,2.313,2.313,0,0,1,1.183-2.583,2.3,2.3,0,0,1,3,3.247,2.219,2.219,0,0,1-2.523,1,.88.88,0,0,0-.967.221c-1.171,1.036-2.372,2.037-3.549,3.066a1.5,1.5,0,0,0-.378.575,2.266,2.266,0,0,1-1.98,1.579,2.165,2.165,0,0,1-2.223-1.187.529.529,0,0,0-.545-.334q-1.292.026-2.584,0a.491.491,0,0,0-.51.31,2.217,2.217,0,0,1-2.676,1.117.524.524,0,0,0-.617.167c-.555.573-1.115,1.142-1.694,1.69a.635.635,0,0,0-.193.742,2.119,2.119,0,0,1-.764,2.352,2.142,2.142,0,0,1-2.464.27,2.189,2.189,0,0,1-1.267-2.136,2.265,2.265,0,0,1,2.878-2.11.636.636,0,0,0,.74-.2c.562-.588,1.157-1.145,1.711-1.74a.651.651,0,0,0,.126-.521,2.31,2.31,0,0,1,4.255-1.751.649.649,0,0,0,.463.271c.877.026,1.755.021,2.632,0a.572.572,0,0,0,.418-.19C401.324,171.058,402.874,170.9,404.289,172.328Zm6.518-4.044a.763.763,0,1,0-.74.774A.768.768,0,0,0,410.807,168.283Zm-16.852,5.339a.763.763,0,1,0,.788-.726A.771.771,0,0,0,393.956,173.622Zm8.435-.726a.763.763,0,1,0,.754.76A.769.769,0,0,0,402.39,172.9Zm-13.04,5.364a.763.763,0,1,0,.767.747A.768.768,0,0,0,389.35,178.26Z" transform="translate(-0.118 -36.547)" fill="#344154"/>
      <path id="Trazado_143399" data-name="Trazado 143399" d="M484.544,454.35v1.474h-9.135V454.35Z" transform="translate(-80.004 -297.281)" fill="#344154"/>
      <path id="Trazado_143400" data-name="Trazado 143400" d="M427.22,495.74v-1.473h7.6v1.473Z" transform="translate(-36.431 -333.374)" fill="#344154"/>
      <path id="Trazado_143402" data-name="Trazado 143402" d="M527.87,494.272v1.472h-4.544v-1.472Z" transform="translate(-123.331 -333.378)" fill="#344154"/>
      <path id="Trazado_143405" data-name="Trazado 143405" d="M430.353,455.78h-3.007V454.3h3.007Z" transform="translate(-36.545 -297.231)" fill="#344154"/>
      <path id="Trazado_143406" data-name="Trazado 143406" d="M427.391,534.185h3v1.491h-3Z" transform="translate(-36.585 -369.468)" fill="#344154"/>
      <path id="Trazado_143409" data-name="Trazado 143409" d="M419.279,346.845c0,.863.012,1.737-.005,2.611a.689.689,0,0,1-.675.738c-.9.036-1.8.011-2.677.011Z" transform="translate(-26.215 -200.073)" fill="#fff"/>
      <path id="Trazado_143410" data-name="Trazado 143410" d="M555.8,542.02a.764.764,0,1,1-.772.742A.771.771,0,0,1,555.8,542.02Z" transform="translate(-151.995 -376.553)" fill="#d9a171"/>
      <path id="Trazado_143411" data-name="Trazado 143411" d="M548.552,366.782a.763.763,0,1,1-.752-.762A.773.773,0,0,1,548.552,366.782Z" transform="translate(-144.76 -217.412)" fill="#fff"/>
      <path id="Trazado_143412" data-name="Trazado 143412" d="M620.555,182.787a.763.763,0,1,1-.762-.751A.771.771,0,0,1,620.555,182.787Z" transform="translate(-209.866 -51.051)" fill="#d9a171"/>
      <path id="Trazado_143413" data-name="Trazado 143413" d="M459.029,238.757a.763.763,0,1,1,.714.8A.771.771,0,0,1,459.029,238.757Z" transform="translate(-65.192 -101.683)" fill="#d9a171"/>
      <path id="Trazado_143414" data-name="Trazado 143414" d="M539.807,238.036a.763.763,0,1,1-.772.742A.768.768,0,0,1,539.807,238.036Z" transform="translate(-137.535 -101.687)" fill="#d9a171"/>
      <path id="Trazado_143415" data-name="Trazado 143415" d="M403.8,294.036a.763.763,0,1,1-.759.755A.768.768,0,0,1,403.8,294.036Z" transform="translate(-14.565 -152.323)" fill="#d9a171"/>
    </g>
  </g>
</svg>
