<svg xmlns="http://www.w3.org/2000/svg" width="400" height="779.77" viewBox="0 0 400 779.77">
  <g id="Grupo_70353" data-name="Grupo 70353" transform="translate(-180 -6328)">
    <path id="Trazado_141471" data-name="Trazado 141471" d="M372.28,761.088h0c13.133-29.123,40.174-47.552,69.776-47.552H492.37a72.379,72.379,0,0,0,36.448-9.944l113.749-66.154V204.847h-400v616h.634l72.272-13.4C340.082,802.883,361.207,785.643,372.28,761.088Z" transform="translate(-62.567 6123.153)" fill="#f6f6f6"/>
    <g id="Grupo_70351" data-name="Grupo 70351" transform="translate(180 6328)">
      <g id="Grupo_70347" data-name="Grupo 70347">
        <g id="Grupo_70200" data-name="Grupo 70200">
          <g id="Grupo_67715" data-name="Grupo 67715">
            <rect id="Rectángulo_31331" data-name="Rectángulo 31331" width="400" height="779.77" fill="none"/>
          </g>
        </g>
        <g id="Grupo_70335" data-name="Grupo 70335" transform="translate(8.23 58.25)">
          <rect id="Rectángulo_8738" data-name="Rectángulo 8738" width="9.944" height="49.461" transform="translate(120.053 17.205) rotate(-0.573)" fill="#e0e0e0"/>
          <rect id="Rectángulo_8739" data-name="Rectángulo 8739" width="25.741" height="27.308" transform="matrix(1, -0.01, 0.01, 1, 33.905, 19.2)" fill="#ebebeb"/>
          <rect id="Rectángulo_8740" data-name="Rectángulo 8740" width="25.741" height="27.308" transform="matrix(1, -0.005, 0.005, 1, 59.146, 21.082)" fill="#f5f5f5"/>
          <path id="Trazado_109321" data-name="Trazado 109321" d="M850.335,112.388c17.1.139,34.257,0,51.377-.235a.3.3,0,0,0,.226-.331.279.279,0,0,0-.226-.218q-25.671-.157-51.377.313a.235.235,0,0,0-.235.235A.244.244,0,0,0,850.335,112.388Z" transform="translate(-816.783 -83.599)" fill="#e0e0e0"/>
          <rect id="Rectángulo_8741" data-name="Rectángulo 8741" width="46.77" height="22.258" transform="translate(18.014 44.864) rotate(-0.573)" fill="#ebebeb"/>
          <rect id="Rectángulo_8742" data-name="Rectángulo 8742" width="46.77" height="22.249" transform="matrix(1, -0.005, 0.005, 1, 64.019, 47.928)" fill="#f5f5f5"/>
          <path id="Trazado_109322" data-name="Trazado 109322" d="M831.875,141.757c31.07.348,62.244,0,93.314-.462a.3.3,0,0,0,.226-.331.279.279,0,0,0-.226-.218c-31.07-.165-62.253-.148-93.314.54a.235.235,0,0,0-.235.235.244.244,0,0,0,.235.235Z" transform="translate(-814.398 -87.358)" fill="#e0e0e0"/>
          <rect id="Rectángulo_8743" data-name="Rectángulo 8743" width="181.195" height="7.976" transform="translate(0 70.465)" fill="#e0e0e0"/>
          <rect id="Rectángulo_8744" data-name="Rectángulo 8744" width="7.358" height="27.204" transform="translate(29.668 74.297)" fill="#e0e0e0"/>
          <rect id="Rectángulo_8745" data-name="Rectángulo 8745" width="7.358" height="27.204" transform="translate(139.476 74.297)" fill="#e0e0e0"/>
          <rect id="Rectángulo_8746" data-name="Rectángulo 8746" width="9.944" height="68.027" transform="matrix(1, -0.01, 0.01, 1, 129.638, 0.099)" fill="#ebebeb"/>
          <rect id="Rectángulo_8747" data-name="Rectángulo 8747" width="15.448" height="55.13" transform="matrix(1, -0.005, 0.005, 1, 139.366, 15.249)" fill="#f5f5f5"/>
          <path id="Trazado_109323" data-name="Trazado 109323" d="M987.2,109.06a114.317,114.317,0,0,1-15.448,0,110.636,110.636,0,0,1,15.448,0Z" transform="translate(-832.501 -83.24)" fill="#e0e0e0"/>
          <path id="Trazado_109324" data-name="Trazado 109324" d="M987.2,106.4a110.639,110.639,0,0,1-15.448,0,110.639,110.639,0,0,1,15.448,0Z" transform="translate(-832.501 -82.896)" fill="#e0e0e0"/>
          <path id="Trazado_109325" data-name="Trazado 109325" d="M987.2,150.641a110.639,110.639,0,0,1-15.448,0,114.314,114.314,0,0,1,15.448,0Z" transform="translate(-832.501 -88.614)" fill="#e0e0e0"/>
          <path id="Trazado_109326" data-name="Trazado 109326" d="M987.2,147.961a110.639,110.639,0,0,1-15.448,0A114.319,114.319,0,0,1,987.2,147.961Z" transform="translate(-832.501 -88.268)" fill="#e0e0e0"/>
          <path id="Trazado_109327" data-name="Trazado 109327" d="M980.87,138.494c-.148,0-.27-5.564-.27-12.418s.122-12.426.27-12.426.261,5.564.261,12.426S981.018,138.494,980.87,138.494Z" transform="translate(-833.645 -83.868)" fill="#e0e0e0"/>
          <rect id="Rectángulo_8748" data-name="Rectángulo 8748" width="16.815" height="41.615" transform="translate(154.862 28.737)" fill="#ebebeb"/>
          <path id="Trazado_109328" data-name="Trazado 109328" d="M968.332,95.276a2.856,2.856,0,1,1-2.856-2.856h0a2.848,2.848,0,0,1,2.856,2.856Z" transform="translate(-831.321 -81.125)" fill="#e0e0e0"/>
          <rect id="Rectángulo_8749" data-name="Rectángulo 8749" width="1.768" height="40.466" transform="translate(133.267 22.006)" fill="#e0e0e0"/>
        </g>
        <g id="Grupo_58056" data-name="Grupo 58056" transform="translate(136.84 23)" opacity="0.517">
          <g id="Grupo_58054" data-name="Grupo 58054" transform="translate(132.546 63.55)">
            <path id="Trazado_108153" data-name="Trazado 108153" d="M118.652,192.38l56.508.78c-.435,30.114-25.806,54.642-56.508,54.642h-.332Z" transform="translate(-118.32 -192.38)" fill="#5e6178"/>
            <path id="Trazado_108154" data-name="Trazado 108154" d="M207.737,261.6a5.5,5.5,0,0,1-1.2.1l-3.464.089-12.615.141h-.192l-.1-.128L171.552,238.3l-15.018-19.172.281.141-16.616-.153-4.64-.1a9.333,9.333,0,0,1-1.649-.115,9.33,9.33,0,0,1,1.649-.115l4.64-.1,16.616-.153h.217l.115.141,15.121,19.083,18.482,23.608-.256-.128,12.616.141,3.464.1A6.252,6.252,0,0,1,207.737,261.6Z" transform="translate(-113.983 -185.106)" fill="#344154"/>
            <path id="Trazado_108155" data-name="Trazado 108155" d="M215.488,257.425c0,.23-8.18.435-18.278.435s-18.291-.2-18.291-.435,8.193-.435,18.291-.435S215.488,257.182,215.488,257.425Z" transform="translate(-101.463 -174.408)" fill="#344154"/>
            <path id="Trazado_108156" data-name="Trazado 108156" d="M215.488,262.712c0,.243-8.18.435-18.278.435s-18.291-.192-18.291-.435,8.193-.422,18.291-.422S215.488,262.482,215.488,262.712Z" transform="translate(-101.463 -172.934)" fill="#344154"/>
          </g>
          <g id="Grupo_58055" data-name="Grupo 58055">
            <path id="Trazado_108157" data-name="Trazado 108157" d="M123.879,198.154l-.754,55.421c-30.676-.422-55.715-25.308-55.715-55.421,0-30.408,25.563-55.434,56.508-55.434s56.508,25.026,56.508,55.434Z" transform="translate(0.064 -142.643)" fill="#d9a171"/>
            <path id="Trazado_108158" data-name="Trazado 108158" d="M105.432,179.434a3.566,3.566,0,0,1-.984.23l-2.8.447-10.225,1.419h-.166l-.115-.115L77.657,168.263c-6.493-6.391-12.347-12.181-16.552-16.424l-4.959-5.049a15.517,15.517,0,0,1-1.726-1.93,15.771,15.771,0,0,1,2.019,1.687l5.113,4.857c4.32,4.128,10.225,9.867,16.744,16.245l13.421,13.28-.281-.1,10.225-1.125,2.825-.256A3.834,3.834,0,0,1,105.432,179.434Z" transform="translate(-3.549 -142.048)" fill="#344154"/>
            <path id="Trazado_108159" data-name="Trazado 108159" d="M51.176,143.095c0,.243-8.18.435-18.278.435s-18.278-.192-18.278-.435,8.18-.435,18.278-.435S51.176,142.788,51.176,143.095Z" transform="translate(-14.62 -142.66)" fill="#344154"/>
            <path id="Trazado_108160" data-name="Trazado 108160" d="M51.176,148.345c0,.23-8.18.435-18.278.435s-18.278-.2-18.278-.435,8.18-.435,18.278-.435S51.176,148.1,51.176,148.345Z" transform="translate(-14.62 -141.2)" fill="#344154"/>
          </g>
        </g>
        <g id="Grupo_70342" data-name="Grupo 70342" transform="translate(28.434 366.832)">
          <rect id="Rectángulo_8579" data-name="Rectángulo 8579" width="8.618" height="96.293" transform="translate(4.075 0)" fill="#d9a171"/>
          <rect id="Rectángulo_8580" data-name="Rectángulo 8580" width="8.618" height="63.585" transform="translate(20.73 32.708)" fill="#d9a171"/>
          <rect id="Rectángulo_8581" data-name="Rectángulo 8581" width="8.618" height="84.806" transform="translate(37.374 11.967)" fill="#d9a171"/>
          <rect id="Rectángulo_8582" data-name="Rectángulo 8582" width="8.618" height="92.564" transform="translate(54.018 3.717)" fill="#d9a171"/>
          <rect id="Rectángulo_8583" data-name="Rectángulo 8583" width="8.618" height="61.631" transform="translate(70.662 34.661)" fill="#d9a171"/>
          <rect id="Rectángulo_8584" data-name="Rectángulo 8584" width="8.618" height="49.542" transform="translate(87.306 46.751)" fill="#d9a171"/>
          <rect id="Rectángulo_8585" data-name="Rectángulo 8585" width="8.618" height="86.402" transform="translate(103.951 9.879)" fill="#d9a171"/>
          <rect id="Rectángulo_8586" data-name="Rectángulo 8586" width="8.618" height="70.83" transform="translate(120.595 25.463)" fill="#d9a171"/>
          <rect id="Rectángulo_8587" data-name="Rectángulo 8587" width="8.618" height="83.277" transform="translate(137.239 13.016)" fill="#d9a171"/>
          <rect id="Rectángulo_8588" data-name="Rectángulo 8588" width="8.618" height="56.731" transform="translate(153.883 39.551)" fill="#d9a171"/>
          <rect id="Rectángulo_8589" data-name="Rectángulo 8589" width="8.618" height="67.526" transform="translate(170.527 28.756)" fill="#d9a171"/>
          <path id="Trazado_108171" data-name="Trazado 108171" d="M419.763,276.036c0,.2-40.9.357-91.336.357s-91.336-.156-91.336-.357,40.89-.346,91.336-.346S419.763,275.846,419.763,276.036Z" transform="translate(-237.09 -173.045)" fill="#344154"/>
          <path id="Trazado_108172" data-name="Trazado 108172" d="M253.093,282.826c0,.2-2.858.357-6.4.357s-6.4-.156-6.4-.357,2.858-.346,6.4-.346S253.093,282.636,253.093,282.826Z" transform="translate(-236.717 -172.256)" fill="#344154"/>
          <path id="Trazado_108173" data-name="Trazado 108173" d="M272.363,283.177c0,.19-3.416.357-7.647.357s-7.647-.167-7.647-.357,3.427-.357,7.647-.357A46.018,46.018,0,0,1,272.363,283.177Z" transform="translate(-234.766 -172.216)" fill="#344154"/>
          <path id="Trazado_108174" data-name="Trazado 108174" d="M288.593,283.177c0,.19-3.427.357-7.647.357s-7.647-.167-7.647-.357,3.427-.357,7.647-.357A46.015,46.015,0,0,1,288.593,283.177Z" transform="translate(-232.878 -172.216)" fill="#344154"/>
          <path id="Trazado_108175" data-name="Trazado 108175" d="M304.8,283.177c0,.19-3.427.357-7.647.357s-7.647-.167-7.647-.357,3.416-.357,7.647-.357A45.9,45.9,0,0,1,304.8,283.177Z" transform="translate(-230.993 -172.216)" fill="#344154"/>
          <path id="Trazado_108176" data-name="Trazado 108176" d="M321.013,283.177c0,.19-3.416.357-7.647.357s-7.647-.167-7.647-.357,3.427-.357,7.647-.357A46.018,46.018,0,0,1,321.013,283.177Z" transform="translate(-229.108 -172.216)" fill="#344154"/>
          <path id="Trazado_108177" data-name="Trazado 108177" d="M337.233,283.177c0,.19-3.427.357-7.647.357s-7.647-.167-7.647-.357,3.427-.357,7.647-.357A46.016,46.016,0,0,1,337.233,283.177Z" transform="translate(-227.221 -172.216)" fill="#344154"/>
          <path id="Trazado_108178" data-name="Trazado 108178" d="M353.453,283.177c0,.19-3.427.357-7.647.357s-7.647-.167-7.647-.357,3.416-.357,7.647-.357A45.9,45.9,0,0,1,353.453,283.177Z" transform="translate(-225.335 -172.216)" fill="#344154"/>
          <path id="Trazado_108179" data-name="Trazado 108179" d="M369.663,283.177c0,.19-3.427.357-7.647.357s-7.647-.167-7.647-.357,3.427-.357,7.647-.357A46.016,46.016,0,0,1,369.663,283.177Z" transform="translate(-223.449 -172.216)" fill="#344154"/>
          <path id="Trazado_108180" data-name="Trazado 108180" d="M385.883,283.177c0,.19-3.427.357-7.647.357s-7.647-.167-7.647-.357,3.416-.357,7.647-.357A45.9,45.9,0,0,1,385.883,283.177Z" transform="translate(-221.563 -172.216)" fill="#344154"/>
          <path id="Trazado_108181" data-name="Trazado 108181" d="M402.093,283.177c0,.19-3.416.357-7.647.357s-7.647-.167-7.647-.357,3.427-.357,7.647-.357A46.015,46.015,0,0,1,402.093,283.177Z" transform="translate(-219.677 -172.216)" fill="#344154"/>
          <g id="Grupo_58062" data-name="Grupo 58062" transform="translate(20.73 32.708)" opacity="0.3">
            <rect id="Rectángulo_8590" data-name="Rectángulo 8590" width="8.618" height="63.585" fill="#fff"/>
          </g>
          <g id="Grupo_58063" data-name="Grupo 58063" transform="translate(54.018 3.717)" opacity="0.3">
            <rect id="Rectángulo_8591" data-name="Rectángulo 8591" width="8.618" height="92.564" fill="#fff"/>
          </g>
          <g id="Grupo_58064" data-name="Grupo 58064" transform="translate(87.306 46.751)" opacity="0.3">
            <rect id="Rectángulo_8592" data-name="Rectángulo 8592" width="8.618" height="49.542" fill="#fff"/>
          </g>
          <g id="Grupo_58065" data-name="Grupo 58065" transform="translate(120.595 25.463)" opacity="0.3">
            <rect id="Rectángulo_8593" data-name="Rectángulo 8593" width="8.618" height="70.83" fill="#fff"/>
          </g>
          <g id="Grupo_58066" data-name="Grupo 58066" transform="translate(153.883 39.551)" opacity="0.3">
            <rect id="Rectángulo_8594" data-name="Rectángulo 8594" width="8.618" height="56.731" fill="#fff"/>
          </g>
        </g>
        <g id="Grupo_70346" data-name="Grupo 70346" transform="translate(231.755 694.463)">
          <g id="Grupo_70336" data-name="Grupo 70336" transform="translate(0 0)">
            <path id="Trazado_109272" data-name="Trazado 109272" d="M907.052,340.352s-13.54,10.311-.569,23.943a1.183,1.183,0,0,0,.853.358l118.341-.67s10.091-11.329,1.715-24.384Z" transform="translate(-879.797 -339.252)" fill="#ebebeb"/>
            <path id="Trazado_109273" data-name="Trazado 109273" d="M1002.444,352.159c0,.128-14.733.239-32.9.239s-32.9-.11-32.9-.239,14.678-.239,32.9-.239S1002.444,351.993,1002.444,352.159Z" transform="translate(-882.755 -340.27)" fill="#e0e0e0"/>
            <path id="Trazado_109274" data-name="Trazado 109274" d="M985.524,356.8c0,.128-6.917.238-15.467.238s-15.467-.11-15.467-.238,6.926-.239,15.467-.239S985.524,356.67,985.524,356.8Z" transform="translate(-884.237 -340.653)" fill="#e0e0e0"/>
            <path id="Trazado_109275" data-name="Trazado 109275" d="M1021.529,363.558c-.073,0,.266-1.358.633-3.55a49.22,49.22,0,0,0-.165-17.246c-.4-2.183-.771-3.514-.7-3.541a3.575,3.575,0,0,1,.349.917c.193.587.431,1.468.679,2.559a42,42,0,0,1,.165,17.375c-.229,1.092-.449,1.972-.633,2.569A4.218,4.218,0,0,1,1021.529,363.558Z" transform="translate(-889.749 -339.22)" fill="#e0e0e0"/>
            <path id="Trazado_109276" data-name="Trazado 109276" d="M1031.179,339.42a4.323,4.323,0,0,1,.523.862,8.756,8.756,0,0,1,.532,1.055c.183.422.413.917.6,1.449a24.3,24.3,0,0,1,1.128,3.926,27.379,27.379,0,0,1,.514,4.972,28.521,28.521,0,0,1-.431,4.99,25.569,25.569,0,0,1-1.064,3.945c-.174.55-.4,1.027-.578,1.449a9.61,9.61,0,0,1-.514,1.073,3.759,3.759,0,0,1-.514.862c-.083,0,.578-1.312,1.284-3.5a30.182,30.182,0,0,0,.917-3.908,28.44,28.44,0,0,0-.083-9.807,27.966,27.966,0,0,0-1.009-3.9C1031.776,340.723,1031.1,339.457,1031.179,339.42Z" transform="translate(-890.565 -339.237)" fill="#e0e0e0"/>
            <path id="Trazado_109277" data-name="Trazado 109277" d="M927.608,363.835a3.584,3.584,0,0,1-.55-.789,7.519,7.519,0,0,1-.55-.991,12.987,12.987,0,0,1-.633-1.358,20.682,20.682,0,0,1-1.156-3.734,23.715,23.715,0,0,1-.459-4.761,24.318,24.318,0,0,1,.587-4.752,20.373,20.373,0,0,1,1.257-3.67,10.242,10.242,0,0,1,.67-1.349,6.459,6.459,0,0,1,.578-.972,3.667,3.667,0,0,1,.569-.771c.083,0-.679,1.193-1.5,3.22a22.07,22.07,0,0,0-1.138,3.669,22.852,22.852,0,0,0,.917,13C927,362.624,927.691,363.789,927.608,363.835Z" transform="translate(-881.731 -339.342)" fill="#e0e0e0"/>
            <path id="Trazado_109278" data-name="Trazado 109278" d="M913.642,366.7a4.962,4.962,0,0,1-.605-.917,11.023,11.023,0,0,1-.624-1.11c-.211-.449-.486-.917-.716-1.523a26.2,26.2,0,0,1-1.587-14.88,24.868,24.868,0,0,1,1.165-4.229c.2-.6.449-1.1.651-1.56a10.091,10.091,0,0,1,.569-1.138,3.931,3.931,0,0,1,.569-.917c.083,0-.679,1.385-1.468,3.725a27.532,27.532,0,0,0-1.055,4.192,29.846,29.846,0,0,0-.385,5.275,30.8,30.8,0,0,0,.624,5.257,28.668,28.668,0,0,0,1.229,4.147C912.936,365.346,913.753,366.639,913.642,366.7Z" transform="translate(-880.526 -339.32)" fill="#e0e0e0"/>
            <path id="Trazado_109279" data-name="Trazado 109279" d="M1028.194,405.43v22.641h-43.8V405.43Z" transform="translate(-886.7 -344.691)" fill="#ebebeb"/>
            <path id="Trazado_109280" data-name="Trazado 109280" d="M877.909,416.745v.6a12.981,12.981,0,0,0,13.027,12.146h130.45v-1.633H990.47a11.32,11.32,0,0,1-11.32-11.32h0a11.311,11.311,0,0,1,11.32-11.32h30.961v-2.4l-130.486.44A13.045,13.045,0,0,0,877.9,416.314C877.9,416.451,877.9,416.6,877.909,416.745Z" transform="translate(-877.9 -344.475)" fill="#e0e0e0"/>
            <path id="Trazado_109281" data-name="Trazado 109281" d="M1028.517,418.079c0,.128-9.009.239-20.118.239s-20.109-.11-20.109-.239,9-.239,20.109-.239S1028.517,417.987,1028.517,418.079Z" transform="translate(-887.022 -345.717)" fill="#e0e0e0"/>
            <path id="Trazado_109282" data-name="Trazado 109282" d="M1028.025,423.639c0,.128-8.523.239-19.035.239s-18.99-.11-18.99-.239,8.522-.238,19.035-.238S1028.025,423.51,1028.025,423.639Z" transform="translate(-887.163 -346.176)" fill="#e0e0e0"/>
            <path id="Trazado_109283" data-name="Trazado 109283" d="M1029.057,428.728c0,.128-7.66.239-17.109.239s-17.118-.11-17.118-.239,7.66-.248,17.118-.248S1029.057,428.59,1029.057,428.728Z" transform="translate(-887.562 -346.596)" fill="#e0e0e0"/>
            <path id="Trazado_109284" data-name="Trazado 109284" d="M1028.59,413.079c0,.138-8.825.238-19.7.238s-19.705-.1-19.705-.238,8.825-.239,19.705-.239S1028.59,412.987,1028.59,413.079Z" transform="translate(-887.095 -345.304)" fill="#e0e0e0"/>
            <path id="Trazado_109285" data-name="Trazado 109285" d="M1028.29,408.089c0,.128-7.853.239-17.54.239s-17.54-.11-17.54-.239,7.853-.238,17.54-.238S1028.29,407.988,1028.29,408.089Z" transform="translate(-887.429 -344.891)" fill="#e0e0e0"/>
            <path id="Trazado_109286" data-name="Trazado 109286" d="M894.6,403.71A28.594,28.594,0,0,0,891.851,407a16.714,16.714,0,0,0,.229,19.393,30.6,30.6,0,0,0,2.844,3.229,4.525,4.525,0,0,1-.917-.688,15.493,15.493,0,0,1-2.183-2.339,16.513,16.513,0,0,1-.229-19.788,14.55,14.55,0,0,1,2.119-2.385,3.723,3.723,0,0,1,.89-.716Z" transform="translate(-878.769 -344.549)" fill="#f5f5f5"/>
            <path id="Trazado_109287" data-name="Trazado 109287" d="M889.793,403.18a28.6,28.6,0,0,0-2.752,3.293,16.8,16.8,0,0,0,.229,19.4,30.7,30.7,0,0,0,2.853,3.229,5.251,5.251,0,0,1-.917-.7,15.492,15.492,0,0,1-2.183-2.339,16.513,16.513,0,0,1-.229-19.788,14.99,14.99,0,0,1,2.119-2.385,4.128,4.128,0,0,1,.881-.716Z" transform="translate(-878.372 -344.505)" fill="#f5f5f5"/>
            <path id="Trazado_109288" data-name="Trazado 109288" d="M986.444,403.71A28.584,28.584,0,0,0,983.692,407a16.778,16.778,0,0,0,.229,19.393,30.7,30.7,0,0,0,2.853,3.229,4.286,4.286,0,0,1-.917-.688,14.971,14.971,0,0,1-2.174-2.339,16.513,16.513,0,0,1-.239-19.788,13.842,13.842,0,0,1,2.129-2.385A3.811,3.811,0,0,1,986.444,403.71Z" transform="translate(-886.359 -344.549)" fill="#f5f5f5"/>
            <path id="Trazado_109289" data-name="Trazado 109289" d="M981.614,403.18a28.621,28.621,0,0,0-2.752,3.293,16.8,16.8,0,0,0,.229,19.4,30.689,30.689,0,0,0,2.853,3.229,5.256,5.256,0,0,1-.917-.7,14.6,14.6,0,0,1-2.174-2.339,16.513,16.513,0,0,1-.238-19.788,14.6,14.6,0,0,1,2.128-2.385,3.816,3.816,0,0,1,.871-.716Z" transform="translate(-885.96 -344.505)" fill="#f5f5f5"/>
            <path id="Trazado_109290" data-name="Trazado 109290" d="M910.72,420.284l-.119-9.174a6.706,6.706,0,0,0-.321-2.376,2.257,2.257,0,0,0-1.752-1.477c-1.156-.5-2.954.45-3.752,1.78a8.642,8.642,0,0,0-.917,4.513,64.11,64.11,0,0,0,.358,7.266,8.259,8.259,0,0,0,.853,3.33,3.128,3.128,0,0,0,2.807,1.688,3.183,3.183,0,0,0,2.45-2.147,9.3,9.3,0,0,0,.394-3.4Z" transform="translate(-880.044 -344.831)" fill="#f5f5f5"/>
            <path id="Trazado_109291" data-name="Trazado 109291" d="M962.769,418.559c0,.138-9.431.239-21.1.239s-21.1-.1-21.1-.239,9.431-.239,21.1-.239S962.769,418.43,962.769,418.559Z" transform="translate(-881.426 -345.756)" fill="#f5f5f5"/>
            <path id="Trazado_109292" data-name="Trazado 109292" d="M901.8,400.787l-.248-21.457h11.687l.4,21.457Z" transform="translate(-879.854 -342.535)" fill="#f5f5f5"/>
            <path id="Trazado_109293" data-name="Trazado 109293" d="M912.553,383.468a63.055,63.055,0,0,1-10.853,0,61.252,61.252,0,0,1,10.853,0Z" transform="translate(-879.867 -342.857)" fill="#e0e0e0"/>
            <path id="Trazado_109294" data-name="Trazado 109294" d="M912.553,387.078a63.055,63.055,0,0,1-10.853,0,61.255,61.255,0,0,1,10.853,0Z" transform="translate(-879.867 -343.155)" fill="#e0e0e0"/>
            <path id="Trazado_109295" data-name="Trazado 109295" d="M912.553,390.688a63.052,63.052,0,0,1-10.853,0A61.255,61.255,0,0,1,912.553,390.688Z" transform="translate(-879.867 -343.453)" fill="#e0e0e0"/>
            <path id="Trazado_109296" data-name="Trazado 109296" d="M912.553,394.3a63.052,63.052,0,0,1-10.853,0,61.246,61.246,0,0,1,10.853,0Z" transform="translate(-879.867 -343.752)" fill="#e0e0e0"/>
            <path id="Trazado_109297" data-name="Trazado 109297" d="M912.553,397.908a63.052,63.052,0,0,1-10.853,0A61.257,61.257,0,0,1,912.553,397.908Z" transform="translate(-879.867 -344.05)" fill="#e0e0e0"/>
            <path id="Trazado_109298" data-name="Trazado 109298" d="M900.909,378.71h129.431c1.6,7.11,1.376,14.926,0,23.191H901.432v-1.578h7.88a3.67,3.67,0,0,0,3.67-3.624V383.811a3.67,3.67,0,0,0-3.67-3.724H900.9Z" transform="translate(-879.801 -342.483)" fill="#ebebeb"/>
            <path id="Trazado_109299" data-name="Trazado 109299" d="M933.962,390.961h2.156a.533.533,0,0,1,.239.055.422.422,0,0,1,.229.4v.119a2.206,2.206,0,0,1-.147.56,6.33,6.33,0,0,1-1.349,2.44,2.633,2.633,0,0,1-1.835.917H933a2.11,2.11,0,0,1-1.468-1.064,4.779,4.779,0,0,1-.651-2.6,6.511,6.511,0,0,1,.257-1.835,6.153,6.153,0,0,1,1.284-2.5,2.587,2.587,0,0,1,1.945-1.037,1.835,1.835,0,0,1,.816.183,2.652,2.652,0,0,1,1.266,1.578.916.916,0,0,1,0,.22.432.432,0,0,1-.064.229.459.459,0,0,1-.395.229h-.147a.431.431,0,0,1-.294-.294h0a2.443,2.443,0,0,0-.257-.514,1.22,1.22,0,0,0-1.037-.615,1.119,1.119,0,0,0-.716.257,3.743,3.743,0,0,0-1.174,1.7,5.967,5.967,0,0,0-.514,2.431,4.329,4.329,0,0,0,.367,1.917,1.257,1.257,0,0,0,1.128.844,1.541,1.541,0,0,0,1.046-.624,5.919,5.919,0,0,0,1.11-2.009h-1.55c-.339-.055-.514-.229-.514-.523a.229.229,0,0,1,0-.156A.468.468,0,0,1,933.962,390.961Z" transform="translate(-882.278 -343.12)" fill="#fafafa"/>
            <path id="Trazado_109300" data-name="Trazado 109300" d="M941.831,386.743l.055.156c.092.321.605,2.991,1.532,8.027v.11a.477.477,0,0,1-.449.477H942.9a.431.431,0,0,1-.376-.3l-.514-2.66h-2.66l-1.284,2.679v.083a.514.514,0,0,1-.4.229.459.459,0,0,1-.248-.073.477.477,0,0,1-.22-.394.347.347,0,0,1,0-.138c.073-.183.211-.477.395-.917q2.752-6.1,3.339-7.192a.477.477,0,0,1,.578-.367.468.468,0,0,1,.339.275Zm-.578,1.835-1.44,3.018h2.027Z" transform="translate(-882.799 -343.123)" fill="#fafafa"/>
            <path id="Trazado_109301" data-name="Trazado 109301" d="M949.729,395.518h-3.862a.459.459,0,0,1-.248-.073.7.7,0,0,1-.229-.5h0c0-.156.367-2.825,1.082-7.99a.5.5,0,0,1,0-.165.422.422,0,0,1,.422-.294.486.486,0,0,1,.22.055.431.431,0,0,1,.239.413c0,.358-.119,1.082-.266,2.193-.44,3.4-.679,5.211-.7,5.394h3.321a.569.569,0,0,1,.248,0,.44.44,0,0,1,.294.44v.147a.55.55,0,0,1-.523.376Z" transform="translate(-883.477 -343.127)" fill="#fafafa"/>
            <path id="Trazado_109302" data-name="Trazado 109302" d="M955.5,386.746l.055.156c.092.321.6,2.991,1.523,8.027a.221.221,0,0,1,0,.11.477.477,0,0,1-.45.477h-.073a.431.431,0,0,1-.358-.321l-.514-2.66h-2.66l-1.193,2.67a.381.381,0,0,1,0,.083.541.541,0,0,1-.394.229.6.6,0,0,1-.257-.073.468.468,0,0,1-.211-.394.346.346,0,0,1,0-.138l.394-.917c1.835-4.064,2.981-6.422,3.339-7.192a.449.449,0,0,1,.844-.055Zm-.587,1.835-1.431,3.018H955.5Z" transform="translate(-883.938 -343.125)" fill="#fafafa"/>
            <path id="Trazado_109303" data-name="Trazado 109303" d="M962.373,391.354l.706,1.954q.605,1.651.605,1.761a.477.477,0,0,1-.468.45h0a.431.431,0,0,1-.385-.312l-.073-.2q-.33-.725-1.046-2.752l-2.2,3.018a.578.578,0,0,1-.413.248.549.549,0,0,1-.248-.064.431.431,0,0,1-.22-.394v-.092a.917.917,0,0,1,.229-.376c.734-.972,1.56-2.11,2.459-3.422-.1-.257-.183-.5-.275-.734-.826-2.229-1.239-3.376-1.239-3.449a.534.534,0,0,1,.055-.238.385.385,0,0,1,.376-.229.468.468,0,0,1,.44.257l1.3,3.514,2.6-3.55a.514.514,0,0,1,.413-.22.422.422,0,0,1,.44.413v.028a.449.449,0,0,1,0,.22Z" transform="translate(-884.571 -343.129)" fill="#fafafa"/>
            <path id="Trazado_109304" data-name="Trazado 109304" d="M972.637,386.55a.421.421,0,0,1,.211.055.44.44,0,0,1,.248.395c-.633,5.045-.991,7.77-1.055,8.183a5.026,5.026,0,0,1-.835,2.128,3.027,3.027,0,0,1-3.835.917,2.752,2.752,0,0,1-1.376-1.174.522.522,0,0,1-.055-.229.4.4,0,0,1,.064-.229.44.44,0,0,1,.752-.046,2.514,2.514,0,0,0,2,1.137,2.009,2.009,0,0,0,1.55-.78,4.431,4.431,0,0,0,.862-2.459,2.626,2.626,0,0,1-.578.615,2.4,2.4,0,0,1-1.4.459h-.257a2.146,2.146,0,0,1-1.486-1.064,4.825,4.825,0,0,1-.642-2.605,11.676,11.676,0,0,1,.064-1.459c.073-.789.248-1.908.523-3.367a.3.3,0,0,1,0-.128.422.422,0,0,1,.523-.312.284.284,0,0,1,.119.055.413.413,0,0,1,.229.367c0,.239-.074.835-.211,1.78a22.93,22.93,0,0,0-.312,2.752,5.42,5.42,0,0,0,.349,2.119,1.239,1.239,0,0,0,1.156.917h.156a2.147,2.147,0,0,0,1.165-.917,6.279,6.279,0,0,0,.972-2.156l.587-4.449a.6.6,0,0,1,.055-.193A.422.422,0,0,1,972.637,386.55Z" transform="translate(-885.175 -343.131)" fill="#fafafa"/>
            <path id="Trazado_109305" data-name="Trazado 109305" d="M1036.668,402.172c-.128,0-.239-5.33-.239-11.926s.11-11.926.239-11.926.239,5.33.239,11.926S1036.8,402.172,1036.668,402.172Z" transform="translate(-891 -342.451)" fill="#f5f5f5"/>
            <path id="Trazado_109306" data-name="Trazado 109306" d="M921.2,402.172c-.138,0-.239-5.33-.239-11.926s.1-11.926.239-11.926.239,5.33.239,11.926S921.327,402.172,921.2,402.172Z" transform="translate(-881.458 -342.451)" fill="#e0e0e0"/>
            <path id="Trazado_109307" data-name="Trazado 109307" d="M1039.139,402.172c-.128,0-.239-5.33-.239-11.926s.11-11.926.239-11.926.248,5.33.248,11.926S1039.276,402.172,1039.139,402.172Z" transform="translate(-891.204 -342.451)" fill="#f5f5f5"/>
            <path id="Trazado_109308" data-name="Trazado 109308" d="M918.888,402.172c-.128,0-.239-5.33-.239-11.926s.11-11.926.239-11.926.239,5.33.239,11.926S919.017,402.172,918.888,402.172Z" transform="translate(-881.267 -342.451)" fill="#e0e0e0"/>
            <path id="Trazado_109309" data-name="Trazado 109309" d="M1001.2,382.65h0l13.687,11.008.119.1h-.156l-1.835.477-11.55,3.036h0l-10.476-4.44-2.963-1.266-.78-.339-.2-.092h0l.2.083.789.321,2.981,1.229,10.495,4.385h0l11.55-3.009,1.835-.477v.138l-13.66-11.082h0" transform="translate(-886.919 -342.809)" fill="#e0e0e0"/>
            <path id="Trazado_109310" data-name="Trazado 109310" d="M1015.929,392.77l.743.7,1-.211-.44.927.523.881-1.018-.128-.679.761-.193-1-.945-.413.9-.5Z" transform="translate(-889.222 -343.645)" fill="#e0e0e0"/>
            <path id="Trazado_109311" data-name="Trazado 109311" d="M1001.657,397.51l.514.422.633-.174-.248.615.367.55-.661-.046-.4.523-.165-.642-.624-.229.56-.358Z" transform="translate(-888.078 -344.037)" fill="#e0e0e0"/>
            <path id="Trazado_109312" data-name="Trazado 109312" d="M985.91,390.976l.807.046.5-.642.2.789.771.284-.688.431-.037.816-.624-.514-.78.22.294-.761Z" transform="translate(-886.825 -343.448)" fill="#e0e0e0"/>
            <path id="Trazado_109313" data-name="Trazado 109313" d="M1022.7,382.787l.816.055.5-.642.2.789.761.284-.688.431-.027.816-.624-.523-.789.229.3-.761Z" transform="translate(-889.865 -342.772)" fill="#e0e0e0"/>
            <path id="Trazado_109314" data-name="Trazado 109314" d="M1001.75,382.226l.523.037.312-.413.138.5.486.184-.44.275-.018.514-.4-.33-.5.147.193-.486Z" transform="translate(-888.134 -342.743)" fill="#e0e0e0"/>
            <path id="Trazado_109315" data-name="Trazado 109315" d="M1022.13,383.383c0,.055-4.431-.092-9.889-.321s-9.88-.468-9.871-.523,4.422.092,9.88.33S1022.13,383.337,1022.13,383.383Z" transform="translate(-888.185 -342.799)" fill="#e0e0e0"/>
            <path id="Trazado_109316" data-name="Trazado 109316" d="M1017.413,377.506H886.119c-1.715-3.9-2.137-7.605,0-10.926h131.294a12.733,12.733,0,0,1,0,10.926Z" transform="translate(-878.46 -341.481)" fill="#e0e0e0"/>
            <rect id="Rectángulo_8737" data-name="Rectángulo 8737" width="71.124" height="3.981" transform="translate(34.851 28.218)" fill="#ebebeb"/>
            <path id="Trazado_109317" data-name="Trazado 109317" d="M891.536,377.595a4.171,4.171,0,0,1-1.037-1.33,9.642,9.642,0,0,1-.688-7.9,3.668,3.668,0,0,1,.789-1.486,16.531,16.531,0,0,1-.468,1.587,10.834,10.834,0,0,0-.349,3.88,11.239,11.239,0,0,0,1.018,3.761A12.406,12.406,0,0,1,891.536,377.595Z" transform="translate(-878.84 -341.506)" fill="#e0e0e0"/>
            <path id="Trazado_109318" data-name="Trazado 109318" d="M894.635,377.595a4.172,4.172,0,0,1-1.037-1.33,9.605,9.605,0,0,1-.7-7.9,3.944,3.944,0,0,1,.789-1.486,12.528,12.528,0,0,1-.468,1.587,11.268,11.268,0,0,0-.349,3.88,10.779,10.779,0,0,0,1.028,3.761,12.4,12.4,0,0,1,.734,1.486Z" transform="translate(-879.095 -341.506)" fill="#e0e0e0"/>
            <path id="Trazado_109319" data-name="Trazado 109319" d="M1023.58,377.317a16.511,16.511,0,0,0,.055-10.7,9.459,9.459,0,0,1,1.339,5.357,9.686,9.686,0,0,1-1.394,5.339Z" transform="translate(-889.938 -341.484)" fill="#f5f5f5"/>
            <path id="Trazado_109320" data-name="Trazado 109320" d="M1020.907,377.307c-.138,0,.413-2.339.394-5.238s-.55-5.192-.4-5.229a16.108,16.108,0,0,1,0,10.467Z" transform="translate(-889.714 -341.503)" fill="#f5f5f5"/>
          </g>
        </g>
        <g id="Grupo_70341" data-name="Grupo 70341" transform="translate(28.434 197.292)">
          <g id="Grupo_58060" data-name="Grupo 58060" transform="translate(0 0)">
            <g id="Grupo_58059" data-name="Grupo 58059">
              <path id="Trazado_108161" data-name="Trazado 108161" d="M264.552,99.056l-.171-25.586A32.707,32.707,0,0,0,243.276,81.7a30.267,30.267,0,0,0-10.168,26.5,35.04,35.04,0,0,0,.6,3.712v.095h0l30.827-6.94Z" transform="translate(-232.884 -73.47)" fill="#d9a171"/>
              <g id="Grupo_58057" data-name="Grupo 58057" opacity="0.3">
                <path id="Trazado_108162" data-name="Trazado 108162" d="M264.552,99.056l-.171-25.586A32.707,32.707,0,0,0,243.276,81.7a30.267,30.267,0,0,0-10.168,26.5,35.04,35.04,0,0,0,.6,3.712v.095h0l30.827-6.94Z" transform="translate(-232.884 -73.47)" fill="#fff"/>
              </g>
              <path id="Trazado_108163" data-name="Trazado 108163" d="M298.182,91.194a30.381,30.381,0,0,0-24.874-17.421c-.323,0-.646-.066-.949-.085h-.627c-.608,0-1.225,0-1.851-.057h-.171l.171,25.634v6.01l30.846,6.684h0a31,31,0,0,0,.684-6.646,33.23,33.23,0,0,0-3.228-14.117Z" transform="translate(-234.748 -73.478)" fill="#d9a171"/>
              <g id="Grupo_58058" data-name="Grupo 58058" transform="translate(34.962 0.152)" opacity="0.3">
                <path id="Trazado_108164" data-name="Trazado 108164" d="M298.182,91.194a30.381,30.381,0,0,0-24.874-17.421c-.323,0-.646-.066-.949-.085h-.627c-.608,0-1.225,0-1.851-.057h-.171l.171,25.634v6.01l30.846,6.684h0a31,31,0,0,0,.684-6.646,33.23,33.23,0,0,0-3.228-14.117Z" transform="translate(-269.71 -73.63)" fill="#d9a171"/>
              </g>
            </g>
            <path id="Trazado_108165" data-name="Trazado 108165" d="M266.357,110.12l-30.827,6.931a31.6,31.6,0,0,0,61.711-.209l-30.884-6.722" transform="translate(-233.018 -75.325)" fill="#d9a171"/>
          </g>
          <path id="Trazado_108166" data-name="Trazado 108166" d="M390.566,105.248c0,.228-15.931.408-35.593.408s-35.593-.18-35.593-.408,15.931-.418,35.593-.418S390.566,104.991,390.566,105.248Z" transform="translate(-237.261 -75.057)" fill="#344154"/>
          <path id="Trazado_108167" data-name="Trazado 108167" d="M390.566,96.7c0,.228-15.931.418-35.593.418s-35.593-.19-35.593-.418,15.931-.418,35.593-.418S390.566,96.47,390.566,96.7Z" transform="translate(-237.261 -74.624)" fill="#344154"/>
          <path id="Trazado_108168" data-name="Trazado 108168" d="M390.566,88.148c0,.228-15.931.418-35.593.418s-35.593-.19-35.593-.418,15.931-.418,35.593-.418S390.566,87.92,390.566,88.148Z" transform="translate(-237.261 -74.192)" fill="#344154"/>
          <path id="Trazado_108169" data-name="Trazado 108169" d="M390.566,113.2c0,.228-15.931.418-35.593.418s-35.593-.19-35.593-.418,15.931-.418,35.593-.418S390.566,112.989,390.566,113.2Z" transform="translate(-237.261 -75.459)" fill="#344154"/>
          <path id="Trazado_108170" data-name="Trazado 108170" d="M368.544,121.848c0,.228-10.947.418-24.447.418s-24.447-.19-24.447-.418,10.937-.418,24.447-.418S368.544,121.62,368.544,121.848Z" transform="translate(-237.275 -75.897)" fill="#344154"/>
        </g>
        <g id="Grupo_70345" data-name="Grupo 70345" transform="translate(24.467 189.859)">
          <g id="Grupo_70343" data-name="Grupo 70343" transform="translate(47.181)">
            <path id="Trazado_141419" data-name="Trazado 141419" d="M270.72,267.78l13.69,31.055,4.776-13.662,11.715-4.291Z" transform="translate(-176.165 -144.352)" fill="#5e6178"/>
            <rect id="Rectángulo_31982" data-name="Rectángulo 31982" width="17.203" height="17.203" transform="translate(120.692 147.098)" fill="#fff"/>
            <path id="Trazado_141420" data-name="Trazado 141420" d="M315.431,309.889s0-.484-.066-1.32,0-2.079-.076-3.522c0-3.1-.095-7.329-.152-12.342l.294.285H298.237c-.076,0,.646-.646.342-.342h0v17.175l-.285-.3,12.342.152,3.532.076a8.675,8.675,0,0,1,1.31.076,7.984,7.984,0,0,1-1.168,0l-3.465.086-12.551.142H298V292.582h0l.342-.342h17.507v.3c0,5.117-.114,9.427-.152,12.56,0,1.415,0,2.63-.085,3.456A5.986,5.986,0,0,1,315.431,309.889Z" transform="translate(-177.545 -145.588)" fill="#5e6178"/>
            <path id="Trazado_141421" data-name="Trazado 141421" d="M307.292,308.394a71.894,71.894,0,0,1,0-14A71.884,71.884,0,0,1,307.292,308.394Z" transform="translate(-177.999 -145.698)" fill="#5e6178"/>
            <path id="Trazado_141422" data-name="Trazado 141422" d="M313.934,301.742a71.885,71.885,0,0,1-14,0,71.889,71.889,0,0,1,14,0Z" transform="translate(-177.644 -146.052)" fill="#5e6178"/>
            <path id="Trazado_141423" data-name="Trazado 141423" d="M183.152,1014.813l4.1-17.333,33.785.829-2.815,24.663-2.14.174c-9.572.645-48.671,2.621-55.162.758C153.862,1021.805,183.152,1014.813,183.152,1014.813Z" transform="translate(-159.716 -434.838)" fill="#d9a171"/>
            <g id="Grupo_70337" data-name="Grupo 70337" transform="translate(45.877 577.918)" opacity="0.4">
              <path id="Trazado_109948" data-name="Trazado 109948" d="M204.53,1022.495a12.071,12.071,0,0,1,4.341-7.453,11.692,11.692,0,0,1,8.067-2.621l.123,9.7Z" transform="translate(-204.53 -1012.401)"/>
            </g>
            <g id="Grupo_70338" data-name="Grupo 70338" transform="translate(0 583.917)" opacity="0.4">
              <path id="Trazado_109949" data-name="Trazado 109949" d="M168.822,1018.26s-10.289,3.153-8.989,4.73,40.952,1.177,58.356-.573v-.768l-46.173.973S170.838,1018.3,168.822,1018.26Z" transform="translate(-159.719 -1018.26)"/>
            </g>
            <path id="Trazado_141424" data-name="Trazado 141424" d="M340.516,684.39l-15.777,333.582-43.3,1.024,3.409-289.232-64.786,289.784L183.2,1017.88l57.8-332.8Z" transform="translate(-159.16 -442.287)" fill="#344154"/>
            <path id="Trazado_141425" data-name="Trazado 141425" d="M293.127,688.8a36.309,36.309,0,0,1-.389,5.477c-.369,3.378-.921,8.026-1.577,13.166a54.325,54.325,0,0,1-1.2,7.248,10.238,10.238,0,0,1-3.153,5.181,7.821,7.821,0,0,1-3.675,1.812,3.074,3.074,0,0,1-1.495,0,9.326,9.326,0,0,0,7.545-7.248,64.589,64.589,0,0,0,1.106-7.167c.676-5.119,1.321-9.767,1.843-13.1a31.856,31.856,0,0,1,.993-5.365Z" transform="translate(-156.818 -442.182)" fill="#455a64"/>
            <path id="Trazado_141426" data-name="Trazado 141426" d="M282.456,690.765c.123.072-.287.625,0,1.495a1.72,1.72,0,0,0,.9,1.024,1.474,1.474,0,0,0,1.577-.368,1.433,1.433,0,0,0,.44-1.577,1.854,1.854,0,0,0-1.024-.962,2.992,2.992,0,0,0-1.5-.072c-.072-.082.461-.778,1.679-.553a2.385,2.385,0,0,1,1.577,1.28,2.354,2.354,0,0,1-1.413,3.01,2.425,2.425,0,0,1-1.74-.061,2.253,2.253,0,0,1-1.167-1.7C281.668,691.174,282.425,690.652,282.456,690.765Z" transform="translate(-156.815 -442.161)" fill="#455a64"/>
            <path id="Trazado_141427" data-name="Trazado 141427" d="M255.61,696.574a9.685,9.685,0,0,1,.655-9.214c.246.092-.43,2.048-.583,4.576S255.887,696.431,255.61,696.574Z" transform="translate(-157.457 -442.216)" fill="#455a64"/>
            <path id="Trazado_141428" data-name="Trazado 141428" d="M261.651,695.963a11.261,11.261,0,0,1,.317-9.613,43,43,0,0,1-.317,4.73A43.177,43.177,0,0,1,261.651,695.963Z" transform="translate(-157.315 -442.241)" fill="#455a64"/>
            <path id="Trazado_141429" data-name="Trazado 141429" d="M313.671,695.372q.169-4.984.113-9.972a13.484,13.484,0,0,1-.143,9.972Z" transform="translate(-156.056 -442.263)" fill="#455a64"/>
            <path id="Trazado_141430" data-name="Trazado 141430" d="M320.251,694.778c-.256-.092.471-2.283.543-5.119s-.471-5.027-.215-5.119a7.872,7.872,0,0,1,1.116,5.119A8.016,8.016,0,0,1,320.251,694.778Z" transform="translate(-155.901 -442.284)" fill="#455a64"/>
            <path id="Trazado_141431" data-name="Trazado 141431" d="M311.918,480.866c1.771-2.1,3.153-5.836,2.048-8.354,2.109-1.085,2.3-2.969,2.3-5.324a14.63,14.63,0,0,0-2.048-6.737,19.574,19.574,0,0,0-7.617-8.334,10.136,10.136,0,0,0-10.821.471,13.125,13.125,0,0,0-18.5-1.587l-.307.266a13.737,13.737,0,0,1-2.846,2.6c-1.884,1.024-4.177.645-6.307.85a11.026,11.026,0,0,0-9.214,15.357,12,12,0,0,0-5.119,9.214,35.033,35.033,0,0,0,1.229,10.76c.973,4.372,2.048,8.948,5.119,12.183a12.634,12.634,0,0,0,8.1,3.829,12.9,12.9,0,0,0,11.344-5.344" transform="translate(-157.488 -447.914)" fill="#344154"/>
            <path id="Trazado_141432" data-name="Trazado 141432" d="M265.593,554.855l35.014-1.577c.2-3.716-1.7-26.793-1.7-26.793s13.238-2.048,13.412-15.285-2.15-43.624-2.15-43.624h0a46.07,46.07,0,0,0-46.214,5.795L262,474.948Z" transform="translate(-157.285 -447.534)" fill="#b78876"/>
            <path id="Trazado_141433" data-name="Trazado 141433" d="M298.483,525a30.714,30.714,0,0,1-17.333-4.9s4.1,9.46,17.333,8.344Z" transform="translate(-156.83 -446.196)" fill="#aa6550"/>
            <path id="Trazado_141434" data-name="Trazado 141434" d="M263.785,488.08c-.215-.092-9.091-2.693-8.794,6.307s9.316,6.9,9.316,6.634S263.785,488.08,263.785,488.08Z" transform="translate(-157.452 -446.967)" fill="#b78876"/>
            <path id="Trazado_141435" data-name="Trazado 141435" d="M261.386,497.657a2.444,2.444,0,0,1-.43.256,1.638,1.638,0,0,1-1.167,0,3.88,3.88,0,0,1-1.915-3.45,4.935,4.935,0,0,1,.379-2.273,1.853,1.853,0,0,1,1.126-1.249.829.829,0,0,1,.952.41c.123.256.082.43.123.45s.194-.164.113-.543a1.086,1.086,0,0,0-.379-.553,1.178,1.178,0,0,0-.88-.2,2.253,2.253,0,0,0-1.577,1.464,5.182,5.182,0,0,0-.471,2.539,4.1,4.1,0,0,0,2.426,3.829,1.71,1.71,0,0,0,1.433-.276C261.366,497.821,261.417,497.677,261.386,497.657Z" transform="translate(-157.398 -446.901)" fill="#aa6550"/>
            <path id="Trazado_141436" data-name="Trazado 141436" d="M306.3,487.829a1.894,1.894,0,0,1-1.812,1.914,1.822,1.822,0,0,1-1.955-1.669h0a1.884,1.884,0,0,1,1.812-1.9,1.8,1.8,0,0,1,1.945,1.628A.045.045,0,0,1,306.3,487.829Z" transform="translate(-156.321 -447.002)" fill="#344154"/>
            <path id="Trazado_141437" data-name="Trazado 141437" d="M306.785,485.766c-.225.246-1.659-.819-3.7-.809s-3.522,1.024-3.747.768.123-.543.778-1.024a5.252,5.252,0,0,1,3.01-.921,4.883,4.883,0,0,1,2.938.942C306.682,485.213,306.907,485.654,306.785,485.766Z" transform="translate(-156.399 -447.06)" fill="#344154"/>
            <path id="Trazado_141438" data-name="Trazado 141438" d="M286.838,488.3a1.873,1.873,0,0,1-1.812,1.9,1.812,1.812,0,0,1-1.955-1.659h0a1.894,1.894,0,0,1,1.833-1.914,1.812,1.812,0,0,1,1.935,1.648Z" transform="translate(-156.784 -446.992)" fill="#344154"/>
            <path id="Trazado_141439" data-name="Trazado 141439" d="M287.265,486.136c-.236.246-1.669-.829-3.706-.809s-3.532,1.024-3.747.768.123-.543.788-1.024a5.181,5.181,0,0,1,2.989-.921,4.935,4.935,0,0,1,2.949.942C287.173,485.583,287.377,486.044,287.265,486.136Z" transform="translate(-156.863 -447.05)" fill="#344154"/>
            <path id="Trazado_141440" data-name="Trazado 141440" d="M294.312,501.214a14.586,14.586,0,0,1,3.307-.6c.522,0,1.024-.154,1.106-.5a2.815,2.815,0,0,0-.348-1.577L296.8,494.58a70.809,70.809,0,0,1-3.45-10.34,66.533,66.533,0,0,1,4.269,10.033l1.485,3.993a2.959,2.959,0,0,1,.266,2.048,1.28,1.28,0,0,1-.85.758,3.217,3.217,0,0,1-.88.133A12.933,12.933,0,0,1,294.312,501.214Z" transform="translate(-156.54 -447.048)" fill="#344154"/>
            <path id="Trazado_141441" data-name="Trazado 141441" d="M288.448,502.26c.338,0,.348,2.191,2.242,3.768s4.238,1.331,4.259,1.577-.543.44-1.577.461a5.529,5.529,0,0,1-3.553-1.229,4.853,4.853,0,0,1-1.73-3.153C288.059,502.721,288.305,502.26,288.448,502.26Z" transform="translate(-156.664 -446.62)" fill="#344154"/>
            <path id="Trazado_141442" data-name="Trazado 141442" d="M287.816,478.335c-.2.543-2.222.3-4.617.584s-4.32.942-4.638.44c-.143-.236.194-.758.973-1.3a8.1,8.1,0,0,1,7.054-.768C287.468,477.649,287.908,478.079,287.816,478.335Z" transform="translate(-156.892 -447.226)" fill="#344154"/>
            <path id="Trazado_141443" data-name="Trazado 141443" d="M306.041,480.048c-.358.471-1.761,0-3.45,0s-3.153.317-3.43-.174c-.143-.235.072-.7.706-1.136a4.986,4.986,0,0,1,5.549.174C306.01,479.311,306.164,479.782,306.041,480.048Z" transform="translate(-156.402 -447.198)" fill="#344154"/>
            <path id="Trazado_141444" data-name="Trazado 141444" d="M261.306,474.45c.174,3.849-.676,8.19,0,11.937.113.584,1.577,2.109,1.74,2.672.768,3.348,2.16,4.73,4.157,1.331a29.8,29.8,0,0,0,1.577-6.532l2.457-12.224a21.231,21.231,0,0,0,10.064,2.4,10.3,10.3,0,0,0,8.59-5.119,10.688,10.688,0,0,0,14.671,3.634,10.935,10.935,0,0,0,1.894-1.454,4.464,4.464,0,0,0,5.9,1.239,5.293,5.293,0,0,0,2.16-5.825c-.921-3.235-4.382-4.986-7.6-5.928-12.613-3.706-26.506-.809-37.829,5.825a19.536,19.536,0,0,0-4.566,3.46c-1.29,1.4-3.071,3.143-3.153,4.976" transform="translate(-157.307 -447.65)" fill="#344154"/>
            <path id="Trazado_141445" data-name="Trazado 141445" d="M290.916,495.676a13.156,13.156,0,0,0,1.106-1.689,8.19,8.19,0,0,0,.942-5.2,7.873,7.873,0,1,0-8.917,8.917,8.272,8.272,0,0,0,5.2-.932c1.116-.625,1.577-1.167,1.669-1.1s-.092.154-.328.409a7.166,7.166,0,0,1-1.188.962,8.19,8.19,0,0,1-5.436,1.239,8.569,8.569,0,1,1,9.572-9.562,8.19,8.19,0,0,1-1.229,5.416,6.421,6.421,0,0,1-.962,1.188Q290.967,495.7,290.916,495.676Z" transform="translate(-156.942 -447.121)" fill="#455a64"/>
            <path id="Trazado_141446" data-name="Trazado 141446" d="M311.336,495.676a13.155,13.155,0,0,0,1.106-1.689,8.272,8.272,0,0,0,.932-5.2,7.883,7.883,0,1,0-8.927,8.917,8.272,8.272,0,0,0,5.2-.932c1.126-.624,1.577-1.167,1.689-1.1s-.092.154-.328.409a6.758,6.758,0,0,1-1.2.963,8.19,8.19,0,0,1-5.426,1.239,8.569,8.569,0,1,1,9.552-9.562,8.191,8.191,0,0,1-1.229,5.416,6.422,6.422,0,0,1-.962,1.2,1.608,1.608,0,0,1-.409.338Z" transform="translate(-156.456 -447.121)" fill="#455a64"/>
            <path id="Trazado_141447" data-name="Trazado 141447" d="M297.589,489.009c0,.235-1.024.41-2.334.41s-2.345-.174-2.345-.41,1.024-.409,2.345-.409S297.589,488.815,297.589,489.009Z" transform="translate(-156.55 -446.945)" fill="#455a64"/>
            <path id="Trazado_141448" data-name="Trazado 141448" d="M263,488.428a31.549,31.549,0,0,1,7.167-.665,33.467,33.467,0,0,1,7.228.174,30.35,30.35,0,0,1-7.167.645,32.279,32.279,0,0,1-7.228-.154Z" transform="translate(-157.261 -446.967)" fill="#455a64"/>
            <path id="Trazado_141449" data-name="Trazado 141449" d="M271.481,486.025l-11.262-4.1L249.5,485.657l-14.876,15.51-9.644,9.214,15.756,7,8.334-3.327,13.309-9.05,7.515-14.18s-2.14-1.024-4.556,2.385l-2.252,3.01-2.14-8.19v-2.447l6.644,2.048a3.522,3.522,0,0,0,3.788-1.106Z" transform="translate(-158.166 -447.104)" fill="#b78876"/>
            <path id="Trazado_141450" data-name="Trazado 141450" d="M249.688,497.65a3.992,3.992,0,0,1,1.024,1.792,12.572,12.572,0,0,1-.614,9.665c-.584,1.126-1.116,1.71-1.2,1.648a27.161,27.161,0,0,0,1.577-6.47A26.748,26.748,0,0,0,249.688,497.65Z" transform="translate(-157.597 -446.73)" fill="#aa6550"/>
            <path id="Trazado_141451" data-name="Trazado 141451" d="M249.817,497.918a21.8,21.8,0,0,1,4.1-1.024h.1a1.484,1.484,0,0,1,.676,1.577,4.415,4.415,0,0,1-.717,1.577,1.669,1.669,0,0,0-.276,1.433,3.348,3.348,0,0,0,1.116,1.331h-.491a9.05,9.05,0,0,0,2.867-2.775c1.106-1.751-.154-3.594-.829-5.283a7.161,7.161,0,0,0-.553-1.085,1.024,1.024,0,0,0-.88-.195l-2.242.348a25.263,25.263,0,0,1-4.474.512,23.019,23.019,0,0,1,4.382-1.024l2.242-.44a1.659,1.659,0,0,1,1.495.348,5.12,5.12,0,0,1,.706,1.269c.379.85.839,1.679,1.188,2.682a4.023,4.023,0,0,1-.307,3.307,9.593,9.593,0,0,1-3.153,3.071l-.246.174-.236-.2a4.1,4.1,0,0,1-1.31-1.689,2.365,2.365,0,0,1,.389-2.048,4.318,4.318,0,0,0,.686-1.372.932.932,0,0,0-.307-1.024h.174a23.119,23.119,0,0,1-4.1.532Z" transform="translate(-157.614 -446.844)" fill="#aa6550"/>
            <path id="Trazado_141452" data-name="Trazado 141452" d="M258.261,499.238a1.29,1.29,0,0,0,.727.5,1.382,1.382,0,0,0,1.74-.9v-.072a4.689,4.689,0,0,0-.665-3.5c-.563-1.321-1.147-2.9-1.822-4.331s-2.426-1.2-3.849-1.024-2.744.328-3.829.5a20.68,20.68,0,0,1-3.542.522,12.629,12.629,0,0,1,3.43-1.085c1.1-.256,2.4-.5,3.87-.7a10.24,10.24,0,0,1,2.375-.123,2.775,2.775,0,0,1,2.252,1.577c.778,1.577,1.259,3.153,1.833,4.443a12,12,0,0,1,.655,2.047,3.123,3.123,0,0,1-.174,1.956,1.9,1.9,0,0,1-1.177,1.167,1.566,1.566,0,0,1-1.249-.092C258.179,499.678,258.179,499.238,258.261,499.238Z" transform="translate(-157.641 -446.935)" fill="#aa6550"/>
            <path id="Trazado_141453" data-name="Trazado 141453" d="M262.571,496.105a12.745,12.745,0,0,1-1.085-3.071c-.3-1.024-.625-2.15-.962-3.317-.184-.614-.358-1.331-.553-1.945a2.13,2.13,0,0,0-1.239-1.3,6.542,6.542,0,0,0-3.88.369l-3.358.9a12.648,12.648,0,0,1-3.153.614,12.777,12.777,0,0,1,3-1.177l3.3-1.024a6.808,6.808,0,0,1,4.413-.41,2.938,2.938,0,0,1,1.679,1.792c.225.737.348,1.372.522,2.048l.809,3.379A12.28,12.28,0,0,1,262.571,496.105Z" transform="translate(-157.61 -447.018)" fill="#aa6550"/>
            <path id="Trazado_141454" data-name="Trazado 141454" d="M234.4,501.171a1.577,1.577,0,0,1,.235-.3c.215-.215.45-.5.758-.829l2.949-3.153,10.74-11.364h0L259.8,481.76h.082l11.333,4.1h.154v.737h0a3.584,3.584,0,0,1-1.792,1.2,4.831,4.831,0,0,1-2.232,0h0l-4.689-1.443-1.986-.614.317-.225v2.355c.727,2.805,1.454,5.549,2.15,8.19h-.43c1.024-1.29,1.874-2.549,2.867-3.778a4.1,4.1,0,0,1,4.249-1.669h.215l-.123.236-7.545,14.179h0l-9.777,6.552-2.815,1.884c-.614.41-.952.594-.952.594s.307-.256.891-.676l2.631-1.833,9.675-6.675h0l7.463-14.19.113.317a2.631,2.631,0,0,0-1.986.184,5.969,5.969,0,0,0-1.7,1.372c-.932,1.167-1.863,2.5-2.826,3.768l-.3.4-.123-.471-2.16-8.19h0V485.3l.317.092,1.986.614,4.648,1.423h0a4.692,4.692,0,0,0,2.048,0,3.185,3.185,0,0,0,1.577-1.024V486.1l.164.225-11.323-4.1h.164l-10.74,3.655h0l-10.873,11.262-3.01,3.153-.8.8A1.11,1.11,0,0,1,234.4,501.171Z" transform="translate(-157.942 -447.108)" fill="#aa6550"/>
            <path id="Trazado_141455" data-name="Trazado 141455" d="M238.907,599.6l-.737-54.425,14.159-4.75c4.464-.85,8.794-2.478,14.046-2.693h0a27.642,27.642,0,0,0,33.734.42l.481-.358c1.351.154,3.153.328,5.406.6h.44a33.057,33.057,0,0,1,15.49,6.143h0L392.4,586.616l41.382-31.523,20.957,16.442s-54.261,54.261-59.472,55.5c-3.645.9-39.805-18.909-61.735-31.072.9,13.125,5.8,86.091,5.569,96.134H238.426l-.082-46.02v-12.5Z" transform="translate(-157.852 -445.776)" fill="#d9a171"/>
            <path id="Trazado_141456" data-name="Trazado 141456" d="M330,564.24a10.674,10.674,0,0,0-.082,2.426c0,1.751.133,3.952.194,6.552.2,5.549.563,13.186,1.024,21.643s.911,16.084,1.31,21.612c.2,2.6.379,4.73.5,6.542a12.817,12.817,0,0,0,.328,2.416,10.6,10.6,0,0,0,.082-2.416c0-1.761-.123-3.952-.2-6.573-.2-5.539-.553-13.186-1.024-21.633s-.911-16.1-1.3-21.643c-.2-2.6-.379-4.72-.522-6.532A12.5,12.5,0,0,0,330,564.24Z" transform="translate(-155.67 -445.145)" fill="#344154"/>
            <path id="Trazado_141457" data-name="Trazado 141457" d="M229.443,500.89s-40.286,37.655-53,53.084c-5.754,6.952-7.064,17.333-2.426,25.052h0a19.1,19.1,0,0,0,17.742,9.3l48.507-3.245,3.675-40.358-29.332,9.163,34.195-35.73Z" transform="translate(-159.446 -446.652)" fill="#d9a171"/>
            <path id="Trazado_141458" data-name="Trazado 141458" d="M238.385,615.228c-.235,0-.3-8.671-.154-19.339s.44-19.309.676-19.309.287,8.651.143,19.319S238.672,615.228,238.385,615.228Z" transform="translate(-157.852 -444.852)" fill="#344154"/>
            <path id="Trazado_141459" data-name="Trazado 141459" d="M227.5,539.08a9.124,9.124,0,0,1-1.218,1.577l-3.563,3.993c-3.071,3.358-7.341,8.016-12.286,13.309l.092-.174a64.038,64.038,0,0,1-7.033,16.022,24.571,24.571,0,0,1-7.167,6.788,17.326,17.326,0,0,1-6.143,2.478,10.66,10.66,0,0,1-1.8.194h-.625s.86-.133,2.365-.491a18.787,18.787,0,0,0,5.918-2.652,25.113,25.113,0,0,0,6.829-6.726,53.332,53.332,0,0,0,5.211-10.668c.645-1.741,1.218-3.471,1.71-5.119v-.092h0c4.924-5.262,9.306-9.849,12.46-13.115l3.716-3.808A11.579,11.579,0,0,1,227.5,539.08Z" transform="translate(-159.051 -445.745)" fill="#344154"/>
            <path id="Trazado_141460" data-name="Trazado 141460" d="M207.683,563.39a18.981,18.981,0,0,1-1.812,14.845c-.235-.092,1.136-3.153,1.577-7.341S207.437,563.421,207.683,563.39Z" transform="translate(-158.622 -445.165)" fill="#344154"/>
            <path id="Trazado_141461" data-name="Trazado 141461" d="M252.838,690.961a1.734,1.734,0,0,1-.215-.317l-.614-1.024-2.273-3.788a66.079,66.079,0,0,1-3.358-6.143,14.969,14.969,0,0,1-1.413-9.153c.645-3.471,2.7-6.747,4.218-10.422a16.678,16.678,0,0,0,1.31-5.938,27.065,27.065,0,0,0-.676-6.48c-.911-4.392-2.631-8.917-3.071-13.914a49.52,49.52,0,0,1,1.331-15.224c1.147-5.119,2.57-10.033,3.573-14.845a69.879,69.879,0,0,0,1.106-7.167c0-1.167.164-2.334.2-3.491s0-2.293,0-3.42A127.538,127.538,0,0,0,249.009,566a159.125,159.125,0,0,1-3.133-15.859c-.266-1.9-.41-3.389-.471-4.392v-1.157a1.235,1.235,0,0,1,0-.389,1.37,1.37,0,0,0,.082.389c.072.256.092.686.154,1.137.092,1.024.3,2.477.614,4.372.594,3.778,1.792,9.214,3.45,15.838a123.722,123.722,0,0,1,4.1,23.742v3.46c0,1.167-.113,2.345-.174,3.542a71.521,71.521,0,0,1-1.106,7.167c-1.024,4.853-2.426,9.757-3.563,14.845a49.144,49.144,0,0,0-1.351,15.019c.41,4.873,2.048,9.368,3.01,13.842a26.974,26.974,0,0,1,.645,6.665,17.527,17.527,0,0,1-1.382,6.143c-1.577,3.747-3.645,6.952-4.279,10.238a14.456,14.456,0,0,0,1.27,8.856,65.382,65.382,0,0,0,3.143,6.143l2.13,3.86.543,1.024C252.807,690.838,252.858,690.961,252.838,690.961Z" transform="translate(-157.695 -445.622)" fill="#fafafa"/>
            <path id="Trazado_141462" data-name="Trazado 141462" d="M274.2,543.69a1.478,1.478,0,0,1,.1.379l.256,1.116c.2,1.024.471,2.426.788,4.32a112.9,112.9,0,0,1,1.372,16.084,119.371,119.371,0,0,1-2.048,23.844c-1.577,8.876-4.187,18.428-5.037,28.8s.717,20.179,1.955,29.086a187.887,187.887,0,0,1,2.375,23.834,56.361,56.361,0,0,1-1.884,16.012l-.348,1.3-.389,1.126-.666,1.751-.409,1.024c-.092.236-.154.358-.154.358a1.241,1.241,0,0,1,0-.389l.348-1.1.563-1.761.369-1.116c.123-.409.184-.85.3-1.31a58.747,58.747,0,0,0,1.577-15.93,197.017,197.017,0,0,0-2.57-23.639c-1.259-8.907-2.8-18.807-2.048-29.27s3.491-20.025,5.119-28.85A121.443,121.443,0,0,0,276,565.64a127.46,127.46,0,0,0-1.106-16.043c-.246-1.894-.471-3.358-.645-4.33a8.292,8.292,0,0,0-.154-1.136A.85.85,0,0,1,274.2,543.69Z" transform="translate(-157.131 -445.634)" fill="#fafafa"/>
            <path id="Trazado_141463" data-name="Trazado 141463" d="M310.477,691.123l-.215-.328-.584-1.024a9.525,9.525,0,0,1-.809-1.73c-.123-.348-.3-.727-.42-1.147s-.225-.87-.348-1.341a25.112,25.112,0,0,1-.5-7.1,84.982,84.982,0,0,1,1.239-9.368,78.393,78.393,0,0,0,1.4-11.262,33.784,33.784,0,0,0-2.222-12.6,104.157,104.157,0,0,1-4.382-13.821,45.58,45.58,0,0,1,.307-15.592c.819-5.273,1.884-10.35,2.191-15.357a59.168,59.168,0,0,0-1.126-14.333c-1.761-9.009-4.208-17.005-5.037-23.987a44.639,44.639,0,0,1,.5-16.483,22.679,22.679,0,0,1,2.048-5.7,1.321,1.321,0,0,1-.123.389l-.409,1.1a30.947,30.947,0,0,0-1.229,4.279,45.415,45.415,0,0,0-.235,16.381c.88,6.911,3.389,14.855,5.2,23.926a58.674,58.674,0,0,1,1.177,14.466c-.287,5.057-1.372,10.238-2.191,15.418a45.149,45.149,0,0,0-.317,15.3,104.081,104.081,0,0,0,4.31,13.729,48.331,48.331,0,0,1,1.761,6.552,29.177,29.177,0,0,1,.43,6.4,78.471,78.471,0,0,1-1.577,11.354,85.632,85.632,0,0,0-1.362,9.265,25.257,25.257,0,0,0,.369,7.023A24.263,24.263,0,0,0,310.477,691.123Z" transform="translate(-156.395 -445.724)" fill="#fafafa"/>
            <path id="Trazado_141464" data-name="Trazado 141464" d="M323.309,549.3a2.579,2.579,0,0,1,.123.369l.307,1.024c.276.932.584,2.314.932,4.1a68.079,68.079,0,0,1,.614,15.541c-.379,6.552-1.659,14.333-2.846,22.872a205.7,205.7,0,0,0-1.741,28.062,380.53,380.53,0,0,0,4.535,50.934c.962,6.429,1.751,11.661,2.3,15.357.266,1.751.451,3.153.614,4.177a5.718,5.718,0,0,0,.143,1.085,2.348,2.348,0,0,1,0,.379,1.453,1.453,0,0,1-.113-.358,8.809,8.809,0,0,0-.2-1.085c-.194-1.024-.44-2.4-.778-4.1-.624-3.614-1.577-8.846-2.549-15.357a353.628,353.628,0,0,1-4.73-51.026,199.53,199.53,0,0,1,1.833-28.175c1.228-8.59,2.539-16.278,2.989-22.81a70.149,70.149,0,0,0-.348-15.439c-.276-1.8-.532-3.153-.768-4.1l-.225-1.075a1.148,1.148,0,0,1-.092-.379Z" transform="translate(-155.907 -445.501)" fill="#fafafa"/>
            <path id="Trazado_141465" data-name="Trazado 141465" d="M346.962,605.3a5.5,5.5,0,0,1-.236-1.577c-.1-1.024-.2-2.559-.307-4.433-.2-3.737-.379-8.907-.389-14.62s.092-10.893.266-14.63c.092-1.874.174-3.389.266-4.423a7.388,7.388,0,0,1,.2-1.577,5.8,5.8,0,0,1,.113,1.577v19.032c0,5.6.113,10.668.154,14.609v4.433A7.047,7.047,0,0,1,346.962,605.3Z" transform="translate(-155.286 -445.149)" fill="#fafafa"/>
            <path id="Trazado_141466" data-name="Trazado 141466" d="M361.919,569.67a12.555,12.555,0,0,1-.727,1.433,9.151,9.151,0,0,0-.911,4.157c0,1.812.379,4.024.624,6.45s.84,5.119,1.2,7.883a37.11,37.11,0,0,1,.164,8.047,20.476,20.476,0,0,1-1.577,6.429,16.741,16.741,0,0,1-2.324,3.788,4.8,4.8,0,0,1-1.126,1.177,35.687,35.687,0,0,0,2.908-5.18,30.182,30.182,0,0,0,1.106-14.19c-.348-2.785-.87-5.447-1.136-7.873a56.4,56.4,0,0,1-.451-6.562,8.724,8.724,0,0,1,1.208-4.3A4.27,4.27,0,0,1,361.919,569.67Z" transform="translate(-155.02 -445.017)" fill="#fafafa"/>
            <path id="Trazado_141467" data-name="Trazado 141467" d="M196,584.528a12.061,12.061,0,0,1,2.109,0,22.6,22.6,0,0,0,5.631-.522,13.627,13.627,0,0,0,6.808-4.535c2.1-2.386,4.187-5.232,6.511-8.1,4.6-5.8,8.794-11.036,11.866-14.753l3.655-4.412a9.97,9.97,0,0,1,1.433-1.577,10.523,10.523,0,0,1-1.177,1.73l-3.46,4.586c-2.959,3.829-7.074,9.112-11.671,14.9-2.334,2.877-4.413,5.682-6.593,8.1a13.924,13.924,0,0,1-7.228,4.6,19.6,19.6,0,0,1-5.836.256,9.693,9.693,0,0,1-2.048-.266Z" transform="translate(-158.855 -445.469)" fill="#fafafa"/>
            <path id="Trazado_141468" data-name="Trazado 141468" d="M236.506,510.1a6.584,6.584,0,0,1-.379.932,19.864,19.864,0,0,1-1.351,2.519,31.564,31.564,0,0,1-7,7.883c-3.389,2.877-7.873,5.784-12.531,9.214s-9.685,7.648-12.715,13.637a85.878,85.878,0,0,1-4.628,8.743,24.886,24.886,0,0,1-6.685,6.409c-2.426,1.689-4.822,3.153-6.921,4.587a25.594,25.594,0,0,0-5.293,4.73,12.388,12.388,0,0,0-2.928,9.552,10.238,10.238,0,0,0,1.31,3.542l-.174-.184a2.973,2.973,0,0,1-.45-.614,8.416,8.416,0,0,1-1.024-2.682,12.6,12.6,0,0,1,2.785-9.972,25.688,25.688,0,0,1,5.365-4.955c2.109-1.566,4.5-2.969,6.87-4.648a24.385,24.385,0,0,0,6.46-6.3,79.459,79.459,0,0,0,4.556-8.671c3.153-6.143,8.293-10.484,13.012-13.872s9.214-6.3,12.613-9.04a33.169,33.169,0,0,0,7.095-7.556,19.3,19.3,0,0,0,1.464-2.426A3.942,3.942,0,0,1,236.506,510.1Z" transform="translate(-159.341 -446.434)" fill="#fafafa"/>
            <g id="Grupo_70339" data-name="Grupo 70339" transform="translate(29.528 110.204)" opacity="0.3">
              <path id="Trazado_110030" data-name="Trazado 110030" d="M188.56,582.568a24.837,24.837,0,0,0,25.206-24.458v-.256c0-.829-.143-1.822-.891-2.2a1.669,1.669,0,0,0-1.966.676,5.047,5.047,0,0,0-.706,2.129A34.686,34.686,0,0,1,190.6,583.182" transform="translate(-188.56 -555.556)"/>
            </g>
            <path id="Trazado_141469" data-name="Trazado 141469" d="M397.445,488a25.933,25.933,0,0,1,5.29-11.5,33.547,33.547,0,0,1,12.46-8.528,58.29,58.29,0,0,1,17.1-3.962c3.133-.3,6.377-.461,9.741-.522a32.716,32.716,0,0,1,10.34,1.2,28.922,28.922,0,0,1,5.142,2.048,22.617,22.617,0,0,1,4.663,3.46,29.343,29.343,0,0,1,4.027,4.587,17.06,17.06,0,0,1,1.6,2.764,8.15,8.15,0,0,1,.922,3.245v.266h-.258c-6.368.614-13.2,2.17-20.348,3.153l.258-.348c.839,7.689,1.686,15.756,2.147,24,.092,2.048.166,4.177.138,6.307s-.138,4.228-.138,6.307c0,4.29,0,8.63-.3,13.043a130.782,130.782,0,0,1-4.119,26.731,106.181,106.181,0,0,1-10.755,25.892c-4.709,8.283-11.206,15.255-15.6,24.08a77.135,77.135,0,0,0-8.81,28.768,144.914,144.914,0,0,0-.166,15.756q.083,7.883.166,15.982c.074,10.719,0,21.571-.323,32.546-.4,12.6-1,25.206-2.442,37.409a74.424,74.424,0,0,1-3.917,17.875,71.326,71.326,0,0,1-8.294,15.562c-6.654,9.46-14.92,16.974-22.5,24.714l-2.682,3.071c-.866,1.024-1.742,2.048-2.58,3.154l-1.152,1.669a9.894,9.894,0,0,0-1.051,1.72l-.922,1.812q-.352.945-.617,1.925a145.87,145.87,0,0,0-2.2,16.381c-1.889,21.807-2.765,42.641-3.622,62.124s-1.41,37.624-1.926,54.261-.922,31.512-1.207,44.74q-.194,9.88-.369,18.346a55.375,55.375,0,0,1-.4,8.108,23.153,23.153,0,0,1-2.239,6.921,24.09,24.09,0,0,1-20.1,13.176H331.12a8.427,8.427,0,0,0,1.281-.082,24.151,24.151,0,0,0,19.841-13.238,22.622,22.622,0,0,0,2.184-6.818,54.714,54.714,0,0,0,.359-8.057c.1-5.641.193-11.774.313-18.357.267-13.176.617-28.175,1.087-44.76s1.051-34.666,1.843-54.261,1.686-40.317,3.557-62.175a146.416,146.416,0,0,1,2.11-16.555c.221-.686.387-1.4.654-2.047l.968-1.884a10.562,10.562,0,0,1,1.078-1.782l1.18-1.7c.848-1.085,1.733-2.129,2.608-3.153l2.838-2.989c7.6-7.791,15.833-15.224,22.412-24.633a70.678,70.678,0,0,0,8.23-15.357,73.953,73.953,0,0,0,3.834-17.681c1.419-12.214,2.037-24.714,2.433-37.348.323-10.955.4-21.8.323-32.516q-.083-8.037-.166-15.961a145.133,145.133,0,0,1,.175-15.807,77.658,77.658,0,0,1,8.921-29.076c4.442-8.917,10.976-15.94,15.6-24.11a104.751,104.751,0,0,0,10.69-25.646,131.313,131.313,0,0,0,4.092-26.619c.221-4.4.276-8.753.3-13.033,0-2.13.092-4.3.148-6.307s0-4.187-.129-6.306c-.442-8.272-1.281-16.278-2.1-23.967V483.7h.258c7.1-1.024,13.943-2.519,20.385-3.153l-.258.307a11.643,11.643,0,0,0-2.35-5.662,29.2,29.2,0,0,0-3.944-4.5,22.957,22.957,0,0,0-4.553-3.409,29.863,29.863,0,0,0-5.05-2.048,32.6,32.6,0,0,0-10.193-1.218c-3.345,0-6.58.195-9.7.492a57.5,57.5,0,0,0-17.021,3.911,33.376,33.376,0,0,0-12.367,8.364,25.817,25.817,0,0,0-5.29,11.344c-.332,1.833-.737,3.522-.922,5.119a29.015,29.015,0,0,0-.184,4.29q.18,3.839.258,5.836S397.123,489.843,397.445,488Z" transform="translate(-140.376 -447.543)" fill="#344154"/>
          </g>
          <g id="Grupo_70344" data-name="Grupo 70344" transform="translate(0 16.573)">
            <path id="Trazado_109950" data-name="Trazado 109950" d="M213.235,1021.58a1.971,1.971,0,0,1-.539.082l-1.552.123-5.717.348c-4.825.266-11.453.522-18.89.635s-14.065,0-18.908,0l-5.717-.194H159.82a2.37,2.37,0,0,1,.539,0h26.159c7.437,0,14.056-.328,18.871-.522l5.726-.2h1.562Z" transform="translate(-50.037 -450.836)" fill="#344154"/>
            <path id="Trazado_109951" data-name="Trazado 109951" d="M171.436,1023.235a9.256,9.256,0,0,0-3.086-5.4A5.707,5.707,0,0,1,171.436,1023.235Z" transform="translate(-49.561 -450.925)" fill="#344154"/>
            <path id="Trazado_109952" data-name="Trazado 109952" d="M181.47,1018a4.184,4.184,0,0,1-1.013-1.321c-.474-.8-.781-1.484-.688-1.577s.539.543,1.013,1.331S181.572,1017.905,181.47,1018Z" transform="translate(-51.545 -450.991)" fill="#344154"/>
            <path id="Trazado_109953" data-name="Trazado 109953" d="M184.169,1016.445a3.31,3.31,0,0,1-1.116-.809c-.539-.522-.93-1.024-.874-1.116s.576.266,1.116.8a3.492,3.492,0,0,1,.874,1.126Z" transform="translate(-51.987 -451.006)" fill="#344154"/>
            <path id="Trazado_109954" data-name="Trazado 109954" d="M185.751,1013.194a3.265,3.265,0,0,1-1.645.276,3.589,3.589,0,0,1-1.645-.174,3.406,3.406,0,0,1,1.645-.256A3.456,3.456,0,0,1,185.751,1013.194Z" transform="translate(-52.091 -451.041)" fill="#344154"/>
            <path id="Trazado_109955" data-name="Trazado 109955" d="M186.308,1010.93a4.268,4.268,0,0,1-3.718.358,11.526,11.526,0,0,1,1.859-.154,10.243,10.243,0,0,1,1.859-.2Z" transform="translate(-52.132 -451.091)" fill="#344154"/>
            <path id="Trazado_109956" data-name="Trazado 109956" d="M179.958,1015.071a5.194,5.194,0,0,1-2.027,0,12.11,12.11,0,0,1-2.166-.481,7.057,7.057,0,0,1-1.227-.553,1.244,1.244,0,0,1-.53-.645.941.941,0,0,1,.3-.9,3.5,3.5,0,0,1,4.648,1.136,4.031,4.031,0,0,1,.623,1.444c.093.379.093.583,0,.6a6.367,6.367,0,0,0-.93-1.894,3.554,3.554,0,0,0-1.748-1.208,2.882,2.882,0,0,0-2.408.215c-.316.256-.186.676.177.9a4.887,4.887,0,0,0,1.143.522,12.237,12.237,0,0,0,2.092.563,10.836,10.836,0,0,1,2.054.3Z" transform="translate(-50.68 -451.064)" fill="#344154"/>
            <path id="Trazado_109957" data-name="Trazado 109957" d="M179.819,1015.19a2.5,2.5,0,0,1-.242-1.577,3.869,3.869,0,0,1,.53-1.577,2.019,2.019,0,0,1,1.673-1.167.879.879,0,0,1,.632,1.024,2.437,2.437,0,0,1-.325,1.024,6.837,6.837,0,0,1-.93,1.372c-.632.7-1.116.963-1.143.911s.4-.41.93-1.116a7.319,7.319,0,0,0,.837-1.362c.27-.471.455-1.3,0-1.4s-1.032.512-1.329.963a3.861,3.861,0,0,0-.558,1.454,8.775,8.775,0,0,0-.074,1.454Z" transform="translate(-51.552 -451.091)" fill="#344154"/>
            <path id="Trazado_109958" data-name="Trazado 109958" d="M215.64,1012.335c0,.082-.93-.082-2.333.123a10.087,10.087,0,0,0-8.153,7.351c-.474,1.495-.5,2.508-.576,2.488a1.756,1.756,0,0,1,0-.7,10.675,10.675,0,0,1,.335-1.874,9.863,9.863,0,0,1,8.366-7.566,8.122,8.122,0,0,1,1.729,0,1.462,1.462,0,0,1,.632.174Z" transform="translate(-56.409 -451.062)" fill="#344154"/>
            <path id="Trazado_109959" data-name="Trazado 109959" d="M212.782,998.28q.353,3.57.353,7.167a69.912,69.912,0,0,1,0,7.166,67.06,67.06,0,0,1-.353-7.1A65.289,65.289,0,0,1,212.782,998.28Z" transform="translate(-57.36 -451.392)" fill="#344154"/>
            <path id="Trazado_109960" data-name="Trazado 109960" d="M199.483,1019a23.4,23.4,0,0,1-9.2.225,44.687,44.687,0,0,1,4.648,0C197.5,1019.226,199.483,1018.888,199.483,1019Z" transform="translate(-53.746 -450.899)" fill="#344154"/>
            <path id="Trazado_109961" data-name="Trazado 109961" d="M206.793,1018.92c.084.082-.158.471-.363,1.024s-.307,1.024-.428,1.024-.158-.532.074-1.126S206.737,1018.828,206.793,1018.92Z" transform="translate(-56.171 -450.901)" fill="#344154"/>
            <path id="Trazado_109962" data-name="Trazado 109962" d="M209.232,1015.76c.084.082-.112.45-.446.819s-.641.6-.707.522.121-.44.437-.819S209.167,1015.689,209.232,1015.76Z" transform="translate(-56.568 -450.976)" fill="#344154"/>
            <path id="Trazado_109963" data-name="Trazado 109963" d="M212.752,1014.3c0,.113-.437.123-.93.3s-.781.481-.874.4.177-.573.744-.788S212.78,1014.192,212.752,1014.3Z" transform="translate(-57.11 -451.015)" fill="#344154"/>
            <path id="Trazado_109964" data-name="Trazado 109964" d="M215.358,1013.592a.575.575,0,0,1-.4.409c-.26.1-.5.113-.539,0s.139-.3.4-.409S215.321,1013.49,215.358,1013.592Z" transform="translate(-57.688 -451.029)" fill="#344154"/>
            <path id="Trazado_109965" data-name="Trazado 109965" d="M315.193,1014.93l.1-18.51L283.81,996l-.4,27.089,1.962.154c8.673.655,44.184,2.621,50.013.758C341.863,1021.922,315.193,1014.93,315.193,1014.93Z" transform="translate(-73.903 -451.445)" fill="#d9a171"/>
            <path id="Trazado_109966" data-name="Trazado 109966" d="M294.758,1022.574a12.373,12.373,0,0,0-3.941-7.453,9.989,9.989,0,0,0-7.325-2.621l-.112,9.7Z" transform="translate(-70.683 -451.054)"/>
            <path id="Trazado_109967" data-name="Trazado 109967" d="M328.215,1018.33s9.342,3.153,8.153,4.73-37.138,1.187-52.987-.563v-.788l41.934,1.024S326.383,1018.4,328.215,1018.33Z" transform="translate(-73.908 -450.914)"/>
            <path id="Trazado_109968" data-name="Trazado 109968" d="M282.93,1021.68h.548l1.543.123,5.726.358c4.815.256,11.443.5,18.889.635s14.065,0,18.9-.082l5.726-.174h2.1a2.4,2.4,0,0,0-.539,0H309.637c-7.437,0-14.056-.328-18.88-.5l-5.717-.225h-1.562Z" transform="translate(-73.849 -450.835)" fill="#344154"/>
            <path id="Trazado_109969" data-name="Trazado 109969" d="M328.539,1023.3a16.045,16.045,0,0,1,1.106-2.99,12.7,12.7,0,0,1,1.989-2.385,4.274,4.274,0,0,0-2.305,2.16A5.111,5.111,0,0,0,328.539,1023.3Z" transform="translate(-78.187 -450.924)" fill="#344154"/>
            <path id="Trazado_109970" data-name="Trazado 109970" d="M318.61,1018a4.209,4.209,0,0,0,1.023-1.3,3.839,3.839,0,0,0,.688-1.577c-.084-.092-.548.522-1.023,1.311A4.128,4.128,0,0,0,318.61,1018Z" transform="translate(-76.311 -450.991)" fill="#344154"/>
            <path id="Trazado_109971" data-name="Trazado 109971" d="M315.889,1016.545c.074.082.567-.266,1.134-.8s.93-1.024.855-1.126-.576.276-1.116.809S315.815,1016.443,315.889,1016.545Z" transform="translate(-75.846 -451.003)" fill="#344154"/>
            <path id="Trazado_109972" data-name="Trazado 109972" d="M314.2,1013.325a3.615,3.615,0,0,0,1.645.246,3.234,3.234,0,0,0,1.645-.174,3.57,3.57,0,0,0-1.636-.246A3.4,3.4,0,0,0,314.2,1013.325Z" transform="translate(-75.642 -451.039)" fill="#344154"/>
            <path id="Trazado_109973" data-name="Trazado 109973" d="M313.64,1011a4.268,4.268,0,0,0,3.718.368q-1.861-.164-3.718-.368Z" transform="translate(-75.573 -451.088)" fill="#344154"/>
            <path id="Trazado_109974" data-name="Trazado 109974" d="M319.8,1015.071a5.194,5.194,0,0,0,2.026,0,9.941,9.941,0,0,0,2.166-.491,6.939,6.939,0,0,0,1.227-.532,1.269,1.269,0,0,0,.521-.7.927.927,0,0,0-.307-.891,3.5,3.5,0,0,0-4.592,1.126,4.015,4.015,0,0,0-.688,1.485,1.653,1.653,0,0,0,0,.6,6.222,6.222,0,0,1,.93-1.894,3.64,3.64,0,0,1,1.748-1.218,2.864,2.864,0,0,1,2.4.225c.316.266.186.676-.167.911a5.439,5.439,0,0,1-1.143.5,10.792,10.792,0,0,1-2.092.584A10.094,10.094,0,0,1,319.8,1015.071Z" transform="translate(-76.847 -451.065)" fill="#344154"/>
            <path id="Trazado_109975" data-name="Trazado 109975" d="M320.173,1015.26a2.483,2.483,0,0,0,.242-1.577,3.825,3.825,0,0,0-.53-1.567,2.011,2.011,0,0,0-1.673-1.167.9.9,0,0,0-.632,1.024,2.7,2.7,0,0,0,.335,1.024,7.009,7.009,0,0,0,.93,1.362,2.956,2.956,0,0,0,1.143.911,10.792,10.792,0,0,1-.93-1.116,7.866,7.866,0,0,1-.837-1.341c-.27-.471-.456-1.331,0-1.423s1.023.5,1.32.962a3.793,3.793,0,0,1,.558,1.454,9.794,9.794,0,0,1,.074,1.454Z" transform="translate(-76.212 -451.09)" fill="#344154"/>
            <path id="Trazado_109976" data-name="Trazado 109976" d="M283.73,1012.415a11.1,11.1,0,0,1,2.333.123,10.145,10.145,0,0,1,8.162,7.361c.465,1.484.493,2.488.567,2.478a1.753,1.753,0,0,0,0-.7,9.715,9.715,0,0,0-.325-1.874,10.877,10.877,0,0,0-3.123-5.221,9.379,9.379,0,0,0-5.262-2.344,7.056,7.056,0,0,0-1.738,0A2.3,2.3,0,0,0,283.73,1012.415Z" transform="translate(-70.727 -451.06)" fill="#344154"/>
            <path id="Trazado_109977" data-name="Trazado 109977" d="M287.4,998.35a140.443,140.443,0,0,0-.363,14.272,65.212,65.212,0,0,0,.363-7.167A70.478,70.478,0,0,0,287.4,998.35Z" transform="translate(-70.589 -451.389)" fill="#344154"/>
            <path id="Trazado_109978" data-name="Trazado 109978" d="M300,1019.091a23.406,23.406,0,0,0,9.2.215c0-.1-2.082,0-4.648-.072S300,1019,300,1019.091Z" transform="translate(-73.529 -450.898)" fill="#344154"/>
            <path id="Trazado_109979" data-name="Trazado 109979" d="M293.349,1019c-.084.072.158.471.363,1.024s.316,1.024.428,1.024.167-.553-.074-1.157S293.4,1018.918,293.349,1019Z" transform="translate(-71.746 -450.899)" fill="#344154"/>
            <path id="Trazado_109980" data-name="Trazado 109980" d="M290.889,1015.861c-.084.072.112.44.446.8s.641.6.716.522-.13-.44-.446-.809S290.991,1015.758,290.889,1015.861Z" transform="translate(-71.327 -450.974)" fill="#344154"/>
            <path id="Trazado_109981" data-name="Trazado 109981" d="M287.32,1014.384c0,.123.446.123.93.317s.79.451.874.379-.177-.573-.744-.788S287.292,1014.272,287.32,1014.384Z" transform="translate(-70.736 -451.013)" fill="#344154"/>
            <path id="Trazado_109982" data-name="Trazado 109982" d="M284.84,1013.672c0,.113.139.3.4.41s.5.123.548,0-.149-.287-.4-.41S284.84,1013.58,284.84,1013.672Z" transform="translate(-70.237 -451.027)" fill="#344154"/>
            <path id="Trazado_110016" data-name="Trazado 110016" d="M418.439,563.53c-.214.246,3.923,4.556,9.2,9.624s9.686,9.02,9.854,8.795-3.979-4.474-9.3-9.562c-2.631-2.539-5.048-4.73-6.823-6.4a20.2,20.2,0,0,0-2.938-2.457Z" transform="translate(-100.574 -461.736)" fill="#344154"/>
            <path id="Trazado_110017" data-name="Trazado 110017" d="M413.74,567c-.167.215,4.025,4.535,9.3,9.705,2.649,2.58,5.085,4.873,6.87,6.491a15.519,15.519,0,0,0,3.04,2.478,16.373,16.373,0,0,0-2.594-3.01c-1.692-1.771-4.053-4.146-6.712-6.726s-5.011-4.843-6.87-6.44A15.079,15.079,0,0,0,413.74,567Z" transform="translate(-100.243 -461.652)" fill="#344154"/>
            <path id="Trazado_110032" data-name="Trazado 110032" d="M38.966,944.766s-23.528,5.569-11.323,37.1,4.908,40.112-3.514,42.334l64.533-.461,5.726-79.252Z" transform="translate(-23.742 -452.671)" fill="#e0e0e0"/>
            <path id="Trazado_110033" data-name="Trazado 110033" d="M87.026,1024.16a17.631,17.631,0,0,1-12.438-5.119c-5.308-5.119-11.862-14.753-13.163-31.43C58.691,952.331,40.09,944.8,40.09,944.8l55.395-.266s17.988,0,19.447,31.318c1.525,32.823,42.855,51.671,68.363,48Z" transform="translate(-24.865 -452.67)" fill="#f5f5f5"/>
            <path id="Trazado_110034" data-name="Trazado 110034" d="M172.9,891.5s-29.013-3.839-32.239,66.956S88.84,1025.4,88.84,1025.4h96.9s20.163-4.935,15.469-54.885c-1.961-20.967,32.183-78.975,32.183-78.975Z" transform="translate(-31.935 -453.932)" fill="#ebebeb"/>
            <path id="Trazado_110035" data-name="Trazado 110035" d="M161.743,899.5c-3.086,4.1-1.859,10.627.874,15.04s6.926,7.392,11.22,9.849,8.785,4.535,12.633,7.771c5.949,5.006,9.919,12.449,12.317,20.261a135.814,135.814,0,0,1,4.378,24.244s-3.17-58.735-12.55-75.034S167.664,891.716,161.743,899.5Z" transform="translate(-49.61 -453.933)" fill="#e0e0e0"/>
            <path id="Trazado_110036" data-name="Trazado 110036" d="M237.8,1025.4s-28.613,1.577-32.592-35-7.316-96.718-25.936-98.9h58.676c8.249-.019,15.665,5.531,18.685,13.985,2.547,7.218,5.141,17.9,6.74,33.427,3.393,32.833,20.275,86.9,62.571,86.429Z" transform="translate(-60.228 -453.932)" fill="#f5f5f5"/>
            <path id="Trazado_110037" data-name="Trazado 110037" d="M260.107,992.87c0,.215-8.58.409-19.1.409s-19.1-.194-19.1-.409,8.59-.41,19.1-.41S260.107,992.634,260.107,992.87Z" transform="translate(-61.084 -451.529)" fill="#344154"/>
            <path id="Trazado_110038" data-name="Trazado 110038" d="M272.986,995.495q-.307-3.086-.307-6.194l.307.348h-5.578l.372-.409h0V995.3l-.335-.348a47,47,0,0,1,5.624.348,34.486,34.486,0,0,1-5.624.369h-.316V989.24h0l.372-.41h5.959v.338A46.443,46.443,0,0,1,272.986,995.495Z" transform="translate(-67.418 -451.616)" fill="#344154"/>
            <path id="Trazado_110039" data-name="Trazado 110039" d="M269.5,1006.12c0,.235-8.589.41-19.094.41s-19.1-.174-19.1-.41,8.59-.41,19.1-.41S269.5,1005.9,269.5,1006.12Z" transform="translate(-62.855 -451.214)" fill="#344154"/>
            <path id="Trazado_110040" data-name="Trazado 110040" d="M282.443,1008.765a57.429,57.429,0,0,1-.335-6.194l.335.348h-5.624l.372-.409h0v6.143l-.316-.359a43.113,43.113,0,0,1,5.624.359,36.982,36.982,0,0,1-5.624.348h-.335v-6.48h0l.372-.41h5.912v.41A47.837,47.837,0,0,1,282.443,1008.765Z" transform="translate(-69.105 -451.3)" fill="#344154"/>
            <path id="Trazado_110041" data-name="Trazado 110041" d="M252.108,959.449c0,.225-8.58.41-19.085.41s-19.1-.184-19.1-.41,8.589-.41,19.1-.41S252.108,959.224,252.108,959.449Z" transform="translate(-59.577 -452.324)" fill="#344154"/>
            <path id="Trazado_110042" data-name="Trazado 110042" d="M265.071,962.083a59.716,59.716,0,0,1-.325-6.143l.325.369h-5.578l.372-.409h0v6.061l-.316-.338a46.793,46.793,0,0,1,5.624.338,34.378,34.378,0,0,1-5.624.369h-.325V955.9h0c-.325.358.455-.5.39-.41h5.9v.348A47.416,47.416,0,0,1,265.071,962.083Z" transform="translate(-65.988 -452.409)" fill="#344154"/>
            <path id="Trazado_110043" data-name="Trazado 110043" d="M249.887,942.01c0,.215-8.59.409-19.1.409s-19.1-.194-19.1-.409,8.58-.41,19.1-.41S249.887,941.8,249.887,942.01Z" transform="translate(-59.157 -452.74)" fill="#344154"/>
            <path id="Trazado_110044" data-name="Trazado 110044" d="M262.841,944.665q-.312-3.1-.316-6.214l.316.369h-5.624l.372-.41h0v6.081l-.325-.358a43.114,43.114,0,0,1,5.578.358,38.315,38.315,0,0,1-5.578.348h-.27v-6.45h0c-.335.379.455-.481.372-.409h5.949v.348A46.588,46.588,0,0,1,262.841,944.665Z" transform="translate(-65.588 -452.826)" fill="#344154"/>
            <path id="Trazado_110045" data-name="Trazado 110045" d="M246.9,926.059c0,.225-8.59.41-19.1.41s-19.1-.184-19.1-.41,8.59-.409,19.1-.409S246.9,925.824,246.9,926.059Z" transform="translate(-58.593 -453.119)" fill="#344154"/>
            <path id="Trazado_110046" data-name="Trazado 110046" d="M259.762,928.684q-.306-3.06-.325-6.143l.325.368h-5.578l.372-.41h0v6.061l-.316-.348a46.865,46.865,0,0,1,5.578.348,34.412,34.412,0,0,1-5.578.369h-.307V922.5h0c-.335.358.437-.512.372-.409h5.949v.471A48.944,48.944,0,0,1,259.762,928.684Z" transform="translate(-65.039 -453.204)" fill="#344154"/>
            <path id="Trazado_110047" data-name="Trazado 110047" d="M242.667,911.42c0,.225-8.589.41-19.1.41s-19.1-.185-19.1-.41,8.58-.42,19.094-.42S242.667,911.184,242.667,911.42Z" transform="translate(-57.795 -453.468)" fill="#344154"/>
            <path id="Trazado_110048" data-name="Trazado 110048" d="M255.557,914.044q-.309-3.06-.316-6.143l.316.348H249.98l.372-.41h0v6.143l-.325-.359a49.252,49.252,0,0,1,5.578.359,36.983,36.983,0,0,1-5.578.368h-.316v-6.511h0l.372-.41h5.949v.358a46.032,46.032,0,0,1-.474,6.255Z" transform="translate(-64.291 -453.553)" fill="#344154"/>
            <path id="Trazado_110049" data-name="Trazado 110049" d="M235.537,899.139c0,.225-8.589.409-19.1.409s-19.1-.184-19.1-.409,8.59-.41,19.1-.41S235.537,898.914,235.537,899.139Z" transform="translate(-56.45 -453.759)" fill="#344154"/>
            <path id="Trazado_110050" data-name="Trazado 110050" d="M248.467,901.765q-.311-3.085-.316-6.194l.316.358H242.89l.372-.409h0v6.071l-.325-.348a49.3,49.3,0,0,1,5.624.348,34.55,34.55,0,0,1-5.624.358h-.316v-6.44h0l.372-.41h5.959v.348a46.3,46.3,0,0,1-.483,6.317Z" transform="translate(-63.018 -453.846)" fill="#344154"/>
            <path id="Trazado_110051" data-name="Trazado 110051" d="M252.76,930.631a15.74,15.74,0,0,1,2.575-4.1c.335-.409.632-.819.93-1.239l.251-.317.251.266c1.32,1.321,2.175,2.355,2.073,2.488s-1.153-.655-2.529-1.9h.5l-.93,1.28a14.786,14.786,0,0,1-3.123,3.522Z" transform="translate(-64.824 -453.135)" fill="#d9a171"/>
            <path id="Trazado_110052" data-name="Trazado 110052" d="M255.93,945.871a15.74,15.74,0,0,1,2.575-4.1l.93-1.239.251-.307.251.256c1.32,1.321,2.175,2.344,2.082,2.488s-1.162-.655-2.538-1.884h.5l-.93,1.269a14.776,14.776,0,0,1-3.123,3.512Z" transform="translate(-65.393 -452.772)" fill="#d9a171"/>
            <path id="Trazado_110053" data-name="Trazado 110053" d="M265,998.052a15.48,15.48,0,0,1,2.575-4.095c.335-.41.632-.819.93-1.249l.242-.317.251.266c1.32,1.331,2.175,2.355,2.082,2.5s-1.162-.666-2.538-1.915h.5l-.93,1.28A14.649,14.649,0,0,1,265,998.052Z" transform="translate(-67.021 -451.531)" fill="#d9a171"/>
            <path id="Trazado_110054" data-name="Trazado 110054" d="M258.21,963.421a14.956,14.956,0,0,1,2.575-4.1l.93-1.239.242-.317.26.266c1.3,1.321,2.175,2.344,2.073,2.488s-1.153-.666-2.529-1.9h.5l-.93,1.28a15.229,15.229,0,0,1-3.123,3.522Z" transform="translate(-65.803 -452.355)" fill="#d9a171"/>
            <path id="Trazado_110055" data-name="Trazado 110055" d="M256.107,976.169c0,.215-8.59.41-19.1.41s-19.1-.195-19.1-.41,8.58-.41,19.1-.41S256.107,975.934,256.107,976.169Z" transform="translate(-60.329 -451.927)" fill="#344154"/>
            <path id="Trazado_110056" data-name="Trazado 110056" d="M269,978.794q-.318-3.059-.335-6.143l.335.358h-5.624l.372-.41h0v6.071l-.316-.348a44.959,44.959,0,0,1,5.624.348,35.682,35.682,0,0,1-5.624.358h-.316V972.6h0c-.344.358.446-.5.372-.409h5.949v.348a47.683,47.683,0,0,1-.437,6.255Z" transform="translate(-66.686 -452.012)" fill="#344154"/>
            <path id="Trazado_110057" data-name="Trazado 110057" d="M261.3,980.831a15.774,15.774,0,0,1,2.584-4.1c.325-.41.641-.819.93-1.249l.242-.307.26.266c1.311,1.321,2.185,2.345,2.073,2.478s-1.162-.655-2.538-1.894h.5l-.93,1.269A15.168,15.168,0,0,1,261.3,980.831Z" transform="translate(-66.357 -451.94)" fill="#d9a171"/>
            <path id="Trazado_110058" data-name="Trazado 110058" d="M88.18,1002.179c0-.235,7.753-.41,17.328-.41s17.346.174,17.346.41-7.762.41-17.346.41S88.18,1002.4,88.18,1002.179Z" transform="translate(-30.32 -451.308)" fill="#344154"/>
            <path id="Trazado_110059" data-name="Trazado 110059" d="M78.627,999.917a49.4,49.4,0,0,1,.316,5.621l-.316-.338H83.74c.074-.1-.716.768-.39.41h0v-5.662l.335.359a37.249,37.249,0,0,1-5.113-.359,29.5,29.5,0,0,1,5.113-.348H84v5.979h0l-.372.41H78.19v-.348A37.964,37.964,0,0,1,78.627,999.917Z" transform="translate(-27.547 -451.36)" fill="#344154"/>
            <path id="Trazado_110060" data-name="Trazado 110060" d="M85.659,998.05a13.272,13.272,0,0,1-2.315,3.747l-.874,1.136-.242.317-.26-.276c-1.181-1.2-1.971-2.14-1.859-2.283s1.06.584,2.324,1.71h-.5l.827-1.167C84.2,999.35,85.492,997.917,85.659,998.05Z" transform="translate(-27.682 -451.397)" fill="#d9a171"/>
            <path id="Trazado_110061" data-name="Trazado 110061" d="M80.76,991.239c0-.235,7.771-.409,17.337-.409s17.337.174,17.337.409-7.762.41-17.337.41S80.76,991.455,80.76,991.239Z" transform="translate(-27.728 -451.569)" fill="#344154"/>
            <path id="Trazado_110062" data-name="Trazado 110062" d="M71.223,989.008a51.81,51.81,0,0,1,.307,5.631l-.307-.348h5.1l-.372.41h0v-5.692l.325.369a37.063,37.063,0,0,1-5.1-.369,29.44,29.44,0,0,1,5.1-.348h.288v5.979h0l-.372.41H70.88V994.7a36.334,36.334,0,0,1,.344-5.692Z" transform="translate(-27.032 -451.62)" fill="#344154"/>
            <path id="Trazado_110063" data-name="Trazado 110063" d="M78.239,987.15a12.99,12.99,0,0,1-2.315,3.747l-.874,1.137-.242.317-.26-.266c-1.181-1.2-1.961-2.15-1.859-2.293s1.078.583,2.324,1.71h-.5l.781-1.2C76.7,988.409,78.155,987,78.239,987.15Z" transform="translate(-27.16 -451.656)" fill="#d9a171"/>
            <path id="Trazado_110064" data-name="Trazado 110064" d="M78.23,978.88c0-.235,7.762-.41,17.328-.41s17.346.174,17.346.41-7.753.409-17.346.409S78.23,979.094,78.23,978.88Z" transform="translate(-27.55 -451.863)" fill="#344154"/>
            <path id="Trazado_110065" data-name="Trazado 110065" d="M68.686,976.606A51.8,51.8,0,0,1,69,982.237l-.316-.348H73.78l-.372.41h0v-5.61l.316.358a36.941,36.941,0,0,1-5.094-.358,29.25,29.25,0,0,1,5.094-.348h.325v5.979h0c.335-.369-.456.5-.381.409H68.24v-.348a37.553,37.553,0,0,1,.446-5.774Z" transform="translate(-26.846 -451.913)" fill="#344154"/>
            <path id="Trazado_110066" data-name="Trazado 110066" d="M75.709,974.74a12.633,12.633,0,0,1-2.305,3.747l-.874,1.136-.242.317-.26-.266c-1.19-1.2-1.98-2.14-1.859-2.283s1.06.583,2.315,1.7h-.5l.837-1.167C74.259,976.03,75.589,974.6,75.709,974.74Z" transform="translate(-26.982 -451.951)" fill="#d9a171"/>
            <path id="Trazado_110067" data-name="Trazado 110067" d="M75.49,966.24c0-.235,7.762-.43,17.337-.43s17.328.195,17.328.43-7.762.41-17.328.41S75.49,966.455,75.49,966.24Z" transform="translate(-27.357 -452.164)" fill="#344154"/>
            <path id="Trazado_110068" data-name="Trazado 110068" d="M65.966,964.006a47.228,47.228,0,0,1,.325,5.621l-.325-.358h5.113l-.372.41h0V964.1l.325.358a40.755,40.755,0,0,1-5.113-.358,30.561,30.561,0,0,1,5.113-.369h.316v5.948h0l-.372.41H65.52v-.348a39.381,39.381,0,0,1,.446-5.734Z" transform="translate(-26.656 -452.213)" fill="#344154"/>
            <path id="Trazado_110069" data-name="Trazado 110069" d="M72.981,962.1a13.183,13.183,0,0,1-2.315,3.757l-.846,1.136-.242.3-.26-.256c-1.19-1.208-1.961-2.14-1.859-2.283s1.069.584,2.315,1.689h-.5l.846-1.157C71.522,963.4,72.823,962,72.981,962.1Z" transform="translate(-26.791 -452.252)" fill="#d9a171"/>
            <path id="Trazado_110070" data-name="Trazado 110070" d="M68.44,953.75c0-.215,7.762-.41,17.328-.41s17.337.194,17.337.41-7.762.42-17.337.42S68.44,954.016,68.44,953.75Z" transform="translate(-26.86 -452.46)" fill="#344154"/>
            <path id="Trazado_110071" data-name="Trazado 110071" d="M58.894,951.507a49.093,49.093,0,0,1,.325,5.61l-.325-.348H64l-.372.41h0v-5.6l.316.348a37.164,37.164,0,0,1-5.113-.348,29.48,29.48,0,0,1,5.113-.358h.344v5.917h0c.325-.358-.455.5-.372.42H58.56V957.2A39.412,39.412,0,0,1,58.894,951.507Z" transform="translate(-26.166 -452.51)" fill="#344154"/>
            <path id="Trazado_110072" data-name="Trazado 110072" d="M65.909,949.62a12.6,12.6,0,0,1-2.315,3.747l-.874,1.136-.223.317-.279-.266c-1.171-1.2-1.961-2.15-1.859-2.273s1.06.573,2.315,1.689h-.511l.846-1.167C64.412,950.931,65.76,949.477,65.909,949.62Z" transform="translate(-26.291 -452.549)" fill="#d9a171"/>
            <path id="Trazado_110073" data-name="Trazado 110073" d="M178.23,891.435h4.648l12.791-.092h43.7a13.815,13.815,0,0,1,9.017,1.894,20.862,20.862,0,0,1,7.158,7.074,46.51,46.51,0,0,1,5.578,16.626c1.023,5.621,1.748,11.026,2.361,16.309,1.273,10.422,2.045,19.872,3.56,27.642a87.232,87.232,0,0,0,5.485,17.538c.855,2.047,1.645,3.5,2.175,4.525q.363.7.614,1.136a2,2,0,0,1,.186.409,1.756,1.756,0,0,1-.251-.358l-.679-1.106q-1.262-2.163-2.315-4.464a85.017,85.017,0,0,1-5.81-17.712c-1.608-7.883-2.417-17.231-3.718-27.642-.651-5.2-1.432-10.658-2.408-16.248a45.978,45.978,0,0,0-5.512-16.381,20.136,20.136,0,0,0-6.833-6.818,13.189,13.189,0,0,0-8.59-1.812h0l-43.71-.235-12.791-.143-3.43-.072h-.93Z" transform="translate(-56.148 -453.939)" fill="#344154"/>
            <path id="Trazado_110074" data-name="Trazado 110074" d="M24.1,1025.465a8.792,8.792,0,0,0,1.218-.368,10.885,10.885,0,0,0,3.3-1.792,12.576,12.576,0,0,0,3.765-5.027,21.434,21.434,0,0,0,1.432-8.764,50.063,50.063,0,0,0-1.469-11.17,113.13,113.13,0,0,0-4.295-12.613c-.827-2.253-1.627-4.6-2.343-7.1a49.046,49.046,0,0,1-1.7-7.873,27.941,27.941,0,0,1,2.854-16.975,16.268,16.268,0,0,1,6.312-6.4,12.476,12.476,0,0,1,2.092-.87c.353-.092.716-.235,1.088-.317l1.134-.154a6.8,6.8,0,0,1,4.471,1.024A23.876,23.876,0,0,1,48.819,954a64.906,64.906,0,0,1,5.15,9A78.024,78.024,0,0,1,57.919,973.1a44.723,44.723,0,0,1,1.432,5.446c.316,1.894.455,3.768.716,5.662q.683,5.75,1.924,11.395,1.337,5.774,3.207,11.374a27.492,27.492,0,0,0,2.231,5.457,20.873,20.873,0,0,0,3.6,4.566,29.345,29.345,0,0,0,4.536,3.594,30.569,30.569,0,0,0,5.048,2.774,15.311,15.311,0,0,0,5.578,1.208c1.859,0,3.849-.235,5.726-.41a39.288,39.288,0,0,0,11.443-2.611,43.391,43.391,0,0,0,10.477-6.306,37.6,37.6,0,0,0,8.469-9.45,82.021,82.021,0,0,0,10.439-24.776,104.9,104.9,0,0,0,2.194-12.152c.465-4.1.688-8.19.995-12.234A226.994,226.994,0,0,1,138.72,932.7c.716-3.89,1.617-7.7,2.631-11.426a91.854,91.854,0,0,1,3.477-10.914,43.015,43.015,0,0,1,5.494-9.654,26.272,26.272,0,0,1,7.846-7.075h0A15.771,15.771,0,0,1,166.534,891a11.671,11.671,0,0,1,8,3.3,22.7,22.7,0,0,1,4.908,7.5,82.054,82.054,0,0,1,2.928,8.4,192.729,192.729,0,0,1,6.786,32.874c1.339,10.545,2.026,20.476,2.631,29.772s1.432,17.773,3.616,25.216a46.558,46.558,0,0,0,9.073,17.9,27.728,27.728,0,0,0,11.648,8.19,21.779,21.779,0,0,0,8.589,1.259,19.608,19.608,0,0,0,2.231-.3l.762-.113-.744.174a15.38,15.38,0,0,1-2.25.358,20.892,20.892,0,0,1-8.673-1.147,27.9,27.9,0,0,1-11.815-8.19,46.74,46.74,0,0,1-9.3-18.009c-2.175-7.422-3.086-16.012-3.718-25.216s-1.329-19.217-2.687-29.69a193.937,193.937,0,0,0-6.888-32.761,78.418,78.418,0,0,0-2.789-8.252,21.569,21.569,0,0,0-4.732-7.249,11.086,11.086,0,0,0-7.586-3.153,15.167,15.167,0,0,0-8.041,2.539h0a25.052,25.052,0,0,0-7.567,6.859,41.776,41.776,0,0,0-5.382,9.449,88.332,88.332,0,0,0-3.5,10.771c-1.013,3.726-1.906,7.5-2.621,11.364a230.06,230.06,0,0,0-2.789,23.834c-.3,4.095-.521,8.19-.985,12.285a109.175,109.175,0,0,1-2.2,12.285,83.2,83.2,0,0,1-10.532,25.032,37.986,37.986,0,0,1-8.58,9.675,43.962,43.962,0,0,1-10.653,6.4,40.7,40.7,0,0,1-11.657,2.662c-1.98.154-3.876.379-5.866.389a15.88,15.88,0,0,1-5.726-1.259A35.059,35.059,0,0,1,70.6,1017.6a20.8,20.8,0,0,1-3.718-4.72,27.917,27.917,0,0,1-2.287-5.61q-1.877-5.632-3.216-11.456-1.24-5.678-1.924-11.477a57.752,57.752,0,0,0-5.931-20.977,62.521,62.521,0,0,0-5.066-8.907,23.3,23.3,0,0,0-6.656-6.767c-2.594-1.751-5.726-.963-8.273.3a15.54,15.54,0,0,0-6.033,6.143,27.361,27.361,0,0,0-2.863,16.6,48.537,48.537,0,0,0,1.562,7.668c.7,2.457,1.432,4.73,2.3,7.064a110.22,110.22,0,0,1,4.295,12.705,50.449,50.449,0,0,1,1.432,11.262,21.642,21.642,0,0,1-1.6,8.866,12.813,12.813,0,0,1-3.876,5.068,10.91,10.91,0,0,1-3.365,1.73A6.891,6.891,0,0,1,24.1,1025.465Z" transform="translate(-23.712 -453.944)" fill="#344154"/>
            <path id="Trazado_110075" data-name="Trazado 110075" d="M125.667,1001.533s-.1,0-.26-.195-.418-.348-.716-.625A37.183,37.183,0,0,1,122.144,998a44.876,44.876,0,0,1-3.56-4.73,32.6,32.6,0,0,1-3.523-7.167,70.615,70.615,0,0,1-1.961-9.665c-.5-3.512-.93-7.279-1.515-11.19a42.853,42.853,0,0,0-3.43-11.753,21.792,21.792,0,0,0-3.44-5.242,7.64,7.64,0,0,0-2.305-1.976,11.473,11.473,0,0,0-2.854-.942,58.379,58.379,0,0,0-12.085-.676c-3.942,0-7.725.276-11.35.307l-19.243.195H40.367a5.465,5.465,0,0,1-1.227-.082,8.152,8.152,0,0,1,1.227-.092l3.523-.123,12.959-.317,19.233-.369c3.616,0,7.437-.3,11.36-.358a59.159,59.159,0,0,1,12.252.676,11.773,11.773,0,0,1,3.058,1.024,5.731,5.731,0,0,1,1.432.963c.39.379.772.758,1.134,1.177a22.6,22.6,0,0,1,3.551,5.436,43.527,43.527,0,0,1,3.458,12c.6,3.952.93,7.719,1.432,11.262a67.98,67.98,0,0,0,1.859,9.573,31.957,31.957,0,0,0,3.356,7.166,50.228,50.228,0,0,0,3.44,4.822c1.013,1.239,1.859,2.171,2.426,2.785a6.359,6.359,0,0,1,.827.829Z" transform="translate(-24.797 -452.688)" fill="#344154"/>
            <path id="Trazado_110076" data-name="Trazado 110076" d="M455.71,535.024a10.684,10.684,0,0,1,5.131-9.132,2.988,2.988,0,0,1,1.59-.492,1.421,1.421,0,0,1,1.32.932,1.912,1.912,0,0,1-.465,1.781,12.918,12.918,0,0,1-1.432,1.208,5.99,5.99,0,0,0-1.757,5.436" transform="translate(-103.198 -462.643)" fill="#b78876"/>
            <path id="Trazado_110077" data-name="Trazado 110077" d="M413.879,468.832c-13.636,1.119-23.887,14.165-22.933,29.188,1.311,21.274.93,50.166-8.366,67.765-15.971,30.448-39.926,35.833-38.114,96.738s4.295,67.314-6.758,83.05-35,7.6-45.448,43.45-3.068,215.1-19.661,234.039c0,0-13.507,14.179-27.628,12.849h79.36a24.561,24.561,0,0,0,18.276-7.863,23.7,23.7,0,0,0,6.293-16.442c0-12.285,3.718-186.678,9.835-201.575s38.114-30.069,42.929-64.407,3.17-89.909,3.133-99.9c0-9.46,1.673-28.021,18.183-49.654,25.1-32.7,21.65-68.451,22.208-80.624S440.9,466.59,440.9,466.59Z" transform="translate(-88.362 -464.042)" fill="#ebebeb"/>
            <path id="Trazado_110078" data-name="Trazado 110078" d="M404.43,493.336a7.966,7.966,0,0,1,6.113-6.064,7.365,7.365,0,0,1,7.571,3.546c2.361,3.778,1.859,9.46,4.992,12.449,2.017,1.9,4.936,2.048,7.595,1.986a111.225,111.225,0,0,0,24.885-3.4l-1.859-28.809s-39.713-3.85-44.546,3.338S404.43,493.336,404.43,493.336Z" transform="translate(-99.588 -463.912)" fill="#e0e0e0"/>
            <path id="Trazado_110079" data-name="Trazado 110079" d="M402.387,508.3c0-6.5,1.329-12.214,2.714-18.52,1.673-7.627,6.507-13.186,12.354-14.18,7.437-1.167,14.7,10.586,14.7,10.586s28.762-4.607,42.436-5.723c-1-3.921-8.18-14.036-13.349-15.265a59.278,59.278,0,0,0-15.738-.932c-9.445.276-19.215.645-27.749,5.119s-17.309,11-15.236,35.208" transform="translate(-99.43 -464.1)" fill="#f5f5f5"/>
            <path id="Trazado_110080" data-name="Trazado 110080" d="M459.855,465.92a5.61,5.61,0,0,1-1.432.184l-3.9.338c-3.291.266-7.846.645-12.875,1.229s-9.538,1.29-12.782,1.925l-3.839.768a7.516,7.516,0,0,1-1.422.236,7.632,7.632,0,0,1,1.422-.42c.93-.256,2.2-.573,3.821-.932a112.34,112.34,0,0,1,12.782-2.048c5.011-.491,9.575-.9,12.875-1.085l3.914-.174A8.435,8.435,0,0,1,459.855,465.92Z" transform="translate(-100.937 -464.058)" fill="#344154"/>
            <path id="Trazado_110081" data-name="Trazado 110081" d="M362.619,803.88c0,.235-12.178,2.406-27.191,4.863s-27.33,4.279-27.358,4.1,12.159-2.4,27.191-4.873S362.591,803.655,362.619,803.88Z" transform="translate(-78.817 -456.017)" fill="#344154"/>
            <path id="Trazado_110082" data-name="Trazado 110082" d="M366.05,797.477c0,.225-11.155.491-25.025.583S316,798.019,316,797.814s11.155-.491,25.025-.583S366.05,797.241,366.05,797.477Z" transform="translate(-79.921 -456.176)" fill="#344154"/>
            <path id="Trazado_110083" data-name="Trazado 110083" d="M248.91,1035.217l1.432-.2a26.474,26.474,0,0,0,3.979-.9,43.136,43.136,0,0,0,13.944-7.627,51.212,51.212,0,0,0,4.2-3.676,14.431,14.431,0,0,0,3.179-5.344,78.176,78.176,0,0,0,3.44-14.179q2.638-17.8,3.607-35.833c1.673-26.69,2.352-58.561,3.356-93.923.53-17.7,1.06-36.242,2.408-55.489.344-4.73.753-9.624,1.329-14.5a104.178,104.178,0,0,1,2.519-14.589c.716-2.385,1.543-4.73,2.361-7.085l1.534-3.389.772-1.7c.288-.533.614-1.024.93-1.577a37.585,37.585,0,0,1,9.342-11.262,52.125,52.125,0,0,1,12.252-7.167,79.4,79.4,0,0,0,12.364-6.143l1.432-1.024c.437-.369.855-.778,1.283-1.157l1.292-1.147,1.115-1.362c.353-.44.744-.88,1.1-1.331l.985-1.484a30.928,30.928,0,0,0,1.859-3.01,37.634,37.634,0,0,0,2.984-6.419,40.538,40.538,0,0,0,1.608-6.931,98.966,98.966,0,0,0,.725-14.18c0-4.73-.158-9.46-.3-14.026q-.5-13.883-.93-27.161c-.121-4.423-.363-8.774-.316-13.1v-6.429c0-2.13.2-4.239.288-6.307.093-4.208.772-8.3,1.218-12.357a101.955,101.955,0,0,1,2.575-11.692,77.322,77.322,0,0,1,9.054-20.476,190.843,190.843,0,0,1,11.992-16.38,148.858,148.858,0,0,0,10.579-15.07l2.138-3.757c.716-1.239,1.264-2.539,1.859-3.788a68.227,68.227,0,0,0,2.789-7.627,123.858,123.858,0,0,0,4.295-26.793c.456-7.463.446-13.309.418-17.21,0-1.955,0-3.45-.074-4.484a8.423,8.423,0,0,1,0-1.576s.158,2.048.242,6,.13,9.777-.288,17.241a122.587,122.587,0,0,1-4.276,26.8,71.448,71.448,0,0,1-2.789,7.709c-.614,1.239-1.162,2.58-1.859,3.808s-1.432,2.508-2.129,3.8a151.352,151.352,0,0,1-10.542,15.162,193.49,193.49,0,0,0-12.038,16.381,77.8,77.8,0,0,0-8.943,20.322,104.358,104.358,0,0,0-2.5,11.61c-.446,4.024-1.088,8.088-1.19,12.286-.084,2.048-.251,4.177-.288,6.306s0,4.259,0,6.409c0,4.29.223,8.672.335,13.084q.474,13.309.985,27.171c.139,4.617.3,9.3.3,14.036a97.227,97.227,0,0,1-.725,14.333,40.89,40.89,0,0,1-1.636,7.095,36.692,36.692,0,0,1-3.058,6.573c-.6,1.024-1.218,2.048-1.906,3.071l-.995,1.485c-.372.491-.781.932-1.153,1.4l-1.153,1.4-1.32,1.2c-.446.379-.874.809-1.348,1.167l-1.432,1.024a79.018,79.018,0,0,1-12.457,6.215,51.311,51.311,0,0,0-12.085,7.064,36.641,36.641,0,0,0-9.157,11.026c-.3.522-.632,1.024-.93,1.576l-.753,1.669-1.432,3.348c-.8,2.324-1.636,4.648-2.333,6.972a103.638,103.638,0,0,0-2.5,14.456c-.576,4.853-.995,9.675-1.348,14.487-1.348,19.176-1.859,37.737-2.436,55.418-1.041,35.372-1.776,67.253-3.523,93.964q-.993,18.094-3.718,36a77.2,77.2,0,0,1-3.533,14.333,14.4,14.4,0,0,1-3.272,5.467,51.963,51.963,0,0,1-4.295,3.665,42.389,42.389,0,0,1-14.028,7.525,22.352,22.352,0,0,1-4.007.819Z" transform="translate(-76.119 -463.143)" fill="#344154"/>
            <path id="Trazado_110085" data-name="Trazado 110085" d="M474.825,480.492a2.622,2.622,0,0,1-.8.184l-2.343.379-8.59,1.249-28.4,3.809-2.278.307h-.232l-.112-.2a40.175,40.175,0,0,0-4.778-6.624,12.307,12.307,0,0,0-6-3.778,11.143,11.143,0,0,0-6.228.41,11.468,11.468,0,0,0-4.648,3.153,22.943,22.943,0,0,0-4.286,7.464c-.335,1.024-.576,1.751-.716,2.283a6.979,6.979,0,0,1-.251.788,3.114,3.114,0,0,1,.1-.829q.247-1.194.6-2.355a22.291,22.291,0,0,1,4.118-7.75,12.151,12.151,0,0,1,4.806-3.4,11.335,11.335,0,0,1,12.922,3.43,39.648,39.648,0,0,1,4.9,6.726l-.362-.164,2.277-.307,28.437-3.573,8.58-1.024,2.352-.235A3.382,3.382,0,0,1,474.825,480.492Z" transform="translate(-99.64 -463.847)" fill="#344154"/>
            <path id="Trazado_110086" data-name="Trazado 110086" d="M459.265,537.634a2.045,2.045,0,0,1-1.171,1.8l-8.589,3.573c-1.311.553-3.068.962-3.886-.3a2.625,2.625,0,0,1,.344-2.918,6.41,6.41,0,0,1,2.426-1.577c3.309-1.577,6.926-3.071,10.281-4.587a.442.442,0,0,1,.372,0,.513.513,0,0,1,.26.294.551.551,0,0,1,0,.246Z" transform="translate(-102.468 -462.447)" fill="#b78876"/>
            <path id="Trazado_110087" data-name="Trazado 110087" d="M459.589,540.669a4.117,4.117,0,0,1-2.25,4.617l-7.967,3.368c-1.32.553-3.077.962-3.895-.276a2.614,2.614,0,0,1,.344-2.918,6.121,6.121,0,0,1,2.435-1.577c3.161-1.454,6.609-2.918,9.817-4.372a.952.952,0,0,1,.8-.006,1.1,1.1,0,0,1,.567.62.8.8,0,0,1,.056.215Z" transform="translate(-102.457 -462.309)" fill="#b78876"/>
            <path id="Trazado_110088" data-name="Trazado 110088" d="M458.074,545.243a5.976,5.976,0,0,1-3.263,6.8l-6.637,2.785c-1.32.553-3.077.962-3.9-.3a2.648,2.648,0,0,1,.344-2.918,6.448,6.448,0,0,1,2.445-1.577c3.532-1.577,7.437-3.276,10.96-4.9Z" transform="translate(-102.373 -462.173)" fill="#b78876"/>
            <path id="Trazado_110089" data-name="Trazado 110089" d="M417.829,618.25c0,.225-10.458,4.495-23.51,9.552s-23.7,9-23.77,8.774,10.458-4.484,23.51-9.552S417.755,617.994,417.829,618.25Z" transform="translate(-97.203 -460.433)" fill="#344154"/>
            <path id="Trazado_110090" data-name="Trazado 110090" d="M413.255,624.41a26.937,26.937,0,0,1-3.811,2.989c-2.4,1.751-5.717,4.1-9.566,6.563s-7.27,4.617-9.817,6.143a24.543,24.543,0,0,1-4.211,2.242A32.583,32.583,0,0,1,389.8,639.6l9.7-6.4,9.668-6.3A29.748,29.748,0,0,1,413.255,624.41Z" transform="translate(-96.241 -460.287)" fill="#344154"/>
          </g>
        </g>
      </g>
    </g>
  </g>
</svg>
