<svg xmlns="http://www.w3.org/2000/svg" width="505" height="548" viewBox="0 0 505 548">
  <g id="Grupo_70471" data-name="Grupo 70471" transform="translate(-915 -1013)">
    <g id="Grupo_70470" data-name="Grupo 70470" transform="translate(418.51 -331.504)">
      <rect id="Rectángulo_10402" data-name="Rectángulo 10402" width="198.535" height="141.244" transform="matrix(-0.259, -0.966, 0.966, -0.259, 676.298, 1596.841)" fill="#bcbec0"/>
      <rect id="Rectángulo_10403" data-name="Rectángulo 10403" width="198.535" height="141.274" transform="matrix(0.366, -0.931, 0.931, 0.366, 723.408, 1553.261)" fill="#d1d3d4"/>
      <path id="Trazado_117401" data-name="Trazado 117401" d="M12846.445,7241.816l-127.346-67.193,99.016-172.112,122.277,70.383Z" transform="translate(-11956.109 -5623.313)" fill="#e6e7e8"/>
      <g id="Grupo_59944" data-name="Grupo 59944" transform="translate(812.729 1395.567)">
        <rect id="Rectángulo_10404" data-name="Rectángulo 10404" width="6.054" height="119.354" transform="translate(50.901 5.251) rotate(-60.15)" fill="#bcbec0"/>
        <rect id="Rectángulo_10405" data-name="Rectángulo 10405" width="6.024" height="119.324" transform="matrix(0.497, -0.868, 0.868, 0.497, 44.325, 23.551)" fill="#bcbec0"/>
        <rect id="Rectángulo_10406" data-name="Rectángulo 10406" width="6.024" height="119.324" transform="matrix(0.497, -0.868, 0.868, 0.497, 30.872, 40.918)" fill="#bcbec0"/>
        <rect id="Rectángulo_10407" data-name="Rectángulo 10407" width="6.054" height="119.324" transform="matrix(0.497, -0.868, 0.868, 0.497, 22.149, 58.731)" fill="#bcbec0"/>
        <rect id="Rectángulo_10408" data-name="Rectángulo 10408" width="6.054" height="119.354" transform="matrix(0.497, -0.868, 0.868, 0.497, 12.113, 76.279)" fill="#bcbec0"/>
        <rect id="Rectángulo_10409" data-name="Rectángulo 10409" width="6.024" height="119.324" transform="matrix(0.497, -0.868, 0.868, 0.497, 0, 93.868)" fill="#bcbec0"/>
      </g>
    </g>
    <g id="Grupo_70465" data-name="Grupo 70465" transform="translate(915 1013)">
      <g id="Grupo_70225" data-name="Grupo 70225" transform="translate(0 0)">
        <rect id="Rectángulo_31121" data-name="Rectángulo 31121" width="505" height="548" fill="none"/>
      </g>
      <g id="Grupo_70464" data-name="Grupo 70464" transform="translate(41.546 50.577)">
        <g id="Grupo_70457" data-name="Grupo 70457" transform="translate(22.338 62.545)">
          <g id="Grupo_60404" data-name="Grupo 60404" transform="translate(61.636 80.117)">
            <path id="Trazado_120155" data-name="Trazado 120155" d="M13242.866,7851.354l-7.759,132.315a8.925,8.925,0,0,1-8.892,8.408l-238.155.725a8.937,8.937,0,0,1-8.97-8.9l-.3-103.025a8.91,8.91,0,0,1,8.958-8.957l146.47.494a8.909,8.909,0,0,0,6.318-2.593l25.379-25.146a8.986,8.986,0,0,1,6.265-2.594l61.744-.187a8.937,8.937,0,0,1,8.946,9.462Z" transform="translate(-12978.786 -7841.891)" fill="#d9a171"/>
            <path id="Trazado_120156" data-name="Trazado 120156" d="M13242.866,7851.354l-7.759,132.315a8.925,8.925,0,0,1-8.892,8.408l-238.155.725a8.937,8.937,0,0,1-8.97-8.9l-.3-103.025a8.91,8.91,0,0,1,8.958-8.957l146.47.494a8.909,8.909,0,0,0,6.318-2.593l25.379-25.146a8.986,8.986,0,0,1,6.265-2.594l61.744-.187a8.937,8.937,0,0,1,8.946,9.462Z" transform="translate(-12978.786 -7841.891)" opacity="0.3"/>
          </g>
          <g id="Grupo_60406" data-name="Grupo 60406" transform="translate(84.454 -32.988)">
            <g id="Grupo_60405" data-name="Grupo 60405" transform="translate(0 0)">
              <rect id="Rectángulo_10902" data-name="Rectángulo 10902" width="130.017" height="103.945" transform="translate(78.835 166.417) rotate(-127.326)" fill="#fff"/>
              <path id="Trazado_120157" data-name="Trazado 120157" d="M13063.406,7796.636s.122.176.374.5l1.1,1.44,4.229,5.6,15.97,21.081,56.471,74.33v-.353l-82.2,62.581h.4l-78.354-102.773v.329l59.559-45.522,16.618-12.738,4.4-3.364,1.5-1.175-1.5,1.1-4.4,3.3-16.651,12.606L12981.1,7859l-.2.154.144.187,78.286,102.838.176.231.22-.176h0l82.165-62.647.209-.153-.152-.208-56.767-74.308-16.058-20.958-4.244-5.5-1.1-1.406A5.434,5.434,0,0,1,13063.406,7796.636Z" transform="translate(-12883.822 -7766.264)" fill="#344154"/>
            </g>
            <rect id="Rectángulo_10903" data-name="Rectángulo 10903" width="120.159" height="90.32" transform="translate(178.063 188.801) rotate(-127.3)" fill="#344154"/>
            <path id="Trazado_120158" data-name="Trazado 120158" d="M13480.059,8162.636l19.231-67.4-43.631.594,4.175-25.4-52.533-3.386Z" transform="translate(-13301.902 -7973.198)" fill="#6595bf"/>
            <circle id="Elipse_4314" data-name="Elipse 4314" cx="9.463" cy="9.463" r="9.463" transform="translate(194.039 104.962) rotate(-172.23)" fill="#6595bf"/>
          </g>
          <g id="Grupo_60408" data-name="Grupo 60408" transform="translate(88.299 11.01)">
            <g id="Grupo_60407" data-name="Grupo 60407" transform="translate(0)">
              <rect id="Rectángulo_10904" data-name="Rectángulo 10904" width="143.811" height="179.882" transform="translate(5.922 152.145) rotate(-92.36)" fill="#fff"/>
              <path id="Trazado_120159" data-name="Trazado 120159" d="M13062.663,7803.023h.858l2.518-.087,9.737-.374,36.784-1.441,129.854-5.22-.274-.242c1.758,42.764,3.759,91.793,5.879,143.68h0l.275-.3-179.729,7.441.243.23c-1.825-43.3-3.3-79.2-4.4-104.267-.539-12.551-.969-22.4-1.264-29.1-.145-3.351-.267-5.924-.341-7.693s-.133-2.638-.133-2.638,0,.868.077,2.594.165,4.286.285,7.617c.266,6.7.648,16.486,1.1,29.059,1,25.114,2.439,61.064,4.165,104.41v.231h.241l179.729-7.353h.286v-.285h0c-2.2-51.886-4.166-100.915-5.935-143.679v-.253h-.253l-130.02,5.5-36.709,1.582-9.693.429-2.483.11Z" transform="translate(-13061.557 -7795.352)" fill="#344154"/>
            </g>
            <rect id="Rectángulo_10905" data-name="Rectángulo 10905" width="125.71" height="167.243" transform="translate(11.986 142.76) rotate(-92.36)" fill="#6595bf"/>
            <path id="Trazado_120160" data-name="Trazado 120160" d="M13606.959,8137.821l-61.549-75.67-34.179,50.325-25.608-25.1L13439.9,8144.7Z" transform="translate(-13426.816 -8002.648)" fill="#344154"/>
            <ellipse id="Elipse_4315" data-name="Elipse 4315" cx="13.167" cy="13.167" rx="13.167" ry="13.167" transform="matrix(-0.219, -0.976, 0.976, -0.219, 69.942, 67.251)" fill="#344154"/>
          </g>
          <g id="Grupo_60411" data-name="Grupo 60411" transform="translate(-9.349 19.214)">
            <path id="Trazado_120161" data-name="Trazado 120161" d="M13413.054,8071.191l243.439,33.521-25.826,178.31-241.464-34.015Z" transform="translate(-13374.08 -8029.142)" fill="#aed3f2"/>
            <path id="Trazado_120162" data-name="Trazado 120162" d="M13428.319,8050.952l240.693,49.874L13631.2,8277l-238.6-50.239Z" transform="translate(-13390.336 -8031.147)" fill="#839eb6"/>
            <g id="Grupo_60410" data-name="Grupo 60410">
              <g id="Grupo_60409" data-name="Grupo 60409">
                <path id="Trazado_120163" data-name="Trazado 120163" d="M13440.1,8032.961l231.9,81.572-61,169.542-229.7-81.65Z" transform="translate(-13380.905 -8032.928)" fill="#fff"/>
                <path id="Trazado_120164" data-name="Trazado 120164" d="M13069.187,7820.3l-59.117,169.387-.077.22.219.077,229.88,81.67.264.1.1-.274c.144-.385.287-.813.441-1.231l60.446-168.319.089-.253-.253-.078-231.9-81.329,231.747,81.813-.166-.329-60.526,168.3-.438,1.242.362-.176-229.789-81.605.131.3C13046.106,7887.137,13068.638,7822.173,13069.187,7820.3Z" transform="translate(-13009.992 -7820.271)" fill="#344154"/>
              </g>
              <path id="Trazado_120165" data-name="Trazado 120165" d="M13183.4,7979.965c.44.166,11.584-28.751,24.871-64.58s23.707-65.008,23.268-65.174-11.584,28.741-24.882,64.581S13182.964,7979.8,13183.4,7979.965Z" transform="translate(-13130.691 -7817.306)" fill="#344154"/>
              <path id="Trazado_120166" data-name="Trazado 120166" d="M13165.4,7988.194c.451.166,11.584-28.751,24.871-64.569s23.719-65.02,23.268-65.185-11.574,28.752-24.872,64.58S13164.965,7988.03,13165.4,7988.194Z" transform="translate(-13092.909 -7816.49)" fill="#344154"/>
              <path id="Trazado_120167" data-name="Trazado 120167" d="M13109.5,8011.626c.451.164,11.584-28.751,24.871-64.581s23.719-65.009,23.268-65.174-11.572,28.74-24.873,64.58S13109.064,8011.46,13109.5,8011.626Z" transform="translate(-12975.571 -7814.169)" fill="#344154"/>
              <path id="Trazado_120168" data-name="Trazado 120168" d="M13127.3,8004.445c.441.165,11.585-28.751,24.872-64.58s23.708-65.01,23.267-65.174-11.583,28.739-24.881,64.58S13126.864,8004.28,13127.3,8004.445Z" transform="translate(-13012.935 -7814.88)" fill="#344154"/>
              <path id="Trazado_120169" data-name="Trazado 120169" d="M13145.105,7997.265c.45.166,11.584-28.751,24.871-64.569s23.707-65.02,23.267-65.184-11.583,28.751-24.871,64.58S13144.666,7997.1,13145.105,7997.265Z" transform="translate(-13050.299 -7815.593)" fill="#344154"/>
              <path id="Trazado_120170" data-name="Trazado 120170" d="M13088.8,8017.565c.45.166,11.584-28.751,24.871-64.58s23.719-65.008,23.268-65.173-11.572,28.74-24.872,64.58S13088.362,8017.4,13088.8,8017.565Z" transform="translate(-12932.119 -7813.582)" fill="#344154"/>
              <path id="Trazado_120171" data-name="Trazado 120171" d="M13069.01,8024.805c.441.165,11.584-28.751,24.871-64.57s23.707-65.02,23.268-65.185-11.584,28.751-24.871,64.58S13068.461,8024.684,13069.01,8024.805Z" transform="translate(-12890.567 -7812.864)" fill="#344154"/>
              <path id="Trazado_120172" data-name="Trazado 120172" d="M13049.3,8032.046c.44.165,11.583-28.752,24.871-64.57s23.708-65.02,23.267-65.186-11.584,28.752-24.881,64.592S13048.865,8031.88,13049.3,8032.046Z" transform="translate(-12849.208 -7812.146)" fill="#344154"/>
            </g>
          </g>
          <path id="Trazado_120173" data-name="Trazado 120173" d="M13272.031,7916.98l-19.454,162.22a5.758,5.758,0,0,1-5.691,5.067l-253.6.77a5.747,5.747,0,0,1-5.748-5.275l-13.256-162.111a5.75,5.75,0,0,1,5.7-6.221l286.239-.868a5.737,5.737,0,0,1,5.8,6.418Z" transform="translate(-12946.339 -7754.989)" fill="#d9a171"/>
        </g>
        <g id="Grupo_70460" data-name="Grupo 70460" transform="translate(323.231 245.909)">
          <g id="Grupo_60398" data-name="Grupo 60398">
            <path id="Trazado_120133" data-name="Trazado 120133" d="M13168.636,8098.02,13166.4,8334.6h98.678V8101.245Z" transform="translate(-13166.4 -8098.02)" fill="#cee5f7"/>
            <path id="Trazado_120134" data-name="Trazado 120134" d="M13167.354,8099.78l-.953,235.015h49.338V8101.228Z" transform="translate(-13117.061 -8098.21)" fill="#aed3f2"/>
            <g id="Grupo_60391" data-name="Grupo 60391" transform="translate(4.462 2.579)">
              <path id="Trazado_120135" data-name="Trazado 120135" d="M13210.2,8100.91v29.263h39.177v-27.889Z" transform="translate(-13210.201 -8100.91)" fill="#839eb6"/>
              <g id="Grupo_60390" data-name="Grupo 60390" transform="translate(13.475 7.657)">
                <path id="Trazado_120136" data-name="Trazado 120136" d="M13225.6,8109.883v4.319h11.959v-4.712Z" transform="translate(-13225.6 -8109.49)" fill="#aed3f2"/>
                <rect id="Rectángulo_10889" data-name="Rectángulo 10889" width="12.378" height="1.767" transform="translate(0.027 8.353)" fill="#aed3f2"/>
              </g>
            </g>
            <g id="Grupo_60393" data-name="Grupo 60393" transform="translate(4.462 121.408)">
              <path id="Trazado_120137" data-name="Trazado 120137" d="M13210.2,8215.83V8245.1h39.177v-27.889Z" transform="translate(-13210.201 -8215.83)" fill="#839eb6"/>
              <g id="Grupo_60392" data-name="Grupo 60392" transform="translate(13.475 7.657)">
                <path id="Trazado_120138" data-name="Trazado 120138" d="M13225.6,8224.8v4.328h11.959v-4.721Z" transform="translate(-13225.6 -8224.41)" fill="#aed3f2"/>
                <rect id="Rectángulo_10890" data-name="Rectángulo 10890" width="12.378" height="1.767" transform="translate(0.027 8.353)" fill="#aed3f2"/>
              </g>
            </g>
            <g id="Grupo_60395" data-name="Grupo 60395" transform="translate(4.462 41.077)">
              <path id="Trazado_120139" data-name="Trazado 120139" d="M13210.2,8137.88v29.263h39.177v-27.879Z" transform="translate(-13210.201 -8137.88)" fill="#839eb6"/>
              <g id="Grupo_60394" data-name="Grupo 60394" transform="translate(13.475 7.657)">
                <path id="Trazado_120140" data-name="Trazado 120140" d="M13225.6,8146.853v4.32h11.959v-4.712Z" transform="translate(-13225.6 -8146.46)" fill="#aed3f2"/>
                <rect id="Rectángulo_10891" data-name="Rectángulo 10891" width="12.378" height="1.767" transform="translate(0.027 8.353)" fill="#aed3f2"/>
              </g>
            </g>
            <g id="Grupo_60396" data-name="Grupo 60396" transform="translate(4.462 159.505)">
              <path id="Trazado_120141" data-name="Trazado 120141" d="M13210.2,8252.8v29.263h39.177v-27.889Z" transform="translate(-13210.201 -8252.8)" fill="#839eb6"/>
              <path id="Trazado_120142" data-name="Trazado 120142" d="M13225.6,8261.772v4.319h11.959v-4.712Z" transform="translate(-13212.124 -8253.723)" fill="#aed3f2"/>
              <rect id="Rectángulo_10892" data-name="Rectángulo 10892" width="12.378" height="1.767" transform="translate(13.503 16.011)" fill="#aed3f2"/>
            </g>
            <g id="Grupo_60397" data-name="Grupo 60397" transform="translate(4.016 198.897)">
              <path id="Trazado_120143" data-name="Trazado 120143" d="M13210.7,8289.76v29.271h39.178v-27.889Z" transform="translate(-13210.701 -8289.76)" fill="#839eb6"/>
              <path id="Trazado_120144" data-name="Trazado 120144" d="M13226,8298.732v4.328h12.049v-4.721Z" transform="translate(-13212.524 -8290.683)" fill="#aed3f2"/>
              <rect id="Rectángulo_10893" data-name="Rectángulo 10893" width="12.378" height="1.767" transform="translate(13.503 16.011)" fill="#aed3f2"/>
            </g>
          </g>
          <g id="Grupo_60399" data-name="Grupo 60399" transform="translate(3.927 81.546)">
            <rect id="Rectángulo_10894" data-name="Rectángulo 10894" width="39.178" height="29.272" transform="translate(0)" fill="#839eb6"/>
            <path id="Trazado_120145" data-name="Trazado 120145" d="M13226.7,8191.885v4.061h11.245v-4.436Z" transform="translate(-13212.957 -8178.694)" fill="#aed3f2"/>
            <rect id="Rectángulo_10895" data-name="Rectángulo 10895" width="11.637" height="1.66" transform="translate(13.797 20.669)" fill="#aed3f2"/>
          </g>
        </g>
        <g id="Grupo_70461" data-name="Grupo 70461" transform="translate(81.463 440.501)">
          <path id="Trazado_120146" data-name="Trazado 120146" d="M13606.045,8303.45v25.506H13527.6V8303.45Z" transform="translate(-13524.833 -8296.311)" fill="#aed3f2"/>
          <path id="Trazado_120147" data-name="Trazado 120147" d="M13608.413,8295.45v7.14H13523.9v-7.14h84.513Z" transform="translate(-13523.9 -8295.45)" fill="#839eb6"/>
          <path id="Trazado_120148" data-name="Trazado 120148" d="M13611.612,8328.1h-39.445V8302.59h-2.767v-7.14h43.907v6.479Z" transform="translate(-13569.4 -8295.45)" fill="#839eb6"/>
          <rect id="Rectángulo_10896" data-name="Rectángulo 10896" width="15.912" height="3.837" transform="translate(54.322 11.253)" fill="#839eb6"/>
          <rect id="Rectángulo_10897" data-name="Rectángulo 10897" width="20.428" height="8.112" transform="translate(51.859 19.892)" fill="#fff"/>
        </g>
        <g id="Grupo_70462" data-name="Grupo 70462" transform="translate(-33.919 407.855)">
          <path id="Trazado_120149" data-name="Trazado 120149" d="M13719.646,8266.87v25.506H13641.2V8266.87Z" transform="translate(-13638.435 -8259.73)" fill="#aed3f2"/>
          <path id="Trazado_120150" data-name="Trazado 120150" d="M13722.014,8258.87v7.14H13637.5v-7.14h84.514Z" transform="translate(-13637.5 -8258.87)" fill="#839eb6"/>
          <path id="Trazado_120151" data-name="Trazado 120151" d="M13725.211,8291.516h-39.445V8266.01H13683v-7.14h43.908v6.479Z" transform="translate(-13682.999 -8258.87)" fill="#839eb6"/>
          <rect id="Rectángulo_10898" data-name="Rectángulo 10898" width="15.912" height="3.837" transform="translate(54.323 11.254)" fill="#839eb6"/>
          <rect id="Rectángulo_10899" data-name="Rectángulo 10899" width="20.428" height="8.112" transform="translate(51.859 19.892)" fill="#fff"/>
        </g>
        <g id="Grupo_70463" data-name="Grupo 70463" transform="translate(-16.17 440.501)">
          <path id="Trazado_120152" data-name="Trazado 120152" d="M13715.445,8303.45v25.506H13637V8303.45Z" transform="translate(-13634.233 -8296.311)" fill="#aed3f2"/>
          <path id="Trazado_120153" data-name="Trazado 120153" d="M13717.814,8295.45v7.14H13633.3v-7.14h84.514Z" transform="translate(-13633.301 -8295.45)" fill="#839eb6"/>
          <path id="Trazado_120154" data-name="Trazado 120154" d="M13721.013,8328.1h-39.445V8302.59h-2.767v-7.14h43.908v6.479Z" transform="translate(-13678.801 -8295.45)" fill="#839eb6"/>
          <rect id="Rectángulo_10900" data-name="Rectángulo 10900" width="15.912" height="3.837" transform="translate(54.323 11.253)" fill="#839eb6"/>
          <rect id="Rectángulo_10901" data-name="Rectángulo 10901" width="20.428" height="8.112" transform="translate(51.859 19.892)" fill="#fff"/>
        </g>
        <g id="freepik--background-simple--inject-358" transform="translate(243.421 482.494)">
          <path id="Trazado_121072" data-name="Trazado 121072" d="M13104.4,8163.46" transform="translate(-13104.4 -8163.46)" fill="#6595bf"/>
          <path id="Trazado_121073" data-name="Trazado 121073" d="M13104.4,8163.46" transform="translate(-13104.4 -8163.46)" fill="#ffbf9d" opacity="0.75"/>
        </g>
      </g>
      <g id="Grupo_70466" data-name="Grupo 70466" transform="translate(380.309 38.213)">
        <g id="Grupo_62584" data-name="Grupo 62584">
          <g id="Grupo_62578" data-name="Grupo 62578">
            <g id="Grupo_62577" data-name="Grupo 62577">
              <path id="Trazado_132423" data-name="Trazado 132423" d="M476.474,342.662a41.573,41.573,0,1,1-24.91-53.18A41.528,41.528,0,0,1,476.474,342.662Z" transform="translate(-395.827 -286.967)" fill="#f5f5f5"/>
            </g>
          </g>
          <g id="Grupo_62580" data-name="Grupo 62580" transform="translate(9.892 9.874)">
            <g id="Grupo_62579" data-name="Grupo 62579">
              <path id="Trazado_132424" data-name="Trazado 132424" d="M466.018,338.128A31.681,31.681,0,1,1,447.036,297.6,31.646,31.646,0,0,1,466.018,338.128Z" transform="translate(-404.561 -295.684)" fill="#ebebeb"/>
            </g>
          </g>
          <g id="Grupo_62583" data-name="Grupo 62583" transform="translate(11.443 8.698)">
            <g id="Grupo_62582" data-name="Grupo 62582">
              <g id="Grupo_62581" data-name="Grupo 62581">
                <path id="Trazado_132425" data-name="Trazado 132425" d="M466.168,337.331c-.182-.06.165-1.412.514-3.868a33.636,33.636,0,0,0-.119-10.374,32.443,32.443,0,0,0-1.977-6.843,31.694,31.694,0,0,0-4.074-7.045,31.089,31.089,0,0,0-6.414-6.259,30.745,30.745,0,0,0-4.043-2.485,33.662,33.662,0,0,0-4.511-1.888,34.144,34.144,0,0,0-4.751-1.154,30.922,30.922,0,0,0-4.731-.394,31.087,31.087,0,0,0-8.878,1.24,31.713,31.713,0,0,0-7.455,3.263,32.472,32.472,0,0,0-5.647,4.341,33.629,33.629,0,0,0-6.239,8.286c-1.172,2.184-1.693,3.481-1.876,3.418-.136-.042.079-1.443,1.021-3.82a29.278,29.278,0,0,1,5.87-9.088,31.744,31.744,0,0,1,13.674-8.537,30.555,30.555,0,0,1,4.6-1.081,30.978,30.978,0,0,1,4.925-.4,32.242,32.242,0,0,1,5.109.389,32.454,32.454,0,0,1,9.991,3.279,32.3,32.3,0,0,1,4.345,2.716,32.242,32.242,0,0,1,6.8,6.835,31.734,31.734,0,0,1,5.959,14.98,29.351,29.351,0,0,1-.654,10.8C466.96,336.12,466.3,337.376,466.168,337.331Z" transform="translate(-405.93 -294.646)" fill="#e0e0e0"/>
              </g>
            </g>
          </g>
        </g>
        <g id="Grupo_62588" data-name="Grupo 62588" transform="translate(23.489 20.326)">
          <g id="Grupo_62587" data-name="Grupo 62587">
            <g id="Grupo_62586" data-name="Grupo 62586">
              <g id="Grupo_62585" data-name="Grupo 62585">
                <path id="Trazado_132426" data-name="Trazado 132426" d="M431.565,345.07l-1.809,5.213-4.654-1.616,1.76-5.073c-4.51-1.879-8.432-4.856-10.3-7.746l4.529-4.791a19.924,19.924,0,0,0,7.884,6.439l2.7-7.774c-4.731-3.048-9.9-6.774-7.594-13.431,1.713-4.935,6.766-7.926,14.412-6.211l1.793-5.167,4.655,1.615-1.761,5.075a22.274,22.274,0,0,1,8.463,6.117l-4.314,4.919a20.19,20.19,0,0,0-6.282-4.894L438.3,325.66c4.746,3,9.827,6.7,7.549,13.259C444.172,343.76,439.179,346.721,431.565,345.07Zm2.487-22.191,2.292-6.609c-2.659-.3-4.106.714-4.639,2.249C431.14,320.147,432.229,321.519,434.052,322.879Zm4.113,14c.565-1.631-.478-2.982-2.237-4.377l-2.229,6.424C436.2,339.221,437.647,338.367,438.164,336.877Z" transform="translate(-416.565 -304.912)" fill="#e0e0e0"/>
              </g>
            </g>
          </g>
        </g>
      </g>
      <g id="Grupo_70467" data-name="Grupo 70467" transform="translate(402.367 210.889) rotate(2)">
        <g id="Grupo_62584-2" data-name="Grupo 62584">
          <g id="Grupo_62578-2" data-name="Grupo 62578">
            <g id="Grupo_62577-2" data-name="Grupo 62577">
              <path id="Trazado_132423-2" data-name="Trazado 132423" d="M455.115,327.911A30.562,30.562,0,1,1,436.8,288.816,30.529,30.529,0,0,1,455.115,327.911Z" transform="translate(-395.827 -286.967)" fill="#f5f5f5"/>
            </g>
          </g>
          <g id="Grupo_62580-2" data-name="Grupo 62580" transform="translate(7.272 7.259)">
            <g id="Grupo_62579-2" data-name="Grupo 62579">
              <path id="Trazado_132424-2" data-name="Trazado 132424" d="M449.741,326.887a23.29,23.29,0,1,1-13.954-29.793A23.264,23.264,0,0,1,449.741,326.887Z" transform="translate(-404.561 -295.684)" fill="#ebebeb"/>
            </g>
          </g>
          <g id="Grupo_62583-2" data-name="Grupo 62583" transform="translate(8.412 6.394)">
            <g id="Grupo_62582-2" data-name="Grupo 62582">
              <g id="Grupo_62581-2" data-name="Grupo 62581">
                <path id="Trazado_132425-2" data-name="Trazado 132425" d="M450.214,326.025a13.834,13.834,0,0,1,.378-2.844,24.728,24.728,0,0,0-.087-7.626,23.852,23.852,0,0,0-1.453-5.031,23.3,23.3,0,0,0-3-5.179,22.858,22.858,0,0,0-4.715-4.6,22.6,22.6,0,0,0-2.973-1.827,24.752,24.752,0,0,0-3.316-1.388,25.1,25.1,0,0,0-3.493-.848,22.734,22.734,0,0,0-3.478-.29,22.855,22.855,0,0,0-6.526.912,23.314,23.314,0,0,0-5.481,2.4,23.872,23.872,0,0,0-4.152,3.192,24.722,24.722,0,0,0-4.586,6.092,13.686,13.686,0,0,1-1.379,2.513,6.825,6.825,0,0,1,.75-2.809,21.524,21.524,0,0,1,4.316-6.681,23.336,23.336,0,0,1,10.053-6.276,22.465,22.465,0,0,1,3.384-.794,22.774,22.774,0,0,1,3.62-.292,23.7,23.7,0,0,1,3.756.286,23.859,23.859,0,0,1,7.345,2.41,23.751,23.751,0,0,1,3.194,2,23.7,23.7,0,0,1,5,5.025,23.329,23.329,0,0,1,4.381,11.013,21.577,21.577,0,0,1-.48,7.94A6.834,6.834,0,0,1,450.214,326.025Z" transform="translate(-405.93 -294.646)" fill="#e0e0e0"/>
              </g>
            </g>
          </g>
        </g>
        <g id="Grupo_62588-2" data-name="Grupo 62588" transform="translate(17.268 14.942)">
          <g id="Grupo_62587-2" data-name="Grupo 62587">
            <g id="Grupo_62586-2" data-name="Grupo 62586">
              <g id="Grupo_62585-2" data-name="Grupo 62585">
                <path id="Trazado_132426-2" data-name="Trazado 132426" d="M427.592,334.434l-1.33,3.833-3.421-1.188,1.294-3.729a17.166,17.166,0,0,1-7.57-5.695l3.33-3.522a14.647,14.647,0,0,0,5.8,4.734l1.983-5.715c-3.478-2.241-7.282-4.98-5.583-9.874,1.259-3.628,4.974-5.827,10.595-4.566l1.318-3.8,3.422,1.187-1.295,3.731a16.375,16.375,0,0,1,6.222,4.5l-3.172,3.616a14.842,14.842,0,0,0-4.618-3.6l-2.018,5.819c3.489,2.207,7.224,4.924,5.55,9.747C436.86,333.471,433.19,335.648,427.592,334.434Zm1.829-16.313,1.685-4.859c-1.955-.219-3.018.525-3.411,1.654C427.28,316.112,428.081,317.12,429.42,318.12Zm3.023,10.291c.415-1.2-.351-2.192-1.644-3.217l-1.639,4.723C431,330.134,432.063,329.506,432.444,328.411Z" transform="translate(-416.565 -304.912)" fill="#e0e0e0"/>
              </g>
            </g>
          </g>
        </g>
      </g>
      <g id="Grupo_70468" data-name="Grupo 70468" transform="translate(57.93 413.589) rotate(-31)">
        <g id="Grupo_62584-3" data-name="Grupo 62584">
          <g id="Grupo_62578-3" data-name="Grupo 62578">
            <g id="Grupo_62577-3" data-name="Grupo 62577">
              <path id="Trazado_132423-3" data-name="Trazado 132423" d="M455.115,327.911A30.562,30.562,0,1,1,436.8,288.816,30.529,30.529,0,0,1,455.115,327.911Z" transform="translate(-395.827 -286.967)" fill="#f5f5f5"/>
            </g>
          </g>
          <g id="Grupo_62580-3" data-name="Grupo 62580" transform="translate(7.272 7.259)">
            <g id="Grupo_62579-3" data-name="Grupo 62579">
              <path id="Trazado_132424-3" data-name="Trazado 132424" d="M449.741,326.887a23.29,23.29,0,1,1-13.954-29.793A23.264,23.264,0,0,1,449.741,326.887Z" transform="translate(-404.561 -295.684)" fill="#ebebeb"/>
            </g>
          </g>
          <g id="Grupo_62583-3" data-name="Grupo 62583" transform="translate(8.412 6.394)">
            <g id="Grupo_62582-3" data-name="Grupo 62582">
              <g id="Grupo_62581-3" data-name="Grupo 62581">
                <path id="Trazado_132425-3" data-name="Trazado 132425" d="M450.214,326.025a13.834,13.834,0,0,1,.378-2.844,24.728,24.728,0,0,0-.087-7.626,23.852,23.852,0,0,0-1.453-5.031,23.3,23.3,0,0,0-3-5.179,22.858,22.858,0,0,0-4.715-4.6,22.6,22.6,0,0,0-2.973-1.827,24.752,24.752,0,0,0-3.316-1.388,25.1,25.1,0,0,0-3.493-.848,22.734,22.734,0,0,0-3.478-.29,22.855,22.855,0,0,0-6.526.912,23.314,23.314,0,0,0-5.481,2.4,23.872,23.872,0,0,0-4.152,3.192,24.722,24.722,0,0,0-4.586,6.092,13.686,13.686,0,0,1-1.379,2.513,6.825,6.825,0,0,1,.75-2.809,21.524,21.524,0,0,1,4.316-6.681,23.336,23.336,0,0,1,10.053-6.276,22.465,22.465,0,0,1,3.384-.794,22.774,22.774,0,0,1,3.62-.292,23.7,23.7,0,0,1,3.756.286,23.859,23.859,0,0,1,7.345,2.41,23.751,23.751,0,0,1,3.194,2,23.7,23.7,0,0,1,5,5.025,23.329,23.329,0,0,1,4.381,11.013,21.577,21.577,0,0,1-.48,7.94A6.834,6.834,0,0,1,450.214,326.025Z" transform="translate(-405.93 -294.646)" fill="#e0e0e0"/>
              </g>
            </g>
          </g>
        </g>
        <g id="Grupo_62588-3" data-name="Grupo 62588" transform="translate(17.268 14.942)">
          <g id="Grupo_62587-3" data-name="Grupo 62587">
            <g id="Grupo_62586-3" data-name="Grupo 62586">
              <g id="Grupo_62585-3" data-name="Grupo 62585">
                <path id="Trazado_132426-3" data-name="Trazado 132426" d="M427.592,334.434l-1.33,3.833-3.421-1.188,1.294-3.729a17.166,17.166,0,0,1-7.57-5.695l3.33-3.522a14.647,14.647,0,0,0,5.8,4.734l1.983-5.715c-3.478-2.241-7.282-4.98-5.583-9.874,1.259-3.628,4.974-5.827,10.595-4.566l1.318-3.8,3.422,1.187-1.295,3.731a16.375,16.375,0,0,1,6.222,4.5l-3.172,3.616a14.842,14.842,0,0,0-4.618-3.6l-2.018,5.819c3.489,2.207,7.224,4.924,5.55,9.747C436.86,333.471,433.19,335.648,427.592,334.434Zm1.829-16.313,1.685-4.859c-1.955-.219-3.018.525-3.411,1.654C427.28,316.112,428.081,317.12,429.42,318.12Zm3.023,10.291c.415-1.2-.351-2.192-1.644-3.217l-1.639,4.723C431,330.134,432.063,329.506,432.444,328.411Z" transform="translate(-416.565 -304.912)" fill="#e0e0e0"/>
              </g>
            </g>
          </g>
        </g>
      </g>
      <g id="Grupo_70469" data-name="Grupo 70469" transform="matrix(0.839, -0.545, 0.545, 0.839, 30.592, 87.502)">
        <g id="Grupo_62584-4" data-name="Grupo 62584">
          <g id="Grupo_62578-4" data-name="Grupo 62578">
            <g id="Grupo_62577-4" data-name="Grupo 62577">
              <path id="Trazado_132423-4" data-name="Trazado 132423" d="M455.115,327.911A30.562,30.562,0,1,1,436.8,288.816,30.529,30.529,0,0,1,455.115,327.911Z" transform="translate(-395.827 -286.967)" fill="#f5f5f5"/>
            </g>
          </g>
          <g id="Grupo_62580-4" data-name="Grupo 62580" transform="translate(7.272 7.259)">
            <g id="Grupo_62579-4" data-name="Grupo 62579">
              <path id="Trazado_132424-4" data-name="Trazado 132424" d="M449.741,326.887a23.29,23.29,0,1,1-13.954-29.793A23.264,23.264,0,0,1,449.741,326.887Z" transform="translate(-404.561 -295.684)" fill="#ebebeb"/>
            </g>
          </g>
          <g id="Grupo_62583-4" data-name="Grupo 62583" transform="translate(8.412 6.394)">
            <g id="Grupo_62582-4" data-name="Grupo 62582">
              <g id="Grupo_62581-4" data-name="Grupo 62581">
                <path id="Trazado_132425-4" data-name="Trazado 132425" d="M450.214,326.025a13.834,13.834,0,0,1,.378-2.844,24.728,24.728,0,0,0-.087-7.626,23.852,23.852,0,0,0-1.453-5.031,23.3,23.3,0,0,0-3-5.179,22.858,22.858,0,0,0-4.715-4.6,22.6,22.6,0,0,0-2.973-1.827,24.752,24.752,0,0,0-3.316-1.388,25.1,25.1,0,0,0-3.493-.848,22.734,22.734,0,0,0-3.478-.29,22.855,22.855,0,0,0-6.526.912,23.314,23.314,0,0,0-5.481,2.4,23.872,23.872,0,0,0-4.152,3.192,24.722,24.722,0,0,0-4.586,6.092,13.686,13.686,0,0,1-1.379,2.513,6.825,6.825,0,0,1,.75-2.809,21.524,21.524,0,0,1,4.316-6.681,23.336,23.336,0,0,1,10.053-6.276,22.465,22.465,0,0,1,3.384-.794,22.774,22.774,0,0,1,3.62-.292,23.7,23.7,0,0,1,3.756.286,23.859,23.859,0,0,1,7.345,2.41,23.751,23.751,0,0,1,3.194,2,23.7,23.7,0,0,1,5,5.025,23.329,23.329,0,0,1,4.381,11.013,21.577,21.577,0,0,1-.48,7.94A6.834,6.834,0,0,1,450.214,326.025Z" transform="translate(-405.93 -294.646)" fill="#e0e0e0"/>
              </g>
            </g>
          </g>
        </g>
        <g id="Grupo_62588-4" data-name="Grupo 62588" transform="translate(17.268 14.942)">
          <g id="Grupo_62587-4" data-name="Grupo 62587">
            <g id="Grupo_62586-4" data-name="Grupo 62586">
              <g id="Grupo_62585-4" data-name="Grupo 62585">
                <path id="Trazado_132426-4" data-name="Trazado 132426" d="M427.592,334.434l-1.33,3.833-3.421-1.188,1.294-3.729a17.166,17.166,0,0,1-7.57-5.695l3.33-3.522a14.647,14.647,0,0,0,5.8,4.734l1.983-5.715c-3.478-2.241-7.282-4.98-5.583-9.874,1.259-3.628,4.974-5.827,10.595-4.566l1.318-3.8,3.422,1.187-1.295,3.731a16.375,16.375,0,0,1,6.222,4.5l-3.172,3.616a14.842,14.842,0,0,0-4.618-3.6l-2.018,5.819c3.489,2.207,7.224,4.924,5.55,9.747C436.86,333.471,433.19,335.648,427.592,334.434Zm1.829-16.313,1.685-4.859c-1.955-.219-3.018.525-3.411,1.654C427.28,316.112,428.081,317.12,429.42,318.12Zm3.023,10.291c.415-1.2-.351-2.192-1.644-3.217l-1.639,4.723C431,330.134,432.063,329.506,432.444,328.411Z" transform="translate(-416.565 -304.912)" fill="#e0e0e0"/>
              </g>
            </g>
          </g>
        </g>
      </g>
    </g>
  </g>
</svg>
