<svg xmlns="http://www.w3.org/2000/svg" xmlns:xlink="http://www.w3.org/1999/xlink" width="505" height="383.071" viewBox="0 0 505 383.071">
  <defs>
    <clipPath id="clip-path">
      <path id="Trazado_141553" data-name="Trazado 141553" d="M254.91,398.389a16.887,16.887,0,1,1-4.282-23.5A16.9,16.9,0,0,1,254.91,398.389Z" transform="translate(-224.121 -371.887)" fill="#a77d59" stroke="#263238" stroke-linecap="round" stroke-linejoin="round" stroke-width="1"/>
    </clipPath>
    <clipPath id="clip-path-2">
      <path id="Trazado_141585" data-name="Trazado 141585" d="M422.385,93.447,409.428,219.871l-7.968,77.773L290.11,286.238l-21.667-2.219L254.57,282.6l12.3-120.025L275.494,78.4Z" transform="translate(-254.57 -78.4)" fill="#fff" stroke="#263238" stroke-linecap="round" stroke-linejoin="round" stroke-width="1"/>
    </clipPath>
    <clipPath id="clip-path-3">
      <circle id="Elipse_4817" data-name="Elipse 4817" cx="26.86" cy="26.86" r="26.86" transform="matrix(0.768, -0.64, 0.64, 0.768, 0, 34.384)" fill="#a77d59" stroke="#263238" stroke-miterlimit="10" stroke-width="1"/>
    </clipPath>
    <clipPath id="clip-path-4">
      <path id="Trazado_141610" data-name="Trazado 141610" d="M393.474,201.2l-3.039,6.9L308.646,317.15l-9.11-5.807L311.9,295.828l73.463-92.149,6.48-4.116A2.3,2.3,0,0,1,393.474,201.2Z" transform="translate(-299.536 -199.562)" fill="#a77d59" stroke="#263238" stroke-linecap="round" stroke-linejoin="round" stroke-width="1"/>
    </clipPath>
    <clipPath id="clip-path-5">
      <path id="Trazado_141614" data-name="Trazado 141614" d="M333.884,292.489s-9.127,18.12-17.912,30.937l-6.275,1.623s-14.394,14.3-23.176,21.443a19.7,19.7,0,0,1-4.293-3.6S294.7,318.94,308.5,303.781a17.6,17.6,0,0,1,4.527,2.4,22.229,22.229,0,0,1,4.725,4.534l15.379-19.348Z" transform="translate(-282.228 -291.371)" fill="#a77d59" stroke="#263238" stroke-linecap="round" stroke-linejoin="round" stroke-width="1"/>
    </clipPath>
    <clipPath id="clip-path-6">
      <path id="Trazado_141648" data-name="Trazado 141648" d="M278.824,256.5,155.443,308.422l-12.718,5.355-23.968-56.95L63.1,124.58,199.2,67.3Z" transform="translate(-63.1 -67.3)" fill="#fff" stroke="#263238" stroke-linecap="round" stroke-linejoin="round" stroke-width="1"/>
    </clipPath>
  </defs>
  <g id="Grupo_70585" data-name="Grupo 70585" transform="translate(-180 -489)">
    <g id="Grupo_70071" data-name="Grupo 70071" transform="translate(-735 91.917)">
      <rect id="Rectángulo_31121" data-name="Rectángulo 31121" width="505" height="382" transform="translate(915 397.083)" fill="none"/>
    </g>
    <g id="Grupo_70584" data-name="Grupo 70584" transform="translate(201.866 443.838)">
      <g id="Background_Simple" data-name="Background Simple" transform="translate(25.059 50.162)">
        <g id="Grupo_70475" data-name="Grupo 70475">
          <path id="Trazado_141544" data-name="Trazado 141544" d="M211.371,51.224C325.1,41.1,325.294,105.261,376.538,165.04s62.21,86.882,42.893,155.792-84.415,122.93-164.946,92.323S127.821,411.941,77.025,384.76,7.369,305.068,44.549,243.179,71.137,63.713,211.371,51.224Z" transform="translate(-25.059 -50.162)" fill="#d9a171"/>
        </g>
      </g>
      <g id="Doodles" transform="translate(27.597 54.467)">
        <g id="Grupo_70481" data-name="Grupo 70481">
          <g id="Grupo_70476" data-name="Grupo 70476" transform="translate(186.319)">
            <rect id="Rectángulo_31985" data-name="Rectángulo 31985" width="28.454" height="28.454" rx="5.09" transform="translate(0 5.864) rotate(-11.893)" fill="none" stroke="#263238" stroke-linecap="round" stroke-linejoin="round" stroke-width="1"/>
            <line id="Línea_425" data-name="Línea 425" x2="2.391" y2="11.354" transform="translate(15.658 11.177)" fill="none" stroke="#263238" stroke-linecap="round" stroke-linejoin="round" stroke-width="1"/>
            <line id="Línea_426" data-name="Línea 426" x1="11.354" y2="2.391" transform="translate(11.177 15.658)" fill="none" stroke="#263238" stroke-linecap="round" stroke-linejoin="round" stroke-width="1"/>
          </g>
          <g id="Grupo_70477" data-name="Grupo 70477" transform="translate(374.905 200.01)">
            <rect id="Rectángulo_31986" data-name="Rectángulo 31986" width="28.454" height="28.454" rx="5.09" transform="translate(0 5.864) rotate(-11.893)" fill="none" stroke="#263238" stroke-linecap="round" stroke-linejoin="round" stroke-width="1"/>
            <line id="Línea_427" data-name="Línea 427" x1="6.338" y2="9.719" transform="translate(13.685 11.994)" fill="none" stroke="#263238" stroke-linecap="round" stroke-linejoin="round" stroke-width="1"/>
            <line id="Línea_428" data-name="Línea 428" x1="9.719" y1="6.338" transform="translate(11.994 13.685)" fill="none" stroke="#263238" stroke-linecap="round" stroke-linejoin="round" stroke-width="1"/>
          </g>
          <g id="Grupo_70478" data-name="Grupo 70478" transform="translate(120.802 320.373)">
            <rect id="Rectángulo_31987" data-name="Rectángulo 31987" width="28.454" height="28.454" rx="5.09" transform="translate(1.64) rotate(3.304)" fill="none" stroke="#263238" stroke-linecap="round" stroke-linejoin="round" stroke-width="1"/>
            <line id="Línea_429" data-name="Línea 429" x1="11.584" y1="0.669" transform="translate(9.232 14.689)" fill="none" stroke="#263238" stroke-linecap="round" stroke-linejoin="round" stroke-width="1"/>
          </g>
          <g id="Grupo_70480" data-name="Grupo 70480" transform="translate(0 182.217)">
            <rect id="Rectángulo_31988" data-name="Rectángulo 31988" width="28.454" height="28.454" rx="5.09" transform="translate(8.948 0) rotate(18.329)" fill="none" stroke="#263238" stroke-linecap="round" stroke-linejoin="round" stroke-width="1"/>
            <line id="Línea_430" data-name="Línea 430" x1="14.516" y2="7.292" transform="translate(10.721 14.334)" fill="none" stroke="#263238" stroke-linecap="round" stroke-linejoin="round" stroke-width="1"/>
            <g id="Grupo_70479" data-name="Grupo 70479" transform="translate(13.073 10.218)">
              <path id="Trazado_141546" data-name="Trazado 141546" d="M45.919,265.846a2.025,2.025,0,1,1-2.719-.9A2.026,2.026,0,0,1,45.919,265.846Z" transform="translate(-42.084 -264.729)" fill="none" stroke="#263238" stroke-linecap="round" stroke-linejoin="round" stroke-width="1"/>
              <path id="Trazado_141547" data-name="Trazado 141547" d="M52.2,278.357a2.025,2.025,0,1,1-2.719-.9A2.025,2.025,0,0,1,52.2,278.357Z" transform="translate(-42.606 -265.769)" fill="none" stroke="#263238" stroke-linecap="round" stroke-linejoin="round" stroke-width="1"/>
            </g>
          </g>
        </g>
      </g>
      <g id="Coins" transform="translate(183.463 329.584)">
        <g id="Grupo_70484" data-name="Grupo 70484" transform="translate(24.121 15.574)">
          <path id="Trazado_141548" data-name="Trazado 141548" d="M254.91,398.389a16.887,16.887,0,1,1-4.282-23.5A16.9,16.9,0,0,1,254.91,398.389Z" transform="translate(-224.121 -371.887)" fill="#a77d59"/>
          <g id="Grupo_70483" data-name="Grupo 70483" clip-path="url(#clip-path)">
            <path id="Trazado_141549" data-name="Trazado 141549" d="M252.951,397.106a14.213,14.213,0,1,1-3.607-19.774A14.214,14.214,0,0,1,252.951,397.106Z" transform="translate(-224.364 -372.129)" fill="rgba(0,0,0,0.7)" opacity="0.3"/>
            <path id="Trazado_141550" data-name="Trazado 141550" d="M252.951,397.106a14.213,14.213,0,1,1-3.607-19.774A14.214,14.214,0,0,1,252.951,397.106Z" transform="translate(-224.364 -372.129)" fill="none" stroke="#263238" stroke-linecap="round" stroke-linejoin="round" stroke-width="1"/>
            <g id="Grupo_70482" data-name="Grupo 70482" transform="translate(10.581 8.813)">
              <path id="Trazado_141551" data-name="Trazado 141551" d="M245.619,382.485l.682-.987,1.706,1.179-.682.987c1.27,1.326,1.242,2.988,0,4.79l-.289.418-1.972-1.364.38-.549c.657-.949.526-1.571-.138-2.03s-1.293-.361-1.948.587-.734,1.874-.105,3.963c.764,2.546.63,4-.419,5.513-1.245,1.8-2.823,2.421-4.512,1.7l-.668.968-1.706-1.18.668-.967c-1.288-1.339-1.247-3.02,0-4.821l.629-.91,1.972,1.363-.721,1.043c-.656.949-.475,1.578.189,2.036s1.317.406,1.972-.542.748-1.893.105-3.963c-.776-2.526-.629-3.994.42-5.512C242.41,382.423,243.936,381.8,245.619,382.485Z" transform="translate(-235.661 -381.498)" fill="#a77d59" stroke="#263238" stroke-linecap="round" stroke-linejoin="round" stroke-width="1"/>
            </g>
            <path id="Trazado_141552" data-name="Trazado 141552" d="M236.306,375.155a22.755,22.755,0,0,1-11.131,19.576,16.881,16.881,0,0,1,10.994-22.061A22.194,22.194,0,0,1,236.306,375.155Z" transform="translate(-224.121 -371.952)" fill="rgba(0,0,0,0.7)" opacity="0.2"/>
          </g>
          <path id="Trazado_141554" data-name="Trazado 141554" d="M254.91,398.389a16.887,16.887,0,1,1-4.282-23.5A16.9,16.9,0,0,1,254.91,398.389Z" transform="translate(-224.121 -371.887)" fill="none" stroke="#263238" stroke-linecap="round" stroke-linejoin="round" stroke-width="1"/>
        </g>
        <g id="Grupo_70486" data-name="Grupo 70486" transform="translate(0 1.358)">
          <circle id="Elipse_4811" data-name="Elipse 4811" cx="16.894" cy="16.894" r="16.894" fill="#a77d59" stroke="#263238" stroke-linecap="round" stroke-linejoin="round" stroke-width="1"/>
          <circle id="Elipse_4812" data-name="Elipse 4812" cx="14.213" cy="14.213" r="14.213" transform="translate(2.681 2.681)" fill="rgba(0,0,0,0.7)" opacity="0.3"/>
          <circle id="Elipse_4813" data-name="Elipse 4813" cx="14.213" cy="14.213" r="14.213" transform="translate(2.681 2.681)" fill="none" stroke="#263238" stroke-linecap="round" stroke-linejoin="round" stroke-width="1"/>
          <g id="Grupo_70485" data-name="Grupo 70485" transform="translate(13.114 7.787)">
            <path id="Trazado_141555" data-name="Trazado 141555" d="M214.86,366.076v-1.2h2.075v1.2c1.8.368,2.721,1.751,2.721,3.941v.508h-2.4v-.668c0-1.154-.461-1.591-1.268-1.591s-1.269.437-1.269,1.591.462,1.959,2.168,3.319c2.075,1.66,2.79,2.928,2.79,4.773,0,2.191-.945,3.6-2.744,3.965v1.176H214.86v-1.176c-1.821-.369-2.743-1.774-2.743-3.965v-1.107h2.4v1.267c0,1.153.507,1.568,1.314,1.568s1.314-.414,1.314-1.568-.461-1.982-2.168-3.319c-2.074-1.637-2.789-2.928-2.789-4.773C212.186,367.85,213.085,366.467,214.86,366.076Z" transform="translate(-212.117 -364.876)" fill="#a77d59" stroke="#263238" stroke-linecap="round" stroke-linejoin="round" stroke-width="1"/>
          </g>
        </g>
        <g id="Grupo_70488" data-name="Grupo 70488" transform="translate(74.165)">
          <circle id="Elipse_4814" data-name="Elipse 4814" cx="16.894" cy="16.894" r="16.894" transform="translate(0 28.449) rotate(-57.348)" fill="#a77d59" stroke="#263238" stroke-linecap="round" stroke-linejoin="round" stroke-width="1"/>
          <path id="Trazado_141556" data-name="Trazado 141556" d="M313.281,369.4a14.213,14.213,0,1,1-20.087-.742A14.213,14.213,0,0,1,313.281,369.4Z" transform="translate(-279.527 -355.728)" fill="rgba(0,0,0,0.7)" opacity="0.3"/>
          <path id="Trazado_141557" data-name="Trazado 141557" d="M313.281,369.4a14.213,14.213,0,1,1-20.087-.742A14.213,14.213,0,0,1,313.281,369.4Z" transform="translate(-279.527 -355.728)" fill="none" stroke="#263238" stroke-linecap="round" stroke-linejoin="round" stroke-width="1"/>
          <g id="Grupo_70487" data-name="Grupo 70487" transform="translate(16.381 15.961)">
            <path id="Trazado_141558" data-name="Trazado 141558" d="M297.383,374.6l-.817-.878,1.52-1.412.817.878c1.568-.954,3.185-.568,4.675,1.037l.346.372-1.757,1.631-.455-.49c-.785-.845-1.42-.852-2.012-.3s-.632,1.184.153,2.028,1.672,1.121,3.846.958c2.651-.2,4.037.246,5.292,1.6,1.491,1.6,1.755,3.278.688,4.772l.8.862-1.52,1.412-.8-.862c-1.585.969-3.217.567-4.708-1.038l-.753-.811,1.757-1.632.863.929c.785.845,1.438.8,2.029.255s.68-1.2-.1-2.043-1.686-1.139-3.846-.957c-2.634.213-4.036-.247-5.292-1.6C296.631,377.72,296.349,376.094,297.383,374.6Z" transform="translate(-296.566 -372.309)" fill="#a77d59" stroke="#263238" stroke-linecap="round" stroke-linejoin="round" stroke-width="1"/>
          </g>
        </g>
      </g>
      <g id="Right_hand" data-name="Right hand" transform="translate(235.502 76.054)">
        <g id="Grupo_70554" data-name="Grupo 70554" transform="translate(0 0)">
          <path id="Trazado_141559" data-name="Trazado 141559" d="M296.041,300.254s-.07,35.059,0,37.107,2.723,14.359,2.723,14.359l-8.513,15.693,7.329,5.908L311.84,359.3s12.142,7.5,14.361,18.227,15.429,18.539,29.138,48.246S384.683,359.3,384.683,359.3l-42.295-53.25Z" transform="translate(-257.534 -96.832)" fill="rgba(0,0,0,0.7)" opacity="0.2"/>
          <g id="Grupo_70542" data-name="Grupo 70542">
            <path id="Trazado_141560" data-name="Trazado 141560" d="M422.385,93.447,409.428,219.871l-7.968,77.773L290.11,286.238l-21.667-2.219L254.57,282.6l12.3-120.025L275.494,78.4Z" transform="translate(-254.57 -78.4)" fill="#fff"/>
            <g id="Grupo_70541" data-name="Grupo 70541" clip-path="url(#clip-path-2)">
              <path id="Trazado_141561" data-name="Trazado 141561" d="M385.1,99.368l-63.408-6.5a2.167,2.167,0,0,0-.442,4.31l63.408,6.5a2.166,2.166,0,1,0,.442-4.31Z" transform="translate(-259.948 -79.601)" fill="#263238"/>
              <path id="Trazado_141562" data-name="Trazado 141562" d="M369.8,107.551l-31.7-3.25a1.083,1.083,0,0,0-.221,2.156l31.7,3.249a1.083,1.083,0,1,0,.221-2.155Z" transform="translate(-261.411 -80.551)" fill="#263238"/>
              <g id="Grupo_70489" data-name="Grupo 70489" transform="translate(20.827 109.756)">
                <path id="Trazado_141563" data-name="Trazado 141563" d="M401.4,208.652,298.482,198.106a1.083,1.083,0,0,0-.22,2.155l102.912,10.545a1.083,1.083,0,0,0,.221-2.155Z" transform="translate(-278.946 -198.101)" fill="#263238"/>
                <path id="Trazado_141564" data-name="Trazado 141564" d="M399.01,216.947,279.343,204.685a1.083,1.083,0,1,0-.22,2.155L398.79,219.1a1.083,1.083,0,0,0,.22-2.156Z" transform="translate(-277.356 -198.647)" fill="#263238"/>
                <path id="Trazado_141565" data-name="Trazado 141565" d="M364.634,221.965l-86.157-8.829a1.083,1.083,0,0,0-.22,2.155l86.157,8.829a1.083,1.083,0,1,0,.22-2.155Z" transform="translate(-277.284 -199.349)" fill="#263238"/>
              </g>
              <rect id="Rectángulo_31989" data-name="Rectángulo 31989" width="34.351" height="121.269" transform="translate(17.172 166.077) rotate(-84.149)" fill="#bfbfbf" stroke="#263238" stroke-miterlimit="10" stroke-width="1"/>
              <g id="Grupo_70515" data-name="Grupo 70515" transform="translate(20.974 33.923)">
                <g id="Grupo_70493" data-name="Grupo 70493">
                  <g id="Grupo_70491" data-name="Grupo 70491">
                    <circle id="Elipse_4815" data-name="Elipse 4815" cx="26.86" cy="26.86" r="26.86" transform="matrix(0.768, -0.64, 0.64, 0.768, 0, 34.384)" fill="#a77d59"/>
                    <g id="Grupo_70490" data-name="Grupo 70490" clip-path="url(#clip-path-3)">
                      <circle id="Elipse_4816" data-name="Elipse 4816" cx="26.86" cy="26.86" r="26.86" transform="matrix(0.768, -0.64, 0.64, 0.768, 0, 34.384)" fill="#fff" opacity="0.5"/>
                    </g>
                    <circle id="Elipse_4818" data-name="Elipse 4818" cx="26.86" cy="26.86" r="26.86" transform="matrix(0.768, -0.64, 0.64, 0.768, 0, 34.384)" fill="none" stroke="#263238" stroke-miterlimit="10" stroke-width="1"/>
                  </g>
                  <g id="Grupo_70492" data-name="Grupo 70492" transform="translate(12.176 12.177)">
                    <path id="Trazado_141566" data-name="Trazado 141566" d="M319.543,155.127l22.336,11.238a25.664,25.664,0,0,0-2.954-27.017Z" transform="translate(-293.119 -129.564)" fill="#fff"/>
                    <path id="Trazado_141567" data-name="Trazado 141567" d="M319.7,153.187l18.7-15.225a25.613,25.613,0,0,0-10.446-7.441l-3.373,9.262Z" transform="translate(-293.132 -128.831)" fill="#a77d59"/>
                    <path id="Trazado_141568" data-name="Trazado 141568" d="M321.805,128.876l-2.268,22.135,7.617-20.913A25.659,25.659,0,0,0,321.805,128.876Z" transform="translate(-293.118 -128.694)" fill="#757575"/>
                    <path id="Trazado_141569" data-name="Trazado 141569" d="M315.984,154.042l2.589-25.268a25.644,25.644,0,0,0-25.72,35.775Z" transform="translate(-290.725 -128.677)" fill="#999"/>
                    <path id="Trazado_141570" data-name="Trazado 141570" d="M313.987,182.21a25.657,25.657,0,0,0,25.338-13.615l-22.732-11.437L293.42,167.683A25.639,25.639,0,0,0,313.987,182.21Z" transform="translate(-290.949 -131.044)" fill="#bfbfbf"/>
                  </g>
                </g>
                <g id="Grupo_70514" data-name="Grupo 70514" transform="translate(72.999 20.016)">
                  <g id="Grupo_70497" data-name="Grupo 70497" transform="translate(3.861)">
                    <rect id="Rectángulo_31990" data-name="Rectángulo 31990" width="4.228" height="4.228" rx="0.626" transform="translate(0.431) rotate(5.851)" fill="#a77d59" stroke="#263238" stroke-miterlimit="10" stroke-width="1"/>
                    <g id="Grupo_70496" data-name="Grupo 70496" transform="translate(6.504 1.271)">
                      <g id="Grupo_70494" data-name="Grupo 70494" transform="translate(0.215)">
                        <path id="Trazado_141571" data-name="Trazado 141571" d="M408.511,143.627l-39.478-4.045a.486.486,0,0,1,.1-.966l39.478,4.045a.486.486,0,1,1-.1.966Z" transform="translate(-368.597 -138.612)" fill="#263238"/>
                      </g>
                      <g id="Grupo_70495" data-name="Grupo 70495" transform="translate(0 2.103)">
                        <path id="Trazado_141572" data-name="Trazado 141572" d="M404.411,145.525,368.8,141.875a.486.486,0,1,1,.1-.966l35.612,3.649a.486.486,0,0,1-.1.966Z" transform="translate(-368.362 -140.906)" fill="#263238"/>
                      </g>
                    </g>
                  </g>
                  <g id="Grupo_70501" data-name="Grupo 70501" transform="translate(2.896 9.419)">
                    <rect id="Rectángulo_31991" data-name="Rectángulo 31991" width="4.228" height="4.228" rx="0.626" transform="matrix(0.995, 0.102, -0.102, 0.995, 0.431, 0)" fill="#757575" stroke="#263238" stroke-linecap="round" stroke-linejoin="round" stroke-width="1"/>
                    <g id="Grupo_70500" data-name="Grupo 70500" transform="translate(6.504 1.271)">
                      <g id="Grupo_70498" data-name="Grupo 70498" transform="translate(0.215)">
                        <path id="Trazado_141573" data-name="Trazado 141573" d="M407.459,153.9l-39.478-4.045a.486.486,0,1,1,.1-.966l39.478,4.045a.486.486,0,1,1-.1.966Z" transform="translate(-367.544 -148.885)" fill="#263238"/>
                      </g>
                      <g id="Grupo_70499" data-name="Grupo 70499" transform="translate(0 2.102)">
                        <path id="Trazado_141574" data-name="Trazado 141574" d="M403.358,155.8l-35.612-3.649a.486.486,0,1,1,.1-.966l35.611,3.649a.486.486,0,1,1-.1.966Z" transform="translate(-367.309 -151.178)" fill="#263238"/>
                      </g>
                    </g>
                  </g>
                  <g id="Grupo_70505" data-name="Grupo 70505" transform="translate(1.93 18.839)">
                    <rect id="Rectángulo_31992" data-name="Rectángulo 31992" width="4.228" height="4.228" rx="0.626" transform="matrix(0.995, 0.102, -0.102, 0.995, 0.431, 0)" fill="#999" stroke="#263238" stroke-linecap="round" stroke-linejoin="round" stroke-width="1"/>
                    <g id="Grupo_70504" data-name="Grupo 70504" transform="translate(6.504 1.271)">
                      <g id="Grupo_70502" data-name="Grupo 70502" transform="translate(0.215)">
                        <path id="Trazado_141575" data-name="Trazado 141575" d="M406.406,164.173l-39.478-4.045a.486.486,0,1,1,.1-.966l39.478,4.045a.486.486,0,0,1-.1.966Z" transform="translate(-366.492 -159.158)" fill="#263238"/>
                      </g>
                      <g id="Grupo_70503" data-name="Grupo 70503" transform="translate(0 2.103)">
                        <path id="Trazado_141576" data-name="Trazado 141576" d="M402.306,166.07l-35.612-3.649a.486.486,0,0,1,.1-.966L402.4,165.1a.486.486,0,1,1-.1.966Z" transform="translate(-366.257 -161.451)" fill="#263238"/>
                      </g>
                    </g>
                  </g>
                  <g id="Grupo_70509" data-name="Grupo 70509" transform="translate(0.965 28.258)">
                    <rect id="Rectángulo_31993" data-name="Rectángulo 31993" width="4.228" height="4.228" rx="0.626" transform="matrix(0.995, 0.102, -0.102, 0.995, 0.431, 0)" fill="#bfbfbf" stroke="#263238" stroke-miterlimit="10" stroke-width="1"/>
                    <g id="Grupo_70508" data-name="Grupo 70508" transform="translate(6.504 1.271)">
                      <g id="Grupo_70506" data-name="Grupo 70506" transform="translate(0.215)">
                        <path id="Trazado_141577" data-name="Trazado 141577" d="M405.353,174.446,365.875,170.4a.486.486,0,1,1,.1-.966l39.478,4.045a.486.486,0,0,1-.1.966Z" transform="translate(-365.439 -169.431)" fill="#263238"/>
                      </g>
                      <g id="Grupo_70507" data-name="Grupo 70507" transform="translate(0 2.103)">
                        <path id="Trazado_141578" data-name="Trazado 141578" d="M401.253,176.343l-35.612-3.649a.486.486,0,0,1,.1-.966l35.612,3.649a.486.486,0,0,1-.1.966Z" transform="translate(-365.204 -171.724)" fill="#263238"/>
                      </g>
                    </g>
                  </g>
                  <g id="Grupo_70513" data-name="Grupo 70513" transform="translate(0 37.677)">
                    <rect id="Rectángulo_31994" data-name="Rectángulo 31994" width="4.228" height="4.228" rx="0.626" transform="translate(0.431) rotate(5.85)" fill="#fff" stroke="#263238" stroke-linecap="round" stroke-linejoin="round" stroke-width="1"/>
                    <g id="Grupo_70512" data-name="Grupo 70512" transform="translate(6.504 1.271)">
                      <g id="Grupo_70510" data-name="Grupo 70510" transform="translate(0.215)">
                        <path id="Trazado_141579" data-name="Trazado 141579" d="M404.3,184.718l-39.478-4.045a.486.486,0,1,1,.1-.966l39.478,4.045a.486.486,0,1,1-.1.966Z" transform="translate(-364.386 -179.703)" fill="#263238"/>
                      </g>
                      <g id="Grupo_70511" data-name="Grupo 70511" transform="translate(0 2.103)">
                        <path id="Trazado_141580" data-name="Trazado 141580" d="M400.2,186.616l-35.612-3.649a.486.486,0,1,1,.1-.966l35.612,3.649a.486.486,0,0,1-.1.966Z" transform="translate(-364.151 -181.997)" fill="#263238"/>
                      </g>
                    </g>
                  </g>
                </g>
              </g>
              <g id="Grupo_70539" data-name="Grupo 70539" transform="translate(21.735 141.327)">
                <g id="Grupo_70516" data-name="Grupo 70516" transform="translate(101.314 12.683)">
                  <rect id="Rectángulo_31995" data-name="Rectángulo 31995" width="2.266" height="12.955" transform="translate(2.254 13.118) rotate(-174.148)" fill="#757575" stroke="#263238" stroke-linecap="round" stroke-linejoin="round" stroke-width="1"/>
                  <rect id="Rectángulo_31996" data-name="Rectángulo 31996" width="2.266" height="6.098" transform="translate(2.453 11.177) rotate(-174.15)" fill="#a77d59" stroke="#263238" stroke-miterlimit="10" stroke-width="1"/>
                </g>
                <g id="Grupo_70517" data-name="Grupo 70517" transform="translate(106.721 9.951)">
                  <rect id="Rectángulo_31997" data-name="Rectángulo 31997" width="2.266" height="12.955" transform="translate(2.254 13.118) rotate(-174.15)" fill="#757575" stroke="#263238" stroke-linecap="round" stroke-linejoin="round" stroke-width="1"/>
                  <rect id="Rectángulo_31998" data-name="Rectángulo 31998" width="6.098" height="2.266" transform="translate(0.348 9.49) rotate(-84.148)" fill="#a77d59" stroke="#263238" stroke-miterlimit="10" stroke-width="1"/>
                </g>
                <g id="Grupo_70518" data-name="Grupo 70518" transform="translate(111.542 12.943)">
                  <rect id="Rectángulo_31999" data-name="Rectángulo 31999" width="2.266" height="12.955" transform="translate(2.254 13.118) rotate(-174.15)" fill="#757575" stroke="#263238" stroke-linecap="round" stroke-linejoin="round" stroke-width="1"/>
                  <rect id="Rectángulo_32000" data-name="Rectángulo 32000" width="2.266" height="6.098" transform="translate(2.751 8.265) rotate(-174.148)" fill="#a77d59" stroke="#263238" stroke-miterlimit="10" stroke-width="1"/>
                </g>
                <g id="Grupo_70519" data-name="Grupo 70519" transform="translate(96.5 9.617)">
                  <rect id="Rectángulo_32001" data-name="Rectángulo 32001" width="2.266" height="12.955" transform="translate(2.254 13.118) rotate(-174.148)" fill="#757575" stroke="#263238" stroke-linecap="round" stroke-linejoin="round" stroke-width="1"/>
                  <rect id="Rectángulo_32002" data-name="Rectángulo 32002" width="2.266" height="6.098" transform="translate(2.454 11.177) rotate(-174.15)" fill="#a77d59" stroke="#263238" stroke-miterlimit="10" stroke-width="1"/>
                </g>
                <g id="Grupo_70520" data-name="Grupo 70520" transform="translate(91.035 12.91)">
                  <rect id="Rectángulo_32003" data-name="Rectángulo 32003" width="2.266" height="12.955" transform="translate(2.254 13.118) rotate(-174.15)" fill="#757575" stroke="#263238" stroke-linecap="round" stroke-linejoin="round" stroke-width="1"/>
                  <rect id="Rectángulo_32004" data-name="Rectángulo 32004" width="2.266" height="6.098" transform="translate(2.403 11.662) rotate(-174.148)" fill="#a77d59" stroke="#263238" stroke-miterlimit="10" stroke-width="1"/>
                </g>
                <g id="Grupo_70521" data-name="Grupo 70521" transform="translate(86.302 9.063)">
                  <rect id="Rectángulo_32005" data-name="Rectángulo 32005" width="2.266" height="12.955" transform="translate(2.254 13.118) rotate(-174.15)" fill="#757575" stroke="#263238" stroke-linecap="round" stroke-linejoin="round" stroke-width="1"/>
                  <rect id="Rectángulo_32006" data-name="Rectángulo 32006" width="2.266" height="6.098" transform="translate(2.304 12.633) rotate(-174.148)" fill="#a77d59" stroke="#263238" stroke-miterlimit="10" stroke-width="1"/>
                </g>
                <g id="Grupo_70522" data-name="Grupo 70522" transform="translate(80.537 15.28)">
                  <rect id="Rectángulo_32007" data-name="Rectángulo 32007" width="2.266" height="12.955" transform="translate(2.254 13.118) rotate(-174.148)" fill="#757575" stroke="#263238" stroke-linecap="round" stroke-linejoin="round" stroke-width="1"/>
                  <rect id="Rectángulo_32008" data-name="Rectángulo 32008" width="2.266" height="6.098" transform="translate(2.304 12.633) rotate(-174.148)" fill="#a77d59" stroke="#263238" stroke-miterlimit="10" stroke-width="1"/>
                </g>
                <g id="Grupo_70523" data-name="Grupo 70523" transform="translate(76.295 6.645)">
                  <rect id="Rectángulo_32009" data-name="Rectángulo 32009" width="2.266" height="12.955" transform="translate(2.254 13.118) rotate(-174.15)" fill="#757575" stroke="#263238" stroke-linecap="round" stroke-linejoin="round" stroke-width="1"/>
                  <rect id="Rectángulo_32010" data-name="Rectángulo 32010" width="2.266" height="6.098" transform="translate(2.453 11.177) rotate(-174.15)" fill="#a77d59" stroke="#263238" stroke-miterlimit="10" stroke-width="1"/>
                </g>
                <g id="Grupo_70524" data-name="Grupo 70524" transform="translate(71.297 5.373)">
                  <rect id="Rectángulo_32011" data-name="Rectángulo 32011" width="2.266" height="12.955" transform="translate(2.254 13.118) rotate(-174.148)" fill="#757575" stroke="#263238" stroke-linecap="round" stroke-linejoin="round" stroke-width="1"/>
                  <rect id="Rectángulo_32012" data-name="Rectángulo 32012" width="2.266" height="6.098" transform="translate(2.752 8.265) rotate(-174.15)" fill="#a77d59" stroke="#263238" stroke-miterlimit="10" stroke-width="1"/>
                </g>
                <g id="Grupo_70525" data-name="Grupo 70525" transform="translate(65.394 12.941)">
                  <rect id="Rectángulo_32013" data-name="Rectángulo 32013" width="2.266" height="12.955" transform="translate(2.254 13.118) rotate(-174.15)" fill="#757575" stroke="#263238" stroke-linecap="round" stroke-linejoin="round" stroke-width="1"/>
                  <rect id="Rectángulo_32014" data-name="Rectángulo 32014" width="2.266" height="6.098" transform="translate(2.801 7.779) rotate(-174.15)" fill="#a77d59" stroke="#263238" stroke-miterlimit="10" stroke-width="1"/>
                </g>
                <g id="Grupo_70526" data-name="Grupo 70526" transform="translate(60.9 6.757)">
                  <rect id="Rectángulo_32015" data-name="Rectángulo 32015" width="2.266" height="12.955" transform="translate(2.254 13.118) rotate(-174.15)" fill="#757575" stroke="#263238" stroke-linecap="round" stroke-linejoin="round" stroke-width="1"/>
                  <rect id="Rectángulo_32016" data-name="Rectángulo 32016" width="2.266" height="6.098" transform="translate(2.503 10.691) rotate(-174.15)" fill="#a77d59" stroke="#263238" stroke-miterlimit="10" stroke-width="1"/>
                </g>
                <g id="Grupo_70527" data-name="Grupo 70527" transform="translate(55.481 9.599)">
                  <rect id="Rectángulo_32017" data-name="Rectángulo 32017" width="2.266" height="12.955" transform="translate(2.254 13.118) rotate(-174.148)" fill="#757575" stroke="#263238" stroke-linecap="round" stroke-linejoin="round" stroke-width="1"/>
                  <rect id="Rectángulo_32018" data-name="Rectángulo 32018" width="2.266" height="6.098" transform="matrix(-0.995, -0.102, 0.102, -0.995, 2.454, 11.177)" fill="#a77d59" stroke="#263238" stroke-miterlimit="10" stroke-width="1"/>
                </g>
                <g id="Grupo_70528" data-name="Grupo 70528" transform="translate(49.814 14.865)">
                  <rect id="Rectángulo_32019" data-name="Rectángulo 32019" width="2.266" height="12.955" transform="translate(2.254 13.118) rotate(-174.148)" fill="#757575" stroke="#263238" stroke-linecap="round" stroke-linejoin="round" stroke-width="1"/>
                  <rect id="Rectángulo_32020" data-name="Rectángulo 32020" width="2.266" height="6.098" transform="translate(2.254 13.118) rotate(-174.15)" fill="#a77d59" stroke="#263238" stroke-miterlimit="10" stroke-width="1"/>
                </g>
                <g id="Grupo_70529" data-name="Grupo 70529" transform="translate(45.576 6.183)">
                  <rect id="Rectángulo_32021" data-name="Rectángulo 32021" width="2.266" height="12.955" transform="translate(2.254 13.118) rotate(-174.15)" fill="#757575" stroke="#263238" stroke-linecap="round" stroke-linejoin="round" stroke-width="1"/>
                  <rect id="Rectángulo_32022" data-name="Rectángulo 32022" width="2.266" height="6.098" transform="translate(2.403 11.662) rotate(-174.15)" fill="#a77d59" stroke="#263238" stroke-miterlimit="10" stroke-width="1"/>
                </g>
                <g id="Grupo_70530" data-name="Grupo 70530" transform="translate(41.082)">
                  <rect id="Rectángulo_32023" data-name="Rectángulo 32023" width="2.266" height="12.955" transform="matrix(-0.995, -0.102, 0.102, -0.995, 2.254, 13.118)" fill="#757575" stroke="#263238" stroke-linecap="round" stroke-linejoin="round" stroke-width="1"/>
                  <rect id="Rectángulo_32024" data-name="Rectángulo 32024" width="2.266" height="6.098" transform="translate(2.404 11.662) rotate(-174.15)" fill="#a77d59" stroke="#263238" stroke-miterlimit="10" stroke-width="1"/>
                </g>
                <g id="Grupo_70531" data-name="Grupo 70531" transform="translate(35.309 6.301)">
                  <rect id="Rectángulo_32025" data-name="Rectángulo 32025" width="2.266" height="12.955" transform="translate(2.254 13.118) rotate(-174.15)" fill="#757575" stroke="#263238" stroke-linecap="round" stroke-linejoin="round" stroke-width="1"/>
                  <rect id="Rectángulo_32026" data-name="Rectángulo 32026" width="2.266" height="6.098" transform="translate(2.752 8.265) rotate(-174.148)" fill="#a77d59" stroke="#263238" stroke-miterlimit="10" stroke-width="1"/>
                </g>
                <g id="Grupo_70532" data-name="Grupo 70532" transform="translate(29.488 13.065)">
                  <rect id="Rectángulo_32027" data-name="Rectángulo 32027" width="2.266" height="12.955" transform="translate(2.254 13.118) rotate(-174.15)" fill="#757575" stroke="#263238" stroke-linecap="round" stroke-linejoin="round" stroke-width="1"/>
                  <rect id="Rectángulo_32028" data-name="Rectángulo 32028" width="2.266" height="6.098" transform="translate(2.851 7.294) rotate(-174.15)" fill="#a77d59" stroke="#263238" stroke-miterlimit="10" stroke-width="1"/>
                </g>
                <g id="Grupo_70533" data-name="Grupo 70533" transform="translate(25.16 5.261)">
                  <rect id="Rectángulo_32029" data-name="Rectángulo 32029" width="2.266" height="12.955" transform="translate(2.254 13.118) rotate(-174.15)" fill="#757575" stroke="#263238" stroke-linecap="round" stroke-linejoin="round" stroke-width="1"/>
                  <rect id="Rectángulo_32030" data-name="Rectángulo 32030" width="2.266" height="6.098" transform="translate(2.453 11.177) rotate(-174.148)" fill="#a77d59" stroke="#263238" stroke-miterlimit="10" stroke-width="1"/>
                </g>
                <g id="Grupo_70534" data-name="Grupo 70534" transform="translate(20.306 2.597)">
                  <rect id="Rectángulo_32031" data-name="Rectángulo 32031" width="2.266" height="12.955" transform="translate(2.254 13.118) rotate(-174.148)" fill="#757575" stroke="#263238" stroke-linecap="round" stroke-linejoin="round" stroke-width="1"/>
                  <rect id="Rectángulo_32032" data-name="Rectángulo 32032" width="2.266" height="6.098" transform="translate(2.802 7.779) rotate(-174.15)" fill="#a77d59" stroke="#263238" stroke-miterlimit="10" stroke-width="1"/>
                </g>
                <g id="Grupo_70535" data-name="Grupo 70535" transform="translate(14.819 6.097)">
                  <rect id="Rectángulo_32033" data-name="Rectángulo 32033" width="2.266" height="12.955" transform="translate(2.254 13.118) rotate(-174.148)" fill="#757575" stroke="#263238" stroke-linecap="round" stroke-linejoin="round" stroke-width="1"/>
                  <rect id="Rectángulo_32034" data-name="Rectángulo 32034" width="2.266" height="6.098" transform="translate(2.255 13.118) rotate(-174.15)" fill="#a77d59" stroke="#263238" stroke-miterlimit="10" stroke-width="1"/>
                </g>
                <g id="Grupo_70536" data-name="Grupo 70536" transform="translate(10.157 1.557)">
                  <rect id="Rectángulo_32035" data-name="Rectángulo 32035" width="2.266" height="12.955" transform="translate(2.254 13.118) rotate(-174.15)" fill="#757575" stroke="#263238" stroke-linecap="round" stroke-linejoin="round" stroke-width="1"/>
                  <rect id="Rectángulo_32036" data-name="Rectángulo 32036" width="2.266" height="6.098" transform="translate(2.354 12.147) rotate(-174.148)" fill="#a77d59" stroke="#263238" stroke-miterlimit="10" stroke-width="1"/>
                </g>
                <g id="Grupo_70537" data-name="Grupo 70537" transform="translate(4.905 2.775)">
                  <rect id="Rectángulo_32037" data-name="Rectángulo 32037" width="2.266" height="12.955" transform="translate(2.254 13.118) rotate(-174.15)" fill="#757575" stroke="#263238" stroke-linecap="round" stroke-linejoin="round" stroke-width="1"/>
                  <rect id="Rectángulo_32038" data-name="Rectángulo 32038" width="2.266" height="6.098" transform="translate(2.304 12.633) rotate(-174.15)" fill="#a77d59" stroke="#263238" stroke-miterlimit="10" stroke-width="1"/>
                </g>
                <g id="Grupo_70538" data-name="Grupo 70538" transform="translate(0 0.6)">
                  <rect id="Rectángulo_32039" data-name="Rectángulo 32039" width="2.266" height="12.955" transform="translate(2.254 13.118) rotate(-174.15)" fill="#757575" stroke="#263238" stroke-linecap="round" stroke-linejoin="round" stroke-width="1"/>
                  <rect id="Rectángulo_32040" data-name="Rectángulo 32040" width="2.266" height="6.098" transform="translate(2.901 6.809) rotate(-174.15)" fill="#a77d59" stroke="#263238" stroke-miterlimit="10" stroke-width="1"/>
                </g>
              </g>
              <g id="Grupo_70540" data-name="Grupo 70540" transform="translate(14.431 172.168)">
                <path id="Trazado_141581" data-name="Trazado 141581" d="M394.42,276.719,291.507,266.173a1.083,1.083,0,1,0-.22,2.155L394.2,278.875a1.083,1.083,0,0,0,.221-2.156Z" transform="translate(-271.971 -266.168)" fill="#263238"/>
                <path id="Trazado_141582" data-name="Trazado 141582" d="M392.035,285.015,272.368,272.752a1.083,1.083,0,1,0-.22,2.155L391.815,287.17a1.083,1.083,0,0,0,.22-2.155Z" transform="translate(-270.381 -266.714)" fill="#263238"/>
                <path id="Trazado_141583" data-name="Trazado 141583" d="M340.9,288.315,271.5,281.2a1.083,1.083,0,0,0-.22,2.156l69.4,7.112a1.083,1.083,0,0,0,.221-2.156Z" transform="translate(-270.309 -267.417)" fill="#263238"/>
              </g>
              <path id="Trazado_141584" data-name="Trazado 141584" d="M402.8,209.893c-3.548-.284-4.777,5.373-4.777,5.373s-5.612-7.354-4.722-24.647c0,0-2.742-7.665-10.086-3.035s-14.955,20.952-13.139,38.731L355.8,178.92c-4.933,1.045-14.955,7.675-12.314,39.684l-15.578-16.468s-4.218-1.357-6.6,2.375-1.247,30.46.724,40.454-3.053,30.075-3.053,30.075S313.6,252.3,303.882,246.547L266.866,170.2l-12.3,120.025,13.873,1.421L290.721,280.8c-.124,5.016-.246,9.626-.612,13.063L401.46,305.271l7.968-77.773C406.724,217.806,404.138,209.994,402.8,209.893Z" transform="translate(-254.57 -86.027)" fill="rgba(0,0,0,0.7)" opacity="0.2"/>
            </g>
            <path id="Trazado_141586" data-name="Trazado 141586" d="M422.385,93.447,409.428,219.871l-7.968,77.773L290.11,286.238l-21.667-2.219L254.57,282.6l12.3-120.025L275.494,78.4Z" transform="translate(-254.57 -78.4)" fill="none" stroke="#263238" stroke-linecap="round" stroke-linejoin="round" stroke-width="1"/>
          </g>
          <g id="Grupo_70553" data-name="Grupo 70553" transform="translate(25.36 92.875)">
            <g id="Grupo_70546" data-name="Grupo 70546" transform="translate(9.806)">
              <g id="Grupo_70543" data-name="Grupo 70543" transform="translate(0.007)">
                <path id="Trazado_141587" data-name="Trazado 141587" d="M423.738,427.332l-65.1,11.076s-11.333-60.2-18.091-69.677-5.52-13.387-8.8-19.778c-1.981-3.86-11.911-11.058-19.7-18.164h-.009c-.679-.614-1.339-1.229-1.971-1.843-.275-.248-.532-.513-.789-.761-1.036-1.027-2-2.026-2.852-3.008q-.468-.523-.88-1.045a14.85,14.85,0,0,1-3.154-5.584,1.42,1.42,0,0,1-.055-.284,2.368,2.368,0,0,1-.055-.339c-.174-1.421-.358-3.044-.541-4.8-.037-.348-.073-.715-.119-1.082-.018-.147-.037-.284-.055-.44-.156-1.467-.33-3.026-.532-4.63-.2-1.678-.422-3.42-.679-5.171-.083-.605-.165-1.21-.266-1.825,0-.009,0-.018-.009-.018-.1-.679-.211-1.357-.321-2.045l-.3-1.76c-.018-.1-.046-.193-.055-.275-.128-.688-.257-1.357-.385-2.036a.924.924,0,0,1-.046-.229c-.128-.6-.248-1.183-.385-1.779-.284-1.33-.605-2.632-.954-3.9a48.341,48.341,0,0,0-2.43-6.969c-4.695-10.48,1.412-6.694-2.265-33.66,0,0,2.7-6.253,10.416-1.256a20.658,20.658,0,0,1,1.724,1.256h.009a21.675,21.675,0,0,1,4.1,4.383,25.323,25.323,0,0,1,3.539,7.3,31.737,31.737,0,0,1,1.045,13.112s5.795,19.86,8.848,24.381,15.679-21.447,14.863-24.473a40.876,40.876,0,0,1-.651-4.108c-.055-.449-.11-.926-.174-1.43s-.119-1.027-.174-1.568c-.037-.257-.064-.532-.1-.8-.009-.11-.018-.22-.037-.321-.11-1.036-.238-2.136-.358-3.273-.028-.321-.064-.624-.1-.935-.055-.541-.11-1.1-.165-1.65a2.32,2.32,0,0,1-.027-.275c-.037-.312-.073-.633-.1-.963-.073-.642-.138-1.293-.2-1.944-.064-.559-.11-1.119-.165-1.678-.11-1.054-.211-2.109-.312-3.127-.073-.761-.147-1.513-.211-2.246-.018-.165-.037-.33-.046-.486-.385-4.034-.688-7.354-.8-8.766,0,0-9.178-13.589-10.123-19.989s-.862-13.139,2.98-15.881c9.1-6.473,6.437,3.961,10.508,8.28,4.071,4.337,10.315,11.4,13.855,13.607,3.264,2.072,6.18,10.123,6.593,11.3-.468-1.76-5.135-19.072-5.236-22.556-.119-3.677-2.925-23.07,1.843-30.029s11.1-1.559,11.691-.183.761,20.163,2.439,25.4,8.7,27.022,8.7,27.022.293-21.2,1.88-30.689,5.7-16.908,9.738-17.33,7.766,4.025,7.766,4.025-1.6,15.129-1.137,18.623-.66,16.11,1.256,22.9c0,0-.22-18.072,2.586-20.383s5.217-3.42,6.794-1.861,1.916,12.259,3.521,18.7,1.4,15.184,2.457,25.224,5.208,23.977,4.383,31.945c-.825,7.95-3.365,27.728-5.41,39.327s-7.262,27.489-7.262,27.489,2.375,8.482,1.916,16.046S423.738,427.332,423.738,427.332Z" transform="translate(-292.93 -179.69)" fill="#ffcfb4"/>
              </g>
              <g id="Grupo_70544" data-name="Grupo 70544" transform="translate(4.699 20.187)">
                <path id="Trazado_141588" data-name="Trazado 141588" d="M373.762,210.528c1.248,3.873,5.414,16.818,7.49,23.281,0,0-9.1,6.69-8.875,12.9s-1.666,18.763-5.753,18.4-3.717-26.459-5.051-30.843c.83,1.882,1.368,3.416,1.476,3.718-.3-1.124-5.165-19.089-5.268-22.648-.024-.837-.193-2.5-.381-4.655l0-.042s9.045-8.658,15.688-3.357v.008A22.268,22.268,0,0,0,373.762,210.528Z" transform="translate(-302.978 -202.027)" fill="#e2b88e" opacity="0.4"/>
                <path id="Trazado_141589" data-name="Trazado 141589" d="M403.071,217.67c-4.237,4.017-10.629,11.118-11.438,17.97,0,0,2.362,19.12,1.352,27.462l-8.26-25.869s.3-21.2,1.883-30.688c.041-.259.091-.526.141-.785a37.711,37.711,0,0,1,16.583-4.054,74.172,74.172,0,0,0-.361,10.153A55.38,55.38,0,0,1,403.071,217.67Z" transform="translate(-305.248 -201.706)" fill="#e2b88e" opacity="0.4"/>
                <path id="Trazado_141590" data-name="Trazado 141590" d="M408.75,215.467l-.008.008-.027.024c-.1.07-.346.265-.711.572a12.113,12.113,0,0,1,.723-1.2Z" transform="translate(-307.182 -202.8)" fill="#e2b88e" opacity="0.4"/>
                <path id="Trazado_141591" data-name="Trazado 141591" d="M410.667,268.208s-5.446-20.432-5.542-36.881c-.039-6.086.664-11.637,2.632-15.389l.009-.007a12.113,12.113,0,0,1,.723-1.2l.022.591a15.008,15.008,0,0,1,3.245-2.147c-1.529,2.387-3.293,7.054-1.252,14.638C413.7,239.7,410.918,254.209,410.667,268.208Z" transform="translate(-306.943 -202.659)" fill="#e2b88e" opacity="0.4"/>
                <path id="Trazado_141592" data-name="Trazado 141592" d="M326.646,310.47s1.463,19.47-14.185,26.44h-.009c-.679-.615-1.333-1.23-1.97-1.842-.271-.253-.534-.513-.789-.766-1.033-1.025-2-2.03-2.853-3.01-.315-.357-.606-.7-.881-1.041a14.858,14.858,0,0,1-3.151-5.585,1.845,1.845,0,0,1-.059-.282,2.848,2.848,0,0,1-.055-.34c-.174-1.42-.353-3.042-.54-4.809-.038-.348-.074-.712-.119-1.078-.017-.145-.033-.289-.049-.442-.163-1.47-.338-3.024-.535-4.631-.2-1.674-.423-3.417-.678-5.171-.089-.6-.178-1.217-.268-1.822,0-.008,0-.017-.007-.017-.1-.68-.212-1.363-.322-2.045-.1-.588-.206-1.176-.305-1.765-.019-.094-.039-.188-.05-.273-.127-.682-.254-1.357-.39-2.032a2.038,2.038,0,0,1-.045-.23c-.124-.6-.248-1.188-.381-1.778q-.447-1.99-.959-3.9c6.19-5.956,20.478-2.22,13.563-16.018,0,0,3.483-11.809-6.118-24.615h.008c6.569,5.3,9.929,14.6,8.688,24.8,0,0,5.793,19.853,8.848,24.377s15.676-21.447,14.858-24.475c-.157-.6-.387-2.082-.643-4.106-.056-.451-.112-.927-.173-1.429s-.123-1.028-.182-1.572c-.035-.256-.06-.527-.094-.791-.01-.11-.02-.22-.039-.323-.113-1.044-.231-2.14-.356-3.278-.031-.315-.063-.62-.1-.934-.051-.544-.11-1.1-.169-1.648-.012-.085-.015-.178-.026-.271-.032-.315-.071-.637-.1-.968-.071-.646-.132-1.29-.2-1.944-.059-.561-.108-1.12-.167-1.682-.1-1.052-.208-2.105-.306-3.123-.072-.764-.143-1.519-.216-2.241-.016-.17-.03-.331-.046-.492.255,1.206,4.9,23.335,7.558,28.492C345.35,287.116,333.789,315.059,326.646,310.47Z" transform="translate(-298.047 -205.994)" fill="#e2b88e" opacity="0.4"/>
                <path id="Trazado_141593" data-name="Trazado 141593" d="M418.907,334.211c-2.046,11.611-7.255,27.49-7.255,27.49s2.373,8.482,1.909,16.047c-.125,2.034,1.138,7.174,3.03,13.592-.546-1.408-6.392-16.558-6.3-21.842.112-5.545-1.464-7.076-4.556-13.889s-7.8-6.065-7.8-6.065-1.819,17-6.087,5.828-5.09-24.164,5.668-69.276c0,0,1.627,5.66.267,22.468s2.655,21.9,2.655,21.9a156.585,156.585,0,0,0,14.3-33.336s-1.389,19.616-2.629,28.55,4.407-10.352,8.352-22.267c3.706-11.18,3.841-15.433,2.431-23.391,1.048,5.607,1.834,10.954,1.434,14.861C423.5,302.837,420.952,322.609,418.907,334.211Z" transform="translate(-305.595 -208.212)" fill="#e2b88e" opacity="0.4"/>
                <path id="Trazado_141594" data-name="Trazado 141594" d="M341.4,380.356c3.173,5.046,10.943,11.71,15.568,30.152s1.719,38.624,1.719,38.624Z" transform="translate(-301.649 -216.548)" fill="#e2b88e" opacity="0.4"/>
              </g>
              <path id="Trazado_141595" data-name="Trazado 141595" d="M312.717,264.822s-16.239,8.225-17.522,21.979c-4.695-10.48,1.412-6.694-2.265-33.66,0,0,2.7-6.253,10.416-1.256a20.658,20.658,0,0,1,1.724,1.256h.009a21.675,21.675,0,0,1,4.1,4.383Z" transform="translate(-292.923 -185.527)" fill="rgba(0,0,0,0.7)" opacity="0.2"/>
              <g id="Grupo_70545" data-name="Grupo 70545" transform="translate(0 0.003)">
                <path id="Trazado_141596" data-name="Trazado 141596" d="M358.633,438.411s-11.327-60.2-18.088-69.68-5.521-13.387-8.8-19.776-28.36-21.946-29.472-31.027-2.381-26.478-7.079-36.965,1.413-6.694-2.273-33.663c0,0,2.72-6.246,10.424-1.252s11.764,14.988,10.417,26.054c0,0,5.792,19.849,8.852,24.376S338.283,275.031,337.468,272s-3.237-28.855-3.615-33.563c0,0-9.179-13.594-10.122-19.993s-.863-13.14,2.977-15.874c9.1-6.477,6.432,3.957,10.506,8.284s10.316,11.386,13.852,13.605,6.641,11.431,6.641,11.431-5.175-19.018-5.283-22.7-2.923-23.07,1.842-30.024,11.11-1.562,11.694-.189.766,20.159,2.447,25.394S377.1,235.4,377.1,235.4s.3-21.2,1.882-30.686,5.711-16.913,9.742-17.333,7.764,4.025,7.764,4.025-1.6,15.128-1.142,18.619-.655,16.107,1.265,22.9c0,0-.227-18.076,2.586-20.388s5.216-3.416,6.79-1.86,1.918,12.259,3.526,18.7,1.4,15.185,2.457,25.224,5.2,23.978,4.383,31.938-3.371,27.73-5.418,39.338-7.248,27.488-7.248,27.488,2.372,8.478,1.908,16.042,18.141,57.919,18.141,57.919" transform="translate(-292.922 -179.693)" fill="none" stroke="#263238" stroke-linecap="round" stroke-linejoin="round" stroke-width="1"/>
                <path id="Trazado_141597" data-name="Trazado 141597" d="M384.723,240.451c1.9,4.455,6.584,23.267,8.259,25.874a8.876,8.876,0,0,0,3.575,3.39" transform="translate(-300.549 -184.741)" fill="none" stroke="#263238" stroke-linecap="round" stroke-linejoin="round" stroke-width="1"/>
                <path id="Trazado_141598" data-name="Trazado 141598" d="M406,237.752s-.4,3.855,1.68,16.145,3.1,17.526,4.264,20.268" transform="translate(-302.314 -184.517)" fill="none" stroke="#263238" stroke-linecap="round" stroke-linejoin="round" stroke-width="1"/>
                <path id="Trazado_141599" data-name="Trazado 141599" d="M363.577,240.983c2.544,7.49,3.982,19.428,5.43,23.021s2.738,4.341,2.738,4.341" transform="translate(-298.792 -184.785)" fill="none" stroke="#263238" stroke-linecap="round" stroke-linejoin="round" stroke-width="1"/>
                <path id="Trazado_141600" data-name="Trazado 141600" d="M368.07,260.585a11.334,11.334,0,0,1,3.517,4.443" transform="translate(-299.165 -186.414)" fill="none" stroke="#263238" stroke-linecap="round" stroke-linejoin="round" stroke-width="1"/>
                <path id="Trazado_141601" data-name="Trazado 141601" d="M325.3,307.061s1.394,9.932,7.617,9.145" transform="translate(-295.612 -190.275)" fill="none" stroke="#263238" stroke-linecap="round" stroke-linejoin="round" stroke-width="1"/>
                <path id="Trazado_141602" data-name="Trazado 141602" d="M341.411,280.364s1.612,11.8-1.032,16.815" transform="translate(-296.865 -188.057)" fill="none" stroke="#263238" stroke-linecap="round" stroke-linejoin="round" stroke-width="1"/>
                <path id="Trazado_141603" data-name="Trazado 141603" d="M395.167,280.477s4.182,2.56,1.385,10.065-7.66,37.8-7.66,37.8" transform="translate(-300.895 -188.066)" fill="none" stroke="#263238" stroke-linecap="round" stroke-linejoin="round" stroke-width="1"/>
                <path id="Trazado_141604" data-name="Trazado 141604" d="M414.832,289.121c1.753,6.783,1.909,6.959-.939,15.3s-7.438,28.749-7.438,28.749" transform="translate(-302.354 -188.785)" fill="none" stroke="#263238" stroke-linecap="round" stroke-linejoin="round" stroke-width="1"/>
                <path id="Trazado_141605" data-name="Trazado 141605" d="M413.594,368.194s-2.734-5.521-.475-10.056" transform="translate(-302.834 -194.519)" fill="none" stroke="#263238" stroke-linecap="round" stroke-linejoin="round" stroke-width="1"/>
                <path id="Trazado_141606" data-name="Trazado 141606" d="M344.86,385.859s6.915,9.713,9.919,20.578" transform="translate(-297.237 -196.822)" fill="none" stroke="#263238" stroke-linecap="round" stroke-linejoin="round" stroke-width="1"/>
              </g>
            </g>
            <g id="Grupo_70551" data-name="Grupo 70551" transform="translate(0 16.746)">
              <path id="Trazado_141607" data-name="Trazado 141607" d="M400.341,200.04l1.866-1.846.849-.24-.056.914-1.72,2.189Z" transform="translate(-292.041 -197.953)" fill="#757575" stroke="#263238" stroke-linecap="round" stroke-linejoin="round" stroke-width="1"/>
              <g id="Grupo_70548" data-name="Grupo 70548" transform="translate(15.87 1.475)">
                <path id="Trazado_141608" data-name="Trazado 141608" d="M393.474,201.2l-3.039,6.9L308.646,317.15l-9.11-5.807L311.9,295.828l73.463-92.149,6.48-4.116A2.3,2.3,0,0,1,393.474,201.2Z" transform="translate(-299.536 -199.562)" fill="#a77d59"/>
                <g id="Grupo_70547" data-name="Grupo 70547" clip-path="url(#clip-path-4)">
                  <path id="Trazado_141609" data-name="Trazado 141609" d="M393.474,201.2l-3.039,6.9L308.646,317.15l-9.11-5.807L311.9,295.828c5.68-.589,6.63,2.769,6.63,2.769L389,206.626c-.692-2.472-3.633-2.948-3.633-2.948l6.48-4.116A2.3,2.3,0,0,1,393.474,201.2Z" transform="translate(-299.536 -199.562)" fill="rgba(0,0,0,0.7)" opacity="0.3"/>
                </g>
                <path id="Trazado_141611" data-name="Trazado 141611" d="M393.474,201.2l-3.039,6.9L308.646,317.15l-9.11-5.807L311.9,295.828l73.463-92.149,6.48-4.116A2.3,2.3,0,0,1,393.474,201.2Z" transform="translate(-299.536 -199.562)" fill="none" stroke="#263238" stroke-linecap="round" stroke-linejoin="round" stroke-width="1"/>
              </g>
              <g id="Grupo_70550" data-name="Grupo 70550" transform="translate(0 85.656)">
                <path id="Trazado_141612" data-name="Trazado 141612" d="M333.884,292.489s-9.127,18.12-17.912,30.937l-6.275,1.623s-14.394,14.3-23.176,21.443a19.7,19.7,0,0,1-4.293-3.6S294.7,318.94,308.5,303.781a17.6,17.6,0,0,1,4.527,2.4,22.229,22.229,0,0,1,4.725,4.534l15.379-19.348Z" transform="translate(-282.228 -291.371)" fill="#a77d59"/>
                <g id="Grupo_70549" data-name="Grupo 70549" clip-path="url(#clip-path-5)">
                  <path id="Trazado_141613" data-name="Trazado 141613" d="M334.273,292.489s-9.127,18.12-17.912,30.937l-6.275,1.623s-14.394,14.3-23.176,21.443l.238-3.883c9.524-14.552,21.626-30.422,26.263-36.424a22.229,22.229,0,0,1,4.725,4.534l-8.546,11.406,4.9-.88,19.028-29.873Z" transform="translate(-282.617 -291.371)" fill="rgba(0,0,0,0.7)" opacity="0.3"/>
                </g>
                <path id="Trazado_141615" data-name="Trazado 141615" d="M333.884,292.489s-9.127,18.12-17.912,30.937l-6.275,1.623s-14.394,14.3-23.176,21.443a19.7,19.7,0,0,1-4.293-3.6S294.7,318.94,308.5,303.781a17.6,17.6,0,0,1,4.527,2.4,22.229,22.229,0,0,1,4.725,4.534l15.379-19.348Z" transform="translate(-282.228 -291.371)" fill="none" stroke="#263238" stroke-linecap="round" stroke-linejoin="round" stroke-width="1"/>
              </g>
            </g>
            <g id="Grupo_70552" data-name="Grupo 70552" transform="translate(40.112 20.814)">
              <path id="Trazado_141616" data-name="Trazado 141616" d="M368.62,265.135l-25.549,24.773-4.082,3.96c2.795-7.186,1.443-18.3,1.264-19.649V274.2c-.012-.077-.017-.119-.017-.119a1.175,1.175,0,0,0-.022-.2c-.157-.6-.387-2.082-.643-4.106-.056-.451-.112-.927-.173-1.429s-.123-1.028-.182-1.572c-.035-.256-.06-.527-.094-.791-.01-.11-.02-.22-.039-.323-.114-1.036-.24-2.141-.356-3.278-.031-.315-.063-.62-.1-.934-.051-.544-.11-1.1-.169-1.648-.012-.085-.015-.178-.026-.271-.032-.315-.071-.637-.1-.968-.071-.646-.132-1.29-.2-1.944-.059-.561-.108-1.12-.167-1.682-.1-1.052-.208-2.105-.306-3.123q-.12-1.147-.216-2.241c-.016-.17-.03-.331-.046-.492-.386-4.031-.689-7.348-.8-8.764,0,0-9.172-13.59-10.121-19.993s-.865-13.139,2.982-15.874c9.1-6.478,6.431,3.956,10.5,8.281s10.32,11.39,13.855,13.607,6.638,11.434,6.638,11.434c2.544,7.488,3.98,19.422,5.43,23.021S368.62,265.135,368.62,265.135Z" transform="translate(-325.974 -202.39)" fill="#ffcfb4"/>
              <path id="Trazado_141617" data-name="Trazado 141617" d="M368.07,260.585a11.334,11.334,0,0,1,3.517,4.443" transform="translate(-329.471 -207.225)" fill="none" stroke="#263238" stroke-linecap="round" stroke-linejoin="round" stroke-width="1"/>
              <path id="Trazado_141618" data-name="Trazado 141618" d="M339.959,212.737c4.055,4.323,10.28,11.346,13.822,13.588-.5-.25-7.012-3.426-10.654.105-3.787,3.682-6.531,13.892-6.531,13.892s-9.172-13.59-10.121-19.993-.865-13.139,2.982-15.874C338.552,197.979,335.888,208.412,339.959,212.737Z" transform="translate(-325.974 -202.39)" fill="#e2b88e" opacity="0.4"/>
              <path id="Trazado_141619" data-name="Trazado 141619" d="M344.105,294.139l-4.082,3.96c2.795-7.186,1.443-18.3,1.264-19.649v-.017a1.325,1.325,0,0,0-.039-.314c-.157-.6-.387-2.082-.643-4.106-.056-.451-.112-.927-.173-1.429s-.123-1.028-.182-1.572c-.035-.256-.06-.527-.094-.791-.01-.11-.02-.22-.039-.323-.113-1.044-.231-2.14-.356-3.278-.031-.315-.063-.62-.1-.934-.051-.544-.11-1.1-.169-1.648-.012-.085-.015-.178-.026-.271-.032-.315-.071-.637-.1-.968-.071-.646-.132-1.29-.2-1.944-.059-.561-.108-1.12-.167-1.682-.1-1.052-.208-2.105-.306-3.123-.072-.764-.143-1.519-.216-2.241-.016-.17-.03-.331-.046-.492.255,1.206,4.9,23.335,7.558,28.492C346.986,283.762,346.053,288.792,344.105,294.139Z" transform="translate(-327.009 -206.621)" fill="#a77d59" opacity="0.4"/>
              <path id="Trazado_141620" data-name="Trazado 141620" d="M368.621,265.138s-1.289-.747-2.738-4.341-2.886-15.531-5.43-23.021c0,0-3.107-9.211-6.641-11.431s-9.778-9.278-13.852-13.605-1.408-14.761-10.506-8.284c-3.84,2.733-3.92,9.475-2.977,15.874S336.6,240.323,336.6,240.323c.379,4.708,2.8,30.532,3.615,33.563" transform="translate(-325.974 -202.39)" fill="none" stroke="#263238" stroke-linecap="round" stroke-linejoin="round" stroke-width="1"/>
              <path id="Trazado_141621" data-name="Trazado 141621" d="M341.411,280.364s1.612,11.8-1.032,16.815" transform="translate(-327.171 -208.868)" fill="none" stroke="#263238" stroke-linecap="round" stroke-linejoin="round" stroke-width="1"/>
            </g>
          </g>
        </g>
      </g>
      <g id="Left_hand" data-name="Left hand" transform="translate(34.935 65.876)">
        <g id="Grupo_70583" data-name="Grupo 70583">
          <path id="Trazado_141622" data-name="Trazado 141622" d="M163.708,294.662s5.8,26.949-6.771,46.557-22.248,24.836-26.6,30.686-21.383,38.558-21.383,38.558l-19.9-58.93,19.9-72.9Z" transform="translate(-40.252 -84.857)" fill="rgba(0,0,0,0.7)" opacity="0.2"/>
          <g id="Grupo_70580" data-name="Grupo 70580" transform="translate(25.004)">
            <path id="Trazado_141623" data-name="Trazado 141623" d="M278.824,256.5,155.443,308.422l-12.718,5.355-23.968-56.95L63.1,124.58,199.2,67.3Z" transform="translate(-63.1 -67.3)" fill="#fff"/>
            <g id="Grupo_70579" data-name="Grupo 70579" clip-path="url(#clip-path-6)">
              <path id="Trazado_141624" data-name="Trazado 141624" d="M167.737,94.13l-58.749,24.725a2.166,2.166,0,1,0,1.681,3.993l58.749-24.724a2.167,2.167,0,1,0-1.681-3.994Z" transform="translate(-66.802 -69.515)" fill="#263238"/>
              <path id="Trazado_141625" data-name="Trazado 141625" d="M158.207,109.828l-29.374,12.363a1.083,1.083,0,1,0,.84,2l29.374-12.362a1.083,1.083,0,0,0-.84-2Z" transform="translate(-68.506 -70.826)" fill="#263238"/>
              <g id="Grupo_70565" data-name="Grupo 70565" transform="translate(49.019 105.06)">
                <g id="Grupo_70555" data-name="Grupo 70555" transform="translate(0 9.248)">
                  <path id="Trazado_141626" data-name="Trazado 141626" d="M206.988,191.966s1.24,9.733-2.385,11.258c-3.308,1.392-7.666-3.83-11.47-2.229s-.8,15.4-4.473,16.942-8.091-4.124-11.255-2.792-1.252,8.429-4.514,9.8c-2.692,1.133-6.547-4.508-9.629-5.746a2.356,2.356,0,0,0-1.834-.092c-3.229,1.359-1.627,16.18-4.412,17.353a5.229,5.229,0,0,1-2.472.4,18.253,18.253,0,0,0-3.142-.3,4.06,4.06,0,0,0-1.175.3c-2.378,1-2.054,8.8-4.229,9.717s-4.321-.219-6.642.758-2.284,5.032-5.744,6.488l1.463,3.479,84.456-35.543" transform="translate(-117.977 -191.966)" fill="#bfbfbf" stroke="#263238" stroke-miterlimit="10" stroke-width="1"/>
                  <path id="Trazado_141627" data-name="Trazado 141627" d="M116.56,218.921l17.1,40.63,88.426-37.214" transform="translate(-116.56 -194.205)" fill="none" stroke="#263238" stroke-linecap="round" stroke-linejoin="round" stroke-width="1"/>
                  <path id="Trazado_141628" data-name="Trazado 141628" d="M213.784,209.295a14.4,14.4,0,0,0-1.043-1.12c-1.092-1.054-2.828-2.395-4.144-1.84-1.288.542-1.4,2.684-1.377,4.972.03,2.784.272,5.781-1.127,6.37-1.19.5-2.26-.252-3.355-1.075-1.253-.937-2.543-1.961-4.086-1.311-2.608,1.1-1.813,4.493-2.732,7.4a5.624,5.624,0,0,1-3.43,3.705c-2.252.948-4.537.017-6.687-1.451-3.633-2.478-6.9-6.488-9.009-5.6-3.362,1.416.347,10.516-3.269,12.038-2.021.85-6.2-5.522-10.262-11-3.21-4.335-6.349-8.109-8.276-7.3-4.361,1.836,2.825,23.593-.345,24.927-.031.013-.065.027-.1.037a3.346,3.346,0,0,1-3.142-.3c-1.143-.647-2.072-1.565-3.336-1.033-2.334.982-.965,9.512-3.539,10.6s-4.117-.484-7.014.734c-2.451,1.032-3.9,6.966-3.9,6.966l1.463,3.479,84.456-35.543" transform="translate(-117.977 -193.149)" fill="#757575" stroke="#263238" stroke-linecap="round" stroke-linejoin="round" stroke-width="1"/>
                </g>
                <path id="Trazado_141629" data-name="Trazado 141629" d="M198.833,241.2l-29.374,12.362a1.083,1.083,0,0,0,.84,2L199.673,243.2a1.083,1.083,0,1,0-.84-2Z" transform="translate(-120.9 -186.801)" fill="#263238"/>
                <g id="Grupo_70564" data-name="Grupo 70564" transform="translate(97.834)">
                  <g id="Grupo_70559" data-name="Grupo 70559">
                    <rect id="Rectángulo_32041" data-name="Rectángulo 32041" width="4.228" height="4.228" rx="0.626" transform="matrix(0.922, -0.388, 0.388, 0.922, 0, 7.136)" fill="#bfbfbf" stroke="#263238" stroke-miterlimit="10" stroke-width="1"/>
                    <g id="Grupo_70558" data-name="Grupo 70558" transform="translate(6.301)">
                      <g id="Grupo_70556" data-name="Grupo 70556">
                        <path id="Trazado_141630" data-name="Trazado 141630" d="M242.544,182.813l-11.739,4.94a.486.486,0,0,1-.377-.9l11.739-4.94a.486.486,0,0,1,.377.9Z" transform="translate(-230.13 -181.88)" fill="#263238"/>
                      </g>
                      <g id="Grupo_70557" data-name="Grupo 70557" transform="translate(0.82 3.455)">
                        <path id="Trazado_141631" data-name="Trazado 141631" d="M239.857,186.582l-8.158,3.433a.486.486,0,1,1-.377-.9l8.158-3.433a.486.486,0,0,1,.377.9Z" transform="translate(-231.025 -185.648)" fill="#263238"/>
                      </g>
                    </g>
                  </g>
                  <g id="Grupo_70563" data-name="Grupo 70563" transform="translate(3.673 8.727)">
                    <rect id="Rectángulo_32042" data-name="Rectángulo 32042" width="4.228" height="4.228" rx="0.626" transform="matrix(0.922, -0.388, 0.388, 0.922, 0, 7.136)" fill="#757575" stroke="#263238" stroke-linecap="round" stroke-linejoin="round" stroke-width="1"/>
                    <g id="Grupo_70562" data-name="Grupo 70562" transform="translate(6.301)">
                      <g id="Grupo_70560" data-name="Grupo 70560">
                        <path id="Trazado_141632" data-name="Trazado 141632" d="M246.549,192.331l-11.739,4.94a.486.486,0,0,1-.377-.9l11.739-4.94a.486.486,0,0,1,.377.9Z" transform="translate(-234.136 -191.398)" fill="#263238"/>
                      </g>
                      <g id="Grupo_70561" data-name="Grupo 70561" transform="translate(0.82 3.455)">
                        <path id="Trazado_141633" data-name="Trazado 141633" d="M243.862,196.1l-8.157,3.433a.486.486,0,0,1-.377-.9l8.157-3.433a.486.486,0,1,1,.377.9Z" transform="translate(-235.03 -195.166)" fill="#263238"/>
                      </g>
                    </g>
                  </g>
                </g>
              </g>
              <g id="Grupo_70566" data-name="Grupo 70566" transform="translate(76.16 150.616)">
                <path id="Trazado_141634" data-name="Trazado 141634" d="M255.81,231.648l-95.35,40.128a1.083,1.083,0,1,0,.84,2l95.351-40.128a1.083,1.083,0,1,0-.841-2Z" transform="translate(-147.294 -231.563)" fill="#263238"/>
                <path id="Trazado_141635" data-name="Trazado 141635" d="M257.7,239.478,146.824,286.14a1.083,1.083,0,0,0,.841,2L258.54,241.475a1.083,1.083,0,1,0-.84-2Z" transform="translate(-146.161 -232.214)" fill="#263238"/>
                <path id="Trazado_141636" data-name="Trazado 141636" d="M260.995,247.309,150.12,293.97a1.083,1.083,0,0,0,.84,2l110.876-46.662a1.083,1.083,0,1,0-.841-2Z" transform="translate(-146.435 -232.864)" fill="#263238"/>
                <path id="Trazado_141637" data-name="Trazado 141637" d="M264.291,255.139,153.415,301.8a1.083,1.083,0,1,0,.841,2l110.875-46.661a1.083,1.083,0,1,0-.84-2Z" transform="translate(-146.709 -233.515)" fill="#263238"/>
                <path id="Trazado_141638" data-name="Trazado 141638" d="M221.013,284.345l-64.3,27.062a1.083,1.083,0,0,0,.84,2l64.3-27.062a1.083,1.083,0,1,0-.841-2Z" transform="translate(-146.983 -235.941)" fill="#263238"/>
              </g>
              <g id="Grupo_70578" data-name="Grupo 70578" transform="translate(25.765 46.278)">
                <g id="Grupo_70568" data-name="Grupo 70568" transform="translate(0 12.775)">
                  <g id="Grupo_70567" data-name="Grupo 70567" transform="translate(15.635)">
                    <path id="Trazado_141639" data-name="Trazado 141639" d="M181.627,131.7s1.24,9.733-2.385,11.258c-3.308,1.393-7.666-3.83-11.47-2.229s-.8,15.4-4.473,16.943-8.091-4.124-11.255-2.793-1.252,8.429-4.514,9.8c-2.693,1.133-6.547-4.508-9.629-5.746a2.356,2.356,0,0,0-1.834-.092c-3.229,1.359-1.627,16.18-4.412,17.353a5.207,5.207,0,0,1-2.472.4,18.435,18.435,0,0,0-3.142-.3,4.062,4.062,0,0,0-1.175.3c-2.378,1-2.054,8.8-4.229,9.716s-4.321-.219-6.642.758-2.284,5.032-5.744,6.489l1.463,3.478,84.456-35.543" transform="translate(-108.251 -131.704)" fill="#bfbfbf" stroke="#263238" stroke-miterlimit="10" stroke-width="1"/>
                    <path id="Trazado_141640" data-name="Trazado 141640" d="M187.117,145.85s.774,4.717-1.094,5.5c-1.549.652-2.5-.256-4.133-.316a5.431,5.431,0,0,0-2.362.485c-1.493.628-1.855,2.643-2.12,4.81-.326,2.665-.5,5.559-2.45,6.381a6.037,6.037,0,0,1-4.367-.293c-2.424-.845-4.977-2.182-7.438-1.146-1.193.5-2.03,1.8-2.679,3.4-1.53,3.788-2.012,9.273-3.67,9.97-2.357.993-6.674-3.06-8.768-2.179s-1.235,4.516-2.933,5.231-2.667-1.394-5.657-.136-1.534,5.674-5.747,7.447-6.065-1.489-10.145.228-3.338,4.806-6.21,6.015-4.089-.892-6.148-.026c-1.994.839-2.543,4.121-2.575,4.325l1.125,2.675L194.2,162.683" transform="translate(-108.282 -132.879)" fill="#263238" stroke="#263238" stroke-miterlimit="10" stroke-width="1"/>
                  </g>
                  <path id="Trazado_141641" data-name="Trazado 141641" d="M91.2,158.66l17.1,40.63,88.426-37.214" transform="translate(-91.199 -133.943)" fill="none" stroke="#263238" stroke-linecap="round" stroke-linejoin="round" stroke-width="1"/>
                </g>
                <path id="Trazado_141642" data-name="Trazado 141642" d="M173.182,180.253l-29.374,12.363a1.083,1.083,0,1,0,.84,2l29.375-12.362a1.083,1.083,0,0,0-.841-2Z" transform="translate(-95.515 -122.955)" fill="#263238"/>
                <g id="Grupo_70577" data-name="Grupo 70577" transform="translate(96.35)">
                  <g id="Grupo_70572" data-name="Grupo 70572">
                    <rect id="Rectángulo_32043" data-name="Rectángulo 32043" width="4.228" height="4.228" rx="0.626" transform="matrix(0.922, -0.388, 0.388, 0.922, 0, 7.136)" fill="#bfbfbf" stroke="#263238" stroke-miterlimit="10" stroke-width="1"/>
                    <g id="Grupo_70571" data-name="Grupo 70571" transform="translate(6.301)">
                      <g id="Grupo_70569" data-name="Grupo 70569">
                        <path id="Trazado_141643" data-name="Trazado 141643" d="M215.564,118.705l-11.739,4.94a.486.486,0,0,1-.377-.9l11.739-4.94a.486.486,0,1,1,.377.9Z" transform="translate(-203.151 -117.771)" fill="#263238"/>
                      </g>
                      <g id="Grupo_70570" data-name="Grupo 70570" transform="translate(0.82 3.456)">
                        <path id="Trazado_141644" data-name="Trazado 141644" d="M212.877,122.473l-8.158,3.433a.486.486,0,1,1-.377-.895l8.158-3.433a.486.486,0,1,1,.377.895Z" transform="translate(-204.045 -121.54)" fill="#263238"/>
                      </g>
                    </g>
                  </g>
                  <g id="Grupo_70576" data-name="Grupo 70576" transform="translate(3.673 8.727)">
                    <rect id="Rectángulo_32044" data-name="Rectángulo 32044" width="4.228" height="4.228" rx="0.626" transform="matrix(0.922, -0.388, 0.388, 0.922, 0, 7.136)" fill="#a77d59" stroke="#263238" stroke-miterlimit="10" stroke-width="1"/>
                    <g id="Grupo_70575" data-name="Grupo 70575" transform="translate(6.301)">
                      <g id="Grupo_70573" data-name="Grupo 70573">
                        <path id="Trazado_141645" data-name="Trazado 141645" d="M219.569,128.223l-11.738,4.94a.486.486,0,0,1-.377-.9l11.738-4.94a.486.486,0,1,1,.377.9Z" transform="translate(-207.156 -127.289)" fill="#263238"/>
                      </g>
                      <g id="Grupo_70574" data-name="Grupo 70574" transform="translate(0.82 3.456)">
                        <path id="Trazado_141646" data-name="Trazado 141646" d="M216.882,131.991l-8.157,3.433a.486.486,0,1,1-.377-.895L216.5,131.1a.486.486,0,1,1,.377.895Z" transform="translate(-208.05 -131.058)" fill="#263238"/>
                      </g>
                    </g>
                  </g>
                </g>
              </g>
              <path id="Trazado_141647" data-name="Trazado 141647" d="M160.486,321.73l-12.718,5.355L123.8,270.135a14.11,14.11,0,0,0,4.007-7.858c1.43-7.629.422-32.156,19.521-34.687s2.989,40.418,3.869,48.606C152,283.651,162.888,305.318,160.486,321.73Z" transform="translate(-68.143 -80.608)" fill="rgba(0,0,0,0.7)" opacity="0.2"/>
            </g>
            <path id="Trazado_141649" data-name="Trazado 141649" d="M278.824,256.5,155.443,308.422l-12.718,5.355-23.968-56.95L63.1,124.58,199.2,67.3Z" transform="translate(-63.1 -67.3)" fill="none" stroke="#263238" stroke-linecap="round" stroke-linejoin="round" stroke-width="1"/>
          </g>
          <g id="Grupo_70582" data-name="Grupo 70582" transform="translate(0 131.328)">
            <path id="Trazado_141650" data-name="Trazado 141650" d="M145.494,277.892c2.14-7.321,10.5-30.821,9.406-41.211a10.155,10.155,0,0,0-.585-2.53c-2.935-7.758-14.932-7.007-19.537-.579-5.059,7.07-9.191,19.793-9.543,27.536a23.943,23.943,0,0,1-3.628,10.872c-.007.017-.007.026-.016.034a26.856,26.856,0,0,1-2.427,3.448L91.8,210.527a37.061,37.061,0,0,0-7.161,7.993,13.074,13.074,0,0,0-2.1,5.566c-.561,6.4-7.8,32.674-10.817,43.764-.058.238-.125.46-.182.682-2.9,10.656,4.75,50.231,2.564,61.725s-3.546,11.24-3.864,19.4c-.233,5.961-8.76,24.082-18.313,42.684C46.442,403,40.625,413.814,35.83,422.575l69.979-2.906c1.213-8.5,2.456-17.477,3.592-26.163a97.727,97.727,0,0,1,2.091-10.741v-.008c1.545-6.234,3.426-11.875,4.57-15.176a142.984,142.984,0,0,0,3.652-14.759c8.138-8.614,18.811-22.156,21.9-31.328.008-.017.016-.042.023-.06a11.389,11.389,0,0,0,.7-5.954,27.587,27.587,0,0,1-.554-5.009c.008-.008.008-.008,0-.017C141.428,300.523,143.7,283.992,145.494,277.892Z" transform="translate(-35.83 -210.527)" fill="#ffcfb4"/>
            <path id="Trazado_141651" data-name="Trazado 141651" d="M126.014,272.015c-2.17,4.355-4.784,8.586-6.453,13.468s-3.46,5.572-8.359,9.391-8.472-2.472-8.472-2.472,6.48-6.734,4.327-10.479S96.837,268.844,97.315,263.7s-4.891-16.679-4.891-16.679,12.219-7.175,9.848-15.556c-1.295-4.59-7.692-9.475-13.214-12.945a37.061,37.061,0,0,1,7.161-7.993l27.367,64.935A26.856,26.856,0,0,0,126.014,272.015Z" transform="translate(-40.252 -210.527)" fill="#e2b88e" opacity="0.4"/>
            <path id="Trazado_141652" data-name="Trazado 141652" d="M78.667,317.04c.166.55,4.143,13.693.788,19.168-3.434,5.6-6.8,12.731-5.164,20.165,1.309,5.938-9.693,27.4-20.912,41.165,9.552-18.6,18.08-36.724,18.313-42.684.318-8.163,1.669-7.916,3.864-19.4s-5.459-51.07-2.564-61.725c.058-.222.125-.444.182-.682,2.136,12.074,7.113,36.125,8.48,43.856C83.393,326.747,78.851,317.428,78.667,317.04Z" transform="translate(-37.288 -215.721)" fill="#e2b88e" opacity="0.4"/>
            <path id="Trazado_141653" data-name="Trazado 141653" d="M108.44,401.187c8.129-35.013,35.5-61.865,39.208-69.639-3.092,9.173-13.765,22.714-21.9,31.328a142.984,142.984,0,0,1-3.652,14.759c-1.144,3.3-3.025,8.942-4.57,15.176v.008C109.577,402.185,108.44,401.187,108.44,401.187Z" transform="translate(-41.862 -220.581)" fill="#e2b88e" opacity="0.4"/>
            <path id="Trazado_141654" data-name="Trazado 141654" d="M154.279,279.992c-1.794,6.1-4.067,22.63-3.714,32.562-1.439-6.236-4.211-14.154-4.67-25.184-.777-18.705,9.818-12,6.123-21.208s-14.229,2.6-9.038-16.912c3.791-14.242,14.577-14.108,20.119-13a10.155,10.155,0,0,1,.585,2.53C164.783,249.171,156.42,272.671,154.279,279.992Z" transform="translate(-44.615 -212.627)" fill="#e2b88e" opacity="0.4"/>
            <g id="Grupo_70581" data-name="Grupo 70581" transform="translate(10.642)">
              <path id="Trazado_141655" data-name="Trazado 141655" d="M47.436,403.263c8.778-16.033,17.309-32.528,23.458-50.32.737-2.559-.244-5.89.492-8.449,8.312-23.1-1.115-47.153.43-70.818,1.3-9.325,4.28-18.72,7.261-28.116,1.4-6.8,1.93-14.408,4.175-21.245,2.315-5.153,4.595-11.148,9.508-13.788,9.352,21.433,18.675,42.96,27.367,64.935,3.926-2.27,4.558-7.354,5.225-11.6,2.1-10.2,4.244-19.562,8.1-28.151,3.927-6.906,13.92-9.85,20.054-4.2a9.559,9.559,0,0,1,2.8,6.627c-1.194,11.849-4.911,23.8-8.664,34.916-1.473,5.119-2.982,9.4-3.614,14.479.071,1.683.105,2.524.175,4.207-2.175,8.519-.178,16.022-.669,24.471-1.9,15.25-14.1,25.872-22.9,37.194-2.175,8.519-4.35,17.038-7.366,25.592-3.683,12.8-4.841,25.487-6.1,37.822" transform="translate(-47.436 -210.527)" fill="none" stroke="#263238" stroke-linecap="round" stroke-linejoin="round" stroke-width="1"/>
              <path id="Trazado_141656" data-name="Trazado 141656" d="M125.45,281.346a57.255,57.255,0,0,0-4.03,10.02c-1.147,4.494-6.953,3.846-9.949,6.638" transform="translate(-52.756 -216.411)" fill="none" stroke="#263238" stroke-linecap="round" stroke-linejoin="round" stroke-width="1"/>
              <path id="Trazado_141657" data-name="Trazado 141657" d="M102.843,272.719s7.9,2.784,12.49,6.372a24.592,24.592,0,0,0,8,4.464" transform="translate(-52.039 -215.694)" fill="none" stroke="#263238" stroke-linecap="round" stroke-linejoin="round" stroke-width="1"/>
              <path id="Trazado_141658" data-name="Trazado 141658" d="M97.35,250.715s6.371,1.786,11.1-.46a42.381,42.381,0,0,1,1.2-6.773" transform="translate(-51.583 -213.265)" fill="none" stroke="#263238" stroke-linecap="round" stroke-linejoin="round" stroke-width="1"/>
              <path id="Trazado_141659" data-name="Trazado 141659" d="M111.106,251.877s.066.888,3.315.925" transform="translate(-52.726 -213.962)" fill="none" stroke="#263238" stroke-linecap="round" stroke-linejoin="round" stroke-width="1"/>
              <path id="Trazado_141660" data-name="Trazado 141660" d="M126.4,365.72a43.429,43.429,0,0,0-10.014,15.8" transform="translate(-53.165 -223.421)" fill="none" stroke="#263238" stroke-linecap="round" stroke-linejoin="round" stroke-width="1"/>
              <path id="Trazado_141661" data-name="Trazado 141661" d="M74.354,275.924c-.285,5.49,6.164,25.01,8.123,34.709s2.688,16.56,2.688,16.56" transform="translate(-49.672 -215.96)" fill="none" stroke="#263238" stroke-linecap="round" stroke-linejoin="round" stroke-width="1"/>
            </g>
          </g>
        </g>
      </g>
    </g>
  </g>
</svg>
