<svg xmlns="http://www.w3.org/2000/svg" width="400" height="484" viewBox="0 0 400 484">
  <g id="Grupo_70310" data-name="Grupo 70310" transform="translate(-1020 -2737)">
    <g id="Grupo_70182" data-name="Grupo 70182" transform="translate(105 2339.917)">
      <rect id="Rectángulo_31121" data-name="Rectángulo 31121" width="400" height="484" transform="translate(915 397.083)" fill="none"/>
    </g>
    <g id="freepik--Character--inject-42" transform="translate(-925.591 -561.877)">
      <path id="Trazado_140177" data-name="Trazado 140177" d="M1956.309,3355.41l-36.475,35.512-33.61,64.14-37.8,72.521-46.466-21.8-50.2-25.694,32.1-61.334,19.954-68.657c-14.1,9.345-40.322,22.088-71.6,15.437-33.937-7.185-17.64-135.094-17.64-135.094l37.293-.964,3.743,90.2,42.163-18.612.06.155c2.581-1.093,4.767-2.186,5.937-2.779,23.319-12.718,38.618-14.258,63.623-5.335h0l36.088,11.995c9.276,4.354,43.463,21.194,52.824,50.338" transform="translate(353.62 201.485)" fill="#6595bf"/>
      <path id="Trazado_140178" data-name="Trazado 140178" d="M1843.628,3300.28a26.128,26.128,0,0,0-2.255,1.489,24.882,24.882,0,0,0-5.231,5.163,37.269,37.269,0,0,0-5.163,9.577,133.575,133.575,0,0,0-3.846,12.847l-6.411,23.577c-.86,2.951-1.514,5.369-2.013,7.116-.224.792-.422,1.437-.568,1.927a.353.353,0,1,1-.1-.017c.12-.517.267-1.162.465-1.962.448-1.772,1.093-4.2,1.833-7.176,1.609-6.1,3.812-14.413,6.256-23.611a124.123,124.123,0,0,1,3.9-12.908,36.489,36.489,0,0,1,5.318-9.637,23.712,23.712,0,0,1,5.456-5.077,15.3,15.3,0,0,1,1.721-1.024,4.261,4.261,0,0,1,.645-.284Z" transform="translate(338.658 191.607)" fill="#344154"/>
      <g id="Grupo_63537" data-name="Grupo 63537" transform="translate(2112.949 3509.965)" opacity="0.3">
        <path id="Trazado_140179" data-name="Trazado 140179" d="M1822.961,3321.29c-10.429,28.241-29.179,44.013-55.741,58.159a97.687,97.687,0,0,0,43.8-16.039" transform="translate(-1767.22 -3321.29)" fill="#344154"/>
      </g>
      <g id="Grupo_63538" data-name="Grupo 63538" transform="translate(2201.905 3489.873)" opacity="0.3">
        <path id="Trazado_140180" data-name="Trazado 140180" d="M1870.6,3297.94q6.626,106.122,13.251,212.236l-13.079,26.959Z" transform="translate(-1870.6 -3297.94)" fill="#344154"/>
      </g>
      <path id="Trazado_140181" data-name="Trazado 140181" d="M1917.229,3380.875c-.155.06-1.48-3.27-3.347-7.3s-3.519-7.211-3.373-7.288a9.6,9.6,0,0,1,1.291,1.97c.732,1.265,1.669,3.055,2.582,5.077s1.721,3.889,2.177,5.266a8.694,8.694,0,0,1,.671,2.272Z" transform="translate(325.738 182.397)" fill="#fafafa"/>
      <path id="Trazado_140182" data-name="Trazado 140182" d="M1950.473,3365.9a61.2,61.2,0,0,1-7.082,4.75,64.387,64.387,0,0,1-7.392,4.3,66.67,66.67,0,0,1,7.1-4.75,64.1,64.1,0,0,1,7.375-4.3Z" transform="translate(322.18 182.451)" fill="#fafafa"/>
      <path id="Trazado_140183" data-name="Trazado 140183" d="M1937.732,3351.526a30.471,30.471,0,0,1-.585-5.791,29.947,29.947,0,0,1,0-5.826,29.086,29.086,0,0,1,.585,5.8A29.876,29.876,0,0,1,1937.732,3351.526Z" transform="translate(322.039 186.077)" fill="#fafafa"/>
      <path id="Trazado_140184" data-name="Trazado 140184" d="M1970.6,3349.959a65.961,65.961,0,0,1-10.4-6.419,33.1,33.1,0,0,1,5.352,2.969,32.524,32.524,0,0,1,5.051,3.45Z" transform="translate(318.803 185.571)" fill="#fafafa"/>
      <path id="Trazado_140185" data-name="Trazado 140185" d="M1919.636,3416.912a57.757,57.757,0,0,1,2.943-7.546,58.475,58.475,0,0,1,3.442-7.305,114.82,114.82,0,0,1-6.41,14.852Z" transform="translate(324.467 177.406)" fill="#fafafa"/>
      <path id="Trazado_140186" data-name="Trazado 140186" d="M1903.516,3433.287a53.335,53.335,0,0,1-4.836-9.637,25.765,25.765,0,0,1,2.667,4.69,25.321,25.321,0,0,1,2.169,4.948Z" transform="translate(327.387 174.393)" fill="#fafafa"/>
      <path id="Trazado_140187" data-name="Trazado 140187" d="M1915.286,3455.755a18.3,18.3,0,0,1-5.6,1.42,18.058,18.058,0,0,1-5.774.181c0-.164,2.581-.284,5.7-.732S1915.242,3455.574,1915.286,3455.755Z" transform="translate(326.657 169.919)" fill="#fafafa"/>
      <path id="Trazado_140188" data-name="Trazado 140188" d="M1933.58,3431.2a29.043,29.043,0,0,1,1.945-5.283,27.8,27.8,0,0,1,2.452-5.068,29.389,29.389,0,0,1-1.927,5.283,26.8,26.8,0,0,1-2.469,5.068Z" transform="translate(322.517 174.784)" fill="#fafafa"/>
      <path id="Trazado_140189" data-name="Trazado 140189" d="M1892.274,3479.693c-.138.086-1.721-2.125-3.941-4.664s-4.165-4.449-4.044-4.569A29.82,29.82,0,0,1,1892.274,3479.693Z" transform="translate(329.395 167.862)" fill="#fafafa"/>
      <path id="Trazado_140190" data-name="Trazado 140190" d="M1885.315,3429.25a32.448,32.448,0,0,1-2.848,5.447,33.559,33.559,0,0,1-3.347,5.163,34.548,34.548,0,0,1,2.857-5.447A32.492,32.492,0,0,1,1885.315,3429.25Z" transform="translate(330.116 173.612)" fill="#fafafa"/>
      <path id="Trazado_140191" data-name="Trazado 140191" d="M1889.528,3410.925a35.189,35.189,0,0,1-6.092-1.291,34.164,34.164,0,0,1-5.946-1.825,34.233,34.233,0,0,1,6.092,1.282A33.436,33.436,0,0,1,1889.528,3410.925Z" transform="translate(330.343 176.604)" fill="#fafafa"/>
      <path id="Trazado_140192" data-name="Trazado 140192" d="M1891.18,3374.7q3.37,4.355,6.3,9.026a21.312,21.312,0,0,1-3.442-4.3A20.879,20.879,0,0,1,1891.18,3374.7Z" transform="translate(328.433 181.223)" fill="#fafafa"/>
      <path id="Trazado_140193" data-name="Trazado 140193" d="M1878.178,3372.86a47.887,47.887,0,0,1-7.908,6.884,23.736,23.736,0,0,1,3.769-3.666A24.984,24.984,0,0,1,1878.178,3372.86Z" transform="translate(331.351 181.48)" fill="#fafafa"/>
      <path id="Trazado_140194" data-name="Trazado 140194" d="M1887.258,3351.93a35.372,35.372,0,0,1-9.018-10.6c.138-.095,1.927,2.461,4.423,5.378S1887.378,3351.81,1887.258,3351.93Z" transform="translate(330.239 185.88)" fill="#fafafa"/>
      <path id="Trazado_140195" data-name="Trazado 140195" d="M1919.111,3347.73a36.92,36.92,0,0,1-6.109,2.186,36.16,36.16,0,0,1-6.281,1.609,38.464,38.464,0,0,1,6.109-2.177,36.99,36.99,0,0,1,6.282-1.617Z" transform="translate(326.265 184.986)" fill="#fafafa"/>
      <path id="Trazado_140196" data-name="Trazado 140196" d="M1875.286,3315.1c-.163,0-.086-2.5-.473-5.524s-1.093-5.447-.86-5.447a20.092,20.092,0,0,1,1.368,11.006Z" transform="translate(330.843 191.07)" fill="#fafafa"/>
      <path id="Trazado_140197" data-name="Trazado 140197" d="M1843.916,3408.72a21.17,21.17,0,0,1-2.581,1.893c-1.609,1.093-3.812,2.71-6.17,4.569s-4.423,3.605-5.9,4.887a22.4,22.4,0,0,1-2.452,2.056,14.8,14.8,0,0,1,2.177-2.349,73.735,73.735,0,0,1,5.834-5.042,74.67,74.67,0,0,1,6.281-4.457,16.787,16.787,0,0,1,2.814-1.557Z" transform="translate(337.415 176.477)" fill="#fafafa"/>
      <path id="Trazado_140198" data-name="Trazado 140198" d="M1843.51,3396.6c-.146.078-1.97-2.771-4.517-6.092s-4.784-5.851-4.664-5.972a7.661,7.661,0,0,1,1.652,1.514,48.605,48.605,0,0,1,3.442,4.1c1.265,1.721,2.315,3.27,3.029,4.448a8.426,8.426,0,0,1,1.058,2Z" transform="translate(336.366 179.85)" fill="#fafafa"/>
      <path id="Trazado_140199" data-name="Trazado 140199" d="M1851.008,3358.53a66.524,66.524,0,0,1-10.679,5.894,33.619,33.619,0,0,1,5.206-3.192,32.032,32.032,0,0,1,5.473-2.7Z" transform="translate(335.528 183.479)" fill="#fafafa"/>
      <path id="Trazado_140200" data-name="Trazado 140200" d="M1843.445,3339.034a8.756,8.756,0,0,1-1.859-1.471,39.108,39.108,0,0,1-3.933-4.165,39.863,39.863,0,0,1-3.33-4.689,8.42,8.42,0,0,1-1.084-2.108c.146-.086,2.013,3,4.836,6.437S1843.592,3338.9,1843.445,3339.034Z" transform="translate(336.517 187.935)" fill="#fafafa"/>
      <path id="Trazado_140201" data-name="Trazado 140201" d="M1858.25,3339.175a24.338,24.338,0,0,1,2-4.759,23.3,23.3,0,0,1,2.521-4.526,23.842,23.842,0,0,1-2.005,4.758,23.29,23.29,0,0,1-2.521,4.526Z" transform="translate(333.028 187.475)" fill="#fafafa"/>
      <path id="Trazado_140202" data-name="Trazado 140202" d="M1854.358,3318.283c-.172,0,0-3.39-.628-7.478s-1.841-7.245-1.721-7.305a6.944,6.944,0,0,1,.921,2.022,28.42,28.42,0,0,1,1.325,5.163,30.976,30.976,0,0,1,.336,5.352A7.087,7.087,0,0,1,1854.358,3318.283Z" transform="translate(333.9 191.158)" fill="#fafafa"/>
      <path id="Trazado_140203" data-name="Trazado 140203" d="M1857.836,3418.052a24.719,24.719,0,0,1,0-3.192c.078-1.962.138-4.672.06-7.633s-.275-5.7-.439-7.624a20.722,20.722,0,0,1-.2-3.184,16.21,16.21,0,0,1,.6,3.14,71.832,71.832,0,0,1,.6,7.693,69.651,69.651,0,0,1-.224,7.7,15.048,15.048,0,0,1-.4,3.1Z" transform="translate(333.166 178.193)" fill="#fafafa"/>
      <path id="Trazado_140204" data-name="Trazado 140204" d="M1854.377,3452A28.4,28.4,0,0,0,1844,3445.37a15.815,15.815,0,0,1,10.395,6.634Z" transform="translate(335.016 171.363)" fill="#fafafa"/>
      <path id="Trazado_140205" data-name="Trazado 140205" d="M1869.4,3472.59a65.061,65.061,0,0,1-7.495,4.191,63.079,63.079,0,0,1-7.744,3.683,67.107,67.107,0,0,1,7.486-4.182,63.912,63.912,0,0,1,7.753-3.691Z" transform="translate(333.599 167.565)" fill="#fafafa"/>
      <path id="Trazado_140206" data-name="Trazado 140206" d="M1825.6,3478.911a68.029,68.029,0,0,1-5.516-7.013,70.428,70.428,0,0,1-5.06-7.348,140.563,140.563,0,0,1,10.575,14.361Z" transform="translate(339.06 168.687)" fill="#fafafa"/>
      <path id="Trazado_140207" data-name="Trazado 140207" d="M1813.561,3442.736a8.166,8.166,0,0,1-.258-2.237c-.052-1.385-.069-3.27,0-5.447s.3-4.018.482-5.447a8.611,8.611,0,0,1,.447-2.186c.163,0-.163,3.442-.361,7.633S1813.664,3442.736,1813.561,3442.736Z" transform="translate(339.306 173.867)" fill="#fafafa"/>
      <path id="Trazado_140208" data-name="Trazado 140208" d="M1796.681,3505.041a57.9,57.9,0,0,1-6.368-4.93,57.232,57.232,0,0,1-6.023-5.361,57.91,57.91,0,0,1,6.368,4.93A57.263,57.263,0,0,1,1796.681,3505.041Z" transform="translate(343.347 164.473)" fill="#fafafa"/>
      <path id="Trazado_140209" data-name="Trazado 140209" d="M1807.5,3502.048a64.426,64.426,0,0,1-.49-8.544,65.981,65.981,0,0,1,.086-8.553,126.988,126.988,0,0,1,.4,17.1Z" transform="translate(340.19 165.84)" fill="#fafafa"/>
      <path id="Trazado_140210" data-name="Trazado 140210" d="M1821.162,3542.337c0,.086-1.368-.448-3.554-1.162a51.092,51.092,0,0,0-17.674-2.409,35.777,35.777,0,0,1-3.734.155,3.526,3.526,0,0,1,.981-.224c.637-.12,1.575-.232,2.728-.327a42.623,42.623,0,0,1,17.8,2.435,24.675,24.675,0,0,1,2.581,1.093,3.132,3.132,0,0,1,.869.439Z" transform="translate(341.686 158.404)" fill="#fafafa"/>
      <path id="Trazado_140211" data-name="Trazado 140211" d="M1839.71,3549.92a12.715,12.715,0,0,1,2.461,1.721,62.49,62.49,0,0,1,10.171,10.171,12.723,12.723,0,0,1,1.721,2.461,19.218,19.218,0,0,1-2.056-2.238c-1.2-1.385-2.9-3.27-4.87-5.24s-3.855-3.666-5.24-4.87a19.7,19.7,0,0,1-2.185-2Z" transform="translate(335.615 156.775)" fill="#fafafa"/>
      <path id="Trazado_140212" data-name="Trazado 140212" d="M1845.17,3481.849a44.133,44.133,0,0,1-2.822-6.359,42.153,42.153,0,0,1-2.3-6.54,44.7,44.7,0,0,1,2.823,6.359,43.678,43.678,0,0,1,2.3,6.54Z" transform="translate(335.567 168.073)" fill="#fafafa"/>
      <path id="Trazado_140213" data-name="Trazado 140213" d="M1792.909,3355.569a8.406,8.406,0,0,1-1.669,1.824,36.417,36.417,0,0,1-4.664,3.683,35.353,35.353,0,0,1-5.163,2.9,8.614,8.614,0,0,1-2.323.86c-.06-.164,3.39-1.644,7.219-4.2S1792.78,3355.44,1792.909,3355.569Z" transform="translate(344.073 183.893)" fill="#fafafa"/>
      <path id="Trazado_140214" data-name="Trazado 140214" d="M1798.394,3340.578a41.568,41.568,0,0,1,.456-9.7,42.071,42.071,0,0,1-.456,9.7Z" transform="translate(341.394 187.337)" fill="#fafafa"/>
      <path id="Trazado_140215" data-name="Trazado 140215" d="M1771.339,3352.6a31.822,31.822,0,0,1-5.653-2.28,32.678,32.678,0,0,1-5.455-2.8,33.58,33.58,0,0,1,5.662,2.28,32.88,32.88,0,0,1,5.447,2.8Z" transform="translate(346.704 185.015)" fill="#fafafa"/>
      <path id="Trazado_140216" data-name="Trazado 140216" d="M1818.209,3334.3a32.127,32.127,0,0,1,.181-6.023,31.055,31.055,0,0,1,.74-5.98,32.745,32.745,0,0,1-.172,6.023,31.925,31.925,0,0,1-.748,5.98Z" transform="translate(338.624 188.534)" fill="#fafafa"/>
      <path id="Trazado_140217" data-name="Trazado 140217" d="M1757.848,3379.146a20.654,20.654,0,0,1-6.212-2.719,20.087,20.087,0,0,1-5.335-4.208c.112-.138,2.435,1.816,5.619,3.726S1757.908,3378.982,1757.848,3379.146Z" transform="translate(348.648 181.57)" fill="#fafafa"/>
      <path id="Trazado_140218" data-name="Trazado 140218" d="M1739.358,3354.5a45.885,45.885,0,0,1-4.638,5.447,47.359,47.359,0,0,1-5.06,5.163,92.919,92.919,0,0,1,9.7-10.627Z" transform="translate(350.97 184.044)" fill="#fafafa"/>
      <path id="Trazado_140219" data-name="Trazado 140219" d="M1737.822,3330.287a15.943,15.943,0,0,1-5.086-2.848,16.526,16.526,0,0,1-4.156-4.07c.12-.121,1.953,1.721,4.5,3.614S1737.9,3330.141,1737.822,3330.287Z" transform="translate(351.12 188.386)" fill="#fafafa"/>
      <path id="Trazado_140220" data-name="Trazado 140220" d="M1726.657,3336.25a13.55,13.55,0,0,1-2.323,3.184,14.266,14.266,0,0,1-2.754,2.822,27.388,27.388,0,0,1,5.077-6.006Z" transform="translate(352.097 186.588)" fill="#fafafa"/>
      <path id="Trazado_140221" data-name="Trazado 140221" d="M1751.351,3293.39a44.5,44.5,0,0,1-4.3,5.645,42.224,42.224,0,0,1-4.7,5.292,46.12,46.12,0,0,1,4.26-5.653,44.907,44.907,0,0,1,4.741-5.283Z" transform="translate(349.199 192.568)" fill="#fafafa"/>
      <path id="Trazado_140222" data-name="Trazado 140222" d="M1729.684,3296.622a39.506,39.506,0,0,1-4.647-4.87,40.429,40.429,0,0,1-4.208-5.232,40.029,40.029,0,0,1,4.647,4.862,41.082,41.082,0,0,1,4.208,5.24Z" transform="translate(352.202 193.527)" fill="#fafafa"/>
      <path id="Trazado_140223" data-name="Trazado 140223" d="M1741.023,3269.04a32.978,32.978,0,0,1-3.27-5.163,34.794,34.794,0,0,1-2.754-5.447,64.764,64.764,0,0,1,6.023,10.618Z" transform="translate(350.225 197.446)" fill="#fafafa"/>
      <path id="Trazado_140224" data-name="Trazado 140224" d="M1741.409,3251.288c-.129-.1,1.506-2.177,2.805-5.111s1.721-5.516,1.936-5.447a16.727,16.727,0,0,1-4.741,10.593Z" transform="translate(349.331 199.916)" fill="#fafafa"/>
      <path id="Trazado_140225" data-name="Trazado 140225" d="M1720.524,3250.048a12.607,12.607,0,0,1,1.342-6.668,15.866,15.866,0,0,1,2.659-4.053,5.168,5.168,0,0,1,1.515-1.316,22.431,22.431,0,0,0-5.516,12.046Z" transform="translate(352.249 200.295)" fill="#fafafa"/>
      <path id="Trazado_140226" data-name="Trazado 140226" d="M1903.075,3216.146a68.457,68.457,0,0,1-.12-13.622,23.234,23.234,0,0,1,5.008-12.451c2.977-3.442,7.555-5.662,12.047-5.077,2.788.353,5.447,1.721,8.226,1.652,3.27-.095,6.075-2.1,9.026-3.442a23.6,23.6,0,0,1,14.86-1.557,14.13,14.13,0,0,1,7.03,3.553,7.882,7.882,0,0,1,2.281,7.28,37.575,37.575,0,0,1,9.809.861,12.64,12.64,0,0,1,7.83,5.447c1.627,2.848,1.515,6.8-.86,9.1a6.273,6.273,0,0,1,6.936,4.724,8.071,8.071,0,0,1-3.27,8.105,15.116,15.116,0,0,1-10.188,2.056c-3.029-.585-6.539-1.428-8.975-3.27" transform="translate(326.83 208.237)" fill="#344154"/>
      <path id="Trazado_140227" data-name="Trazado 140227" d="M1897.511,3322.019h0a23.525,23.525,0,0,0,28.585-16.762c1.841-6.988,3.347-12.839,3.347-12.839s18.208,3.124,24.231-14.172,16.349-57.987,16.349-57.987h0a63.469,63.469,0,0,0-63-12.692l-3.27,1.084-23.13,84.275a23.517,23.517,0,0,0,16.349,28.955Z" transform="translate(330.027 205.026)" fill="#ffbf9d"/>
      <path id="Trazado_140228" data-name="Trazado 140228" d="M1934.31,3304.193a42.541,42.541,0,0,1-20.41-13.983s1.153,14.241,18.93,18.526Z" transform="translate(325.263 193.012)" fill="#aa6550"/>
      <path id="Trazado_140229" data-name="Trazado 140229" d="M1900.778,3230.761c-.25-.224-10.713-7.5-14.3,4.457s9.156,13.079,9.276,12.761S1900.778,3230.761,1900.778,3230.761Z" transform="translate(329.178 201.641)" fill="#ffbf9d"/>
      <path id="Trazado_140230" data-name="Trazado 140230" d="M1893.97,3242.962a3.157,3.157,0,0,1-.654.146,2.21,2.21,0,0,1-1.523-.456c-1.093-.861-1.583-3.175-.99-5.344a7.08,7.08,0,0,1,1.471-2.814,2.52,2.52,0,0,1,2.048-1.084,1.076,1.076,0,0,1,1.084.938c.069.379-.086.594,0,.637s.318-.129.361-.654a1.335,1.335,0,0,0-.241-.86,1.584,1.584,0,0,0-1.084-.654,3.02,3.02,0,0,0-2.736,1.2,7.317,7.317,0,0,0-1.721,3.115c-.654,2.435-.1,5.06,1.48,6.084a2.323,2.323,0,0,0,2,.249C1893.893,3243.246,1894.039,3243.014,1893.97,3242.962Z" transform="translate(328.638 201.022)" fill="#aa6550"/>
      <path id="Trazado_140231" data-name="Trazado 140231" d="M1966.793,3251.393a2.581,2.581,0,0,1-3.27,1.721,2.5,2.5,0,0,1-1.816-3.029v-.052a2.581,2.581,0,0,1,3.21-1.721,2.5,2.5,0,0,1,1.876,3.012A.17.17,0,0,1,1966.793,3251.393Z" transform="translate(318.603 198.873)" fill="#344154"/>
      <path id="Trazado_140232" data-name="Trazado 140232" d="M1969.8,3249.253c-.422.215-1.824-1.79-4.483-2.685s-5.068-.207-5.24-.628c-.1-.189.413-.663,1.471-1.007a7.1,7.1,0,0,1,4.354.112,6.884,6.884,0,0,1,3.442,2.538C1969.913,3248.453,1969.99,3249.132,1969.8,3249.253Z" transform="translate(318.822 199.37)" fill="#344154"/>
      <path id="Trazado_140233" data-name="Trazado 140233" d="M1936.4,3241.192a2.581,2.581,0,0,1-3.218,1.721,2.5,2.5,0,0,1-1.807-3.029v-.052a2.582,2.582,0,0,1,3.218-1.721,2.5,2.5,0,0,1,1.816,3.029Z" transform="translate(322.835 200.296)" fill="#344154"/>
      <path id="Trazado_140234" data-name="Trazado 140234" d="M1939.22,3239.585c-.413.232-1.833-1.781-4.492-2.676s-5.051-.207-5.24-.637c-.086-.181.413-.663,1.48-.99a7.132,7.132,0,0,1,4.363.1,6.884,6.884,0,0,1,3.442,2.581C1939.332,3238.828,1939.393,3239.5,1939.22,3239.585Z" transform="translate(323.09 200.716)" fill="#344154"/>
      <path id="Trazado_140235" data-name="Trazado 140235" d="M1944.32,3263.337c0-.146,1.79.112,4.578.671.714.164,1.394.241,1.669-.189a3.632,3.632,0,0,0,.215-2.177c-.086-1.867-.172-3.812-.267-5.851-.318-8.295-.31-15.032,0-15.041s.86,6.712,1.17,15.007c.069,2.039.12,3.992.181,5.851a4.131,4.131,0,0,1-.533,2.78,1.807,1.807,0,0,1-1.454.619,4.384,4.384,0,0,1-1.2-.224C1945.955,3264.06,1944.277,3263.518,1944.32,3263.337Z" transform="translate(321.019 199.913)" fill="#344154"/>
      <path id="Trazado_140236" data-name="Trazado 140236" d="M1934.32,3266.118c.43.12-.525,3.012,1.265,5.886s4.956,3.6,4.844,4c0,.2-.86.335-2.177-.069a7.538,7.538,0,0,1-4.1-3.184,6.55,6.55,0,0,1-.861-4.87C1933.563,3266.643,1934.122,3266.015,1934.32,3266.118Z" transform="translate(322.578 196.375)" fill="#344154"/>
      <path id="Trazado_140237" data-name="Trazado 140237" d="M1970.614,3243.394c-.662.448-2.289-.8-4.483-1.575s-4.2-.955-4.423-1.721c-.086-.37.413-.861,1.42-1.179a6.883,6.883,0,0,1,7.176,2.659C1970.873,3242.456,1970.916,3243.161,1970.614,3243.394Z" transform="translate(318.594 200.195)" fill="#344154"/>
      <path id="Trazado_140238" data-name="Trazado 140238" d="M1938.862,3226.866c-.4.224-1.084-.137-1.859-.611a21.6,21.6,0,0,0-3.141-1.532,20.08,20.08,0,0,0-3.39-.86c-.929-.189-1.644-.327-1.807-.766s.361-1.084,1.532-1.523a7.383,7.383,0,0,1,8.5,3.158C1939.275,3225.842,1939.275,3226.694,1938.862,3226.866Z" transform="translate(323.207 202.636)" fill="#344154"/>
      <path id="Trazado_140239" data-name="Trazado 140239" d="M1971.922,3225.277a42.844,42.844,0,0,1-24.825-9.749c-7.822-6.41-17.622-10.9-20.29-9.637s-5.214,10.248-14.559,10.9c0,0-3.339,17.493-10.119,15.256s3.657-28.086,3.657-28.086l18.793-4.423,19.257.706,17.3,3.924,14.964,8.6Z" transform="translate(327.225 205.663)" fill="#344154"/>
      <rect id="Rectángulo_15041" data-name="Rectángulo 15041" width="244.693" height="381.035" transform="translate(1957.35 3362.334)" fill="#fafafa"/>
      <path id="Trazado_140240" data-name="Trazado 140240" d="M1831.042,3530.709c0-2.341-.1-157.1-.258-381.044l.258.267H1586.384l.292-.284c0,144.155,0,276.9-.06,381.035l-.232-.224,244.693.224-244.693.224h-.215v-.2c0-104.117,0-236.88-.069-381.044v-.275h245.235v.258C1831.154,3373.638,1831.042,3528.377,1831.042,3530.709Z" transform="translate(371 212.66)" fill="#344154"/>
      <path id="Trazado_140241" data-name="Trazado 140241" d="M1656.9,3240.044h-31.313a3.933,3.933,0,0,1-3.924-3.915v-43.342a3.924,3.924,0,0,1,3.924-3.906h19.86l15.368,15.833v31.416a3.915,3.915,0,0,1-3.915,3.915Z" transform="translate(366.038 207.15)" fill="#d9a171"/>
      <path id="Trazado_140242" data-name="Trazado 140242" d="M1649.3,3188.88v12.193a3.657,3.657,0,0,0,3.64,3.64h11.728Z" transform="translate(362.182 207.15)" fill="#d9a171"/>
      <g id="Grupo_63539" data-name="Grupo 63539" transform="translate(2011.645 3409.29)" opacity="0.2">
        <path id="Trazado_140243" data-name="Trazado 140243" d="M1649.49,3204.29a4.036,4.036,0,0,0,3.2,3.933l.4.086c1.523.275,11.608,2.065,11.608,1.833v-3.27h-11.728S1650.049,3206.76,1649.49,3204.29Z" transform="translate(-1649.49 -3204.29)" fill="#344154"/>
      </g>
      <g id="Grupo_63540" data-name="Grupo 63540" transform="translate(2011.482 3396.03)" opacity="0.3">
        <path id="Trazado_140244" data-name="Trazado 140244" d="M1649.3,3188.88v12.193a3.657,3.657,0,0,0,3.64,3.64h11.728Z" transform="translate(-1649.3 -3188.88)" fill="#ffbf9d"/>
      </g>
      <path id="Trazado_140245" data-name="Trazado 140245" d="M1643.9,3202.4a92.451,92.451,0,0,1-14.482,0,92.48,92.48,0,0,1,14.482,0Z" transform="translate(364.956 205.303)" fill="#fafafa"/>
      <path id="Trazado_140246" data-name="Trazado 140246" d="M1653.247,3210.434c0,.155-5.326.284-11.909.284s-11.918-.129-11.918-.284,5.335-.284,11.918-.284S1653.247,3210.271,1653.247,3210.434Z" transform="translate(364.956 204.182)" fill="#fafafa"/>
      <path id="Trazado_140247" data-name="Trazado 140247" d="M1655.4,3217.124c0,.163-5.808.284-12.993.284s-12.984-.12-12.984-.284,5.817-.284,12.984-.284S1655.4,3216.978,1655.4,3217.124Z" transform="translate(364.956 203.249)" fill="#fafafa"/>
      <path id="Trazado_140248" data-name="Trazado 140248" d="M1655.4,3223.444c0,.155-5.808.284-12.993.284s-12.984-.129-12.984-.284,5.817-.284,12.984-.284S1655.4,3223.28,1655.4,3223.444Z" transform="translate(364.956 202.367)" fill="#fafafa"/>
      <path id="Trazado_140249" data-name="Trazado 140249" d="M1655.4,3229.754c0,.163-5.808.284-12.993.284s-12.984-.12-12.984-.284,5.817-.284,12.984-.284S1655.4,3229.6,1655.4,3229.754Z" transform="translate(364.956 201.487)" fill="#fafafa"/>
      <path id="Trazado_140250" data-name="Trazado 140250" d="M1655.4,3236.074c0,.146-5.808.284-12.993.284s-12.984-.137-12.984-.284,5.817-.284,12.984-.284S1655.4,3235.91,1655.4,3236.074Z" transform="translate(364.956 200.605)" fill="#fafafa"/>
      <rect id="Rectángulo_15042" data-name="Rectángulo 15042" width="4.182" height="319.933" rx="1.68" transform="translate(2183.603 3385.79)" fill="#aed3f2"/>
      <rect id="Rectángulo_15043" data-name="Rectángulo 15043" width="4.182" height="164.944" rx="1.68" transform="translate(2183.603 3385.79)" fill="#d9a171"/>
      <path id="Trazado_140251" data-name="Trazado 140251" d="M1795.52,3316.884c0,.163-37.611.284-83.991.284s-84-.12-84-.284,37.611-.284,84-.284S1795.52,3316.738,1795.52,3316.884Z" transform="translate(365.219 189.33)" fill="#344154"/>
      <path id="Trazado_140252" data-name="Trazado 140252" d="M1795.52,3331.664c0,.155-37.611.284-83.991.284s-84-.129-84-.284,37.611-.284,84-.284S1795.52,3331.5,1795.52,3331.664Z" transform="translate(365.219 187.268)" fill="#344154"/>
      <path id="Trazado_140253" data-name="Trazado 140253" d="M1795.52,3346.434c0,.164-37.611.284-83.991.284s-84-.12-84-.284,37.611-.284,84-.284S1795.52,3346.279,1795.52,3346.434Z" transform="translate(365.219 185.207)" fill="#344154"/>
      <path id="Trazado_140254" data-name="Trazado 140254" d="M1795.52,3361.214c0,.155-37.611.284-83.991.284s-84-.129-84-.284,37.611-.284,84-.284S1795.52,3361.051,1795.52,3361.214Z" transform="translate(365.219 183.145)" fill="#344154"/>
      <path id="Trazado_140255" data-name="Trazado 140255" d="M1795.52,3375.954c0,.164-37.611.284-83.991.284s-84-.12-84-.284,37.611-.284,84-.284S1795.52,3375.825,1795.52,3375.954Z" transform="translate(365.219 181.088)" fill="#344154"/>
      <path id="Trazado_140256" data-name="Trazado 140256" d="M1795.52,3390.764c0,.155-37.611.284-83.991.284s-84-.129-84-.284,37.611-.284,84-.284S1795.52,3390.6,1795.52,3390.764Z" transform="translate(365.219 179.022)" fill="#344154"/>
      <path id="Trazado_140257" data-name="Trazado 140257" d="M1795.52,3446.844c0,.155-37.611.284-83.991.284s-84-.129-84-.284,37.611-.284,84-.284S1795.52,3446.715,1795.52,3446.844Z" transform="translate(365.219 171.197)" fill="#344154"/>
      <path id="Trazado_140258" data-name="Trazado 140258" d="M1795.52,3472.174c0,.155-37.611.284-83.991.284s-84-.129-84-.284,37.611-.284,84-.284S1795.52,3471.985,1795.52,3472.174Z" transform="translate(365.219 167.663)" fill="#aed3f2"/>
      <path id="Trazado_140259" data-name="Trazado 140259" d="M1865.6,3532.6l12.683-6.1-6.97-20.651-15.325-3.537c-1.428-.327-3.02-.714-4.784-1.2a19.2,19.2,0,0,1-5.808-2.728,29.09,29.09,0,0,1-6.084-5.163c-1.446-1.97-4.517-1.23-4.517.964s3.864,7.744,10.747,11.625-5.292,5.8-9.689,6.54-17.941,3.786-18.75,5.318c-1.179,2.246,1.093,3.967,5.447,3.106s17.76-2.582,18.07-.224v.06a9.577,9.577,0,0,0,.577,11.117c2.461,3.08,6.161,6.953,8.871,6.367C1855.2,3537.03,1865.6,3532.6,1865.6,3532.6Z" transform="translate(338.813 164.847)" fill="#ffbf9d"/>
      <path id="Trazado_140260" data-name="Trazado 140260" d="M1872.61,3479.935l11.892,40.2,92.32-28.052a37.06,37.06,0,0,0,24.609-46.268c-.069-.232-.146-.464-.224-.7l-22.631-70.43-49.167,12.2,26.984,65.172Z" transform="translate(331.024 181.225)" fill="#6595bf"/>
      <path id="Trazado_140261" data-name="Trazado 140261" d="M1978.851,3495.53l-.448.163-1.334.43-5.163,1.6-19.343,5.929-67.2,20.393-.25.06-.086-.241c-4.1-12.288-8.1-25.814-12.709-39.685l-.086-.267.275-.095,2.323-.766L1956.3,3456l-.129.292c-6.54-15.807-11.832-28.748-15.54-37.775l-4.251-10.412c-.465-1.187-.86-2.1-1.093-2.728s-.344-.938-.344-.938.155.3.413.912l1.153,2.7,4.363,10.369c3.743,9,9.13,21.925,15.712,37.706l.086.215-.224.077-81.478,27.165-2.323.774.181-.361c4.621,13.9,8.6,27.415,12.683,39.694l-.327-.172,67.255-20.187,19.412-5.782,5.163-1.514,1.351-.387Z" transform="translate(331.077 177.074)" fill="#344154"/>
      <path id="Trazado_140262" data-name="Trazado 140262" d="M1986.962,3476.333c-.095,0-.7-1.015-1.936-2.581a24.953,24.953,0,0,0-12.58-8.346c-1.9-.542-3.123-.7-3.106-.792a2.461,2.461,0,0,1,.86,0,15.319,15.319,0,0,1,2.332.387,22.658,22.658,0,0,1,7.151,3.115,22.368,22.368,0,0,1,5.653,5.378,15.7,15.7,0,0,1,1.265,2,2.431,2.431,0,0,1,.361.834Z" transform="translate(317.528 168.683)" fill="#344154"/>
      <path id="Trazado_140263" data-name="Trazado 140263" d="M1963.765,3390.926a64.723,64.723,0,0,1,0-11.927,62.759,62.759,0,0,1,0,11.927Z" transform="translate(318.344 180.623)" fill="#fafafa"/>
      <path id="Trazado_140264" data-name="Trazado 140264" d="M1984.8,3392.122a31.177,31.177,0,0,1-2-5.7,32.253,32.253,0,0,1-1.463-5.877,64.769,64.769,0,0,1,3.468,11.582Z" transform="translate(315.855 180.408)" fill="#fafafa"/>
      <path id="Trazado_140265" data-name="Trazado 140265" d="M1970.252,3412.885a20.435,20.435,0,0,1-10.781-3.158c.077-.155,2.357.929,5.326,1.79S1970.252,3412.722,1970.252,3412.885Z" transform="translate(318.905 176.338)" fill="#fafafa"/>
      <path id="Trazado_140266" data-name="Trazado 140266" d="M1996.36,3422.26a29.442,29.442,0,0,1,.7-5.688,29.794,29.794,0,0,1,1.256-5.6,30.3,30.3,0,0,1-.7,5.7A28.954,28.954,0,0,1,1996.36,3422.26Z" transform="translate(313.758 176.163)" fill="#fafafa"/>
      <path id="Trazado_140267" data-name="Trazado 140267" d="M1986.856,3439.814a60.416,60.416,0,0,1-4.9-10.7,61.042,61.042,0,0,1,4.9,10.7Z" transform="translate(315.767 173.632)" fill="#fafafa"/>
      <path id="Trazado_140268" data-name="Trazado 140268" d="M1982.446,3456.029a28.218,28.218,0,0,1-5.163-2.177,27.546,27.546,0,0,1-4.913-2.7,29.294,29.294,0,0,1,5.163,2.177A27.729,27.729,0,0,1,1982.446,3456.029Z" transform="translate(317.105 170.556)" fill="#fafafa"/>
      <path id="Trazado_140269" data-name="Trazado 140269" d="M2010.8,3452.75a45.5,45.5,0,0,1-2.083,5.008,42.951,42.951,0,0,1-2.186,4.948,28.839,28.839,0,0,1,4.268-9.956Z" transform="translate(312.339 170.333)" fill="#fafafa"/>
      <path id="Trazado_140270" data-name="Trazado 140270" d="M2003.665,3487.564a65.709,65.709,0,0,1-1.2-12.244,34.764,34.764,0,0,1,.861,6.092A33.462,33.462,0,0,1,2003.665,3487.564Z" transform="translate(312.907 167.184)" fill="#fafafa"/>
      <path id="Trazado_140271" data-name="Trazado 140271" d="M1983.164,3499.927a27.759,27.759,0,0,1-4.363-3.6,28.463,28.463,0,0,1-3.941-4.01,27.727,27.727,0,0,1,4.354,3.6A28.494,28.494,0,0,1,1983.164,3499.927Z" transform="translate(316.758 164.812)" fill="#fafafa"/>
      <path id="Trazado_140272" data-name="Trazado 140272" d="M1949.915,3504.49a63.094,63.094,0,0,1-7.125,9.723,31.078,31.078,0,0,1,3.339-5.025,32.539,32.539,0,0,1,3.786-4.7Z" transform="translate(321.232 163.114)" fill="#fafafa"/>
      <path id="Trazado_140273" data-name="Trazado 140273" d="M1960.382,3487.431a20.178,20.178,0,0,1-4.414-3.872,19.565,19.565,0,0,1-3.528-4.689c.129-.095,1.721,1.953,3.95,4.3A54.911,54.911,0,0,1,1960.382,3487.431Z" transform="translate(319.886 166.689)" fill="#fafafa"/>
      <path id="Trazado_140274" data-name="Trazado 140274" d="M1935.067,3492.275a8.492,8.492,0,0,1-4.363.534,8.68,8.68,0,0,1-4.225-1.153c.06-.164,1.9.43,4.3.594S1935.067,3492.111,1935.067,3492.275Z" transform="translate(323.508 164.909)" fill="#fafafa"/>
      <path id="Trazado_140275" data-name="Trazado 140275" d="M1920.226,3518.555a20.364,20.364,0,0,1-1.093-4.681,19.9,19.9,0,0,1-.534-4.785A41.074,41.074,0,0,1,1920.226,3518.555Z" transform="translate(324.608 162.472)" fill="#fafafa"/>
      <path id="Trazado_140276" data-name="Trazado 140276" d="M1899.907,3528.546a68.953,68.953,0,0,1-10.687-6.746,36.578,36.578,0,0,1,5.5,3.141,36.055,36.055,0,0,1,5.188,3.605Z" transform="translate(328.707 160.699)" fill="#fafafa"/>
      <path id="Trazado_140277" data-name="Trazado 140277" d="M1907.329,3495.93c.12.112-1.463,1.979-3.218,4.423a52.326,52.326,0,0,1-3.2,4.448,25.818,25.818,0,0,1,6.419-8.871Z" transform="translate(327.076 164.308)" fill="#fafafa"/>
      <path id="Trazado_140278" data-name="Trazado 140278" d="M1892.809,3501.833a10.492,10.492,0,0,1-3.192-1.282,10.135,10.135,0,0,1-2.917-1.781A20.377,20.377,0,0,1,1892.809,3501.833Z" transform="translate(329.058 163.912)" fill="#fafafa"/>
      <g id="Grupo_63541" data-name="Grupo 63541" transform="translate(2286.644 3630.844)" opacity="0.2">
        <path id="Trazado_140279" data-name="Trazado 140279" d="M1969.08,3462.553c4.93.508,9.87,1.015,14.783,1.635a18.166,18.166,0,0,1,5.008,1.093,6.384,6.384,0,0,1,3.579,3.5,3.906,3.906,0,0,1-1.368,4.56,4.5,4.5,0,0,1-4.466-.2,23.88,23.88,0,0,1-3.683-2.883,20.591,20.591,0,0,0-7.563-3.958,12.8,12.8,0,0,1-3.614-1.265,3.132,3.132,0,0,1-1.575-3.27" transform="translate(-1969.08 -3461.77)" fill="#344154"/>
      </g>
      <text id="Fórmulas" transform="translate(2035.028 3416.877)" fill="#12263f" font-size="16" font-family="Roboto-Regular, Roboto"><tspan x="0" y="15">Fórmulas</tspan></text>
    </g>
    <g id="Grupo_70301" data-name="Grupo 70301" transform="translate(1220 2744)">
      <g id="Grupo_62584" data-name="Grupo 62584">
        <g id="Grupo_62578" data-name="Grupo 62578">
          <g id="Grupo_62577" data-name="Grupo 62577">
            <path id="Trazado_132423" data-name="Trazado 132423" d="M476.474,342.662a41.573,41.573,0,1,1-24.91-53.18A41.528,41.528,0,0,1,476.474,342.662Z" transform="translate(-395.827 -286.967)" fill="#f5f5f5"/>
          </g>
        </g>
        <g id="Grupo_62580" data-name="Grupo 62580" transform="translate(9.892 9.874)">
          <g id="Grupo_62579" data-name="Grupo 62579">
            <path id="Trazado_132424" data-name="Trazado 132424" d="M466.018,338.128A31.681,31.681,0,1,1,447.036,297.6,31.646,31.646,0,0,1,466.018,338.128Z" transform="translate(-404.561 -295.684)" fill="#ebebeb"/>
          </g>
        </g>
        <g id="Grupo_62583" data-name="Grupo 62583" transform="translate(11.443 8.698)">
          <g id="Grupo_62582" data-name="Grupo 62582">
            <g id="Grupo_62581" data-name="Grupo 62581">
              <path id="Trazado_132425" data-name="Trazado 132425" d="M466.168,337.331c-.182-.06.165-1.412.514-3.868a33.636,33.636,0,0,0-.119-10.374,32.443,32.443,0,0,0-1.977-6.843,31.694,31.694,0,0,0-4.074-7.045,31.089,31.089,0,0,0-6.414-6.259,30.745,30.745,0,0,0-4.043-2.485,33.662,33.662,0,0,0-4.511-1.888,34.144,34.144,0,0,0-4.751-1.154,30.922,30.922,0,0,0-4.731-.394,31.087,31.087,0,0,0-8.878,1.24,31.713,31.713,0,0,0-7.455,3.263,32.472,32.472,0,0,0-5.647,4.341,33.629,33.629,0,0,0-6.239,8.286c-1.172,2.184-1.693,3.481-1.876,3.418-.136-.042.079-1.443,1.021-3.82a29.278,29.278,0,0,1,5.87-9.088,31.744,31.744,0,0,1,13.674-8.537,30.555,30.555,0,0,1,4.6-1.081,30.978,30.978,0,0,1,4.925-.4,32.242,32.242,0,0,1,5.109.389,32.454,32.454,0,0,1,9.991,3.279,32.3,32.3,0,0,1,4.345,2.716,32.242,32.242,0,0,1,6.8,6.835,31.734,31.734,0,0,1,5.959,14.98,29.351,29.351,0,0,1-.654,10.8C466.96,336.12,466.3,337.376,466.168,337.331Z" transform="translate(-405.93 -294.646)" fill="#e0e0e0"/>
            </g>
          </g>
        </g>
      </g>
      <g id="Grupo_62588" data-name="Grupo 62588" transform="translate(23.489 20.326)">
        <g id="Grupo_62587" data-name="Grupo 62587">
          <g id="Grupo_62586" data-name="Grupo 62586">
            <g id="Grupo_62585" data-name="Grupo 62585">
              <path id="Trazado_132426" data-name="Trazado 132426" d="M431.565,345.07l-1.809,5.213-4.654-1.616,1.76-5.073c-4.51-1.879-8.432-4.856-10.3-7.746l4.529-4.791a19.924,19.924,0,0,0,7.884,6.439l2.7-7.774c-4.731-3.048-9.9-6.774-7.594-13.431,1.713-4.935,6.766-7.926,14.412-6.211l1.793-5.167,4.655,1.615-1.761,5.075a22.274,22.274,0,0,1,8.463,6.117l-4.314,4.919a20.19,20.19,0,0,0-6.282-4.894L438.3,325.66c4.746,3,9.827,6.7,7.549,13.259C444.172,343.76,439.179,346.721,431.565,345.07Zm2.487-22.191,2.292-6.609c-2.659-.3-4.106.714-4.639,2.249C431.14,320.147,432.229,321.519,434.052,322.879Zm4.113,14c.565-1.631-.478-2.982-2.237-4.377l-2.229,6.424C436.2,339.221,437.647,338.367,438.164,336.877Z" transform="translate(-416.565 -304.912)" fill="#e0e0e0"/>
            </g>
          </g>
        </g>
      </g>
    </g>
    <g id="Grupo_70302" data-name="Grupo 70302" transform="translate(1229.521 2805.442) rotate(2)">
      <g id="Grupo_62584-2" data-name="Grupo 62584">
        <g id="Grupo_62578-2" data-name="Grupo 62578">
          <g id="Grupo_62577-2" data-name="Grupo 62577">
            <path id="Trazado_132423-2" data-name="Trazado 132423" d="M455.115,327.911A30.562,30.562,0,1,1,436.8,288.816,30.529,30.529,0,0,1,455.115,327.911Z" transform="translate(-395.827 -286.967)" fill="#f5f5f5"/>
          </g>
        </g>
        <g id="Grupo_62580-2" data-name="Grupo 62580" transform="translate(7.272 7.259)">
          <g id="Grupo_62579-2" data-name="Grupo 62579">
            <path id="Trazado_132424-2" data-name="Trazado 132424" d="M449.741,326.887a23.29,23.29,0,1,1-13.954-29.793A23.264,23.264,0,0,1,449.741,326.887Z" transform="translate(-404.561 -295.684)" fill="#ebebeb"/>
          </g>
        </g>
        <g id="Grupo_62583-2" data-name="Grupo 62583" transform="translate(8.412 6.394)">
          <g id="Grupo_62582-2" data-name="Grupo 62582">
            <g id="Grupo_62581-2" data-name="Grupo 62581">
              <path id="Trazado_132425-2" data-name="Trazado 132425" d="M450.214,326.025a13.834,13.834,0,0,1,.378-2.844,24.728,24.728,0,0,0-.087-7.626,23.852,23.852,0,0,0-1.453-5.031,23.3,23.3,0,0,0-3-5.179,22.858,22.858,0,0,0-4.715-4.6,22.6,22.6,0,0,0-2.973-1.827,24.752,24.752,0,0,0-3.316-1.388,25.1,25.1,0,0,0-3.493-.848,22.734,22.734,0,0,0-3.478-.29,22.855,22.855,0,0,0-6.526.912,23.314,23.314,0,0,0-5.481,2.4,23.872,23.872,0,0,0-4.152,3.192,24.722,24.722,0,0,0-4.586,6.092,13.686,13.686,0,0,1-1.379,2.513,6.825,6.825,0,0,1,.75-2.809,21.524,21.524,0,0,1,4.316-6.681,23.336,23.336,0,0,1,10.053-6.276,22.465,22.465,0,0,1,3.384-.794,22.774,22.774,0,0,1,3.62-.292,23.7,23.7,0,0,1,3.756.286,23.859,23.859,0,0,1,7.345,2.41,23.751,23.751,0,0,1,3.194,2,23.7,23.7,0,0,1,5,5.025,23.329,23.329,0,0,1,4.381,11.013,21.577,21.577,0,0,1-.48,7.94A6.834,6.834,0,0,1,450.214,326.025Z" transform="translate(-405.93 -294.646)" fill="#e0e0e0"/>
            </g>
          </g>
        </g>
      </g>
      <g id="Grupo_62588-2" data-name="Grupo 62588" transform="translate(17.268 14.942)">
        <g id="Grupo_62587-2" data-name="Grupo 62587">
          <g id="Grupo_62586-2" data-name="Grupo 62586">
            <g id="Grupo_62585-2" data-name="Grupo 62585">
              <path id="Trazado_132426-2" data-name="Trazado 132426" d="M427.592,334.434l-1.33,3.833-3.421-1.188,1.294-3.729a17.166,17.166,0,0,1-7.57-5.695l3.33-3.522a14.647,14.647,0,0,0,5.8,4.734l1.983-5.715c-3.478-2.241-7.282-4.98-5.583-9.874,1.259-3.628,4.974-5.827,10.595-4.566l1.318-3.8,3.422,1.187-1.295,3.731a16.375,16.375,0,0,1,6.222,4.5l-3.172,3.616a14.842,14.842,0,0,0-4.618-3.6l-2.018,5.819c3.489,2.207,7.224,4.924,5.55,9.747C436.86,333.471,433.19,335.648,427.592,334.434Zm1.829-16.313,1.685-4.859c-1.955-.219-3.018.525-3.411,1.654C427.28,316.112,428.081,317.12,429.42,318.12Zm3.023,10.291c.415-1.2-.351-2.192-1.644-3.217l-1.639,4.723C431,330.134,432.063,329.506,432.444,328.411Z" transform="translate(-416.565 -304.912)" fill="#e0e0e0"/>
            </g>
          </g>
        </g>
      </g>
    </g>
    <g id="Grupo_70303" data-name="Grupo 70303" transform="matrix(0.839, -0.545, 0.545, 0.839, 1156.752, 2796.502)">
      <g id="Grupo_62584-3" data-name="Grupo 62584">
        <g id="Grupo_62578-3" data-name="Grupo 62578">
          <g id="Grupo_62577-3" data-name="Grupo 62577">
            <path id="Trazado_132423-3" data-name="Trazado 132423" d="M455.115,327.911A30.562,30.562,0,1,1,436.8,288.816,30.529,30.529,0,0,1,455.115,327.911Z" transform="translate(-395.827 -286.967)" fill="#f5f5f5"/>
          </g>
        </g>
        <g id="Grupo_62580-3" data-name="Grupo 62580" transform="translate(7.272 7.259)">
          <g id="Grupo_62579-3" data-name="Grupo 62579">
            <path id="Trazado_132424-3" data-name="Trazado 132424" d="M449.741,326.887a23.29,23.29,0,1,1-13.954-29.793A23.264,23.264,0,0,1,449.741,326.887Z" transform="translate(-404.561 -295.684)" fill="#ebebeb"/>
          </g>
        </g>
        <g id="Grupo_62583-3" data-name="Grupo 62583" transform="translate(8.412 6.394)">
          <g id="Grupo_62582-3" data-name="Grupo 62582">
            <g id="Grupo_62581-3" data-name="Grupo 62581">
              <path id="Trazado_132425-3" data-name="Trazado 132425" d="M450.214,326.025a13.834,13.834,0,0,1,.378-2.844,24.728,24.728,0,0,0-.087-7.626,23.852,23.852,0,0,0-1.453-5.031,23.3,23.3,0,0,0-3-5.179,22.858,22.858,0,0,0-4.715-4.6,22.6,22.6,0,0,0-2.973-1.827,24.752,24.752,0,0,0-3.316-1.388,25.1,25.1,0,0,0-3.493-.848,22.734,22.734,0,0,0-3.478-.29,22.855,22.855,0,0,0-6.526.912,23.314,23.314,0,0,0-5.481,2.4,23.872,23.872,0,0,0-4.152,3.192,24.722,24.722,0,0,0-4.586,6.092,13.686,13.686,0,0,1-1.379,2.513,6.825,6.825,0,0,1,.75-2.809,21.524,21.524,0,0,1,4.316-6.681,23.336,23.336,0,0,1,10.053-6.276,22.465,22.465,0,0,1,3.384-.794,22.774,22.774,0,0,1,3.62-.292,23.7,23.7,0,0,1,3.756.286,23.859,23.859,0,0,1,7.345,2.41,23.751,23.751,0,0,1,3.194,2,23.7,23.7,0,0,1,5,5.025,23.329,23.329,0,0,1,4.381,11.013,21.577,21.577,0,0,1-.48,7.94A6.834,6.834,0,0,1,450.214,326.025Z" transform="translate(-405.93 -294.646)" fill="#e0e0e0"/>
            </g>
          </g>
        </g>
      </g>
      <g id="Grupo_62588-3" data-name="Grupo 62588" transform="translate(17.268 14.942)">
        <g id="Grupo_62587-3" data-name="Grupo 62587">
          <g id="Grupo_62586-3" data-name="Grupo 62586">
            <g id="Grupo_62585-3" data-name="Grupo 62585">
              <path id="Trazado_132426-3" data-name="Trazado 132426" d="M427.592,334.434l-1.33,3.833-3.421-1.188,1.294-3.729a17.166,17.166,0,0,1-7.57-5.695l3.33-3.522a14.647,14.647,0,0,0,5.8,4.734l1.983-5.715c-3.478-2.241-7.282-4.98-5.583-9.874,1.259-3.628,4.974-5.827,10.595-4.566l1.318-3.8,3.422,1.187-1.295,3.731a16.375,16.375,0,0,1,6.222,4.5l-3.172,3.616a14.842,14.842,0,0,0-4.618-3.6l-2.018,5.819c3.489,2.207,7.224,4.924,5.55,9.747C436.86,333.471,433.19,335.648,427.592,334.434Zm1.829-16.313,1.685-4.859c-1.955-.219-3.018.525-3.411,1.654C427.28,316.112,428.081,317.12,429.42,318.12Zm3.023,10.291c.415-1.2-.351-2.192-1.644-3.217l-1.639,4.723C431,330.134,432.063,329.506,432.444,328.411Z" transform="translate(-416.565 -304.912)" fill="#e0e0e0"/>
            </g>
          </g>
        </g>
      </g>
    </g>
    <g id="Grupo_70304" data-name="Grupo 70304" transform="translate(993.235 3089.204) rotate(-18)">
      <g id="Grupo_67664" data-name="Grupo 67664" transform="translate(38.162 42.681)">
        <rect id="Rectángulo_31688" data-name="Rectángulo 31688" width="142.249" height="94.86" fill="#fafafa"/>
      </g>
      <g id="Grupo_67665" data-name="Grupo 67665" transform="translate(64.561 76.621)">
        <rect id="Rectángulo_31689" data-name="Rectángulo 31689" width="23.403" height="9.388" transform="translate(0 0)" fill="#d9a171"/>
      </g>
      <g id="Grupo_67666" data-name="Grupo 67666" transform="translate(134.769 76.621)">
        <rect id="Rectángulo_31690" data-name="Rectángulo 31690" width="23.403" height="9.388" transform="translate(0 0)" fill="#d9a171"/>
      </g>
      <g id="Grupo_67667" data-name="Grupo 67667" transform="translate(134.769 95.267)">
        <rect id="Rectángulo_31691" data-name="Rectángulo 31691" width="23.403" height="9.388" transform="translate(0 0)" fill="#d9a171"/>
      </g>
      <g id="Grupo_67668" data-name="Grupo 67668" transform="translate(134.769 104.59)">
        <rect id="Rectángulo_31692" data-name="Rectángulo 31692" width="23.403" height="9.388" fill="#d9a171"/>
      </g>
      <g id="Grupo_67669" data-name="Grupo 67669" transform="translate(87.964 95.435)">
        <rect id="Rectángulo_31693" data-name="Rectángulo 31693" width="23.403" height="9.388" transform="translate(0 0)" fill="#455a64"/>
      </g>
      <g id="Grupo_67670" data-name="Grupo 67670" transform="translate(111.328 104.937)">
        <rect id="Rectángulo_31694" data-name="Rectángulo 31694" width="23.403" height="9.388" transform="translate(0 0)" fill="#455a64"/>
      </g>
      <g id="Grupo_67671" data-name="Grupo 67671" transform="translate(87.964 123.56)">
        <rect id="Rectángulo_31695" data-name="Rectángulo 31695" width="23.403" height="9.768" transform="translate(0)" fill="#ebebeb"/>
      </g>
      <g id="Grupo_67672" data-name="Grupo 67672" transform="translate(134.769 123.691)">
        <rect id="Rectángulo_31696" data-name="Rectángulo 31696" width="23.403" height="9.388" fill="#d9a171"/>
      </g>
      <g id="Grupo_67673" data-name="Grupo 67673" transform="translate(49.732 67.446)">
        <rect id="Rectángulo_31697" data-name="Rectángulo 31697" width="126.358" height="9.175" transform="translate(0 0)" fill="#e0e0e0"/>
      </g>
      <g id="Grupo_67674" data-name="Grupo 67674" transform="translate(42.088 67.127)">
        <path id="Trazado_133953" data-name="Trazado 133953" d="M67.2,147.813H44.411V81.1H67.2Zm-22.153-.638H66.564V81.733H45.049Z" transform="translate(-44.411 -81.095)" fill="#e0e0e0"/>
        <rect id="Rectángulo_31698" data-name="Rectángulo 31698" width="22.153" height="66.079" transform="translate(0.319 0.319)" fill="#e0e0e0"/>
      </g>
      <g id="Grupo_67675" data-name="Grupo 67675" transform="translate(38.162 42.681)">
        <rect id="Rectángulo_31699" data-name="Rectángulo 31699" width="142.249" height="10.762" fill="#d9a171"/>
      </g>
      <g id="Grupo_67676" data-name="Grupo 67676" transform="translate(42.659 57.365)">
        <rect id="Rectángulo_31700" data-name="Rectángulo 31700" width="21.902" height="6.159" fill="#ebebeb"/>
      </g>
      <g id="Grupo_67677" data-name="Grupo 67677" transform="translate(67.125 57.365)">
        <rect id="Rectángulo_31701" data-name="Rectángulo 31701" width="21.121" height="6.159" fill="#ebebeb"/>
      </g>
      <g id="Grupo_67678" data-name="Grupo 67678" transform="translate(90.29 57.365)">
        <rect id="Rectángulo_31702" data-name="Rectángulo 31702" width="21.121" height="6.159" transform="translate(0)" fill="#ebebeb"/>
      </g>
      <g id="Grupo_67679" data-name="Grupo 67679" transform="translate(113.454 57.365)">
        <rect id="Rectángulo_31703" data-name="Rectángulo 31703" width="21.121" height="6.159" fill="#ebebeb"/>
      </g>
      <g id="Grupo_67680" data-name="Grupo 67680" transform="translate(136.619 57.365)">
        <rect id="Rectángulo_31704" data-name="Rectángulo 31704" width="21.121" height="6.159" fill="#ebebeb"/>
      </g>
      <g id="Grupo_67681" data-name="Grupo 67681" transform="translate(159.783 57.365)">
        <rect id="Rectángulo_31705" data-name="Rectángulo 31705" width="17.361" height="6.159" fill="#ebebeb"/>
      </g>
      <g id="Grupo_67683" data-name="Grupo 67683" transform="translate(42.284 67.28)">
        <g id="Grupo_67682" data-name="Grupo 67682" transform="translate(0 0)">
          <path id="Trazado_133954" data-name="Trazado 133954" d="M44.841,147.383s.224-.006.654-.01l1.909-.01,7.39-.019,27.689-.043,96.04-.075-.157.157c0-20.375-.006-42.662-.009-65.873V81.5l.166.167L44.841,81.624l.123-.123c-.028,20.306-.05,36.762-.066,48.147-.013,5.7-.024,10.125-.031,13.134-.006,1.5-.011,2.648-.014,3.425s-.013,1.176-.013,1.176-.008-.386-.013-1.151-.008-1.911-.013-3.4c-.007-3-.017-7.421-.031-13.106-.016-11.4-.038-27.885-.066-48.222v-.122h.123l133.683-.043h.166v.175c0,23.211-.006,45.5-.009,65.873v.157h-.157l-96.145-.075-27.653-.043-7.358-.02-1.892-.01C45.052,147.39,44.841,147.383,44.841,147.383Z" transform="translate(-44.718 -81.335)" fill="#263238"/>
        </g>
      </g>
      <g id="Grupo_67685" data-name="Grupo 67685" transform="translate(42.659 76.454)">
        <g id="Grupo_67684" data-name="Grupo 67684">
          <path id="Trazado_133955" data-name="Trazado 133955" d="M178.988,95.883c0,.092-29.928.166-66.838.166s-66.845-.074-66.845-.166,29.922-.166,66.845-.166S178.988,95.791,178.988,95.883Z" transform="translate(-45.306 -95.716)" fill="#263238"/>
        </g>
      </g>
      <g id="Grupo_67687" data-name="Grupo 67687" transform="translate(42.659 85.842)">
        <g id="Grupo_67686" data-name="Grupo 67686" transform="translate(0 0)">
          <path id="Trazado_133956" data-name="Trazado 133956" d="M178.988,110.6c0,.092-29.928.166-66.838.166s-66.845-.074-66.845-.166,29.922-.167,66.845-.167S178.988,110.507,178.988,110.6Z" transform="translate(-45.306 -110.432)" fill="#263238"/>
        </g>
      </g>
      <g id="Grupo_67689" data-name="Grupo 67689" transform="translate(42.659 95.23)">
        <g id="Grupo_67688" data-name="Grupo 67688" transform="translate(0 0)">
          <path id="Trazado_133957" data-name="Trazado 133957" d="M178.988,125.314c0,.091-29.928.166-66.838.166s-66.845-.075-66.845-.166,29.922-.166,66.845-.166S178.988,125.223,178.988,125.314Z" transform="translate(-45.306 -125.148)" fill="#263238"/>
        </g>
      </g>
      <g id="Grupo_67691" data-name="Grupo 67691" transform="translate(42.659 104.618)">
        <g id="Grupo_67690" data-name="Grupo 67690" transform="translate(0 0)">
          <path id="Trazado_133958" data-name="Trazado 133958" d="M178.988,140.03c0,.092-29.928.167-66.838.167s-66.845-.075-66.845-.167,29.922-.166,66.845-.166S178.988,139.939,178.988,140.03Z" transform="translate(-45.306 -139.864)" fill="#263238"/>
        </g>
      </g>
      <g id="Grupo_67693" data-name="Grupo 67693" transform="translate(42.659 114.006)">
        <g id="Grupo_67692" data-name="Grupo 67692" transform="translate(0 0)">
          <path id="Trazado_133959" data-name="Trazado 133959" d="M178.988,154.746c0,.092-29.928.167-66.838.167s-66.845-.075-66.845-.167,29.922-.166,66.845-.166S178.988,154.655,178.988,154.746Z" transform="translate(-45.306 -154.58)" fill="#263238"/>
        </g>
      </g>
      <g id="Grupo_67695" data-name="Grupo 67695" transform="translate(42.659 123.394)">
        <g id="Grupo_67694" data-name="Grupo 67694">
          <path id="Trazado_133960" data-name="Trazado 133960" d="M178.988,169.462c0,.092-29.928.167-66.838.167s-66.845-.075-66.845-.167,29.922-.166,66.845-.166S178.988,169.37,178.988,169.462Z" transform="translate(-45.306 -169.296)" fill="#263238"/>
        </g>
      </g>
      <g id="Grupo_67697" data-name="Grupo 67697" transform="translate(61.792 67.665)">
        <g id="Grupo_67696" data-name="Grupo 67696">
          <path id="Trazado_133961" data-name="Trazado 133961" d="M75.3,81.939" transform="translate(-75.297 -81.939)" fill="none" stroke="#fff" stroke-miterlimit="10" stroke-width="1"/>
        </g>
      </g>
      <g id="Grupo_67699" data-name="Grupo 67699" transform="translate(64.395 67.815)">
        <g id="Grupo_67698" data-name="Grupo 67698" transform="translate(0)">
          <path id="Trazado_133962" data-name="Trazado 133962" d="M79.543,147.884c-.092,0-.166-14.711-.166-32.854s.074-32.857.166-32.857.167,14.708.167,32.857S79.635,147.884,79.543,147.884Z" transform="translate(-79.377 -82.174)" fill="#263238"/>
        </g>
      </g>
      <g id="Grupo_67701" data-name="Grupo 67701" transform="translate(87.798 67.815)">
        <g id="Grupo_67700" data-name="Grupo 67700" transform="translate(0)">
          <path id="Trazado_133963" data-name="Trazado 133963" d="M116.228,147.687c-.092,0-.166-14.667-.166-32.755s.074-32.758.166-32.758.166,14.664.166,32.758S116.32,147.687,116.228,147.687Z" transform="translate(-116.062 -82.174)" fill="#263238"/>
        </g>
      </g>
      <g id="Grupo_67703" data-name="Grupo 67703" transform="translate(111.2 67.815)">
        <g id="Grupo_67702" data-name="Grupo 67702">
          <path id="Trazado_133964" data-name="Trazado 133964" d="M152.913,147.884c-.092,0-.167-14.711-.167-32.854s.075-32.857.167-32.857.166,14.708.166,32.857S153,147.884,152.913,147.884Z" transform="translate(-152.746 -82.174)" fill="#263238"/>
        </g>
      </g>
      <g id="Grupo_67705" data-name="Grupo 67705" transform="translate(134.603 67.815)">
        <g id="Grupo_67704" data-name="Grupo 67704">
          <path id="Trazado_133965" data-name="Trazado 133965" d="M189.6,147.884c-.092,0-.166-14.711-.166-32.854s.074-32.857.166-32.857.166,14.708.166,32.857S189.689,147.884,189.6,147.884Z" transform="translate(-189.431 -82.174)" fill="#263238"/>
        </g>
      </g>
      <g id="Grupo_67707" data-name="Grupo 67707" transform="translate(158.006 67.815)">
        <g id="Grupo_67706" data-name="Grupo 67706">
          <path id="Trazado_133966" data-name="Trazado 133966" d="M226.282,147.884c-.092,0-.166-14.711-.166-32.854s.075-32.857.166-32.857.166,14.708.166,32.857S226.373,147.884,226.282,147.884Z" transform="translate(-226.115 -82.174)" fill="#263238"/>
        </g>
      </g>
      <g id="Grupo_67708" data-name="Grupo 67708" transform="translate(43.764 46.665)">
        <path id="Trazado_133967" data-name="Trazado 133967" d="M49.752,50.417a1.357,1.357,0,1,1-1.357-1.4A1.378,1.378,0,0,1,49.752,50.417Z" transform="translate(-47.038 -49.021)" fill="#fff"/>
      </g>
      <g id="Grupo_67709" data-name="Grupo 67709" transform="translate(48.375 46.665)">
        <path id="Trazado_133968" data-name="Trazado 133968" d="M56.979,50.417a1.357,1.357,0,1,1-1.357-1.4A1.378,1.378,0,0,1,56.979,50.417Z" transform="translate(-54.265 -49.021)" fill="#fff"/>
      </g>
      <g id="Grupo_67710" data-name="Grupo 67710" transform="translate(52.985 46.665)">
        <path id="Trazado_133969" data-name="Trazado 133969" d="M64.206,50.417a1.357,1.357,0,1,1-1.357-1.4A1.378,1.378,0,0,1,64.206,50.417Z" transform="translate(-61.492 -49.021)" fill="#fff"/>
      </g>
      <g id="Grupo_67712" data-name="Grupo 67712" transform="translate(37.996 42.515)">
        <g id="Grupo_67711" data-name="Grupo 67711">
          <path id="Trazado_133970" data-name="Trazado 133970" d="M180.411,137.541c0-1.083-.052-37.07-.133-94.86l.133.132-142.238.034h-.011l.166-.166c-.005,33.782-.01,65.913-.014,94.86l-.152-.152,102.5.075,29.274.041,7.782.019,2.006.009c.452,0,.686.009.686.009s-.222.006-.668.009l-1.989.009-7.752.019-29.239.041-102.6.075H38.01v-.152c0-28.947-.009-61.078-.014-94.86v-.167h.177l142.238.034h.133v.133C180.463,100.471,180.413,136.459,180.411,137.541Z" transform="translate(-37.996 -42.515)" fill="#263238"/>
        </g>
      </g>
    </g>
    <g id="Grupo_70309" data-name="Grupo 70309" transform="translate(-446.472 395.319) rotate(-13)">
      <path id="Trazado_141404" data-name="Trazado 141404" d="M5457.09,2931.209l46.346,2.861a6.238,6.238,0,0,1,5.857,6.6v.012l-5.287,85.657a6.238,6.238,0,0,1-6.6,5.852h-.018l-59.318-3.662a6.227,6.227,0,0,1-5.84-6.591v-.019l4.463-72.691Z" transform="translate(-4353.909 103.842)" fill="#fff" stroke="#5e6178" stroke-miterlimit="10" stroke-width="0" opacity="0.8" style="isolation: isolate"/>
      <g id="Grupo_70305" data-name="Grupo 70305" transform="translate(1120.648 3044.897)" opacity="0.22">
        <path id="Trazado_106095" data-name="Trazado 106095" d="M5451.325,2954.972l20.4,1.248a2.737,2.737,0,0,0,2.888-2.549h0a2.738,2.738,0,0,0-2.555-2.888l-20.4-1.258a2.727,2.727,0,0,0-2.882,2.549h0A2.732,2.732,0,0,0,5451.325,2954.972Z" transform="translate(-5448.771 -2949.519)" fill="#d9a171"/>
      </g>
      <g id="Grupo_70306" data-name="Grupo 70306" transform="translate(1106.677 3054.878)" opacity="0.22">
        <path id="Trazado_106096" data-name="Trazado 106096" d="M5452.565,2973.521l33.7,2.076a2.728,2.728,0,0,0,2.888-2.549h0a2.733,2.733,0,0,0-2.555-2.888l-33.7-2.076a2.727,2.727,0,0,0-2.889,2.549h0A2.732,2.732,0,0,0,5452.565,2973.521Z" transform="translate(-5450.01 -2968.078)" fill="#d9a171"/>
      </g>
      <g id="Grupo_70307" data-name="Grupo 70307" transform="translate(1090.539 3064.709)" opacity="0.22">
        <path id="Trazado_106097" data-name="Trazado 106097" d="M5453.774,2991.807l49.185,3.033a2.738,2.738,0,0,0,2.9-2.555h0a2.727,2.727,0,0,0-2.549-2.882l-49.191-3.039a2.732,2.732,0,0,0-2.883,2.554h0A2.732,2.732,0,0,0,5453.774,2991.807Z" transform="translate(-5451.23 -2986.36)" fill="#d9a171"/>
      </g>
      <g id="Grupo_70308" data-name="Grupo 70308" transform="translate(1089.861 3075.502)" opacity="0.22">
        <path id="Trazado_106098" data-name="Trazado 106098" d="M5493.334,3011.871l28.593,1.764a2.734,2.734,0,0,0,2.889-2.549h0a2.727,2.727,0,0,0-2.55-2.888l-28.593-1.764a2.726,2.726,0,0,0-2.888,2.549h0A2.731,2.731,0,0,0,5493.334,3011.871Z" transform="translate(-5490.78 -3006.428)" fill="#d9a171"/>
      </g>
      <path id="Trazado_141405" data-name="Trazado 141405" d="M5549.707,2931.209l-.8,12.971a6.239,6.239,0,0,1-6.608,5.846h0l-12.987-.8Z" transform="translate(-4446.525 103.842)" fill="#d9a171" opacity="0.22" style="isolation: isolate"/>
    </g>
  </g>
</svg>
