<svg xmlns="http://www.w3.org/2000/svg" width="505" height="347" viewBox="0 0 505 347">
  <g id="Grupo_70267" data-name="Grupo 70267" transform="translate(-915 -703)">
    <g id="Grupo_70098" data-name="Grupo 70098" transform="translate(0 305.917)">
      <rect id="Rectángulo_31121" data-name="Rectángulo 31121" width="505" height="347" transform="translate(915 397.083)" fill="none"/>
    </g>
    <g id="Grupo_70266" data-name="Grupo 70266" transform="translate(-4818 -6334.313)">
      <g id="freepik--background-complete--inject-101" transform="translate(5746.69 7097.412)">
        <path id="Trazado_128729" data-name="Trazado 128729" d="M3890.28,16065.7v18.47h56.654v-18.47Z" transform="translate(-3468.057 -15841.713)" fill="#aed3f2"/>
        <path id="Trazado_128730" data-name="Trazado 128730" d="M3887.6,16059.9v5.15h61.014v-5.15H3887.6Z" transform="translate(-3467.756 -15841.063)" fill="#f2e9e4"/>
        <path id="Trazado_128731" data-name="Trazado 128731" d="M3921.8,16083.521h28.531v-18.47h1.98v-5.15h-31.7v4.706Z" transform="translate(-3471.454 -15841.063)" fill="#aed3f2"/>
        <rect id="Rectángulo_12949" data-name="Rectángulo 12949" width="11.491" height="2.771" transform="translate(430.144 227.006)" fill="#aed3f2"/>
        <rect id="Rectángulo_12950" data-name="Rectángulo 12950" width="14.75" height="5.852" transform="translate(428.661 233.222)" fill="#aed3f2"/>
        <path id="Trazado_128732" data-name="Trazado 128732" d="M3584.174,15887.533l-1.35-286.732h-5.55v56.476h-14.341l-.267-56.467h-5.55v56.467H3507.78l-.266-56.467h-5.55v56.467h-14.3l-.267-56.467h-5.55v286.723h6.9l-.177-38.477h13.391v38.477h6.909l-.187-38.45h48.431v38.45h6.9l-.177-38.477h13.435v38.477Zm-89.27-76.474-4.964-21.259h10.185Zm7.06-19.953v50.207l-6.012-25.752Zm0-72.975-6.012-25.752,6.012-24.446Zm-1.074,4.608h-12.432l6.358-25.867Zm-5.985-34.862-5.683-24.384h11.668Zm-1.1,4.493-5.87,23.825-.231-49.933Zm-5.505,99.614,5.505,23.567-5.328,21.507Zm6.553,28.07,5.328,22.732h-10.913Zm-6.367-36.515-.045-.2h-.177l-.258-54.372h13.959v54.532Zm19.634-54.531h49v54.531h-48.76Zm61.653-32.137,6.038,25.866h-12.432Zm-6.571,17.946-.222-47.063,5.763,24.605Zm14.075,4.972-6.4-27.412,6.4-26.036Zm0,2.859v.089h-.391Zm0,69.946v47.144l-5.648-24.181Zm-6.7,18.462-4.964-21.259h10.23Zm-.755-123.182-5.683-24.385h11.7Zm7.45,41.132v54.531h-13.115v-.2l-.586.134-.258-54.469Zm-7.8,86.543-5.692,23.088-.222-48.483Zm1.048,4.5,5.328,22.732h-10.913Zm-13.409-156.562v59.211H3508.09l-.275-59.211Zm-47.605,179.285h-.888l-.249-52.986h48.706v52.986Z" transform="translate(-3092.864 -15600.801)" fill="#f2e9e4"/>
        <path id="Trazado_128733" data-name="Trazado 128733" d="M3884.03,15950.282v-6.481h45.7l.142,6.481Z" transform="translate(-3467.356 -15828.061)" fill="#aed3f2"/>
        <path id="Trazado_128734" data-name="Trazado 128734" d="M3559,15732.4s-40.537.3-43.165.888c-.568.134-1.137,2.664,0,2.851s43.165.567,43.165.567Z" transform="translate(-3096.598 -15615.541)" fill="#6595bf" stroke="#5e6178" stroke-miterlimit="10" stroke-width="0"/>
        <path id="Trazado_128735" data-name="Trazado 128735" d="M3890.01,15942.693v-6.393h36.2l.115,6.393Z" transform="translate(-3468.027 -15827.22)" fill="#f2e9e4"/>
        <path id="Trazado_128736" data-name="Trazado 128736" d="M3555.423,15724.8s-32.11.293-34.188.889c-.453.133-.888,2.619,0,2.85s34.188.568,34.188.568Z" transform="translate(-3097.218 -15614.689)" fill="#6595bf" stroke="#5e6178" stroke-miterlimit="10" stroke-width="0"/>
        <path id="Trazado_128737" data-name="Trazado 128737" d="M3889.83,15935.494v-6.394h36.2l.115,6.394Z" transform="translate(-3468.006 -15826.414)" fill="#aed3f2"/>
        <path id="Trazado_128738" data-name="Trazado 128738" d="M3555.243,15717.6s-32.11.293-34.188.888c-.453.134-.888,2.664,0,2.851s34.188.568,34.188.568Z" transform="translate(-3097.198 -15613.883)" fill="#6595bf" stroke="#5e6178" stroke-miterlimit="10" stroke-width="0"/>
        <rect id="Rectángulo_12951" data-name="Rectángulo 12951" width="9.173" height="42.739" transform="translate(455.079 13.622)" fill="#aed3f2"/>
        <path id="Trazado_128739" data-name="Trazado 128739" d="M3563.252,15652.477a1.776,1.776,0,1,1-1.776-1.776A1.831,1.831,0,0,1,3563.252,15652.477Z" transform="translate(-3101.584 -15606.39)" fill="#6595bf" stroke="#5e6178" stroke-miterlimit="10" stroke-width="0"/>
        <rect id="Rectángulo_12952" data-name="Rectángulo 12952" width="2.806" height="17.467" transform="translate(458.365 24.988)" fill="#6595bf" stroke="#5e6178" stroke-miterlimit="10" stroke-width="0"/>
        <rect id="Rectángulo_12953" data-name="Rectángulo 12953" width="9.173" height="42.739" transform="translate(445.764 13.622)" fill="#f2e9e4"/>
        <circle id="Elipse_4547" data-name="Elipse 4547" cx="1.82" cy="1.82" r="1.82" transform="translate(448.712 44.302)" fill="#6595bf" stroke="#5e6178" stroke-miterlimit="10" stroke-width="0"/>
        <rect id="Rectángulo_12954" data-name="Rectángulo 12954" width="2.806" height="17.467" transform="translate(449.05 24.988)" fill="#6595bf" stroke="#5e6178" stroke-miterlimit="10" stroke-width="0"/>
        <rect id="Rectángulo_12955" data-name="Rectángulo 12955" width="9.173" height="42.739" transform="translate(436.893 13.622)" fill="#aed3f2"/>
        <path id="Trazado_128740" data-name="Trazado 128740" d="M3542.772,15652.477a1.776,1.776,0,1,1-1.776-1.776,1.831,1.831,0,0,1,1.776,1.776Z" transform="translate(-3099.29 -15606.39)" fill="#6595bf" stroke="#5e6178" stroke-miterlimit="10" stroke-width="0"/>
        <rect id="Rectángulo_12956" data-name="Rectángulo 12956" width="2.806" height="17.467" transform="translate(440.179 24.988)" fill="#6595bf" stroke="#5e6178" stroke-miterlimit="10" stroke-width="0"/>
        <rect id="Rectángulo_12957" data-name="Rectángulo 12957" width="9.173" height="42.739" transform="translate(455.079 140.16)" fill="#aed3f2"/>
        <path id="Trazado_128741" data-name="Trazado 128741" d="M3563.252,15794.975a1.775,1.775,0,1,1,0-.045Z" transform="translate(-3101.584 -15622.349)" fill="#6595bf" stroke="#5e6178" stroke-miterlimit="10" stroke-width="0"/>
        <rect id="Rectángulo_12958" data-name="Rectángulo 12958" width="2.806" height="17.467" transform="translate(458.365 151.438)" fill="#6595bf" stroke="#5e6178" stroke-miterlimit="10" stroke-width="0"/>
        <rect id="Rectángulo_12959" data-name="Rectángulo 12959" width="9.173" height="42.739" transform="translate(445.764 140.16)" fill="#f2e9e4"/>
        <path id="Trazado_128742" data-name="Trazado 128742" d="M3552.762,15794.975a1.775,1.775,0,1,1,0-.045Z" transform="translate(-3100.409 -15622.349)" fill="#6595bf" stroke="#5e6178" stroke-miterlimit="10" stroke-width="0"/>
        <rect id="Rectángulo_12960" data-name="Rectángulo 12960" width="2.806" height="17.467" transform="translate(449.05 151.438)" fill="#6595bf" stroke="#5e6178" stroke-miterlimit="10" stroke-width="0"/>
        <rect id="Rectángulo_12961" data-name="Rectángulo 12961" width="9.173" height="42.739" transform="translate(436.893 140.16)" fill="#aed3f2"/>
        <path id="Trazado_128743" data-name="Trazado 128743" d="M3542.772,15794.977a1.776,1.776,0,1,1-1.776-1.775A1.776,1.776,0,0,1,3542.772,15794.977Z" transform="translate(-3099.29 -15622.352)" fill="#6595bf" stroke="#5e6178" stroke-miterlimit="10" stroke-width="0"/>
        <rect id="Rectángulo_12962" data-name="Rectángulo 12962" width="2.806" height="17.467" transform="translate(440.179 151.438)" fill="#6595bf" stroke="#5e6178" stroke-miterlimit="10" stroke-width="0"/>
        <path id="Trazado_128744" data-name="Trazado 128744" d="M3893.515,15871.25l11.02-37.562-3.8-1.687-11.3,37.917Z" transform="translate(-3467.962 -15815.537)" fill="#aed3f2"/>
        <path id="Trazado_128745" data-name="Trazado 128745" d="M3595.981,15878.7H3551.99v57.364l43.991,1.065Z" transform="translate(-3531.762 -15820.768)" fill="#f2e9e4"/>
        <path id="Trazado_128746" data-name="Trazado 128746" d="M3593.416,15881H3554.93v51.947l38.486,1.332Z" transform="translate(-3532.091 -15821.026)" fill="#6595bf" stroke="#5e6178" stroke-miterlimit="10" stroke-width="0"/>
        <path id="Trazado_128747" data-name="Trazado 128747" d="M3587.459,15891.477l-25.539-.977v36.408h25.539Z" transform="translate(-3532.874 -15822.089)" fill="#f2e9e4"/>
        <path id="Trazado_128748" data-name="Trazado 128748" d="M3561.92,15926.908l25.539-18.736-25.539-17.672Z" transform="translate(-3532.874 -15822.089)" fill="#aed3f2"/>
        <path id="Trazado_128749" data-name="Trazado 128749" d="M3271.847,15911.375c-1.048-.889-3.392-3.738-1.581-7.042.657-1.217,2.069-1.775,3.339-2.354a13.293,13.293,0,0,0,3.668-1.892c1.989-1.678,2.539-4.483,3.863-6.73a8.471,8.471,0,0,1,7.335-4.378c3.419.16,6.278,2.939,7.575,6.118s1.341,6.7,1.359,10.123c0,1.892-.062,4.023-1.465,5.328s-3.223,1.19-4.973,1.137l-18.71-.567" transform="translate(-3142.92 -15633.078)" fill="#aed3f2"/>
        <path id="Trazado_128750" data-name="Trazado 128750" d="M3303.366,15864.2H3258.7l7.992,47.818a5.33,5.33,0,0,0,3.819,4.263h.15a3.506,3.506,0,0,0,.4.1,5.029,5.029,0,0,0,.888.106h20.157a5.623,5.623,0,0,0,1.093-.108,5.329,5.329,0,0,0,4.528-4.668l3.881-32.954.177-1.315h0l1.536-13.045Zm-8.436,30.5h-4.591l.462-13.88h5.328Zm1.634-13.88H3301l-1.634,13.88h-3.952Zm-13.107,29.3-.284-12.059h6.58l-.408,12.059Zm-7.1-12.059h6.42l.284,12.059h-5.763Zm.5,12.059h-5.39c-.506-3.259-1.172-7.485-1.891-12.059h6.34Zm-.755-15.389-1.083-13.879h7.362l.32,13.879Zm7.051,0-.329-13.879h7.583l-.462,13.879Zm-.4-17.209-.3-12.849h8.489l-.426,12.849Zm-.444,0h-7.557l-1-12.849H3282Zm-7.992,0h-7.992c-.275-1.776-.551-3.454-.79-4.964-.835-5.194-1.146-7.1-1.323-7.885h9.1Zm.258,3.33,1.083,13.879h-6.607c-.222-1.4-.444-2.833-.666-4.253-.524-3.277-1.039-6.554-1.527-9.626Zm-5.967,13.879h-4.307l-2.344-13.879h4.44c.648,4.253,1.4,9.03,2.167,13.844Zm.524,3.33,1.9,12.059h-4.147l-2.034-12.059Zm20.752,12.059.408-12.059h4.44l-1.039,12.059Zm1.092-32.6.426-12.849h6.216l-1.11,12.849Zm-27.235-12.885c.177.933.995,5.985,2.087,12.85h-4.485l-2.167-12.85Zm33.744,45.447h-3.454l1.057-12.059h3.844Zm3.836-32.6h-4.44l1.1-12.85h4.911Z" transform="translate(-3143.192 -15630.303)" fill="#f2e9e4"/>
        <path id="Trazado_128751" data-name="Trazado 128751" d="M3161.05,15835.424c.791.133,1.678.328,2.664.428s2.087.266,3.268.318,2.433.09,3.756.107a49.032,49.032,0,0,0,16.872-3.258c1.225-.508,2.4-.961,3.445-1.5s2.042-1.021,2.913-1.51,1.643-.977,2.318-1.395,1.252-.809,1.7-1.137l.888-.586h-40.6v7.92l.8.188C3159.594,15835.158,3160.269,15835.246,3161.05,15835.424Z" transform="translate(-3158.218 -15626.125)" fill="#aed3f2"/>
        <path id="Trazado_128752" data-name="Trazado 128752" d="M3186.989,15919.8a29.684,29.684,0,0,0-8.649,1.119,22.443,22.443,0,0,0-4.919,2.142l33.21,0c-2.824-.559-5.825-1.27-8.978-1.909a56.11,56.11,0,0,0-10.665-1.351Z" transform="translate(-3159.914 -15636.53)" fill="#aed3f2"/>
        <path id="Trazado_128753" data-name="Trazado 128753" d="M3226.134,15913.409c-3.774-.6-8.321-.143-13.32.319a58.854,58.854,0,0,1-7.992.223c-2.762-.116-5.6-.418-8.5-.773-5.8-.729-11.322-1.465-16.357-1.243a35.8,35.8,0,0,0-12.956,2.885,36.871,36.871,0,0,0-7.769,4.549l-1.021.8v1.927h13.071a20.412,20.412,0,0,1,5.239-2.485,29.232,29.232,0,0,1,8.755-1.29,54.827,54.827,0,0,1,10.763,1.28c3.756.764,7.3,1.652,10.549,2.272l1.092.187h26.436v-5.719A18.893,18.893,0,0,0,3226.134,15913.409Z" transform="translate(-3158.211 -15635.646)" fill="#aed3f2"/>
        <path id="Trazado_128754" data-name="Trazado 128754" d="M3166.916,15913.186a35.393,35.393,0,0,1,13.08-3.029c5.1-.248,10.656.48,16.437,1.2,2.9.355,5.728.666,8.463.781a56.423,56.423,0,0,0,7.992-.2c5.026-.437,9.635-.89,13.453-.2a18.658,18.658,0,0,1,7.859,3.038v-10.026a24.455,24.455,0,0,0-6.758-.952c-7.548-.247-17.573,3.863-29.241,3.554a70.161,70.161,0,0,1-16.153-1.963c-4.884-1.173-9.075-2.851-12.716-3.8a28.906,28.906,0,0,0-8.755-1.2,16.041,16.041,0,0,0-2.256.213v18.09c.267-.23.551-.479.888-.746a34.1,34.1,0,0,1,7.708-4.759Z" transform="translate(-3158.222 -15634.356)" fill="#aed3f2"/>
        <path id="Trazado_128755" data-name="Trazado 128755" d="M3161.174,15858.863a27.608,27.608,0,0,1,8.054,2.663,48.384,48.384,0,0,0,5.407,2.078,36.509,36.509,0,0,0,6.545,1.207,57.3,57.3,0,0,0,15.238-.939c5.328-.951,10.38-2.291,15.016-3.286a89.277,89.277,0,0,1,12.432-1.981,44.353,44.353,0,0,1,8.49.143c.719.08,1.314.179,1.776.267v-13.319l-.79-.64a50.412,50.412,0,0,0-5.221-3.774,18.04,18.04,0,0,0-8.88-2.956c-3.552-.116-7.379,1.278-11.091,3.1a89.538,89.538,0,0,0-10.194,5.763c-1.474,1-3.046,1.884-3.667,3.277a1.776,1.776,0,0,0,.266,1.954,4.825,4.825,0,0,0,1.678,1.146,17.137,17.137,0,0,0,6.163,1.653c1.51.105,2.362,0,2.362.062a2.333,2.333,0,0,1-.613.107,14.756,14.756,0,0,1-1.776,0,16.333,16.333,0,0,1-6.314-1.5,5.326,5.326,0,0,1-1.838-1.235,2.237,2.237,0,0,1-.364-2.406c.719-1.625,2.353-2.513,3.809-3.552a83.447,83.447,0,0,1,10.229-5.845c3.739-1.827,7.637-3.249,11.358-3.106a18.2,18.2,0,0,1,9.075,3.135,42.529,42.529,0,0,1,5.15,3.953l.648.576v-11.047a30.517,30.517,0,0,0-4.245-1.945,31.756,31.756,0,0,0-13.506-1.829,28.208,28.208,0,0,0-7.867,1.829,56.89,56.89,0,0,0-7.779,3.97,52.177,52.177,0,0,1-7.894,3.943,29.9,29.9,0,0,1-8.081,1.57c-5.248.311-9.937-.222-13.871-.284a41.464,41.464,0,0,0-9.261.631c-.542.115-1.021.194-1.43.3l-1.03.3a4.864,4.864,0,0,1-.888.215,4.735,4.735,0,0,1,.826-.321l1.021-.356c.408-.124.888-.222,1.421-.355a38.772,38.772,0,0,1,9.324-.807c3.951,0,8.649.5,13.826.158a29.356,29.356,0,0,0,7.992-1.6,52.117,52.117,0,0,0,7.806-3.908,53.217,53.217,0,0,1,7.858-4,28.538,28.538,0,0,1,7.992-1.838,31.762,31.762,0,0,1,13.7,1.972,28.831,28.831,0,0,1,4.112,1.943v-7.1h-35.076c-.231.2-.533.444-.941.765a18.592,18.592,0,0,1-1.661,1.216c-.666.444-1.411.986-2.3,1.475a32.859,32.859,0,0,1-2.9,1.589c-1.048.561-2.229,1.04-3.463,1.563a49.759,49.759,0,0,1-8.356,2.442,51.739,51.739,0,0,1-8.667.886,29.227,29.227,0,0,1-3.8-.157c-1.1-.08-2.193-.205-3.286-.392s-1.891-.355-2.664-.515a17.259,17.259,0,0,1-1.989-.515l-.746-.223v17.022c.595-.2,1.376-.436,2.326-.666a36.869,36.869,0,0,1,18.16.206,25.063,25.063,0,0,1,2.664.888,3.735,3.735,0,0,1,.888.426c0,.088-1.4-.373-3.667-.888a43.137,43.137,0,0,0-8.978-1.066,43.684,43.684,0,0,0-9,.887c-.995.206-1.776.393-2.415.544V15859A9.536,9.536,0,0,1,3161.174,15858.863Zm46.62-10.426a1.706,1.706,0,0,1,.462-.6,3.493,3.493,0,0,1,1.225-.659,26.839,26.839,0,0,1,17.5.7,24.8,24.8,0,0,1,4.777,2.479,12.386,12.386,0,0,1,1.182.886c.292.223.4.32.381.338a36.1,36.1,0,0,0-6.473-3.3,27.434,27.434,0,0,0-7.69-1.625,26.731,26.731,0,0,0-9.519,1.084,2.814,2.814,0,0,0-1.022.551.746.746,0,0,0-.328.808c.2.56,1.208.6,1.962.79l4.6.941,7.779,1.616,5.239,1.146,1.412.337a1.588,1.588,0,0,1,.488.15,1.7,1.7,0,0,1-.506-.044l-1.439-.23-5.239-.994-7.841-1.483-4.591-.888c-.408-.08-.79-.143-1.225-.249a1.589,1.589,0,0,1-1.155-.887,1.077,1.077,0,0,1-.017-.826Zm-33.611,6.554a35.409,35.409,0,0,0,4.52,2.087,33.567,33.567,0,0,0,16.116,1.873c6.411-.754,11.544-4,15.691-4.911a15.441,15.441,0,0,1,4.973-.5,8.5,8.5,0,0,1,1.359.193,1.537,1.537,0,0,1,.452.143c0,.053-.648-.1-1.776-.124a16.948,16.948,0,0,0-4.9.667,56.364,56.364,0,0,0-6.917,2.611,33.331,33.331,0,0,1-8.791,2.467,32.5,32.5,0,0,1-16.339-2.06,29.077,29.077,0,0,1-4.493-2.264,12.506,12.506,0,0,1-1.5-1.066,10.763,10.763,0,0,1,1.607.843Z" transform="translate(-3158.217 -15626.119)" fill="#aed3f2"/>
        <path id="Trazado_128756" data-name="Trazado 128756" d="M3169.385,15897.085c3.676.888,7.885,2.557,12.734,3.686a71.188,71.188,0,0,0,16.037,1.91c11.544.292,21.552-3.758,29.241-3.411a23.789,23.789,0,0,1,6.749,1.058v-10.744l-2.256.274c-3.232.32-7.672.95-12.654,1.058a37.65,37.65,0,0,1-7-.5,25.33,25.33,0,0,1-5.514-1.588,18.609,18.609,0,0,1-3.392-1.857,8.2,8.2,0,0,1-.835-.64c-.187-.15-.275-.239-.266-.257a32.726,32.726,0,0,0,4.644,2.38,26.99,26.99,0,0,0,5.444,1.453,39.89,39.89,0,0,0,6.908.446c4.928-.1,9.386-.675,12.618-.888l2.3-.17v-26.062c-.479-.062-1.074-.124-1.776-.187a47.712,47.712,0,0,0-8.427,0,92.7,92.7,0,0,0-12.388,2.121c-4.609,1.021-9.635,2.371-15.025,3.33a56.964,56.964,0,0,1-15.389.887,34.99,34.99,0,0,1-6.624-1.278,45.766,45.766,0,0,1-5.453-2.175,29.376,29.376,0,0,0-7.929-2.8,12.151,12.151,0,0,0-2.886-.106v18.442c.133-.169.284-.328.444-.5,1.465-1.482,4.218-2.842,7.761-3.765s7.912-1.3,12.681-1.919a97.993,97.993,0,0,0,15.194-3.622,110.211,110.211,0,0,1,15.247-3.81,65.112,65.112,0,0,1,12.813-.684,63.269,63.269,0,0,1,8.587,1c1,.2,1.776.364,2.3.5a4.829,4.829,0,0,1,.791.222,4.1,4.1,0,0,1-.808-.106c-.533-.106-1.314-.23-2.318-.4a69.238,69.238,0,0,0-8.569-.818,66.307,66.307,0,0,0-12.716.8,115.7,115.7,0,0,0-15.167,3.827,96.3,96.3,0,0,1-15.291,3.623c-4.8.595-9.129.888-12.645,1.775s-6.216,2.149-7.7,3.552a5.123,5.123,0,0,0-.6.64v7.743l.275.142,2.007,1.066a77.453,77.453,0,0,0,7.61,3.4,74.146,74.146,0,0,0,26.915,4.938c10.8.123,20.157-3.207,27.234-3.863a31.066,31.066,0,0,1,8.374.07l1.3.24.888.239a2.831,2.831,0,0,1,.764.239,4.087,4.087,0,0,1-.79-.135l-.941-.186-1.288-.178a32.5,32.5,0,0,0-8.3.106c-3.5.409-7.592,1.359-12.165,2.336a71.945,71.945,0,0,1-42.153-3.437,69.862,69.862,0,0,1-7.548-3.552l-1.954-1.163-.222-.142v6.713a15.84,15.84,0,0,1,2.247-.311,27.821,27.821,0,0,1,8.888,1.023Zm21.48-17.379a59.892,59.892,0,0,0-8.48,5.142,1.9,1.9,0,0,0-.888,1.509,1.492,1.492,0,0,0,.977,1.2,5,5,0,0,0,2.771.179,4.619,4.619,0,0,1,1.847.08,1.481,1.481,0,0,1,.568.283,3.6,3.6,0,0,0-.6-.178,4.979,4.979,0,0,0-1.776,0,5.13,5.13,0,0,1-2.931-.106,1.774,1.774,0,0,1-1.2-1.456,2.244,2.244,0,0,1,1.039-1.839,56.506,56.506,0,0,1,8.5-5.327,58.942,58.942,0,0,1,11.42-4.254,57.834,57.834,0,0,1,22.111-1.385c1.412.214,2.664.382,3.783.657s2.069.427,2.824.666l1.776.524a2.886,2.886,0,0,1,.6.223,2.949,2.949,0,0,1-.631-.116l-1.775-.417c-.764-.214-1.723-.364-2.824-.578s-2.38-.373-3.783-.559a60.024,60.024,0,0,0-33.3,5.744Zm8.205,7.229a4.94,4.94,0,0,1-1.314-.062,2.44,2.44,0,0,1-1.776-1.163,1.6,1.6,0,0,1-.134-1.377,3.081,3.081,0,0,1,.986-1.146,21.93,21.93,0,0,1,6.083-3.722,27.436,27.436,0,0,1,8.5-1.951,38.641,38.641,0,0,1,15.611,2.438c1.909.685,3.41,1.342,4.44,1.777.515.23.888.436,1.172.568s.4.222.391.239a13.425,13.425,0,0,1-1.643-.6c-1.047-.417-2.566-1.013-4.439-1.643a40.53,40.53,0,0,0-15.4-2.255,28.14,28.14,0,0,0-8.347,1.872,22.46,22.46,0,0,0-6.03,3.554,2.937,2.937,0,0,0-.888.977,1.324,1.324,0,0,0,.08,1.1,2.185,2.185,0,0,0,1.527,1.095c1.074.221,1.723.149,1.714.212a1.2,1.2,0,0,1-.533.027Z" transform="translate(-3158.215 -15630.154)" fill="#aed3f2"/>
        <path id="Trazado_128757" data-name="Trazado 128757" d="M3161.134,15863.131a29.375,29.375,0,0,1,7.93,2.8,46.285,46.285,0,0,0,5.452,2.176,35.225,35.225,0,0,0,6.624,1.279,56.961,56.961,0,0,0,15.389-.889c5.39-.959,10.417-2.309,15.025-3.33a92.748,92.748,0,0,1,12.352-2.086,47.619,47.619,0,0,1,8.427,0c.729.061,1.323.123,1.776.186v-.143c-.47-.088-1.065-.187-1.776-.266a44.2,44.2,0,0,0-8.49-.143,88.56,88.56,0,0,0-12.432,1.979c-4.635,1-9.661,2.336-15.016,3.287a57.3,57.3,0,0,1-15.238.941,36.369,36.369,0,0,1-6.527-1.262,48.478,48.478,0,0,1-5.426-2.1,28.676,28.676,0,0,0-8.054-2.664,9.516,9.516,0,0,0-2.921.045v.063a12.151,12.151,0,0,1,2.9.125Z" transform="translate(-3158.212 -15630.121)" fill="#f2e9e4"/>
        <path id="Trazado_128758" data-name="Trazado 128758" d="M3160.985,15835.687c.79.16,1.678.392,2.664.516s2.184.311,3.286.391,2.46.134,3.8.16a51.642,51.642,0,0,0,8.667-.89,49.476,49.476,0,0,0,8.356-2.439c1.234-.525,2.415-1,3.463-1.563a31.283,31.283,0,0,0,2.948-1.546c.888-.488,1.634-1.03,2.3-1.474a18.494,18.494,0,0,0,1.661-1.217c.408-.32.71-.568.941-.765h-.2l-.888.587c-.453.328-1.012.729-1.7,1.137s-1.421.932-2.318,1.395-1.838,1.021-2.913,1.51-2.22.994-3.445,1.5a49.737,49.737,0,0,1-16.872,3.232c-1.323,0-2.584,0-3.756-.107s-2.273-.187-3.268-.32-1.883-.293-2.664-.426-1.456-.285-2-.418l-.8-.186v.169l.746.222a18.892,18.892,0,0,0,1.989.533Z" transform="translate(-3158.215 -15626.121)" fill="#f2e9e4"/>
        <path id="Trazado_128759" data-name="Trazado 128759" d="M3216.384,15830.489a28.536,28.536,0,0,0-7.992,1.838,53.257,53.257,0,0,0-7.858,4,52.1,52.1,0,0,1-7.806,3.905,29.511,29.511,0,0,1-7.93,1.572c-5.177.337-9.875-.151-13.826-.16a38.675,38.675,0,0,0-9.324.809c-.533.134-1.012.23-1.421.355l-1.021.355a4.627,4.627,0,0,0-.825.32,4.961,4.961,0,0,0,.888-.212l1.029-.3c.409-.106.888-.187,1.43-.3a41.524,41.524,0,0,1,9.262-.631c3.934.063,8.623.6,13.871.285a29.974,29.974,0,0,0,8.081-1.571,52.363,52.363,0,0,0,7.895-3.942,56.785,56.785,0,0,1,7.779-3.969,28.259,28.259,0,0,1,7.77-1.829,31.851,31.851,0,0,1,13.524,1.828,30.586,30.586,0,0,1,4.245,1.944v-.372a28.986,28.986,0,0,0-4.111-1.946,31.666,31.666,0,0,0-13.657-1.971Z" transform="translate(-3158.229 -15626.517)" fill="#f2e9e4"/>
        <path id="Trazado_128760" data-name="Trazado 128760" d="M3232.821,15842.3a18.219,18.219,0,0,0-9.075-3.136c-3.72-.141-7.619,1.28-11.357,3.109a83.35,83.35,0,0,0-10.194,5.843c-1.456,1.013-3.09,1.9-3.809,3.552a2.238,2.238,0,0,0,.364,2.407,5.333,5.333,0,0,0,1.838,1.233,16.316,16.316,0,0,0,6.314,1.5,14.561,14.561,0,0,0,1.776-.044,2.292,2.292,0,0,0,.613-.1,21.426,21.426,0,0,1-2.362-.064,17.1,17.1,0,0,1-6.163-1.652,4.838,4.838,0,0,1-1.678-1.146,1.775,1.775,0,0,1-.266-1.953c.622-1.395,2.193-2.283,3.667-3.277a89.741,89.741,0,0,1,10.194-5.765c3.712-1.774,7.513-3.213,11.091-3.1a18.028,18.028,0,0,1,8.88,2.958,50.455,50.455,0,0,1,5.221,3.772l.79.64v-.223l-.648-.577a42.657,42.657,0,0,0-5.194-3.976Z" transform="translate(-3162.688 -15627.498)" fill="#f2e9e4"/>
        <path id="Trazado_128761" data-name="Trazado 128761" d="M3215.158,15852.571c.435.106.817.169,1.225.249l4.6.888,7.806,1.51,5.275.968,1.438.23a1.6,1.6,0,0,0,.506,0,1.537,1.537,0,0,0-.489-.149l-1.412-.338-5.239-1.146-7.779-1.616-4.6-.941c-.755-.187-1.776-.23-1.962-.79a.747.747,0,0,1,.328-.81,2.861,2.861,0,0,1,1.022-.55,26.754,26.754,0,0,1,9.519-1.082,27.431,27.431,0,0,1,7.69,1.625,36.106,36.106,0,0,1,6.474,3.3,2.8,2.8,0,0,0-.382-.338c-.266-.205-.639-.523-1.181-.888a24.851,24.851,0,0,0-4.777-2.479,26.827,26.827,0,0,0-17.5-.7,3.509,3.509,0,0,0-1.225.658,1.7,1.7,0,0,0-.463.6,1.084,1.084,0,0,0,0,.818,1.58,1.58,0,0,0,1.127.976Z" transform="translate(-3164.454 -15628.53)" fill="#f2e9e4"/>
        <path id="Trazado_128762" data-name="Trazado 128762" d="M3169.661,15853.825a43.2,43.2,0,0,1,8.978,1.067c2.265.5,3.641.966,3.667.886a3.7,3.7,0,0,0-.888-.427,25.3,25.3,0,0,0-2.664-.889,36.951,36.951,0,0,0-18.177-.2,22.641,22.641,0,0,0-2.326.665v.222c.613-.15,1.421-.337,2.415-.542a43.706,43.706,0,0,1,9-.779Z" transform="translate(-3158.215 -15629.074)" fill="#f2e9e4"/>
        <path id="Trazado_128763" data-name="Trazado 128763" d="M3166.548,15878.083c3.552-.888,7.85-1.189,12.645-1.776a96.158,96.158,0,0,0,15.291-3.6,116.139,116.139,0,0,1,15.167-3.828,66.309,66.309,0,0,1,12.716-.8,69.244,69.244,0,0,1,8.569.817c1,.169,1.776.293,2.317.4a4.1,4.1,0,0,0,.808.107,5.114,5.114,0,0,0-.826-.2c-.515-.134-1.3-.3-2.3-.5a63.411,63.411,0,0,0-8.586-1,64.975,64.975,0,0,0-12.814.684,110.2,110.2,0,0,0-15.246,3.811,98.22,98.22,0,0,1-15.194,3.621c-4.769.623-9.128.961-12.68,1.92s-6.3,2.282-7.761,3.765c-.16.169-.311.329-.444.5v.3a5.041,5.041,0,0,1,.6-.639C3160.306,15880.214,3163.032,15878.971,3166.548,15878.083Z" transform="translate(-3158.21 -15630.688)" fill="#f2e9e4"/>
        <path id="Trazado_128764" data-name="Trazado 128764" d="M3175.866,15858.59a29.177,29.177,0,0,0,4.494,2.264,32.487,32.487,0,0,0,16.339,2.061,33.361,33.361,0,0,0,8.791-2.469,56.557,56.557,0,0,1,6.918-2.611,17.017,17.017,0,0,1,4.9-.665c1.172,0,1.776.178,1.776.123a1.6,1.6,0,0,0-.453-.142,8.741,8.741,0,0,0-1.35-.2,15.386,15.386,0,0,0-5.008.5c-4.191.887-9.28,4.154-15.691,4.91a33.569,33.569,0,0,1-16.117-1.875,35.306,35.306,0,0,1-4.52-2.086,11.527,11.527,0,0,0-1.617-.887,14.093,14.093,0,0,0,1.536,1.073Z" transform="translate(-3160.016 -15629.488)" fill="#f2e9e4"/>
        <path id="Trazado_128765" data-name="Trazado 128765" d="M3227.045,15875.188c1.4.187,2.664.329,3.783.56s2.06.364,2.824.578l1.776.417a3.007,3.007,0,0,0,.63.116,2.947,2.947,0,0,0-.6-.223l-1.776-.524c-.755-.239-1.714-.427-2.824-.666s-2.371-.444-3.783-.657a58.3,58.3,0,0,0-33.575,5.684,56.466,56.466,0,0,0-8.5,5.329,2.25,2.25,0,0,0-1.038,1.837,1.774,1.774,0,0,0,1.2,1.456,5.13,5.13,0,0,0,2.931.106,4.979,4.979,0,0,1,1.776,0c.4.089.595.205.6.178a1.5,1.5,0,0,0-.568-.285,4.671,4.671,0,0,0-1.847-.078,5,5,0,0,1-2.771-.179,1.5,1.5,0,0,1-.977-1.2,1.9,1.9,0,0,1,.888-1.51,59.567,59.567,0,0,1,41.78-10.886Z" transform="translate(-3161.094 -15631.436)" fill="#f2e9e4"/>
        <path id="Trazado_128766" data-name="Trazado 128766" d="M3201.013,15887.383a1.325,1.325,0,0,1-.08-1.1,2.922,2.922,0,0,1,.888-.976,22.432,22.432,0,0,1,6.03-3.553,28.115,28.115,0,0,1,8.347-1.874,40.53,40.53,0,0,1,15.4,2.257c1.909.629,3.428,1.224,4.44,1.642a13.63,13.63,0,0,0,1.643.6,2.911,2.911,0,0,0-.391-.24c-.267-.142-.657-.337-1.172-.567a44.3,44.3,0,0,0-4.44-1.776,38.755,38.755,0,0,0-15.566-2.441,27.428,27.428,0,0,0-8.5,1.953,21.834,21.834,0,0,0-6.048,3.668,3.084,3.084,0,0,0-.985,1.146,1.6,1.6,0,0,0,.133,1.377,2.446,2.446,0,0,0,1.776,1.161,5.065,5.065,0,0,0,1.314.063,1.294,1.294,0,0,0,.453-.062c0-.063-.64,0-1.714-.215a2.175,2.175,0,0,1-1.528-1.063Z" transform="translate(-3162.945 -15631.996)" fill="#f2e9e4"/>
        <path id="Trazado_128767" data-name="Trazado 128767" d="M3160.431,15894.227a69.844,69.844,0,0,0,7.574,3.552,71.928,71.928,0,0,0,42.153,3.48c4.573-.977,8.667-1.927,12.166-2.335a32.455,32.455,0,0,1,8.3-.105l1.288.177.941.187a4.009,4.009,0,0,0,.79.133,2.9,2.9,0,0,0-.764-.237l-.888-.241-1.3-.239a31.106,31.106,0,0,0-8.374-.071c-7.1.657-16.437,3.987-27.235,3.862a74.262,74.262,0,0,1-26.9-4.936,77.144,77.144,0,0,1-7.61-3.4l-2.007-1.067-.275-.143v.1l.222.142Z" transform="translate(-3158.22 -15633.511)" fill="#f2e9e4"/>
        <path id="Trazado_128768" data-name="Trazado 128768" d="M3224.776,15893.261a40.086,40.086,0,0,1-6.908-.445,26.79,26.79,0,0,1-5.444-1.455,32.617,32.617,0,0,1-4.644-2.38,1.687,1.687,0,0,0,.267.258,8.135,8.135,0,0,0,.835.639,18.555,18.555,0,0,0,3.392,1.855,25.273,25.273,0,0,0,5.514,1.592,37.566,37.566,0,0,0,7,.5c4.982-.107,9.422-.738,12.654-1.058l2.256-.275v-.293l-2.3.169C3234.162,15892.55,3229.7,15893.172,3224.776,15893.261Z" transform="translate(-3163.762 -15633.079)" fill="#f2e9e4"/>
        <path id="Trazado_128769" data-name="Trazado 128769" d="M3169.31,15901.619c3.641.95,7.832,2.664,12.716,3.8a70.161,70.161,0,0,0,16.153,1.963c11.668.284,21.693-3.827,29.241-3.553a24.456,24.456,0,0,1,6.761.949l0-.283a23.784,23.784,0,0,0-6.749-1.056c-7.69-.347-17.7,3.7-29.241,3.408a71.129,71.129,0,0,1-16.037-1.909c-4.848-1.127-9.058-2.762-12.734-3.686a27.809,27.809,0,0,0-8.88-1.048,16.122,16.122,0,0,0-2.247.311v.115c.746-.106,1.5-.178,2.256-.213A28.969,28.969,0,0,1,3169.31,15901.619Z" transform="translate(-3158.219 -15634.333)" fill="#f2e9e4"/>
        <path id="Trazado_128770" data-name="Trazado 128770" d="M3167.039,15914.767a35.8,35.8,0,0,1,12.92-2.885c5.035-.224,10.558.514,16.356,1.242,2.9.355,5.737.657,8.5.772a58.542,58.542,0,0,0,7.992-.221c5.034-.462,9.581-.889,13.32-.321a18.9,18.9,0,0,1,7.992,2.932V15916a18.638,18.638,0,0,0-7.921-3.037c-3.819-.657-8.427-.239-13.453.2a55.92,55.92,0,0,1-7.895.187c-2.735-.116-5.567-.427-8.462-.782-5.772-.719-11.313-1.447-16.428-1.181a35.28,35.28,0,0,0-13.1,3.046,34.119,34.119,0,0,0-7.743,4.732c-.337.267-.622.516-.888.746v.222l1.021-.8a37.137,37.137,0,0,1,7.788-4.564Z" transform="translate(-3158.213 -15635.582)" fill="#f2e9e4"/>
        <path id="Trazado_128771" data-name="Trazado 128771" d="M3197.713,15920.438a54.2,54.2,0,0,0-10.781-1.279,29.045,29.045,0,0,0-8.773,1.252,20.435,20.435,0,0,0-5.24,2.486h.427a22.115,22.115,0,0,1,4.928-2.1,29.749,29.749,0,0,1,8.658-1.118,55.919,55.919,0,0,1,10.656,1.314c3.152.639,6.154,1.349,8.978,1.909h2.779l-1.1-.187C3205.012,15922.126,3201.469,15921.237,3197.713,15920.438Z" transform="translate(-3159.858 -15636.459)" fill="#f2e9e4"/>
        <rect id="Rectángulo_12963" data-name="Rectángulo 12963" width="54.922" height="1.074" transform="translate(0.035 228.161)" fill="#aed3f2"/>
        <rect id="Rectángulo_12964" data-name="Rectángulo 12964" width="54.931" height="1.074" transform="translate(0.035 256.487)" fill="#aed3f2"/>
        <rect id="Rectángulo_12965" data-name="Rectángulo 12965" width="11.606" height="2.46" transform="translate(22.146 228.693)" fill="#aed3f2"/>
        <rect id="Rectángulo_12966" data-name="Rectángulo 12966" width="11.606" height="2.46" transform="translate(22.146 200.722)" fill="#aed3f2"/>
        <rect id="Rectángulo_12967" data-name="Rectángulo 12967" width="11.606" height="2.46" transform="translate(22.146 256.843)" fill="#aed3f2"/>
        <rect id="Rectángulo_12968" data-name="Rectángulo 12968" width="20.974" height="85.736" transform="translate(54.958 200.722)" fill="#f2e9e4"/>
        <rect id="Rectángulo_12969" data-name="Rectángulo 12969" width="7.406" height="35.298" transform="translate(0.035 165.468)" fill="#f2e9e4"/>
        <rect id="Rectángulo_12970" data-name="Rectángulo 12970" width="5.168" height="31.71" transform="translate(11.206 169.02)" fill="#f2e9e4"/>
        <rect id="Rectángulo_12971" data-name="Rectángulo 12971" width="3.765" height="31.71" transform="translate(7.441 169.02)" fill="#aed3f2"/>
        <rect id="Rectángulo_12972" data-name="Rectángulo 12972" width="3.818" height="28.069" transform="translate(16.365 172.661)" fill="#aed3f2"/>
        <rect id="Rectángulo_12973" data-name="Rectángulo 12973" width="8.081" height="37.677" transform="translate(20.184 163.07)" fill="#f2e9e4"/>
        <path id="Trazado_128772" data-name="Trazado 128772" d="M3196.374,15808.1l-.764,3.179.764,1.146v1.9l-.764,1.776.764.639v4.44l-.764.506.764.64v2.406h40.785v-2.922l-.764-1.395.764-6.35-.622-3.055a7.769,7.769,0,0,1-.639-1.652c0-.381.133-1.27.133-1.27Z" transform="translate(-3162.399 -15624.018)" fill="#f2e9e4"/>
        <g id="Grupo_61560" data-name="Grupo 61560" transform="translate(53.981 184.116)" opacity="0.24">
          <path id="Trazado_128773" data-name="Trazado 128773" d="M3590.977,16037.406l-.977-4.529.977-1.953v-1.775l-.977-.979.977-1.42v-5.949h18.657l-.125,1.242.63,1.688.639,3.02-.763,6.395.763,1.42v2.842Z" transform="translate(-3590 -16020.801)" fill="#aed3f2"/>
        </g>
      </g>
      <g id="freepik--Graphics--inject-101" transform="translate(5876.931 7037.313)">
        <rect id="Rectángulo_12974" data-name="Rectángulo 12974" width="30.218" height="38.157" transform="translate(0.002 88.028) rotate(-0.23)" fill="#6595bf" stroke="#5e6178" stroke-miterlimit="10" stroke-width="0"/>
        <path id="Trazado_128775" data-name="Trazado 128775" d="M3255.231,15670.344h2.193l6.136-.079,21.889-.187-.187.194c-.062-10.9-.124-24.028-.2-38.184-.053-.062.435.427.222.223H3255.1l.2-.205v37.979a.682.682,0,0,1,0,.187.471.471,0,0,1,0-.159v-2.566c0-1.829-.044-4.44-.089-7.779-.053-6.739-.124-16.294-.213-27.643v-.205h.2l14.4-.079h15.815l.24.23c0,14.128.08,27.253.115,38.184v.2h-29.889A3.759,3.759,0,0,0,3255.231,15670.344Z" transform="translate(-3255 -15544.178)" fill="#344154"/>
        <rect id="Rectángulo_12975" data-name="Rectángulo 12975" width="4.191" height="1.021" transform="translate(13.432 125.248) rotate(-0.22)" fill="#344154"/>
        <rect id="Rectángulo_12976" data-name="Rectángulo 12976" width="9.164" height="13.24" transform="translate(10.783 101.305) rotate(-0.23)" fill="#d9a171"/>
        <rect id="Rectángulo_12977" data-name="Rectángulo 12977" width="9.164" height="13.24" transform="translate(10.783 101.305) rotate(-0.23)" fill="#6595bf" stroke="#5e6178" stroke-miterlimit="10" stroke-width="0" opacity="0.5"/>
        <rect id="Rectángulo_12978" data-name="Rectángulo 12978" width="4.191" height="0.87" transform="translate(13.809 87.439) rotate(-0.23)" fill="#344154"/>
        <circle id="Elipse_4548" data-name="Elipse 4548" cx="20.339" cy="20.339" r="20.339" transform="matrix(0.16, -0.987, 0.987, 0.16, 113.22, 70.411)" fill="#d9a171"/>
        <path id="Trazado_128776" data-name="Trazado 128776" d="M3373.219,15605.293a15.785,15.785,0,0,1-2.664.15c-1.678,0-4,.071-6.633.08h-.222v-1.546c0-2.938,0-5.594.062-7.521a21.543,21.543,0,0,1,.169-3.118,22.891,22.891,0,0,1,.159,3.119c.045,1.926.072,4.581.072,7.52v1.315l-.231-.231c2.664,0,4.955,0,6.633.08A15.576,15.576,0,0,1,3373.219,15605.293Z" transform="translate(-3267.175 -15539.864)" fill="#6595bf" stroke="#5e6178" stroke-miterlimit="10" stroke-width="0"/>
        <path id="Trazado_128777" data-name="Trazado 128777" d="M3363.971,15587c.124,0,.231.764.231,1.7s-.107,1.705-.231,1.705-.231-.764-.231-1.705S3363.838,15587,3363.971,15587Z" transform="translate(-3267.18 -15539.155)" fill="#6595bf" stroke="#5e6178" stroke-miterlimit="10" stroke-width="0"/>
        <path id="Trazado_128778" data-name="Trazado 128778" d="M3374.1,15590.1c.1.089-.364.693-1.021,1.35s-1.261,1.118-1.35,1.03.364-.7,1.021-1.359S3374.011,15590.01,3374.1,15590.1Z" transform="translate(-3268.073 -15539.501)" fill="#6595bf" stroke="#5e6178" stroke-miterlimit="10" stroke-width="0"/>
        <path id="Trazado_128779" data-name="Trazado 128779" d="M3380.127,15596.7c.053.115-.568.542-1.35,1.021s-1.447.825-1.519.719.48-.63,1.279-1.118A3.135,3.135,0,0,1,3380.127,15596.7Z" transform="translate(-3268.693 -15540.238)" fill="#6595bf" stroke="#5e6178" stroke-miterlimit="10" stroke-width="0"/>
        <path id="Trazado_128780" data-name="Trazado 128780" d="M3383.464,15606.571a11.726,11.726,0,0,1-4.644,0A11.726,11.726,0,0,1,3383.464,15606.571Z" transform="translate(-3268.869 -15541.32)" fill="#6595bf" stroke="#5e6178" stroke-miterlimit="10" stroke-width="0"/>
        <path id="Trazado_128781" data-name="Trazado 128781" d="M3347.227,15606.271a10.428,10.428,0,0,1-4.387,0,10.428,10.428,0,0,1,4.387,0Z" transform="translate(-3264.839 -15541.286)" fill="#6595bf" stroke="#5e6178" stroke-miterlimit="10" stroke-width="0"/>
        <path id="Trazado_128782" data-name="Trazado 128782" d="M3349.9,15613.6c.089.1-.63.8-1.59,1.58s-1.776,1.324-1.891,1.217.639-.808,1.6-1.581A5.575,5.575,0,0,1,3349.9,15613.6Z" transform="translate(-3265.238 -15542.135)" fill="#6595bf" stroke="#5e6178" stroke-miterlimit="10" stroke-width="0"/>
        <path id="Trazado_128783" data-name="Trazado 128783" d="M3356.406,15619.3a7.21,7.21,0,0,1-1.039,2.007c-.639,1.057-1.163,1.918-1.287,1.855a5.048,5.048,0,0,1,.888-2.1C3355.59,15619.922,3356.282,15619.211,3356.406,15619.3Z" transform="translate(-3266.098 -15542.772)" fill="#6595bf" stroke="#5e6178" stroke-miterlimit="10" stroke-width="0"/>
        <path id="Trazado_128784" data-name="Trazado 128784" d="M3363.971,15626.015a11.676,11.676,0,0,1,0-4.645,11.676,11.676,0,0,1,0,4.645Z" transform="translate(-3267.179 -15543.004)" fill="#6595bf" stroke="#5e6178" stroke-miterlimit="10" stroke-width="0"/>
        <path id="Trazado_128785" data-name="Trazado 128785" d="M3374.831,15622.719a4.859,4.859,0,0,1-1.981-1.242c-.976-.89-1.589-1.715-1.491-1.777a8.6,8.6,0,0,1,1.776,1.447C3374.1,15622.009,3374.911,15622.63,3374.831,15622.719Z" transform="translate(-3268.032 -15542.817)" fill="#6595bf" stroke="#5e6178" stroke-miterlimit="10" stroke-width="0"/>
        <path id="Trazado_128786" data-name="Trazado 128786" d="M3380.2,15617.035c-.1.088-.817-.488-1.616-1.288s-1.368-1.519-1.279-1.606.808.479,1.607,1.278S3380.319,15616.945,3380.2,15617.035Z" transform="translate(-3268.698 -15542.194)" fill="#6595bf" stroke="#5e6178" stroke-miterlimit="10" stroke-width="0"/>
        <path id="Trazado_128787" data-name="Trazado 128787" d="M3349.78,15598.88c-.089.089-.728-.4-1.43-1.1s-1.19-1.34-1.1-1.43.737.4,1.43,1.1S3349.868,15598.791,3349.78,15598.88Z" transform="translate(-3265.331 -15540.2)" fill="#6595bf" stroke="#5e6178" stroke-miterlimit="10" stroke-width="0"/>
        <path id="Trazado_128788" data-name="Trazado 128788" d="M3356.316,15591.986c-.089.088-.719-.392-1.4-1.075s-1.163-1.3-1.074-1.4.719.391,1.4,1.074S3356.378,15591.9,3356.316,15591.986Z" transform="translate(-3266.07 -15539.434)" fill="#6595bf" stroke="#5e6178" stroke-miterlimit="10" stroke-width="0"/>
        <rect id="Rectángulo_12979" data-name="Rectángulo 12979" width="31.124" height="20.974" transform="translate(159.6 129.459) rotate(-5.42)" fill="#6595bf" stroke="#5e6178" stroke-miterlimit="10" stroke-width="0"/>
        <path id="Trazado_128789" data-name="Trazado 128789" d="M3467.6,15696.445a1.98,1.98,0,0,1-.062-.391c0-.285-.071-.649-.124-1.119-.107-.994-.258-2.415-.453-4.209-.364-3.65-.888-8.88-1.527-15.149l.2.17-30.955,2.983c0,.053.391-.471.213-.249h0v.675l.062.693.133,1.385c.089.888.177,1.829.257,2.735l.506,5.327c.329,3.5.639,6.855.932,10.043l-.231-.2,22.28-2.006,6.4-.551,1.714-.134h.613q-.284.053-.559.08l-1.669.187-6.34.657-22.4,2.229h-.213v-.214c-.311-3.179-.631-6.535-.968-10.034l-.506-5.327-.266-2.735-.133-1.385-.062-.693v-.675h0l.2-.249,30.982-2.895h.187v.187c.568,6.367,1.03,11.6,1.35,15.273.151,1.776.267,3.188.355,4.183,0,.453.062.809.08,1.083A1.084,1.084,0,0,1,3467.6,15696.445Z" transform="translate(-3275.099 -15549.056)" fill="#344154"/>
        <path id="Trazado_128790" data-name="Trazado 128790" d="M3465.639,15675.5a8.5,8.5,0,0,1-.941,1.182l-2.664,3.125c-2.309,2.664-5.532,6.217-9.146,10.266l-.133.15-.168-.107-.826-.523c-4.742-3.027-9.022-5.789-12.112-7.8l-3.641-2.406-.977-.676c-.219-.16-.326-.248-.32-.266a1.476,1.476,0,0,1,.373.188l1.021.6,3.72,2.283c3.135,1.945,7.441,4.662,12.183,7.689l.826.523h-.293c3.614-4.012,6.882-7.6,9.253-10.166l2.815-3.029a11.08,11.08,0,0,1,1.03-1.029Z" transform="translate(-3275.129 -15549.068)" fill="#344154"/>
        <rect id="Rectángulo_12980" data-name="Rectángulo 12980" width="39.285" height="58.465" transform="translate(148.694 23.816)" fill="#d9a171"/>
        <rect id="Rectángulo_12981" data-name="Rectángulo 12981" width="39.285" height="58.465" transform="translate(148.694 23.816)" fill="#344154" opacity="0.3"/>
        <path id="Trazado_128791" data-name="Trazado 128791" d="M3462.129,15618.807h-40.2V15559.4h40.2Zm-39.285-.888h38.37v-57.577H3422.88Z" transform="translate(-3273.698 -15536.063)" fill="#344154"/>
        <rect id="Rectángulo_12982" data-name="Rectángulo 12982" width="31.444" height="51.219" transform="translate(152.646 27.457)" fill="#6595bf" stroke="#5e6178" stroke-miterlimit="10" stroke-width="0"/>
        <rect id="Rectángulo_12983" data-name="Rectángulo 12983" width="17.653" height="20.69" transform="translate(159.501 41.932)" fill="#d9a171"/>
        <path id="Trazado_128792" data-name="Trazado 128792" d="M3392.442,15671.957a1.629,1.629,0,0,0,.773-.29,1.489,1.489,0,0,0,.541-.812,8.008,8.008,0,0,0,.045-1.383c0-2.168,0-5.241.062-9v-4.574a5.664,5.664,0,0,0,0-.772,1.236,1.236,0,0,0-.329-.63,1.159,1.159,0,0,0-.63-.338,6.475,6.475,0,0,0-.826,0l-21.791,0a1.245,1.245,0,0,0-1.208,1.137v2.113c0,1.412,0,2.807-.062,4.174,0,2.735-.089,5.372-.124,7.886v.888a1.316,1.316,0,0,0,.186.773,1.216,1.216,0,0,0,.586.487,2.057,2.057,0,0,0,.808.089h9.679l9,.071h3.081a.475.475,0,0,1,.222,0,.939.939,0,0,1-.222,0h-3.081l-9,.079h-9.706a2.527,2.527,0,0,1-.959-.1,1.634,1.634,0,0,1-.791-.657,1.777,1.777,0,0,1-.257-1v-.94c0-2.514.062-5.15.1-7.886,0-1.367,0-2.752.053-4.165v-2.148a1.688,1.688,0,0,1,1.669-1.562h21.765a7.486,7.486,0,0,1,.888,0,1.566,1.566,0,0,1,.834.451,1.708,1.708,0,0,1,.426.826,4.944,4.944,0,0,1,0,.89v1.58c0,1.039,0,2.033-.062,2.983-.08,3.774-.151,6.838-.2,9a7.672,7.672,0,0,1-.1,1.421,1.511,1.511,0,0,1-.621.888,1.359,1.359,0,0,1-.6.222C3392.513,15672.047,3392.442,15671.957,3392.442,15671.957Z" transform="translate(-3267.706 -15546.59)" fill="#344154"/>
        <path id="Trazado_128793" data-name="Trazado 128793" d="M3754.681,15874.876l3.028,1.865-3.09,1.865-3.1,1.775.062-3.641.071-3.641Z" transform="translate(-3640.059 -15760.041)" fill="#344154"/>
        <path id="Trazado_128794" data-name="Trazado 128794" d="M3310.379,15716.706l-22.679-12.218h0a19.82,19.82,0,0,0,6.3-7.1l8.3-15.905a9.9,9.9,0,0,1,7.868-5.158h0l21.037,11.3h0a12.753,12.753,0,0,0-5.817,5.513l-9.395,17.4a17.3,17.3,0,0,1-5.612,6.216Z" transform="translate(-3258.662 -15549.16)" fill="#6595bf" stroke="#5e6178" stroke-miterlimit="10" stroke-width="0"/>
        <path id="Trazado_128795" data-name="Trazado 128795" d="M3310.376,15716.673l.249-.194.737-.578a17.347,17.347,0,0,0,2.54-2.5,16.661,16.661,0,0,0,1.5-2.095c.479-.809.941-1.776,1.474-2.665l3.552-6.643c1.323-2.459,2.762-5.149,4.307-8.044a22.081,22.081,0,0,1,1.27-2.176,13.414,13.414,0,0,1,1.7-1.991,13.09,13.09,0,0,1,2.14-1.643c.391-.237.791-.46,1.208-.664h0v.364h-.071l-.151-.08-.3-.169-.613-.32-10.158-5.612-5.426-2.886-2.753-1.491-1.394-.746-.089-.053h-.515c-.258.053-.515.088-.764.15a9.606,9.606,0,0,0-5.141,3.207,12.16,12.16,0,0,0-1.617,2.558l-1.4,2.663-5.328,10.256a33.764,33.764,0,0,1-2.726,4.68,20.191,20.191,0,0,1-3.552,3.686c-.32.257-.649.506-.986.736l-.115.089h-.062v-.311h0l.258.143.533.284,2.042,1.109,3.845,2.1,11.544,6.34,3.144,1.775.808.462a1.7,1.7,0,0,1,.275.169,1.189,1.189,0,0,1-.293-.125l-.835-.426-3.179-1.669-11.659-6.216-3.863-2.069-2.051-1.1-.524-.284-.267-.143h0v-.328h.062l.124-.089c.329-.23.648-.471.959-.729a20.049,20.049,0,0,0,3.472-3.623,32.436,32.436,0,0,0,2.664-4.635l5.328-10.274,1.4-2.664a12.182,12.182,0,0,1,1.661-2.664,10.1,10.1,0,0,1,5.417-3.3c.258-.071.533-.106.8-.16l.4-.044h.4l.089.044,1.394.755,2.753,1.482,5.381,2.913,10.176,5.506.613.329.293.169.151.079h.08v.392h0q-.6.293-1.172.639a12.887,12.887,0,0,0-2.077,1.582,13.1,13.1,0,0,0-1.661,1.917,21.125,21.125,0,0,0-1.262,2.141l-4.351,7.992-3.614,6.615c-.533.968-1,1.883-1.51,2.664a16.988,16.988,0,0,1-1.545,2.1,16.7,16.7,0,0,1-2.664,2.469c-.329.24-.586.427-.764.533a1.449,1.449,0,0,1-.292.327Z" transform="translate(-3258.659 -15549.127)" fill="#344154"/>
        <path id="Trazado_128796" data-name="Trazado 128796" d="M3323.036,15694.669c0,.079-3.756-1.865-8.3-4.343s-8.187-4.546-8.143-4.626,3.756,1.874,8.3,4.342S3323.08,15694.669,3323.036,15694.669Z" transform="translate(-3260.778 -15550.21)" fill="#344154"/>
        <path id="Trazado_128797" data-name="Trazado 128797" d="M3321.556,15698.231c0,.079-3.881-1.936-8.578-4.493s-8.463-4.7-8.418-4.777,3.881,1.936,8.578,4.493S3321.61,15698.142,3321.556,15698.231Z" transform="translate(-3260.551 -15550.575)" fill="#344154"/>
        <path id="Trazado_128798" data-name="Trazado 128798" d="M3319.855,15701.33c0,.071-3.889-1.936-8.578-4.493s-8.463-4.706-8.427-4.785,3.889,1.936,8.578,4.492S3319.908,15701.241,3319.855,15701.33Z" transform="translate(-3260.359 -15550.923)" fill="#344154"/>
        <path id="Trazado_128799" data-name="Trazado 128799" d="M3318.176,15704.431c-.044.079-3.881-1.936-8.578-4.493s-8.463-4.7-8.418-4.777,3.881,1.936,8.578,4.493S3318.221,15704.342,3318.176,15704.431Z" transform="translate(-3260.172 -15551.27)" fill="#344154"/>
        <path id="Trazado_128800" data-name="Trazado 128800" d="M3316.486,15707.531c-.044.08-3.881-1.927-8.578-4.493s-8.463-4.7-8.418-4.777,3.881,1.936,8.578,4.493S3316.548,15707.441,3316.486,15707.531Z" transform="translate(-3259.983 -15551.617)" fill="#344154"/>
        <path id="Trazado_128801" data-name="Trazado 128801" d="M3306.587,15706.188a6.888,6.888,0,0,1-1.341-.6c-.817-.409-1.927-1-3.143-1.662s-2.318-1.278-3.1-1.775a6.79,6.79,0,0,1-1.244-.809,5.9,5.9,0,0,1,1.351.6c.817.408,1.927,1,3.143,1.661s2.318,1.278,3.1,1.775a6.773,6.773,0,0,1,1.234.81Z" transform="translate(-3259.789 -15551.962)" fill="#344154"/>
        <path id="Trazado_128802" data-name="Trazado 128802" d="M3313.108,15714.287a4.4,4.4,0,0,0,.177-.63,2.664,2.664,0,0,0-.195-1.678,2.5,2.5,0,1,0-1.927,3.552,2.661,2.661,0,0,0,1.519-.744c.292-.295.4-.5.426-.481a1.333,1.333,0,0,1-.337.568,2.662,2.662,0,0,1-1.572.889,2.789,2.789,0,1,1,0-5.5,2.721,2.721,0,0,1,2.1,1.635,2.66,2.66,0,0,1,.107,1.775,1.588,1.588,0,0,1-.294.614Z" transform="translate(-3260.93 -15552.957)" fill="#344154"/>
        <rect id="Rectángulo_12984" data-name="Rectángulo 12984" width="1.074" height="7.468" transform="translate(47.002 133.451) rotate(-61.39)" fill="#344154"/>
        <path id="Trazado_128803" data-name="Trazado 128803" d="M3659.348,15818.017l-5.808-6.216v20.424l12.334-13.765Z" transform="translate(-3629.084 -15753.175)" fill="#d9a171"/>
        <path id="Trazado_128804" data-name="Trazado 128804" d="M3659.348,15818.017l-5.808-6.216v20.424l12.334-13.765Z" transform="translate(-3629.084 -15753.175)" fill="#6595bf" stroke="#5e6178" stroke-miterlimit="10" stroke-width="0" opacity="0.5"/>
        <path id="Trazado_128805" data-name="Trazado 128805" d="M3653.69,15832.785l7.219-14.03-1.545-.089-.95-1.066-4.724,15.186" transform="translate(-3629.102 -15753.824)" fill="#d9a171"/>
        <path id="Trazado_128806" data-name="Trazado 128806" d="M3288.348,15606.1a11.691,11.691,0,0,1-.64,2.168c-.461,1.322-1.145,3.125-1.962,5.1s-1.607,3.721-2.184,4.99a11.308,11.308,0,0,1-1.021,2.023,11.582,11.582,0,0,1,.719-2.146c.506-1.307,1.234-3.082,2.06-5.045s1.483-3.553,2.078-5.035a10.75,10.75,0,0,1,.949-2.053Z" transform="translate(-3258.085 -15541.295)" fill="#344154"/>
        <path id="Trazado_128807" data-name="Trazado 128807" d="M3288.9,15603a10.656,10.656,0,0,1-.79,4.37,10.412,10.412,0,0,1,.79-4.37Z" transform="translate(-3258.708 -15540.946)" fill="#344154"/>
        <path id="Trazado_128808" data-name="Trazado 128808" d="M3291.475,15593.4a5.328,5.328,0,0,1-.417,2.194,5.531,5.531,0,0,1-.888,2.06,5.6,5.6,0,0,1,.418-2.192A5.528,5.528,0,0,1,3291.475,15593.4Z" transform="translate(-3258.939 -15539.872)" fill="#344154"/>
        <path id="Trazado_128809" data-name="Trazado 128809" d="M3295.1,15584.1a5.63,5.63,0,0,1-.666,2.131,5.56,5.56,0,0,1-1.084,1.945,5.626,5.626,0,0,1,.666-2.131,5.455,5.455,0,0,1,1.084-1.944Z" transform="translate(-3259.295 -15538.829)" fill="#344154"/>
        <path id="Trazado_128810" data-name="Trazado 128810" d="M3299.725,15575.3a5.424,5.424,0,0,1-.888,2.051,5.683,5.683,0,0,1-1.3,1.775,5.793,5.793,0,0,1,.888-2.051A5.59,5.59,0,0,1,3299.725,15575.3Z" transform="translate(-3259.765 -15537.845)" fill="#344154"/>
        <path id="Trazado_128811" data-name="Trazado 128811" d="M3305.283,15567a5.7,5.7,0,0,1-1.111,1.936c-.71,1-1.376,1.776-1.482,1.67a5.382,5.382,0,0,1,1.11-1.937C3304.519,15567.71,3305.185,15566.911,3305.283,15567Z" transform="translate(-3260.342 -15536.913)" fill="#344154"/>
        <path id="Trazado_128812" data-name="Trazado 128812" d="M3311.732,15559.4a5.539,5.539,0,0,1-1.323,1.775c-.817.889-1.563,1.572-1.66,1.483s.5-.888,1.323-1.775S3311.635,15559.311,3311.732,15559.4Z" transform="translate(-3261.019 -15536.063)" fill="#344154"/>
        <path id="Trazado_128813" data-name="Trazado 128813" d="M3319.013,15552.6c.08.1-.595.835-1.518,1.643a5.706,5.706,0,0,1-1.776,1.289c-.089-.1.594-.827,1.518-1.644S3318.934,15552.511,3319.013,15552.6Z" transform="translate(-3261.8 -15535.301)" fill="#344154"/>
        <path id="Trazado_128814" data-name="Trazado 128814" d="M3327.038,15546.7c.071.115-.71.719-1.705,1.43a5.459,5.459,0,0,1-1.954,1.073c-.08-.1.675-.753,1.687-1.455A4.929,4.929,0,0,1,3327.038,15546.7Z" transform="translate(-3262.658 -15534.642)" fill="#344154"/>
        <path id="Trazado_128815" data-name="Trazado 128815" d="M3335.733,15541.8c.062.115-.781.666-1.865,1.226a5.3,5.3,0,0,1-2.078.817,5.525,5.525,0,0,1,1.865-1.228A5.407,5.407,0,0,1,3335.733,15541.8Z" transform="translate(-3263.601 -15534.093)" fill="#344154"/>
        <path id="Trazado_128816" data-name="Trazado 128816" d="M3344.956,15538a5.651,5.651,0,0,1-2,.994,5.535,5.535,0,0,1-2.157.567,5.408,5.408,0,0,1,2-1,5.568,5.568,0,0,1,2.158-.56Z" transform="translate(-3264.61 -15533.667)" fill="#344154"/>
        <path id="Trazado_128817" data-name="Trazado 128817" d="M3354.567,15535.4a5.475,5.475,0,0,1-2.1.754,5.325,5.325,0,0,1-2.211.313A10.84,10.84,0,0,1,3354.567,15535.4Z" transform="translate(-3265.67 -15533.376)" fill="#344154"/>
        <path id="Trazado_128818" data-name="Trazado 128818" d="M3364.44,15533.795a10.932,10.932,0,0,1-4.44.558,10.506,10.506,0,0,1,4.44-.557Z" transform="translate(-3266.761 -15533.19)" fill="#344154"/>
        <path id="Trazado_128819" data-name="Trazado 128819" d="M3374.441,15533.369a5.652,5.652,0,0,1-2.211.249,5.541,5.541,0,0,1-2.22-.2,5.655,5.655,0,0,1,2.211-.257,5.225,5.225,0,0,1,2.219.211Z" transform="translate(-3267.882 -15533.119)" fill="#344154"/>
        <path id="Trazado_128820" data-name="Trazado 128820" d="M3384.374,15534.135a5.9,5.9,0,0,1-2.229,0,5.6,5.6,0,0,1-2.175-.471,10.564,10.564,0,0,1,4.44.48Z" transform="translate(-3268.998 -15533.174)" fill="#344154"/>
        <path id="Trazado_128821" data-name="Trazado 128821" d="M3394.155,15536.073a10.54,10.54,0,0,1-4.324-1.012,10.88,10.88,0,0,1,4.324,1.012Z" transform="translate(-3270.102 -15533.338)" fill="#344154"/>
        <path id="Trazado_128822" data-name="Trazado 128822" d="M3403.675,15539.1a10.806,10.806,0,0,1-4.164-1.556,5.412,5.412,0,0,1,2.166.56,5.634,5.634,0,0,1,2,1Z" transform="translate(-3271.186 -15533.615)" fill="#344154"/>
        <path id="Trazado_128823" data-name="Trazado 128823" d="M3412.625,15543.527a10.778,10.778,0,0,1-3.925-2.158,11.822,11.822,0,0,1,3.925,2.159Z" transform="translate(-3272.216 -15534.043)" fill="#344154"/>
        <path id="Trazado_128824" data-name="Trazado 128824" d="M3420.706,15549.445c-.089.1-.888-.452-1.865-1.217s-1.652-1.474-1.572-1.58.888.443,1.865,1.216S3420.795,15549.357,3420.706,15549.445Z" transform="translate(-3273.175 -15534.633)" fill="#344154"/>
        <path id="Trazado_128825" data-name="Trazado 128825" d="M3427.647,15556.566c-.106.063-.719-.71-1.492-1.651a7.371,7.371,0,0,1-1.3-1.777c.089-.087.888.543,1.66,1.5a4.362,4.362,0,0,1,1.136,1.928Z" transform="translate(-3274.025 -15535.36)" fill="#344154"/>
        <path id="Trazado_128826" data-name="Trazado 128826" d="M3401.632,15663.144a5.794,5.794,0,0,1-2.211.107,1.118,1.118,0,1,1,0-.462,5.373,5.373,0,0,1,2.211.354Z" transform="translate(-3270.928 -15547.545)" fill="#344154"/>
        <path id="Trazado_128827" data-name="Trazado 128827" d="M3411.612,15662.795a5.323,5.323,0,0,1-2.194.428,5.543,5.543,0,0,1-2.229,0,10.591,10.591,0,0,1,4.44-.391Z" transform="translate(-3272.046 -15547.639)" fill="#344154"/>
        <path id="Trazado_128828" data-name="Trazado 128828" d="M3421.389,15660.7a10.917,10.917,0,0,1-4.289,1.154A10.917,10.917,0,0,1,3421.389,15660.7Z" transform="translate(-3273.156 -15547.409)" fill="#344154"/>
        <path id="Trazado_128829" data-name="Trazado 128829" d="M3430.551,15656.6a8.491,8.491,0,0,1-3.951,2.034c-.054-.125.817-.614,1.9-1.164a6.44,6.44,0,0,1,2.051-.871Z" transform="translate(-3274.22 -15546.951)" fill="#344154"/>
        <path id="Trazado_128830" data-name="Trazado 128830" d="M3438.474,15650.4c.1.088-.524.888-1.438,1.7a4.85,4.85,0,0,1-1.856,1.26c-.08-.105.639-.788,1.545-1.6a7.656,7.656,0,0,1,1.75-1.367Z" transform="translate(-3275.181 -15546.257)" fill="#344154"/>
        <path id="Trazado_128831" data-name="Trazado 128831" d="M3444.529,15642.4a4.828,4.828,0,0,1-.941,2.042c-.666,1.039-1.35,1.776-1.447,1.7a6.478,6.478,0,0,1,1.065-1.945,8.317,8.317,0,0,1,1.323-1.792Z" transform="translate(-3275.961 -15545.359)" fill="#344154"/>
        <path id="Trazado_128832" data-name="Trazado 128832" d="M3448.062,15633.1a7.717,7.717,0,0,1-1.172,4.271,6.525,6.525,0,0,1,.452-2.176,6.734,6.734,0,0,1,.72-2.1Z" transform="translate(-3276.493 -15544.317)" fill="#344154"/>
        <path id="Trazado_128833" data-name="Trazado 128833" d="M3448.538,15625.1c.124,0,.258.567.293,1.3s0,1.323-.169,1.323-.257-.586-.293-1.3S3448.4,15625.189,3448.538,15625.1Z" transform="translate(-3276.658 -15543.423)" fill="#344154"/>
        <path id="Trazado_128834" data-name="Trazado 128834" d="M3325.513,15677.8a6.451,6.451,0,0,1-1.163,1.9c-.719.985-1.323,1.775-1.43,1.7a4.816,4.816,0,0,1,1.056-1.981C3324.7,15678.332,3325.388,15677.71,3325.513,15677.8Z" transform="translate(-3262.607 -15549.323)" fill="#344154"/>
        <path id="Trazado_128835" data-name="Trazado 128835" d="M3332.578,15670.8c.08.1-.648.772-1.572,1.571s-1.7,1.412-1.776,1.314a4.9,4.9,0,0,1,1.492-1.668A6.123,6.123,0,0,1,3332.578,15670.8Z" transform="translate(-3263.314 -15548.539)" fill="#344154"/>
        <path id="Trazado_128836" data-name="Trazado 128836" d="M3340.6,15665.648a10.659,10.659,0,1,1-2.069.836A5.473,5.473,0,0,1,3340.6,15665.648Z" transform="translate(-3263.722 -15547.917)" fill="#344154"/>
        <path id="Trazado_128837" data-name="Trazado 128837" d="M3350.46,15662.4a14.582,14.582,0,0,1-4.28,1.2,4.749,4.749,0,0,1,2.06-.889,4.875,4.875,0,0,1,2.219-.31Z" transform="translate(-3265.213 -15547.598)" fill="#344154"/>
        <path id="Trazado_128838" data-name="Trazado 128838" d="M3360.441,15661.375a6.227,6.227,0,0,1-2.211.266,6,6,0,0,1-2.22-.062,8.463,8.463,0,0,1,4.44-.205Z" transform="translate(-3266.314 -15547.462)" fill="#344154"/>
        <path id="Trazado_128839" data-name="Trazado 128839" d="M3366.481,15661.866a.257.257,0,0,1-.3.187.265.265,0,0,1-.249-.266h0a.267.267,0,0,1,.311-.2A.227.227,0,0,1,3366.481,15661.866Z" transform="translate(-3267.425 -15547.51)" fill="#344154"/>
        <path id="Trazado_128840" data-name="Trazado 128840" d="M3338.56,15744.4a5.414,5.414,0,0,1,2,1,7.47,7.47,0,0,1,1.776,1.395,5.273,5.273,0,0,1-2-1,6.422,6.422,0,0,1-1.775-1.4Z" transform="translate(-3264.359 -15556.784)" fill="#344154"/>
        <path id="Trazado_128841" data-name="Trazado 128841" d="M3330.539,15738.4a5.567,5.567,0,0,1,1.882,1.2c.951.764,1.67,1.455,1.59,1.563s-.888-.436-1.883-1.2S3330.45,15738.489,3330.539,15738.4Z" transform="translate(-3263.46 -15556.112)" fill="#344154"/>
        <path id="Trazado_128842" data-name="Trazado 128842" d="M3324.42,15730.6c.115-.062.666.764,1.314,1.776a6.634,6.634,0,0,1,1.056,1.953c-.1.08-.79-.657-1.447-1.7a4.894,4.894,0,0,1-.923-2.025Z" transform="translate(-3262.776 -15555.239)" fill="#344154"/>
        <path id="Trazado_128843" data-name="Trazado 128843" d="M3320.6,15721.4a10.519,10.519,0,0,1,1.492,4.183,5.571,5.571,0,0,1-.959-2.017,5.762,5.762,0,0,1-.533-2.167Z" transform="translate(-3262.348 -15554.208)" fill="#344154"/>
      </g>
      <g id="freepik--Character--inject-101" transform="translate(5863.01 7173.362)">
        <path id="Trazado_128844" data-name="Trazado 128844" d="M3764.98,16047.4l-1.829,79.031h-3.481l.222-78.854Z" transform="translate(-3625.921 -15915.612)" fill="#5e6178"/>
        <path id="Trazado_128845" data-name="Trazado 128845" d="M3779.83,16046.4l16.943,79.919h3.89l-14.11-79.919Z" transform="translate(-3628.179 -15915.502)" fill="#5e6178"/>
        <path id="Trazado_128846" data-name="Trazado 128846" d="M3741.195,16047.355l-18.745,79.031h-3.89l17.023-79.387Z" transform="translate(-3621.316 -15915.567)" fill="#5e6178"/>
        <path id="Trazado_128847" data-name="Trazado 128847" d="M3418.274,15749.4s18.719-1.066,16.872,20.583-2.939,43.574-9.892,51.06-76.989,7.753-82.867,1.606,11.224-5.887,14.43-5.887,22.99,1.874,29.411-14.963S3390.986,15748.332,3418.274,15749.4Z" transform="translate(-3249.6 -15693.392)" fill="#5e6178"/>
        <path id="Trazado_128848" data-name="Trazado 128848" d="M3419.451,15749.4s14.306,2.93,12.974,17.9-5.079,41.168-12.032,47.854-34.187,8.135-48.919,7.22c-17.112-1.074-27.909-4.333-27.909-4.333s-3.126,2.006-2.176,3.3,9.288,6.491,49.728,5.63,37.624-6.838,39.3-13.32,5.2-41.265,4.715-48.9S3430.791,15750.733,3419.451,15749.4Z" transform="translate(-3249.605 -15693.395)" fill="#5e6178"/>
        <path id="Trazado_128849" data-name="Trazado 128849" d="M3419.451,15749.4s14.306,2.93,12.974,17.9-5.079,41.168-12.032,47.854-34.187,8.135-48.919,7.22c-17.112-1.074-27.909-4.333-27.909-4.333s-3.126,2.006-2.176,3.3,9.288,6.491,49.728,5.63,37.624-6.838,39.3-13.32,5.2-41.265,4.715-48.9S3430.791,15750.733,3419.451,15749.4Z" transform="translate(-3249.605 -15693.395)" fill="#344154" opacity="0.2"/>
        <path id="Trazado_128850" data-name="Trazado 128850" d="M3416.108,15781.951a1.6,1.6,0,1,0,1.545-1.981,1.775,1.775,0,0,0-1.545,1.981Z" transform="translate(-3257.993 -15696.818)" fill="#5e6178"/>
        <path id="Trazado_128851" data-name="Trazado 128851" d="M3417.181,15772.3a11.332,11.332,0,0,0-.532,2.886,6.81,6.81,0,0,0,.684,3.036,6.488,6.488,0,0,0,1.021,1.519,7.314,7.314,0,0,1,.72.773,1.572,1.572,0,0,1,.258,1.19,14.214,14.214,0,0,1-.791,1.944,6.3,6.3,0,0,0-.231,1.775,6.855,6.855,0,0,0,.781,3.01,11.554,11.554,0,0,0,1.777,2.311,2.615,2.615,0,0,1-.694-.436,6.17,6.17,0,0,1-1.438-1.688,6.738,6.738,0,0,1-.95-3.188,6.533,6.533,0,0,1,.231-1.987,17.753,17.753,0,0,0,.764-1.856c.142-.6-.346-1.013-.835-1.51a6.67,6.67,0,0,1-1.083-1.671,6.762,6.762,0,0,1-.613-3.257,6.571,6.571,0,0,1,.488-2.178,1.837,1.837,0,0,1,.444-.672Z" transform="translate(-3258.009 -15695.959)" fill="#5e6178"/>
        <path id="Trazado_128852" data-name="Trazado 128852" d="M3412.5,15779.3c.089,0,0,.471.222,1.128a4.019,4.019,0,0,0,1.554,2.1,6.184,6.184,0,0,0,2.54.89c.71.1,1.163.113,1.163.193s-.444.187-1.19.178a5.374,5.374,0,0,1-2.814-.835,3.858,3.858,0,0,1-1.625-2.459C3412.23,15779.744,3412.443,15779.3,3412.5,15779.3Z" transform="translate(-3257.569 -15696.743)" fill="#5e6178"/>
        <g id="Grupo_61561" data-name="Grupo 61561" transform="translate(154.743 76.341)" opacity="0.2">
          <path id="Trazado_128853" data-name="Trazado 128853" d="M3416.108,15781.951a1.6,1.6,0,1,0,1.545-1.981,1.775,1.775,0,0,0-1.545,1.981Z" transform="translate(-3412.736 -15773.16)" fill="#344154"/>
          <path id="Trazado_128854" data-name="Trazado 128854" d="M3417.181,15772.3a11.332,11.332,0,0,0-.532,2.886,6.81,6.81,0,0,0,.684,3.036,6.488,6.488,0,0,0,1.021,1.519,7.314,7.314,0,0,1,.72.773,1.572,1.572,0,0,1,.258,1.19,14.214,14.214,0,0,1-.791,1.944,6.3,6.3,0,0,0-.231,1.775,6.855,6.855,0,0,0,.781,3.01,11.554,11.554,0,0,0,1.777,2.311,2.615,2.615,0,0,1-.694-.436,6.17,6.17,0,0,1-1.438-1.688,6.738,6.738,0,0,1-.95-3.188,6.533,6.533,0,0,1,.231-1.987,17.753,17.753,0,0,0,.764-1.856c.142-.6-.346-1.013-.835-1.51a6.67,6.67,0,0,1-1.083-1.671,6.762,6.762,0,0,1-.613-3.257,6.571,6.571,0,0,1,.488-2.178,1.837,1.837,0,0,1,.444-.672Z" transform="translate(-3412.751 -15772.3)" fill="#344154"/>
          <path id="Trazado_128855" data-name="Trazado 128855" d="M3412.5,15779.3c.089,0,0,.471.222,1.128a4.019,4.019,0,0,0,1.554,2.1,6.184,6.184,0,0,0,2.54.89c.71.1,1.163.113,1.163.193s-.444.187-1.19.178a5.374,5.374,0,0,1-2.814-.835,3.858,3.858,0,0,1-1.625-2.459C3412.23,15779.744,3412.443,15779.3,3412.5,15779.3Z" transform="translate(-3412.312 -15773.084)" fill="#344154"/>
        </g>
        <path id="Trazado_128856" data-name="Trazado 128856" d="M3389.207,15688.41c-.24-.089-.551-.187-.959-.293a12.715,12.715,0,0,0-4.253-.382,9.363,9.363,0,0,0-5.773,2.529,8.254,8.254,0,0,0-2.087,3.171,7.254,7.254,0,0,0-.39,1.99c0,.692.053,1.367,0,2.024a2.262,2.262,0,0,1-.693,1.66,5.294,5.294,0,0,1-1.643.888,5.95,5.95,0,0,0-1.7.978,4.776,4.776,0,0,0-1.491,4.91,12.016,12.016,0,0,0,1.271,2.663c.212.339.39.667.559.987a3.3,3.3,0,0,1,0,.835,5.671,5.671,0,0,1-1.678,3.188,13.954,13.954,0,0,0-2.309,2.841,3.181,3.181,0,0,0,.151,3.466c.888,1.029,2.459,1.029,3.827.994a117.07,117.07,0,0,1,14.208.79l3.836-33.016Zm-11.961,5.843c-.213,1.3,0,2.717-.648,3.881s-2.06,1.864-3.117,2.788a6.535,6.535,0,0,0-2.06,5.959c.1.55.275,1.092.426,1.642l-.053-.089a12.106,12.106,0,0,1-1.181-2.663,4.44,4.44,0,0,1,1.4-4.439,5.492,5.492,0,0,1,1.589-.889,5.911,5.911,0,0,0,1.776-.987,2.743,2.743,0,0,0,.835-1.97c0-.72-.062-1.395,0-2.034a6.6,6.6,0,0,1,.355-1.854,7.979,7.979,0,0,1,1.954-3.02,9.2,9.2,0,0,1,5.514-2.5,11.081,11.081,0,0,1,1.359-.073,10.277,10.277,0,0,0-3.073.577,7.675,7.675,0,0,0-5.079,5.712Z" transform="translate(-3252.563 -15686.482)" fill="#344154"/>
        <path id="Trazado_128857" data-name="Trazado 128857" d="M3385.017,15727.628c.275-1.519-.213-7.93-.213-7.93s-5.683-.719-5.932-6.526.337-19.171.337-19.171l10.425-5,9.138,10.417.168,28.149Z" transform="translate(-3253.817 -15686.628)" fill="#ffbe9d"/>
        <path id="Trazado_128858" data-name="Trazado 128858" d="M3380.91,15705.509a.728.728,0,1,0,.736-.729A.737.737,0,0,0,3380.91,15705.509Z" transform="translate(-3254.052 -15688.396)" fill="#344154"/>
        <path id="Trazado_128859" data-name="Trazado 128859" d="M3379.569,15704.591c.089.1.63-.364,1.412-.392s1.359.364,1.439.258-.053-.222-.3-.408a1.779,1.779,0,0,0-1.155-.329,1.868,1.868,0,0,0-1.128.435C3379.6,15704.324,3379.524,15704.591,3379.569,15704.591Z" transform="translate(-3253.9 -15688.277)" fill="#344154"/>
        <path id="Trazado_128860" data-name="Trazado 128860" d="M3390.45,15705.509a.728.728,0,1,0,.737-.729.737.737,0,0,0-.736.729Z" transform="translate(-3255.12 -15688.396)" fill="#344154"/>
        <path id="Trazado_128861" data-name="Trazado 128861" d="M3389.289,15704.79c.089.1.63-.364,1.412-.392s1.359.364,1.438.258-.053-.222-.3-.408a1.853,1.853,0,0,0-1.154-.338,1.894,1.894,0,0,0-1.127.436C3389.324,15704.522,3389.244,15704.7,3389.289,15704.79Z" transform="translate(-3254.989 -15688.298)" fill="#344154"/>
        <path id="Trazado_128862" data-name="Trazado 128862" d="M3385.749,15711.521a4.745,4.745,0,0,0-1.27-.194c-.2,0-.381,0-.417-.187a1.127,1.127,0,0,1,.115-.64c.187-.523.373-1.074.569-1.651a28.063,28.063,0,0,0,1.252-4.3,29.441,29.441,0,0,0-1.572,4.19c-.186.578-.364,1.128-.542,1.652a1.313,1.313,0,0,0-.089.888.54.54,0,0,0,.338.3,2.165,2.165,0,0,0,.338,0,5.06,5.06,0,0,0,1.28-.061Z" transform="translate(-3254.37 -15688.371)" fill="#344154"/>
        <path id="Trazado_128863" data-name="Trazado 128863" d="M3385.56,15723.289a13.887,13.887,0,0,0,7.53-2.471s-1.776,4.229-7.433,3.891Z" transform="translate(-3254.573 -15690.192)" fill="#eb996e"/>
        <path id="Trazado_128864" data-name="Trazado 128864" d="M3412.958,15706.817a3.307,3.307,0,0,1-1.1,0,23.142,23.142,0,0,0-2.717-2.727,4.563,4.563,0,0,1,.213-2.53,11.068,11.068,0,0,0,.408-1.376,2.753,2.753,0,0,0-.079-1.562,4.147,4.147,0,0,0-2.282-2.088c-.781-1.092-2.211-1.6-3.206-2.53a7.443,7.443,0,0,1-.444-1.562,10.493,10.493,0,0,0-.684-2.548,4.75,4.75,0,0,0-1.474-1.776,5.1,5.1,0,0,0-2.5-1.041,6.7,6.7,0,0,0-2.042-.673,7.108,7.108,0,0,0-5.985,1.945,12.2,12.2,0,0,0-9.431,1.455,7.1,7.1,0,0,0-2.983,3.021,9.4,9.4,0,0,0-.559,3.773v2.753a.887.887,0,0,0,1.146,1.057l4.253.16a1.53,1.53,0,0,0,.844-.134,1.471,1.471,0,0,0,.666-1.349v-1.448c.142.56.311,1.1.506,1.643a2.178,2.178,0,0,0,.888,1.482,2.524,2.524,0,0,0,1.225.206h1.838a1.567,1.567,0,0,0,.888-.223,1.417,1.417,0,0,0,.329-1.367,9.862,9.862,0,0,1-.293-1.9c.551,1.085.817,2.436,1.492,2.613a4.7,4.7,0,0,0,2.052-.151c.684-.213,1.163-.382,1.661-.542a4.6,4.6,0,0,1-.2.834c-.515,1.4-1.678,2.736-1.279,4.166s1.838,1.927,2.584,3.056a4.862,4.862,0,0,1,.159,4.253,37.844,37.844,0,0,0-1.571,4.111,3.926,3.926,0,0,0,1.074,4.023,5.327,5.327,0,0,0,3.25.736l10.318.089a5.7,5.7,0,0,0,1.971-.214,1.91,1.91,0,0,0,1.314-1.375,2.423,2.423,0,0,0-.941-2.052,6.383,6.383,0,0,1-1.571-1.775c-.542-1.163,0-2.522.586-3.65s1.3-2.354,1.074-3.614a2.849,2.849,0,0,0-.3-.888,3.112,3.112,0,0,0,.995-.115,2.394,2.394,0,0,0,.826-.4c.16-.123.231-.2.222-.221A4.353,4.353,0,0,1,3412.958,15706.817Zm-13.187-19.341a5.126,5.126,0,0,1,1.617.888,4.55,4.55,0,0,1,1.331,1.7,10.679,10.679,0,0,1,.613,2.471,3.165,3.165,0,0,0,.107.549c-.5-.888-.746-1.891-1.181-2.806a7.1,7.1,0,0,0-2.486-2.8Zm7.992,9.768a3.176,3.176,0,0,1,1.483,1.529,4.059,4.059,0,0,1-.3,2.662,4.56,4.56,0,0,0-.284,2.1,3.916,3.916,0,0,1-.445-.8c-.674-1.687.169-3.765-.444-5.443Z" transform="translate(-3253.733 -15686.329)" fill="#344154"/>
        <path id="Trazado_128865" data-name="Trazado 128865" d="M3386.305,15714.547a1.51,1.51,0,0,1,.887-1.112,1.171,1.171,0,0,1,1,0,.888.888,0,0,1,.461.888.976.976,0,0,1-.808.746,2.652,2.652,0,0,1-1.155-.07.962.962,0,0,1-.3-.116.266.266,0,0,1-.124-.274" transform="translate(-3254.652 -15689.354)" fill="#eb996e"/>
        <path id="Trazado_128866" data-name="Trazado 128866" d="M3388.171,15712.4c.062,0,.16.214.133.587a2.059,2.059,0,0,1-2,1.883c-.382,0-.595-.107-.586-.16a3.462,3.462,0,0,0,1.625-.737C3388.082,15713.289,3388.047,15712.4,3388.171,15712.4Z" transform="translate(-3254.59 -15689.249)" fill="#344154"/>
        <path id="Trazado_128867" data-name="Trazado 128867" d="M3369.425,15731.834s-17.2,14.954-17.644,13.115c-2.424-9.9-1.776-22.537-1.35-27.368.266-.417.577-.888.941-1.385a6.728,6.728,0,0,1,1.572-1.438,9.955,9.955,0,0,1,2.335-1.3.825.825,0,0,0,.23-1.536c-.657-.25-2.886.31-4.928,2.014s-1.208-2.344-.932-3.826.888-6.1.524-6.536c-.568-.631-1.376-.124-1.625,1.358s-1.279,5.9-2.051,5.737.737-7.69.737-7.69.586-1.562-.3-1.776c-1.616-.4-2.62,7.708-2.664,8.48-.053.532-.888.391-.817-.187s1.678-7.477,0-7.894c-1.252-.32-.888,6.659-2.016,7.929s.266-5.327-.941-5.594c-.453-.089-.808-.1-1.057,3.791a84.717,84.717,0,0,0,.337,9.387c-1.066,10.655-3.153,43.378,11.615,42.251,17.431-1.324,21.445-15.1,21.445-15.1Z" transform="translate(-3249.36 -15687.992)" fill="#ffbe9d"/>
        <path id="Trazado_128868" data-name="Trazado 128868" d="M3419.452,15758.836l-2.984-14.954c-2.193-12.245-19.358-13.089-19.358-13.089l-13.471-.223a26.733,26.733,0,0,0-16.153,5.6c-7.184,5.887-12,10.425-12,10.425l11.269,13.035,6.678-4.439s-2.406,4.333-2.007,7.992,4.111,6.269,4.111,6.269l-2.806,30.076,43.991-1.775-5.665-38.921Z" transform="translate(-3251.204 -15691.285)" fill="#d9a171"/>
        <path id="Trazado_128869" data-name="Trazado 128869" d="M3419.062,15747.631a7.336,7.336,0,0,1-.515,1.1,12.349,12.349,0,0,1-6.882,5.578,12.608,12.608,0,0,1-7.272.077,10.442,10.442,0,0,1-3.792-2,6.081,6.081,0,0,1-2.22-4.058,4.617,4.617,0,0,1,2.282-4.317,3.284,3.284,0,0,1,2.665-.178,4.433,4.433,0,0,1,2.149,1.688,5.007,5.007,0,0,1,.888,2.664,6.277,6.277,0,0,1-.6,2.779,11.038,11.038,0,0,1-3.809,4.343,15.485,15.485,0,0,1-11.633,2.5,13.685,13.685,0,0,1-5.665-2.441,10.218,10.218,0,0,1-3.614-4.761,8.089,8.089,0,0,1,.186-5.756,5.7,5.7,0,0,1,4.254-3.443,3.836,3.836,0,0,1,4.271,2.664,3.472,3.472,0,0,1-.444,2.548,4.862,4.862,0,0,1-1.775,1.776,7.167,7.167,0,0,1-4.6.585,23.784,23.784,0,0,1-4.12-1.127,14.2,14.2,0,0,1-6.1-3.987,8.5,8.5,0,0,1-1.98-5.106,6.437,6.437,0,0,1,.764-3.392,4.643,4.643,0,0,1,.729-.977,7.74,7.74,0,0,0-.648,1.021,6.576,6.576,0,0,0-.657,3.339,8.329,8.329,0,0,0,1.989,4.946,13.809,13.809,0,0,0,6.021,3.846,23.6,23.6,0,0,0,4.058,1.084,6.776,6.776,0,0,0,4.351-.562,4.427,4.427,0,0,0,1.635-1.614,3.127,3.127,0,0,0,.382-2.283,3.418,3.418,0,0,0-3.819-2.37,5.261,5.261,0,0,0-3.907,3.2,7.6,7.6,0,0,0-.16,5.435,9.615,9.615,0,0,0,3.455,4.539,13.5,13.5,0,0,0,5.47,2.353,15.092,15.092,0,0,0,11.295-2.424,10.744,10.744,0,0,0,3.667-4.146,5.94,5.94,0,0,0,.568-2.594,4.539,4.539,0,0,0-.817-2.415,4.026,4.026,0,0,0-1.927-1.546,2.9,2.9,0,0,0-2.334.145,4.288,4.288,0,0,0-2.087,3.941,5.645,5.645,0,0,0,2.078,3.8,9.759,9.759,0,0,0,3.65,1.956,12.073,12.073,0,0,0,11.783-2.711,12.893,12.893,0,0,0,2.194-2.662l.444-.781Z" transform="translate(-3252.91 -15691.714)" fill="#6595bf" stroke="#5e6178" stroke-miterlimit="10" stroke-width="0"/>
        <path id="Trazado_128870" data-name="Trazado 128870" d="M3418.052,15797.48l-.24.106c-.16.053-.4.159-.719.249a12.242,12.242,0,0,1-2.9.5,13.764,13.764,0,0,1-4.617-.532,13,13,0,0,1-5.329-3.054,13.639,13.639,0,0,1-4.137-10.6,9.178,9.178,0,0,1,1.225-4.271,5,5,0,0,1,1.669-1.668,4.261,4.261,0,0,1,2.353-.588,3.114,3.114,0,0,1,2.264,1.04,3.553,3.553,0,0,1,.888,2.389,4.487,4.487,0,0,1-.737,2.459,6.622,6.622,0,0,1-1.838,1.82,12.36,12.36,0,0,1-4.849,1.855,14.712,14.712,0,0,1-9.883-1.99,12.781,12.781,0,0,1-3.614-3.259,9.145,9.145,0,0,1-1.865-4.288,5.489,5.489,0,0,1,1.208-4.263,4.023,4.023,0,0,1,1.776-1.243,3.681,3.681,0,0,1,2.123-.053,3.553,3.553,0,0,1,1.776,1.039,2.794,2.794,0,0,1,.746,1.828,4.209,4.209,0,0,1-1.607,3.225,7.994,7.994,0,0,1-2.877,1.581,11.2,11.2,0,0,1-2.859.558,10.939,10.939,0,0,1-4.591-.7,10.525,10.525,0,0,1-2.548-1.457,6.13,6.13,0,0,1-.585-.5c-.125-.116-.187-.179-.178-.187s.275.222.817.6a10.573,10.573,0,0,0,7.1,1.98,11.069,11.069,0,0,0,2.788-.586,7.588,7.588,0,0,0,2.753-1.546,3.851,3.851,0,0,0,1.464-2.957,2.789,2.789,0,0,0-2.255-2.512,3.258,3.258,0,0,0-1.891.052,3.7,3.7,0,0,0-1.617,1.128,5.159,5.159,0,0,0-1.1,3.951,8.734,8.734,0,0,0,1.776,4.076,12.438,12.438,0,0,0,3.5,3.143,14.336,14.336,0,0,0,9.563,1.919,11.987,11.987,0,0,0,4.671-1.777,4.787,4.787,0,0,0,2.38-3.9,3.167,3.167,0,0,0-.728-2.1,2.754,2.754,0,0,0-1.945-.888,3.845,3.845,0,0,0-2.113.524,4.714,4.714,0,0,0-1.537,1.518,8.868,8.868,0,0,0-1.172,4.076,13.813,13.813,0,0,0,.364,4.049,13.378,13.378,0,0,0,3.6,6.285,12.873,12.873,0,0,0,5.168,3.056,13.828,13.828,0,0,0,7.415.188,9.573,9.573,0,0,1,.941-.283Z" transform="translate(-3253.738 -15695.921)" fill="#6595bf" stroke="#5e6178" stroke-miterlimit="10" stroke-width="0"/>
        <path id="Trazado_128871" data-name="Trazado 128871" d="M3406.319,15744.5a3.474,3.474,0,0,1,.24.95c.142.719.311,1.6.515,2.664.453,2.326,1.039,5.328,1.678,8.658s1.2,6.465,1.554,8.693c.169,1.118.3,2.024.373,2.664a3.671,3.671,0,0,1,.053.986,4.445,4.445,0,0,1-.231-.959c-.142-.72-.32-1.591-.524-2.665-.453-2.326-1.03-5.328-1.678-8.666s-1.2-6.456-1.545-8.693c-.177-1.119-.3-2.025-.373-2.664a3.894,3.894,0,0,1-.062-.97Z" transform="translate(-3256.897 -15692.846)" fill="#344154"/>
        <path id="Trazado_128872" data-name="Trazado 128872" d="M3425.78,15762.57a69.21,69.21,0,0,1-8.125.258,72.539,72.539,0,0,1-8.125-.194,69.224,69.224,0,0,1,8.125-.266A75.181,75.181,0,0,1,3425.78,15762.57Z" transform="translate(-3257.257 -15694.843)" fill="#344154"/>
        <path id="Trazado_128873" data-name="Trazado 128873" d="M3366.814,15761.629a81.108,81.108,0,0,1-5.594-6.482,77.247,77.247,0,0,1-5.231-6.766,79.257,79.257,0,0,1,5.595,6.474,80.822,80.822,0,0,1,5.23,6.775Z" transform="translate(-3251.26 -15693.28)" fill="#344154"/>
        <path id="Trazado_128874" data-name="Trazado 128874" d="M3399.246,15730.867a8.242,8.242,0,0,1-2.034.23c-1.261.071-3,.115-4.928.088s-3.659-.124-4.92-.239a8.6,8.6,0,0,1-2.025-.293,9.782,9.782,0,0,1,2.043,0l4.91.106h4.911a10.584,10.584,0,0,1,2.042.107Z" transform="translate(-3254.548 -15691.288)" fill="#344154"/>
        <path id="Trazado_128875" data-name="Trazado 128875" d="M3373.56,15761.109a8.058,8.058,0,0,1,.773-1.775l.959-1.9a3.607,3.607,0,0,0,.666-2.318c-.329-1.775-.648-3.463-.835-4.652a9.18,9.18,0,0,1-.213-1.963,7.885,7.885,0,0,1,.533,1.9c.275,1.189.64,2.807.968,4.654a2.333,2.333,0,0,1-.16,1.43,11.48,11.48,0,0,1-.586,1.145q-.559.987-1.039,1.865a8.508,8.508,0,0,1-1.066,1.615Z" transform="translate(-3253.228 -15693.293)" fill="#344154"/>
        <path id="Trazado_128876" data-name="Trazado 128876" d="M3331.993,15917.133v-9.146l16.4-.106.142,13.692-1.021.071c-4.529.293-23.026.888-26.063-.08C3318.061,15920.508,3331.993,15917.133,3331.993,15917.133Z" transform="translate(-3247.332 -15711.146)" fill="#d9a171"/>
        <path id="Trazado_128877" data-name="Trazado 128877" d="M3321.08,15922.265c0,.15,6.136.274,13.71.274s13.7-.124,13.7-.274-6.136-.285-13.7-.285S3321.08,15922.176,3321.08,15922.265Z" transform="translate(-3247.35 -15712.725)" fill="#344154"/>
        <path id="Trazado_128878" data-name="Trazado 128878" d="M3332.9,15920.188c.133-.07,0-.559-.329-1.029s-.781-.737-.888-.631.115.515.435.959S3332.77,15920.276,3332.9,15920.188Z" transform="translate(-3248.535 -15712.335)" fill="#344154"/>
        <path id="Trazado_128879" data-name="Trazado 128879" d="M3331.731,15920.848c.142-.053.071-.595-.249-1.172s-.746-.889-.888-.817.089.56.382,1.093S3331.572,15920.848,3331.731,15920.848Z" transform="translate(-3248.411 -15712.374)" fill="#344154"/>
        <path id="Trazado_128880" data-name="Trazado 128880" d="M3346.388,15921.9c.062,0,.3-.2.657-.6a11.1,11.1,0,0,1,1.439-1.438,3.767,3.767,0,0,1,1.776-.773c.5-.071.826,0,.888-.071s-.284-.293-.888-.328a3.28,3.28,0,0,0-2.105.728,5.97,5.97,0,0,0-1.412,1.652C3346.45,15921.451,3346.326,15921.807,3346.388,15921.9Z" transform="translate(-3250.183 -15712.355)" fill="#344154"/>
        <path id="Trazado_128881" data-name="Trazado 128881" d="M3333,15918.395c-.08.124.2.444.666.622s.888.106.888-.045-.311-.328-.719-.479S3333.087,15918.3,3333,15918.395Z" transform="translate(-3248.684 -15712.317)" fill="#344154"/>
        <path id="Trazado_128882" data-name="Trazado 128882" d="M3333.3,15917.367c0,.15.417.285.977.293s.995-.105.977-.266-.444-.285-.977-.293S3333.309,15917.277,3333.3,15917.367Z" transform="translate(-3248.719 -15712.179)" fill="#344154"/>
        <path id="Trazado_128883" data-name="Trazado 128883" d="M3370.993,15917.133v-9.146l16.4-.106.142,13.692-1.021.071c-4.52.293-23.026.888-26.062-.08C3357.061,15920.508,3370.993,15917.133,3370.993,15917.133Z" transform="translate(-3251.701 -15711.146)" fill="#d9a171"/>
        <path id="Trazado_128884" data-name="Trazado 128884" d="M3360.09,15922.265c0,.15,6.136.274,13.7.274s13.7-.124,13.7-.274-6.127-.285-13.7-.285S3360.09,15922.176,3360.09,15922.265Z" transform="translate(-3251.72 -15712.725)" fill="#344154"/>
        <path id="Trazado_128885" data-name="Trazado 128885" d="M3371.9,15920.188c.142-.07,0-.559-.329-1.029s-.781-.737-.888-.631.115.515.435.959S3371.77,15920.276,3371.9,15920.188Z" transform="translate(-3252.904 -15712.335)" fill="#344154"/>
        <path id="Trazado_128886" data-name="Trazado 128886" d="M3370.74,15920.848c.142-.053.062-.595-.258-1.172s-.746-.889-.888-.817.089.56.381,1.093S3370.571,15920.848,3370.74,15920.848Z" transform="translate(-3252.78 -15712.374)" fill="#344154"/>
        <path id="Trazado_128887" data-name="Trazado 128887" d="M3385.388,15921.9c.062,0,.311-.2.666-.6a10.394,10.394,0,0,1,1.438-1.439,3.769,3.769,0,0,1,1.776-.772c.5-.071.826,0,.888-.071s-.275-.293-.888-.328a3.28,3.28,0,0,0-2.105.728,5.973,5.973,0,0,0-1.412,1.652C3385.45,15921.451,3385.326,15921.807,3385.388,15921.9Z" transform="translate(-3254.552 -15712.355)" fill="#344154"/>
        <path id="Trazado_128888" data-name="Trazado 128888" d="M3372,15918.395c-.08.124.2.444.666.622s.888.106.888-.045-.311-.328-.719-.479S3372.087,15918.3,3372,15918.395Z" transform="translate(-3253.052 -15712.317)" fill="#344154"/>
        <path id="Trazado_128889" data-name="Trazado 128889" d="M3372.3,15917.367c0,.15.417.285.977.293s.995-.105.986-.266-.453-.285-.977-.293A1.382,1.382,0,0,0,3372.3,15917.367Z" transform="translate(-3253.087 -15712.179)" fill="#344154"/>
        <path id="Trazado_128890" data-name="Trazado 128890" d="M3420.51,15774.41c-.888-7.184-1.838-11.818-1.838-11.818l-15.638.239s1.4,7.894.968,10.007c-.373,1.848-30.556,3.064-38.423,3.188-.462-.347-1.146.239-1.776-.285a6.515,6.515,0,0,1-1.34-1.65,9.833,9.833,0,0,1-1.075-2.443.8.8,0,0,0-1.492-.336c-.319.674,0,2.911,1.528,5.078s-2.416,1.038-3.854.657-5.923-1.359-6.394-1c-.675.524-.249,1.368,1.19,1.724s5.692,1.7,5.461,2.469-7.5-1.3-7.5-1.3-1.492-.7-1.776.178c-.542,1.581,7.353,3.188,8.107,3.321.524.089.3.889-.257.809s-7.21-2.229-7.779-.622c-.426,1.234,6.482,1.376,7.628,2.6s-5.23-.666-5.594.532c-.133.444,2.513.649,6.322,1.182a96.685,96.685,0,0,0,11.784.427c8.88.479,40.093,1.127,46.771.657C3423.325,15787.463,3420.8,15776.9,3420.51,15774.41Z" transform="translate(-3250.424 -15694.872)" fill="#ffbe9d"/>
        <path id="Trazado_128891" data-name="Trazado 128891" d="M3346.48,15804.255a233.662,233.662,0,0,1,40.51-.515l-17.121,24.589-15.451.063-3.232,75.541H3330.7l1.953-84.261A15.922,15.922,0,0,1,3346.48,15804.255Z" transform="translate(-3248.428 -15699.408)" fill="#344154"/>
        <path id="Trazado_128892" data-name="Trazado 128892" d="M3346.48,15804.255a233.662,233.662,0,0,1,40.51-.515l-17.121,24.589-15.451.063-3.232,75.541H3330.7l1.953-84.261A15.922,15.922,0,0,1,3346.48,15804.255Z" transform="translate(-3248.428 -15699.408)" fill="#344154" opacity="0.2"/>
        <path id="Trazado_128893" data-name="Trazado 128893" d="M3387.795,15830.3s30.609,2.077,29.845-25.406c0,0-42.562-5.177-50.713,3.605-6.837,7.361-.586,95.468-.586,95.468l22.759-1.11" transform="translate(-3252.127 -15699.44)" fill="#344154"/>
        <path id="Trazado_128894" data-name="Trazado 128894" d="M3394.153,15803.385a2.234,2.234,0,0,1-.6,0l-1.776.071c-1.5.063-3.667.187-6.349.382l-4.377.337c-1.572.151-3.259.284-4.982.595a31.843,31.843,0,0,0-5.328,1.455,7.645,7.645,0,0,0-4.439,3.554,18.848,18.848,0,0,0-1.519,5.683,54.855,54.855,0,0,0-.382,5.541c-.08,3.553-.249,6.749-.364,9.439s-.2,4.8-.257,6.35c0,.719-.044,1.288-.062,1.731a.3.3,0,1,1-.044,0v-1.751c0-1.5,0-3.676.107-6.366s.2-5.888.266-9.431a51.206,51.206,0,0,1,.364-5.586,18.747,18.747,0,0,1,1.545-5.834,6.316,6.316,0,0,1,2.016-2.38,11.709,11.709,0,0,1,2.664-1.386,32.458,32.458,0,0,1,5.417-1.447c1.776-.3,3.463-.426,5.035-.559s3.055-.213,4.4-.284c2.664-.15,4.857-.222,6.367-.239h1.731a3.23,3.23,0,0,1,.577.123Z" transform="translate(-3252.118 -15699.427)" fill="#5e6178"/>
        <path id="Trazado_128895" data-name="Trazado 128895" d="M3389.585,15909a3.26,3.26,0,0,1-.888.143c-.577.053-1.43.123-2.478.2-2.087.15-4.982.318-8.178.479s-6.092.285-8.187.346c-1.048,0-1.9.053-2.487.053a3.3,3.3,0,0,1-.888,0,3.9,3.9,0,0,1,.888-.133c.586-.061,1.43-.123,2.478-.193,2.087-.15,4.982-.32,8.178-.488s6.092-.275,8.187-.346h2.486a3.657,3.657,0,0,1,.888-.055Z" transform="translate(-3252.435 -15711.269)" fill="#5e6178"/>
        <path id="Trazado_128896" data-name="Trazado 128896" d="M3351.842,15910.071c0,.124-4.751.23-10.656.23s-10.656-.106-10.656-.23,4.76-.23,10.656-.23S3351.842,15909.982,3351.842,15910.071Z" transform="translate(-3248.409 -15711.365)" fill="#5e6178"/>
        <path id="Trazado_128897" data-name="Trazado 128897" d="M3362.535,15814.529a1.335,1.335,0,0,1-.258,0l-.755-.062c-.657-.062-1.634-.143-2.895-.2a43.629,43.629,0,0,0-4.591,0,25.211,25.211,0,0,0-2.842.291,8.7,8.7,0,0,0-2.992.96,2.554,2.554,0,0,0-1.119,1.154,12.593,12.593,0,0,0-.577,1.688,29.536,29.536,0,0,0-.737,3.736c-.258,2.665-.489,5.463-.7,8.438-.426,5.958-.737,12.511-.986,19.394-.462,13.781-.986,26.248-1.359,35.28-.2,4.483-.355,8.125-.471,10.655-.071,1.234-.115,2.212-.151,2.9a3.084,3.084,0,0,1-.053.755,1.237,1.237,0,0,1,0,.257,1.237,1.237,0,0,1,0-.257v-.756c0-.7,0-1.669.071-2.913.071-2.557.186-6.216.32-10.655.32-9.058.755-21.517,1.225-35.28.249-6.882.577-13.444,1.021-19.4q.337-4.44.746-8.463a27.49,27.49,0,0,1,.781-3.782,10.774,10.774,0,0,1,.6-1.778,2.884,2.884,0,0,1,1.26-1.3,9.234,9.234,0,0,1,3.117-.967,24.482,24.482,0,0,1,2.877-.256c1.536-.046,3.073,0,4.609.1,1.261.089,2.238.205,2.9.284l.755.115a.713.713,0,0,1,.2.053Z" transform="translate(-3249.698 -15700.626)" fill="#5e6178"/>
        <path id="Trazado_128898" data-name="Trazado 128898" d="M3414.145,15804.5a.885.885,0,0,1,0,.311,5.373,5.373,0,0,1-.115.889,10.113,10.113,0,0,1-8.658,8.223,34.058,34.058,0,0,1-3.943.115h-16.623a6.706,6.706,0,0,0-2.522.6,6.815,6.815,0,0,0-3.552,3.861,7.435,7.435,0,0,0-.409,2.754v15.184c0,16.766-.053,31.967-.071,42.961,0,5.471-.053,9.918-.071,13.018v4.75a1.809,1.809,0,0,1,0-.309v-4.441c0-3.1,0-7.547-.071-13.018,0-11.02,0-26.2-.071-42.961v-15.148a7.909,7.909,0,0,1,.453-2.9,7.237,7.237,0,0,1,3.809-4.1,7.1,7.1,0,0,1,2.664-.631h7.672l8.987.053a35.565,35.565,0,0,0,3.9-.08,10.115,10.115,0,0,0,7.308-4.715,10.561,10.561,0,0,0,1.305-3.25c.08-.391.115-.693.151-.887a.256.256,0,0,0-.142-.273Z" transform="translate(-3253.73 -15699.565)" fill="#5e6178"/>
        <path id="Trazado_128899" data-name="Trazado 128899" d="M3391.113,15826.8a26.641,26.641,0,0,1-.4,7.024A30.77,30.77,0,0,1,3391.113,15826.8Z" transform="translate(-3255.144 -15702.063)" fill="#5e6178"/>
        <path id="Trazado_128900" data-name="Trazado 128900" d="M3247.986,15768.711s-.986-7.841-.213-7.841,1.252,7.841,1.252,7.841h-1.3" transform="translate(-3239.106 -15694.679)" fill="#344154"/>
        <path id="Trazado_128901" data-name="Trazado 128901" d="M3250.866,15768.711s-.986-7.841-.2-7.841,1.243,7.841,1.243,7.841h-1.3" transform="translate(-3239.429 -15694.679)" fill="#d9a171"/>
        <path id="Trazado_128902" data-name="Trazado 128902" d="M3250.866,15768.711s-.986-7.841-.2-7.841,1.243,7.841,1.243,7.841h-1.3" transform="translate(-3239.429 -15694.679)" fill="#344154" opacity="0.3"/>
        <path id="Trazado_128903" data-name="Trazado 128903" d="M3255.276,15768.711s-.986-7.841-.2-7.841,1.243,7.841,1.243,7.841h-1.3" transform="translate(-3239.923 -15694.679)" fill="#344154"/>
        <path id="Trazado_128904" data-name="Trazado 128904" d="M3252.728,15769.217s0-7.894.781-7.8.249,7.93.249,7.93l-1.287-.16" transform="translate(-3239.666 -15694.74)" fill="#5e6178"/>
        <path id="Trazado_128905" data-name="Trazado 128905" d="M3250,15768.711s-.986-7.841-.2-7.841,1.243,7.841,1.243,7.841h-1.3" transform="translate(-3239.332 -15694.679)" fill="#d9a171"/>
        <path id="Trazado_128906" data-name="Trazado 128906" d="M3250,15768.711s-.986-7.841-.2-7.841,1.243,7.841,1.243,7.841h-1.3" transform="translate(-3239.332 -15694.679)" fill="#6595bf" stroke="#5e6178" stroke-miterlimit="10" stroke-width="0" opacity="0.5"/>
        <path id="Trazado_128907" data-name="Trazado 128907" d="M3618.706,15994.743l-1.306-12.343h10.46v12.343Z" transform="translate(-3609.985 -15908.332)" fill="#d9a171"/>
        <path id="Trazado_128908" data-name="Trazado 128908" d="M3840.186,15996.3H3609.05v6.216h12.361l-6.4,117.748h3.525l6.4-117.748h202.64l5.461,117.748,3.9.177-5.834-117.925h9.084Z" transform="translate(-3609.05 -15909.889)" fill="#344154"/>
        <path id="Trazado_128909" data-name="Trazado 128909" d="M3694.26,15955.3l12.823,37.473h58.039l-.435-1.953-23.47-.711-10.807-34.809Z" transform="translate(-3618.594 -15905.298)" fill="#344154"/>
        <path id="Trazado_128910" data-name="Trazado 128910" d="M3351.671,15762.116c.382,1.536-.275,3.036-1.474,3.356s-2.469-.666-2.85-2.2.275-3.037,1.465-3.357S3351.289,15760.606,3351.671,15762.116Z" transform="translate(-3250.28 -15694.564)" fill="#6595bf" stroke="#5e6178" stroke-miterlimit="10" stroke-width="0"/>
        <path id="Trazado_128911" data-name="Trazado 128911" d="M3475.768,15770.527a5.34,5.34,0,0,0-3.552-1.029v-1.127h-19.687s-.613,12.973,9.315,13.436c4.44.2,7-1.777,8.454-4.3a9.887,9.887,0,0,0,2.22.275,5.145,5.145,0,0,0,3.1-.891,3.888,3.888,0,0,0,1.474-3.318A3.792,3.792,0,0,0,3475.768,15770.527Zm-1.341,4.822a4.736,4.736,0,0,1-3.321.355,17.583,17.583,0,0,0,.959-4.264,3.694,3.694,0,0,1,2.46.57,1.935,1.935,0,0,1,.595,1.572,2.029,2.029,0,0,1-.7,1.773Z" transform="translate(-3262.073 -15695.52)" fill="#d9a171"/>
        <path id="Trazado_128912" data-name="Trazado 128912" d="M3470.58,15763.221a2.776,2.776,0,0,1-.471-.55,5.384,5.384,0,0,1-.808-1.918,5.582,5.582,0,0,1,.293-3.278,10.85,10.85,0,0,1,2.752-3.366,8.072,8.072,0,0,0,2.487-4.439,7.616,7.616,0,0,0-1.057-5.629,7.994,7.994,0,0,0-2.184-2.272,11.627,11.627,0,0,0-3.037-1.358,9.136,9.136,0,0,1-3.205-1.619,4.5,4.5,0,0,1-1.137-1.5,2.947,2.947,0,0,1-.239-1.927l.08-.266.293.293a3.055,3.055,0,0,0-1.776,2.664,6.268,6.268,0,0,0,.728,3.251c.488,1.021,1.092,1.979,1.527,3.019a6.425,6.425,0,0,1,.621,3.251,4.6,4.6,0,0,1-1.456,2.8,9.239,9.239,0,0,1-2.469,1.642c-1.723.781-3.419,1.243-4.769,2.051a6.741,6.741,0,0,0-2.77,3.071,7.62,7.62,0,0,0-.666,3.1,8.557,8.557,0,0,0,.515,2.664s0-.054-.089-.16a3.351,3.351,0,0,1-.213-.487,6.315,6.315,0,0,1-.391-2.025,7.537,7.537,0,0,1,.613-3.215,6.858,6.858,0,0,1,2.832-3.242,47.074,47.074,0,0,1,4.778-2.121,8.711,8.711,0,0,0,2.335-1.581,4.2,4.2,0,0,0,1.323-2.558,5.944,5.944,0,0,0-.595-3.029c-.426-.993-1.03-1.952-1.536-3.009a6.546,6.546,0,0,1-.773-3.489,4.233,4.233,0,0,1,.6-1.777,2.93,2.93,0,0,1,1.492-1.226l.418-.141-.124.436-.062.222a3.225,3.225,0,0,0,1.225,2.985,8.864,8.864,0,0,0,3.046,1.517,12.171,12.171,0,0,1,3.143,1.431,8.219,8.219,0,0,1,2.291,2.406,7.992,7.992,0,0,1,1.075,5.932,8.455,8.455,0,0,1-2.664,4.563,10.813,10.813,0,0,0-2.745,3.241,5.417,5.417,0,0,0-.355,3.136,5.961,5.961,0,0,0,1.12,2.512Z" transform="translate(-3262.142 -15691.764)" fill="#344154"/>
        <path id="Trazado_128913" data-name="Trazado 128913" d="M3639.486,15958.926l-.115-8.524,29.756,2.485.844,7.637Z" transform="translate(-3612.446 -15904.749)" fill="#344154"/>
        <path id="Trazado_128914" data-name="Trazado 128914" d="M3272.129,15746.443a20.048,20.048,0,0,1-.4-4.183,19.537,19.537,0,0,1,.071-4.2,19.459,19.459,0,0,1,.39,4.18,18.99,18.99,0,0,1-.062,4.2Z" transform="translate(-3241.813 -15692.124)" fill="#5e6178"/>
        <path id="Trazado_128915" data-name="Trazado 128915" d="M3273.425,15738.2a19.227,19.227,0,0,1,.32,4.166,18.28,18.28,0,0,1-.142,4.182,19.364,19.364,0,0,1-.32-4.175,18.75,18.75,0,0,1,.142-4.172Z" transform="translate(-3241.99 -15692.14)" fill="#5e6178"/>
        <path id="Trazado_128916" data-name="Trazado 128916" d="M3276.5,15742.4c5.186.567,11.277.888,16.552,1.367" transform="translate(-3242.357 -15692.61)" fill="#6595bf" stroke="#5e6178" stroke-miterlimit="10" stroke-width="0"/>
        <path id="Trazado_128917" data-name="Trazado 128917" d="M3293.048,15743.61a14.059,14.059,0,0,1-2.433,0c-1.51-.071-3.552-.205-5.861-.373s-4.36-.364-5.852-.542a1.225,1.225,0,1,1,0-.329l5.852.408c2.291.17,4.36.347,5.852.516A11.694,11.694,0,0,1,3293.048,15743.61Z" transform="translate(-3242.353 -15692.487)" fill="#5e6178"/>
        <path id="Trazado_128918" data-name="Trazado 128918" d="M3297.532,15747.843a31.082,31.082,0,0,1-.373-7.593A31.1,31.1,0,0,1,3297.532,15747.843Z" transform="translate(-3244.661 -15692.369)" fill="#5e6178"/>
        <path id="Trazado_128919" data-name="Trazado 128919" d="M3299.6,15747.941a16.091,16.091,0,0,1-.6-3.783,15.786,15.786,0,0,1-.142-3.826,16.542,16.542,0,0,1,.6,3.781,16.229,16.229,0,0,1,.142,3.826Z" transform="translate(-3244.854 -15692.379)" fill="#5e6178"/>
        <path id="Trazado_128920" data-name="Trazado 128920" d="M3281.47,15744.5c3.277.222,5.772.381,8.383.443" transform="translate(-3242.914 -15692.846)" fill="#6595bf" stroke="#5e6178" stroke-miterlimit="10" stroke-width="0"/>
        <path id="Trazado_128921" data-name="Trazado 128921" d="M3289.853,15744.928a18.475,18.475,0,0,1-4.2,0,19.493,19.493,0,0,1-4.182-.45,18.359,18.359,0,0,1,4.2,0,19.625,19.625,0,0,1,4.183.452Z" transform="translate(-3242.914 -15692.829)" fill="#5e6178"/>
        <path id="Trazado_128922" data-name="Trazado 128922" d="M3645.878,15995.337l-.808-8.437,29.854.089,1.625,8.258Z" transform="translate(-3613.085 -15908.836)" fill="#d9a171"/>
        <path id="Trazado_128923" data-name="Trazado 128923" d="M3645.878,15995.337l-.808-8.437,29.854.089,1.625,8.258Z" transform="translate(-3613.085 -15908.836)" fill="#6595bf" stroke="#5e6178" stroke-miterlimit="10" stroke-width="0" opacity="0.5"/>
        <rect id="Rectángulo_12985" data-name="Rectángulo 12985" width="1.527" height="18.674" transform="translate(38.796 82.97) rotate(-89.9)" fill="#344154"/>
        <path id="Trazado_128924" data-name="Trazado 128924" d="M3641.149,15986.636l-.719-8.436,29.854.354,1.394,7.548Z" transform="translate(-3612.565 -15907.861)" fill="#344154"/>
        <path id="Trazado_128925" data-name="Trazado 128925" d="M3640.54,15979.5l.47,5.684,29.037-.268-.924-5.238Z" transform="translate(-3612.577 -15908.007)" fill="#6595bf" stroke="#5e6178" stroke-miterlimit="10" stroke-width="0"/>
        <path id="Trazado_128926" data-name="Trazado 128926" d="M3296.639,15769.63a4.6,4.6,0,0,1-1.048.07h-2.859c-2.415,0-5.745,0-9.422-.088s-7.006-.151-9.422-.231l-2.851-.124a4.152,4.152,0,0,1-1.048-.106,4.6,4.6,0,0,1,1.048-.071h2.859c2.406,0,5.736,0,9.422.089s7.006.15,9.422.23l2.851.124a4.067,4.067,0,0,1,1.048.105Z" transform="translate(-3241.628 -15695.598)" fill="#344154"/>
        <path id="Trazado_128927" data-name="Trazado 128927" d="M3296.618,15770.49a4.272,4.272,0,0,1-1.057.106l-2.877.115c-2.424.08-5.781.15-9.484.205s-7.1.07-9.493.062h-2.842a4.217,4.217,0,0,1-1.057-.08,5.333,5.333,0,0,1,1.057-.105l2.877-.116c2.424-.07,5.781-.142,9.484-.194s7.1-.08,9.492-.071h2.877A5.116,5.116,0,0,1,3296.618,15770.49Z" transform="translate(-3241.607 -15695.747)" fill="#344154"/>
        <path id="Trazado_128928" data-name="Trazado 128928" d="M3641.669,15977.536l-.559-8.436,29.845.978,1.243,7.458Z" transform="translate(-3612.641 -15906.843)" fill="#5e6178"/>
        <path id="Trazado_128929" data-name="Trazado 128929" d="M3643,15976.617l29.046-.355-.808-5.328-28.78-.532Z" transform="translate(-3612.792 -15906.989)" fill="#6595bf" stroke="#5e6178" stroke-miterlimit="10" stroke-width="0"/>
        <path id="Trazado_128930" data-name="Trazado 128930" d="M3642.625,15968.225l-.275-8.523,29.792,1.953.995,7.549Z" transform="translate(-3612.78 -15905.79)" fill="#d9a171"/>
        <rect id="Rectángulo_12986" data-name="Rectángulo 12986" width="1.527" height="18.71" transform="translate(35.77 56.838) rotate(-86.57)" fill="#344154"/>
        <path id="Trazado_128931" data-name="Trazado 128931" d="M3300.543,15760.78a5.99,5.99,0,0,1-1.136.088l-3.108.089c-2.664.054-6.216.089-10.247.107s-7.628,0-10.256,0l-3.1-.062a5.628,5.628,0,0,1-1.146-.088,5.41,5.41,0,0,1,1.137-.09l3.108-.088c2.664-.053,6.216-.089,10.256-.106s7.628,0,10.247,0l3.108.063a4.875,4.875,0,0,1,1.136.087Z" transform="translate(-3241.802 -15694.651)" fill="#344154"/>
        <path id="Trazado_128932" data-name="Trazado 128932" d="M3300.907,15762.635a5.572,5.572,0,0,1-1.154.071h-3.126c-2.664,0-6.3,0-10.327-.08s-7.672-.124-10.318-.2l-3.126-.115a6.18,6.18,0,0,1-1.147-.107,5.068,5.068,0,0,1,1.146-.079h3.126c2.664,0,6.3,0,10.327.071s7.681.133,10.327.213l3.126.115a4.966,4.966,0,0,1,1.146.116Z" transform="translate(-3241.82 -15694.818)" fill="#344154"/>
      </g>
    </g>
  </g>
</svg>
