<svg xmlns="http://www.w3.org/2000/svg" width="400" height="274.837" viewBox="0 0 400 274.837">
  <g id="Grupo_70424" data-name="Grupo 70424" transform="translate(-1020 -8839)">
    <g id="Grupo_70210" data-name="Grupo 70210" transform="translate(1020 8839)">
      <g id="Grupo_67715" data-name="Grupo 67715">
        <rect id="Rectángulo_31331" data-name="Rectángulo 31331" width="400" height="274.837" fill="none"/>
      </g>
    </g>
    <g id="Grupo_70423" data-name="Grupo 70423" transform="translate(1105 8865.108)">
      <rect id="Rectángulo_14100" data-name="Rectángulo 14100" width="251.066" height="195.359" transform="translate(0.3 15.936)" fill="#6595bf"/>
      <path id="Trazado_134193" data-name="Trazado 134193" d="M6888.743,3167.838c-.123,0-.212-21.237-.212-47.425s.089-47.433.212-47.433.213,21.238.213,47.433S6888.914,3167.838,6888.743,3167.838Z" transform="translate(-6819.422 -2972.953)" fill="#344154"/>
      <path id="Trazado_134194" data-name="Trazado 134194" d="M7022.154,3167.838c-.121,0-.212-21.237-.212-47.425s.091-47.433.212-47.433.213,21.238.213,47.433S7022.268,3167.838,7022.154,3167.838Z" transform="translate(-6843.86 -2972.953)" fill="#344154"/>
      <path id="Trazado_134195" data-name="Trazado 134195" d="M6934.293,3161.916c-.114,0-.212-27.143-.212-60.625s.1-60.64.212-60.64.212,27.142.212,60.64S6934.416,3161.916,6934.293,3161.916Z" transform="translate(-6827.766 -2967.031)" fill="#344154"/>
      <path id="Trazado_134196" data-name="Trazado 134196" d="M6841.953,3161.916c-.122,0-.213-27.143-.213-60.625s.091-60.64.213-60.64.212,27.142.212,60.64S6842.1,3161.916,6841.953,3161.916Z" transform="translate(-6810.849 -2967.031)" fill="#344154"/>
      <path id="Trazado_134197" data-name="Trazado 134197" d="M7074.5,3161.916c-.113,0-.212-27.143-.212-60.625s.1-60.64.212-60.64.213,27.142.213,60.64S7074.626,3161.916,7074.5,3161.916Z" transform="translate(-6853.448 -2967.031)" fill="#344154"/>
      <path id="Trazado_134198" data-name="Trazado 134198" d="M6974.233,3157.709c-.123,0-.213-31.341-.213-70s.09-70.018.213-70.018.212,31.342.212,70.018S6974.348,3157.709,6974.233,3157.709Z" transform="translate(-6835.081 -2962.824)" fill="#344154"/>
      <path id="Trazado_134199" data-name="Trazado 134199" d="M6889.5,3072.8a.891.891,0,1,1-.891-.891h0A.89.89,0,0,1,6889.5,3072.8Z" transform="translate(-6819.272 -2972.757)" fill="#344154"/>
      <circle id="Elipse_4660" data-name="Elipse 4660" cx="0.89" cy="0.89" r="0.89" transform="translate(105.637 72.729)" fill="#344154"/>
      <path id="Trazado_134200" data-name="Trazado 134200" d="M6933.641,3043.071a3.12,3.12,0,1,1,3.12-3.12A3.12,3.12,0,0,1,6933.641,3043.071Zm0-6.036a2.916,2.916,0,1,0,2.916,2.916A2.916,2.916,0,0,0,6933.641,3037.035Z" transform="translate(-6827.113 -2966.331)" fill="#344154"/>
      <circle id="Elipse_4661" data-name="Elipse 4661" cx="0.89" cy="0.89" r="0.89" transform="translate(138.261 53.975)" fill="#344154"/>
      <circle id="Elipse_4662" data-name="Elipse 4662" cx="0.89" cy="0.89" r="0.89" transform="translate(177.403 100.027)" fill="#344154"/>
      <path id="Trazado_134201" data-name="Trazado 134201" d="M6842.722,3041.541a.89.89,0,1,1-.891-.891h0a.883.883,0,0,1,.883.882Z" transform="translate(-6810.704 -2967.031)" fill="#344154"/>
      <path id="Trazado_134202" data-name="Trazado 134202" d="M7036.667,3088.1a3.759,3.759,0,0,1-.7.229,14.578,14.578,0,0,0-2.018.694,19.378,19.378,0,0,0-6.485,4.9,123.4,123.4,0,0,0-7.907,10.406,52.093,52.093,0,0,1-5.375,6.241,30.924,30.924,0,0,1-3.487,2.883,24.994,24.994,0,0,1-4.207,2.3,23.7,23.7,0,0,1-10.063,1.691,26.826,26.826,0,0,1-5.414-.678,14.063,14.063,0,0,1-5.244-2.3,16.948,16.948,0,0,1-4.086-4.272c-1.127-1.634-2.139-3.365-3.119-5.121-1.96-3.537-3.985-7.1-6.3-10.676s-4.369-7.433-6.713-11.19a53.475,53.475,0,0,0-8.227-10.619,24.149,24.149,0,0,0-5.521-3.954,18.326,18.326,0,0,0-6.534-1.919,22.973,22.973,0,0,0-13.6,2.908,34.322,34.322,0,0,0-10.358,9.662,106.5,106.5,0,0,0-7.408,11.9,121.068,121.068,0,0,1-7.171,11.673,56.882,56.882,0,0,1-8.683,9.892c-.817.71-1.634,1.38-2.516,2.009a28.907,28.907,0,0,1-2.672,1.739,23.2,23.2,0,0,1-5.782,2.385,21.212,21.212,0,0,1-3.023.564,10.511,10.511,0,0,1-1.518.082h-1.512a23.333,23.333,0,0,1-5.792-1.078,39.222,39.222,0,0,1-9.8-5.114c-2.908-2-5.562-4.084-8.168-5.946a42.825,42.825,0,0,0-7.752-4.7,25.937,25.937,0,0,0-7.719-2.2,19.071,19.071,0,0,0-6.936.45,10.735,10.735,0,0,0-1.5.482,9.456,9.456,0,0,0-1.405.555,18.841,18.841,0,0,0-2.451,1.356,26.839,26.839,0,0,0-3.684,2.949l-1.281,1.4a10.069,10.069,0,0,0-1.03,1.2l-1.3,1.707a4.146,4.146,0,0,1-.481.564,2.743,2.743,0,0,1,.375-.637l1.2-1.789a11.337,11.337,0,0,1,.988-1.25l1.259-1.462a25.2,25.2,0,0,1,3.683-3.1,18.257,18.257,0,0,1,2.45-1.437,8.107,8.107,0,0,1,1.431-.6,11.047,11.047,0,0,1,1.543-.531,19.46,19.46,0,0,1,7.172-.571,26.3,26.3,0,0,1,7.972,2.165,43.776,43.776,0,0,1,7.956,4.7c2.63,1.863,5.3,3.913,8.168,5.865a38.324,38.324,0,0,0,9.557,4.9,21.85,21.85,0,0,0,5.521.988h1.4a9.364,9.364,0,0,0,1.43-.09,19,19,0,0,0,2.858-.547,26.072,26.072,0,0,0,10.521-5.881,56.114,56.114,0,0,0,8.462-9.712,122.79,122.79,0,0,0,7.081-11.558,105.59,105.59,0,0,1,7.474-12.047,35.642,35.642,0,0,1,10.75-10.014,24.408,24.408,0,0,1,14.343-3.064,19.492,19.492,0,0,1,7,2.067,24.733,24.733,0,0,1,5.808,4.166,55.021,55.021,0,0,1,8.4,10.872c2.354,3.8,4.444,7.629,6.674,11.215s4.354,7.229,6.281,10.749,3.864,6.968,6.854,9.083a13.084,13.084,0,0,0,4.9,2.173,26.529,26.529,0,0,0,5.2.686,22.952,22.952,0,0,0,9.687-1.544,23.592,23.592,0,0,0,4.085-2.173,29.849,29.849,0,0,0,3.414-2.761,50.044,50.044,0,0,0,5.366-6.085,122.316,122.316,0,0,1,8.12-10.309,18.787,18.787,0,0,1,6.747-4.819,10.783,10.783,0,0,1,2.082-.58A3.921,3.921,0,0,1,7036.667,3088.1Z" transform="translate(-6807.184 -2971.56)" fill="#d9a171"/>
      <rect id="Rectángulo_14101" data-name="Rectángulo 14101" width="43.773" height="2.434" transform="translate(30.246 37.86)" fill="#344154"/>
      <rect id="Rectángulo_14102" data-name="Rectángulo 14102" width="21.629" height="2.434" transform="translate(30.246 43.561)" fill="#344154"/>
      <path id="Trazado_134203" data-name="Trazado 134203" d="M6807.6,2950.521h244a3.684,3.684,0,0,1,3.685,3.683h0v12.252H6803.921V2954.2a3.684,3.684,0,0,1,3.683-3.684Z" transform="translate(-6803.921 -2950.52)" fill="#344154"/>
      <path id="Trazado_134204" data-name="Trazado 134204" d="M6819.1,2960.266a1.716,1.716,0,1,1-1.715-1.715A1.715,1.715,0,0,1,6819.1,2960.266Z" transform="translate(-6806.074 -2951.992)" fill="#6595bf"/>
      <path id="Trazado_134205" data-name="Trazado 134205" d="M6828.232,2960.266a1.716,1.716,0,1,1-1.716-1.715A1.716,1.716,0,0,1,6828.232,2960.266Z" transform="translate(-6807.747 -2951.992)" fill="#6595bf"/>
      <path id="Trazado_134206" data-name="Trazado 134206" d="M6837.432,2960.266a1.715,1.715,0,1,1-1.715-1.715A1.715,1.715,0,0,1,6837.432,2960.266Z" transform="translate(-6809.433 -2951.992)" fill="#6595bf"/>
      <rect id="Rectángulo_14148" data-name="Rectángulo 14148" width="93.117" height="26.106" rx="3.23" transform="translate(92.855 24.357)" fill="#d9a171"/>
      <path id="Trazado_134229" data-name="Trazado 134229" d="M6939.364,2999.58a5.677,5.677,0,1,1-.874-7.98h0a5.716,5.716,0,0,1,.874,7.981Z" transform="translate(-6826.883 -2957.816)" fill="#6595bf"/>
      <path id="Trazado_134230" data-name="Trazado 134230" d="M6934.934,3001.759a5.717,5.717,0,0,1-.614-11.353,4.049,4.049,0,0,1,.63,0,5.718,5.718,0,0,1,5.66,5.776,5.8,5.8,0,0,1-1.225,3.479h0a5.656,5.656,0,0,1-3.821,2.1C6935.349,3001.767,6935.138,3001.767,6934.934,3001.759Zm0-11.345a4.173,4.173,0,0,0-.63,0,5.653,5.653,0,1,0,5.032,9.157h0a5.651,5.651,0,0,0-4.4-9.188Z" transform="translate(-6826.884 -2957.823)" fill="#344154"/>
      <path id="Trazado_134231" data-name="Trazado 134231" d="M6938.569,2994.94a23.732,23.732,0,0,1-3.056,3.267l-.743.719-.155.147-.139-.147a1.724,1.724,0,1,1,.294-.294h-.294l.743-.735A24.068,24.068,0,0,1,6938.569,2994.94Z" transform="translate(-6827.327 -2958.657)" fill="#d9a171"/>
      <path id="Trazado_134232" data-name="Trazado 134232" d="M7008.613,2993.953c0,.114-11.836.213-26.433.213s-26.44-.1-26.44-.213,11.836-.212,26.44-.212S7008.613,2993.814,7008.613,2993.953Z" transform="translate(-6831.732 -2958.437)" fill="#6595bf"/>
      <path id="Trazado_134233" data-name="Trazado 134233" d="M6987.066,3000.263c0,.114-6.837.212-15.282.212s-15.283-.1-15.283-.212,6.846-.213,15.283-.213S6987.066,3000.132,6987.066,3000.263Z" transform="translate(-6831.874 -2959.593)" fill="#6595bf"/>
    </g>
    <g id="Grupo_70420" data-name="Grupo 70420" transform="translate(1024.725 8986.248)">
      <rect id="Rectángulo_14103" data-name="Rectángulo 14103" width="84.701" height="23.751" rx="3.23" transform="translate(0 0)" fill="#aed3f2"/>
      <path id="Trazado_134207" data-name="Trazado 134207" d="M6707.858,3130.249a5.161,5.161,0,1,1-.8-7.255h0a5.154,5.154,0,0,1,.806,7.241Z" transform="translate(-6690.006 -3114.418)" fill="#6595bf"/>
      <path id="Trazado_134208" data-name="Trazado 134208" d="M6707.848,3126.94a24.906,24.906,0,0,1-2.8,2.967c-.228.228-.457.449-.671.671l-.121.121-.121-.121a1.566,1.566,0,1,1,.242-.242h-.235l.671-.671A23.892,23.892,0,0,1,6707.848,3126.94Z" transform="translate(-6691.118 -3116.088)" fill="#344154"/>
      <path id="Trazado_134209" data-name="Trazado 134209" d="M6776.082,3125.785c0,.094-10.737.174-24.046.174s-24.046-.08-24.046-.174,10.738-.175,24.046-.175S6776.082,3125.684,6776.082,3125.785Z" transform="translate(-6699.649 -3115.651)" fill="#344154"/>
      <path id="Trazado_134210" data-name="Trazado 134210" d="M6756.621,3132.785c0,.094-6.228.175-13.906.175s-13.925-.081-13.925-.175,6.221-.174,13.9-.174S6756.621,3132.684,6756.621,3132.785Z" transform="translate(-6699.912 -3117.953)" fill="#344154"/>
    </g>
    <g id="Grupo_70421" data-name="Grupo 70421" transform="translate(1024.725 8919.137)">
      <rect id="Rectángulo_14104" data-name="Rectángulo 14104" width="83.506" height="34.676" rx="2.62" transform="translate(0 0)" fill="#f6f6f6"/>
      <path id="Trazado_134211" data-name="Trazado 134211" d="M6745.045,3039.933a3.892,3.892,0,1,1-3.893-3.893A3.892,3.892,0,0,1,6745.045,3039.933Z" transform="translate(-6727.697 -3028.974)" fill="#d9a171"/>
      <rect id="Rectángulo_14105" data-name="Rectángulo 14105" width="27.126" height="1.503" transform="translate(21.241 8.268)" fill="#d9a171"/>
      <rect id="Rectángulo_14106" data-name="Rectángulo 14106" width="52.763" height="1.503" transform="translate(21.241 11.691)" fill="#6595bf"/>
      <path id="Trazado_134212" data-name="Trazado 134212" d="M6745.045,3057.762a3.892,3.892,0,1,1-3.893-3.893A3.892,3.892,0,0,1,6745.045,3057.762Z" transform="translate(-6727.697 -3034.837)" fill="#d9a171"/>
      <rect id="Rectángulo_14107" data-name="Rectángulo 14107" width="13.852" height="1.503" transform="translate(21.241 20.241)" fill="#d9a171"/>
      <rect id="Rectángulo_14108" data-name="Rectángulo 14108" width="52.763" height="1.503" transform="translate(21.241 23.657)" fill="#6595bf"/>
    </g>
    <g id="Grupo_70418" data-name="Grupo 70418" transform="translate(1265.32 9005.076)">
      <rect id="Rectángulo_14113" data-name="Rectángulo 14113" width="112.337" height="108.163" rx="8.41" transform="translate(0 0)" fill="#aed3f2"/>
      <rect id="Rectángulo_14114" data-name="Rectángulo 14114" width="3.684" height="1.06" transform="translate(7.852 74.097)" fill="#344154"/>
      <rect id="Rectángulo_14115" data-name="Rectángulo 14115" width="4.718" height="1.06" transform="translate(16.194 79.782)" fill="#344154"/>
      <rect id="Rectángulo_14116" data-name="Rectángulo 14116" width="4.718" height="1.06" transform="translate(32.609 79.782)" fill="#344154"/>
      <rect id="Rectángulo_14117" data-name="Rectángulo 14117" width="4.718" height="1.06" transform="translate(49.018 79.782)" fill="#344154"/>
      <rect id="Rectángulo_14118" data-name="Rectángulo 14118" width="4.718" height="1.06" transform="translate(65.433 79.782)" fill="#344154"/>
      <rect id="Rectángulo_14119" data-name="Rectángulo 14119" width="4.718" height="1.06" transform="translate(81.848 79.782)" fill="#344154"/>
      <rect id="Rectángulo_14120" data-name="Rectángulo 14120" width="4.718" height="1.06" transform="translate(98.264 79.782)" fill="#344154"/>
      <rect id="Rectángulo_14121" data-name="Rectángulo 14121" width="3.684" height="1.06" transform="translate(7.852 59.91)" fill="#344154"/>
      <rect id="Rectángulo_14122" data-name="Rectángulo 14122" width="3.684" height="1.06" transform="translate(7.852 33.2)" fill="#344154"/>
      <rect id="Rectángulo_14123" data-name="Rectángulo 14123" width="3.684" height="1.06" transform="translate(7.852 19.784)" fill="#344154"/>
      <rect id="Rectángulo_14124" data-name="Rectángulo 14124" width="3.684" height="1.06" transform="translate(8.04 46.555)" fill="#344154"/>
      <path id="Trazado_134218" data-name="Trazado 134218" d="M7041.43,3193.765h-6.02l-16.409.054-54.132.054h-13v-.108c0-18.12.047-34.032.061-45.447,0-5.7.04-10.261.054-13.422v-4.55a2.425,2.425,0,0,1,0-.315,2.514,2.514,0,0,1,0,.315v4.55c0,3.161.033,7.724.054,13.422,0,11.409.033,27.348.06,45.447l-.174-.174h12.825l54.132.047,16.409.054h5.624Z" transform="translate(-6938.582 -3118.608)" fill="#344154"/>
      <path id="Trazado_134219" data-name="Trazado 134219" d="M7044.295,3183.085c0,.1-19.462.175-43.421.175s-43.434-.074-43.434-.175,19.462-.175,43.434-.175S7044.295,3182.971,7044.295,3183.085Z" transform="translate(-6940.415 -3135.999)" fill="#344154"/>
      <path id="Trazado_134220" data-name="Trazado 134220" d="M7044.295,3163.225c0,.094-19.462.175-43.421.175s-43.434-.081-43.434-.175,19.462-.174,43.434-.174S7044.295,3163.1,7044.295,3163.225Z" transform="translate(-6940.415 -3129.468)" fill="#344154"/>
      <path id="Trazado_134221" data-name="Trazado 134221" d="M7044.295,3143.225c0,.094-19.462.174-43.421.174s-43.434-.08-43.434-.174,19.462-.175,43.434-.175S7044.295,3143.1,7044.295,3143.225Z" transform="translate(-6940.415 -3122.89)" fill="#344154"/>
      <path id="Trazado_134222" data-name="Trazado 134222" d="M7044.295,3202.985c0,.093-19.462.174-43.421.174s-43.434-.081-43.434-.174,19.462-.175,43.434-.175S7044.295,3202.891,7044.295,3202.985Z" transform="translate(-6940.415 -3142.544)" fill="#344154"/>
      <path id="Trazado_134223" data-name="Trazado 134223" d="M6958.792,3191.366v-11.844l7.382-11.463,5.013,3.845,10.281-15.979,6.04,4.275,8.442-14.764,6.859,5.583,10.281-19.55,11.08,21.852,8.966-10.932,10.55-3.02v51.97Z" transform="translate(-6940.86 -3119.081)" fill="#d9a171"/>
      <path id="Trazado_134224" data-name="Trazado 134224" d="M7044.736,3136.954h-2.873l-8.093.041h.074l-8.67,11.368-.047.054h-.067l-21.717.034.148-.081-9.134,15.221-8.966,14.9-.127.215-.154-.2-11.758-16.181h.234l-10.737,16.724c-1.282,2.013-2.3,3.544-2.994,4.617-.335.523-.6.92-.792,1.208s-.282.4-.282.4.081-.147.249-.422l.758-1.235,2.925-4.664,10.63-16.778.107-.174.128.168c3.517,4.812,7.5,10.261,11.8,16.147h-.282l8.953-14.905,9.147-15.194.047-.081h21.811l-.107.054,8.724-11.288v-.04h.054l8.093.047h2.685Z" transform="translate(-6940.854 -3120.854)" fill="#344154"/>
      <path id="Trazado_134225" data-name="Trazado 134225" d="M6985.185,3179.916a.833.833,0,1,1-1.442-.544.824.824,0,0,1,.583-.261h0a.812.812,0,0,1,.832.792Z" transform="translate(-6948.992 -3134.75)" fill="#344154"/>
      <path id="Trazado_134226" data-name="Trazado 134226" d="M7022.474,3158.686a.835.835,0,1,1-.858-.805h0a.819.819,0,0,1,.833.805Z" transform="translate(-6961.255 -3127.768)" fill="#344154"/>
      <path id="Trazado_134227" data-name="Trazado 134227" d="M7051.489,3153.476a.839.839,0,1,1-.872-.8h.041A.818.818,0,0,1,7051.489,3153.476Z" transform="translate(-6970.795 -3126.054)" fill="#344154"/>
      <ellipse id="Elipse_4664" data-name="Elipse 4664" cx="5.389" cy="5.188" rx="5.389" ry="5.188" transform="translate(16.194 88.788)" fill="#6595bf"/>
      <rect id="Rectángulo_14125" data-name="Rectángulo 14125" width="63.299" height="1.94" transform="translate(34.965 90.499)" fill="#6595bf"/>
      <rect id="Rectángulo_14126" data-name="Rectángulo 14126" width="26.281" height="1.94" transform="translate(34.965 95.351)" fill="#6595bf"/>
    </g>
    <g id="Grupo_70417" data-name="Grupo 70417" transform="translate(1345.413 8914.557)">
      <circle id="Elipse_4663" data-name="Elipse 4663" cx="0.732" cy="0.732" r="0.732" transform="translate(18.731 34.717)" fill="#344154"/>
      <rect id="Rectángulo_14127" data-name="Rectángulo 14127" width="74.587" height="61.863" rx="4.94" transform="translate(0 0)" fill="#aed3f2"/>
      <rect id="Rectángulo_14128" data-name="Rectángulo 14128" width="4.02" height="30.354" transform="translate(13.019 24.771)" fill="#d9a171"/>
      <rect id="Rectángulo_14129" data-name="Rectángulo 14129" width="4.02" height="32.817" transform="translate(31.294 22.308)" fill="#d9a171"/>
      <rect id="Rectángulo_14130" data-name="Rectángulo 14130" width="4.02" height="36.985" transform="translate(50.219 18.14)" fill="#d9a171"/>
      <rect id="Rectángulo_14131" data-name="Rectángulo 14131" width="4.02" height="14.778" transform="translate(41.334 40.341)" fill="#d9a171"/>
      <g id="Grupo_62582" data-name="Grupo 62582" transform="translate(41.334 40.341)" opacity="0.2">
        <rect id="Rectángulo_14132" data-name="Rectángulo 14132" width="4.02" height="14.778"/>
      </g>
      <rect id="Rectángulo_14133" data-name="Rectángulo 14133" width="4.02" height="33.609" transform="translate(17.704 21.516)" fill="#d9a171"/>
      <g id="Grupo_62583" data-name="Grupo 62583" transform="translate(17.704 21.516)" opacity="0.1">
        <rect id="Rectángulo_14134" data-name="Rectángulo 14134" width="4.02" height="33.609"/>
      </g>
      <rect id="Rectángulo_14135" data-name="Rectángulo 14135" width="4.02" height="40.649" transform="translate(36.307 14.476)" fill="#d9a171"/>
      <g id="Grupo_62584" data-name="Grupo 62584" transform="translate(36.307 14.476)" opacity="0.1">
        <rect id="Rectángulo_14136" data-name="Rectángulo 14136" width="4.02" height="40.649"/>
      </g>
      <rect id="Rectángulo_14137" data-name="Rectángulo 14137" width="4.02" height="40.649" transform="translate(60.594 14.476)" fill="#d9a171"/>
      <g id="Grupo_62585" data-name="Grupo 62585" transform="translate(60.594 14.476)" opacity="0.2">
        <rect id="Rectángulo_14138" data-name="Rectángulo 14138" width="4.02" height="40.649"/>
      </g>
      <rect id="Rectángulo_14139" data-name="Rectángulo 14139" width="4.02" height="48.676" transform="translate(55.346 6.449)" fill="#d9a171"/>
      <g id="Grupo_62586" data-name="Grupo 62586" transform="translate(55.346 6.449)" opacity="0.1">
        <rect id="Rectángulo_14140" data-name="Rectángulo 14140" width="4.02" height="48.676"/>
      </g>
      <rect id="Rectángulo_14141" data-name="Rectángulo 14141" width="4.02" height="21.328" transform="translate(22.623 33.797)" fill="#d9a171"/>
      <g id="Grupo_62587" data-name="Grupo 62587" transform="translate(22.623 33.797)" opacity="0.2">
        <rect id="Rectángulo_14142" data-name="Rectángulo 14142" width="4.02" height="21.328"/>
      </g>
      <path id="Trazado_134228" data-name="Trazado 134228" d="M7119.025,3072.625c0,.1-14.349.175-32.04.175s-32.045-.074-32.045-.175,14.342-.174,32.045-.174S7119.025,3072.531,7119.025,3072.625Z" transform="translate(-7048.659 -3015.661)" fill="#344154"/>
      <rect id="Rectángulo_14143" data-name="Rectángulo 14143" width="2.456" height="0.812" transform="translate(4.416 49.723)" fill="#344154"/>
      <rect id="Rectángulo_14144" data-name="Rectángulo 14144" width="2.456" height="0.812" transform="translate(4.416 38.924)" fill="#344154"/>
      <rect id="Rectángulo_14145" data-name="Rectángulo 14145" width="2.456" height="0.812" transform="translate(4.416 18.59)" fill="#344154"/>
      <rect id="Rectángulo_14146" data-name="Rectángulo 14146" width="2.456" height="0.812" transform="translate(4.416 8.375)" fill="#344154"/>
      <rect id="Rectángulo_14147" data-name="Rectángulo 14147" width="2.456" height="0.812" transform="translate(4.543 28.757)" fill="#344154"/>
    </g>
    <g id="Grupo_70422" data-name="Grupo 70422" transform="translate(1047.364 9042.435)">
      <rect id="Rectángulo_14109" data-name="Rectángulo 14109" width="107.74" height="45.796" rx="3.96" transform="translate(0 0)" fill="#f6f6f6"/>
      <path id="Trazado_134213" data-name="Trazado 134213" d="M6768.672,3189.818l-.061-9.288a11.855,11.855,0,0,0-7.671,2.993,10.97,10.97,0,0,0-3.691,9.617c.047.443.121.893.215,1.342h0l11.194-2.517Z" transform="translate(-6748.962 -3167.692)" fill="#d9a171"/>
      <g id="Grupo_62580" data-name="Grupo 62580" transform="translate(20.898 12.912)" opacity="0.2">
        <path id="Trazado_134215" data-name="Trazado 134215" d="M6786.429,3187a11.019,11.019,0,0,0-9.034-6.322l-.355-.033h-.96l.061,9.288v2.181l11.208,2.4h0a10.716,10.716,0,0,0,.248-2.409A12.067,12.067,0,0,0,6786.429,3187Z" transform="translate(-6776.08 -3180.64)"/>
      </g>
      <g id="Grupo_62581" data-name="Grupo 62581" transform="translate(9.12 25.442)" opacity="0.1">
        <path id="Trazado_134217" data-name="Trazado 134217" d="M6769.718,3199.31l-11.188,2.523a11.476,11.476,0,0,0,22.4-.074l-11.194-2.443" transform="translate(-6758.53 -3199.31)"/>
      </g>
      <rect id="Rectángulo_14110" data-name="Rectángulo 14110" width="56.863" height="2.577" transform="translate(39.931 15.617)" fill="#6595bf"/>
      <rect id="Rectángulo_14111" data-name="Rectángulo 14111" width="56.863" height="2.577" transform="translate(39.931 22.408)" fill="#6595bf"/>
      <rect id="Rectángulo_14112" data-name="Rectángulo 14112" width="30.737" height="2.577" transform="translate(39.931 29.918)" fill="#6595bf"/>
    </g>
  </g>
</svg>
