<svg xmlns="http://www.w3.org/2000/svg" width="509.371" height="48.047" viewBox="0 0 509.371 48.047">
  <g id="Grupo_70235" data-name="Grupo 70235" transform="translate(-239.473 -3275.625)">
    <path id="Trazado_143467" data-name="Trazado 143467" d="M11.536,15h-1.5V3.625h1.5Zm3.883-8.453.047,1.063A3.08,3.08,0,0,1,18,6.391q2.68,0,2.7,3.023V15H19.255V9.406a1.946,1.946,0,0,0-.418-1.352,1.675,1.675,0,0,0-1.277-.437,2.086,2.086,0,0,0-1.234.375,2.546,2.546,0,0,0-.828.984V15H14.052V6.547Zm10.25,6.492,2.094-6.492h1.477L26.208,15h-1.1L22.044,6.547H23.52Zm8.367,2.117a3.693,3.693,0,0,1-2.8-1.129,4.19,4.19,0,0,1-1.078-3.02v-.266a5.073,5.073,0,0,1,.48-2.246,3.748,3.748,0,0,1,1.344-1.547,3.378,3.378,0,0,1,1.871-.559,3.166,3.166,0,0,1,2.563,1.086,4.7,4.7,0,0,1,.914,3.109v.6H31.606a3,3,0,0,0,.73,2.02,2.3,2.3,0,0,0,1.777.77,2.517,2.517,0,0,0,1.3-.312,3.259,3.259,0,0,0,.93-.828l.883.688A3.55,3.55,0,0,1,34.036,15.156Zm-.18-7.578a1.928,1.928,0,0,0-1.469.637A3.1,3.1,0,0,0,31.653,10h4.234V9.891a2.753,2.753,0,0,0-.594-1.707A1.815,1.815,0,0,0,33.856,7.578Zm9.234.266a4.331,4.331,0,0,0-.711-.055A1.9,1.9,0,0,0,40.45,9v6H39V6.547h1.406l.023.977A2.251,2.251,0,0,1,42.45,6.391a1.477,1.477,0,0,1,.641.109Zm6.25,4.914a1.064,1.064,0,0,0-.441-.91,4.249,4.249,0,0,0-1.539-.559,7.277,7.277,0,0,1-1.742-.562,2.479,2.479,0,0,1-.953-.781,1.869,1.869,0,0,1-.309-1.078,2.193,2.193,0,0,1,.879-1.758,3.432,3.432,0,0,1,2.246-.719,3.532,3.532,0,0,1,2.332.742,2.357,2.357,0,0,1,.895,1.9H49.255a1.3,1.3,0,0,0-.5-1.023,1.888,1.888,0,0,0-1.27-.43,1.976,1.976,0,0,0-1.234.344,1.082,1.082,0,0,0-.445.9.877.877,0,0,0,.414.789,5.1,5.1,0,0,0,1.5.508,7.8,7.8,0,0,1,1.754.578,2.558,2.558,0,0,1,1,.809,1.988,1.988,0,0,1,.324,1.152,2.163,2.163,0,0,1-.906,1.816,3.8,3.8,0,0,1-2.352.684,4.257,4.257,0,0,1-1.8-.359,2.922,2.922,0,0,1-1.223-1,2.42,2.42,0,0,1-.441-1.395h1.445a1.5,1.5,0,0,0,.582,1.152,2.258,2.258,0,0,0,1.434.426,2.331,2.331,0,0,0,1.316-.332A1.02,1.02,0,0,0,49.341,12.758ZM54.239,15H52.794V6.547h1.445ZM52.677,4.3a.863.863,0,0,1,.215-.594.807.807,0,0,1,.637-.242.819.819,0,0,1,.641.242.854.854,0,0,1,.219.594.826.826,0,0,1-.219.586.834.834,0,0,1-.641.234.821.821,0,0,1-.637-.234A.834.834,0,0,1,52.677,4.3ZM56.169,10.7a4.993,4.993,0,0,1,.488-2.234A3.643,3.643,0,0,1,58.016,6.93,3.7,3.7,0,0,1,60,6.391a3.565,3.565,0,0,1,2.793,1.2,4.6,4.6,0,0,1,1.066,3.18v.1a5.036,5.036,0,0,1-.473,2.215,3.589,3.589,0,0,1-1.352,1.527,3.743,3.743,0,0,1-2.02.547,3.556,3.556,0,0,1-2.785-1.2A4.575,4.575,0,0,1,56.169,10.8Zm1.453.172a3.616,3.616,0,0,0,.652,2.258,2.211,2.211,0,0,0,3.5-.012,3.955,3.955,0,0,0,.648-2.418,3.61,3.61,0,0,0-.66-2.254A2.1,2.1,0,0,0,60,7.578a2.075,2.075,0,0,0-1.727.852A3.925,3.925,0,0,0,57.622,10.867Zm3.039-7.852h1.75l-2.094,2.3-1.164,0Zm6.383,3.531.047,1.063a3.08,3.08,0,0,1,2.531-1.219q2.68,0,2.7,3.023V15H70.88V9.406a1.946,1.946,0,0,0-.418-1.352,1.675,1.675,0,0,0-1.277-.437,2.086,2.086,0,0,0-1.234.375,2.546,2.546,0,0,0-.828.984V15H65.677V6.547ZM78.123,17.17a3.856,3.856,0,0,1-.506,2.2,2.1,2.1,0,0,1-3.153.016,3.66,3.66,0,0,1-.529-2.1V16.158a3.77,3.77,0,0,1,.506-2.174A2.14,2.14,0,0,1,77.6,13.96a3.638,3.638,0,0,1,.52,2.117Zm-.843-1.153a3.089,3.089,0,0,0-.3-1.561,1.035,1.035,0,0,0-.952-.49,1.022,1.022,0,0,0-.943.488,3.016,3.016,0,0,0-.305,1.5V17.3a3.139,3.139,0,0,0,.312,1.588,1.033,1.033,0,0,0,.946.513,1.019,1.019,0,0,0,.927-.483A3.025,3.025,0,0,0,77.28,17.4ZM90.316,8.641H83.8V7.383h6.516Zm0,3.242H83.8v-1.25h6.516Z" transform="translate(229.438 3288)" fill="#12263f"/>
    <path id="Trazado_143470" data-name="Trazado 143470" d="M8.2,8.9h3.172v1.367H8.2v3.594H6.746V10.266H3.574V8.9H6.746V5.578H8.2Z" transform="translate(462.438 3288)" fill="#12263f"/>
    <path id="Trazado_143474" data-name="Trazado 143474" d="M8.2,8.9h3.172v1.367H8.2v3.594H6.746V10.266H3.574V8.9H6.746V5.578H8.2Z" transform="translate(604.438 3288)" fill="#12263f"/>
    <path id="Trazado_143466" data-name="Trazado 143466" d="M59.3,9.977H54.528V15h-1.5V3.625h7.047V4.852H54.528v3.9H59.3ZM70.614,15H69.106L63.38,6.234V15H61.872V3.625H63.38l5.742,8.8v-8.8h1.492Zm9.094-5.258h-4.93v4.031H80.5V15H73.278V3.625h7.148V4.852H74.778V8.516h4.93ZM84.374,20h-.848V14.381l-1.7.624V14.24l2.415-.907h.132Z" transform="translate(326.438 3272)" fill="#12263f"/>
    <path id="Trazado_143471" data-name="Trazado 143471" d="M61.282,9.977H56.509V15h-1.5V3.625h7.047V4.852H56.509v3.9h4.773ZM72.595,15H71.087L65.36,6.234V15H63.852V3.625H65.36l5.742,8.8v-8.8h1.492Zm9.094-5.258h-4.93v4.031h5.727V15H75.259V3.625h7.148V4.852H76.759V8.516h4.93ZM87.931,20H83.583v-.606l2.3-2.552a5.457,5.457,0,0,0,.7-.941,1.571,1.571,0,0,0,.194-.75,1.19,1.19,0,0,0-.314-.852,1.1,1.1,0,0,0-.838-.333,1.3,1.3,0,0,0-.977.358,1.366,1.366,0,0,0-.349,1h-.843a1.957,1.957,0,0,1,.59-1.481,2.188,2.188,0,0,1,1.579-.565,2.1,2.1,0,0,1,1.463.485,1.655,1.655,0,0,1,.538,1.292,3.8,3.8,0,0,1-1.249,2.333L84.6,19.312h3.331Z" transform="translate(469.438 3272)" fill="#12263f"/>
    <path id="Trazado_143472" data-name="Trazado 143472" d="M59.347,9.977H54.574V15h-1.5V3.625h7.047V4.852H54.574v3.9h4.773ZM70.66,15H69.152L63.425,6.234V15H61.917V3.625h1.508l5.742,8.8v-8.8H70.66Zm9.094-5.258h-4.93v4.031H80.55V15H73.324V3.625h7.148V4.852H74.824V8.516h4.93Zm2.779,5.327.027.62a1.8,1.8,0,0,1,1.476-.711q1.563,0,1.577,1.764V20H84.77V16.737a1.135,1.135,0,0,0-.244-.788.977.977,0,0,0-.745-.255,1.217,1.217,0,0,0-.72.219,1.485,1.485,0,0,0-.483.574V20h-.843V15.069Z" transform="translate(613.438 3272)" fill="#12263f"/>
    <path id="Trazado_143468" data-name="Trazado 143468" d="M41,10.383a12.079,12.079,0,0,1,.473-3.391,9.85,9.85,0,0,1,1.41-2.953,6,6,0,0,1,1.945-1.875l.3.953a6.222,6.222,0,0,0-1.871,2.672,11.583,11.583,0,0,0-.8,4.023l-.008.664a11.643,11.643,0,0,0,1.1,5.234,6.252,6.252,0,0,0,1.578,2.078l-.3.883a6.192,6.192,0,0,1-1.984-1.937A10.859,10.859,0,0,1,41,10.383ZM51.126,15H49.673V5.367l-2.914,1.07V5.125L50.9,3.57h.227Zm8.523-6.1h3.172v1.367H59.649v3.594H58.2V10.266H55.024V8.9H58.2V5.578h1.453ZM72.665,4.852H69.009V15H67.516V4.852H63.868V3.625h8.8ZM75.962,15h-1.5V3.625h1.5Zm6.914-4.6H80.2V15H78.7V3.625h3.766a4.457,4.457,0,0,1,2.957.875,3.148,3.148,0,0,1,1.035,2.547A3.062,3.062,0,0,1,85.88,8.9a3.428,3.428,0,0,1-1.6,1.18l2.672,4.828V15H85.345ZM80.2,9.172h2.3a2.6,2.6,0,0,0,1.777-.579,1.959,1.959,0,0,0,.66-1.55,2.062,2.062,0,0,0-.629-1.62A2.663,2.663,0,0,0,82.5,4.852H80.2Zm11.461,1.289a12.084,12.084,0,0,1-.457,3.34,9.876,9.876,0,0,1-1.4,2.949,6.127,6.127,0,0,1-1.973,1.922l-.3-.883a6.281,6.281,0,0,0,1.934-2.863,12.387,12.387,0,0,0,.746-4.309v-.25a12.861,12.861,0,0,0-.344-3.051,10.3,10.3,0,0,0-.957-2.527,5.838,5.838,0,0,0-1.379-1.742l.3-.883A6.1,6.1,0,0,1,89.8,4.07a9.9,9.9,0,0,1,1.4,2.945A12.363,12.363,0,0,1,91.665,10.461ZM96.12,10h-.848V4.381l-1.7.624V4.24l2.415-.907h.132Z" transform="translate(326.438 3305)" fill="#12263f"/>
    <path id="Trazado_143469" data-name="Trazado 143469" d="M41,10.383a12.079,12.079,0,0,1,.473-3.391,9.85,9.85,0,0,1,1.41-2.953,6,6,0,0,1,1.945-1.875l.3.953a6.222,6.222,0,0,0-1.871,2.672,11.583,11.583,0,0,0-.8,4.023l-.008.664a11.643,11.643,0,0,0,1.1,5.234,6.252,6.252,0,0,0,1.578,2.078l-.3.883a6.192,6.192,0,0,1-1.984-1.937A10.859,10.859,0,0,1,41,10.383ZM51.126,15H49.673V5.367l-2.914,1.07V5.125L50.9,3.57h.227Zm8.523-6.1h3.172v1.367H59.649v3.594H58.2V10.266H55.024V8.9H58.2V5.578h1.453ZM72.665,4.852H69.009V15H67.516V4.852H63.868V3.625h8.8ZM75.962,15h-1.5V3.625h1.5Zm6.914-4.6H80.2V15H78.7V3.625h3.766a4.457,4.457,0,0,1,2.957.875,3.148,3.148,0,0,1,1.035,2.547A3.062,3.062,0,0,1,85.88,8.9a3.428,3.428,0,0,1-1.6,1.18l2.672,4.828V15H85.345ZM80.2,9.172h2.3a2.6,2.6,0,0,0,1.777-.579,1.959,1.959,0,0,0,.66-1.55,2.062,2.062,0,0,0-.629-1.62A2.663,2.663,0,0,0,82.5,4.852H80.2Zm11.461,1.289a12.084,12.084,0,0,1-.457,3.34,9.876,9.876,0,0,1-1.4,2.949,6.127,6.127,0,0,1-1.973,1.922l-.3-.883a6.281,6.281,0,0,0,1.934-2.863,12.387,12.387,0,0,0,.746-4.309v-.25a12.861,12.861,0,0,0-.344-3.051,10.3,10.3,0,0,0-.957-2.527,5.838,5.838,0,0,0-1.379-1.742l.3-.883A6.1,6.1,0,0,1,89.8,4.07a9.9,9.9,0,0,1,1.4,2.945A12.363,12.363,0,0,1,91.665,10.461ZM97.7,10H93.349V9.394l2.3-2.552a5.457,5.457,0,0,0,.7-.941,1.571,1.571,0,0,0,.194-.75,1.19,1.19,0,0,0-.314-.852,1.1,1.1,0,0,0-.838-.333,1.3,1.3,0,0,0-.977.358,1.366,1.366,0,0,0-.349,1h-.843a1.957,1.957,0,0,1,.59-1.481,2.188,2.188,0,0,1,1.579-.565,2.1,2.1,0,0,1,1.463.485,1.655,1.655,0,0,1,.538,1.292,3.8,3.8,0,0,1-1.249,2.333L94.365,9.312H97.7Z" transform="translate(469.438 3305)" fill="#12263f"/>
    <path id="Trazado_143473" data-name="Trazado 143473" d="M43.027,10.383A12.079,12.079,0,0,1,43.5,6.992a9.85,9.85,0,0,1,1.41-2.953,6,6,0,0,1,1.945-1.875l.3.953a6.222,6.222,0,0,0-1.871,2.672,11.583,11.583,0,0,0-.8,4.023l-.008.664a11.643,11.643,0,0,0,1.1,5.234,6.252,6.252,0,0,0,1.578,2.078l-.3.883a6.192,6.192,0,0,1-1.984-1.937A10.859,10.859,0,0,1,43.027,10.383ZM53.152,15H51.7V5.367l-2.914,1.07V5.125L52.925,3.57h.227Zm8.523-6.1h3.172v1.367H61.675v3.594H60.222V10.266H57.05V8.9h3.172V5.578h1.453ZM74.691,4.852H71.035V15H69.542V4.852H65.894V3.625h8.8ZM77.988,15h-1.5V3.625h1.5ZM84.9,10.4H82.23V15H80.722V3.625h3.766a4.457,4.457,0,0,1,2.957.875A3.148,3.148,0,0,1,88.48,7.047,3.062,3.062,0,0,1,87.906,8.9a3.428,3.428,0,0,1-1.6,1.18l2.672,4.828V15H87.371ZM82.23,9.172h2.3a2.6,2.6,0,0,0,1.777-.579,1.959,1.959,0,0,0,.66-1.55,2.062,2.062,0,0,0-.629-1.62,2.663,2.663,0,0,0-1.816-.571h-2.3Zm11.461,1.289a12.084,12.084,0,0,1-.457,3.34,9.876,9.876,0,0,1-1.4,2.949,6.127,6.127,0,0,1-1.973,1.922l-.3-.883a6.281,6.281,0,0,0,1.934-2.863,12.387,12.387,0,0,0,.746-4.309v-.25a12.861,12.861,0,0,0-.344-3.051,10.3,10.3,0,0,0-.957-2.527,5.838,5.838,0,0,0-1.379-1.742l.3-.883A6.1,6.1,0,0,1,91.828,4.07a9.9,9.9,0,0,1,1.4,2.945A12.363,12.363,0,0,1,93.691,10.461Zm2.568-5.392.027.62a1.8,1.8,0,0,1,1.476-.711q1.563,0,1.577,1.764V10H98.5V6.737a1.135,1.135,0,0,0-.244-.788.977.977,0,0,0-.745-.255,1.217,1.217,0,0,0-.72.219,1.485,1.485,0,0,0-.483.574V10h-.843V5.069Z" transform="translate(613.438 3305)" fill="#12263f"/>
    <line id="Línea_419" data-name="Línea 419" x2="129" transform="translate(332.233 3300.5)" fill="none" stroke="#a66d58" stroke-width="2"/>
    <line id="Línea_422" data-name="Línea 422" x2="129" transform="translate(476.039 3300.5)" fill="none" stroke="#a66d58" stroke-width="2"/>
    <line id="Línea_423" data-name="Línea 423" x2="129" transform="translate(619.844 3300.5)" fill="none" stroke="#a66d58" stroke-width="2"/>
  </g>
</svg>
