<svg xmlns="http://www.w3.org/2000/svg" width="400" height="229" viewBox="0 0 400 229">
  <g id="Grupo_70320" data-name="Grupo 70320" transform="translate(-180 -10081)">
    <g id="Grupo_70221" data-name="Grupo 70221" transform="translate(-735 1874.938)">
      <g id="Grupo_67715" data-name="Grupo 67715" transform="translate(915 8206.063)">
        <rect id="Rect치ngulo_31331" data-name="Rect치ngulo 31331" width="400" height="229" fill="none"/>
      </g>
    </g>
    <g id="Grupo_70319" data-name="Grupo 70319" transform="translate(-97 2226.27)">
      <rect id="Rect치ngulo_31155" data-name="Rect치ngulo 31155" width="384" height="229" transform="translate(285 7854.73)" fill="none"/>
      <g id="freepik--Floor--inject-204" transform="translate(295.998 7974.129)">
        <ellipse id="freepik--floor--inject-204-2" data-name="freepik--floor--inject-204" cx="120.751" cy="52.046" rx="120.751" ry="52.046" fill="#fafafa"/>
      </g>
      <g id="freepik--Folder--inject-204" transform="translate(306.311 7865.449)">
        <g id="freepik--folder--inject-204-2" data-name="freepik--folder--inject-204">
          <path id="Trazado_104630" data-name="Trazado 104630" d="M5008.665,1917.037a1.469,1.469,0,0,1,.86-1.179l85.552-50.064v-73.267l10.609-12.219a14.082,14.082,0,0,0,3.039-7.929v-41.286c0-2.465-1.823-3.408-4.052-2.107l-95.148,55.033a1.47,1.47,0,0,0-.86,1.179Z" transform="translate(-5008.665 -1728.4)" fill="#d9a171"/>
          <path id="Trazado_104631" data-name="Trazado 104631" d="M5102.887,1752.933c0-2.454-1.878-3.477-4.192-2.29l-87.1,44.667a4.959,4.959,0,0,1-2.846.394q0,.064,0,.127v131.106h0a1.533,1.533,0,0,1,.841-1.046l85.551-49.833v-72.93l7.773-8.915Z" transform="translate(-5008.702 -1738.438)" fill="#344154" opacity="0.3" style="isolation: isolate"/>
          <path id="Trazado_104632" data-name="Trazado 104632" d="M5009.445,1929.656a4.882,4.882,0,0,0,4.051-.033l87.1-44.668a8.206,8.206,0,0,0,4.193-6.57V1756.009c0-2.45-1.874-3.477-4.193-2.29l-87.1,44.668a4.883,4.883,0,0,1-4.051.038,1.261,1.261,0,0,1-.78-1.033V1928.61A1.248,1.248,0,0,0,5009.445,1929.656Z" transform="translate(-5008.665 -1739.857)" fill="#d9a171"/>
          <path id="Trazado_104633" data-name="Trazado 104633" d="M5009.445,1929.656a4.882,4.882,0,0,0,4.051-.033l87.1-44.668a8.206,8.206,0,0,0,4.193-6.57V1756.009c0-2.45-1.874-3.477-4.193-2.29l-87.1,44.668a4.883,4.883,0,0,1-4.051.038,1.261,1.261,0,0,1-.78-1.033V1928.61A1.248,1.248,0,0,0,5009.445,1929.656Z" transform="translate(-5008.665 -1739.857)" fill="#fff" stroke="#5e6178" stroke-miterlimit="10" stroke-width="0" opacity="0.3" style="isolation: isolate"/>
          <path id="Trazado_104634" data-name="Trazado 104634" d="M5011.41,1843.3a3.992,3.992,0,0,1-1.95-.451,1.352,1.352,0,0,1-.795-1.114v141.6a1.34,1.34,0,0,0,.78,1.129,3.988,3.988,0,0,0,1.95.455Z" transform="translate(-5008.665 -1794.707)" fill="#fff" stroke="#5e6178" stroke-miterlimit="10" stroke-width="0" opacity="0.3" style="isolation: isolate"/>
          <path id="Trazado_104635" data-name="Trazado 104635" d="M5028.517,1841.643a.238.238,0,0,0-.238.238v132.585a.253.253,0,1,0,.506,0V1841.886a.237.237,0,0,0-.23-.245Zm-7.784,4.5a.237.237,0,0,0-.237.238h0v132.586a.238.238,0,1,0,.476,0h0V1846.378a.238.238,0,0,0-.228-.238Zm3.895-2.249a.243.243,0,0,0-.243.238v132.586a.244.244,0,0,0,.243.238.238.238,0,0,0,.238-.238h0V1844.129a.238.238,0,0,0-.229-.238Z" transform="translate(-5014.125 -1794.662)" fill="#d9a171"/>
        </g>
      </g>
      <g id="freepik--Pictures--inject-204" transform="translate(603.003 7865.449)">
        <g id="freepik--Picture--inject-204">
          <g id="freepik--Frame--inject-204">
            <path id="Trazado_104608" data-name="Trazado 104608" d="M5246.842,1778.465l.861.517,17.7-10.224-.866-.511Z" transform="translate(-5245.201 -1746.79)" fill="#fafafa"/>
            <path id="Trazado_104609" data-name="Trazado 104609" d="M5265.278,1753.138l-16.837,9.718v-17.633l16.843-9.713Z" transform="translate(-5245.939 -1731.682)" fill="#fff" stroke="#5e6178" stroke-miterlimit="10" stroke-width="0"/>
            <path id="Trazado_104610" data-name="Trazado 104610" d="M5266.377,1729.332l-20.955,12.1v22.408l20.955-12.1Zm-1.626,21.467-17.724,10.224v-18.65l17.724-10.219Z" transform="translate(-5244.546 -1728.831)" fill="#f0f0f0"/>
            <path id="Trazado_104611" data-name="Trazado 104611" d="M5280.576,1753.216l-.866-.511.005-17.628.861-.506Z" transform="translate(-5260.37 -1731.248)" fill="#e0e0e0"/>
            <path id="Trazado_104612" data-name="Trazado 104612" d="M5265.626,1728.9l-.876-.5-20.956,12.1.876.5Z" transform="translate(-5243.794 -1728.401)" fill="#fafafa"/>
            <path id="Trazado_104613" data-name="Trazado 104613" d="M5243.794,1750.876l.876.5v22.4l-.876-.5Z" transform="translate(-5243.794 -1738.773)" fill="#e0e0e0"/>
          </g>
          <g id="freepik--Land--inject-204" transform="translate(3.16 10.979)">
            <path id="Trazado_104614" data-name="Trazado 104614" d="M5265.189,1758.74l-15.526,8.963v-4.482l3.879-8.963,2.42,2.238-.871,3.757,5.363-11.465,4.735,5.469Z" transform="translate(-5249.663 -1748.789)" fill="#f0f0f0"/>
            <path id="Trazado_104615" data-name="Trazado 104615" d="M5260.1,1750.771a2.531,2.531,0,0,0-1.15,1.99c0,.729.506,1.012,1.15.663a2.533,2.533,0,0,0,1.149-1.99C5261.253,1750.7,5260.737,1750.406,5260.1,1750.771Z" transform="translate(-5253.951 -1749.631)" fill="#f0f0f0"/>
          </g>
        </g>
        <g id="freepik--picture--inject-204-2" data-name="freepik--picture--inject-204" transform="translate(0 27.543)">
          <g id="freepik--frame--inject-204-2" data-name="freepik--frame--inject-204">
            <path id="Trazado_104616" data-name="Trazado 104616" d="M5246.842,1829.614l.861.516,17.7-10.224-.866-.511Z" transform="translate(-5245.201 -1797.939)" fill="#fafafa"/>
            <path id="Trazado_104617" data-name="Trazado 104617" d="M5265.278,1804.287,5248.44,1814v-17.633l16.843-9.713Z" transform="translate(-5245.939 -1782.831)" fill="#fff" stroke="#5e6178" stroke-miterlimit="10" stroke-width="0"/>
            <path id="Trazado_104618" data-name="Trazado 104618" d="M5266.377,1780.481l-20.955,12.1v22.408l20.955-12.1Zm-1.626,21.466-17.724,10.219v-18.646l17.724-10.219Z" transform="translate(-5244.546 -1779.979)" fill="#f0f0f0"/>
            <path id="Trazado_104619" data-name="Trazado 104619" d="M5280.576,1804.364l-.866-.511.005-17.628.861-.506Z" transform="translate(-5260.37 -1782.397)" fill="#e0e0e0"/>
            <path id="Trazado_104620" data-name="Trazado 104620" d="M5265.626,1780.051l-.876-.5-20.956,12.1.876.5Z" transform="translate(-5243.794 -1779.55)" fill="#fafafa"/>
            <path id="Trazado_104621" data-name="Trazado 104621" d="M5243.794,1802.016l.876.5v22.408l-.876-.5Z" transform="translate(-5243.794 -1789.918)" fill="#e0e0e0"/>
          </g>
          <g id="freepik--land--inject-204-2" data-name="freepik--land--inject-204" transform="translate(3.16 10.979)">
            <path id="Trazado_104622" data-name="Trazado 104622" d="M5265.189,1809.888l-15.526,8.963v-4.481l3.879-8.963,2.42,2.238-.871,3.758,5.363-11.465,4.735,5.469Z" transform="translate(-5249.663 -1799.938)" fill="#f0f0f0"/>
            <path id="Trazado_104623" data-name="Trazado 104623" d="M5260.1,1801.92a2.531,2.531,0,0,0-1.15,1.99c0,.729.506,1.013,1.15.663a2.532,2.532,0,0,0,1.149-1.99C5261.253,1801.849,5260.737,1801.554,5260.1,1801.92Z" transform="translate(-5253.951 -1800.78)" fill="#f0f0f0"/>
          </g>
        </g>
      </g>
      <g id="freepik--Plant--inject-204" transform="translate(577.38 7956.334)">
        <g id="freepik--Plants--inject-204">
          <path id="Trazado_104624" data-name="Trazado 104624" d="M5247.329,2035.094s-4.324-18.738,5.191-37.027c5.318-10.217,15.432-15.761,20.641-16.125,5.84-.4,11.473,4.879,5.9,11.575-5.306,6.367-14.925,8.815-21.517,25.554-4.325,11.039-4.282,19.3-4.282,19.3Z" transform="translate(-5246.349 -1981.921)" fill="#d9a171"/>
          <path id="Trazado_104625" data-name="Trazado 104625" d="M5247.329,2035.094s-4.324-18.738,5.191-37.027c5.318-10.217,15.432-15.761,20.641-16.125,5.84-.4,11.473,4.879,5.9,11.575-5.306,6.367-14.925,8.815-21.517,25.554-4.325,11.039-4.282,19.3-4.282,19.3Z" transform="translate(-5246.349 -1981.921)" fill="#fff" stroke="#5e6178" stroke-miterlimit="10" stroke-width="0" opacity="0.5" style="isolation: isolate"/>
          <path id="Trazado_104626" data-name="Trazado 104626" d="M5251.5,2030.789a.33.33,0,0,0,.347-.31h0c-1.229-20.641,12.259-37.64,22.224-43.125a.252.252,0,0,0,.148-.323.271.271,0,0,0-.044-.075.418.418,0,0,0-.5-.078c-10.112,5.563-23.8,22.778-22.552,43.645a.32.32,0,0,0,.362.271Z" transform="translate(-5246.726 -1982.314)" fill="#fff" stroke="#5e6178" stroke-miterlimit="10" stroke-width="0"/>
          <path id="Trazado_104627" data-name="Trazado 104627" d="M5253.56,2040.369c1.16-4.724,4.784-10.433,12.111-15.459s17.3-9.517,16.2-14.171-8.8-4.732-14.335-2.336-18.356,13.418-17.086,30.278Z" transform="translate(-5246.67 -1983.917)" fill="#d9a171"/>
          <path id="Trazado_104628" data-name="Trazado 104628" d="M5253.56,2040.369c1.16-4.724,4.784-10.433,12.111-15.459s17.3-9.517,16.2-14.171-8.8-4.732-14.335-2.336-18.356,13.418-17.086,30.278Z" transform="translate(-5246.67 -1983.917)" fill="#fff" stroke="#5e6178" stroke-miterlimit="10" stroke-width="0" opacity="0.65" style="isolation: isolate"/>
          <path id="Trazado_104629" data-name="Trazado 104629" d="M5252.6,2034.346a.364.364,0,0,0,.347-.26c1.67-9.991,16.947-22.224,23.748-24a.287.287,0,0,0,.25-.316.268.268,0,0,0-.009-.047.366.366,0,0,0-.451-.182c-7.128,1.86-22.491,14.092-24.222,24.483a.33.33,0,0,0,.319.32Z" transform="translate(-5246.822 -1984.131)" fill="#fff" stroke="#5e6178" stroke-miterlimit="10" stroke-width="0"/>
        </g>
      </g>
      <g id="freepik--Folder--inject-204-3" data-name="freepik--Folder--inject-204" transform="translate(350.016 7869.449)">
        <g id="freepik--folder--inject-204-4" data-name="freepik--folder--inject-204">
          <path id="Trazado_104630-2" data-name="Trazado 104630" d="M5008.665,1917.037a1.469,1.469,0,0,1,.86-1.179l85.552-50.064v-73.267l10.609-12.219a14.082,14.082,0,0,0,3.039-7.929v-41.286c0-2.465-1.823-3.408-4.052-2.107l-95.148,55.033a1.47,1.47,0,0,0-.86,1.179Z" transform="translate(-5008.665 -1728.4)" fill="#d9a171"/>
          <path id="Trazado_104631-2" data-name="Trazado 104631" d="M5102.887,1752.933c0-2.454-1.878-3.477-4.192-2.29l-87.1,44.667a4.959,4.959,0,0,1-2.846.394q0,.064,0,.127v131.106h0a1.533,1.533,0,0,1,.841-1.046l85.551-49.833v-72.93l7.773-8.915Z" transform="translate(-5008.702 -1738.438)" fill="#344154" opacity="0.3" style="isolation: isolate"/>
          <path id="Trazado_104632-2" data-name="Trazado 104632" d="M5009.445,1929.656a4.882,4.882,0,0,0,4.051-.033l87.1-44.668a8.206,8.206,0,0,0,4.193-6.57V1756.009c0-2.45-1.874-3.477-4.193-2.29l-87.1,44.668a4.883,4.883,0,0,1-4.051.038,1.261,1.261,0,0,1-.78-1.033V1928.61A1.248,1.248,0,0,0,5009.445,1929.656Z" transform="translate(-5008.665 -1739.857)" fill="#d9a171"/>
          <path id="Trazado_104633-2" data-name="Trazado 104633" d="M5009.445,1929.656a4.882,4.882,0,0,0,4.051-.033l87.1-44.668a8.206,8.206,0,0,0,4.193-6.57V1756.009c0-2.45-1.874-3.477-4.193-2.29l-87.1,44.668a4.883,4.883,0,0,1-4.051.038,1.261,1.261,0,0,1-.78-1.033V1928.61A1.248,1.248,0,0,0,5009.445,1929.656Z" transform="translate(-5008.665 -1739.857)" fill="#fff" stroke="#5e6178" stroke-miterlimit="10" stroke-width="0" opacity="0.3" style="isolation: isolate"/>
          <path id="Trazado_104634-2" data-name="Trazado 104634" d="M5011.41,1843.3a3.992,3.992,0,0,1-1.95-.451,1.352,1.352,0,0,1-.795-1.114v141.6a1.34,1.34,0,0,0,.78,1.129,3.988,3.988,0,0,0,1.95.455Z" transform="translate(-5008.665 -1794.707)" fill="#fff" stroke="#5e6178" stroke-miterlimit="10" stroke-width="0" opacity="0.3" style="isolation: isolate"/>
          <path id="Trazado_104635-2" data-name="Trazado 104635" d="M5028.517,1841.643a.238.238,0,0,0-.238.238v132.585a.253.253,0,1,0,.506,0V1841.886a.237.237,0,0,0-.23-.245Zm-7.784,4.5a.237.237,0,0,0-.237.238h0v132.586a.238.238,0,1,0,.476,0h0V1846.378a.238.238,0,0,0-.228-.238Zm3.895-2.249a.243.243,0,0,0-.243.238v132.586a.244.244,0,0,0,.243.238.238.238,0,0,0,.238-.238h0V1844.129a.238.238,0,0,0-.229-.238Z" transform="translate(-5014.125 -1794.662)" fill="#d9a171"/>
        </g>
      </g>
      <g id="freepik--Folder--inject-204-5" data-name="freepik--Folder--inject-204" transform="translate(412.426 7871.449)">
        <g id="freepik--folder--inject-204-6" data-name="freepik--folder--inject-204">
          <path id="Trazado_104630-3" data-name="Trazado 104630" d="M5008.665,1917.037a1.469,1.469,0,0,1,.86-1.179l85.552-50.064v-73.267l10.609-12.219a14.082,14.082,0,0,0,3.039-7.929v-41.286c0-2.465-1.823-3.408-4.052-2.107l-95.148,55.033a1.47,1.47,0,0,0-.86,1.179Z" transform="translate(-5008.665 -1728.4)" fill="#d9a171"/>
          <path id="Trazado_104631-3" data-name="Trazado 104631" d="M5102.887,1752.933c0-2.454-1.878-3.477-4.192-2.29l-87.1,44.667a4.959,4.959,0,0,1-2.846.394q0,.064,0,.127v131.106h0a1.533,1.533,0,0,1,.841-1.046l85.551-49.833v-72.93l7.773-8.915Z" transform="translate(-5008.702 -1738.438)" fill="#344154" opacity="0.3" style="isolation: isolate"/>
          <path id="Trazado_104632-3" data-name="Trazado 104632" d="M5009.445,1929.656a4.882,4.882,0,0,0,4.051-.033l87.1-44.668a8.206,8.206,0,0,0,4.193-6.57V1756.009c0-2.45-1.874-3.477-4.193-2.29l-87.1,44.668a4.883,4.883,0,0,1-4.051.038,1.261,1.261,0,0,1-.78-1.033V1928.61A1.248,1.248,0,0,0,5009.445,1929.656Z" transform="translate(-5008.665 -1739.857)" fill="#d9a171"/>
          <path id="Trazado_104633-3" data-name="Trazado 104633" d="M5009.445,1929.656a4.882,4.882,0,0,0,4.051-.033l87.1-44.668a8.206,8.206,0,0,0,4.193-6.57V1756.009c0-2.45-1.874-3.477-4.193-2.29l-87.1,44.668a4.883,4.883,0,0,1-4.051.038,1.261,1.261,0,0,1-.78-1.033V1928.61A1.248,1.248,0,0,0,5009.445,1929.656Z" transform="translate(-5008.665 -1739.857)" fill="#fff" stroke="#5e6178" stroke-miterlimit="10" stroke-width="0" opacity="0.3" style="isolation: isolate"/>
          <path id="Trazado_104634-3" data-name="Trazado 104634" d="M5011.41,1843.3a3.992,3.992,0,0,1-1.95-.451,1.352,1.352,0,0,1-.795-1.114v141.6a1.34,1.34,0,0,0,.78,1.129,3.988,3.988,0,0,0,1.95.455Z" transform="translate(-5008.665 -1794.707)" fill="#fff" stroke="#5e6178" stroke-miterlimit="10" stroke-width="0" opacity="0.3" style="isolation: isolate"/>
          <path id="Trazado_104635-3" data-name="Trazado 104635" d="M5028.517,1841.643a.238.238,0,0,0-.238.238v132.585a.253.253,0,1,0,.506,0V1841.886a.237.237,0,0,0-.23-.245Zm-7.784,4.5a.237.237,0,0,0-.237.238h0v132.586a.238.238,0,1,0,.476,0h0V1846.378a.238.238,0,0,0-.228-.238Zm3.895-2.249a.243.243,0,0,0-.243.238v132.586a.244.244,0,0,0,.243.238.238.238,0,0,0,.238-.238h0V1844.129a.238.238,0,0,0-.229-.238Z" transform="translate(-5014.125 -1794.662)" fill="#d9a171"/>
        </g>
      </g>
      <g id="freepik--Contract--inject-204" transform="translate(482.296 7865.449)">
        <g id="freepik--Sheet--inject-204">
          <path id="Trazado_104636" data-name="Trazado 104636" d="M5048.788,1813.52l-2.122-1.224L5142,1757.252l2.127,1.224Z" transform="translate(-5046.666 -1757.252)" fill="#f0f0f0"/>
          <path id="Trazado_104637" data-name="Trazado 104637" d="M5145.693,1759.4v136.246l-95.377,51.239.037-136.266Z" transform="translate(-5048.231 -1758.172)" fill="#fafafa"/>
          <path id="Trazado_104638" data-name="Trazado 104638" d="M5145.183,1760.211v135.162l-94.358,50.689.038-135.177,94.32-50.674m.536-.814-95.367,51.218-.038,136.266,95.377-51.238V1759.4Z" transform="translate(-5048.231 -1758.172)" fill="#f2e9e4"/>
          <path id="Trazado_104639" data-name="Trazado 104639" d="M5048.788,1854.869l-.038,146.441-2.062-1.192-.022-146.473,2.084,1.2Z" transform="translate(-5046.666 -1812.601)" fill="#e0e0e0"/>
        </g>
        <g id="freepik--contract--inject-204-2" data-name="freepik--contract--inject-204" transform="translate(6.53 12.228)">
          <g id="freepik--sheet--inject-204-2" data-name="freepik--sheet--inject-204">
            <path id="Trazado_104640" data-name="Trazado 104640" d="M5175.742,1917.05v2.292l-95.339,51.291-1.075-.566c-13.09-7.076-21.157-20.105-21.179-34.21V1829.967l95.335-51.3,2.147,1.141v104.745C5155.63,1897.954,5163.3,1910.34,5175.742,1917.05Z" transform="translate(-5058.122 -1778.666)" fill="#f0f0f0"/>
            <path id="Trazado_104641" data-name="Trazado 104641" d="M5157.208,1885.417V1780.81l-95.335,51.234v104.611c0,13.387,7.674,25.758,20.127,32.455l95.339-51.234C5164.882,1911.18,5157.209,1898.807,5157.208,1885.417Zm-94.884,51.239V1832.294l94.41-50.729v103.852c.024,13.272,7.482,25.571,19.676,32.45L5082,1968.6C5069.834,1961.94,5062.353,1949.793,5062.325,1936.655Z" transform="translate(-5059.72 -1779.586)" fill="#e0e0e0"/>
            <path id="Trazado_104642" data-name="Trazado 104642" d="M5176.75,1918.463l-94.411,50.708c-12.166-6.657-19.647-18.8-19.676-31.929V1832.934l94.411-50.7v103.8C5157.1,1899.3,5164.555,1911.588,5176.75,1918.463Z" transform="translate(-5060.059 -1780.195)" fill="#fafafa"/>
            <path id="Trazado_104643" data-name="Trazado 104643" d="M5060.25,1988.671V1876.282l-2.147-1.225v113.614a42.5,42.5,0,0,0,21.189,36.71l1.074.606v-2.448A40.275,40.275,0,0,1,5060.25,1988.671Z" transform="translate(-5058.103 -1834.015)" fill="#e0e0e0"/>
            <path id="Trazado_104644" data-name="Trazado 104644" d="M5097.12,2093.722v2.449l95.345-55.037v-2.454Z" transform="translate(-5074.84 -1904.203)" fill="#344154" opacity="0.15" style="isolation: isolate"/>
          </g>
          <g id="freepik--Text--inject-204" transform="translate(66.76 17.614)">
            <path id="Trazado_104645" data-name="Trazado 104645" d="M5176.034,1822.8l22.752-13.141c.538-.322,1.015-.091,1.015.537a2.181,2.181,0,0,1-1.015,1.686l-22.752,13.141c-.564.322-1.021.091-1.021-.537A2.148,2.148,0,0,1,5176.034,1822.8Z" transform="translate(-5175.013 -1809.511)" fill="#e0e0e0"/>
            <path id="Trazado_104646" data-name="Trazado 104646" d="M5176.034,1838.219l22.752-13.14c.538-.323,1.015-.091,1.015.537a2.181,2.181,0,0,1-1.015,1.686l-22.752,13.135c-.564.322-1.021.091-1.021-.537A2.152,2.152,0,0,1,5176.034,1838.219Z" transform="translate(-5175.013 -1816.127)" fill="#e0e0e0"/>
            <path id="Trazado_104647" data-name="Trazado 104647" d="M5190.949,1825.589l14.236-8.222c.537-.322,1.015-.091,1.015.537a2.178,2.178,0,0,1-1.015,1.686l-14.236,8.222c-.537.322-1.021.091-1.021-.537A2.146,2.146,0,0,1,5190.949,1825.589Z" transform="translate(-5181.412 -1812.819)" fill="#e0e0e0"/>
          </g>
          <g id="freepik--text--inject-204-2" data-name="freepik--text--inject-204" transform="translate(12.357 40.968)">
            <path id="Trazado_104648" data-name="Trazado 104648" d="M5080.755,1901.021l74.365-42.933c.563-.322,1.014-.091,1.014.537a2.147,2.147,0,0,1-1.014,1.686l-74.365,42.961c-.536.327-1.014.1-1.014-.537A2.19,2.19,0,0,1,5080.755,1901.021Z" transform="translate(-5079.741 -1857.943)" fill="#e0e0e0"/>
            <path id="Trazado_104649" data-name="Trazado 104649" d="M5080.755,1908.712l74.365-42.96c.563-.322,1.014-.092,1.014.537a2.147,2.147,0,0,1-1.014,1.686l-74.365,42.939c-.536.328-1.014.1-1.014-.537A2.192,2.192,0,0,1,5080.755,1908.712Z" transform="translate(-5079.741 -1861.23)" fill="#e0e0e0"/>
            <path id="Trazado_104650" data-name="Trazado 104650" d="M5080.755,1916.423l74.365-42.96c.563-.323,1.014-.092,1.014.537a2.146,2.146,0,0,1-1.014,1.686l-74.365,42.966c-.536.327-1.014.1-1.014-.537A2.19,2.19,0,0,1,5080.755,1916.423Z" transform="translate(-5079.741 -1864.538)" fill="#e0e0e0"/>
            <path id="Trazado_104651" data-name="Trazado 104651" d="M5080.755,1924.134l74.365-42.96c.563-.322,1.014-.091,1.014.537a2.147,2.147,0,0,1-1.014,1.686l-74.365,42.939c-.536.328-1.014.1-1.014-.537A2.178,2.178,0,0,1,5080.755,1924.134Z" transform="translate(-5079.741 -1867.846)" fill="#e0e0e0"/>
          </g>
          <g id="freepik--text--inject-204-3" data-name="freepik--text--inject-204" transform="translate(12.357 60.942)">
            <path id="Trazado_104652" data-name="Trazado 104652" d="M5080.755,1939.705l74.365-42.961c.563-.328,1.014-.1,1.014.537a2.175,2.175,0,0,1-1.014,1.692l-74.365,42.933c-.536.323-1.014.091-1.014-.537A2.178,2.178,0,0,1,5080.755,1939.705Z" transform="translate(-5079.741 -1896.596)" fill="#e0e0e0"/>
            <path id="Trazado_104653" data-name="Trazado 104653" d="M5080.755,1947.436l74.365-42.933c.563-.327,1.014-.1,1.014.51a2.173,2.173,0,0,1-1.014,1.692l-74.365,42.961c-.536.322-1.014.091-1.014-.538A2.179,2.179,0,0,1,5080.755,1947.436Z" transform="translate(-5079.741 -1899.924)" fill="#e0e0e0"/>
            <path id="Trazado_104654" data-name="Trazado 104654" d="M5080.755,1955.142l74.365-42.928c.563-.328,1.014-.1,1.014.51a2.172,2.172,0,0,1-1.014,1.691l-74.365,42.929c-.536.327-1.014.1-1.014-.538A2.2,2.2,0,0,1,5080.755,1955.142Z" transform="translate(-5079.741 -1903.232)" fill="#e0e0e0"/>
            <path id="Trazado_104655" data-name="Trazado 104655" d="M5080.755,1962.854l74.365-42.928c.563-.328,1.014-.1,1.014.537a2.174,2.174,0,0,1-1.014,1.691l-74.365,42.9c-.536.328-1.014.1-1.014-.51A2.2,2.2,0,0,1,5080.755,1962.854Z" transform="translate(-5079.741 -1906.54)" fill="#e0e0e0"/>
          </g>
          <path id="Trazado_104656" data-name="Trazado 104656" d="M5080.755,1978.425l74.365-42.933c.563-.322,1.014-.1,1.014.537a2.147,2.147,0,0,1-1.014,1.687l-74.365,42.96c-.536.322-1.014.091-1.014-.537A2.181,2.181,0,0,1,5080.755,1978.425Z" transform="translate(-5067.385 -1853.681)" fill="#e0e0e0"/>
          <path id="Trazado_104657" data-name="Trazado 104657" d="M5080.755,1986.154l74.365-42.96c.563-.322,1.014-.1,1.014.537a2.147,2.147,0,0,1-1.014,1.686l-74.365,42.917c-.536.323-1.014.091-1.014-.537A2.178,2.178,0,0,1,5080.755,1986.154Z" transform="translate(-5067.385 -1857.366)" fill="#e0e0e0"/>
          <path id="Trazado_104658" data-name="Trazado 104658" d="M5080.755,2008.8l39.856-23.027c.538-.322,1.015-.091,1.015.537a2.178,2.178,0,0,1-1.015,1.686l-39.856,23.026c-.536.323-1.014.092-1.014-.537A2.18,2.18,0,0,1,5080.755,2008.8Z" transform="translate(-5067.385 -1876.617)" fill="#e0e0e0"/>
          <path id="Trazado_104659" data-name="Trazado 104659" d="M5080.755,2028.3l26.481-15.31c.536-.322,1.014-.1,1.014.537a2.148,2.148,0,0,1-1.014,1.686l-26.481,15.31c-.536.322-1.014.091-1.014-.537A2.18,2.18,0,0,1,5080.755,2028.3Z" transform="translate(-5067.385 -1889.071)" fill="#d9a171"/>
          <path id="Trazado_104660" data-name="Trazado 104660" d="M5188.74,1984.158v-2.3c-5.08,2.938-9.22,10.842-9.22,17.619l1.723-.993C5181.243,1992.97,5184.61,1986.547,5188.74,1984.158Zm6.648,6.16c0-4.887-2.98-7.143-6.648-5.026s-6.643,7.813-6.643,12.7,2.98,7.143,6.643,5.027,6.648-7.813,6.648-12.7Zm-12.447,7.185c0-4.248,2.594-9.209,5.783-11.052.226-.129.446-.23.661-.328l-6.4,12.238C5182.972,1998.077,5182.941,1997.792,5182.941,1997.5Zm.247,2.089,7.212-13.774c1.863-.322,3.329.8,3.877,2.981l-7.175,13.7c-1.852.338-3.334-.763-3.9-2.921Zm11.277-9.558c0,.252.032.537.032.794,0,4.253-2.6,9.209-5.789,11.052a5.878,5.878,0,0,1-.606.306Zm-5.725-10.456c-6.025,3.48-10.934,12.851-10.934,20.89s4.909,11.749,10.934,8.264,10.938-12.84,10.938-20.895S5194.754,1976.1,5188.74,1979.577Zm0,28c-5.552,3.222-10.069-.209-10.069-7.615s4.517-16.035,10.069-19.241,10.074.209,10.074,7.615S5194.3,2004.376,5188.74,2007.582Zm7.519-17.758c0,5.515-3.368,11.942-7.519,14.327v2.3c5.085-2.937,9.226-10.837,9.226-17.619Z" transform="translate(-5109.451 -1873.448)" fill="#d9a171" opacity="0.2" style="isolation: isolate"/>
          <path id="Trazado_104661" data-name="Trazado 104661" d="M5132.834,2053.453l-41.01,23.693a.738.738,0,0,1-1.112-.419v-.07a1.237,1.237,0,0,1,.538-1.364l41.011-23.7a.719.719,0,0,1,.99.235.67.67,0,0,1,.084.2v.07A1.2,1.2,0,0,1,5132.834,2053.453Z" transform="translate(-5072.073 -1909.697)" fill="#e0e0e0"/>
          <path id="Trazado_104662" data-name="Trazado 104662" d="M5124.7,2073.236l-28.719,16.647a.827.827,0,0,1-1.138-.27.735.735,0,0,1-.059-.116v-.038a1.071,1.071,0,0,1,.451-1.337l28.724-16.647a.8.8,0,0,1,1.1.258.781.781,0,0,1,.069.139v.038A1.076,1.076,0,0,1,5124.7,2073.236Z" transform="translate(-5073.802 -1918.219)" fill="#e0e0e0"/>
          <path id="Trazado_104663" data-name="Trazado 104663" d="M5207.23,2025.907l-28.719,16.646a.821.821,0,0,1-1.132-.259.72.72,0,0,1-.065-.127v-.037a1.074,1.074,0,0,1,.451-1.337l28.719-16.647a.811.811,0,0,1,1.114.272.961.961,0,0,1,.062.125v.037A1.076,1.076,0,0,1,5207.23,2025.907Z" transform="translate(-5109.205 -1894.389)" fill="#e0e0e0"/>
          <path id="freepik--shadow--inject-204" d="M5058.638,2072.668a39.9,39.9,0,0,0,1.224,8.817l11.551-6.642,3.077-8.947-3.077-.585Z" transform="translate(-5058.332 -1915.627)" fill="#e0e0e0"/>
        </g>
      </g>
    </g>
  </g>
</svg>
