<svg xmlns="http://www.w3.org/2000/svg" width="505" height="550" viewBox="0 0 505 550">
  <g id="Grupo_71174" data-name="Grupo 71174" transform="translate(-915 -1681)">
    <g id="freepik--Floor--inject-46" transform="translate(960.054 2230.465)">
      <path id="Trazado_117284" data-name="Trazado 117284" d="M13823.012,6293.887c0,.154-99.546.268-222.356.268s-222.356-.113-222.356-.268,99.525-.268,222.356-.268S13823.012,6293.744,13823.012,6293.887Z" transform="translate(-13378.3 -6293.62)" fill="#344154"/>
    </g>
    <g id="Grupo_70318" data-name="Grupo 70318">
      <g id="Grupo_70229" data-name="Grupo 70229" transform="translate(0 1283.917)">
        <rect id="Rectángulo_31121" data-name="Rectángulo 31121" width="505" height="521" transform="translate(915 397.083)" fill="none"/>
      </g>
      <g id="freepik--background-complete--inject-46" transform="translate(940.702 1732.828)">
        <path id="Trazado_117267" data-name="Trazado 117267" d="M13565.1,6284.887c-1.626-1.4-5.261-5.827-2.46-10.974,1.03-1.894,3.212-2.831,5.147-3.654a21.128,21.128,0,0,0,5.693-2.956c3.088-2.614,3.933-6.979,5.98-10.479,2.348-4.015,6.732-7.021,11.323-6.815,5.3.248,9.729,4.581,11.736,9.522s2.059,10.428,2.12,15.76c0,2.955-.113,6.28-2.275,8.235-2,1.843-5,1.863-7.71,1.781l-29-.9" transform="translate(-13353.553 -5826.267)" fill="#a66d58"/>
        <path id="Trazado_117268" data-name="Trazado 117268" d="M13621.08,6206.43h-76.261l13.743,81.911a9.128,9.128,0,0,0,6.5,7.289l.269.071c.227.062.442.134.68.175a9.786,9.786,0,0,0,1.545.186v.071l.371-.062h33.971a9.4,9.4,0,0,0,1.863-.186,9.163,9.163,0,0,0,7.711-8l6.63-56.433.3-2.245h0l2.625-22.359Zm-14.412,52.253h-7.823l.792-23.78h9.068Zm2.79-23.78h7.494l-2.77,23.831h-6.732Zm-22.35,50.123-.483-20.65h11.324l-.69,20.65Zm-12.187-20.65h10.952l.474,20.65h-9.82Zm.844,20.65h-9.142c-.865-5.569-2.06-12.816-3.232-20.65h10.809Zm-1.267-26.292-1.843-23.78h12.56l.546,23.78Zm12.023,0-.556-23.78h12.929l-.782,23.78Zm-.68-29.473-.515-22.02h14.515l-.73,22.02Zm-.762,0h-12.868l-1.719-22.02h14.082Zm-13.63,0h-13.62c-.483-3.088-.946-5.919-1.359-8.513-1.42-8.895-1.956-12.25-2.243-13.506h15.514Zm.442,5.693,1.843,23.78h-11.23c-.381-2.419-.762-4.859-1.143-7.3-.886-5.611-1.771-11.221-2.605-16.471Zm-10.14,23.78h-7.36l-3.984-23.78h7.6c1.206,7.31,2.441,15.472,3.779,23.78Zm.9,5.692c1.122,7.144,2.224,14.2,3.232,20.65h-7.113l-3.46-20.65Zm35.382,20.65.689-20.65h7.524l-1.76,20.65Zm1.853-55.816.731-22.02h10.521l-1.885,22.02Zm-46.324-22.02c.3,1.6,1.688,10.294,3.552,22.02h-7.711l-3.7-22.02Zm57.587,77.835h-5.95l1.771-20.65h6.547Zm6.548-55.816h-7.67l1.874-22.02h8.379Z" transform="translate(-13354.047 -5827.549)" fill="#aed3f2"/>
        <rect id="Rectángulo_10374" data-name="Rectángulo 10374" width="39.736" height="78.772" transform="translate(293.694 72.791)" fill="#aed3f2"/>
        <rect id="Rectángulo_10375" data-name="Rectángulo 10375" width="42.937" height="78.772" transform="translate(334.975 72.791)" fill="#aed3f2"/>
        <rect id="Rectángulo_10376" data-name="Rectángulo 10376" width="42.937" height="76.116" transform="translate(334.975 157.07)" fill="#aed3f2"/>
        <path id="Trazado_117269" data-name="Trazado 117269" d="M14102.9,6122.472h45.191v-69.878h1.544v69.878h36.854V6051.04H14102.9Z" transform="translate(-13719.543 -6051.04)" fill="#aed3f2"/>
        <rect id="Rectángulo_10377" data-name="Rectángulo 10377" width="36.802" height="78.772" transform="translate(430.093 72.791)" fill="#aed3f2"/>
        <rect id="Rectángulo_10378" data-name="Rectángulo 10378" width="36.802" height="76.116" transform="translate(430.093 157.07)" fill="#aed3f2"/>
        <rect id="Rectángulo_10379" data-name="Rectángulo 10379" width="39.736" height="76.116" transform="translate(293.694 157.07)" fill="#aed3f2"/>
        <rect id="Rectángulo_10380" data-name="Rectángulo 10380" width="45.223" height="76.116" transform="translate(383.358 157.07)" fill="#aed3f2"/>
        <rect id="Rectángulo_10381" data-name="Rectángulo 10381" width="39.736" height="68.591" transform="translate(293.694 234.545)" fill="#aed3f2"/>
        <rect id="Rectángulo_10382" data-name="Rectángulo 10382" width="36.802" height="68.591" transform="translate(430.093 234.545)" fill="#aed3f2"/>
        <path id="Trazado_117270" data-name="Trazado 117270" d="M14055.536,6122.472v-69.878h1.544v69.878h42.927V6051.04H14015.8v71.432Z" transform="translate(-13722.105 -6051.04)" fill="#aed3f2"/>
        <rect id="Rectángulo_10383" data-name="Rectángulo 10383" width="45.223" height="68.591" transform="translate(383.358 234.545)" fill="#aed3f2"/>
        <rect id="Rectángulo_10384" data-name="Rectángulo 10384" width="42.937" height="68.591" transform="translate(334.975 234.545)" fill="#aed3f2"/>
        <rect id="Rectángulo_10385" data-name="Rectángulo 10385" width="45.223" height="78.772" transform="translate(383.358 72.791)" fill="#aed3f2"/>
        <path id="Trazado_117271" data-name="Trazado 117271" d="M13374.9,6027.58a4.056,4.056,0,0,1-4.952-2.81l-9.089-33.971a3.345,3.345,0,0,1,2.492-4.015l3.189-.854a3.479,3.479,0,0,0,2.543-2.625l.309-1.575a3.478,3.478,0,0,1,2.541-2.625l15.144-4.046a3.5,3.5,0,0,1,3.284.772l1.03.979a3.527,3.527,0,0,0,3.283.761l19.292-5.146a3.334,3.334,0,0,1,4.117,2.234l9.266,34.671a4.035,4.035,0,0,1-2.851,4.941Z" transform="translate(-13359.463 -5834.439)" fill="#aed3f2"/>
        <path id="Trazado_117272" data-name="Trazado 117272" d="M13392.75,5978.048l-12.28,3.274-1.668-1.76a4.354,4.354,0,0,0-4.313-1.143l-11.993,3.222a3.871,3.871,0,0,0-2.893,4.653l.371,1.4,9.882,36.812a4.416,4.416,0,0,0,5.5,2.934h0l48.743-13.095a4.406,4.406,0,0,0,3.294-5.281h0l-9.347-34.753a2.905,2.905,0,0,0-3.551-2.059h0Z" transform="translate(-13359.501 -5834.444)" fill="#d9a171"/>
        <path id="Trazado_117273" data-name="Trazado 117273" d="M13534.406,5975.133a4.9,4.9,0,0,1-3.6-5.9l9.966-41.249a4.045,4.045,0,0,1,4.972-2.822l3.881.938a4.209,4.209,0,0,0,4.221-1.328l1.245-1.482a4.175,4.175,0,0,1,4.21-1.317l18.416,4.447a4.219,4.219,0,0,1,3.088,2.707l.557,1.657a4.279,4.279,0,0,0,3.088,2.708l23.471,5.672a4.046,4.046,0,0,1,3.089,4.777l-10.192,42.207a4.878,4.878,0,0,1-5.878,3.6h0Z" transform="translate(-13354.465 -5835.924)" fill="#aed3f2"/>
        <path id="Trazado_117274" data-name="Trazado 117274" d="M13582.066,5933.019l-14.927-3.644-.731-2.821a5.29,5.29,0,0,0-3.932-3.737l-14.6-3.572a4.685,4.685,0,0,0-5.765,3.273l-.412,1.7-10.819,44.8a5.336,5.336,0,0,0,4.119,6.3l59.294,14.319a5.333,5.333,0,0,0,6.548-3.716l10.221-42.32a3.51,3.51,0,0,0-2.582-4.241h0Z" transform="translate(-13354.461 -5836.005)" fill="#d9a171"/>
        <path id="Trazado_117275" data-name="Trazado 117275" d="M13423.021,5922.684a5.5,5.5,0,0,1-6.053-4.848l-5.146-47.354a4.541,4.541,0,0,1,4.179-4.88h0l4.447-.494a4.7,4.7,0,0,0,3.952-3l.741-2.058a4.717,4.717,0,0,1,3.954-3l21.144-2.326a4.713,4.713,0,0,1,4.242,1.7l1.225,1.534a4.779,4.779,0,0,0,4.242,1.709l26.949-2.964a4.541,4.541,0,0,1,5.148,3.84h0l5.322,48.383a5.458,5.458,0,0,1-4.829,6.043h0Z" transform="translate(-13357.962 -5837.9)" fill="#aed3f2"/>
        <path id="Trazado_117276" data-name="Trazado 117276" d="M13457.221,5859.916l-17.1,1.843-1.843-2.687a5.929,5.929,0,0,0-5.579-2.46l-16.8,1.843a5.272,5.272,0,0,0-4.85,5.652l.218,1.956,5.651,51.471a5.98,5.98,0,0,0,6.732,5.023l68.066-7.483a5.982,5.982,0,0,0,5.508-6.424h0l-5.344-48.579a3.931,3.931,0,0,0-4.344-3.49h0Z" transform="translate(-13357.985 -5837.846)" fill="#f2e9e4"/>
        <path id="Trazado_117277" data-name="Trazado 117277" d="M13459.153,5889.757a6.66,6.66,0,0,0,3.264-6.547,6.248,6.248,0,1,0-12.5-.062,6.777,6.777,0,0,0,.144,1.369,6.652,6.652,0,0,0,4.621,5.733c-9.367,2.481-7.8,12.8-7.8,12.8l22.555-2.367S13468.83,5890.148,13459.153,5889.757Z" transform="translate(-13356.934 -5837.246)" fill="#aed3f2"/>
        <path id="Trazado_117278" data-name="Trazado 117278" d="M13379.571,5913.784a11.571,11.571,0,0,1,2.963-.9l.907-2.728,4.734.474.351,2.851a10.965,10.965,0,0,1,2.728,1.473l2.574-1.287,3.006,3.675-1.761,2.265a11.337,11.337,0,0,1,.9,2.965l2.716.916-.474,4.725-2.851.36a11.586,11.586,0,0,1-1.462,2.728l1.287,2.615-3.676,3.016-2.265-1.771a12.434,12.434,0,0,1-2.976.9l-.905,2.729-4.766-.525-.36-2.852a12.546,12.546,0,0,1-2.728-1.492l-2.574,1.276-3.006-3.675,1.771-2.265a11.529,11.529,0,0,1-.9-2.964l-2.729-.917.474-4.725,2.851-.35a11.294,11.294,0,0,1,1.461-2.739l-1.276-2.563,3.676-3.017Zm1.77,6.578a5.147,5.147,0,1,0,7.206.763h0a5.145,5.145,0,0,0-7.226-.762Z" transform="translate(-13359.19 -5836.268)" fill="#6595bf"/>
        <path id="Trazado_117279" data-name="Trazado 117279" d="M13403.566,6101.437a3.844,3.844,0,0,0,1.235-.206,2.469,2.469,0,0,0,1.514-1.812c.061-.34.092-.721.143-1.112.4-3.191.969-7.751,1.678-13.383l.566-4.426c.093-.772.2-1.554.3-2.357l.154-1.2a5.865,5.865,0,0,0,.092-1.184,2.336,2.336,0,0,0-1.256-1.842,2.962,2.962,0,0,0-1.183-.3l-1.318-.174-5.445-.7-24.265-3.16a2.3,2.3,0,0,0-2.367,1.3,2.973,2.973,0,0,0-.205.689l-.1.792c-.072.525-.134,1.03-.206,1.575-.268,2.059-.546,4.118-.813,6.176-.546,4.056-1.029,7.968-1.554,11.7-.124.927-.248,1.843-.36,2.749a2.321,2.321,0,0,0,1.029,2.059,2.391,2.391,0,0,0,1.144.4l1.286.174,2.532.339,9.266,1.246,13.382,1.843,3.623.525.938.154a.859.859,0,0,1,.319.072h-.319l-.947-.092-3.644-.432-13.383-1.668-9.265-1.184-2.533-.33-1.286-.165a2.82,2.82,0,0,1-2.563-3.017c.113-.917.226-1.843.35-2.78.483-3.727,1.029-7.638,1.524-11.694q.4-3.089.813-6.177c.062-.525.134-1.029.206-1.575l.1-.793a2.961,2.961,0,0,1,.247-.844,2.838,2.838,0,0,1,2.935-1.595l24.252,3.2,5.446.731,1.317.175a3.474,3.474,0,0,1,1.327.351,2.791,2.791,0,0,1,1.5,2.2,5.371,5.371,0,0,1-.1,1.287,8.076,8.076,0,0,1-.165,1.214c-.1.8-.207,1.585-.319,2.357-.206,1.534-.4,3.006-.6,4.417l-1.843,13.382c-.061.391-.092.751-.164,1.112a2.628,2.628,0,0,1-1.658,1.884,2.243,2.243,0,0,1-.946.145,1.779,1.779,0,0,1-.4-.052Z" transform="translate(-13359.2 -5831.594)" fill="#aed3f2"/>
        <path id="Trazado_117280" data-name="Trazado 117280" d="M13404.218,6096.956a3.544,3.544,0,0,1-.309-.391l-.792-1.184c-.711-1.112-1.668-2.594-2.831-4.385l-1.936-3.088-.524-.824a.752.752,0,0,0-.679-.329c-.278,0-.465.186-.753.432l-.823.71-1.7,1.452a3.829,3.829,0,0,1-.506.381,1.3,1.3,0,0,1-.709.134,1.148,1.148,0,0,1-.67-.288,2.108,2.108,0,0,1-.248-.268l-.164-.248-2.7-4.118-1.369-2.059-.67-1.029a.73.73,0,0,0-.762-.349.613.613,0,0,0-.38.194l-.413.412-.824.813-1.595,1.575-5.519,5.435-3.768,3.665-1.029.967a.246.246,0,0,1-.383.3.247.247,0,0,1,.3-.387l1.028-1.03,3.635-3.747c1.564-1.585,3.407-3.449,5.436-5.518l1.585-1.585.813-.823.423-.412a1.133,1.133,0,0,1,.646-.34,1.243,1.243,0,0,1,1.3.577l.672,1.029,1.369,2.059,2.7,4.118a.845.845,0,0,0,1.03.544.855.855,0,0,0,.464-.359l1.708-1.441.833-.689a2.834,2.834,0,0,1,.433-.35,1.1,1.1,0,0,1,.607-.2,1.2,1.2,0,0,1,1.029.546c.185.288.359.565.524.843l1.884,3.088,2.688,4.478.711,1.235C13404.115,6096.791,13404.218,6096.946,13404.218,6096.956Z" transform="translate(-13359.131 -5831.24)" fill="#aed3f2"/>
        <path id="Trazado_117281" data-name="Trazado 117281" d="M13396.481,6080.106a3.662,3.662,0,0,0-.1-.741,2.993,2.993,0,0,0-.916-1.689,2.863,2.863,0,0,0-2.615-.7,2.811,2.811,0,0,0-2.109,3.366,2.841,2.841,0,0,0,1.421,1.852,2.881,2.881,0,0,0,2.717,0,3.09,3.09,0,0,0,1.317-1.39c.2-.433.237-.7.289-.69a1.388,1.388,0,0,1-.1.762,3,3,0,0,1-1.317,1.646,3.274,3.274,0,0,1-4.9-3.256,3.286,3.286,0,0,1,2.631-2.8,3.193,3.193,0,0,1,2.984.917,2.97,2.97,0,0,1,.812,1.966,1.344,1.344,0,0,1-.1.752Z" transform="translate(-13358.601 -5831.375)" fill="#aed3f2"/>
        <path id="Trazado_117282" data-name="Trazado 117282" d="M13559.112,5903.963a3.327,3.327,0,0,0,1.214.329,2.583,2.583,0,0,0,1.431-.391,2.279,2.279,0,0,0,.688-.648c.2-.278.382-.618.588-.947l7.011-11.509,2.326-3.809c.412-.659.823-1.338,1.245-2.059l.639-1.03a5.92,5.92,0,0,0,.564-1.029,2.325,2.325,0,0,0-.39-2.2,3.048,3.048,0,0,0-.956-.751l-1.133-.689-4.674-2.882-20.856-12.827a2.285,2.285,0,0,0-3.14.762h0l-.423.679-.854,1.379c-1.111,1.792-2.214,3.562-3.284,5.3-2.161,3.479-4.241,6.835-6.177,10.037l-1.451,2.357a2.358,2.358,0,0,0,.917,3.18l1.11.69,2.161,1.338,7.854,4.89,11.427,7.206,3.088,1.966.792.515.258.2-.289-.144-.823-.474-3.14-1.884-11.508-7.073-7.9-4.859-2.182-1.328-1.112-.689a2.994,2.994,0,0,1-1.029-1.03,2.77,2.77,0,0,1-.072-2.82c.474-.793.957-1.585,1.451-2.388l6.177-10.047,3.284-5.322.834-1.349.412-.68a3.61,3.61,0,0,1,.574-.669,2.844,2.844,0,0,1,3.337-.257l20.8,12.867,4.664,2.9,1.132.7a3.185,3.185,0,0,1,1.029.864,2.752,2.752,0,0,1,.453,2.616,4.818,4.818,0,0,1-.617,1.132l-.648,1.029c-.422.69-.845,1.359-1.256,2.059-.812,1.317-1.605,2.583-2.357,3.789l-7.082,11.406c-.227.339-.4.659-.617.958a2.664,2.664,0,0,1-2.286,1.029,2.452,2.452,0,0,1-.927-.257A2.389,2.389,0,0,1,13559.112,5903.963Z" transform="translate(-13354.464 -5837.668)" fill="#6595bf"/>
        <path id="Trazado_117283" data-name="Trazado 117283" d="M13555.848,5881.626l1.9,3.809a1.032,1.032,0,0,1-1.029,1.555l-4.334-.134-4.21-.124a1.091,1.091,0,0,1-1.03-1.153,1.127,1.127,0,0,1,.176-.515l2.377-3.633,2.4-3.665a1.023,1.023,0,0,1,1.864.113Z" transform="translate(-13353.979 -5837.237)" fill="#6595bf"/>
      </g>
      <g id="freepik--filing-cabinet--inject-46" transform="translate(982.805 1836.101)">
        <rect id="Rectángulo_10387" data-name="Rectángulo 10387" width="156.452" height="365.622" transform="translate(-0.001)" fill="#5e6178"/>
        <g id="Grupo_59925" data-name="Grupo 59925" transform="translate(-0.001)" opacity="0.3">
          <rect id="Rectángulo_10388" data-name="Rectángulo 10388" width="42.773" height="365.622" fill="#344154"/>
        </g>
        <path id="Trazado_117302" data-name="Trazado 117302" d="M13549.821,6035.321v-19.807c0-12.621-.072-30.718-.113-52.717l.216.216-102.057.051h0l.267-.267v72.533l-.237-.247,73.573.124,20.979.062h.1l-20.918.072-73.738.124h-.247V5962.53H13550.2v.216c-.051,22.05-.093,40.147-.113,52.861,0,6.29,0,11.21-.062,14.577v3.809a3.067,3.067,0,0,1-.2,1.328Z" transform="translate(-13399.011 -5937.999)" fill="#344154"/>
        <g id="Grupo_59926" data-name="Grupo 59926" transform="translate(79.985 69.404)" opacity="0.3">
          <rect id="Rectángulo_10389" data-name="Rectángulo 10389" width="41.548" height="7.031" fill="#344154"/>
        </g>
        <g id="Grupo_59927" data-name="Grupo 59927" transform="translate(47.558 102.809)" opacity="0.4">
          <rect id="Rectángulo_10390" data-name="Rectángulo 10390" width="88.973" height="69.126" fill="#344154"/>
        </g>
        <path id="Trazado_117303" data-name="Trazado 117303" d="M13498.593,6041.23h-16.954l-1.029-1.7a3.693,3.693,0,0,0-3.2-1.833h-12.445a3.717,3.717,0,0,0-3.717,3.531h-4.437a3.479,3.479,0,0,0-3.479,3.479h0v8.626h48.692v-8.626a3.469,3.469,0,0,0-3.43-3.479Z" transform="translate(-13398.843 -5935.786)" fill="#aed3f2"/>
        <path id="Trazado_117304" data-name="Trazado 117304" d="M13507.192,6041.23h-16.9l-1.029-1.7a3.67,3.67,0,0,0-3.2-1.833h-12.444a3.7,3.7,0,0,0-3.706,3.531h-4.447a3.47,3.47,0,0,0-3.47,3.479v8.626h48.682v-8.626a3.48,3.48,0,0,0-3.479-3.479Z" transform="translate(-13398.588 -5935.786)" fill="#aed3f2"/>
        <path id="Trazado_117305" data-name="Trazado 117305" d="M13518.492,6041.23h-16.913l-1.029-1.7a3.716,3.716,0,0,0-3.211-1.833H13484.9a3.7,3.7,0,0,0-3.707,3.531h-4.436a3.479,3.479,0,0,0-3.479,3.479h0v8.626h48.682v-8.626a3.469,3.469,0,0,0-3.471-3.48Z" transform="translate(-13398.256 -5935.786)" fill="#aed3f2"/>
        <path id="Trazado_117306" data-name="Trazado 117306" d="M13479.1,6086.26V6044.8a3.582,3.582,0,0,1,3.736-3.417h3.572a3.769,3.769,0,0,0,3.386-2l.773-1.523a3.758,3.758,0,0,1,3.388-1.987h16.954a3.778,3.778,0,0,1,3.223,1.688l.833,1.287a3.853,3.853,0,0,0,3.212,1.688h21.618a3.571,3.571,0,0,1,3.735,3.417v42.3Z" transform="translate(-13398.085 -5935.84)" fill="#d9a171"/>
        <g id="Grupo_59928" data-name="Grupo 59928" transform="translate(81.015 100.039)" opacity="0.3">
          <path id="Trazado_117307" data-name="Trazado 117307" d="M13479.1,6086.26V6044.8a3.582,3.582,0,0,1,3.736-3.417h3.572a3.769,3.769,0,0,0,3.386-2l.773-1.523a3.758,3.758,0,0,1,3.388-1.987h16.954a3.778,3.778,0,0,1,3.223,1.688l.833,1.287a3.853,3.853,0,0,0,3.212,1.688h21.618a3.571,3.571,0,0,1,3.735,3.417v42.3Z" transform="translate(-13479.1 -6035.879)" fill="#344154"/>
        </g>
        <path id="Trazado_117308" data-name="Trazado 117308" d="M13492.2,6053.075V6020.36a4.877,4.877,0,0,1,4.869-4.89h52.161a4.879,4.879,0,0,1,4.89,4.89h0v31.809Z" transform="translate(-13397.699 -5936.441)" fill="#ffbf9d"/>
        <path id="Trazado_117309" data-name="Trazado 117309" d="M13494.2,6062.741v-41.486a3.589,3.589,0,0,1,3.735-3.428h3.553a3.777,3.777,0,0,0,3.4-1.987l.762-1.523a3.763,3.763,0,0,1,3.4-2H13526a3.8,3.8,0,0,1,3.212,1.688l.833,1.287a3.819,3.819,0,0,0,3.223,1.688h21.617a3.572,3.572,0,0,1,3.736,3.418v42.3Z" transform="translate(-13397.641 -5936.533)" fill="#d9a171"/>
        <path id="Trazado_117310" data-name="Trazado 117310" d="M13494.2,6062.746h4.766l13.249-.062,46.417-.124-.247.247v-41.3a11.9,11.9,0,0,0,0-1.481,3.084,3.084,0,0,0-1.617-2.214,3.517,3.517,0,0,0-1.246-.422,10.464,10.464,0,0,0-1.378,0H13533.4a4.308,4.308,0,0,1-1.4-.216,3.967,3.967,0,0,1-2.183-1.709l-.71-1.112a3.244,3.244,0,0,0-.822-.9,3.627,3.627,0,0,0-2.276-.731h-17.387a3.524,3.524,0,0,0-1.986.906c-1.091.937-1.2,2.831-2.625,3.768a4.183,4.183,0,0,1-2.223.771h-2.234a18.542,18.542,0,0,0-2.142,0,3.463,3.463,0,0,0-1.822.813,3.084,3.084,0,0,0-1.027,1.637,10.7,10.7,0,0,0-.094,2.008v7.8c0,9.955-.072,18.015-.1,23.615v.124c0-5.611-.062-13.691-.1-23.677v-7.854a10.266,10.266,0,0,1,.093-2.12,3.547,3.547,0,0,1,.957-1.895,4.119,4.119,0,0,1,2.059-.916,19.7,19.7,0,0,1,2.214-.062h2.213a3.691,3.691,0,0,0,1.978-.688c1.255-.793,1.306-2.554,2.573-3.748a4.115,4.115,0,0,1,2.243-1.03c.845-.072,1.605,0,2.419,0h15.029a4.036,4.036,0,0,1,2.585.823,3.611,3.611,0,0,1,.945,1.03l.721,1.112a3.474,3.474,0,0,0,1.9,1.493,3.608,3.608,0,0,0,1.238.186h20.731a7.753,7.753,0,0,1,1.463.051,4.109,4.109,0,0,1,1.43.484,3.664,3.664,0,0,1,1.874,2.594,11.167,11.167,0,0,1,0,1.565v41.476h-.247l-46.572-.124-13.2-.062h-4.375Z" transform="translate(-13397.641 -5936.539)" fill="#344154"/>
        <path id="Trazado_117311" data-name="Trazado 117311" d="M13523.191,6016.008a87.676,87.676,0,0,1-13.692,0A87.676,87.676,0,0,1,13523.191,6016.008Z" transform="translate(-13397.19 -5936.433)" fill="#ffbf9d"/>
        <path id="Trazado_117312" data-name="Trazado 117312" d="M13513.7,6079.679v-41.424c0-1.884,1.894-3.418,4.23-3.418h4.036a4.4,4.4,0,0,0,3.829-1.987l.874-1.5a4.371,4.371,0,0,1,3.829-1.987h19.158a4.435,4.435,0,0,1,3.644,1.688l.938,1.287a4.547,4.547,0,0,0,3.635,1.689h24.388c2.336,0,4.22,1.534,4.22,3.417v42.289Z" transform="translate(-13397.066 -5936.032)" fill="#d9a171"/>
        <path id="Trazado_117313" data-name="Trazado 117313" d="M13513.7,6079.688h5.414l15.029-.072,52.367-.113-.247.247v-42.67a3.085,3.085,0,0,0-1.534-2.2,4.736,4.736,0,0,0-2.79-.658h-23.677a5.458,5.458,0,0,1-2.872-.648,4.327,4.327,0,0,1-1.162-.948c-.319-.4-.567-.761-.855-1.152a3.838,3.838,0,0,0-2.06-1.626,6.76,6.76,0,0,0-2.646-.289h-18.457a4.431,4.431,0,0,0-2.232.71,3.475,3.475,0,0,0-.866.783,9.372,9.372,0,0,0-.617,1.029c-.206.36-.391.7-.617,1.03a3.945,3.945,0,0,1-.875.927,4.958,4.958,0,0,1-2.284.925c-1.637.1-3.089,0-4.674,0a4.219,4.219,0,0,0-3.694,1.75,3.079,3.079,0,0,0-.443,1.967v6.238c0,10.7-.083,19.343-.1,25.354v.114c0-6.022-.062-14.7-.1-25.417v-6.259a3.622,3.622,0,0,1,.493-2.192,4.694,4.694,0,0,1,4.047-1.956c1.5,0,3.088,0,4.612-.062a4.381,4.381,0,0,0,2.059-.843,5.135,5.135,0,0,0,1.37-1.864,11.932,11.932,0,0,1,.657-1.03,3.575,3.575,0,0,1,.97-.875,4.916,4.916,0,0,1,2.459-.8h18.529a7.048,7.048,0,0,1,2.821.319,4.357,4.357,0,0,1,2.265,1.8c.277.37.556.771.823,1.122a3.968,3.968,0,0,0,1.029.823,4.966,4.966,0,0,0,2.625.577h23.677a5.3,5.3,0,0,1,3.087.731,3.555,3.555,0,0,1,1.771,2.615v42.886h-.247l-52.5-.124-15.092-.144h-5.457Z" transform="translate(-13397.068 -5936.041)" fill="#344154"/>
        <path id="Trazado_117314" data-name="Trazado 117314" d="M13548.316,6033.468a152.931,152.931,0,0,1-18.077,0A152.514,152.514,0,0,1,13548.316,6033.468Z" transform="translate(-13396.58 -5935.918)" fill="#ffbf9d"/>
        <rect id="Rectángulo_10391" data-name="Rectángulo 10391" width="64.751" height="55.816" transform="translate(47.558 116.624)" fill="#5e6178"/>
        <g id="Grupo_59929" data-name="Grupo 59929" transform="translate(47.558 116.624)" opacity="0.3">
          <rect id="Rectángulo_10392" data-name="Rectángulo 10392" width="64.751" height="55.816" fill="#344154"/>
        </g>
        <rect id="Rectángulo_10393" data-name="Rectángulo 10393" width="102.068" height="72.534" transform="translate(112.31 101.903)" fill="#5e6178"/>
        <path id="Trazado_117315" data-name="Trazado 117315" d="M13611.622,6110.233v-19.775c0-12.621-.072-30.729-.113-52.717l.216.216-102.057.051h0l.268-.268v72.523l-.248-.237,73.573.113,20.979.072h.1l-20.918.062-73.738.124h-.3V6037.36h102.552v.227c0,22.05-.093,40.148-.114,52.851,0,6.29,0,11.211-.061,14.577v3.809a9.9,9.9,0,0,1-.145,1.41Z" transform="translate(-13397.193 -5935.796)" fill="#344154"/>
        <g id="Grupo_59930" data-name="Grupo 59930" transform="translate(145.149 149.679)" opacity="0.3">
          <rect id="Rectángulo_10394" data-name="Rectángulo 10394" width="47.354" height="7.031" fill="#344154"/>
        </g>
        <path id="Trazado_117316" data-name="Trazado 117316" d="M13549.821,6188.714V6168.9c0-12.621-.072-30.729-.113-52.717l.216.216-102.057.051h0l.267-.267v72.533l-.237-.247,73.573.124,20.979.062h.1l-20.918.062-73.738.124h-.247V6115.8h.277l102.058.051h.216v.216c-.051,22.05-.093,40.148-.113,52.851,0,6.3,0,11.221-.062,14.587v3.809A4.2,4.2,0,0,1,13549.821,6188.714Z" transform="translate(-13399.011 -5933.488)" fill="#344154"/>
        <g id="Grupo_59931" data-name="Grupo 59931" transform="translate(79.985 227.267)" opacity="0.3">
          <rect id="Rectángulo_10395" data-name="Rectángulo 10395" width="43.174" height="7.031" fill="#344154"/>
        </g>
        <path id="Trazado_117317" data-name="Trazado 117317" d="M13549.821,6265.4v-19.817c0-12.62-.072-30.718-.113-52.717l.216.216h-102.057l.267-.268v72.534l-.237-.248,73.573.124,20.979.062h.072l-20.918.062-73.737.124h-.248V6192.38h102.552v.216c-.051,22.05-.092,40.148-.113,52.861,0,6.29,0,11.211-.062,14.577v3.809a5.746,5.746,0,0,1-.176,1.553Z" transform="translate(-13399.011 -5931.234)" fill="#344154"/>
        <g id="Grupo_59932" data-name="Grupo 59932" transform="translate(79.985 306.204)" opacity="0.3">
          <rect id="Rectángulo_10396" data-name="Rectángulo 10396" width="43.174" height="7.031" fill="#344154"/>
        </g>
      </g>
      <g id="freepik--speech-bubble--inject-46" transform="translate(1276.407 1772.355)">
        <path id="Trazado_117334" data-name="Trazado 117334" d="M13692.7,5927.457a3.418,3.418,0,1,1-3.418-3.417A3.418,3.418,0,0,1,13692.7,5927.457Z" transform="translate(-13685.602 -5875.386)" fill="#ffbf9d"/>
        <path id="Trazado_117335" data-name="Trazado 117335" d="M13692.7,5927.462a7.583,7.583,0,0,0-.205-.8,3.416,3.416,0,0,0-1.257-1.759,3.236,3.236,0,0,0-3.09-.414,3.182,3.182,0,0,0,0,5.961,3.233,3.233,0,0,0,3.088-.412,3.5,3.5,0,0,0,1.256-1.761c.154-.5.164-.813.206-.813a1.559,1.559,0,0,1,0,.865,3.393,3.393,0,0,1-1.236,2.059,3.579,3.579,0,0,1-3.429.576,3.654,3.654,0,0,1,0-6.886,3.519,3.519,0,0,1,3.428.577,3.361,3.361,0,0,1,1.235,2.059,1.237,1.237,0,0,1,0,.75Z" transform="translate(-13685.61 -5875.391)" fill="#344154"/>
        <circle id="Elipse_4276" data-name="Elipse 4276" cx="28.278" cy="28.278" r="28.278" transform="translate(8.462 0.209)" fill="#ffbf9d"/>
        <path id="Trazado_117336" data-name="Trazado 117336" d="M13750.426,5905.274a2.211,2.211,0,0,1-.052-.453l-.1-1.348a10.064,10.064,0,0,0-.062-1.029,9.155,9.155,0,0,0-.175-1.174,21.277,21.277,0,0,0-.6-2.913,27.047,27.047,0,0,0-3.087-7.485,28.086,28.086,0,0,0-33.715-11.972,30.4,30.4,0,0,0-3.654,1.606c-.587.329-1.153.7-1.74,1.029a13.507,13.507,0,0,0-1.7,1.164,27.616,27.616,0,0,0-5.97,6.032,27.112,27.112,0,0,0-4.006,7.721,27.8,27.8,0,0,0,0,17.686,27.144,27.144,0,0,0,4,7.72,31.887,31.887,0,0,0,2.75,3.243,33.017,33.017,0,0,0,3.169,2.708,16.043,16.043,0,0,0,1.7,1.163c.587.35,1.152.731,1.739,1.03a31.972,31.972,0,0,0,3.653,1.605,28.022,28.022,0,0,0,33.675-11.961,27.26,27.26,0,0,0,3.087-7.5,22.1,22.1,0,0,0,.6-2.914c.063-.421.145-.812.176-1.173s.052-.69.062-1.03l.1-1.338a2.177,2.177,0,0,1,.051-.464v2.841a10.009,10.009,0,0,1-.153,1.194,20.52,20.52,0,0,1-.558,2.934,26.508,26.508,0,0,1-3.089,7.587,28.38,28.38,0,0,1-34.135,12.282,30.757,30.757,0,0,1-3.727-1.627c-.607-.329-1.185-.71-1.781-1.029a16.29,16.29,0,0,1-1.72-1.184,26.042,26.042,0,0,1-6.042-6.053,27.626,27.626,0,0,1-4.118-7.865,28.393,28.393,0,0,1,0-18.015,27.66,27.66,0,0,1,4.12-7.865,34.528,34.528,0,0,1,2.8-3.3,31.512,31.512,0,0,1,3.265-2.728,13.7,13.7,0,0,1,1.719-1.184c.6-.35,1.185-.73,1.781-1.029a29.157,29.157,0,0,1,3.728-1.627,28.114,28.114,0,0,1,34.135,12.178,26.254,26.254,0,0,1,3.089,7.587,19.963,19.963,0,0,1,.558,2.944c.05.422.122.823.153,1.184s0,.7,0,1.029v1.318a.982.982,0,0,0,.073.474Z" transform="translate(-13685.377 -5876.777)" fill="#344154"/>
        <path id="Trazado_117337" data-name="Trazado 117337" d="M13720.044,5910.639a8.565,8.565,0,1,1,8.565-8.564,8.564,8.564,0,0,1-8.565,8.564Zm0-16.09a7.535,7.535,0,1,0,7.536,7.535h0a7.526,7.526,0,0,0-7.537-7.535Z" transform="translate(-13684.849 -5876.284)" fill="#6595bf"/>
        <rect id="Rectángulo_10401" data-name="Rectángulo 10401" width="1.029" height="8.349" transform="matrix(0.809, -0.587, 0.587, 0.809, 39.187, 32.859)" fill="#6595bf"/>
        <path id="Trazado_117338" data-name="Trazado 117338" d="M13715.931,5898.76a4.931,4.931,0,0,0,.844,6.917,5.173,5.173,0,0,0,.63.422" transform="translate(-13684.748 -5876.13)" fill="#ffbf9d"/>
        <path id="Trazado_117339" data-name="Trazado 117339" d="M13717.38,5906.1a2.73,2.73,0,0,1-1.123-.607,4.778,4.778,0,0,1-1.184-5.734,2.355,2.355,0,0,1,.8-1.029s-.207.453-.454,1.153a5.316,5.316,0,0,0-.217,2.811,5.482,5.482,0,0,0,1.307,2.5C13717.071,5905.761,13717.483,5906.019,13717.38,5906.1Z" transform="translate(-13684.757 -5876.131)" fill="#344154"/>
      </g>
      <g id="freepik--Character--inject-46" transform="translate(1146.145 1796.087)">
        <path id="Trazado_117340" data-name="Trazado 117340" d="M13693.287,5997.8c-1.533-27.568-13.855-40.384-17.5-61.931-1.812-10.819-1.348-21.9-9.018-29.729-2.759-2.821-7.905-5.724-11.828-6.177-2.142-.268-5.477-.186-7.422.731-3.635-.535-5.261-.71-7.823,0a21.564,21.564,0,0,0-9.266,5.61c-5.466,6.671-6.588,15.843-6.681,24.47a143.743,143.743,0,0,0,5.754,41.239,5.847,5.847,0,0,0,1.925,3.387,5.658,5.658,0,0,0,4.119.422,82.732,82.732,0,0,0,15.564-4.056,5.442,5.442,0,0,0,1.977-1.03c1.389-1.42.8-3.768.165-5.651l13.969-11.952c-.927,8.318-3.6,16.337-4.787,24.614a69.746,69.746,0,0,0,2.267,29.606,44.746,44.746,0,0,1,16.47-.371c1.307.207,3.438,10.573,4.6,9.925C13687.935,6015.723,13693.493,6000.107,13693.287,5997.8Z" transform="translate(-13528.169 -5899.83)" fill="#344154"/>
        <path id="Trazado_117341" data-name="Trazado 117341" d="M13643.636,5906.362l3.963-.442,15.133,6.094a4.232,4.232,0,0,1,3.994,4.118l-.134,49.32a13.818,13.818,0,0,1-2.667,8.9l-2.13,2.81c-4.849,6.394-14.813,5.868-18.654-1.184a5.811,5.811,0,0,1-.535-1.276,8.314,8.314,0,0,1-.226-1.1,35.047,35.047,0,0,1-.474-7.4c-.267-4.366-.359-6.178-.359-6.105s-9.265-1.029-11.777-12.971c-1.245-5.92-1.441-15.72-1.338-23.739C13628.5,5916.152,13634.68,5906.353,13643.636,5906.362Z" transform="translate(-13528.032 -5899.651)" fill="#ffbe9d"/>
        <path id="Trazado_117342" data-name="Trazado 117342" d="M13631.2,5932.041a1.565,1.565,0,0,0,1.564,1.482,1.474,1.474,0,0,0,1.514-1.431h0a1.536,1.536,0,0,0-1.554-1.482,1.474,1.474,0,0,0-1.524,1.441Z" transform="translate(-13527.948 -5898.924)" fill="#344154"/>
        <path id="Trazado_117343" data-name="Trazado 117343" d="M13646.2,5931.041a1.545,1.545,0,0,0,1.565,1.482,1.473,1.473,0,0,0,1.511-1.432h0a1.533,1.533,0,0,0-1.554-1.482,1.472,1.472,0,0,0-1.524,1.42Z" transform="translate(-13527.507 -5898.954)" fill="#344154"/>
        <path id="Trazado_117344" data-name="Trazado 117344" d="M13630.7,5927.731c.2.2,1.318-.731,2.975-.8s2.914.68,3.089.473-.124-.453-.67-.8a4.214,4.214,0,0,0-2.48-.638,4.113,4.113,0,0,0-2.357.9C13630.7,5927.278,13630.6,5927.648,13630.7,5927.731Z" transform="translate(-13527.963 -5899.062)" fill="#344154"/>
        <path id="Trazado_117345" data-name="Trazado 117345" d="M13645.9,5926.9c.206.186,1.3-.762,2.955-.9s2.923.607,3.088.391-.134-.443-.7-.782a4.191,4.191,0,0,0-4.829.4C13646,5926.451,13645.8,5926.821,13645.9,5926.9Z" transform="translate(-13527.517 -5899.089)" fill="#344154"/>
        <path id="Trazado_117346" data-name="Trazado 117346" d="M13641.523,5939.785a11.029,11.029,0,0,0-2.719-.349c-.422,0-.822-.083-.9-.371a2.062,2.062,0,0,1,.215-1.266c.35-1.029.711-2.131,1.092-3.284,1.5-4.663,2.572-8.493,2.377-8.555s-1.555,3.675-3.088,8.349l-1.029,3.294a2.415,2.415,0,0,0-.145,1.677,1.034,1.034,0,0,0,.73.577,2.872,2.872,0,0,0,.721.062,10.268,10.268,0,0,0,2.748-.135Z" transform="translate(-13527.771 -5899.062)" fill="#344154"/>
        <path id="Trazado_117347" data-name="Trazado 117347" d="M13641.2,5958.625a30.757,30.757,0,0,0,15.853-5.085s-3.622,8.5-15.687,7.978Z" transform="translate(-13527.655 -5898.249)" fill="#eb996e"/>
        <path id="Trazado_117348" data-name="Trazado 117348" d="M13642.2,5943.276a2.964,2.964,0,0,1,2.625-1.245,2.662,2.662,0,0,1,1.926.915,1.7,1.7,0,0,1,.235,1.967,2.059,2.059,0,0,1-2.141.659,6.405,6.405,0,0,1-2.184-1.163,1.78,1.78,0,0,1-.494-.463.557.557,0,0,1,0-.617" transform="translate(-13527.629 -5898.588)" fill="#eb996e"/>
        <path id="Trazado_117349" data-name="Trazado 117349" d="M13646.344,5940.24c-.267,0-.185,1.792-1.657,3.15s-3.4,1.246-3.4,1.5.442.329,1.256.309a4.537,4.537,0,0,0,2.841-1.153,3.884,3.884,0,0,0,1.267-2.635C13646.652,5940.693,13646.446,5940.24,13646.344,5940.24Z" transform="translate(-13527.651 -5898.641)" fill="#344154"/>
        <path id="Trazado_117350" data-name="Trazado 117350" d="M13645.9,5921.059c.248.4,1.627-.154,3.356-.34s3.222,0,3.346-.453c0-.206-.278-.566-.937-.854a5.059,5.059,0,0,0-2.646-.36,5.008,5.008,0,0,0-2.459.958C13646,5920.461,13645.8,5920.884,13645.9,5921.059Z" transform="translate(-13527.518 -5899.266)" fill="#344154"/>
        <path id="Trazado_117351" data-name="Trazado 117351" d="M13630.3,5921.633c.309.371,1.431-.083,2.8-.165s2.543.124,2.8-.288c.1-.2-.1-.556-.628-.9a3.776,3.776,0,0,0-2.308-.495,3.859,3.859,0,0,0-2.2.865C13630.3,5921.036,13630.2,5921.458,13630.3,5921.633Z" transform="translate(-13527.977 -5899.244)" fill="#344154"/>
        <path id="Trazado_117352" data-name="Trazado 117352" d="M13663.3,5935.558c0-.885.886-3.088,1.76-3.233,2.337-.484,6.6-.5,6.938,5.477.464,8.173-7.844,6.949-7.875,6.722S13663.506,5938.646,13663.3,5935.558Z" transform="translate(-13527.005 -5898.88)" fill="#ffbe9d"/>
        <path id="Trazado_117353" data-name="Trazado 117353" d="M13666.4,5941.188a2.211,2.211,0,0,0,.392.186,1.368,1.368,0,0,0,1.029,0c.844-.37,1.492-1.78,1.451-3.263a4.62,4.62,0,0,0-.515-2.058,1.631,1.631,0,0,0-1.131-1.031.732.732,0,0,0-.824.443c-.093.237,0,.391-.072.412s-.186-.134-.144-.474a.928.928,0,0,1,.3-.525,1.034,1.034,0,0,1,.772-.257,2.061,2.061,0,0,1,1.564,1.184,4.818,4.818,0,0,1,.617,2.254c0,1.647-.711,3.243-1.874,3.645a1.523,1.523,0,0,1-1.318-.144A.441.441,0,0,1,13666.4,5941.188Z" transform="translate(-13526.913 -5898.807)" fill="#eb996e"/>
        <path id="Trazado_117354" data-name="Trazado 117354" d="M13668.818,5924.166c.576-3.263-.648-7.833-1.492-11.015a11.867,11.867,0,0,0-4.9-6.435,19.884,19.884,0,0,0-12.354-3.727l-1.636.536c-2.419-.2-5,.319-6.332,2.275h0v-2.192c-4.406.545-8.235,3.458-10.8,7.082s-3.974,7.906-5.147,12.188c5.405-4.838,11.263-10.181,15.771-15.884,4.725,6.177,11.725,10.15,18.107,14.772a23.665,23.665,0,0,1,1.412,9.389c0,8.029,1.7,15.287,2.325,23.306.359,4.623.329,8.575,5.055,8.174C13669.437,5947.832,13666.245,5938.711,13668.818,5924.166Z" transform="translate(-13528.097 -5899.738)" fill="#344154"/>
        <path id="Trazado_117355" data-name="Trazado 117355" d="M13673.235,5923.068a7.805,7.805,0,0,1-2.275.411,22.852,22.852,0,0,1-5.559-.215,26.712,26.712,0,0,1-5.345-1.544,8.608,8.608,0,0,1-2.059-1.03c.073-.175,3.274,1.318,7.5,2.059S13673.235,5922.832,13673.235,5923.068Z" transform="translate(-13527.161 -5899.216)" fill="#5e6178"/>
        <path id="Trazado_117356" data-name="Trazado 117356" d="M13672.471,5919.042a7.949,7.949,0,0,1-1.307-.083c-.845-.083-2.06-.257-3.531-.535a60.525,60.525,0,0,1-21.71-8.8c-1.246-.833-2.244-1.554-2.9-2.058a.671.671,0,1,1,.082-.165c.7.474,1.719,1.133,2.985,1.925a69.069,69.069,0,0,0,21.618,8.75c1.462.319,2.656.556,3.489.7A5.164,5.164,0,0,1,13672.471,5919.042Z" transform="translate(-13527.632 -5899.628)" fill="#5e6178"/>
        <path id="Trazado_117357" data-name="Trazado 117357" d="M13628.519,5919.609a7.992,7.992,0,0,1-1.884,2.193,8.414,8.414,0,0,1-2.256,1.821,8,8,0,0,1,1.885-2.2,7.787,7.787,0,0,1,2.254-1.812Z" transform="translate(-13528.15 -5899.248)" fill="#5e6178"/>
        <path id="Trazado_117358" data-name="Trazado 117358" d="M13643.763,5972.582c.916-1.6.226-8.123.226-8.123l-2.12,3.819c-4.478,1.74-10.634,4.221-12.353,5.435-2.584,1.812-6.084,9.45-6.084,9.45l-21.618,27.362-40.405-7.082-3.8,20.29,13.649,2.831,24.007,3.088c6.742,1.452,13.3,1.987,18.529-2.44l.36-.7c-1.9,27.28.721,57.36,1.616,84.681a14.871,14.871,0,0,0,1.144,6.26c1.379,2.7,6.485,4.117,9.48,3.715s2.06-2.316,2.688-5.271c.35-1.616-1.163-3.86-1.359-5.5q-4.417-35.619-8.822-71.226c-.093-1.462-.2-2.821-.3-4.025-1.029-12.549-1.184-15.936-.628-21.68C13618.85,6004.607,13637.586,5983.36,13643.763,5972.582Z" transform="translate(-13530.115 -5897.928)" fill="#d9a171"/>
        <path id="Trazado_117359" data-name="Trazado 117359" d="M13619.536,5989.57a5.862,5.862,0,0,1-.617,1.235c-.433.763-1.029,1.895-1.7,3.315a55.94,55.94,0,0,0-5.568,23.77c0,1.575,0,2.852.05,3.727a6.033,6.033,0,0,1,0,1.379,8.856,8.856,0,0,1-.209-1.358c-.133-1.246-.215-2.5-.225-3.748a50.579,50.579,0,0,1,5.612-23.975,35.245,35.245,0,0,1,1.862-3.263,6.156,6.156,0,0,1,.791-1.082Z" transform="translate(-13528.535 -5897.189)" fill="#344154"/>
        <g id="Grupo_59938" data-name="Grupo 59938" transform="translate(79.969 97.106)" opacity="0.3">
          <path id="Trazado_117360" data-name="Trazado 117360" d="M13616.835,5994.16c-3.149,4.561-6.062,9.46-7.453,14.855s-.515,8.452-.638,14.113l3.242.731C13611.277,6013.708,13611.586,6007.007,13616.835,5994.16Z" transform="translate(-13608.584 -5994.16)" fill="#344154"/>
        </g>
        <path id="Trazado_117361" data-name="Trazado 117361" d="M13615.4,6009.779a2.451,2.451,0,0,1,0-.535c.062-.34.093-.865.247-1.514a42.011,42.011,0,0,1,1.658-5.384,159.867,159.867,0,0,1,7.68-16.882c.947-1.833,1.884-3.6,2.811-5.292l.072-.134h.155l3.406-.062-.226.35a3.292,3.292,0,0,0-1.328-1.493l-.237-.155.185-.206a78.116,78.116,0,0,1,7.307-7.68c.949-.864,1.722-1.523,2.257-1.966a5.149,5.149,0,0,1,.854-.647,5.807,5.807,0,0,1-.753.761l-2.16,2.059a92.81,92.81,0,0,0-7.134,7.762l-.061-.35a3.751,3.751,0,0,1,1.524,1.7l.164.34h-.381l-3.407.092.216-.133c-.905,1.678-1.843,3.448-2.789,5.281-3.3,6.434-6.095,12.353-7.8,16.769a49.911,49.911,0,0,0-1.8,5.3,17.613,17.613,0,0,1-.455,2.019Z" transform="translate(-13528.415 -5897.819)" fill="#344154"/>
        <path id="Trazado_117362" data-name="Trazado 117362" d="M13655.359,6247.008l13.269,21.361s-17.253,20.671-15.184,24.851l42.35-24.243-19.363-34.136Z" transform="translate(-13527.3 -5889.972)" fill="#d9a171"/>
        <path id="Trazado_117363" data-name="Trazado 117363" d="M13679.84,6258.352a1.977,1.977,0,0,1,2.326,1.287,1.915,1.915,0,0,1-1.256,2.316,2.058,2.058,0,0,1-2.449-1.379,1.977,1.977,0,0,1,1.576-2.265" transform="translate(-13526.56 -5889.281)" fill="#aed3f2"/>
        <g id="Grupo_59939" data-name="Grupo 59939" transform="translate(125.719 375.638)" opacity="0.6">
          <path id="Trazado_117364" data-name="Trazado 117364" d="M13695.721,6268.1l-2.059-3.366-39.85,24.511s-1.42,1.894-.442,3.088Z" transform="translate(-13653.026 -6264.73)" fill="#ffbf9d"/>
        </g>
        <path id="Trazado_117365" data-name="Trazado 117365" d="M13667.4,6267.61c.124.206,1.215-.288,2.6-.206s2.44.638,2.584.443-.845-1.2-2.542-1.277S13667.194,6267.445,13667.4,6267.61Z" transform="translate(-13526.885 -5889.038)" fill="#344154"/>
        <path id="Trazado_117366" data-name="Trazado 117366" d="M13664.1,6271.854c.072.227,1.163.062,2.367.535s1.936,1.287,2.142,1.153-.34-1.37-1.843-1.925S13664,6271.648,13664.1,6271.854Z" transform="translate(-13526.981 -5888.896)" fill="#344154"/>
        <path id="Trazado_117367" data-name="Trazado 117367" d="M13664.7,6278.488c.216-.072-.093-1.266-1.267-2.059s-2.409-.731-2.4-.5.957.484,1.915,1.173S13664.5,6278.58,13664.7,6278.488Z" transform="translate(-13527.071 -5888.767)" fill="#344154"/>
        <path id="Trazado_117368" data-name="Trazado 117368" d="M13665,6262.6c.2.133,1.029-.69,2.192-1.277s2.336-.751,2.348-1.029-1.287-.474-2.707.236S13664.795,6262.5,13665,6262.6Z" transform="translate(-13526.955 -5889.23)" fill="#344154"/>
        <path id="Trazado_117369" data-name="Trazado 117369" d="M13657.681,6255.2l1.431,25.118s-25.046,9.883-25.231,14.546l48.784-1.029-.617-39.222Z" transform="translate(-13527.87 -5889.389)" fill="#d9a171"/>
        <path id="Trazado_117370" data-name="Trazado 117370" d="M13673.066,6277.241a2.06,2.06,0,0,1,1.432,2.254,1.935,1.935,0,0,1-2.215,1.431,2.131,2.131,0,0,1-1.5-2.388,2,2,0,0,1,2.472-1.235" transform="translate(-13526.785 -5888.724)" fill="#aed3f2"/>
        <g id="Grupo_59940" data-name="Grupo 59940" transform="translate(106.036 400.499)" opacity="0.6">
          <path id="Trazado_117371" data-name="Trazado 117371" d="M13682.694,6292.833l-.216-3.953-46.675,2.429s-2.151,1.029-1.873,2.512Z" transform="translate(-13633.906 -6288.88)" fill="#ffbf9d"/>
        </g>
        <path id="Trazado_117372" data-name="Trazado 117372" d="M13657.7,6279.357c0,.237,1.2.319,2.389,1.03s1.832,1.729,2.059,1.636-.165-1.472-1.616-2.347S13657.6,6279.141,13657.7,6279.357Z" transform="translate(-13527.17 -5888.669)" fill="#344154"/>
        <path id="Trazado_117373" data-name="Trazado 117373" d="M13652.7,6281.513c0,.236,1.029.618,1.822,1.606s1.029,2.059,1.317,2.059.36-1.369-.689-2.574S13652.7,6281.286,13652.7,6281.513Z" transform="translate(-13527.315 -5888.601)" fill="#344154"/>
        <path id="Trazado_117374" data-name="Trazado 117374" d="M13650.057,6287.636c.216,0,.524-1.153-.113-2.44s-1.771-1.792-1.863-1.585.607.875,1.112,1.946S13649.851,6287.616,13650.057,6287.636Z" transform="translate(-13527.452 -5888.538)" fill="#344154"/>
        <path id="Trazado_117375" data-name="Trazado 117375" d="M13658,6273.786c.1.216,1.185-.144,2.532-.072s2.409.463,2.532.257-.905-1.029-2.5-1.091S13657.794,6273.6,13658,6273.786Z" transform="translate(-13527.16 -5888.852)" fill="#344154"/>
        <path id="Trazado_117376" data-name="Trazado 117376" d="M13621.73,6073s-2.244,106.865-.227,114.267,43.319,83.034,43.319,83.034l24.922-12.24L13656.7,6178.2l7.288-102.686Z" transform="translate(-13528.259 -5894.734)" fill="#344154"/>
        <path id="Trazado_117377" data-name="Trazado 117377" d="M13676.355,6067.149s14.33,23.4,11.8,37.43c-1.03,5.754-8.885,18.53-8.885,18.53v68.447l6.054,91.454h-29.04l-12.487-80.645s-4.375-7.4-6.053-13.784-7.145-81.9-7.145-81.9l-8.689-30.708Z" transform="translate(-13528.222 -5894.906)" fill="#344154"/>
        <path id="Trazado_117378" data-name="Trazado 117378" d="M13680.7,6230a12.185,12.185,0,0,0,0,1.925c0,1.235.124,3.026.247,5.24.247,4.416.689,10.51,1.205,17.243s.946,12.827,1.235,17.243c.134,2.13.257,3.891.34,5.229a13.252,13.252,0,0,0,.2,1.915,9.986,9.986,0,0,0,0-1.925c0-1.235-.062-3.026-.155-5.24-.175-4.426-.546-10.531-1.029-17.263s-1.029-12.724-1.369-17.233c-.186-2.131-.33-3.891-.454-5.229a11.45,11.45,0,0,0-.214-1.9Z" transform="translate(-13526.494 -5890.114)" fill="#5e6178"/>
        <path id="Trazado_117379" data-name="Trazado 117379" d="M13672.575,6078.77a4.049,4.049,0,0,1-.783.884,16.989,16.989,0,0,1-2.489,2.06,19.888,19.888,0,0,1-20.25,1.193,18.626,18.626,0,0,1-2.717-1.719,4.832,4.832,0,0,1-.875-.782,41.076,41.076,0,0,0,3.758,2.151,20.508,20.508,0,0,0,19.878-1.246,40.525,40.525,0,0,0,3.478-2.542Z" transform="translate(-13527.529 -5894.564)" fill="#5e6178"/>
        <path id="Trazado_117380" data-name="Trazado 117380" d="M13630.6,6099.66a1.187,1.187,0,0,1,0,.381,5.435,5.435,0,0,0,.094,1.1c.072,1.03.186,2.44.318,4.272.248,3.736.617,9.09,1.029,15.688.928,13.238,2.061,31.552,3.861,51.719.248,2.749.525,5.466.834,8.112.174,1.328.318,2.656.607,3.9a31.309,31.309,0,0,0,1.213,3.686c1.793,4.828,3.707,9.389,5.539,13.65v.062c1.936,12.415,3.572,22.925,4.734,30.358l1.4,8.617c.176.978.309,1.729.412,2.275s.176.772.166.782a4.979,4.979,0,0,1-.248-.762c-.113-.515-.289-1.266-.484-2.265-.391-1.987-.9-4.9-1.543-8.6-1.268-7.392-2.965-17.891-4.922-30.337v.062c-1.852-4.262-3.777-8.822-5.588-13.661a30.939,30.939,0,0,1-1.227-3.727c-.309-1.328-.453-2.646-.629-3.974-.318-2.666-.6-5.384-.832-8.132-1.771-20.187-2.873-38.5-3.707-51.75l-.781-15.719c-.092-1.832-.164-3.263-.207-4.272v-1.122a2.994,2.994,0,0,1-.039-.349Z" transform="translate(-13527.966 -5893.95)" fill="#5e6178"/>
        <path id="Trazado_117381" data-name="Trazado 117381" d="M13642.452,5969.071s-.309,4.684,3.5,4.684c5.354,0,16.573-10.294,16.573-10.294l-21.617,51.6V6077.5l-18.334,1.873s-2.151-.309-2.584-3.4c-.854-6.042-.73-17.057-1.431-21.618-2.183-14.1-6.465-21.783-5.857-32.942.9-16.6,24.264-45.295,24.264-45.295Z" transform="translate(-13528.495 -5897.958)" fill="#ffbf9d"/>
        <path id="Trazado_117382" data-name="Trazado 117382" d="M13664.738,5957.15a141.318,141.318,0,0,1-9.039,14.628c-4.674,6.5-34.279,51.852-34.279,51.852l11.828,92.01,1.317,7.792a3.891,3.891,0,0,0,4.479,3.2h.175l52.294-9.193a4.745,4.745,0,0,0,3.852-5.5,3.518,3.518,0,0,0-.136-.565l-23.346-65.575,15.081-58.234s-.556-8.483-9.738-17.089c-1.75-1.637-8.966-7.618-10.16-9.265Z" transform="translate(-13528.237 -5898.144)" fill="#d9a171"/>
        <g id="Grupo_59941" data-name="Grupo 59941" transform="translate(96.126 147.599)" opacity="0.3">
          <path id="Trazado_117383" data-name="Trazado 117383" d="M13625.124,6050.014s24.077,19.1,35.792,19.271,17.81-9.749,17.81-9.749l-23.563.648-30.883-16.975Z" transform="translate(-13624.279 -6043.209)" fill="#344154"/>
        </g>
        <path id="Trazado_117384" data-name="Trazado 117384" d="M13607.7,6033.963s21.721,14.351,25.736,17.078,22.966,13.723,25.437,14.515,17.8.9,20.589-4.313,4.715-16.327,4.715-16.327l3.7-52.038a20.929,20.929,0,0,0-3.747-13.61c-2.243-3.17-5.208-6.032-8.42-5.548-6.847,1.03-21.618,17.572-20.856,26.076s.731,32.18.731,32.18l-38.778-12.837Z" transform="translate(-13528.641 -5897.657)" fill="#d9a171"/>
        <path id="Trazado_117385" data-name="Trazado 117385" d="M13684.194,5979.109a9.992,9.992,0,0,1,.711,1.029,18.142,18.142,0,0,1,1.646,3.161,20.223,20.223,0,0,1,1.423,5.558,42.568,42.568,0,0,1-.176,7.752c-.8,11.591-1.957,28.093-3.326,47.838h0q-.586,3.335-1.42,6.742a58.929,58.929,0,0,1-2.059,6.846,14.142,14.142,0,0,1-1.648,3.334,8.177,8.177,0,0,1-2.964,2.358,23.4,23.4,0,0,1-7.338,2.183,31.864,31.864,0,0,1-7.856.206,10.73,10.73,0,0,1-3.9-1.028c-1.206-.6-2.379-1.257-3.553-1.905q-7.074-3.953-14.269-8.235c-5.755-3.335-11.1-7.1-16.41-10.572l-15.441-10.294-.206-.134.134-.206,9.132-15.071.1-.165.185.062,38.728,13.115-.227.154c.792-9.667,1.421-17.366,1.853-22.647.227-2.625.4-4.653.525-6.042.061-.669.1-1.194.144-1.554l.062-.536v.536c0,.35-.062.885-.1,1.564-.1,1.39-.248,3.428-.433,6.053-.391,5.3-.968,12.991-1.7,22.647v.227l-.216-.072-38.8-13.022.289-.1-9.121,15.081-.072-.34,15.441,10.294c5.332,3.479,10.644,7.206,16.378,10.552q7.207,4.292,14.257,8.235c1.174.648,2.348,1.3,3.531,1.894a10.415,10.415,0,0,0,3.727,1.03,31.779,31.779,0,0,0,7.722-.2,23.155,23.155,0,0,0,7.205-2.11,7.922,7.922,0,0,0,2.8-2.213,13.589,13.589,0,0,0,1.583-3.212,58.216,58.216,0,0,0,2.06-6.794c.567-2.254,1.03-4.5,1.432-6.691h0c1.452-19.734,2.656-36.236,3.511-47.827a43.014,43.014,0,0,0,.236-7.711,20.688,20.688,0,0,0-2.911-8.7c-.207-.351-.382-.6-.484-.772Z" transform="translate(-13528.648 -5897.497)" fill="#344154"/>
        <path id="Trazado_117386" data-name="Trazado 117386" d="M13627.9,6013.314a4.058,4.058,0,0,1,.474-.545c.35-.392.823-.9,1.4-1.524l5.146-5.59,7.731-8.235c2.954-3.088,6.115-6.526,9.852-9.8v.391l-.309-.35-2.614-2.893-.433-.484h.648l4.839.248-.237.133,9.738-16.955,2.882-4.92.792-1.308a1.876,1.876,0,0,1,.309-.443,3.257,3.257,0,0,1-.227.484c-.185.35-.422.8-.72,1.349l-2.749,5-9.583,17.047-.083.134h-.165l-4.838-.247.216-.443,2.6,2.893.319.35.175.2-.206.186c-3.676,3.222-6.866,6.681-9.841,9.729l-7.8,8.173c-2.224,2.326-4.035,4.2-5.3,5.477-.628.638-1.122,1.132-1.472,1.452A3.085,3.085,0,0,1,13627.9,6013.314Z" transform="translate(-13528.046 -5898.029)" fill="#344154"/>
        <g id="Grupo_59942" data-name="Grupo 59942" transform="translate(98.104 83.857)" opacity="0.3">
          <path id="Trazado_117387" data-name="Trazado 117387" d="M13997.2,6228.25l29.44-27.764-2.47-2.749h2.47l.618-3.788-1.647,2.924-4.838-.248,2.883,2.615-24.5,25.87Z" transform="translate(-13997.2 -6193.95)" fill="#344154"/>
        </g>
        <path id="Trazado_117388" data-name="Trazado 117388" d="M13644.3,6085.062l.5-.124,1.5-.319,5.682-1.194,19.848-4.035h.175l.093.154,5.466,8.9.206.33-.381.072-.648.124-28.948,5.435h-.144v-.144l-2.471-6.8c-.258-.741-.474-1.328-.629-1.781a.471.471,0,1,1,.093,0c.175.453.422,1.029.721,1.8l2.615,6.619-.2-.113,28.906-5.611.648-.124-.175.4-5.456-8.915.268.124-19.7,3.747-5.775,1.029-1.564.268a5.1,5.1,0,0,1-.626.155Z" transform="translate(-13527.569 -5894.546)" fill="#344154"/>
        <g id="Grupo_59943" data-name="Grupo 59943" transform="translate(117.045 191.381)" opacity="0.3">
          <path id="Trazado_117389" data-name="Trazado 117389" d="M14015.6,6298.4l2.059,10.8,29.957-5.4-.823-2.5-28.1,5.363Z" transform="translate(-14015.6 -6298.399)" fill="#344154"/>
        </g>
        <path id="Trazado_117390" data-name="Trazado 117390" d="M13661.829,6039.421c-.154.072-1.4-2.4-3.634-4.92s-4.519-4.118-4.427-4.23A18.044,18.044,0,0,1,13661.829,6039.421Z" transform="translate(-13527.284 -5895.992)" fill="#344154"/>
        <path id="Trazado_117391" data-name="Trazado 117391" d="M13557.562,6006.841s-7.515-4.5-10.521-7.381c0,0-4.375-1.379-6.382,1.379,0,0-4.633,1.277-5.25,2.141s-4.509,6.866-4.509,6.866,2.059,7.155,2.255,7.515c.371.782,1.214,1.606,1.925.742a1.491,1.491,0,0,0,.33-1.03v-.473l1.122-.793s.5,2.78,2.059,2.347a26.3,26.3,0,0,0,4.881-2.934s4.755,2.707,7.205,2.985a77.276,77.276,0,0,1,8.236,1.843l2.531-13.6Z" transform="translate(-13530.901 -5896.909)" fill="#ffbe9d"/>
        <path id="Trazado_117392" data-name="Trazado 117392" d="M13535.05,6017.077a.619.619,0,0,1-.587.114,1.556,1.556,0,0,1-1.03-1.235,22.21,22.21,0,0,1,0-5.231,48.481,48.481,0,0,1,.824-5.146,8.9,8.9,0,0,1,.556-2.06c.186,0-.4,3.263-.844,7.206a30.729,30.729,0,0,0-.187,5.147,1.328,1.328,0,0,0,.763,1.1C13534.844,6017.119,13535.05,6017.036,13535.05,6017.077Z" transform="translate(-13530.831 -5896.778)" fill="#eb996e"/>
        <path id="Trazado_117393" data-name="Trazado 117393" d="M13543.732,6005.29a6.066,6.066,0,0,1-3.552,1.648l.216-.2-.062.268a16.91,16.91,0,0,1-1.235,3.973,16.387,16.387,0,0,1,.712-4.118l.071-.257v-.175h.175a28.089,28.089,0,0,0,3.676-1.143Z" transform="translate(-13530.659 -5896.727)" fill="#eb996e"/>
        <path id="Trazado_117394" data-name="Trazado 117394" d="M13549.895,6006.272a3.682,3.682,0,0,0-4.116-.843l-.783,1.029-5.93,4.941a9.166,9.166,0,0,0-2.656,3,3.089,3.089,0,0,0,.618,3.686c1.214.926,3.016.4,4.2-.557s2.059-2.3,3.272-3.191c1.916-1.41,4.694-1.792,5.868-3.85A3.693,3.693,0,0,0,13549.895,6006.272Z" transform="translate(-13530.748 -5896.731)" fill="#ffbe9d"/>
        <path id="Trazado_117395" data-name="Trazado 117395" d="M13545.365,6004.39a3.272,3.272,0,0,1-.526,2.151,7.928,7.928,0,0,1-1.491,1.926,20.956,20.956,0,0,1-2.316,1.8,14.414,14.414,0,0,0-3.921,3.366,13.128,13.128,0,0,0-1.029,1.895,3.461,3.461,0,0,1,.688-2.111,9.05,9.05,0,0,1,1.586-1.831,24.116,24.116,0,0,1,2.348-1.761,20.634,20.634,0,0,0,2.285-1.729,8.63,8.63,0,0,0,1.5-1.741A10.733,10.733,0,0,0,13545.365,6004.39Z" transform="translate(-13530.748 -5896.753)" fill="#eb996e"/>
        <path id="Trazado_117396" data-name="Trazado 117396" d="M13574,6027.906s.216-7.371,2.059-9.563,12.785-4.982,12.785-4.982l27.424,6.362-6.373,10.294-1.925-1.812s-8.626,2.594-12.888,1.657a50.53,50.53,0,0,1-7.433-2.214l-4.468.309s-3.222,3.335-4.261,3.335-2.183-.937-1.668-1.976l-.927-1.565S13574.515,6028.842,13574,6027.906Z" transform="translate(-13529.633 -5896.489)" fill="#ffbe9d"/>
        <path id="Trazado_117397" data-name="Trazado 117397" d="M13588.32,6022.5a4.664,4.664,0,0,1-1.957.669,33.082,33.082,0,0,0-4.787.937,6.677,6.677,0,0,0-3.437,3.15,11.285,11.285,0,0,1-1.031,1.76,5.613,5.613,0,0,1,.7-1.935,8.122,8.122,0,0,1,1.247-1.9,5.636,5.636,0,0,1,2.336-1.576,22.766,22.766,0,0,1,4.909-.813C13587.6,6022.654,13588.32,6022.428,13588.32,6022.5Z" transform="translate(-13529.54 -5896.22)" fill="#eb996e"/>
        <path id="Trazado_117398" data-name="Trazado 117398" d="M13586.19,6017.241c0,.072-.874.216-2.233.7a21.313,21.313,0,0,0-2.328.936,11.211,11.211,0,0,0-2.592,1.545,5.867,5.867,0,0,0-.887,1.245c-.257.443-.494.875-.7,1.3a13.387,13.387,0,0,0-.895,2.327c-.36,1.379-.3,2.275-.392,2.285a4.834,4.834,0,0,1,0-2.368,10.814,10.814,0,0,1,.813-2.46c.206-.443.442-.9.7-1.349a5.882,5.882,0,0,1,1.028-1.38,10.7,10.7,0,0,1,2.781-1.647,18.909,18.909,0,0,1,2.43-.854,5.6,5.6,0,0,1,2.274-.278Z" transform="translate(-13529.572 -5896.375)" fill="#eb996e"/>
      </g>
    </g>
  </g>
</svg>
