<svg xmlns="http://www.w3.org/2000/svg" xmlns:xlink="http://www.w3.org/1999/xlink" width="505.835" height="523" viewBox="0 0 505.835 523">
  <defs>
    <clipPath id="clip-path">
      <rect id="Rectángulo_9053" data-name="Rectángulo 9053" width="471.969" height="415.895" transform="translate(13546.8 3332.66)" fill="none" opacity="0"/>
    </clipPath>
  </defs>
  <g id="Grupo_70473" data-name="Grupo 70473" transform="translate(-180 -2960)">
    <g id="Grupo_70472" data-name="Grupo 70472" transform="translate(237.88 -19.6)">
      <g id="Grupo_58631" data-name="Grupo 58631" transform="translate(-13390.191 -215.26)">
        <path id="Trazado_111056" data-name="Trazado 111056" d="M13624.6,3202.23h206.36v196.54a16.22,16.22,0,0,1-16.22,16.22H13624.6V3202.23Z" fill="#aed3f2"/>
        <g id="Grupo_58630" data-name="Grupo 58630">
          <path id="Trazado_111057" data-name="Trazado 111057" d="M13442.9,3052.89c0,.43-37.3.78-83.3.78s-83.3-.35-83.3-.78,37.29-.78,83.3-.78S13442.9,3052.46,13442.9,3052.89Z" transform="translate(371 212.66)" fill="#5e6178"/>
          <path id="Trazado_111058" data-name="Trazado 111058" d="M13360.6,3067.3c0,.43-18.43.78-41.15.78s-41.16-.35-41.16-.78,18.42-.78,41.16-.78S13360.6,3066.87,13360.6,3067.3Z" transform="translate(371 212.66)" fill="#5e6178"/>
          <path id="Trazado_111059" data-name="Trazado 111059" d="M13393.5,3066c0,.43-4.88.78-10.9.78s-10.9-.35-10.9-.78,4.88-.78,10.9-.78S13393.5,3065.54,13393.5,3066Z" transform="translate(371 212.66)" fill="#5e6178"/>
          <path id="Trazado_111060" data-name="Trazado 111060" d="M13447.3,3065.08c0,.43-9.66.78-21.58.78s-21.58-.35-21.58-.78,9.66-.78,21.58-.78S13447.3,3064.65,13447.3,3065.08Z" transform="translate(371 212.66)" fill="#5e6178"/>
          <path id="Trazado_111061" data-name="Trazado 111061" d="M13353.7,3081.1c0,.43-17.34.78-38.71.78s-38.71-.35-38.71-.78,17.33-.79,38.71-.79S13353.7,3080.66,13353.7,3081.1Z" transform="translate(371 212.66)" fill="#5e6178"/>
          <path id="Trazado_111062" data-name="Trazado 111062" d="M13447.3,3080.7c0,.43-18.93.78-42.27.78s-42.27-.35-42.27-.78,18.93-.78,42.27-.78S13447.3,3080.27,13447.3,3080.7Z" transform="translate(371 212.66)" fill="#5e6178"/>
          <path id="Trazado_111063" data-name="Trazado 111063" d="M13447.3,3094.58c0,.43-8.43.78-18.82.78s-18.82-.35-18.82-.78,8.42-.78,18.82-.78S13447.3,3094.15,13447.3,3094.58Z" transform="translate(371 212.66)" fill="#5e6178"/>
        </g>
        <path id="Trazado_111064" data-name="Trazado 111064" d="M13369.5,3037.44c0,.43-20.42.78-45.61.78s-45.6-.35-45.6-.78,20.41-.78,45.6-.78S13369.5,3037,13369.5,3037.44Z" transform="translate(371 212.66)" fill="#d9a171"/>
      </g>
      <text id="Retorno" transform="translate(293.292 3000.154)" fill="#6595bf" font-size="18" font-family="Roboto-Black, Roboto" font-weight="800"><tspan x="-32.322" y="17">Retorno</tspan></text>
    </g>
    <g id="Grupo_70236" data-name="Grupo 70236" transform="translate(-735 2562.917)">
      <rect id="Rectángulo_31121" data-name="Rectángulo 31121" width="505" height="523" transform="translate(915 397.083)" fill="none"/>
    </g>
    <g id="Grupo_58634" data-name="Grupo 58634" transform="translate(179.999 3080.42)">
      <g id="Grupo_58632" data-name="Grupo 58632" transform="translate(0 0)">
        <rect id="Rectángulo_9042" data-name="Rectángulo 9042" width="342.525" height="226.504" rx="14.57" transform="translate(13.823)" fill="#344154"/>
        <path id="Trazado_111065" data-name="Trazado 111065" d="M13375,3583.9h371.1v5.593a14.223,14.223,0,0,1-14.223,14.223h-342.653a14.223,14.223,0,0,1-14.223-14.222Z" transform="translate(-13375 -3374.151)" fill="#344154"/>
        <rect id="Rectángulo_9043" data-name="Rectángulo 9043" width="323.173" height="191.283" transform="translate(23.492 8.997)" fill="#5e6178"/>
        <path id="Trazado_111066" data-name="Trazado 111066" d="M13194,3371.2h5.665l15.661-.064,52.353-.112h.392l-.2.328c-.655,1.135-1.366,2.341-2.077,3.564l-2.2,3.763-.064.112h-.128l-64.794-.12h-.057v-.048l-3.4-5.521-.847-1.4-.279-.464.328.488c.207.335.511.8.9,1.406l3.46,5.378-.079-.04,64.794-.128-.192.112,2.2-3.763,2.077-3.556.192.328-52.138-.112-15.733-.064h-5.41Z" transform="translate(-13042.182 -3161.447)" fill="#5e6178"/>
      </g>
      <g id="Grupo_58633" data-name="Grupo 58633" transform="translate(13.824 209.541)">
        <line id="Línea_352" data-name="Línea 352" x2="342.549" transform="translate(0 0.208)" fill="#344154"/>
        <path id="Trazado_111067" data-name="Trazado 111067" d="M13363.857,3371.188c0,.12-76.709.216-171.252.216s-171.266-.1-171.266-.216,76.707-.208,171.266-.208S13363.857,3371.076,13363.857,3371.188Z" transform="translate(-13021.308 -3370.98)" fill="#5e6178"/>
      </g>
    </g>
    <g id="Grupo_58636" data-name="Grupo 58636" transform="translate(208.311 3050.277)">
      <path id="Trazado_111068" data-name="Trazado 111068" d="M13396.718,3072.19h0a9.589,9.589,0,0,1,9.589,9.588v19.633H13377.7V3083.3a11.092,11.092,0,0,1,11.083-11.091Z" transform="translate(-13219.857 -3071.927)" fill="#344154"/>
      <path id="Trazado_111069" data-name="Trazado 111069" d="M13371.174,3072.124c0,.12-27,.184-60.288.16s-60.3-.152-60.3-.264,26.992-.184,60.3-.152S13371.174,3072.012,13371.174,3072.124Z" transform="translate(-13194.313 -3071.86)" fill="#344154"/>
      <path id="Trazado_111070" data-name="Trazado 111070" d="M13356.9,3072.14l-11.929-.08-17.332.1h-127.319a19.576,19.576,0,0,0-19.576,19.576v210.4h164.891V3082.9C13346.109,3072.164,13356.9,3072.14,13356.9,3072.14Z" transform="translate(-13180.276 -3071.901)" fill="#fafafa"/>
      <path id="Trazado_111071" data-name="Trazado 111071" d="M13356.78,3072.1l-99.416.216-49.717.04h-6.208c-1.046,0-2.062.04-3.085.1a19.982,19.982,0,0,0-3.012.543,19.226,19.226,0,0,0-13.183,11.826,15.027,15.027,0,0,0-.5,1.454l-.384,1.478a21.834,21.834,0,0,0-.352,3.044c-.089,4.115,0,8.278-.04,12.417l.136,198.842-.4-.392,164.891.1-.3.288.079-118.258.1-59.129.063-29.564v-11.083a12.81,12.81,0,0,1,.08-1.846,10.738,10.738,0,0,1,.287-1.83,9.76,9.76,0,0,1,4-6.016,11.574,11.574,0,0,1,3.315-1.6A13.974,13.974,0,0,1,13356.78,3072.1Zm0,0a14.4,14.4,0,0,0-3.627.647,11.618,11.618,0,0,0-3.3,1.6,9.737,9.737,0,0,0-3.994,6.009,10.069,10.069,0,0,0-.28,1.813,11.891,11.891,0,0,0-.07,1.846V3095.1l.056,29.565.1,59.129.079,118.258v.3h-.288l-164.891.1h-.4v-.4l.136-198.842c0-4.147,0-8.278.057-12.441a21.427,21.427,0,0,1,.366-3.116l.393-1.526c.12-.511.344-.991.512-1.486a19.715,19.715,0,0,1,13.535-12.114,21.3,21.3,0,0,1,3.085-.551c1.047-.056,2.1-.12,3.133-.1h55.924Z" transform="translate(-13180.16 -3071.863)" fill="#344154"/>
      <path id="Trazado_111072" data-name="Trazado 111072" d="M13340.969,3122.123c0,.344-15.87.623-35.446.623s-35.453-.28-35.453-.623,15.869-.623,35.453-.623S13340.969,3121.78,13340.969,3122.123Z" transform="translate(-13198.228 -3081.836)" fill="#d9a171"/>
      <path id="Trazado_111073" data-name="Trazado 111073" d="M13299.2,3136.3c0,.343-6.136.623-13.7.623s-13.711-.28-13.711-.623,6.136-.624,13.711-.624S13299.2,3135.936,13299.2,3136.3Z" transform="translate(-13198.573 -3084.685)" fill="#5e6178"/>
      <path id="Trazado_111074" data-name="Trazado 111074" d="M13249.808,3179.543c0,.344-11.658.624-26.025.624s-26.032-.28-26.032-.624,11.649-.623,26.032-.623S13249.808,3179.2,13249.808,3179.543Z" transform="translate(-13183.694 -3093.375)" fill="#5e6178"/>
      <path id="Trazado_111075" data-name="Trazado 111075" d="M13323.607,3179.543c0,.344-11.657.624-26.032.624s-26.025-.28-26.025-.624,11.65-.623,26.025-.623S13323.607,3179.2,13323.607,3179.543Z" transform="translate(-13198.525 -3093.375)" fill="#d9a171"/>
      <path id="Trazado_111076" data-name="Trazado 111076" d="M13249.808,3191.093c0,.343-11.658.623-26.025.623s-26.032-.28-26.032-.623,11.649-.624,26.032-.624S13249.808,3190.75,13249.808,3191.093Z" transform="translate(-13183.694 -3095.696)" fill="#5e6178"/>
      <path id="Trazado_111077" data-name="Trazado 111077" d="M13249.808,3202.643c0,.344-11.658.623-26.025.623s-26.032-.28-26.032-.623,11.649-.623,26.032-.623S13249.808,3202.3,13249.808,3202.643Z" transform="translate(-13183.694 -3098.017)" fill="#d9a171"/>
      <path id="Trazado_111078" data-name="Trazado 111078" d="M13299.2,3159.843c0,.344-6.136.623-13.7.623s-13.711-.28-13.711-.623,6.136-.623,13.711-.623S13299.2,3159.484,13299.2,3159.843Z" transform="translate(-13198.573 -3089.416)" fill="#5e6178"/>
      <path id="Trazado_111079" data-name="Trazado 111079" d="M13361,3179.543c0,.344-4.092.624-9.141.624s-9.133-.28-9.133-.624,4.09-.623,9.133-.623S13361,3179.2,13361,3179.543Z" transform="translate(-13212.83 -3093.375)" fill="#5e6178"/>
      <path id="Trazado_111080" data-name="Trazado 111080" d="M13359.969,3136.3c0,.343-10.53.623-23.516.623s-23.523-.28-23.523-.623,10.531-.624,23.523-.624S13359.969,3135.936,13359.969,3136.3Z" transform="translate(-13206.841 -3084.685)" fill="#5e6178"/>
      <path id="Trazado_111081" data-name="Trazado 111081" d="M13349.553,3147.563c0,.344-17.4.623-38.857.623s-38.865-.28-38.865-.623,17.4-.623,38.865-.623S13349.553,3147.22,13349.553,3147.563Z" transform="translate(-13198.582 -3086.948)" fill="#5e6178"/>
      <path id="Trazado_111082" data-name="Trazado 111082" d="M13346.7,3191.093c0,.343-16.836.623-37.6.623s-37.555-.28-37.555-.623,16.827-.624,37.555-.624S13346.7,3190.75,13346.7,3191.093Z" transform="translate(-13198.523 -3095.696)" fill="#5e6178"/>
      <path id="Trazado_111083" data-name="Trazado 111083" d="M13347.853,3224.523c0,.344-15.8.624-35.285.624s-35.278-.28-35.278-.624,15.789-.623,35.278-.623S13347.853,3224.18,13347.853,3224.523Z" transform="translate(-13199.679 -3102.414)" fill="#d9a171"/>
      <path id="Trazado_111084" data-name="Trazado 111084" d="M13347.853,3235.763c0,.343-15.8.623-35.285.623s-35.278-.28-35.278-.623,15.789-.624,35.278-.624S13347.853,3235.419,13347.853,3235.763Z" transform="translate(-13199.679 -3104.672)" fill="#5e6178"/>
      <path id="Trazado_111085" data-name="Trazado 111085" d="M13347.853,3247c0,.344-15.8.624-35.285.624s-35.278-.28-35.278-.624,15.789-.623,35.278-.623S13347.853,3246.66,13347.853,3247Z" transform="translate(-13199.679 -3106.931)" fill="#5e6178"/>
      <path id="Trazado_111086" data-name="Trazado 111086" d="M13347.853,3258.243c0,.344-15.8.623-35.285.623s-35.278-.28-35.278-.623,15.789-.623,35.278-.623S13347.853,3257.924,13347.853,3258.243Z" transform="translate(-13199.679 -3109.19)" fill="#5e6178"/>
      <path id="Trazado_111087" data-name="Trazado 111087" d="M13317.973,3269.483c0,.176-2.276.327-5.953.439s-8.749.184-14.382.184-10.691-.072-14.383-.184-5.945-.264-5.945-.439,2.269-.328,5.945-.44,8.789-.184,14.383-.184,10.683.072,14.382.184S13317.973,3269.315,13317.973,3269.483Z" transform="translate(-13199.683 -3111.449)" fill="#5e6178"/>
      <path id="Trazado_111088" data-name="Trazado 111088" d="M13334.327,3203.243c0,.343-13.584.623-30.364.623s-30.363-.28-30.363-.623,13.584-.624,30.363-.624S13334.327,3202.924,13334.327,3203.243Z" transform="translate(-13198.938 -3098.137)" fill="#5e6178"/>
      <g id="Grupo_58635" data-name="Grupo 58635" transform="translate(74.614 208.382)">
        <path id="Trazado_111089" data-name="Trazado 111089" d="M13276.384,3334.072a1.422,1.422,0,1,1-1.423-1.422A1.422,1.422,0,0,1,13276.384,3334.072Z" transform="translate(-13273.539 -3332.65)" fill="#344154"/>
        <path id="Trazado_111090" data-name="Trazado 111090" d="M13286.984,3334.072a1.422,1.422,0,1,1-1.422-1.422A1.422,1.422,0,0,1,13286.984,3334.072Z" transform="translate(-13275.669 -3332.65)" fill="#344154"/>
        <path id="Trazado_111091" data-name="Trazado 111091" d="M13297.584,3334.072a1.423,1.423,0,1,1-1.423-1.422A1.423,1.423,0,0,1,13297.584,3334.072Z" transform="translate(-13277.799 -3332.65)" fill="#344154"/>
      </g>
      <path id="Trazado_111092" data-name="Trazado 111092" d="M13324.107,3292.9c0,.344-11.649.623-26.024.623s-26.033-.28-26.033-.623,11.65-.623,26.033-.623S13324.107,3292.56,13324.107,3292.9Z" transform="translate(-13198.626 -3116.155)" fill="#d9a171"/>
      <path id="Trazado_111093" data-name="Trazado 111093" d="M13347.188,3304.453c0,.344-16.836.623-37.6.623s-37.6-.28-37.6-.623,16.836-.623,37.6-.623S13347.188,3304.11,13347.188,3304.453Z" transform="translate(-13198.613 -3118.476)" fill="#5e6178"/>
    </g>
    <g id="Grupo_58646" data-name="Grupo 58646" transform="translate(-13225.993 -192.52)">
      <g id="Grupo_58638" data-name="Grupo 58638" transform="translate(13779.784 3543.35)">
        <rect id="Rectángulo_9044" data-name="Rectángulo 9044" width="91.157" height="114.012" transform="translate(0 91.155) rotate(-89.63)" fill="#aed3f2"/>
        <rect id="Rectángulo_9045" data-name="Rectángulo 9045" width="79.68" height="106.004" transform="translate(3.95 85.511) rotate(-89.63)" fill="#d9a171"/>
        <path id="Trazado_111094" data-name="Trazado 111094" d="M13791.5,3607.784l37.326-49.295,22.688,31.142,15.621-16.459,30.254,35.3Z" transform="translate(-13788.261 -3522.476)" fill="#d9a171" opacity="0.2"/>
        <g id="Grupo_58637" data-name="Grupo 58637" transform="translate(56.576 21.773)" opacity="0.2">
          <path id="Trazado_111095" data-name="Trazado 111095" d="M13469.646,3345.572a8.354,8.354,0,1,1-8.222-8.4,8.361,8.361,0,0,1,8.222,8.4Z" transform="translate(-13452.938 -3337.169)" fill="#d9a171"/>
        </g>
      </g>
      <g id="Grupo_58640" data-name="Grupo 58640" transform="translate(13777.507 3533.868)">
        <rect id="Rectángulo_9046" data-name="Rectángulo 9046" width="91.157" height="114.012" transform="translate(0 91.155) rotate(-89.63)" fill="#aed3f2"/>
        <rect id="Rectángulo_9047" data-name="Rectángulo 9047" width="79.68" height="106.004" transform="translate(3.982 85.526) rotate(-89.63)" fill="#d9a171"/>
        <path id="Trazado_111096" data-name="Trazado 111096" d="M13781.3,3601.988l37.324-49.278,22.691,31.125,15.619-16.459,30.419,35.3Z" transform="translate(-13778.084 -3516.718)" fill="#d9a171" opacity="0.2"/>
        <g id="Grupo_58639" data-name="Grupo 58639" transform="translate(56.555 21.735)" opacity="0.2">
          <path id="Trazado_111097" data-name="Trazado 111097" d="M13459.444,3339.782a8.353,8.353,0,1,1-8.223-8.4A8.351,8.351,0,0,1,13459.444,3339.782Z" transform="translate(-13442.739 -3331.379)" fill="#d9a171"/>
        </g>
      </g>
      <g id="Grupo_58642" data-name="Grupo 58642" transform="translate(13769.092 3526.09)">
        <rect id="Rectángulo_9048" data-name="Rectángulo 9048" width="91.157" height="114.012" transform="translate(0 91.155) rotate(-89.63)" fill="#aed3f2"/>
        <rect id="Rectángulo_9049" data-name="Rectángulo 9049" width="79.68" height="106.004" transform="translate(3.966 85.359) rotate(-89.63)" fill="#d9a171"/>
        <path id="Trazado_111098" data-name="Trazado 111098" d="M13772.2,3597.214l37.324-49.295,22.854,31.143,15.619-16.475,30.256,35.3Z" transform="translate(-13769.085 -3512.026)" fill="#d9a171" opacity="0.2"/>
        <g id="Grupo_58641" data-name="Grupo 58641" transform="translate(56.453 21.637)" opacity="0.2">
          <path id="Trazado_111099" data-name="Trazado 111099" d="M13450.346,3334.992a8.353,8.353,0,1,1-8.223-8.4,8.355,8.355,0,0,1,8.223,8.4Z" transform="translate(-13433.64 -3326.59)" fill="#d9a171"/>
        </g>
      </g>
      <g id="Grupo_58644" data-name="Grupo 58644" transform="translate(13764.918 3535.773)">
        <rect id="Rectángulo_9050" data-name="Rectángulo 9050" width="91.157" height="114.012" transform="translate(0 91.155) rotate(-89.63)" fill="#aed3f2"/>
        <rect id="Rectángulo_9051" data-name="Rectángulo 9051" width="79.68" height="106.004" transform="translate(3.982 85.507) rotate(-89.63)" fill="#5e6178"/>
        <path id="Trazado_111100" data-name="Trazado 111100" d="M13762.1,3603.158l37.324-49.279,22.691,31.126,15.62-16.459,30.255,35.3Z" transform="translate(-13758.862 -3517.869)" fill="#d9a171" opacity="0.2"/>
        <g id="Grupo_58643" data-name="Grupo 58643" transform="translate(56.577 21.754)" opacity="0.2">
          <path id="Trazado_111101" data-name="Trazado 111101" d="M13440.245,3340.952a8.353,8.353,0,1,1-8.223-8.4,8.352,8.352,0,0,1,8.223,8.4Z" transform="translate(-13423.539 -3332.549)" fill="#d9a171"/>
        </g>
      </g>
      <g id="Grupo_58645" data-name="Grupo 58645" transform="translate(13752.7 3570.487)">
        <rect id="Rectángulo_9052" data-name="Rectángulo 9052" width="65.819" height="88.016" transform="translate(92.475)" fill="#344154"/>
        <path id="Trazado_111102" data-name="Trazado 111102" d="M13381.7,3339.85v88.017h98.182V3339.85Zm59.529,20.833h-20.844c-2.4-.167-4.291-2.831-4.291-6.059s1.887-5.892,4.291-6.059h20.844c2.406.167,4.293,2.83,4.293,6.059S13443.637,3360.515,13441.23,3360.683Z" transform="translate(-13381.701 -3339.833)" fill="#d9a171"/>
      </g>
    </g>
    <g id="Grupo_58664" data-name="Grupo 58664" transform="translate(-13215.463 -176.896)">
      <g id="Grupo_58663" data-name="Grupo 58663" transform="translate(13412.456 3477.17)">
        <g id="Grupo_58660" data-name="Grupo 58660" transform="translate(0 41.217)">
          <rect id="Rectángulo_9054" data-name="Rectángulo 9054" width="50.205" height="137.364" fill="#6595bf"/>
          <rect id="Rectángulo_9055" data-name="Rectángulo 9055" width="31.587" height="59.653" transform="translate(9.224 9.029)" fill="#aed3f2"/>
          <path id="Trazado_111143" data-name="Trazado 111143" d="M13070.264,3375.031a12.4,12.4,0,1,1-3.63-8.78A12.412,12.412,0,0,1,13070.264,3375.031Z" transform="translate(-13032.806 -3266.711)" fill="#aed3f2"/>
          <rect id="Rectángulo_9056" data-name="Rectángulo 9056" width="19.749" height="5.074" transform="translate(15.234 20.029)" fill="#6595bf"/>
          <rect id="Rectángulo_9057" data-name="Rectángulo 9057" width="19.749" height="5.074" transform="translate(15.234 30.749)" fill="#6595bf"/>
        </g>
        <g id="Grupo_58661" data-name="Grupo 58661" transform="translate(54.369 18.463)">
          <rect id="Rectángulo_9058" data-name="Rectángulo 9058" width="50.205" height="160.146" fill="#6595bf"/>
          <rect id="Rectángulo_9059" data-name="Rectángulo 9059" width="31.587" height="59.653" transform="translate(9.365 9.029)" fill="#aed3f2"/>
          <path id="Trazado_111144" data-name="Trazado 111144" d="M13109.264,3375.052a12.412,12.412,0,1,1-12.411-12.411A12.411,12.411,0,0,1,13109.264,3375.052Z" transform="translate(-13071.665 -3243.949)" fill="#aed3f2"/>
          <rect id="Rectángulo_9060" data-name="Rectángulo 9060" width="19.749" height="5.074" transform="translate(15.235 20.029)" fill="#6595bf"/>
          <rect id="Rectángulo_9061" data-name="Rectángulo 9061" width="19.749" height="5.074" transform="translate(15.235 30.749)" fill="#6595bf"/>
        </g>
        <g id="Grupo_58662" data-name="Grupo 58662" transform="translate(108.878)">
          <rect id="Rectángulo_9062" data-name="Rectángulo 9062" width="50.205" height="178.609" fill="#6595bf"/>
          <rect id="Rectángulo_9063" data-name="Rectángulo 9063" width="31.587" height="59.653" transform="translate(9.225 9.029)" fill="#aed3f2"/>
          <path id="Trazado_111145" data-name="Trazado 111145" d="M13148.163,3375.052a12.411,12.411,0,1,1-12.411-12.411A12.411,12.411,0,0,1,13148.163,3375.052Z" transform="translate(-13110.705 -3225.486)" fill="#aed3f2"/>
          <rect id="Rectángulo_9064" data-name="Rectángulo 9064" width="19.749" height="5.074" transform="translate(15.235 20.029)" fill="#6595bf"/>
          <rect id="Rectángulo_9065" data-name="Rectángulo 9065" width="19.749" height="5.074" transform="translate(15.235 30.749)" fill="#6595bf"/>
        </g>
      </g>
    </g>
    <g id="Grupo_58659" data-name="Grupo 58659" transform="translate(-13332.934 -265.555)" clip-path="url(#clip-path)">
      <g id="Grupo_58658" data-name="Grupo 58658" transform="translate(13539.518 3359.727)">
        <g id="Grupo_58651" data-name="Grupo 58651" transform="translate(0 156.372)">
          <g id="Grupo_58647" data-name="Grupo 58647" transform="translate(0 208.113)">
            <path id="Trazado_111103" data-name="Trazado 111103" d="M13568,3393.927l-161.17-9.864c-1.023-2.315-1.7-3.654-1.7-3.654l-43.605.873-14.209-.873s-.225.436-.57,1.173l-146.631,2.917c-29.23,0-59.963,17.833-59.963,40.6-.375,21.682,10.135,45.228,36.328,44.7l199.783-.676,199.781.676c26.193.526,33.08-15.261,33.17-34.011C13612.059,3400.919,13590.256,3394.213,13568,3393.927Z" transform="translate(-13140.145 -3380.41)" fill="#5e6178"/>
            <path id="Trazado_111104" data-name="Trazado 111104" d="M13176.4,3460.306h3.789l10.885-.09,40.207-.181,134.137-.181-.557.6c-.271-4.375-.572-9.022-.857-13.788-.6-9.668-1.2-19.171-1.76-28.223l.5.526-123.58-13.758-36.613-4.18-9.863-1.188-2.557-.331a5.293,5.293,0,0,1-.871-.15,6.325,6.325,0,0,1,.871,0l2.572.225,9.893.992,36.658,3.849,123.611,13.382h.465v.481c.57,9.021,1.156,18.54,1.773,28.208.287,4.721.586,9.413.857,13.788v.6h-.6l-134.135-.181-40.207-.166-10.887-.105h-2.826Z" transform="translate(-13121.885 -3370.871)" fill="#344154"/>
            <path id="Trazado_111105" data-name="Trazado 111105" d="M13218.162,3406.214c-.121.15-2.119-1.5-5.652-3.608a59.832,59.832,0,0,0-30.521-8.781c-4.121,0-6.678.24-6.707,0a5.615,5.615,0,0,1,1.775-.421,38.963,38.963,0,0,1,4.914-.437,53.126,53.126,0,0,1,30.975,8.9,38.766,38.766,0,0,1,3.938,3.008A13.147,13.147,0,0,1,13218.162,3406.214Z" transform="translate(-13122.45 -3374.097)" fill="#344154"/>
            <path id="Trazado_111106" data-name="Trazado 111106" d="M13463.944,3396.074c0,.3-31.725,7.984-71,17.156s-71.182,16.374-71.256,16.073,31.711-7.984,71-17.171S13463.944,3395.758,13463.944,3396.074Z" transform="translate(-13048.718 -3372.527)" fill="#344154"/>
            <path id="Trazado_111107" data-name="Trazado 111107" d="M13406.059,3394c.105.346-6.135,1.609-12.449,6.015s-9.834,9.623-10.121,9.4a10.681,10.681,0,0,1,2.168-3.534,33.281,33.281,0,0,1,16.326-11.111A10.87,10.87,0,0,1,13406.059,3394Z" transform="translate(-13017.595 -3373.566)" fill="#344154"/>
          </g>
          <path id="Trazado_111108" data-name="Trazado 111108" d="M13379.657,3272.3l51.121,88.877a37.74,37.74,0,0,1,1.023,35.7h0a37.788,37.788,0,0,1-34.854,20.825l-78.383-2.21-2.074-28.568,69.045-13.217-46.611-80.563Z" transform="translate(-13051.337 -3226.741)" fill="#ffbf9d"/>
          <path id="Trazado_111109" data-name="Trazado 111109" d="M13245.752,3424.389l72.082,19.081,1.5-21.607-66.428-38.582,48.52-90.05-40.643-20.93-51.121,88.877h0a41.62,41.62,0,0,0,24.057,59.393Z" transform="translate(-13107.637 -3226.741)" fill="#ffbf9d"/>
          <path id="Trazado_111110" data-name="Trazado 111110" d="M13404.17,3344.62l49.256-25.937a248.8,248.8,0,0,0-21.049-35.2c-15.277-21.05-38.928-35.861-65.8-41.484h0l-56.672.676a75.093,75.093,0,0,0-20.209,4.646v-.21c-30.748,6.781-64.881,73.857-64.881,73.857l44.838,23.606.992,7.052a47.8,47.8,0,0,0,11.684,25.125l-13.068,85.871,145.52,3.007-18.525-61.5Z" transform="translate(-13097.502 -3242)" fill="#d9a171"/>
          <path id="Trazado_111111" data-name="Trazado 111111" d="M13268.447,3353.071a11.311,11.311,0,0,1-2.164-1.639,32.268,32.268,0,0,1-4.949-5.534,36.082,36.082,0,0,1-6.014-23.411,76.862,76.862,0,0,1,3.336-13.05c1.309-3.925,2.633-7.383,3.775-10.285s2.148-5.2,2.871-6.8a11.282,11.282,0,0,1,1.246-2.406,14.352,14.352,0,0,1-.84,2.571l-2.525,6.917c-1.053,2.917-2.3,6.405-3.549,10.315a82.85,82.85,0,0,0-3.187,12.871,37.209,37.209,0,0,0,1.215,13.036,34.815,34.815,0,0,0,4.393,9.789A62.714,62.714,0,0,0,13268.447,3353.071Z" transform="translate(-13082.218 -3217.853)" fill="#344154"/>
          <g id="Grupo_58648" data-name="Grupo 58648" transform="translate(156.158 145.578)">
            <path id="Trazado_111112" data-name="Trazado 111112" d="M13623.27,3647.259l-8.27-95.779h177.273l-11.729,96.967Z" transform="translate(-13615 -3551.48)" fill="#344154"/>
            <path id="Trazado_111113" data-name="Trazado 111113" d="M13318.063,3376.572a11.276,11.276,0,1,1-3.3-7.983A11.289,11.289,0,0,1,13318.063,3376.572Z" transform="translate(-13218.073 -3325.495)" fill="#fafafa"/>
          </g>
          <g id="Grupo_58650" data-name="Grupo 58650" transform="translate(241.713 260.062)">
            <path id="Trazado_111114" data-name="Trazado 111114" d="M13671.9,3627.621l30.072,4.194v32.718l-27.666-.722Z" transform="translate(-13671.9 -3627.621)" fill="#ffbf9d"/>
            <g id="Grupo_58649" data-name="Grupo 58649" transform="translate(30.072 4.21)">
              <path id="Trazado_111115" data-name="Trazado 111115" d="M13320.9,3417.76h13.533a15.035,15.035,0,0,1,7.518,2l7.141,4.119a110.369,110.369,0,0,0,12.467,6.014c8.223,2.647,22.072,6.2,24.975,8.451,8.33,6.42,5.8,14,1.232,14.8-4.014.692-66.834-2.616-66.834-2.616Z" transform="translate(-13320.9 -3417.76)" fill="#d9a171"/>
              <path id="Trazado_111116" data-name="Trazado 111116" d="M13336.212,3443.426c-.285.075-1.322-3.7-1.5-8.5s.645-8.631.947-8.57,0,3.849.18,8.54S13336.515,3443.366,13336.212,3443.426Z" transform="translate(-13313.96 -3413.429)" fill="#344154"/>
              <path id="Trazado_111117" data-name="Trazado 111117" d="M13340.174,3442.817c-.316,0-.543-3.488-.512-7.8s.316-7.8.631-7.8.543,3.5.5,7.819S13340.475,3442.833,13340.174,3442.817Z" transform="translate(-13311.455 -3413)" fill="#344154"/>
              <path id="Trazado_111118" data-name="Trazado 111118" d="M13345.49,3443.854c-.316,0-.842-3.564-1.187-8.015s-.377-8.059,0-8.089.84,3.563,1.188,8S13345.791,3443.823,13345.49,3443.854Z" transform="translate(-13309.255 -3412.729)" fill="#344154"/>
              <path id="Trazado_111119" data-name="Trazado 111119" d="M13336.311,3436.479a9.368,9.368,0,0,1-2.768-.872,25.881,25.881,0,0,1-6.766-4.18c-.631-.542-1.277-1.143-1.926-1.8a7.894,7.894,0,0,1-1.729-2.45,3.4,3.4,0,0,1,.375-3.354,2.609,2.609,0,0,1,1.686-.932,4.51,4.51,0,0,1,1.82.209,13.533,13.533,0,0,1,2.84,23.968,8.577,8.577,0,0,1-3.111,1.4,3.7,3.7,0,0,1-1.762-.091,2.338,2.338,0,0,1-1.367-1.2,3.359,3.359,0,0,1,.4-3.113,9.686,9.686,0,0,1,1.727-2.09,21.08,21.08,0,0,1,6.666-4.36,8.787,8.787,0,0,1,2.795-.8c0,.091-.961.392-2.617,1.2a22.117,22.117,0,0,0-6.27,4.511,9.207,9.207,0,0,0-1.5,1.954,2.628,2.628,0,0,0-.314,2.287,1.787,1.787,0,0,0,2.1.721,7.773,7.773,0,0,0,2.707-1.278,12.51,12.51,0,0,0-2.568-22.118,2.121,2.121,0,0,0-2.424.36,2.453,2.453,0,0,0-.27,2.392,13.149,13.149,0,0,0,3.311,3.984,37.068,37.068,0,0,0,8.959,5.654Z" transform="translate(-13319.923 -3415.188)" fill="#344154"/>
            </g>
            <path id="Trazado_111120" data-name="Trazado 111120" d="M13382.412,3452.954a8.663,8.663,0,0,0,1.641-2.06,7.718,7.718,0,0,0-.887-6.81,15.211,15.211,0,0,0-8.361-6.317c-3.818-1.368-8.375-2.029-12.99-3.473a90.528,90.528,0,0,1-22.344-10.18c-2.66-1.7-4.705-3.217-6.09-4.3a12.048,12.048,0,0,1-2.059-1.8,13.281,13.281,0,0,1,2.316,1.5c1.5.962,3.563,2.376,6.238,3.969a101.836,101.836,0,0,0,22.27,9.773c4.51,1.5,9.02,2.1,13.02,3.594a15.671,15.671,0,0,1,8.707,6.887,8,8,0,0,1,.572,7.413,4.744,4.744,0,0,1-1.387,1.5C13382.715,3452.894,13382.564,3452.984,13382.412,3452.954Z" transform="translate(-13285.583 -3413.424)" fill="#344154"/>
          </g>
          <path id="Trazado_111121" data-name="Trazado 111121" d="M13405.434,3257.792a1.775,1.775,0,0,1,0,.466,6.455,6.455,0,0,1-.1,1.338c-.105,1.263-.271,3.007-.482,5.232-.465,4.646-1.127,11.307-1.969,19.652v.512l-.451-.241-26.133-13.758.617-.166-14.193,23.937-.3.512-.48-.361-23.893-18.329h.678l-10.4,8.165-14.15,11.172-.525.406-.3-.586c-4.721-8.706-9.248-17.1-13.531-25l.676.226-28.674,12.78-.525.226-.09-.557c-1.67-9.833-3.113-18.389-4.33-25.561l.451.24-16.42,6.27-4.375,1.609-1.129.391a1.138,1.138,0,0,1-.391.105l.361-.181,1.1-.481,4.3-1.774,16.313-6.541.361-.15.076.391c1.277,7.112,2.811,15.652,4.51,25.471l-.631-.331,28.568-12.931.436-.2.24.421c4.285,7.909,8.842,16.284,13.533,24.99l-.842-.18,14.2-11.112,10.4-8.164.346-.271.348.271,23.861,18.374-.766.151,14.3-23.877.227-.391.391.21,26.012,13.983-.5.255c.961-8.33,1.744-15.036,2.283-19.546.287-2.226.5-3.955.662-5.218a8.761,8.761,0,0,1,.182-1.338,2.224,2.224,0,0,1,.158-.511Z" transform="translate(-13087.337 -3234.275)" fill="#aed3f2"/>
          <path id="Trazado_111122" data-name="Trazado 111122" d="M13430.006,3274.118a4.328,4.328,0,0,1-.119.632c-.123.466-.271,1.067-.453,1.834-.451,1.684-1.066,4.044-1.865,7.082-1.668,6.225-4.074,15.172-7.08,26.343l-.121.421-.406-.2-30.521-14.645.6-.166-25.727,36.688-.377.527-.465-.466-24.721-25.05-5.187-5.263.707.09-33.32,20.885-.465.3-.287-.5-17.953-31.711.557.21-34.252,11.789-.316.1-.121-.315c-3.232-9.413-5.8-16.871-7.518-22.042l-1.969-5.864-.48-1.5a2.456,2.456,0,0,1-.135-.527,1.912,1.912,0,0,1,.223.482c.137.391.332.872.574,1.5l2.135,5.8c1.85,5.157,4.51,12.57,7.893,21.938l-.436-.21,34.178-12.029.361-.135.2.346,18.043,31.651-.752-.2,33.289-20.93.375-.24.316.331q2.6,2.586,5.2,5.263l24.688,25.065-.84.075,25.848-36.6.225-.346.361.18,30.449,14.855-.512.241c3.143-11.126,5.652-20.043,7.412-26.253.873-3.007,1.5-5.368,2.029-7.037.24-.752.422-1.338.557-1.8a2.723,2.723,0,0,1,.18-.618Z" transform="translate(-13090.859 -3226.5)" fill="#aed3f2"/>
        </g>
        <g id="Grupo_58657" data-name="Grupo 58657" transform="translate(192.738)">
          <path id="Trazado_111123" data-name="Trazado 111123" d="M13387.959,3190.986a31.743,31.743,0,0,1-24.193-7.639c7.881,3.97,18.391-1.5,21.156-9.878s.5-24.058-6.391-29.516a27.314,27.314,0,0,0-23.74-5.112c-8.121,2.18-16.721,14.51-19.381,22.554l.148.24c-1.248-.5-2.5-.962-3.773-1.383a65.065,65.065,0,0,0-28.01-3.4,45.486,45.486,0,0,0-25.564,11.277l55.033,88.472c10-.887,18.855-7.623,24.057-16.179s7.248-18.75,7.744-28.778c.121-2.511.121-5.052,0-7.593l17.7,2.841a39.459,39.459,0,0,0-11.773-10.524,14.8,14.8,0,0,0,16.992-5.383Z" transform="translate(-13263.353 -3138.001)" fill="#344154"/>
          <g id="Grupo_58656" data-name="Grupo 58656" transform="translate(2.291 32.133)">
            <g id="Grupo_58655" data-name="Grupo 58655">
              <g id="Grupo_58654" data-name="Grupo 58654">
                <path id="Trazado_111124" data-name="Trazado 111124" d="M13322.551,3317.518a27.683,27.683,0,0,0,27.066-27.351l1.277-110.062h0a8.763,8.763,0,0,0-7.832-8.886l-46.494-11.759c-14.885-1.5-24.793,16.765-25.74,31.711-1.039,16.54-1.654,36.9.3,49.288,3.953,24.915,23.049,28.072,23.049,28.072s0,9.653.076,21.457a27.667,27.667,0,0,0,28.268,27.531Z" transform="translate(-13269.853 -3159.372)" fill="#ffbf9d"/>
                <g id="Grupo_58652" data-name="Grupo 58652" transform="translate(5.395 39.059)">
                  <path id="Trazado_111125" data-name="Trazado 111125" d="M13277,3192.212a3.187,3.187,0,0,0,3.082,3.218,3.007,3.007,0,0,0,3.291-2.872,3.218,3.218,0,0,0-3.082-3.233,3.006,3.006,0,0,0-3.291,2.887Z" transform="translate(-13271.648 -3183.354)" fill="#344154"/>
                  <path id="Trazado_111126" data-name="Trazado 111126" d="M13273.531,3188.644c.406.421,2.826-1.368,6.256-1.368s6.014,1.729,6.33,1.308c.18-.181-.211-.932-1.309-1.729a8.742,8.742,0,0,0-5.066-1.5,8.349,8.349,0,0,0-4.977,1.609C13273.682,3187.711,13273.23,3188.463,13273.531,3188.644Z" transform="translate(-13273.44 -3185.349)" fill="#344154"/>
                </g>
                <g id="Grupo_58653" data-name="Grupo 58653" transform="translate(39.13 39.75)">
                  <path id="Trazado_111127" data-name="Trazado 111127" d="M13298.7,3192.211a3.173,3.173,0,0,0,3.006,3.218,3.008,3.008,0,0,0,3.295-2.872,3.2,3.2,0,0,0-3.006-3.232,3.007,3.007,0,0,0-3.295,2.886Z" transform="translate(-13294.456 -3184.046)" fill="#344154"/>
                  <path id="Trazado_111128" data-name="Trazado 111128" d="M13295.914,3189.1c.391.421,2.813-1.368,6.256-1.368s6.014,1.729,6.314,1.308c.2-.18-.209-.932-1.309-1.729a8.731,8.731,0,0,0-5.066-1.5,8.389,8.389,0,0,0-4.977,1.595C13296.064,3188.111,13295.762,3188.878,13295.914,3189.1Z" transform="translate(-13295.877 -3185.809)" fill="#344154"/>
                </g>
                <path id="Trazado_111129" data-name="Trazado 111129" d="M13290.52,3214.509a23.274,23.274,0,0,0-5.58-1.007c-.887-.09-1.713-.256-1.863-.857a4.515,4.515,0,0,1,.586-2.6c.826-2.121,1.684-4.361,2.6-6.691,3.594-9.518,6.209-17.336,5.818-17.472s-3.609,7.518-7.217,16.961q-1.307,3.519-2.48,6.736a5.133,5.133,0,0,0-.467,3.443,2.238,2.238,0,0,0,1.5,1.278,6.606,6.606,0,0,0,1.506.21,22.548,22.548,0,0,0,5.594,0Z" transform="translate(-13263.833 -3146.024)" fill="#344154"/>
                <path id="Trazado_111130" data-name="Trazado 111130" d="M13286.1,3234.977a63.383,63.383,0,0,0,33.348-8.887s-8.088,17.112-33.078,14.782Z" transform="translate(-13261.67 -3125.774)" fill="#ff9a6c"/>
                <path id="Trazado_111131" data-name="Trazado 111131" d="M13288.716,3211.213a6.224,6.224,0,0,1,5.551-2.3,5.713,5.713,0,0,1,3.908,2.105,3.59,3.59,0,0,1,.27,4.089,4.164,4.164,0,0,1-4.51,1.142,12.893,12.893,0,0,1-4.391-2.631,3.418,3.418,0,0,1-.979-1.007,1.128,1.128,0,0,1,0-1.278" transform="translate(-13260.526 -3134.443)" fill="#ff9a6c"/>
                <path id="Trazado_111132" data-name="Trazado 111132" d="M13298.072,3206.5c-.557,0-.57,3.7-3.758,6.36s-7.172,2.225-7.2,2.751c0,.241.887.722,2.57.767a9.25,9.25,0,0,0,6.014-2.09,8.115,8.115,0,0,0,2.92-5.323C13298.674,3207.4,13298.223,3206.485,13298.072,3206.5Z" transform="translate(-13261.161 -3135.639)" fill="#344154"/>
              </g>
              <path id="Trazado_111133" data-name="Trazado 111133" d="M13294.907,3184.869c.33.932,3.773.481,7.8.977s7.291,1.579,7.818.737c.242-.391-.314-1.278-1.639-2.18a13.133,13.133,0,0,0-5.8-2.03,12.957,12.957,0,0,0-6.105.722C13295.509,3183.635,13294.757,3184.372,13294.907,3184.869Z" transform="translate(-13257.244 -3147.838)" fill="#344154"/>
              <path id="Trazado_111134" data-name="Trazado 111134" d="M13273.838,3184.49c.617.782,3.008,0,5.818,0s5.264.526,5.82-.286c.24-.406-.135-1.188-1.187-1.925a8.465,8.465,0,0,0-9.383.286C13273.838,3183.317,13273.537,3184.114,13273.838,3184.49Z" transform="translate(-13267.901 -3148.482)" fill="#344154"/>
            </g>
            <path id="Trazado_111135" data-name="Trazado 111135" d="M13322.256,3193.994a6.257,6.257,0,0,1,6.512.331,11.547,11.547,0,0,1-7.275,21.441" transform="translate(-13243.847 -3142.319)" fill="#ffbf9d"/>
            <path id="Trazado_111136" data-name="Trazado 111136" d="M13323.287,3206.486c0-.181.979.21,2.18-.331a4.765,4.765,0,0,0-.525-8.254c-1.248-.511-2.166-.255-2.209-.451s.842-.782,2.48-.421a4.51,4.51,0,0,1,2.438,1.5,5.55,5.55,0,0,1,1.23,3.278,4.941,4.941,0,0,1-3.109,5.188C13324.039,3207.448,13323.137,3206.592,13323.287,3206.486Z" transform="translate(-13243.224 -3140.466)" fill="#ff9a6c"/>
          </g>
          <path id="Trazado_111137" data-name="Trazado 111137" d="M13328.971,3207.295a5.007,5.007,0,0,1,1.143.8l3.008,2.5,10.752,9.127.359.3-.314.376c-4,4.8-8.451,10.826-13.533,17.111-1.127,1.413-2.27,2.8-3.367,4.1l-.918,1.083v-1.429c-.451-10.134-.812-19.11-1.008-25.561,0-3.007-.135-5.608-.18-7.593a14.079,14.079,0,0,1,.074-2.766,14.332,14.332,0,0,1,.33,2.751c.135,1.985.316,4.511.525,7.518.391,6.436.887,15.412,1.369,25.561l-.979-.331,3.338-4.09c4.992-6.27,9.5-12.254,13.621-17.021v.676l-10.523-9.442-2.887-2.691a5.623,5.623,0,0,1-.811-.977Z" transform="translate(-13239.851 -3104.09)" fill="#5e6178"/>
          <path id="Trazado_111138" data-name="Trazado 111138" d="M13307.079,3152.19a90.8,90.8,0,0,0-18.166,1.984,30.442,30.442,0,0,0-15.7,8.842,18.507,18.507,0,0,0-4.342,16.99c1.742,5.849,7.742,10.42,13.8,9.608,4.586-.6,9.021-4,13.412-2.662s6.5,6.391,10.795,7.188,8.043-3.007,12.344-3.4c4.752-.421,8.873,3.474,10.977,7.759s2.918,9.1,5.053,13.367c1.354,2.722,3.457,5.338,6.4,6.1a8.843,8.843,0,0,0,7.775-2.194,17.984,17.984,0,0,0,4.512-6.947,38.675,38.675,0,0,0-31.428-53.033" transform="translate(-13268.328 -3130.856)" fill="#344154"/>
          <path id="Trazado_111139" data-name="Trazado 111139" d="M13343.483,3177.941c-.2,0-.766-2.015-2.3-5.067a36.077,36.077,0,0,0-19.258-17.412c-3.189-1.2-5.311-1.579-5.264-1.774s.541,0,1.5.09a22.915,22.915,0,0,1,4.016.933,32.978,32.978,0,0,1,19.729,17.833,23.248,23.248,0,0,1,1.352,3.895A6.992,6.992,0,0,1,13343.483,3177.941Z" transform="translate(-13243.988 -3130.144)" fill="#d9a171"/>
          <path id="Trazado_111140" data-name="Trazado 111140" d="M13359.086,3146.574a40.273,40.273,0,0,0-6.016-1.865,24.055,24.055,0,0,0-14.613,2.21,32.344,32.344,0,0,0-11.293,9.817c-2.314,3.144-3.383,5.324-3.562,5.249a5.086,5.086,0,0,1,.6-1.624,31.924,31.924,0,0,1,13.758-14.45,23.078,23.078,0,0,1,15.264-1.969,17,17,0,0,1,4.42,1.64A5.222,5.222,0,0,1,13359.086,3146.574Z" transform="translate(-13240.494 -3135.269)" fill="#5e6178"/>
          <path id="Trazado_111141" data-name="Trazado 111141" d="M13335.7,3165a15.793,15.793,0,0,1,0,5.127,40.583,40.583,0,0,1-9.684,22.464,15.509,15.509,0,0,1-3.744,3.487c-.3-.24,5.564-5.608,9.291-14.419S13335.4,3165,13335.7,3165Z" transform="translate(-13241.168 -3124.405)" fill="#5e6178"/>
          <path id="Trazado_111142" data-name="Trazado 111142" d="M13334.752,3165.34a4.327,4.327,0,0,1,.6,1.413,23.716,23.716,0,0,1,.98,4.1,35.213,35.213,0,0,1-6.678,26.435,24.049,24.049,0,0,1-2.812,3.141c-.723.677-1.158,1.022-1.2.962s1.4-1.7,3.369-4.511a38.943,38.943,0,0,0,6.523-25.861C13335.2,3167.49,13334.6,3165.385,13334.752,3165.34Z" transform="translate(-13239.466 -3124.234)" fill="#5e6178"/>
        </g>
      </g>
    </g>
    <path id="Trazado_141543" data-name="Trazado 141543" d="M13395.9,3630.161l96.311-61.817,21.737,21.738,60.32-42.44-15.259-7.932h33.831l-8.351,31.052-5.038-17.88-68.1,48.371-21.018-21.378-90.264,57.887Z" transform="translate(-13099.609 -538.459)" fill="#d9a171"/>
  </g>
</svg>
