<svg xmlns="http://www.w3.org/2000/svg" width="505" height="633.528" viewBox="0 0 505 633.528">
  <g id="Grupo_70270" data-name="Grupo 70270" transform="translate(-915.563 -2841)">
    <g id="Grupo_70264" data-name="Grupo 70264" transform="translate(0.563 2443.917)">
      <rect id="Rectángulo_31121" data-name="Rectángulo 31121" width="505" height="633.528" transform="translate(915 397.083)" fill="none"/>
    </g>
    <g id="Grupo_68414" data-name="Grupo 68414" transform="translate(780 -1522)">
      <rect id="Rectángulo_31400" data-name="Rectángulo 31400" width="422.418" height="631.515" transform="translate(180 4363)" fill="none"/>
      <g id="Grupo_63545" data-name="Grupo 63545" transform="translate(443.676 4813.061)">
        <g id="Grupo_63544" data-name="Grupo 63544">
          <path id="Trazado_140317" data-name="Trazado 140317" d="M1641.11,4355.068v24.678h5.7a34.272,34.272,0,0,1,0-7.875c.541-2.954,6.733-10.415,6.546-16.853Z" transform="translate(-1637.232 -4198.007)" fill="#aed3f2"/>
          <path id="Trazado_140318" data-name="Trazado 140318" d="M1687.43,4355.068v24.678h5.7a34.272,34.272,0,0,1,0-7.875c.541-2.954,6.723-10.415,6.546-16.853Z" transform="translate(-1637.956 -4198.007)" fill="#839eb6"/>
          <path id="Trazado_140319" data-name="Trazado 140319" d="M1732.566,4355.068v24.678h-5.67a34.9,34.9,0,0,0,0-7.875c-.551-2.954-6.733-10.415-6.556-16.853Z" transform="translate(-1638.472 -4198.007)" fill="#aed3f2"/>
          <path id="Trazado_140320" data-name="Trazado 140320" d="M1772.655,4355.068v24.678h-5.7a34.873,34.873,0,0,0,0-7.875c-.541-2.954-6.733-10.415-6.546-16.853Z" transform="translate(-1639.099 -4198.007)" fill="#839eb6"/>
          <rect id="Rectángulo_15044" data-name="Rectángulo 15044" width="136.549" height="122.62" transform="translate(0 35.24)" fill="#aed3f2"/>
          <path id="Trazado_140321" data-name="Trazado 140321" d="M2109.51,4443.97l1.024,122.62H2146.3V4443.96Z" transform="translate(-2009.756 -4408.73)" fill="#839eb6"/>
          <rect id="Rectángulo_15045" data-name="Rectángulo 15045" width="87.666" height="31.204" transform="translate(6.142 44.256)" fill="#aed3f2"/>
          <rect id="Rectángulo_15046" data-name="Rectángulo 15046" width="87.666" height="31.204" transform="translate(6.142 81.681)" fill="#aed3f2"/>
          <rect id="Rectángulo_15047" data-name="Rectángulo 15047" width="87.666" height="31.204" transform="translate(6.142 119.097)" fill="#aed3f2"/>
          <g id="Grupo_63543" data-name="Grupo 63543" transform="translate(35.968)">
            <path id="Trazado_140322" data-name="Trazado 140322" d="M2048.49,4408.17l-3.78,35.092h48.449l4.017-35.092Z" transform="translate(-2044.71 -4408.17)" fill="#839eb6"/>
            <path id="Trazado_140323" data-name="Trazado 140323" d="M2050.512,4410.729l-3.672,30.711h43.725l3.534-30.711Z" transform="translate(-2044.743 -4408.209)" fill="#fff"/>
            <path id="Trazado_140324" data-name="Trazado 140324" d="M2058.014,4415.98l-2.264,20.376h27.591l1.417-20.376Z" transform="translate(-2044.883 -4408.292)" fill="#aed3f2"/>
          </g>
          <path id="Trazado_140325" data-name="Trazado 140325" d="M2096.213,4423.52l10.011,20.12-12.294-.138,2.283-19.981" transform="translate(-2009.512 -4408.41)" fill="#aed3f2"/>
        </g>
        <path id="Trazado_140326" data-name="Trazado 140326" d="M1691.1,4257.949a3.209,3.209,0,1,1-3.209-3.209,3.209,3.209,0,0,1,3.209,3.209Z" transform="translate(-1637.913 -4196.437)" fill="#839eb6"/>
        <path id="Trazado_140327" data-name="Trazado 140327" d="M1691.1,4296.319a3.209,3.209,0,1,1-3.209-3.208,3.209,3.209,0,0,1,3.209,3.208Z" transform="translate(-1637.913 -4197.037)" fill="#839eb6"/>
        <path id="Trazado_140328" data-name="Trazado 140328" d="M1691.1,4334.719a3.209,3.209,0,1,1-3.209-3.208,3.209,3.209,0,0,1,3.209,3.208Z" transform="translate(-1637.913 -4197.639)" fill="#839eb6"/>
      </g>
      <g id="Grupo_63546" data-name="Grupo 63546" transform="translate(192.219 4587.213)">
        <path id="Trazado_140329" data-name="Trazado 140329" d="M2102.25,4241.449l-77.57-.749,2.16,101.092,77.57.286Z" transform="translate(-2024.68 -4240.7)" fill="#839eb6"/>
        <path id="Trazado_140330" data-name="Trazado 140330" d="M2097.314,4246.016l-67.9-1.766,1.963,91.684,67.885.838Z" transform="translate(-2024.745 -4240.749)" fill="#fafafa"/>
        <path id="Trazado_140331" data-name="Trazado 140331" d="M2085.883,4259.909l-45.063-.75,1.381,64.088,45.013-.966Z" transform="translate(-2024.901 -4240.953)" fill="#aed3f2"/>
        <path id="Trazado_140332" data-name="Trazado 140332" d="M2042.2,4323.248l44.3-33.888-45.684-30.2Z" transform="translate(-2024.901 -4240.953)" fill="#aed3f2"/>
      </g>
      <g id="Grupo_63547" data-name="Grupo 63547" transform="translate(524.809 4375.281)">
        <path id="Trazado_140333" data-name="Trazado 140333" d="M2440.832,4188.031l-68.062-.661,1.9,88.685,68.042.247Z" transform="translate(-2372.77 -4187.37)" fill="#839eb6"/>
        <path id="Trazado_140334" data-name="Trazado 140334" d="M2436.49,4192.028l-59.571-1.548,1.726,80.43,59.551.739Z" transform="translate(-2372.827 -4187.413)" fill="#fafafa"/>
        <path id="Trazado_140335" data-name="Trazado 140335" d="M2426.46,4204.22l-39.52-.66,1.2,56.227,39.49-.848Z" transform="translate(-2372.965 -4187.593)" fill="#aed3f2"/>
        <path id="Trazado_140336" data-name="Trazado 140336" d="M2388.143,4259.787l38.869-29.726-40.072-26.5Z" transform="translate(-2372.965 -4187.593)" fill="#aed3f2"/>
      </g>
      <g id="Grupo_63548" data-name="Grupo 63548" transform="translate(289.281 4907.261)">
        <path id="Trazado_140337" data-name="Trazado 140337" d="M1993.48,4313.479c-.286.868,9.863,39.451,9.863,39.451l6.963-1.45-9.576-38Z" transform="translate(-1993.474 -4291.684)" fill="#aed3f2"/>
        <path id="Trazado_140338" data-name="Trazado 140338" d="M2419,4520.55l-13.926,44.964h8.127l13.344-41.779Z" transform="translate(-2365.031 -4504.268)" fill="#aed3f2"/>
        <path id="Trazado_140339" data-name="Trazado 140339" d="M2431.908,4513.48l-15.958,51.937h8.127l15.376-48.742Z" transform="translate(-2365.181 -4504.17)" fill="#aed3f2"/>
        <path id="Trazado_140340" data-name="Trazado 140340" d="M2369.48,4562.9l8.127,28.139h40.9l7.545-28.139Z" transform="translate(-2364.542 -4504.849)" fill="#839eb6"/>
        <path id="Trazado_140341" data-name="Trazado 140341" d="M2019.587,4349.432a2.694,2.694,0,0,1-.089-.285l-.217-.859c-.187-.8-.444-1.9-.779-3.324l-2.811-12.289c-2.337-10.444-5.573-24.874-9.182-40.979l.247.2h-7.16l.247-.306c3.639,16.116,6.9,30.574,9.241,41.009,1.144,5.188,2.071,9.39,2.712,12.319.306,1.431.542,2.555.72,3.344.069.365.128.651.168.878a.982.982,0,0,1,0,.3,2.739,2.739,0,0,1-.089-.286c-.059-.218-.128-.5-.217-.858-.2-.8-.464-1.9-.809-3.324-.68-2.959-1.657-7.111-2.87-12.289-2.4-10.444-5.7-24.874-9.389-40.979l-.079-.315h7.693v.207c3.541,16.116,6.726,30.574,9.024,41.009,1.115,5.188,1.973,9.39,2.653,12.319.3,1.431.523,2.555.69,3.344l.168.878A.989.989,0,0,1,2019.587,4349.432Z" transform="translate(-1993.553 -4291.381)" fill="#839eb6"/>
      </g>
      <g id="Grupo_63559" data-name="Grupo 63559" transform="translate(249.168 4368.77)">
        <rect id="Rectángulo_15048" data-name="Rectángulo 15048" width="306.702" height="420.259" transform="translate(0 33.35)" fill="#5e6178"/>
        <path id="Trazado_140358" data-name="Trazado 140358" d="M2403.727,4610.734H2134.7V4232.451h269.027v378.284Z" transform="translate(-2109.153 -4182.115)" fill="#839eb6"/>
        <path id="Trazado_140359" data-name="Trazado 140359" d="M2399.861,4604.759H2133.25V4228.5h266.611v376.259Z" transform="translate(-2109.537 -4183.16)" fill="#aed3f2"/>
        <g id="Grupo_63552" data-name="Grupo 63552" transform="translate(18.553 46.01)">
          <path id="Trazado_140360" data-name="Trazado 140360" d="M2372.256,4575.284l-30.707,25H2129.32V4229.25h269.039v324.875Z" transform="translate(-2129.13 -4228.972)" fill="#fafafa"/>
          <path id="Trazado_140361" data-name="Trazado 140361" d="M2001.3,4362.682l1.644-1.365,4.92-4.023,19.463-15.845v.088c0-53.371-.1-172-.189-324.875l.291.291H1758.4l.329-.329c0,139.484,0,268.116-.076,371.024l-.253-.252,212.229.152h-.076l23.068-18.719,5.78-4.666c1.265-1.037,1.935-1.543,1.935-1.543s-.633.545-1.9,1.593l-5.742,4.718-23.031,18.794h0l-212.229.151h-.266V4016.37h269.659v.3c-.088,152.927-.165,271.505-.19,324.876h0l-19.717,15.821-4.958,3.984C2001.865,4362.252,2001.3,4362.682,2001.3,4362.682Z" transform="translate(-1758.17 -4016.37)" fill="#344154"/>
        </g>
        <path id="Trazado_140362" data-name="Trazado 140362" d="M2210.906,4208.75h73.542a17.9,17.9,0,0,1,17.9,17.9v19.844h-110.1V4227.4a18.665,18.665,0,0,1,18.667-18.652Z" transform="translate(-2093.921 -4188.388)" fill="#d9a171"/>
        <path id="Trazado_140363" data-name="Trazado 140363" d="M2214.392,4213.012l-4.022-20.363h63.387l-3.516,20.363Z" transform="translate(-2089.123 -4192.649)" fill="#d9a171"/>
        <g id="Grupo_63553" data-name="Grupo 63553" transform="translate(46.882 105.413)">
          <path id="Trazado_140364" data-name="Trazado 140364" d="M1825.884,4108.667H1780.57v-45.326h45.314Zm-44.05-1.265h42.785v-42.8h-42.785Z" transform="translate(-1780.57 -4063.341)" fill="#d9a171"/>
          <path id="Trazado_140365" data-name="Trazado 140365" d="M1972.545,4072.068c0,.19-31.618.329-70.469.329s-70.456-.139-70.456-.329,31.541-.329,70.456-.329S1972.545,4071.879,1972.545,4072.068Z" transform="translate(-1767.057 -4061.116)" fill="#344154"/>
          <path id="Trazado_140366" data-name="Trazado 140366" d="M1972.545,4079.509c0,.177-31.618.329-70.469.329s-70.456-.152-70.456-.329,31.541-.329,70.456-.329S1972.545,4079.32,1972.545,4079.509Z" transform="translate(-1767.057 -4059.147)" fill="#344154"/>
          <path id="Trazado_140367" data-name="Trazado 140367" d="M1972.545,4086.959c0,.177-31.618.329-70.469.329s-70.456-.152-70.456-.329,31.541-.329,70.456-.329S1972.545,4086.769,1972.545,4086.959Z" transform="translate(-1767.057 -4057.175)" fill="#344154"/>
          <path id="Trazado_140368" data-name="Trazado 140368" d="M1972.545,4094.4c0,.189-31.618.329-70.469.329s-70.456-.139-70.456-.329,31.541-.329,70.456-.329S1972.545,4094.222,1972.545,4094.4Z" transform="translate(-1767.057 -4055.206)" fill="#344154"/>
        </g>
        <g id="Grupo_63554" data-name="Grupo 63554" transform="translate(46.882 175.263)">
          <path id="Trazado_140369" data-name="Trazado 140369" d="M1825.884,4163.9H1780.57V4118.57h45.314Zm-44.05-1.264h42.785v-42.8h-42.785Z" transform="translate(-1780.57 -4118.57)" fill="#d9a171"/>
          <path id="Trazado_140370" data-name="Trazado 140370" d="M2158.69,4354.216l6.02-6.462,10.029,8.031,22.955-22.285,5.5,6.475-28.9,28.507Z" transform="translate(-2149.686 -4330.63)" fill="#d9a171"/>
          <path id="Trazado_140371" data-name="Trazado 140371" d="M1972.545,4127.289c0,.189-31.618.328-70.469.328s-70.456-.139-70.456-.328,31.541-.329,70.456-.329S1972.545,4127.112,1972.545,4127.289Z" transform="translate(-1767.057 -4116.35)" fill="#344154"/>
          <path id="Trazado_140372" data-name="Trazado 140372" d="M1972.545,4134.739c0,.19-31.618.329-70.469.329s-70.456-.139-70.456-.329,31.541-.328,70.456-.328S1972.545,4134.562,1972.545,4134.739Z" transform="translate(-1767.057 -4114.378)" fill="#344154"/>
          <path id="Trazado_140373" data-name="Trazado 140373" d="M1972.545,4142.189c0,.177-31.618.328-70.469.328s-70.456-.152-70.456-.328,31.541-.329,70.456-.329S1972.545,4142.037,1972.545,4142.189Z" transform="translate(-1767.057 -4112.406)" fill="#344154"/>
          <path id="Trazado_140374" data-name="Trazado 140374" d="M1972.545,4149.639c0,.177-31.618.328-70.469.328s-70.456-.151-70.456-.328,31.541-.329,70.456-.329S1972.545,4149.449,1972.545,4149.639Z" transform="translate(-1767.057 -4110.434)" fill="#344154"/>
        </g>
        <g id="Grupo_63555" data-name="Grupo 63555" transform="translate(46.882 108.433)">
          <path id="Trazado_140375" data-name="Trazado 140375" d="M1825.884,4217.353H1780.57V4172h45.314Zm-44.05-1.265h42.785v-42.823h-42.785Z" transform="translate(-1780.57 -4037.597)" fill="#d9a171"/>
          <path id="Trazado_140376" data-name="Trazado 140376" d="M2158.69,4407.668l6.02-6.461,10.029,8.029,22.955-22.3,5.5,6.488-28.9,28.506Z" transform="translate(-2149.686 -4386.94)" fill="#d9a171"/>
          <path id="Trazado_140377" data-name="Trazado 140377" d="M1972.545,4180.739c0,.19-31.618.329-70.469.329s-70.456-.139-70.456-.329,31.541-.328,70.456-.328S1972.545,4180.562,1972.545,4180.739Z" transform="translate(-1767.057 -4035.372)" fill="#344154"/>
          <path id="Trazado_140378" data-name="Trazado 140378" d="M1972.545,4188.189c0,.178-31.618.329-70.469.329s-70.456-.151-70.456-.329,31.541-.329,70.456-.329S1972.545,4188.037,1972.545,4188.189Z" transform="translate(-1767.057 -4033.399)" fill="#344154"/>
          <path id="Trazado_140379" data-name="Trazado 140379" d="M1972.545,4195.638c0,.178-31.618.329-70.469.329s-70.456-.151-70.456-.329,31.541-.328,70.456-.328S1972.545,4195.449,1972.545,4195.638Z" transform="translate(-1767.057 -4031.428)" fill="#344154"/>
          <path id="Trazado_140380" data-name="Trazado 140380" d="M1972.545,4203.069c0,.189-31.618.328-70.469.328s-70.456-.139-70.456-.328,31.541-.329,70.456-.329S1972.545,4202.9,1972.545,4203.069Z" transform="translate(-1767.057 -4029.461)" fill="#344154"/>
        </g>
        <g id="Grupo_63556" data-name="Grupo 63556" transform="translate(46.882 308.119)">
          <path id="Trazado_140381" data-name="Trazado 140381" d="M1825.884,4268.947H1780.57V4223.62h45.314Zm-44.05-1.266h42.785v-42.8h-42.785Z" transform="translate(-1780.57 -4223.62)" fill="#d9a171"/>
          <path id="Trazado_140382" data-name="Trazado 140382" d="M2158.69,4459.279l6.02-6.462,10.029,8.018,22.955-22.285,5.5,6.489-28.9,28.506Z" transform="translate(-2149.686 -4435.68)" fill="#d9a171"/>
          <path id="Trazado_140383" data-name="Trazado 140383" d="M1972.545,4232.349c0,.177-31.618.328-70.469.328s-70.456-.151-70.456-.328,31.541-.329,70.456-.329S1972.545,4232.159,1972.545,4232.349Z" transform="translate(-1767.057 -4221.396)" fill="#344154"/>
          <path id="Trazado_140384" data-name="Trazado 140384" d="M1972.545,4239.8c0,.177-31.618.329-70.469.329s-70.456-.152-70.456-.329,31.541-.329,70.456-.329S1972.545,4239.609,1972.545,4239.8Z" transform="translate(-1767.057 -4219.424)" fill="#344154"/>
          <path id="Trazado_140385" data-name="Trazado 140385" d="M1972.545,4247.239c0,.189-31.618.329-70.469.329s-70.456-.139-70.456-.329,31.541-.328,70.456-.328S1972.545,4247.024,1972.545,4247.239Z" transform="translate(-1767.057 -4217.457)" fill="#344154"/>
          <path id="Trazado_140386" data-name="Trazado 140386" d="M1972.545,4254.688c0,.177-31.618.329-70.469.329s-70.456-.153-70.456-.329,31.541-.329,70.456-.329S1972.545,4254.511,1972.545,4254.688Z" transform="translate(-1767.057 -4215.483)" fill="#344154"/>
        </g>
        <path id="Trazado_140387" data-name="Trazado 140387" d="M2309.973,4474.06l-29.493,61.085h21.057Z" transform="translate(-2070.565 -4118.161)" fill="#839eb6"/>
        <g id="Grupo_63557" data-name="Grupo 63557" transform="translate(230.943 355.874)">
          <path id="Trazado_140388" data-name="Trazado 140388" d="M2297.13,4535.415l8.436-61.085,48.374,14.924Z" transform="translate(-2297.102 -4473.963)" fill="#fafafa"/>
          <path id="Trazado_140389" data-name="Trazado 140389" d="M1926.136,4322.869l16.264-13.38,40.331-33.021.114.557-18.68-5.754-29.682-9.182.392-.253c-2.53,17.706-4.692,32.945-6.235,43.746-1.517,10.5-2.3,15.922-2.529,17.288a2.6,2.6,0,0,1,0-.265l.113-.847c.1-.785.24-1.9.43-3.326.392-2.96.948-7.234,1.657-12.584,1.467-10.9,3.516-26.217,5.906-44.1v-.367l.342.114,29.708,9.143,18.667,5.767.582.177-.468.38-40.824,32.882-11.926,9.586-3.187,2.53c-.329.279-.607.481-.809.645S1926.136,4322.869,1926.136,4322.869Z" transform="translate(-1926.107 -4261.38)" fill="#344154"/>
        </g>
        <g id="Grupo_63558" data-name="Grupo 63558" transform="translate(176.767 0)" opacity="0.3">
          <path id="Trazado_140390" data-name="Trazado 140390" d="M2257.76,4192.649l-3.49,20.363h4.351l3.516-20.363h-5.54" transform="translate(-2254.27 -4192.649)" fill="#d9a171"/>
        </g>
      </g>
      <g id="Grupo_63576" data-name="Grupo 63576" transform="translate(187.518 4606.135)">
        <g id="Grupo_63560" data-name="Grupo 63560" transform="translate(30.971 10.175)">
          <path id="Trazado_140391" data-name="Trazado 140391" d="M1741.2,4163.963h0a11.383,11.383,0,0,0,12.23-10.915c.24-6.185.455-12.444.455-12.444s9.384-.886,10.117-10.118.367-30.731.367-30.731h0a32.377,32.377,0,0,0-32.706,2.1l.569,32.692v17.58C1732.242,4157.98,1735.315,4163.507,1741.2,4163.963Z" transform="translate(-1712.043 -4079.463)" fill="#ffbf9d"/>
          <path id="Trazado_140392" data-name="Trazado 140392" d="M1755.713,4120.749a4.754,4.754,0,0,0-6.323-1.379,5.387,5.387,0,0,0-1.8,6.741,7.091,7.091,0,0,0,4.552,3.453,3.567,3.567,0,0,1,2.8,3.794,11.929,11.929,0,0,1-3.263,6.476,17.19,17.19,0,0,1-10.75,5.058c-3.958.467-8.486-.367-10.788-3.618-1.682-2.364-1.8-5.45-1.859-8.347q-.216-10.282-.43-20.551a29.966,29.966,0,0,1,.468-7.374,9.936,9.936,0,0,1,3.9-6.095c2.264-1.48,5.059-1.606,7.689-2.441,3.225-1.037,5.956-3.175,8.967-4.717s6.69-2.454,9.713-.937c2.175,1.088,3.63,3.25,5.729,4.452,3.01,1.707,7.095,1.264,8.549,5.728a7.475,7.475,0,0,1,0,4.731c-2.036,6.007-9.472,8.423-14.835,5.83-.1,1.025.9,3.289-.177,6.5-.341,1.024-.455,2.593-2.062,2.617" transform="translate(-1713.065 -4081.12)" fill="#344154"/>
          <path id="Trazado_140393" data-name="Trazado 140393" d="M1732.892,4103.5a31.6,31.6,0,0,0,2.985-9.332,10.7,10.7,0,0,0-2.922-9.017,8.85,8.85,0,0,0-6.121-2.163,10.331,10.331,0,0,0-9.334,7.386,11.139,11.139,0,0,0,3.794,11.381,12.1,12.1,0,0,0,12.04,1.568" transform="translate(-1715.88 -4082.986)" fill="#344154"/>
          <path id="Trazado_140394" data-name="Trazado 140394" d="M1731.921,4096.53a4.579,4.579,0,0,1-4.4,4.3,16.968,16.968,0,0,0,2.53-1.771,19.9,19.9,0,0,0,1.872-2.528Z" transform="translate(-1713.139 -4079.401)" fill="#d9a171"/>
          <path id="Trazado_140395" data-name="Trazado 140395" d="M1730.846,4100.085a8.854,8.854,0,0,1-2.529,1.847,7.124,7.124,0,0,1-3.314.936,4.6,4.6,0,0,1-3.883-1.733,5.133,5.133,0,0,1-.683-4.2,8.143,8.143,0,0,1,1.556-3.073,9.46,9.46,0,0,1,2.2-2.214c.089,0-.734.949-1.821,2.53a8.38,8.38,0,0,0-1.341,2.935,4.625,4.625,0,0,0,.62,3.679,4.073,4.073,0,0,0,3.339,1.519,7.08,7.08,0,0,0,3.124-.747C1729.809,4100.692,1730.783,4099.985,1730.846,4100.085Z" transform="translate(-1715.061 -4080.692)" fill="#344154"/>
          <path id="Trazado_140396" data-name="Trazado 140396" d="M1716.15,4108.593a4.325,4.325,0,0,1,.442,1.024,10.259,10.259,0,0,0,1.379,2.644,3.794,3.794,0,0,0,3.63,1.681,5.057,5.057,0,0,0,3.5-3.528,35.585,35.585,0,0,0,.949-5.4,8.326,8.326,0,0,1,1.771-4.25,4.579,4.579,0,0,1,2.707-1.543,1.769,1.769,0,0,1,1.139.1c0,.063-.418,0-1.088.153a4.575,4.575,0,0,0-2.4,1.593,8.178,8.178,0,0,0-1.53,4.048,31.953,31.953,0,0,1-.923,5.513,5.54,5.54,0,0,1-4.009,3.908,3.714,3.714,0,0,1-2.53-.494,5.039,5.039,0,0,1-1.593-1.5,9.216,9.216,0,0,1-1.265-2.846,2.876,2.876,0,0,1-.177-1.1Z" transform="translate(-1716.148 -4078.702)" fill="#344154"/>
        </g>
        <path id="Trazado_140397" data-name="Trazado 140397" d="M1712.981,4168.321s-4.743,34.678,0,39.079,9.283,2.934,9.283,2.934l9.017-7.588,1.77-34.475Z" transform="translate(-1686.574 -4050.236)" fill="#ffbf9d"/>
        <g id="Grupo_63561" data-name="Grupo 63561" transform="translate(101.315 0)">
          <path id="Trazado_140398" data-name="Trazado 140398" d="M2160.99,4308.329l6.02-6.463,10.029,8.031,22.955-22.3,5.5,6.488-28.9,28.505Z" transform="translate(-2137.947 -4287.601)" fill="#d9a171"/>
          <path id="Trazado_140399" data-name="Trazado 140399" d="M1823.091,4092.732l-8.727,5.59c-.392-3.44-3.023-6.867-2.9-5.135s0,10.725,0,10.725l-15.569,32.745c-2.112,5.2-6.4,8.448-9.6,9.219l-14.531,4.325,5.678,19.2,20.235-6.69a17.442,17.442,0,0,0,11.066-11.091l13.911-42.4a65.4,65.4,0,0,0,2.251-8.348C1825.494,4097.323,1823.091,4092.732,1823.091,4092.732Z" transform="translate(-1771.77 -4070.232)" fill="#ffbf9d"/>
        </g>
        <g id="Grupo_63565" data-name="Grupo 63565" transform="translate(62.628 370.91)">
          <g id="Grupo_63563" data-name="Grupo 63563" transform="translate(0.101)">
            <path id="Trazado_140400" data-name="Trazado 140400" d="M1759.674,4377.934l-.228-9.714-18.186.291.164,14.216h1.138c5.059.2,25.559.657,28.9-.418C1775.179,4381.171,1759.674,4377.934,1759.674,4377.934Z" transform="translate(-1741.26 -4368.22)" fill="#d9a171"/>
            <g id="Grupo_63562" data-name="Grupo 63562" transform="translate(0.101 9.175)" opacity="0.5">
              <path id="Trazado_140401" data-name="Trazado 140401" d="M1748,4380.553a6.325,6.325,0,0,0-2.39-3.794,6.175,6.175,0,0,0-4.275-1.265l.076,5.059Z" transform="translate(-1741.34 -4375.474)" fill="#fff"/>
            </g>
          </g>
          <g id="Grupo_63564" data-name="Grupo 63564" transform="translate(0.266 11.56)" opacity="0.4">
            <path id="Trazado_140402" data-name="Trazado 140402" d="M1767.215,4377.359s5.438,1.48,4.78,2.378-21.424,1.264-30.606.569v-.4l24.232-.178S1766.19,4377.423,1767.215,4377.359Z" transform="translate(-1741.39 -4377.359)" fill="#fff"/>
          </g>
          <path id="Trazado_140403" data-name="Trazado 140403" d="M1741.18,4379.469a1.71,1.71,0,0,0,.316,0h.9l3.314.088c2.795,0,6.652.088,10.914,0s8.132-.2,10.914-.341l3.314-.19.9-.076a.933.933,0,0,0,.3,0h-1.214l-3.3.113c-2.795.1-6.652.215-10.914.278s-8.119.063-10.914,0h-4.528Z" transform="translate(-1741.18 -4365.379)" fill="#344154"/>
          <path id="Trazado_140404" data-name="Trazado 140404" d="M1760.573,4380.058a6.792,6.792,0,0,1,.594-1.593,7.1,7.1,0,0,1,1.1-1.264,2.416,2.416,0,0,0-1.265,1.162A2.532,2.532,0,0,0,1760.573,4380.058Z" transform="translate(-1736.05 -4365.844)" fill="#344154"/>
          <path id="Trazado_140405" data-name="Trazado 140405" d="M1756.292,4377.691a3.671,3.671,0,0,0,.569-.708c.266-.43.417-.785.367-.822s-.3.291-.557.709S1756.241,4377.666,1756.292,4377.691Z" transform="translate(-1737.182 -4366.119)" fill="#344154"/>
          <path id="Trazado_140406" data-name="Trazado 140406" d="M1755.121,4376.989a3.1,3.1,0,0,0,.632-.43c.316-.278.519-.556.481-.606s-.329.152-.632.443S1755.071,4376.951,1755.121,4376.989Z" transform="translate(-1737.491 -4366.176)" fill="#344154"/>
          <path id="Trazado_140407" data-name="Trazado 140407" d="M1754.36,4375.458a2.448,2.448,0,0,0,.949.1,2.043,2.043,0,0,0,.948-.114,1.959,1.959,0,0,0-.948-.1,2.083,2.083,0,0,0-.948.114Z" transform="translate(-1737.691 -4366.339)" fill="#344154"/>
          <path id="Trazado_140408" data-name="Trazado 140408" d="M1754.09,4374.47a1.743,1.743,0,0,0,1.062.291,1.821,1.821,0,0,0,1.1-.164,8.421,8.421,0,0,0-1.088,0A5.306,5.306,0,0,0,1754.09,4374.47Z" transform="translate(-1737.763 -4366.565)" fill="#344154"/>
          <path id="Trazado_140409" data-name="Trazado 140409" d="M1756.76,4376.454a3.236,3.236,0,0,0,1.164,0,7.012,7.012,0,0,0,1.264-.291,3.848,3.848,0,0,0,.709-.3.648.648,0,0,0,.29-.379.455.455,0,0,0-.19-.455,2.123,2.123,0,0,0-2.643.669,2.223,2.223,0,0,0-.367.785.755.755,0,0,0,0,.315,3.652,3.652,0,0,1,.518-1.011,2.024,2.024,0,0,1,.987-.657,1.808,1.808,0,0,1,1.4.062c.177.139.114.354-.088.481a3.1,3.1,0,0,1-.658.292,8.686,8.686,0,0,1-1.2.34A11.734,11.734,0,0,0,1756.76,4376.454Z" transform="translate(-1737.056 -4366.475)" fill="#344154"/>
          <path id="Trazado_140410" data-name="Trazado 140410" d="M1757.325,4376.618a1.149,1.149,0,0,0,.127-.81,1.913,1.913,0,0,0-.341-.848,1.128,1.128,0,0,0-.974-.582.457.457,0,0,0-.291.2.452.452,0,0,0-.063.345,1.268,1.268,0,0,0,.2.519,3.245,3.245,0,0,0,.569.7,1.823,1.823,0,0,0,.671.467s-.228-.214-.557-.581a4.025,4.025,0,0,1-.506-.683c-.164-.254-.278-.7,0-.746s.594.253.771.48a1.952,1.952,0,0,1,.354.758A4.606,4.606,0,0,1,1757.325,4376.618Z" transform="translate(-1737.318 -4366.589)" fill="#344154"/>
          <path id="Trazado_140411" data-name="Trazado 140411" d="M1741.42,4375.471a7.521,7.521,0,0,1,1.341,0,5.761,5.761,0,0,1,2.946,1.163,5.839,5.839,0,0,1,1.872,2.529c.291.771.329,1.266.367,1.266a.951.951,0,0,0,0-.368,5.165,5.165,0,0,0-.215-.974,5.5,5.5,0,0,0-4.958-3.832,4.645,4.645,0,0,0-1,0,1.137,1.137,0,0,0-.354.215Z" transform="translate(-1741.116 -4366.365)" fill="#344154"/>
          <path id="Trazado_140412" data-name="Trazado 140412" d="M1742.845,4369.411a29.546,29.546,0,0,0-.1,3.793,30.561,30.561,0,0,0,.114,3.732,29.223,29.223,0,0,0,.1-3.732,34.335,34.335,0,0,0-.114-3.794Z" transform="translate(-1740.771 -4367.905)" fill="#344154"/>
          <path id="Trazado_140413" data-name="Trazado 140413" d="M1748.39,4378.071a9.939,9.939,0,0,0,2.668.228,11.059,11.059,0,0,0,2.656-.253c0-.063-1.2,0-2.656,0A22.217,22.217,0,0,0,1748.39,4378.071Z" transform="translate(-1739.271 -4365.626)" fill="#344154"/>
          <path id="Trazado_140414" data-name="Trazado 140414" d="M1745.58,4378.1s.1.253.215.519.2.519.266.505.089-.291,0-.594S1745.618,4378.051,1745.58,4378.1Z" transform="translate(-1740.015 -4365.606)" fill="#344154"/>
          <path id="Trazado_140415" data-name="Trazado 140415" d="M1744.49,4376.791a1.121,1.121,0,0,0,.278.431c.2.189.38.3.417.253s-.076-.228-.266-.417S1744.54,4376.754,1744.49,4376.791Z" transform="translate(-1740.304 -4365.953)" fill="#344154"/>
          <path id="Trazado_140416" data-name="Trazado 140416" d="M1743,4376.232c0,.063.266.063.531.152s.455.229.506.189-.1-.291-.442-.4S1743,4376.182,1743,4376.232Z" transform="translate(-1740.698 -4366.128)" fill="#344154"/>
          <path id="Trazado_140417" data-name="Trazado 140417" d="M1741.88,4376.017a.509.509,0,0,0,.228.2.484.484,0,0,0,.316,0c.025,0-.089-.152-.24-.215S1741.893,4375.89,1741.88,4376.017Z" transform="translate(-1740.995 -4366.177)" fill="#344154"/>
        </g>
        <g id="Grupo_63569" data-name="Grupo 63569" transform="translate(0 358.377)">
          <g id="Grupo_63567" data-name="Grupo 63567" transform="translate(0)">
            <path id="Trazado_140418" data-name="Trazado 140418" d="M1708.607,4377.445l6.172-7.5-13.988-11.635-9.131,10.876.81.772c3.68,3.426,18.97,17.173,22.183,18.541C1718.256,4390.017,1708.607,4377.445,1708.607,4377.445Z" transform="translate(-1691.66 -4358.31)" fill="#d9a171"/>
            <g id="Grupo_63566" data-name="Grupo 63566" transform="translate(0.177 6.729)" opacity="0.5">
              <path id="Trazado_140419" data-name="Trazado 140419" d="M1696.783,4371.888a6.321,6.321,0,0,0,.7-4.463,6.159,6.159,0,0,0-2.428-3.794l-3.25,3.908Z" transform="translate(-1691.8 -4363.63)" fill="#fff"/>
            </g>
          </g>
          <g id="Grupo_63568" data-name="Grupo 63568" transform="translate(0 10.586)" opacity="0.4">
            <path id="Trazado_140420" data-name="Trazado 140420" d="M1713.147,4381.578s3.162,4.667,2.074,4.919-17.048-13.039-23.561-19.526l.278-.292,18.477,15.671S1712.325,4381,1713.147,4381.578Z" transform="translate(-1691.66 -4366.68)" fill="#fff"/>
          </g>
          <path id="Trazado_140421" data-name="Trazado 140421" d="M1691.71,4366.53l.215.215.657.62,2.453,2.225c2.074,1.871,4.983,4.414,8.259,7.146s6.324,5.146,8.5,6.854l2.631,2.011.721.544c.164.113.253.177.266.164l-.24-.2-.7-.57-2.529-2.074c-2.188-1.745-5.185-4.173-8.461-6.905s-6.2-5.248-8.3-7.082l-2.53-2.175-.683-.582A1.261,1.261,0,0,0,1691.71,4366.53Z" transform="translate(-1691.647 -4356.134)" fill="#344154"/>
          <path id="Trazado_140422" data-name="Trazado 140422" d="M1706.34,4379.486a7.83,7.83,0,0,1,1.492-.809,6.708,6.708,0,0,1,1.669-.253A2.935,2.935,0,0,0,1706.34,4379.486Z" transform="translate(-1687.774 -4353.017)" fill="#344154"/>
          <path id="Trazado_140423" data-name="Trazado 140423" d="M1704.46,4374.988a2.207,2.207,0,0,0,.885-.163c.48-.153.847-.329.822-.38a1.784,1.784,0,0,0-.885.166C1704.814,4374.773,1704.447,4374.924,1704.46,4374.988Z" transform="translate(-1688.272 -4354.044)" fill="#344154"/>
          <path id="Trazado_140424" data-name="Trazado 140424" d="M1704,4373.68c0,.063.342.1.771.075a1.58,1.58,0,0,0,.759-.125,2.83,2.83,0,0,0-.772-.089C1704.342,4373.554,1704,4373.616,1704,4373.68Z" transform="translate(-1688.394 -4354.279)" fill="#344154"/>
          <path id="Trazado_140425" data-name="Trazado 140425" d="M1704.26,4372.141a4.267,4.267,0,0,0,.658.7c.4.341.759.582.8.531s-.253-.354-.658-.695S1704.31,4372.091,1704.26,4372.141Z" transform="translate(-1688.325 -4354.65)" fill="#344154"/>
          <path id="Trazado_140426" data-name="Trazado 140426" d="M1704.68,4371.241a2.734,2.734,0,0,0,1.556,1.506,8.136,8.136,0,0,0-.784-.747C1705.034,4371.6,1704.743,4371.2,1704.68,4371.241Z" transform="translate(-1688.214 -4354.888)" fill="#344154"/>
          <path id="Trazado_140427" data-name="Trazado 140427" d="M1705.656,4374.289a3.78,3.78,0,0,0,.9.746,7.176,7.176,0,0,0,1.138.582,3.543,3.543,0,0,0,.733.228.67.67,0,0,0,.455-.089.467.467,0,0,0,.165-.479,2.162,2.162,0,0,0-2.441-1.265,2.386,2.386,0,0,0-.8.354.786.786,0,0,0-.227.228,3.627,3.627,0,0,1,1.049-.43,2.238,2.238,0,0,1,1.189.139,1.9,1.9,0,0,1,1.012.974.291.291,0,0,1-.38.3,3.24,3.24,0,0,1-.683-.2,7.269,7.269,0,0,1-1.125-.532C1706.023,4374.541,1705.681,4374.263,1705.656,4374.289Z" transform="translate(-1687.975 -4354.167)" fill="#344154"/>
          <path id="Trazado_140428" data-name="Trazado 140428" d="M1705.846,4374.941a1.267,1.267,0,0,0,.632-.543,1.979,1.979,0,0,0,.3-.86,1.265,1.265,0,0,0-.367-1.075.468.468,0,0,0-.632.177,1.264,1.264,0,0,0-.177.531,3.623,3.623,0,0,0,0,.9,1.648,1.648,0,0,0,.2.784v-.8a4.276,4.276,0,0,1,.076-.847c0-.291.228-.709.494-.557s.278.582.265.873a1.844,1.844,0,0,1-.228.8C1706.111,4374.738,1705.821,4374.9,1705.846,4374.941Z" transform="translate(-1687.976 -4354.579)" fill="#344154"/>
          <path id="Trazado_140429" data-name="Trazado 140429" d="M1694.46,4363.69a6.68,6.68,0,0,1,1,.9,5.69,5.69,0,0,1,1.265,5.97c-.291.772-.607,1.2-.569,1.264s.1-.088.24-.278a4.507,4.507,0,0,0,.468-.886,5.525,5.525,0,0,0,.329-3.263,5.7,5.7,0,0,0-1.581-2.87,5.506,5.506,0,0,0-.784-.619,1,1,0,0,0-.367-.215Z" transform="translate(-1690.919 -4356.885)" fill="#344154"/>
          <path id="Trazado_140430" data-name="Trazado 140430" d="M1700.462,4360.049a31.186,31.186,0,0,0-2.529,2.77,35.525,35.525,0,0,0-2.352,2.909,31.054,31.054,0,0,0,2.529-2.77,35.257,35.257,0,0,0,2.352-2.909Z" transform="translate(-1690.622 -4357.849)" fill="#344154"/>
          <path id="Trazado_140431" data-name="Trazado 140431" d="M1698,4370.241a10.815,10.815,0,0,0,1.872,1.91,10.572,10.572,0,0,0,2.188,1.542c0-.063-.923-.759-2.036-1.72A23.38,23.38,0,0,0,1698,4370.241Z" transform="translate(-1689.982 -4355.152)" fill="#344154"/>
          <path id="Trazado_140432" data-name="Trazado 140432" d="M1695.926,4368.43s-.088.266-.165.544-.19.518-.139.556.253-.164.354-.494S1695.989,4368.43,1695.926,4368.43Z" transform="translate(-1690.614 -4355.631)" fill="#344154"/>
          <path id="Trazado_140433" data-name="Trazado 140433" d="M1695.905,4366.74c-.064,0-.089.229-.064.494s.088.48.152.468.088-.227,0-.493S1695.968,4366.728,1695.905,4366.74Z" transform="translate(-1690.555 -4356.078)" fill="#344154"/>
          <path id="Trazado_140434" data-name="Trazado 140434" d="M1695.11,4365.3a4.913,4.913,0,0,1,.3.456c.139.24.2.468.265.468s.1-.291-.076-.583S1695.135,4365.252,1695.11,4365.3Z" transform="translate(-1690.746 -4356.462)" fill="#344154"/>
          <path id="Trazado_140435" data-name="Trazado 140435" d="M1694.46,4364.392v.3c0,.14.19.24.24.2s0-.164,0-.3S1694.51,4364.353,1694.46,4364.392Z" transform="translate(-1690.919 -4356.702)" fill="#344154"/>
        </g>
        <g id="Grupo_63570" data-name="Grupo 63570" transform="translate(1.543 163.854)">
          <path id="Trazado_140436" data-name="Trazado 140436" d="M1746.149,4213s-6.058,25.635-4.338,30.694,12.811,8.006,12.811,8.006l-.379,70.178-61.363,75.882,22.651,18.541s66.434-76.008,72.3-89.793-3.794-114.632-3.794-114.632Z" transform="translate(-1692.88 -4202.55)" fill="#344154"/>
          <path id="Trazado_140437" data-name="Trazado 140437" d="M1770.513,4204.5l3,213.139-31.213.152-15.67-173.58h0c-3.313-3.162-7.98-8.574-7.335-20.653l.759-14.024Z" transform="translate(-1685.905 -4204.5)" fill="#344154"/>
          <path id="Trazado_140438" data-name="Trazado 140438" d="M1733.75,4326.658s0-.113.177-.316l.594-.873c.569-.81,1.353-1.909,2.314-3.288l8.474-11.723v.164c-.683-7.4-1.5-16.379-2.39-26.041-1.138-12.646-2.049-24.168-2.53-32.489-.278-4.161-.455-7.589-.556-9.865,0-1.113-.076-2-.089-2.682a3.826,3.826,0,0,1,0-.936,5.936,5.936,0,0,1,.114.922c0,.683.126,1.568.215,2.681.19,2.4.442,5.743.771,9.84.658,8.309,1.644,19.792,2.782,32.464.847,9.713,1.707,18.667,2.276,26.1v.152l-8.663,11.6-2.441,3.188-.658.835C1733.838,4326.57,1733.762,4326.671,1733.75,4326.658Z" transform="translate(-1682.061 -4195.471)" fill="#5e6178"/>
          <path id="Trazado_140439" data-name="Trazado 140439" d="M1744.75,4239.335a42.59,42.59,0,0,1-8.271-1.265,43.6,43.6,0,0,1-8.069-2.2,66.75,66.75,0,0,1,8.208,1.555,69.8,69.8,0,0,1,8.132,1.911Z" transform="translate(-1683.475 -4196.196)" fill="#5e6178"/>
          <path id="Trazado_140440" data-name="Trazado 140440" d="M1761.809,4296.76a31.77,31.77,0,0,0-8.423-2.2,32.111,32.111,0,0,0-8.676.835,7.188,7.188,0,0,1,2.428-.949,19.427,19.427,0,0,1,6.324-.543,19,19,0,0,1,6.121,1.53A7.02,7.02,0,0,1,1761.809,4296.76Z" transform="translate(-1679.16 -4180.851)" fill="#5e6178"/>
          <path id="Trazado_140441" data-name="Trazado 140441" d="M1775.26,4304c.139.1-8.638,11.888-19.616,26.319s-19.995,26.04-20.134,25.927,8.638-11.889,19.616-26.319S1775.12,4303.837,1775.26,4304Z" transform="translate(-1681.596 -4178.164)" fill="#5e6178"/>
          <path id="Trazado_140442" data-name="Trazado 140442" d="M1766.9,4217.347a5.3,5.3,0,0,1-1.758,2.315,8.689,8.689,0,0,1-12.722-1.34,5.122,5.122,0,0,1-1.265-2.632,27.282,27.282,0,0,0,1.594,2.34,8.688,8.688,0,0,0,12.078,1.265A14.213,14.213,0,0,0,1766.9,4217.347Z" transform="translate(-1677.456 -4201.539)" fill="#5e6178"/>
        </g>
        <path id="Trazado_140443" data-name="Trazado 140443" d="M1731.643,4138.25a27.215,27.215,0,0,1-1.48-37.94" transform="translate(-1683.318 -4068.225)" fill="#344154"/>
        <g id="Grupo_63575" data-name="Grupo 63575" transform="translate(22.6 75.502)">
          <g id="Grupo_63574" data-name="Grupo 63574">
            <path id="Trazado_140444" data-name="Trazado 140444" d="M1717.712,4146s-6.779,7.665-8.183,36.967c0,0,19.312,3.668,19.666,2.606S1717.712,4146,1717.712,4146Z" transform="translate(-1709.53 -4131.633)" fill="#d9a171"/>
            <g id="Grupo_63571" data-name="Grupo 63571" transform="translate(0 14.367)" opacity="0.3">
              <path id="Trazado_140445" data-name="Trazado 140445" d="M1717.712,4146s-6.779,7.665-8.183,36.967c0,0,19.312,3.668,19.666,2.606S1717.712,4146,1717.712,4146Z" transform="translate(-1709.53 -4146)" fill="#d9a171"/>
            </g>
            <g id="Grupo_63573" data-name="Grupo 63573" transform="translate(6.115)">
              <path id="Trazado_140446" data-name="Trazado 140446" d="M1720.32,4175.26" transform="translate(-1712.789 -4123.888)" fill="#5e6178"/>
              <path id="Trazado_140447" data-name="Trazado 140447" d="M1719.569,4234.387h59.3l-.961-9.257s-6.779-35.248-6.728-35.7l1.062-2.251a22.322,22.322,0,0,0,.266-18.642h0l29.088-9.928-7.108-23.966c-13.178,2.226-33.1,4.7-33.1,4.7l-2.959.254s-20.564,1.075-21.006,1.125c-8.6,1.037-18.6,1.7-22.259,10.9-1.96,4.92-.1,12.306,3.1,19.931l7.588,23.385c3.035,12.862-1.809,12.255-4.477,25.193C1720.948,4222.094,1719.531,4232.591,1719.569,4234.387Z" transform="translate(-1714.365 -4134.64)" fill="#d9a171"/>
              <g id="Grupo_63572" data-name="Grupo 63572" opacity="0.3">
                <path id="Trazado_140448" data-name="Trazado 140448" d="M1719.569,4234.387h59.3l-.961-9.257s-6.779-35.248-6.728-35.7l1.062-2.251a22.322,22.322,0,0,0,.266-18.642h0l29.088-9.928-7.108-23.966c-13.178,2.226-33.1,4.7-33.1,4.7l-2.959.254s-20.564,1.075-21.006,1.125c-8.6,1.037-18.6,1.7-22.259,10.9-1.96,4.92-.1,12.306,3.1,19.931l7.588,23.385c3.035,12.862-1.809,12.255-4.477,25.193C1720.948,4222.094,1719.531,4232.591,1719.569,4234.387Z" transform="translate(-1714.365 -4134.64)" fill="#d9a171"/>
              </g>
            </g>
            <path id="Trazado_140449" data-name="Trazado 140449" d="M1790.044,4153.89a5.05,5.05,0,0,1-1.264.545c-.835.3-2.062.732-3.579,1.264-3.035,1.037-7.259,2.391-11.914,3.882s-8.853,2.959-11.762,4.186c-1.492.595-2.668,1.126-3.491,1.48a6,6,0,0,1-1.265.519,5.639,5.639,0,0,1,1.189-.747c.8-.429,1.948-1.024,3.415-1.682a112.188,112.188,0,0,1,11.749-4.388c4.667-1.493,8.853-2.782,11.977-3.693,1.531-.454,2.782-.809,3.643-1.036A5.936,5.936,0,0,1,1790.044,4153.89Z" transform="translate(-1697.026 -4129.544)" fill="#344154"/>
          </g>
          <path id="Trazado_140450" data-name="Trazado 140450" d="M1796.771,4143.88c0,.177-17.541.328-39.206.328s-39.205-.151-39.205-.328,17.529-.329,39.205-.329S1796.771,4143.689,1796.771,4143.88Z" transform="translate(-1707.193 -4132.282)" fill="#fafafa"/>
          <path id="Trazado_140451" data-name="Trazado 140451" d="M1800.03,4153.068c0,.178-19.514.329-43.582.329s-43.569-.152-43.569-.329,19.5-.328,43.569-.328S1800.03,4152.9,1800.03,4153.068Z" transform="translate(-1708.643 -4129.849)" fill="#fafafa"/>
          <path id="Trazado_140452" data-name="Trazado 140452" d="M1718.242,4163.559a19.549,19.549,0,0,1-7.272,0,20.243,20.243,0,0,1,7.272,0Z" transform="translate(-1709.149 -4127.072)" fill="#fafafa"/>
          <path id="Trazado_140453" data-name="Trazado 140453" d="M1773.707,4163.879c0,.19-12.761.329-28.494.329s-28.493-.139-28.493-.329,12.748-.329,28.493-.329S1773.707,4163.7,1773.707,4163.879Z" transform="translate(-1707.627 -4126.987)" fill="#fafafa"/>
          <path id="Trazado_140454" data-name="Trazado 140454" d="M1771.5,4174.679c0,.177-11.458.329-25.572.329s-25.585-.152-25.585-.329,11.446-.328,25.585-.328S1771.5,4174.5,1771.5,4174.679Z" transform="translate(-1706.668 -4124.129)" fill="#fafafa"/>
          <path id="Trazado_140455" data-name="Trazado 140455" d="M1770.194,4184.679c0,.188-10.37.328-23.169.328s-23.195-.14-23.195-.328,10.383-.329,23.195-.329S1770.194,4184.5,1770.194,4184.679Z" transform="translate(-1705.745 -4121.481)" fill="#fafafa"/>
          <path id="Trazado_140456" data-name="Trazado 140456" d="M1772.481,4192.778c0,.177-11.1.329-24.8.329s-24.8-.152-24.8-.329,11.1-.329,24.8-.329S1772.481,4192.6,1772.481,4192.778Z" transform="translate(-1705.996 -4119.336)" fill="#fafafa"/>
          <path id="Trazado_140457" data-name="Trazado 140457" d="M1776.451,4203.069c0,.177-12.647.328-28.216.328s-28.215-.152-28.215-.328,12.647-.329,28.215-.329S1776.451,4202.93,1776.451,4203.069Z" transform="translate(-1706.753 -4116.614)" fill="#fafafa"/>
          <path id="Trazado_140458" data-name="Trazado 140458" d="M1725.337,4187.871a4.162,4.162,0,0,1-.531-1.163c-.342-.911-.759-1.986-1.265-3.238-1.037-2.732-2.529-6.513-4.034-10.711s-2.8-8.057-3.592-10.889c-.392-1.4-.7-2.53-.86-3.364a5.314,5.314,0,0,1-.215-1.265,45.584,45.584,0,0,1,1.517,4.5c.911,2.782,2.239,6.589,3.794,10.788s2.922,8.005,3.794,10.775c.468,1.391.822,2.529,1.05,3.313a5.256,5.256,0,0,1,.342,1.252Z" transform="translate(-1708.124 -4128.657)" fill="#344154"/>
        </g>
      </g>
    </g>
  </g>
</svg>
