<svg xmlns="http://www.w3.org/2000/svg" width="415.5" height="105" viewBox="0 0 415.5 105">
  <g id="Grupo_71176" data-name="Grupo 71176" transform="translate(-831 -3289)">
    <line id="Línea_398" data-name="Línea 398" y2="105" transform="translate(1027 3289)" fill="none" stroke="#a66d58" stroke-width="2" stroke-dasharray="1 2"/>
    <path id="Trazado_143450" data-name="Trazado 143450" d="M5.086,13.008l3.25-9.383H9.977L5.758,15H4.43L.219,3.625H1.852ZM17.2,12.023H12.43L11.359,15H9.813L14.156,3.625h1.313L19.82,15H18.281ZM12.883,10.8H16.75l-1.937-5.32ZM31.7,8.641H25.18V7.383H31.7Zm0,3.242H25.18v-1.25H31.7Zm11.727.188a1.626,1.626,0,0,0-.5-1.211,4.508,4.508,0,0,0-1.7-.891,5.447,5.447,0,0,1-2.426-1.324,2.921,2.921,0,0,1-.762-2.074,3,3,0,0,1,.746-2.1,3.17,3.17,0,0,1,2.051-.977V1.781h1.164V3.5a3.011,3.011,0,0,1,2.043,1.1,3.959,3.959,0,0,1,.73,2.523H43.328A2.721,2.721,0,0,0,42.8,5.369a1.72,1.72,0,0,0-1.414-.651,1.951,1.951,0,0,0-1.422.481,1.791,1.791,0,0,0-.492,1.342A1.636,1.636,0,0,0,40,7.814a4.786,4.786,0,0,0,1.711.861,7.2,7.2,0,0,1,1.859.852,2.991,2.991,0,0,1,.984,1.082,3.128,3.128,0,0,1,.316,1.445,2.9,2.9,0,0,1-.793,2.125,3.516,3.516,0,0,1-2.223.953v1.492H40.7V15.133A3.369,3.369,0,0,1,38.418,14.1a3.493,3.493,0,0,1-.824-2.449h1.445a2.3,2.3,0,0,0,.57,1.672,2.153,2.153,0,0,0,1.617.586,2.426,2.426,0,0,0,1.609-.492A1.662,1.662,0,0,0,43.422,12.07ZM58.078,15H50.625V13.961l3.938-4.375A9.355,9.355,0,0,0,55.77,7.973,2.693,2.693,0,0,0,56.1,6.688a2.041,2.041,0,0,0-.539-1.461,1.885,1.885,0,0,0-1.437-.57,2.232,2.232,0,0,0-1.676.613,2.343,2.343,0,0,0-.6,1.707H50.406a3.355,3.355,0,0,1,1.012-2.539,3.751,3.751,0,0,1,2.707-.969,3.6,3.6,0,0,1,2.508.832,2.838,2.838,0,0,1,.922,2.215q0,1.68-2.141,4l-3.047,3.3h5.711Zm8.43-8.406a2.641,2.641,0,0,1-.449,1.516,3.057,3.057,0,0,1-1.215,1.039,3.26,3.26,0,0,1,1.41,1.117,2.811,2.811,0,0,1,.52,1.664,2.972,2.972,0,0,1-1,2.352,4.367,4.367,0,0,1-5.25,0,2.986,2.986,0,0,1-.988-2.348,2.9,2.9,0,0,1,.5-1.664,3.136,3.136,0,0,1,1.395-1.125,2.981,2.981,0,0,1-1.2-1.039A2.679,2.679,0,0,1,59.8,6.594a2.94,2.94,0,0,1,.922-2.281,3.915,3.915,0,0,1,4.855,0A2.934,2.934,0,0,1,66.508,6.594Zm-1.18,5.3a2.1,2.1,0,0,0-.605-1.555,2.147,2.147,0,0,0-1.582-.6A2.034,2.034,0,0,0,60.984,11.9a2.019,2.019,0,0,0,.574,1.523,2.565,2.565,0,0,0,3.191,0A2.014,2.014,0,0,0,65.328,11.9ZM63.156,4.656a1.865,1.865,0,0,0-1.379.527,1.937,1.937,0,0,0-.527,1.434,1.928,1.928,0,0,0,.52,1.4,2.064,2.064,0,0,0,2.773,0,1.928,1.928,0,0,0,.52-1.4A1.929,1.929,0,0,0,64.523,5.2,1.839,1.839,0,0,0,63.156,4.656Zm5.617,9.586A.905.905,0,0,1,69,13.617a.848.848,0,0,1,.668-.25.874.874,0,0,1,.676.25.887.887,0,0,1,.23.625.839.839,0,0,1-.23.6.89.89,0,0,1-.676.242.8.8,0,0,1-.891-.844Zm11.164-4.094a6.61,6.61,0,0,1-.867,3.773,3.6,3.6,0,0,1-5.406.027,6.274,6.274,0,0,1-.906-3.605V8.414a6.463,6.463,0,0,1,.867-3.727,3.668,3.668,0,0,1,5.422-.043,6.237,6.237,0,0,1,.891,3.629ZM78.492,8.172A5.3,5.3,0,0,0,77.977,5.5a1.775,1.775,0,0,0-1.633-.84,1.751,1.751,0,0,0-1.617.836,5.171,5.171,0,0,0-.523,2.57v2.313a5.381,5.381,0,0,0,.535,2.723,1.771,1.771,0,0,0,1.621.879,1.747,1.747,0,0,0,1.59-.828,5.186,5.186,0,0,0,.543-2.609Zm10.43,1.977a6.61,6.61,0,0,1-.867,3.773,3.6,3.6,0,0,1-5.406.027,6.274,6.274,0,0,1-.906-3.605V8.414a6.463,6.463,0,0,1,.867-3.727,3.668,3.668,0,0,1,5.422-.043,6.237,6.237,0,0,1,.891,3.629ZM87.477,8.172A5.3,5.3,0,0,0,86.961,5.5a1.775,1.775,0,0,0-1.633-.84,1.751,1.751,0,0,0-1.617.836,5.171,5.171,0,0,0-.523,2.57v2.313a5.381,5.381,0,0,0,.535,2.723,1.771,1.771,0,0,0,1.621.879,1.747,1.747,0,0,0,1.59-.828,5.186,5.186,0,0,0,.543-2.609Zm10.43,1.977a6.61,6.61,0,0,1-.867,3.773,3.6,3.6,0,0,1-5.406.027,6.274,6.274,0,0,1-.906-3.605V8.414a6.463,6.463,0,0,1,.867-3.727,3.668,3.668,0,0,1,5.422-.043,6.237,6.237,0,0,1,.891,3.629ZM96.461,8.172A5.3,5.3,0,0,0,95.945,5.5a1.775,1.775,0,0,0-1.633-.84,1.751,1.751,0,0,0-1.617.836,5.171,5.171,0,0,0-.523,2.57v2.313a5.381,5.381,0,0,0,.535,2.723,1.771,1.771,0,0,0,1.621.879,1.747,1.747,0,0,0,1.59-.828,5.186,5.186,0,0,0,.543-2.609Zm3.477,6.07a.905.905,0,0,1,.223-.625.848.848,0,0,1,.668-.25.874.874,0,0,1,.676.25.887.887,0,0,1,.23.625.839.839,0,0,1-.23.6.89.89,0,0,1-.676.242.8.8,0,0,1-.891-.844ZM111.1,10.148a6.61,6.61,0,0,1-.867,3.773,3.6,3.6,0,0,1-5.406.027,6.274,6.274,0,0,1-.906-3.605V8.414a6.463,6.463,0,0,1,.867-3.727,3.668,3.668,0,0,1,5.422-.043,6.237,6.237,0,0,1,.891,3.629Zm-1.445-1.977a5.3,5.3,0,0,0-.516-2.676,1.775,1.775,0,0,0-1.633-.84,1.751,1.751,0,0,0-1.617.836,5.171,5.171,0,0,0-.523,2.57v2.313A5.381,5.381,0,0,0,105.9,13.1a1.771,1.771,0,0,0,1.621.879,1.747,1.747,0,0,0,1.59-.828,5.186,5.186,0,0,0,.543-2.609Zm10.43,1.977a6.61,6.61,0,0,1-.867,3.773,3.6,3.6,0,0,1-5.406.027,6.274,6.274,0,0,1-.906-3.605V8.414a6.463,6.463,0,0,1,.867-3.727,3.668,3.668,0,0,1,5.422-.043,6.237,6.237,0,0,1,.891,3.629Zm-1.445-1.977a5.3,5.3,0,0,0-.516-2.676,1.775,1.775,0,0,0-1.633-.84,1.751,1.751,0,0,0-1.617.836,5.171,5.171,0,0,0-.523,2.57v2.313a5.381,5.381,0,0,0,.535,2.723,1.771,1.771,0,0,0,1.621.879,1.747,1.747,0,0,0,1.59-.828,5.186,5.186,0,0,0,.543-2.609Zm10.43,1.977a6.61,6.61,0,0,1-.867,3.773,3.6,3.6,0,0,1-5.406.027,6.274,6.274,0,0,1-.906-3.605V8.414a6.463,6.463,0,0,1,.867-3.727,3.668,3.668,0,0,1,5.422-.043,6.237,6.237,0,0,1,.891,3.629Zm-1.445-1.977a5.3,5.3,0,0,0-.516-2.676,1.775,1.775,0,0,0-1.633-.84,1.751,1.751,0,0,0-1.617.836,5.171,5.171,0,0,0-.523,2.57v2.313a5.381,5.381,0,0,0,.535,2.723,1.771,1.771,0,0,0,1.621.879,1.747,1.747,0,0,0,1.59-.828,5.186,5.186,0,0,0,.543-2.609Z" transform="translate(1050 3374.5)" fill="#12263f"/>
    <path id="Trazado_143451" data-name="Trazado 143451" d="M6.17,7.918H2.292V12H1.073V2.758H6.8v1H2.292V6.922H6.17Zm6,3.4a2.494,2.494,0,0,1-2.012.806,2.135,2.135,0,0,1-1.673-.638A2.761,2.761,0,0,1,7.909,9.6V5.132H9.083V9.569q0,1.562,1.27,1.562a1.758,1.758,0,0,0,1.79-1v-5h1.174V12H12.2Zm5.776.806a3,3,0,0,1-2.272-.917A3.4,3.4,0,0,1,14.8,8.756V8.541a4.121,4.121,0,0,1,.39-1.825,3.045,3.045,0,0,1,1.092-1.257A2.745,2.745,0,0,1,17.805,5a2.572,2.572,0,0,1,2.082.882,3.82,3.82,0,0,1,.743,2.526V8.9H15.977a2.441,2.441,0,0,0,.594,1.641,1.866,1.866,0,0,0,1.444.625,2.045,2.045,0,0,0,1.054-.254,2.648,2.648,0,0,0,.755-.673l.717.559A2.884,2.884,0,0,1,17.951,12.127ZM17.805,5.97a1.566,1.566,0,0,0-1.193.517,2.515,2.515,0,0,0-.6,1.45h3.44V7.849a2.237,2.237,0,0,0-.482-1.387A1.475,1.475,0,0,0,17.805,5.97ZM23.1,5.132,23.137,6A2.5,2.5,0,0,1,25.194,5q2.177,0,2.2,2.457V12H26.216V7.455a1.581,1.581,0,0,0-.34-1.1A1.361,1.361,0,0,0,24.838,6a1.7,1.7,0,0,0-1,.3,2.069,2.069,0,0,0-.673.8V12H21.988V5.132Zm7.655-1.663V5.132h1.282V6.04H30.754V10.3a.953.953,0,0,0,.171.62.721.721,0,0,0,.584.207,2.843,2.843,0,0,0,.559-.076V12a3.424,3.424,0,0,1-.9.126,1.462,1.462,0,0,1-1.187-.476,2.045,2.045,0,0,1-.4-1.352V6.04H28.33V5.132h1.25V3.469Zm5.5,8.658a3,3,0,0,1-2.272-.917,3.4,3.4,0,0,1-.876-2.453V8.541a4.121,4.121,0,0,1,.39-1.825,3.045,3.045,0,0,1,1.092-1.257A2.745,2.745,0,0,1,36.112,5a2.572,2.572,0,0,1,2.082.882,3.82,3.82,0,0,1,.743,2.526V8.9H34.284a2.441,2.441,0,0,0,.594,1.641,1.866,1.866,0,0,0,1.444.625,2.045,2.045,0,0,0,1.054-.254,2.648,2.648,0,0,0,.755-.673l.717.559A2.884,2.884,0,0,1,36.258,12.127ZM36.112,5.97a1.566,1.566,0,0,0-1.193.517,2.515,2.515,0,0,0-.6,1.45h3.44V7.849a2.237,2.237,0,0,0-.482-1.387A1.475,1.475,0,0,0,36.112,5.97Zm4.145,5.415a.735.735,0,0,1,.181-.508.689.689,0,0,1,.543-.2.71.71,0,0,1,.549.2.721.721,0,0,1,.187.508.681.681,0,0,1-.187.489.723.723,0,0,1-.549.2.653.653,0,0,1-.724-.686Zm.006-5.6a.735.735,0,0,1,.181-.508.689.689,0,0,1,.543-.2.71.71,0,0,1,.549.2.721.721,0,0,1,.187.508.681.681,0,0,1-.187.489.723.723,0,0,1-.549.2.653.653,0,0,1-.724-.686ZM52.978,3.754H50.007V12H48.794V3.754H45.83v-1h7.147Zm3.409,8.373a3,3,0,0,1-2.272-.917,3.4,3.4,0,0,1-.876-2.453V8.541a4.121,4.121,0,0,1,.39-1.825A3.045,3.045,0,0,1,54.72,5.459,2.745,2.745,0,0,1,56.24,5a2.572,2.572,0,0,1,2.082.882,3.82,3.82,0,0,1,.743,2.526V8.9H54.412a2.441,2.441,0,0,0,.594,1.641,1.866,1.866,0,0,0,1.444.625,2.045,2.045,0,0,0,1.054-.254,2.648,2.648,0,0,0,.755-.673l.717.559A2.884,2.884,0,0,1,56.386,12.127ZM56.24,5.97a1.566,1.566,0,0,0-1.193.517,2.515,2.515,0,0,0-.6,1.45h3.44V7.849a2.237,2.237,0,0,0-.482-1.387A1.475,1.475,0,0,0,56.24,5.97ZM61.7,12H60.525V2.25H61.7Zm3.155,0H63.68V2.25h1.174Zm1.568-3.5a4.057,4.057,0,0,1,.4-1.815,2.96,2.96,0,0,1,1.1-1.244A3.007,3.007,0,0,1,69.539,5a2.9,2.9,0,0,1,2.269.971,3.736,3.736,0,0,1,.866,2.583v.083a4.092,4.092,0,0,1-.384,1.8,2.916,2.916,0,0,1-1.1,1.241,3.041,3.041,0,0,1-1.641.444,2.889,2.889,0,0,1-2.263-.971,3.718,3.718,0,0,1-.866-2.571Zm1.181.14a2.938,2.938,0,0,0,.53,1.834,1.8,1.8,0,0,0,2.841-.01A3.213,3.213,0,0,0,71.5,8.5a2.933,2.933,0,0,0-.536-1.831,1.705,1.705,0,0,0-1.425-.7,1.686,1.686,0,0,0-1.4.692A3.189,3.189,0,0,0,67.6,8.642Zm6.506,5.2-.667-.457a3.063,3.063,0,0,0,.622-1.714V10.61h1.149v.92a2.891,2.891,0,0,1-.314,1.282A3,3,0,0,1,74.109,13.841ZM81.326,11h4.38v1H80.1V2.758h1.225Zm5.611.381a.735.735,0,0,1,.181-.508.689.689,0,0,1,.543-.2.71.71,0,0,1,.549.2.721.721,0,0,1,.187.508.681.681,0,0,1-.187.489.723.723,0,0,1-.549.2.653.653,0,0,1-.724-.686Zm6.8.616V2.758h3.021a3.507,3.507,0,0,1,2.263.622,2.242,2.242,0,0,1,.759,1.841,1.877,1.877,0,0,1-.368,1.146,2.387,2.387,0,0,1-1,.771,2.143,2.143,0,0,1,1.184.8,2.286,2.286,0,0,1,.435,1.4,2.472,2.472,0,0,1-.806,1.955A3.334,3.334,0,0,1,96.941,12Zm1.219-4.323V11h2.012a1.938,1.938,0,0,0,1.343-.441A1.549,1.549,0,0,0,98.8,9.347q0-1.669-1.815-1.669Zm0-.978H96.8a1.93,1.93,0,0,0,1.279-.4,1.344,1.344,0,0,0,.479-1.088,1.321,1.321,0,0,0-.444-1.11,2.182,2.182,0,0,0-1.352-.347h-1.8Zm6.716,4.685a.735.735,0,0,1,.181-.508.689.689,0,0,1,.543-.2.71.71,0,0,1,.549.2.721.721,0,0,1,.187.508.681.681,0,0,1-.187.489.723.723,0,0,1-.549.2.653.653,0,0,1-.724-.686Zm6.57-3.136a9.814,9.814,0,0,1,.384-2.755,8,8,0,0,1,1.146-2.4,4.874,4.874,0,0,1,1.581-1.523l.241.774a5.056,5.056,0,0,0-1.52,2.171,9.411,9.411,0,0,0-.651,3.269l-.006.54a9.46,9.46,0,0,0,.9,4.253,5.079,5.079,0,0,0,1.282,1.688l-.241.717a5.031,5.031,0,0,1-1.612-1.574A8.823,8.823,0,0,1,108.24,8.249ZM118.663,12h-6.056v-.844l3.2-3.555a7.6,7.6,0,0,0,.981-1.311,2.188,2.188,0,0,0,.27-1.044,1.658,1.658,0,0,0-.438-1.187,1.531,1.531,0,0,0-1.168-.463,1.814,1.814,0,0,0-1.362.5,1.9,1.9,0,0,0-.486,1.387H112.43a2.726,2.726,0,0,1,.822-2.063,3.047,3.047,0,0,1,2.2-.787,2.928,2.928,0,0,1,2.038.676,2.306,2.306,0,0,1,.749,1.8,5.287,5.287,0,0,1-1.739,3.25l-2.476,2.685h4.64Zm7.04-3.942a5.371,5.371,0,0,1-.7,3.066,2.928,2.928,0,0,1-4.393.022,5.1,5.1,0,0,1-.736-2.929V6.649a5.251,5.251,0,0,1,.7-3.028,2.98,2.98,0,0,1,4.405-.035,5.068,5.068,0,0,1,.724,2.948Zm-1.174-1.606a4.3,4.3,0,0,0-.419-2.174,1.442,1.442,0,0,0-1.327-.682,1.423,1.423,0,0,0-1.314.679,4.2,4.2,0,0,0-.425,2.088V8.242a4.372,4.372,0,0,0,.435,2.212,1.439,1.439,0,0,0,1.317.714,1.42,1.42,0,0,0,1.292-.673,4.214,4.214,0,0,0,.441-2.12ZM131.066,12h-1.181V4.173l-2.368.87V3.977l3.364-1.263h.184Zm7.941-4.062a2.873,2.873,0,0,1-.879.7,2.385,2.385,0,0,1-1.12.267,2.463,2.463,0,0,1-1.393-.394,2.558,2.558,0,0,1-.917-1.108,3.776,3.776,0,0,1-.324-1.577,3.847,3.847,0,0,1,.352-1.669,2.588,2.588,0,0,1,1-1.136,2.851,2.851,0,0,1,1.511-.394A2.581,2.581,0,0,1,139.4,3.656a4.471,4.471,0,0,1,.79,2.8v.343a5.974,5.974,0,0,1-1.066,3.939,4.1,4.1,0,0,1-3.218,1.273h-.229v-1h.248a3.233,3.233,0,0,0,2.234-.757A3.248,3.248,0,0,0,139.007,7.938Zm-1.809,0a1.813,1.813,0,0,0,1.089-.362,2.133,2.133,0,0,0,.727-.9v-.47a3.232,3.232,0,0,0-.5-1.879A1.533,1.533,0,0,0,136,4.2a2.448,2.448,0,0,0-.47,1.565,2.548,2.548,0,0,0,.454,1.558A1.437,1.437,0,0,0,137.2,7.938Zm7.439.375a9.819,9.819,0,0,1-.371,2.714,8.024,8.024,0,0,1-1.136,2.4,4.978,4.978,0,0,1-1.6,1.562l-.248-.717a5.1,5.1,0,0,0,1.571-2.326,10.065,10.065,0,0,0,.606-3.5v-.2a10.449,10.449,0,0,0-.279-2.479A8.366,8.366,0,0,0,142.4,3.7a4.743,4.743,0,0,0-1.12-1.416l.248-.717a4.959,4.959,0,0,1,1.6,1.549,8.041,8.041,0,0,1,1.136,2.393A10.045,10.045,0,0,1,144.638,8.312Zm1.834,3.072a.735.735,0,0,1,.181-.508.689.689,0,0,1,.543-.2.71.71,0,0,1,.549.2.721.721,0,0,1,.187.508.682.682,0,0,1-.187.489.723.723,0,0,1-.549.2.653.653,0,0,1-.724-.686Z" transform="translate(834 3369)" fill="#12263f"/>
    <g id="Grupo_70120" data-name="Grupo 70120" transform="translate(20 -216.5)">
      <g id="Rectángulo_26234" data-name="Rectángulo 26234" transform="translate(811 3506)" fill="none" stroke="#a66d58" stroke-width="2">
        <rect width="148" height="64" rx="9" stroke="none"/>
        <rect x="1" y="1" width="146" height="62" rx="8" fill="none"/>
      </g>
      <g id="Grupo_70119" data-name="Grupo 70119" transform="translate(7)">
        <path id="Trazado_143445" data-name="Trazado 143445" d="M8.313,13.008l3.25-9.383H13.2L8.984,15H7.656L3.445,3.625H5.078Zm12.109-.984H15.656L14.586,15H13.039L17.383,3.625H18.7L23.047,15H21.508ZM16.109,10.8h3.867l-1.937-5.32ZM34.922,8.641H28.406V7.383h6.516Zm0,3.242H28.406v-1.25h6.516Z" transform="translate(824 3524)" fill="#12263f"/>
        <path id="Trazado_143444" data-name="Trazado 143444" d="M5.086,13.008l3.25-9.383H9.977L5.758,15H4.43L.219,3.625H1.852ZM17.773,9.977H13V15H11.5V3.625h7.047V4.852H13v3.9h4.773Z" transform="translate(886 3513)" fill="#12263f"/>
        <path id="Trazado_143446" data-name="Trazado 143446" d="M1.039,10.383a12.079,12.079,0,0,1,.473-3.391,9.85,9.85,0,0,1,1.41-2.953A6,6,0,0,1,4.867,2.164l.3.953A6.222,6.222,0,0,0,3.293,5.789a11.583,11.583,0,0,0-.8,4.023l-.008.664a11.643,11.643,0,0,0,1.1,5.234,6.252,6.252,0,0,0,1.578,2.078l-.3.883a6.192,6.192,0,0,1-1.984-1.937A10.859,10.859,0,0,1,1.039,10.383ZM11.164,15H9.711V5.367L6.8,6.438V5.125L10.938,3.57h.227Zm8.523-6.1h3.172v1.367H19.688v3.594H18.234V10.266H15.063V8.9h3.172V5.578h1.453Zm6.5,6.1H24.742V6.547h1.445ZM24.625,4.3a.863.863,0,0,1,.215-.594.807.807,0,0,1,.637-.242.819.819,0,0,1,.641.242.854.854,0,0,1,.219.594.826.826,0,0,1-.219.586.834.834,0,0,1-.641.234.821.821,0,0,1-.637-.234A.834.834,0,0,1,24.625,4.3Zm5.359,3.012-2.359-.7.359-1.178,2.359.874-.07-2.685h1.2l-.078,2.724,2.32-.859.359,1.186-2.4.71L33.219,9.5l-.969.734L30.8,7.988l-1.406,2.2-.977-.711Zm6.773-.77L36.8,7.609a3.08,3.08,0,0,1,2.531-1.219q2.68,0,2.7,3.023V15H40.594V9.406a1.946,1.946,0,0,0-.418-1.352A1.675,1.675,0,0,0,38.9,7.617a2.086,2.086,0,0,0-1.234.375,2.546,2.546,0,0,0-.828.984V15H35.391V6.547Zm10.8,3.914A12.084,12.084,0,0,1,47.1,13.8a9.876,9.876,0,0,1-1.4,2.949,6.127,6.127,0,0,1-1.973,1.922l-.3-.883a6.281,6.281,0,0,0,1.934-2.863,12.387,12.387,0,0,0,.746-4.309v-.25a12.861,12.861,0,0,0-.344-3.051A10.3,10.3,0,0,0,44.8,4.789a5.838,5.838,0,0,0-1.379-1.742l.3-.883A6.1,6.1,0,0,1,45.691,4.07a9.9,9.9,0,0,1,1.4,2.945A12.363,12.363,0,0,1,47.555,10.461Z" transform="translate(872 3541)" fill="#12263f"/>
        <line id="Línea_399" data-name="Línea 399" x2="68" transform="translate(864.5 3536.5)" fill="none" stroke="#a66d58" stroke-width="2"/>
      </g>
    </g>
    <g id="Grupo_70121" data-name="Grupo 70121" transform="translate(0 -214.5)">
      <path id="Trazado_143448" data-name="Trazado 143448" d="M5.086,13.008l3.25-9.383H9.977L5.758,15H4.43L.219,3.625H1.852ZM17.2,12.023H12.43L11.359,15H9.813L14.156,3.625h1.313L19.82,15H18.281ZM12.883,10.8H16.75l-1.937-5.32ZM31.7,8.641H25.18V7.383H31.7Zm0,3.242H25.18v-1.25H31.7Z" transform="translate(1050 3523)" fill="#12263f"/>
      <path id="Trazado_143447" data-name="Trazado 143447" d="M39.547,12.07a1.626,1.626,0,0,0-.5-1.211,4.508,4.508,0,0,0-1.7-.891,5.447,5.447,0,0,1-2.426-1.324,2.921,2.921,0,0,1-.762-2.074,3,3,0,0,1,.746-2.1,3.17,3.17,0,0,1,2.051-.977V1.781h1.164V3.5A3.011,3.011,0,0,1,40.16,4.6a3.959,3.959,0,0,1,.73,2.523H39.453a2.721,2.721,0,0,0-.523-1.756,1.72,1.72,0,0,0-1.414-.651,1.951,1.951,0,0,0-1.422.481A1.791,1.791,0,0,0,35.6,6.542a1.636,1.636,0,0,0,.52,1.272,4.786,4.786,0,0,0,1.711.861,7.2,7.2,0,0,1,1.859.852,2.991,2.991,0,0,1,.984,1.082,3.128,3.128,0,0,1,.316,1.445A2.9,2.9,0,0,1,40.2,14.18a3.516,3.516,0,0,1-2.223.953v1.492H36.82V15.133A3.369,3.369,0,0,1,34.543,14.1a3.493,3.493,0,0,1-.824-2.449h1.445a2.3,2.3,0,0,0,.57,1.672,2.153,2.153,0,0,0,1.617.586,2.426,2.426,0,0,0,1.609-.492A1.662,1.662,0,0,0,39.547,12.07Zm5.344-3.461h1.086a2.387,2.387,0,0,0,1.609-.539,1.8,1.8,0,0,0,.586-1.414,1.764,1.764,0,0,0-1.992-2,2.072,2.072,0,0,0-1.5.535,1.873,1.873,0,0,0-.559,1.418H42.68a2.9,2.9,0,0,1,.988-2.246,3.6,3.6,0,0,1,2.512-.895A3.558,3.558,0,0,1,48.7,4.32a3.076,3.076,0,0,1,.914,2.367,2.5,2.5,0,0,1-.48,1.438,2.9,2.9,0,0,1-1.309,1.039,2.8,2.8,0,0,1,1.449.984,2.734,2.734,0,0,1,.512,1.68,3.1,3.1,0,0,1-1,2.43,3.745,3.745,0,0,1-2.6.9,3.844,3.844,0,0,1-2.605-.867,2.877,2.877,0,0,1-1-2.289h1.453a1.859,1.859,0,0,0,.586,1.438,2.229,2.229,0,0,0,1.57.539,2.187,2.187,0,0,0,1.6-.547,2.108,2.108,0,0,0,.555-1.57,1.912,1.912,0,0,0-.609-1.523,2.655,2.655,0,0,0-1.758-.547H44.891Zm7.547.688.578-5.672h5.828V4.961h-4.6l-.344,3.1a3.671,3.671,0,0,1,1.9-.492A3.138,3.138,0,0,1,58.266,8.6a4.026,4.026,0,0,1,.914,2.777,3.886,3.886,0,0,1-.949,2.77,3.46,3.46,0,0,1-2.652,1.012,3.6,3.6,0,0,1-2.461-.836,3.337,3.337,0,0,1-1.086-2.312H53.4a2.3,2.3,0,0,0,.7,1.473,2.162,2.162,0,0,0,1.484.5,1.95,1.95,0,0,0,1.582-.687,2.874,2.874,0,0,0,.574-1.9,2.638,2.638,0,0,0-.621-1.832,2.113,2.113,0,0,0-1.652-.691,2.383,2.383,0,0,0-1.484.414l-.383.313Zm8.5,4.945a.905.905,0,0,1,.223-.625.848.848,0,0,1,.668-.25.874.874,0,0,1,.676.25.887.887,0,0,1,.23.625.839.839,0,0,1-.23.6.89.89,0,0,1-.676.242.8.8,0,0,1-.891-.844ZM72.1,10.148a6.61,6.61,0,0,1-.867,3.773,3.6,3.6,0,0,1-5.406.027,6.274,6.274,0,0,1-.906-3.605V8.414a6.463,6.463,0,0,1,.867-3.727,3.668,3.668,0,0,1,5.422-.043A6.237,6.237,0,0,1,72.1,8.273ZM70.656,8.172A5.3,5.3,0,0,0,70.141,5.5a1.775,1.775,0,0,0-1.633-.84,1.751,1.751,0,0,0-1.617.836,5.171,5.171,0,0,0-.523,2.57v2.313A5.381,5.381,0,0,0,66.9,13.1a1.771,1.771,0,0,0,1.621.879,1.747,1.747,0,0,0,1.59-.828,5.186,5.186,0,0,0,.543-2.609Zm10.43,1.977a6.61,6.61,0,0,1-.867,3.773,3.6,3.6,0,0,1-5.406.027,6.274,6.274,0,0,1-.906-3.605V8.414a6.463,6.463,0,0,1,.867-3.727A3.668,3.668,0,0,1,80.2,4.645a6.237,6.237,0,0,1,.891,3.629ZM79.641,8.172A5.3,5.3,0,0,0,79.125,5.5a1.775,1.775,0,0,0-1.633-.84,1.751,1.751,0,0,0-1.617.836,5.171,5.171,0,0,0-.523,2.57v2.313a5.381,5.381,0,0,0,.535,2.723,1.771,1.771,0,0,0,1.621.879,1.747,1.747,0,0,0,1.59-.828,5.186,5.186,0,0,0,.543-2.609Zm10.43,1.977a6.61,6.61,0,0,1-.867,3.773,3.6,3.6,0,0,1-5.406.027,6.274,6.274,0,0,1-.906-3.605V8.414a6.463,6.463,0,0,1,.867-3.727,3.668,3.668,0,0,1,5.422-.043,6.237,6.237,0,0,1,.891,3.629ZM88.625,8.172A5.3,5.3,0,0,0,88.109,5.5a1.775,1.775,0,0,0-1.633-.84,1.751,1.751,0,0,0-1.617.836,5.171,5.171,0,0,0-.523,2.57v2.313a5.381,5.381,0,0,0,.535,2.723,1.771,1.771,0,0,0,1.621.879,1.747,1.747,0,0,0,1.59-.828,5.186,5.186,0,0,0,.543-2.609Zm3.477,6.07a.905.905,0,0,1,.223-.625.848.848,0,0,1,.668-.25.874.874,0,0,1,.676.25.887.887,0,0,1,.23.625.839.839,0,0,1-.23.6.89.89,0,0,1-.676.242.8.8,0,0,1-.891-.844Zm11.164-4.094a6.61,6.61,0,0,1-.867,3.773,3.6,3.6,0,0,1-5.406.027,6.274,6.274,0,0,1-.906-3.605V8.414a6.463,6.463,0,0,1,.867-3.727,3.668,3.668,0,0,1,5.422-.043,6.237,6.237,0,0,1,.891,3.629ZM101.82,8.172A5.3,5.3,0,0,0,101.3,5.5a1.775,1.775,0,0,0-1.633-.84,1.751,1.751,0,0,0-1.617.836,5.171,5.171,0,0,0-.523,2.57v2.313a5.381,5.381,0,0,0,.535,2.723,1.771,1.771,0,0,0,1.621.879,1.747,1.747,0,0,0,1.59-.828,5.186,5.186,0,0,0,.543-2.609Zm10.43,1.977a6.61,6.61,0,0,1-.867,3.773,3.6,3.6,0,0,1-5.406.027,6.274,6.274,0,0,1-.906-3.605V8.414a6.463,6.463,0,0,1,.867-3.727,3.668,3.668,0,0,1,5.422-.043,6.237,6.237,0,0,1,.891,3.629ZM110.8,8.172a5.3,5.3,0,0,0-.516-2.676,1.775,1.775,0,0,0-1.633-.84,1.751,1.751,0,0,0-1.617.836,5.171,5.171,0,0,0-.523,2.57v2.313a5.381,5.381,0,0,0,.535,2.723,1.771,1.771,0,0,0,1.621.879,1.747,1.747,0,0,0,1.59-.828,5.186,5.186,0,0,0,.543-2.609Zm10.43,1.977a6.61,6.61,0,0,1-.867,3.773,3.6,3.6,0,0,1-5.406.027,6.274,6.274,0,0,1-.906-3.605V8.414a6.463,6.463,0,0,1,.867-3.727,3.668,3.668,0,0,1,5.422-.043,6.237,6.237,0,0,1,.891,3.629Zm-1.445-1.977a5.3,5.3,0,0,0-.516-2.676,1.775,1.775,0,0,0-1.633-.84,1.751,1.751,0,0,0-1.617.836,5.171,5.171,0,0,0-.523,2.57v2.313a5.381,5.381,0,0,0,.535,2.723,1.771,1.771,0,0,0,1.621.879,1.747,1.747,0,0,0,1.59-.828,5.186,5.186,0,0,0,.543-2.609Z" transform="translate(1095 3511)" fill="#12263f"/>
      <path id="Trazado_143449" data-name="Trazado 143449" d="M31.492,10.383a12.079,12.079,0,0,1,.473-3.391,9.85,9.85,0,0,1,1.41-2.953A6,6,0,0,1,35.32,2.164l.3.953a6.222,6.222,0,0,0-1.871,2.672,11.583,11.583,0,0,0-.8,4.023l-.008.664a11.643,11.643,0,0,0,1.1,5.234,6.252,6.252,0,0,0,1.578,2.078l-.3.883a6.192,6.192,0,0,1-1.984-1.937A10.859,10.859,0,0,1,31.492,10.383ZM41.617,15H40.164V5.367L37.25,6.438V5.125L41.391,3.57h.227Zm8.523-6.1h3.172v1.367H50.141v3.594H48.688V10.266H45.516V8.9h3.172V5.578h1.453Zm11.914,1.25a6.61,6.61,0,0,1-.867,3.773,3.6,3.6,0,0,1-5.406.027,6.274,6.274,0,0,1-.906-3.605V8.414a6.463,6.463,0,0,1,.867-3.727,3.668,3.668,0,0,1,5.422-.043,6.237,6.237,0,0,1,.891,3.629ZM60.609,8.172A5.3,5.3,0,0,0,60.094,5.5a1.775,1.775,0,0,0-1.633-.84,1.751,1.751,0,0,0-1.617.836,5.171,5.171,0,0,0-.523,2.57v2.313a5.381,5.381,0,0,0,.535,2.723,1.771,1.771,0,0,0,1.621.879,1.747,1.747,0,0,0,1.59-.828,5.186,5.186,0,0,0,.543-2.609Zm3.477,6.07a.905.905,0,0,1,.223-.625.848.848,0,0,1,.668-.25.874.874,0,0,1,.676.25.887.887,0,0,1,.23.625.839.839,0,0,1-.23.6.89.89,0,0,1-.676.242.8.8,0,0,1-.891-.844ZM75.25,10.148a6.61,6.61,0,0,1-.867,3.773,3.6,3.6,0,0,1-5.406.027,6.274,6.274,0,0,1-.906-3.605V8.414a6.463,6.463,0,0,1,.867-3.727,3.668,3.668,0,0,1,5.422-.043,6.237,6.237,0,0,1,.891,3.629ZM73.8,8.172A5.3,5.3,0,0,0,73.289,5.5a1.775,1.775,0,0,0-1.633-.84,1.751,1.751,0,0,0-1.617.836,5.171,5.171,0,0,0-.523,2.57v2.313a5.381,5.381,0,0,0,.535,2.723,1.771,1.771,0,0,0,1.621.879,1.747,1.747,0,0,0,1.59-.828,5.186,5.186,0,0,0,.543-2.609ZM84.555,15H77.1V13.961l3.938-4.375a9.354,9.354,0,0,0,1.207-1.613,2.693,2.693,0,0,0,.332-1.285,2.041,2.041,0,0,0-.539-1.461,1.885,1.885,0,0,0-1.437-.57,2.232,2.232,0,0,0-1.676.613,2.343,2.343,0,0,0-.6,1.707H76.883a3.355,3.355,0,0,1,1.012-2.539A3.751,3.751,0,0,1,80.6,3.469a3.6,3.6,0,0,1,2.508.832,2.838,2.838,0,0,1,.922,2.215q0,1.68-2.141,4l-3.047,3.3h5.711Zm2.2-5.7.578-5.672h5.828V4.961h-4.6l-.344,3.1a3.671,3.671,0,0,1,1.9-.492A3.138,3.138,0,0,1,92.578,8.6a4.026,4.026,0,0,1,.914,2.777,3.886,3.886,0,0,1-.949,2.77,3.46,3.46,0,0,1-2.652,1.012,3.6,3.6,0,0,1-2.461-.836,3.337,3.337,0,0,1-1.086-2.312h1.367a2.3,2.3,0,0,0,.7,1.473,2.162,2.162,0,0,0,1.484.5,1.95,1.95,0,0,0,1.582-.687,2.874,2.874,0,0,0,.574-1.9,2.638,2.638,0,0,0-.621-1.832,2.113,2.113,0,0,0-1.652-.691,2.383,2.383,0,0,0-1.484.414l-.383.313ZM96.7,7.316l-2.359-.7L94.7,5.436l2.359.874-.07-2.685h1.2l-.078,2.724,2.32-.859.359,1.186-2.4.71L99.938,9.5l-.969.734-1.453-2.25-1.406,2.2-.977-.711ZM106.711,15h-1.453V5.367l-2.914,1.07V5.125l4.141-1.555h.227Zm11.367-4.852a6.61,6.61,0,0,1-.867,3.773,3.6,3.6,0,0,1-5.406.027,6.274,6.274,0,0,1-.906-3.605V8.414a6.463,6.463,0,0,1,.867-3.727,3.668,3.668,0,0,1,5.422-.043,6.237,6.237,0,0,1,.891,3.629Zm-1.445-1.977a5.3,5.3,0,0,0-.516-2.676,1.775,1.775,0,0,0-1.633-.84,1.751,1.751,0,0,0-1.617.836,5.171,5.171,0,0,0-.523,2.57v2.313a5.381,5.381,0,0,0,.535,2.723,1.771,1.771,0,0,0,1.621.879,1.747,1.747,0,0,0,1.59-.828,5.186,5.186,0,0,0,.543-2.609Zm6.781,2.289a12.084,12.084,0,0,1-.457,3.34,9.876,9.876,0,0,1-1.4,2.949,6.127,6.127,0,0,1-1.973,1.922l-.3-.883a6.281,6.281,0,0,0,1.934-2.863,12.387,12.387,0,0,0,.746-4.309v-.25a12.861,12.861,0,0,0-.344-3.051,10.3,10.3,0,0,0-.957-2.527,5.838,5.838,0,0,0-1.379-1.742l.3-.883a6.1,6.1,0,0,1,1.965,1.906,9.9,9.9,0,0,1,1.4,2.945A12.363,12.363,0,0,1,123.414,10.461Z" transform="translate(1095 3543)" fill="#12263f"/>
      <line id="Línea_400" data-name="Línea 400" x2="147" transform="translate(1099.5 3534.5)" fill="none" stroke="#a66d58" stroke-width="2"/>
    </g>
  </g>
</svg>
